<?xml version="1.0" standalone="no"?>
<!DOCTYPE svg PUBLIC "-//W3C//DTD SVG 20010904//EN"
 "http://www.w3.org/TR/2001/REC-SVG-20010904/DTD/svg10.dtd">
<svg version="1.0" xmlns="http://www.w3.org/2000/svg"
 width="200.000000pt" height="200.000000pt" viewBox="0 0 200.000000 200.000000"
 preserveAspectRatio="xMidYMid meet">
<metadata>
Created by potrace 1.13, written by Peter Selinger 2001-2015
</metadata>
<g transform="translate(0.000000,200.000000) scale(0.100000,-0.100000)"
fill="#000000" stroke="none">
<path d="M1215 1861 c-27 -8 -83 -39 -184 -100 -46 -28 -94 -51 -107 -51 -13
0 -43 -13 -67 -30 -25 -16 -51 -30 -58 -31 -8 0 -27 -9 -44 -20 -39 -24 -169
-89 -181 -89 -10 0 -62 -39 -53 -40 18 0 162 59 209 86 14 8 86 45 160 82 133
65 262 139 268 154 2 5 11 8 20 8 10 1 33 9 52 20 34 19 26 25 -15 11z"/>
<path d="M1280 1843 c-23 -8 -176 -86 -260 -132 -87 -47 -158 -81 -171 -81 -5
0 -9 -5 -9 -11 0 -6 -6 -9 -14 -6 -8 3 -16 3 -18 -1 -5 -12 -84 -53 -228 -119
-83 -38 -83 -38 -88 -52 -3 -9 1 -10 14 -3 44 22 121 54 163 69 25 8 55 23 66
33 25 22 71 45 109 54 17 4 42 16 57 27 15 10 30 19 34 19 4 0 19 8 33 19 43
29 305 167 352 184 10 4 9 5 -5 5 -11 0 -27 -2 -35 -5z"/>
<path d="M1336 1821 c-3 -5 -18 -12 -33 -15 -38 -10 -209 -97 -316 -162 -49
-30 -90 -54 -93 -54 -3 0 -19 -14 -37 -31 -31 -29 -65 -49 -97 -55 -18 -3 1
11 51 39 17 10 29 20 26 23 -10 10 -46 -7 -94 -44 -27 -21 -73 -46 -103 -56
-89 -31 -208 -96 -176 -96 9 0 86 30 141 55 89 41 128 55 133 51 12 -13 178
83 242 139 14 13 106 64 204 114 99 50 182 94 185 96 2 3 -3 5 -12 5 -9 0 -18
-4 -21 -9z"/>
<path d="M1365 1793 c-29 -6 -64 -23 -112 -55 -23 -15 -44 -28 -48 -28 -18 0
-193 -95 -229 -124 -57 -47 -189 -116 -326 -171 -173 -70 -209 -87 -214 -102
-7 -17 -8 -17 50 12 27 14 56 25 65 25 10 0 52 16 95 36 44 20 97 45 120 55
22 11 44 19 49 19 13 0 157 90 185 116 30 27 154 94 175 94 8 0 15 5 15 10 0
6 4 10 9 10 5 0 38 17 72 38 35 22 81 42 102 46 20 4 37 11 37 16 0 10 -10 11
-45 3z"/>
<path d="M1425 1711 c-6 -5 -28 -12 -50 -14 -22 -2 -47 -7 -55 -10 -45 -16
-85 -27 -101 -27 -10 0 -48 -13 -84 -30 -36 -16 -68 -30 -71 -30 -4 0 -27 -17
-53 -38 -49 -41 -145 -102 -160 -102 -5 0 -14 -7 -21 -15 -7 -8 -20 -15 -29
-16 -9 0 -34 -10 -57 -22 -110 -59 -235 -117 -252 -117 -7 0 -12 -5 -12 -11 0
-6 -7 -9 -15 -5 -8 3 -15 2 -15 -3 0 -5 -9 -11 -20 -14 -11 -3 -20 -10 -20
-17 0 -15 27 -6 114 36 37 19 75 34 83 34 9 0 41 15 72 34 31 19 94 52 141 75
47 22 114 62 150 89 82 61 127 85 215 116 102 35 194 49 257 40 29 -4 56 -7
61 -6 14 4 86 -38 96 -55 5 -10 13 -15 16 -11 4 4 -3 20 -16 37 -22 27 -37 33
-134 57 l-30 8 40 6 c22 3 45 2 52 -3 7 -5 18 -7 25 -4 20 7 -39 27 -81 27
-20 0 -41 -4 -46 -9z"/>
<path d="M1258 1622 c-107 -26 -190 -66 -270 -127 -31 -24 -98 -65 -150 -90
-51 -26 -113 -58 -138 -72 -55 -30 -149 -78 -250 -126 -57 -28 -69 -36 -48
-37 30 0 186 72 293 135 39 23 108 61 155 84 47 24 96 53 110 66 34 32 163
102 230 125 79 27 185 43 238 36 61 -8 141 -46 181 -85 52 -51 50 -26 -2 27
-80 81 -196 103 -349 64z"/>
<path d="M1205 1562 c-88 -32 -230 -101 -223 -108 5 -4 70 19 101 37 21 11
148 58 180 66 58 13 145 10 202 -9 58 -19 152 -77 168 -104 14 -24 29 -16 16
8 -14 27 -49 57 -66 58 -7 0 -13 4 -13 9 0 4 -28 21 -62 36 -95 43 -197 45
-303 7z"/>
<path d="M1265 1529 c-67 -15 -141 -39 -181 -60 -21 -10 -45 -19 -54 -19 -19
0 -233 -109 -325 -165 -61 -38 -120 -71 -215 -122 -14 -7 -33 -13 -43 -13 -10
0 -35 -11 -55 -25 -39 -27 -29 -34 16 -11 15 7 42 16 61 20 19 3 42 12 50 19
9 7 41 24 71 37 30 13 64 31 75 40 35 28 143 100 150 100 10 0 119 52 135 65
8 6 49 23 90 37 41 15 102 36 135 48 60 22 199 38 230 27 8 -4 19 -7 23 -8 58
-12 219 -110 224 -137 3 -12 6 -14 11 -5 10 16 -69 92 -131 126 -48 26 -165
58 -205 56 -12 -1 -40 -5 -62 -10z"/>
<path d="M1260 1473 c-50 -8 -185 -45 -195 -52 -5 -5 -28 -14 -50 -21 -43 -14
-240 -114 -265 -135 -8 -7 -33 -22 -55 -33 -28 -15 -34 -21 -20 -21 11 -1 31
5 45 13 155 85 206 111 298 150 177 74 302 93 427 64 58 -13 153 -70 155 -93
1 -10 50 -50 50 -41 0 12 -24 56 -31 56 -4 0 -22 14 -40 31 -73 68 -202 101
-319 82z"/>
<path d="M1193 1409 c-82 -16 -255 -83 -293 -113 -27 -22 -169 -87 -222 -102
-29 -9 -84 -31 -123 -49 -38 -19 -95 -44 -125 -55 -59 -23 -97 -47 -88 -55 5
-5 55 14 233 90 55 24 126 52 158 64 32 11 93 41 137 66 44 25 82 45 84 45 3
0 34 13 69 29 73 34 121 47 192 56 28 4 59 9 70 12 34 10 116 3 145 -12 41
-21 57 -19 35 5 -39 43 -123 49 -272 19z"/>
<path d="M1247 1370 c-16 -5 -34 -13 -41 -19 -24 -20 -107 -61 -124 -61 -9 0
-51 -18 -92 -41 -78 -41 -262 -132 -410 -201 -47 -22 -92 -44 -100 -49 -8 -5
-25 -14 -38 -19 -81 -35 -131 -60 -137 -69 -9 -15 11 -14 45 4 16 8 50 22 77
31 26 9 55 21 63 28 8 6 31 19 50 28 19 9 151 73 292 142 141 69 260 126 263
126 4 0 44 18 89 41 76 38 86 41 163 40 53 0 93 -6 110 -15 44 -23 132 -105
160 -148 26 -43 39 -46 24 -7 -12 34 -139 158 -178 175 -40 17 -178 27 -216
14z"/>
<path d="M1115 1346 c-39 -11 -144 -57 -175 -76 -20 -12 -178 -89 -215 -104
-16 -7 -77 -34 -135 -61 -58 -26 -125 -57 -150 -68 -86 -37 -109 -50 -114 -64
-3 -8 -3 -13 1 -11 5 2 31 14 58 27 28 12 63 29 79 37 16 8 35 14 42 14 7 0
46 17 86 38 40 20 94 46 118 56 95 40 213 97 238 114 15 10 54 29 87 42 33 13
74 29 92 36 17 8 36 14 41 14 6 0 14 5 17 10 8 13 -19 11 -70 -4z"/>
<path d="M1255 1315 c-27 -7 -84 -30 -125 -51 -42 -22 -92 -45 -110 -52 -19
-7 -51 -22 -70 -33 -19 -11 -59 -31 -87 -44 -122 -57 -299 -148 -314 -161 -8
-8 -21 -14 -28 -14 -7 0 -25 -8 -39 -19 -15 -10 -53 -26 -84 -36 -32 -10 -68
-29 -84 -46 -27 -28 -27 -29 -6 -29 12 0 22 4 22 8 0 11 73 52 92 52 14 0 199
93 388 195 70 39 298 145 309 145 7 0 26 9 42 21 28 19 151 59 185 59 38 0
134 -62 202 -130 40 -40 72 -79 72 -86 0 -8 5 -14 10 -14 20 0 -21 74 -61 108
-29 25 -38 39 -34 53 4 11 2 19 -5 19 -6 0 -8 -6 -4 -12 4 -7 -1 -6 -12 3 -41
33 -145 79 -177 78 -17 -1 -54 -7 -82 -14z"/>
<path d="M1206 1249 c2 -4 -6 -10 -18 -14 -13 -4 -42 -15 -65 -26 -24 -10 -48
-19 -53 -19 -6 0 -28 -9 -48 -19 -20 -11 -73 -37 -117 -57 -44 -21 -97 -48
-117 -61 -21 -13 -38 -21 -38 -17 0 3 -12 -3 -27 -14 -59 -40 -292 -162 -310
-162 -7 0 -13 -4 -13 -10 0 -5 -6 -10 -14 -10 -22 0 -91 -43 -77 -48 6 -2 28
4 49 13 20 9 46 20 57 24 42 17 212 106 260 136 85 54 389 205 412 205 5 0 40
13 78 30 144 61 254 34 375 -92 38 -40 70 -81 70 -90 0 -9 5 -20 10 -23 7 -4
8 3 4 22 -10 41 -23 63 -61 103 -18 19 -33 38 -33 42 0 11 -109 64 -160 78
-49 14 -171 20 -164 9z"/>
<path d="M1097 1154 c-83 -29 -220 -92 -285 -132 -29 -17 -55 -32 -58 -32 -3
0 -18 -8 -32 -19 -15 -10 -47 -29 -72 -43 -25 -14 -76 -43 -115 -65 -38 -22
-109 -57 -157 -79 -94 -42 -111 -57 -50 -43 69 15 254 112 471 246 49 31 148
80 206 102 33 12 67 26 76 31 28 15 133 32 195 33 71 1 117 -22 221 -110 81
-69 65 -35 -21 43 -43 40 -79 64 -112 74 -72 22 -191 19 -267 -6z"/>
<path d="M1138 1118 c-40 -11 -83 -26 -95 -34 -12 -8 -27 -14 -33 -14 -17 0
-158 -69 -215 -105 -196 -125 -412 -244 -443 -245 -4 0 -18 -9 -32 -20 l-25
-21 30 7 c48 11 122 42 166 69 22 15 55 34 72 44 96 55 284 163 297 172 8 5
31 16 50 25 19 8 71 33 115 53 102 49 170 65 255 59 62 -5 75 -10 146 -57 107
-72 133 -95 145 -131 11 -30 29 -41 29 -17 -1 25 -27 58 -90 112 -130 110
-232 139 -372 103z"/>
<path d="M1125 1074 c-22 -8 -71 -30 -110 -49 -38 -18 -86 -41 -105 -49 -19
-8 -53 -27 -75 -41 -22 -14 -54 -32 -71 -39 -17 -8 -36 -22 -44 -30 -7 -9 -17
-16 -21 -16 -5 0 -32 -16 -60 -35 -28 -19 -56 -35 -63 -35 -6 0 -32 -15 -59
-34 -26 -18 -62 -39 -80 -46 -71 -26 -127 -54 -127 -62 0 -10 40 -1 55 13 5 5
18 9 30 9 11 1 45 14 75 30 30 16 78 41 107 55 28 15 59 35 69 46 9 10 21 19
25 19 5 0 44 24 86 53 75 50 137 83 273 144 119 54 134 58 217 58 79 0 83 -1
143 -42 34 -24 65 -43 69 -43 16 0 55 -52 87 -117 32 -64 34 -66 28 -28 -9 64
-43 112 -118 168 -112 83 -121 86 -211 85 -44 0 -98 -7 -120 -14z"/>
<path d="M1210 1050 c-19 -4 -49 -10 -66 -14 -18 -3 -85 -31 -150 -62 -112
-53 -155 -78 -283 -163 -73 -49 -209 -131 -217 -131 -2 0 -26 -13 -54 -30 -28
-16 -57 -30 -64 -30 -17 0 -78 -31 -73 -37 13 -12 156 42 210 80 16 11 57 34
92 53 35 19 113 67 174 108 118 80 282 164 371 190 76 23 137 20 181 -7 122
-74 153 -109 191 -211 21 -59 38 -80 38 -48 0 12 -4 30 -9 40 -5 9 -19 40 -31
67 -28 66 -43 83 -120 135 -55 38 -131 73 -150 69 -3 -1 -21 -5 -40 -9z"/>
<path d="M1050 964 c-69 -33 -50 -43 29 -15 49 17 71 19 124 13 93 -12 156
-55 206 -141 45 -78 67 -126 76 -164 9 -35 25 -45 25 -15 -1 88 -129 298 -181
298 -6 0 -23 8 -37 19 -18 13 -53 21 -107 25 -73 6 -85 4 -135 -20z"/>
<path d="M1080 935 c-19 -7 -53 -14 -74 -14 -48 -1 -120 -34 -163 -74 -32 -30
-59 -48 -103 -67 -14 -6 -34 -19 -45 -29 -11 -10 -45 -31 -75 -47 -30 -16 -57
-31 -60 -34 -32 -32 -115 -76 -189 -100 -62 -21 -45 -26 26 -8 42 10 176 83
388 211 11 7 38 28 61 48 65 58 94 73 153 80 65 8 137 26 160 39 26 15 -38 11
-79 -5z"/>
<path d="M1200 929 c-102 -21 -182 -48 -240 -82 -36 -20 -78 -44 -95 -53 -16
-10 -37 -21 -45 -26 -8 -5 -23 -11 -32 -14 -10 -4 -18 -10 -18 -14 0 -46 -242
-205 -302 -199 -13 1 -43 -1 -68 -5 -25 -4 -53 -8 -62 -10 -10 -1 -21 -6 -25
-10 -10 -11 198 2 212 13 5 4 26 14 45 21 37 14 112 69 221 160 123 102 327
200 419 200 61 0 143 -59 174 -125 9 -19 21 -37 25 -40 5 -3 13 -20 16 -38 4
-17 13 -45 20 -62 7 -16 16 -39 19 -49 4 -10 9 -16 12 -14 9 9 -26 128 -53
181 -30 61 -117 150 -158 163 -16 6 -46 7 -65 3z"/>
<path d="M1170 879 c-118 -13 -232 -71 -375 -189 -44 -36 -91 -74 -105 -83
-14 -9 -49 -34 -79 -54 -62 -42 -54 -40 -183 -61 -54 -8 -98 -19 -98 -24 0
-11 51 -10 150 5 l85 13 123 95 c104 80 163 123 310 226 32 23 148 53 202 53
27 0 58 -8 77 -20 36 -21 85 -84 100 -127 6 -15 16 -44 22 -63 19 -52 32 -101
38 -137 3 -18 10 -33 15 -33 23 0 -23 172 -71 268 -31 61 -85 115 -130 129
-14 5 -51 6 -81 2z"/>
<path d="M1105 831 c-59 -11 -135 -47 -135 -65 0 -9 -4 -16 -8 -16 -14 0 -132
-80 -132 -89 0 -5 -16 -18 -35 -30 -19 -11 -35 -26 -35 -34 0 -19 -81 -94
-110 -101 l-25 -7 25 18 c45 33 105 91 99 98 -6 6 -63 -38 -134 -104 -29 -26
-86 -48 -150 -56 -16 -2 -32 -4 -35 -5 -3 -1 -21 -1 -41 0 -21 1 -40 -4 -44
-11 -6 -9 16 -11 96 -7 87 5 113 10 158 32 29 15 58 25 64 23 21 -7 -109 -65
-173 -78 -36 -7 -68 -17 -72 -23 -4 -6 -21 -9 -39 -8 -21 3 -29 0 -25 -7 9
-14 73 -14 81 -1 4 6 11 8 16 5 5 -3 46 6 91 21 88 29 111 48 233 188 108 123
227 187 378 203 80 8 99 -5 144 -96 l37 -76 1 -157 c0 -167 13 -180 22 -23 11
178 -34 312 -120 360 -33 18 -41 18 -123 7 -49 -7 -94 -18 -101 -24 -8 -6 -16
-8 -20 -5 -3 4 18 18 49 31 74 33 178 31 224 -3 81 -60 115 -165 110 -339 -4
-133 9 -131 19 4 8 110 -4 181 -47 271 -20 41 -42 70 -62 82 -36 22 -123 33
-181 22z"/>
<path d="M980 718 c-25 -12 -83 -60 -130 -106 -47 -46 -93 -88 -102 -93 -9 -5
-24 -21 -33 -37 -32 -52 -99 -94 -197 -124 -51 -15 -101 -28 -110 -28 -10 0
-18 -5 -18 -11 0 -16 78 -3 163 26 77 26 116 57 283 222 110 108 177 153 228
153 31 0 107 -33 124 -53 19 -22 22 -147 7 -242 -11 -71 -20 -92 -68 -165 -31
-47 -67 -93 -81 -103 -14 -10 -26 -23 -26 -28 0 -27 66 41 120 123 33 51 60
88 60 84 0 -26 -71 -133 -123 -186 -51 -52 -56 -60 -30 -46 38 19 130 126 150
175 8 19 13 41 10 51 -2 9 2 52 9 96 29 174 12 249 -63 285 -67 32 -119 35
-173 7z"/>
<path d="M1005 686 c-31 -14 -74 -49 -115 -92 -70 -73 -210 -203 -248 -230
-37 -26 -138 -63 -195 -73 l-52 -9 54 -1 c74 -1 120 14 255 86 54 28 113 79
103 89 -4 4 -27 -12 -52 -36 -25 -24 -48 -40 -52 -36 -8 8 2 17 94 86 28 22
69 60 90 86 64 77 130 124 174 124 22 0 39 -5 39 -10 0 -6 -10 -8 -24 -4 -13
3 -37 -1 -53 -10 -33 -16 -174 -166 -204 -215 -19 -32 -105 -100 -126 -101 -7
0 -22 -8 -32 -17 -30 -25 -123 -60 -178 -66 -26 -3 -50 -6 -52 -6 -3 -1 -1 -5
5 -11 11 -11 126 11 189 36 95 37 208 133 295 249 70 92 150 151 150 110 0 -9
-5 -13 -10 -10 -14 9 -89 -59 -121 -109 -45 -71 -191 -197 -281 -243 -46 -23
-78 -43 -71 -43 20 0 100 37 160 76 70 44 228 193 265 251 30 45 48 61 48 41
0 -36 -224 -261 -311 -313 -32 -18 -84 -43 -118 -55 -34 -13 -61 -25 -61 -27
0 -9 64 10 110 33 26 13 54 24 61 24 30 0 164 120 274 245 l27 30 -23 -35
c-36 -55 -167 -192 -218 -228 -25 -18 -56 -40 -69 -49 -12 -8 -25 -13 -28 -10
-3 3 4 8 15 12 12 3 21 11 21 16 0 14 -7 11 -55 -16 -24 -14 -72 -30 -107 -36
-68 -11 -102 -29 -52 -29 16 0 45 5 64 10 19 5 61 16 93 24 33 8 78 27 100 42
108 71 266 257 288 337 6 23 15 50 21 60 16 30 38 2 38 -48 0 -53 -41 -184
-71 -227 -85 -121 -196 -228 -238 -228 -9 0 -27 -3 -41 -6 -14 -3 -4 4 22 14
55 23 107 58 128 87 8 11 24 29 36 40 33 32 94 134 126 209 47 114 33 120 -17
6 -15 -36 -39 -79 -52 -96 -12 -17 -23 -34 -23 -39 0 -10 -57 -83 -96 -122
-32 -32 -113 -76 -198 -109 -27 -10 -44 -20 -39 -21 6 -2 27 3 46 11 39 16 90
11 65 -6 -9 -7 -8 -8 5 -4 10 3 24 6 30 7 7 0 3 4 -8 9 -17 7 -16 9 11 9 29 1
116 47 179 96 29 22 116 181 137 249 29 97 30 129 6 178 -16 33 -32 51 -52 58
-16 5 -29 10 -30 9 -1 0 -23 -10 -51 -23z"/>
<path d="M1149 654 c31 -40 26 -151 -10 -209 -4 -5 -10 -23 -13 -40 -4 -16
-30 -68 -59 -114 -54 -87 -56 -89 -202 -175 -33 -20 -55 -36 -48 -36 13 0 55
22 122 65 23 14 45 24 50 23 30 -9 128 147 161 256 12 37 24 65 27 63 3 -3 -2
-26 -10 -51 -9 -26 -12 -46 -7 -46 20 0 32 81 30 203 -1 43 -25 87 -47 87 -11
0 -10 -6 6 -26z"/>
</g>
</svg>
