<?xml version="1.0" standalone="no"?>
<!DOCTYPE svg PUBLIC "-//W3C//DTD SVG 20010904//EN"
 "http://www.w3.org/TR/2001/REC-SVG-20010904/DTD/svg10.dtd">
<svg version="1.0" xmlns="http://www.w3.org/2000/svg"
 width="564.000000pt" height="597.000000pt" viewBox="0 0 564.000000 597.000000"
 preserveAspectRatio="xMidYMid meet">

<g transform="translate(0.000000,597.000000) scale(0.100000,-0.100000)"
fill="#000000" stroke="none">
<path d="M1480 5960 c0 -5 11 -17 25 -26 14 -9 25 -22 25 -29 0 -43 -179 -147
-375 -219 -238 -87 -251 -96 -220 -156 23 -44 51 -70 77 -70 13 0 58 26 100
58 42 31 175 116 294 187 211 126 252 159 241 189 -15 38 -167 98 -167 66z"/>
<path d="M2215 5901 c-81 -36 -235 -82 -267 -79 -30 3 -33 6 -36 41 -3 32 -7
37 -28 37 -90 0 -864 -476 -864 -531 0 -21 67 10 240 111 161 94 210 118 282
135 36 8 79 27 102 45 23 16 54 37 70 46 27 15 32 15 58 -1 33 -19 80 -15 132
12 67 35 149 55 278 68 75 7 146 19 157 25 31 16 26 54 -10 84 -36 31 -60 32
-114 7z"/>
<path d="M2330 5745 c-208 -24 -776 -177 -857 -230 -28 -19 -30 -35 -4 -35 48
0 66 -25 35 -51 -13 -11 -22 -10 -57 8 -59 30 -83 36 -105 24 -31 -17 -33 -37
-7 -75 28 -41 25 -58 -11 -75 -41 -18 -62 -13 -79 19 -17 32 -29 36 -72 19
-71 -27 -173 -148 -173 -206 0 -31 19 -29 71 8 24 17 38 26 32 18 -19 -19 -16
-47 5 -51 36 -8 117 30 287 136 l60 37 -62 -60 c-75 -72 -166 -135 -236 -164
-67 -27 -87 -44 -87 -76 0 -15 -7 -36 -15 -47 -17 -26 -81 -58 -100 -50 -17 6
-35 91 -35 165 0 31 9 91 20 132 24 91 24 89 2 89 -21 0 -119 -80 -144 -119
-24 -35 -23 -73 3 -105 39 -50 3 -72 -65 -39 -33 15 -38 15 -76 -2 -44 -20
-114 -89 -125 -125 -4 -13 -2 -33 6 -48 13 -23 12 -26 -21 -51 -61 -45 -184
-173 -246 -256 -86 -114 -122 -178 -139 -243 -10 -38 -23 -63 -40 -75 -15 -11
-25 -29 -25 -43 0 -62 47 -14 251 255 68 91 158 201 200 245 77 81 109 130
109 163 0 10 4 24 9 32 8 12 13 7 27 -21 27 -57 14 -92 -72 -188 -94 -106
-253 -301 -322 -398 -54 -75 -77 -117 -86 -164 -4 -17 -23 -38 -52 -59 -52
-36 -84 -82 -84 -121 0 -35 16 -36 42 -2 19 23 22 24 36 10 14 -13 13 -20 -3
-61 -21 -57 -68 -113 -101 -121 -13 -3 -24 -9 -24 -13 0 -12 53 -59 85 -75 24
-13 31 -13 37 -2 4 7 35 93 68 191 91 269 175 431 315 610 65 83 155 176 155
160 0 -34 -155 -260 -242 -352 -51 -53 -57 -65 -52 -91 6 -30 -5 -57 -51 -121
-28 -38 -31 -62 -13 -91 10 -16 9 -23 -9 -42 -30 -33 -46 -70 -83 -183 -58
-183 -88 -365 -60 -365 17 0 46 70 140 340 111 320 136 380 161 380 38 0 21
-89 -53 -274 -111 -279 -207 -716 -158 -716 18 0 64 134 125 359 91 337 126
434 161 448 9 3 34 0 56 -6 53 -16 67 -3 108 105 17 47 46 104 64 127 34 45
99 94 104 79 1 -5 -6 -33 -18 -61 -25 -65 -26 -94 -3 -89 27 5 61 64 68 120 6
43 4 54 -10 65 -15 10 -18 25 -16 78 4 116 -35 82 -171 -146 -48 -79 -100
-160 -117 -179 l-30 -35 0 35 c-1 48 28 107 78 158 23 24 60 83 85 136 53 110
86 152 126 161 27 6 30 10 30 47 0 35 6 46 45 82 35 33 45 49 45 74 0 40 -12
47 -51 26 -31 -16 -33 -16 -50 7 -10 13 -19 27 -19 32 0 14 -24 7 -47 -15 -20
-18 -26 -20 -33 -9 -12 21 9 59 45 81 38 23 73 26 81 6 10 -25 42 -10 155 73
18 13 18 10 -2 -43 -42 -108 -14 -100 271 76 420 259 745 399 1179 509 96 24
119 41 86 65 -25 18 -77 18 -122 -1 -43 -18 -50 -14 -37 23 13 39 65 60 172
71 96 10 138 24 156 53 8 14 7 21 -6 34 -15 15 -20 15 -75 -4 -32 -11 -105
-25 -163 -31 -221 -24 -279 -33 -410 -66 -176 -44 -325 -96 -428 -150 -90 -48
-94 -41 -20 35 94 98 218 143 533 195 337 54 455 85 455 120 0 12 -18 15 -102
14 -57 -1 -150 -7 -208 -14z m21 -235 c22 -12 25 -48 6 -74 -11 -15 -29 -19
-88 -21 -51 -2 -97 -11 -149 -30 -137 -50 -398 -174 -608 -289 -260 -142 -307
-166 -328 -166 -33 0 27 49 186 155 159 105 380 235 507 298 71 36 254 97 368
122 76 17 82 17 106 5z m-1551 -961 c-59 -116 -222 -350 -284 -408 -25 -24
-26 -24 -26 -4 0 38 119 241 198 338 43 53 124 135 133 135 5 0 -4 -27 -21
-61z"/>
<path d="M2850 5622 c-41 -20 -53 -52 -19 -52 29 0 89 38 89 56 0 19 -28 18
-70 -4z"/>
<path d="M2839 5511 c-106 -11 -179 -30 -179 -46 0 -22 31 -26 202 -23 176 3
214 -4 183 -35 -21 -22 -70 -34 -190 -47 -55 -5 -124 -18 -153 -27 -48 -15
-54 -15 -70 1 -10 9 -30 16 -45 16 -27 0 -432 -125 -587 -182 -111 -40 -230
-96 -230 -108 0 -22 50 -12 289 57 442 126 1193 215 1310 155 43 -21 49 -37
19 -53 -17 -9 -101 -12 -328 -10 -184 1 -334 -2 -375 -9 -381 -59 -1181 -353
-1320 -485 -37 -34 -40 -42 -26 -64 13 -20 39 -8 127 58 43 33 80 58 82 56 10
-10 -29 -53 -125 -140 -122 -109 -264 -262 -287 -309 -11 -22 -12 -34 -4 -43
8 -10 1 -33 -27 -89 -37 -76 -114 -163 -239 -271 -46 -39 -48 -44 -43 -79 12
-70 -41 -268 -120 -454 -101 -237 -145 -203 -54 43 79 216 151 474 151 543 0
34 -22 59 -43 51 -8 -3 -26 -40 -41 -84 -35 -97 -48 -113 -97 -113 -34 0 -42
-5 -63 -37 -30 -46 -72 -170 -166 -488 -39 -132 -85 -270 -102 -307 -17 -37
-28 -74 -25 -83 9 -22 50 -18 74 8 43 47 67 113 138 388 70 273 113 379 151
379 16 0 6 -43 -75 -326 -77 -271 -122 -490 -128 -625 -6 -115 2 -136 38 -103
14 13 19 29 17 56 -2 34 3 44 35 73 42 39 43 44 21 101 -14 38 -14 49 0 122
15 81 52 172 73 179 22 8 20 -24 -4 -82 -19 -45 -24 -69 -19 -100 3 -22 9 -58
12 -80 4 -22 1 -91 -6 -154 -17 -143 -4 -346 26 -407 20 -41 59 -58 75 -32 13
20 11 71 -5 114 -58 165 8 756 115 1036 96 251 333 672 427 762 37 34 62 29
62 -12 0 -20 -11 -38 -36 -61 -59 -54 -189 -273 -249 -421 -14 -36 -37 -74
-50 -85 -26 -23 -67 -145 -140 -425 -85 -321 -123 -540 -95 -540 6 0 10 -30
10 -71 0 -79 11 -109 41 -109 21 0 32 19 49 88 9 36 14 42 28 36 9 -4 31 -8
47 -8 l30 -1 -1 105 c-2 102 -15 167 -32 156 -5 -3 -12 -45 -16 -93 -3 -47 -9
-89 -12 -92 -10 -10 -23 24 -40 98 -26 118 -10 233 67 471 115 353 299 716
456 895 40 46 73 91 73 99 0 9 -15 18 -41 23 -54 11 -69 33 -48 71 17 30 23
30 150 17 61 -7 68 -6 78 13 8 14 8 29 -1 52 -9 28 -8 39 7 67 25 45 111 109
234 172 110 57 141 87 141 138 0 71 -48 55 -195 -69 -143 -120 -162 -133 -180
-118 -25 21 -17 45 26 84 37 33 41 41 36 71 -6 35 4 45 45 45 11 0 111 36 222
79 227 90 381 137 571 175 272 54 331 60 646 61 343 0 333 -3 345 91 5 41 3
60 -10 79 -24 36 -129 67 -244 70 -52 2 -96 6 -99 9 -3 3 -3 16 1 30 4 18 16
28 39 34 40 10 49 45 16 63 -28 15 -216 20 -320 10z m-1345 -953 c-33 -57 -68
-97 -98 -113 -32 -18 -37 -18 -51 -4 -14 14 -14 18 6 43 35 44 165 112 143 74z
m-847 -804 c3 -8 2 -24 -3 -34 -9 -19 -10 -19 -34 -1 -20 16 -22 21 -11 35 17
20 40 21 48 0z"/>
<path d="M833 5489 c-7 -7 -13 -23 -13 -34 0 -37 -60 -115 -175 -231 -121
-122 -235 -212 -277 -221 -33 -6 -36 -23 -8 -41 31 -19 25 -42 -35 -133 -30
-46 -55 -92 -55 -101 0 -51 49 -6 305 277 368 407 394 440 362 472 -20 20 -89
28 -104 12z"/>
<path d="M663 5422 c-18 -10 -64 -44 -102 -76 -75 -63 -226 -224 -219 -232 7
-7 267 163 326 213 63 54 78 78 61 99 -15 18 -26 17 -66 -4z"/>
<path d="M3526 5181 c-33 -35 -29 -58 11 -66 70 -15 101 -26 107 -40 12 -31
-54 -34 -561 -24 -127 2 -235 1 -239 -4 -28 -28 86 -50 396 -77 248 -21 486
-45 550 -55 22 -4 42 -1 54 8 18 13 13 20 -81 111 -56 53 -113 115 -128 136
-35 50 -69 53 -109 11z"/>
<path d="M2638 5048 c-71 -19 -91 -78 -27 -78 36 0 108 19 127 33 20 15 14 44
-10 51 -29 7 -44 6 -90 -6z"/>
<path d="M1536 4975 c-32 -13 -84 -40 -115 -61 -118 -77 -281 -196 -281 -204
0 -5 7 -40 15 -79 8 -39 12 -77 9 -85 -3 -8 -25 -25 -49 -36 -90 -44 -168
-203 -147 -300 9 -41 32 -49 67 -26 31 20 32 48 3 94 l-21 35 34 29 c147 126
196 198 185 270 -8 48 7 79 71 139 60 58 127 103 201 136 121 54 142 65 142
79 0 13 -30 34 -47 34 -4 0 -34 -11 -67 -25z"/>
<path d="M2273 4951 c-67 -19 -109 -42 -134 -74 l-17 -20 -11 21 c-9 18 -18
21 -39 16 -44 -10 -102 -52 -102 -74 0 -25 11 -30 96 -38 l68 -7 -184 -91
c-204 -101 -243 -129 -239 -172 4 -39 -6 -51 -57 -63 -49 -13 -49 -12 -31 -39
13 -22 7 -38 -63 -148 -18 -29 -30 -55 -27 -59 4 -3 30 4 58 15 57 24 56 25
28 -45 -15 -38 -9 -49 20 -34 20 11 20 11 5 -31 -36 -104 -208 -397 -275 -470
-39 -43 -39 -43 -33 -13 4 17 20 66 35 109 16 44 27 82 24 84 -7 7 -1 17 -104
-160 -50 -87 -105 -179 -121 -205 -44 -68 -52 -108 -38 -171 9 -44 8 -80 -7
-206 -16 -136 -17 -169 -6 -302 18 -222 34 -285 63 -256 6 6 10 99 9 254 -2
431 60 758 144 758 8 0 4 -17 -40 -211 -41 -177 -51 -265 -33 -298 19 -36 34
-36 68 -3 l30 30 -1 119 c-1 125 13 190 53 246 25 35 55 36 64 1 6 -22 0 -33
-35 -66 -46 -45 -51 -66 -20 -94 41 -37 68 4 124 191 59 194 122 297 238 382
45 33 72 39 50 11 -5 -7 -35 -45 -66 -84 -96 -120 -154 -269 -204 -519 -26
-134 -26 -576 1 -690 22 -97 54 -185 67 -185 12 0 12 13 -11 190 -24 189 -21
206 43 241 75 41 79 51 88 228 9 183 37 305 97 434 106 226 258 370 457 433
138 44 209 94 192 138 -10 24 -54 19 -142 -17 -148 -60 -329 -180 -431 -286
-93 -96 -194 -337 -244 -583 -21 -100 -24 -219 -6 -259 9 -20 -18 -49 -44 -49
-14 0 -20 11 -25 50 -8 55 0 178 17 275 5 33 16 99 23 146 22 149 147 379 274
504 34 33 61 67 61 76 0 34 -111 55 -187 36 -40 -10 -42 1 -8 41 31 37 62 43
152 30 40 -7 76 -8 80 -5 4 4 -13 28 -37 52 -41 42 -43 46 -28 61 15 15 18 15
43 -4 35 -28 63 -22 198 40 62 28 141 56 185 64 42 8 93 18 112 22 32 6 35 10
41 49 6 46 38 92 49 72 12 -19 -10 -85 -39 -116 -19 -21 -53 -39 -112 -58
-104 -34 -148 -56 -194 -96 -77 -68 -27 -76 120 -18 122 47 258 79 344 80 100
1 116 7 116 50 0 27 5 35 28 43 54 20 373 -29 469 -72 l43 -19 -50 -14 c-66
-19 -71 -42 -19 -86 l39 -34 -85 3 c-79 3 -85 2 -85 -17 0 -14 18 -29 65 -53
183 -92 340 -97 340 -11 0 42 -13 64 -90 145 -38 40 -71 81 -74 92 -18 55
-309 132 -502 132 -88 0 -92 -1 -159 -41 -65 -39 -69 -41 -82 -23 -15 21 -17
58 -3 83 17 33 85 52 189 52 137 0 300 -33 551 -111 286 -89 416 -112 408 -73
-4 22 -68 65 -138 91 -74 28 -42 27 92 -3 149 -34 313 -89 510 -174 225 -96
318 -118 318 -75 0 15 -106 70 -282 149 -105 46 -194 108 -182 126 11 19 71 8
149 -27 183 -81 344 -131 372 -115 13 7 9 13 -18 33 -75 57 -334 170 -425 187
-35 7 -84 28 -132 57 -85 52 -125 61 -130 28 -4 -27 31 -70 76 -93 47 -24 77
-56 62 -66 -15 -9 -75 1 -230 41 -74 20 -164 38 -200 41 -63 5 -67 4 -115 -31
-66 -48 -75 -51 -94 -37 -34 24 -110 54 -216 82 -60 17 -130 40 -155 52 l-45
21 32 4 c17 2 89 -9 160 -23 149 -31 216 -29 266 9 55 42 72 41 217 -12 155
-57 195 -67 205 -53 30 49 -139 120 -489 205 -290 71 -423 91 -616 90 -151 0
-194 -4 -309 -28 -229 -47 -465 -127 -500 -169 -7 -9 -10 -24 -7 -33 11 -28
90 -12 202 39 55 25 152 60 215 78 106 30 127 32 299 36 256 5 262 5 375 -13
186 -30 375 -80 375 -100 0 -9 -130 3 -278 27 -191 30 -301 39 -347 29 -23 -5
-70 -6 -106 -2 -82 9 -163 -1 -264 -34 -93 -31 -138 -52 -131 -62 3 -4 42 -4
88 0 324 29 510 31 549 7 23 -14 1 -22 -54 -20 -102 4 -462 -54 -618 -100 -36
-10 -74 -28 -84 -39 -17 -18 -17 -21 -1 -45 20 -31 16 -39 -42 -76 -54 -34
-92 -37 -118 -8 -26 29 -65 21 -165 -35 -45 -25 -82 -46 -83 -46 -2 0 -1 14 2
31 4 27 -3 37 -62 92 -39 37 -66 71 -66 82 0 14 29 42 88 86 178 135 307 209
442 254 97 32 126 54 140 106 13 48 50 74 130 90 109 21 130 29 130 48 0 23
-36 56 -82 76 -49 20 -157 18 -235 -4z m-333 -346 c0 -8 -75 -55 -89 -55 -17
0 27 36 61 49 29 12 28 12 28 6z m-234 -622 c-48 -134 -180 -390 -223 -435
-33 -34 -40 -35 -55 -3 -9 21 -7 29 20 60 17 19 74 107 126 195 86 144 135
220 142 220 2 0 -3 -17 -10 -37z"/>
<path d="M2790 4920 c-105 -11 -143 -31 -82 -44 105 -23 519 -34 566 -16 31
11 35 45 7 60 -22 11 -384 12 -491 0z"/>
<path d="M3357 4863 c-19 -3 -35 -15 -45 -35 -22 -40 -52 -78 -60 -78 -4 0
-12 10 -17 22 -6 12 -21 25 -35 29 -58 16 -574 2 -623 -17 -27 -10 -15 -28 24
-35 19 -4 122 -12 229 -19 356 -20 479 -38 845 -121 354 -81 495 -118 524
-140 30 -22 201 -82 210 -73 8 7 -34 83 -69 126 -27 32 -34 35 -82 36 -33 0
-128 22 -247 56 -107 31 -211 56 -230 56 -74 0 -311 69 -403 116 -21 11 -27
19 -20 26 18 18 156 -6 486 -82 169 -39 314 -70 321 -68 19 4 -59 135 -86 143
-13 4 -27 1 -39 -10 -18 -16 -22 -16 -67 -1 -121 42 -519 86 -616 69z"/>
<path d="M178 4640 c-36 -30 -98 -117 -98 -138 0 -23 40 -12 76 21 40 34 94
112 94 134 0 22 -34 14 -72 -17z"/>
<path d="M1860 4399 c-45 -27 -120 -99 -120 -116 0 -20 26 -16 88 16 67 34
117 83 109 105 -9 22 -35 20 -77 -5z"/>
<path d="M2075 4381 c-54 -19 -279 -150 -271 -158 4 -4 366 114 375 123 7 7
-29 54 -42 54 -6 -1 -34 -9 -62 -19z"/>
<path d="M2964 4160 c-40 -4 -71 -15 -93 -31 -29 -22 -43 -24 -143 -26 -155
-2 -155 -2 -163 -65 -11 -78 -49 -109 -261 -213 -144 -70 -186 -96 -228 -138
-85 -86 -221 -359 -250 -501 -15 -74 -11 -98 17 -94 28 4 49 43 113 208 92
239 112 270 228 345 111 71 225 121 325 139 89 17 301 22 301 7 0 -26 -57 -41
-256 -70 -158 -22 -220 -48 -312 -129 -116 -101 -198 -232 -249 -399 -25 -81
-27 -102 -27 -263 -1 -188 8 -246 60 -392 40 -110 84 -192 183 -340 112 -168
198 -260 322 -349 97 -69 140 -113 154 -156 7 -24 25 -32 25 -12 0 20 130 3
232 -31 86 -29 117 -43 169 -81 24 -18 59 -5 144 53 92 61 215 180 234 225 10
25 11 66 4 183 -4 84 -5 154 -2 156 4 2 23 -21 43 -51 20 -30 41 -55 47 -55
20 0 1 101 -31 166 -31 63 -102 138 -123 131 -7 -2 -25 -27 -40 -55 -26 -48
-31 -52 -65 -52 -20 0 -44 4 -52 10 -12 7 -12 11 3 28 13 14 16 28 11 48 -19
78 -144 280 -257 414 -148 177 -363 303 -470 276 -15 -3 -43 -33 -75 -78 -27
-40 -64 -90 -80 -111 l-31 -39 2 75 c2 60 -2 79 -16 95 -18 20 -18 21 23 61
51 49 151 101 196 101 42 0 119 -30 212 -82 63 -37 77 -50 107 -103 53 -95 79
-107 87 -40 5 44 37 37 136 -29 109 -72 162 -84 162 -36 0 54 -316 252 -508
316 -62 21 -97 27 -182 28 -103 1 -106 0 -179 -37 -41 -21 -79 -36 -85 -34
-23 9 83 94 167 135 99 49 229 85 270 76 38 -8 34 -19 -13 -33 -67 -20 -59
-28 101 -107 246 -121 435 -253 536 -374 134 -159 268 -368 249 -387 -12 -13
-101 94 -168 204 -38 60 -81 122 -97 137 -27 26 -34 28 -80 22 -58 -8 -105 8
-161 53 -33 26 -92 61 -105 61 -3 0 -5 -11 -5 -23 0 -14 33 -68 83 -132 45
-60 114 -154 152 -209 67 -96 95 -120 117 -98 17 17 -1 66 -53 148 -31 49 -45
80 -38 83 17 5 56 -43 153 -189 137 -206 239 -404 271 -527 20 -77 31 -85 60
-49 l23 29 4 -34 c2 -26 8 -35 26 -37 20 -3 22 1 22 41 0 36 -15 74 -72 187
-88 175 -95 216 -49 274 55 69 42 109 -90 288 -116 155 -225 284 -285 337 -26
23 -118 91 -206 151 -87 61 -158 113 -158 115 0 3 26 -7 58 -21 189 -83 523
-372 657 -570 68 -99 86 -115 113 -96 36 26 44 24 88 -19 146 -143 300 -479
263 -575 -9 -25 -11 -26 -28 -10 -10 9 -24 35 -30 59 -14 45 -37 77 -56 77
-26 0 -46 -37 -40 -71 5 -28 1 -40 -23 -67 -34 -38 -48 -85 -57 -197 -7 -86
-21 -145 -35 -145 -5 0 -11 15 -14 33 -3 17 -8 50 -11 72 -5 27 -18 51 -45 77
-31 31 -45 38 -78 38 -36 0 -41 -3 -51 -30 -7 -21 -7 -39 0 -60 13 -35 38 -39
64 -10 35 39 64 -30 31 -75 -14 -19 -15 -19 -35 -1 -30 27 -47 15 -79 -56 -31
-68 -84 -123 -152 -158 -61 -31 -184 -60 -259 -61 -36 0 -75 -4 -86 -9 -18 -7
-18 -9 10 -20 87 -34 216 -36 367 -5 104 21 156 48 160 81 2 17 17 38 41 58
32 26 47 31 94 31 70 0 82 -19 22 -35 -58 -16 -83 -34 -124 -91 -40 -56 -91
-91 -184 -126 -76 -28 -144 -32 -170 -9 -20 18 -41 21 -41 6 0 -39 -365 53
-443 113 -96 73 -347 158 -347 118 0 -18 75 -71 160 -115 233 -120 555 -203
753 -195 80 4 92 7 189 57 237 120 281 177 322 422 23 139 39 200 51 200 3 0
13 -16 21 -35 27 -66 14 -197 -37 -358 -28 -88 -36 -101 -81 -142 -58 -52
-256 -152 -368 -186 -100 -31 -331 -34 -425 -5 -105 32 -206 77 -344 154 -152
84 -192 103 -241 111 -29 5 -35 11 -41 39 -8 41 -41 77 -92 104 -82 41 -58
-12 57 -128 102 -103 190 -163 339 -234 309 -147 644 -187 878 -106 158 55
327 194 388 318 24 48 36 90 42 149 11 99 36 158 78 188 43 31 64 75 56 117
-10 54 -24 49 -56 -21 -16 -36 -34 -63 -39 -60 -17 11 -42 66 -36 81 3 8 30
25 61 38 30 14 58 32 61 41 4 8 -4 46 -16 84 -19 61 -21 77 -11 137 23 151
-49 276 -229 397 -118 80 -240 204 -240 244 0 39 65 -11 164 -127 79 -92 153
-150 193 -150 48 0 30 29 -110 185 -158 175 -237 252 -282 276 -74 40 -99 3
-45 -66 21 -26 27 -42 20 -49 -16 -16 -68 15 -156 96 -235 216 -454 353 -578
362 -63 5 -90 22 -101 63 -6 26 17 63 40 63 22 0 229 -112 340 -183 61 -40
142 -101 180 -138 69 -64 108 -85 170 -91 21 -2 30 1 30 12 0 40 -423 346
-568 410 -53 24 -251 72 -391 96 -154 26 -190 19 -309 -62 -96 -66 -99 -69
-137 -148 -48 -101 -105 -269 -121 -358 -11 -61 -11 -70 5 -87 12 -14 17 -33
16 -63 -4 -65 -1 -78 15 -78 24 0 36 45 46 170 5 63 16 140 25 170 37 130 135
257 265 346 69 47 74 49 138 48 41 -1 87 -9 123 -23 116 -45 95 -68 -68 -76
-60 -2 -124 -9 -142 -14 -120 -35 -222 -152 -251 -289 -16 -78 -14 -173 5
-200 13 -19 13 -28 4 -58 -27 -80 52 -304 107 -304 26 0 34 47 17 93 -25 65
-30 117 -10 117 25 0 47 -45 56 -115 9 -69 29 -105 60 -105 20 0 50 -31 50
-51 0 -21 20 -38 36 -32 23 9 16 93 -15 195 -40 131 -47 181 -27 197 22 18 20
48 -4 63 -47 30 -4 55 76 44 128 -17 326 -183 433 -363 23 -39 63 -130 90
-204 27 -74 59 -156 71 -182 37 -83 10 -129 -115 -189 -58 -28 -63 -29 -166
-23 -105 6 -106 6 -138 -21 -36 -30 -43 -26 -61 29 -13 40 -34 57 -73 57 -39
0 -50 -51 -21 -95 24 -36 140 -111 218 -140 87 -33 183 -43 210 -22 19 14 19
15 -5 30 -14 9 -57 21 -97 27 -76 11 -135 30 -146 49 -12 18 15 22 94 13 41
-4 97 -4 123 1 57 9 73 0 82 -46 8 -35 31 -67 50 -67 23 0 63 40 83 82 11 24
30 79 42 122 12 44 29 95 38 113 l16 34 15 -28 c20 -38 28 -222 11 -262 -7
-18 -45 -53 -105 -95 -100 -71 -149 -96 -190 -96 -71 0 -395 149 -487 224 -28
22 -74 58 -102 78 -144 106 -347 422 -428 668 -54 164 -51 380 8 552 65 192
195 342 364 422 59 27 74 30 160 30 168 -1 421 -84 602 -198 235 -147 682
-508 774 -623 66 -83 97 -113 141 -134 74 -36 210 -201 285 -347 43 -82 48
-112 19 -112 -20 0 -24 7 -50 79 -17 48 -39 68 -65 58 -28 -11 -19 -72 24
-165 21 -48 63 -143 92 -211 58 -137 78 -160 108 -124 22 27 29 21 64 -60 72
-162 103 -416 65 -535 -22 -67 18 -110 76 -84 l23 11 -25 -82 c-31 -103 -114
-279 -120 -254 -3 10 10 55 27 100 38 97 51 197 28 197 -25 0 -37 -22 -83
-144 -58 -157 -106 -219 -142 -184 -19 20 -10 38 63 127 56 68 70 115 40 140
-28 24 -63 -16 -135 -152 -50 -94 -54 -142 -15 -157 37 -14 109 -12 149 4 40
17 44 11 34 -53 -10 -68 5 -74 52 -22 68 76 249 457 249 525 0 55 -75 107
-108 74 -9 -9 -12 0 -12 44 0 73 -22 201 -66 377 -70 285 -119 379 -191 368
-22 -4 -38 -1 -48 9 -20 20 -19 21 11 49 24 22 26 29 19 71 -8 53 -87 214
-157 319 -74 112 -136 173 -192 193 -56 20 -69 38 -33 47 32 9 103 -11 149
-40 42 -28 107 -110 168 -213 61 -103 120 -143 128 -85 7 45 -106 214 -196
294 -56 50 -98 70 -217 105 -89 26 -91 27 -175 114 -51 52 -135 122 -210 175
-257 180 -344 270 -338 350 2 31 7 41 23 43 31 4 138 -65 218 -140 l72 -68
-55 24 c-30 13 -94 42 -143 65 -48 23 -90 41 -94 41 -17 0 46 -51 220 -177
108 -78 231 -176 282 -226 94 -93 148 -126 202 -127 71 0 53 51 -27 81 -53 19
-63 27 -89 73 -30 54 -224 268 -383 424 -107 103 -146 125 -373 206 -71 26
-150 58 -174 73 l-45 26 -49 -17 c-41 -15 -51 -15 -58 -4 -5 7 -9 16 -9 20 0
12 -59 27 -132 33 -92 8 -168 24 -168 36 0 17 54 30 125 31 118 0 347 -71 601
-185 147 -66 214 -106 299 -177 36 -30 91 -68 123 -85 48 -25 66 -43 115 -114
77 -114 104 -141 141 -141 27 -1 34 -7 53 -48 12 -26 55 -87 95 -137 87 -108
298 -325 316 -325 46 0 -30 137 -145 261 -46 49 -83 93 -83 99 0 32 49 -4 158
-116 94 -97 148 -165 231 -288 117 -174 174 -239 224 -255 83 -28 223 -352
263 -609 24 -161 24 -161 54 -56 26 89 25 159 -1 237 -44 133 -289 620 -335
667 -28 29 -30 20 -8 -62 8 -33 13 -62 11 -64 -8 -8 -247 338 -247 358 0 5 34
-10 75 -33 42 -23 78 -39 81 -36 11 11 -9 48 -75 139 -98 136 -99 138 -35 87
81 -65 149 -84 195 -56 18 10 23 9 45 -16 29 -34 30 -47 4 -80 -26 -33 -25
-63 6 -155 46 -141 195 -394 256 -436 20 -14 20 -15 -12 -43 -29 -26 -31 -32
-20 -52 10 -20 18 -23 49 -18 41 5 59 -4 86 -46 24 -37 13 -44 -35 -22 -22 10
-43 15 -46 12 -4 -3 10 -25 29 -48 26 -30 38 -55 42 -88 9 -69 9 -68 1 -189
-9 -132 1 -162 54 -162 l31 0 -17 -32 c-13 -24 -15 -46 -9 -103 6 -70 6 -73
-21 -94 -30 -24 -59 -27 -67 -7 -3 7 5 44 18 82 39 113 36 120 -56 149 -95 30
-99 36 -115 166 -18 136 -42 229 -95 364 -59 152 -116 232 -139 195 -12 -19 7
-87 54 -190 77 -170 88 -213 121 -504 29 -254 38 -280 60 -166 10 51 35 100
51 100 22 0 28 -49 16 -140 -25 -187 -12 -223 58 -155 34 33 40 36 46 21 6
-16 -10 -174 -23 -221 -13 -47 26 13 60 95 91 217 184 557 194 708 6 89 5 92
-15 92 -36 0 -51 -37 -49 -120 1 -63 -3 -82 -23 -119 -46 -83 -50 -70 -44 131
6 171 5 187 -15 247 -12 35 -20 70 -17 77 3 7 36 29 74 48 37 19 74 41 81 50
20 24 9 50 -26 61 -55 18 -79 49 -239 304 -179 287 -436 591 -499 591 -15 0
-17 -6 -12 -41 3 -22 18 -59 33 -82 34 -53 25 -45 -131 101 -66 63 -215 188
-332 278 -117 90 -215 169 -219 175 -6 11 115 -63 231 -141 171 -115 336 -210
364 -210 6 0 11 7 11 16 0 69 -660 514 -761 514 -26 0 -24 -12 10 -44 35 -34
44 -61 25 -77 -8 -6 -14 -20 -14 -31 0 -18 143 -163 295 -298 148 -131 368
-427 352 -473 -6 -18 -75 58 -147 163 -78 114 -324 365 -425 435 -97 66 -110
86 -110 161 0 74 -30 125 -100 172 -50 33 -142 68 -152 58 -4 -4 42 -52 100
-109 59 -56 107 -109 107 -118 0 -9 -11 -20 -25 -23 -30 -8 -45 -34 -34 -63 4
-11 71 -74 148 -138 85 -70 141 -123 141 -134 0 -11 22 -32 58 -54 78 -48 135
-131 113 -166 -13 -21 -43 -5 -81 45 -19 25 -108 114 -196 198 -342 324 -407
368 -686 464 -238 83 -257 97 -237 176 15 62 32 74 69 53 46 -28 89 -21 103
15 11 31 -24 58 -88 68 -65 11 -70 11 -161 0z m26 -70 c12 -7 10 -14 -15 -40
-17 -18 -43 -39 -60 -48 -41 -22 -166 -20 -220 3 -38 16 -39 17 -17 28 16 7
33 7 61 -1 59 -18 74 -15 137 28 59 40 87 48 114 30z m38 -365 c137 -37 203
-76 223 -134 14 -40 34 -39 77 2 l35 32 -7 -34 c-13 -73 -27 -111 -40 -111 -7
0 -37 17 -67 39 -30 21 -122 72 -205 114 -83 42 -159 86 -169 97 -18 20 -18
20 21 20 21 0 81 -11 132 -25z m2073 -991 c43 -47 82 -97 85 -112 23 -102 28
-114 82 -199 26 -41 -5 -25 -110 59 -100 80 -102 82 -75 89 41 11 57 28 57 59
0 32 -11 43 -61 59 -43 14 -73 43 -94 94 -11 27 -13 43 -5 56 15 29 35 31 38
4 2 -13 39 -62 83 -109z"/>
<path d="M3830 4142 c0 -27 29 -49 79 -61 24 -5 53 -19 65 -30 l20 -21 -26 0
c-15 0 -82 16 -150 36 -281 83 -358 100 -358 76 0 -28 102 -79 330 -165 165
-62 332 -139 423 -193 219 -131 600 -458 727 -624 131 -172 333 -390 360 -390
32 0 -17 98 -115 225 -29 39 -161 188 -292 332 -224 246 -287 323 -265 323 5
0 45 -31 89 -69 94 -81 176 -139 210 -147 28 -7 85 14 80 29 -2 6 -18 15 -37
20 -42 11 -97 48 -201 138 -116 100 -123 104 -193 104 -58 0 -71 5 -271 110
-115 61 -221 120 -235 133 l-25 23 30 -6 c66 -14 496 -195 667 -281 39 -20 94
-51 122 -70 61 -40 113 -54 122 -31 9 26 -13 54 -81 102 -68 49 -102 88 -114
131 l-6 25 -24 -20 c-13 -12 -29 -21 -36 -21 -6 0 -53 20 -103 45 -57 28 -105
45 -127 45 -25 0 -79 22 -179 74 -160 83 -219 104 -242 85 -12 -10 -22 -6 -52
23 -50 49 -92 68 -147 68 -37 0 -45 -3 -45 -18z"/>
<path d="M1379 4092 c-85 -100 -282 -475 -343 -653 -47 -139 -58 -241 -43
-434 12 -173 12 -207 2 -292 -10 -81 6 -186 51 -330 59 -192 65 -164 38 188
-9 118 -17 315 -18 439 0 267 11 334 94 555 62 164 96 235 160 330 95 143 131
223 104 232 -7 2 -27 -14 -45 -35z"/>
<path d="M1477 4047 c-22 -34 -39 -98 -35 -132 4 -39 32 -44 54 -10 23 35 44
118 37 144 -7 28 -37 27 -56 -2z"/>
<path d="M2048 4009 c-21 -12 -24 -59 -6 -77 7 -7 25 -12 40 -12 40 0 58 39
34 75 -17 26 -39 31 -68 14z"/>
<path d="M3557 3853 c-35 -34 53 -133 118 -133 74 0 68 59 -12 110 -44 28 -91
38 -106 23z"/>
<path d="M4985 3330 c-9 -15 23 -57 55 -70 38 -16 64 -9 68 17 6 39 -103 86
-123 53z"/>
<path d="M1410 3166 c-7 -9 -16 -61 -20 -121 -4 -58 -13 -112 -20 -120 -7 -8
-25 -15 -41 -15 -38 0 -63 -40 -79 -127 -18 -95 1 -193 37 -193 23 0 33 39 33
129 0 96 11 141 34 141 23 0 26 -12 37 -142 11 -147 29 -227 69 -311 56 -118
120 -166 104 -79 -4 20 -24 92 -45 160 -38 120 -69 302 -69 400 0 26 9 87 19
135 22 107 17 151 -20 155 -14 2 -31 -4 -39 -12z"/>
<path d="M1809 3013 c-21 -54 11 -433 46 -552 9 -29 14 -59 11 -67 -3 -8 -26
-23 -50 -34 -72 -30 -71 -53 9 -305 49 -155 65 -185 99 -185 37 0 41 40 11
110 -14 33 -37 88 -52 123 -34 80 -38 181 -9 203 46 33 99 5 77 -42 -17 -38
-13 -125 9 -197 25 -82 37 -93 91 -79 72 18 129 -9 222 -107 70 -74 88 -111
67 -136 -19 -22 -27 -19 -74 30 -48 49 -57 53 -76 30 -30 -36 80 -175 139
-175 33 0 48 14 53 50 6 46 61 32 202 -48 326 -188 465 -208 886 -126 102 20
120 31 148 88 24 48 27 67 11 83 -7 7 -6 37 5 99 18 98 21 201 7 223 -5 8 -16
11 -24 8 -31 -12 -87 -209 -87 -306 l0 -48 -72 -33 c-135 -60 -160 -65 -328
-64 -139 0 -164 3 -244 28 -320 97 -607 334 -786 646 -55 97 -96 140 -132 140
l-27 0 19 46 c25 56 25 60 1 90 -48 61 -98 279 -86 377 13 117 4 157 -36 157
-12 0 -24 -11 -30 -27z m238 -892 c8 -18 12 -35 9 -38 -5 -5 -56 78 -56 92 0
16 34 -22 47 -54z"/>
<path d="M2631 2829 c-36 -104 22 -295 95 -313 21 -6 33 -1 55 20 19 18 29 23
29 13 0 -29 -40 -79 -80 -99 -50 -25 -52 -53 -12 -119 39 -63 52 -104 45 -144
-6 -42 17 -68 94 -104 61 -28 111 -38 147 -29 21 5 26 13 26 36 0 37 -11 43
-93 51 -79 7 -121 35 -101 67 9 13 25 17 76 16 83 -1 152 -36 161 -84 12 -60
77 -22 77 45 0 48 -38 172 -79 261 -79 167 -194 311 -300 374 -85 51 -124 53
-140 9z m150 -106 c56 -59 172 -220 203 -281 22 -42 17 -54 -33 -87 -80 -53
-158 -50 -206 7 -38 45 -22 54 70 38 68 -12 78 -11 92 3 22 21 19 66 -8 119
-53 105 -77 117 -136 72 l-33 -25 -11 28 c-6 15 -16 56 -21 90 -19 111 3 120
83 36z"/>
<path d="M2130 2720 c-16 -31 0 -72 103 -255 150 -267 201 -335 252 -335 17 0
26 -9 34 -30 12 -35 38 -39 82 -13 38 22 37 50 -2 71 -105 57 -178 146 -284
347 -81 153 -139 235 -165 235 -5 0 -14 -9 -20 -20z"/>
<path d="M1708 2703 c-25 -6 -32 -42 -25 -137 9 -139 56 -213 81 -127 12 42
-8 240 -26 256 -7 7 -21 10 -30 8z"/>
<path d="M4560 2603 c0 -16 9 -52 20 -82 l21 -54 -27 -39 c-27 -39 -28 -41
-16 -107 21 -121 85 -241 128 -241 35 0 31 30 -16 130 -25 53 -40 100 -40 124
0 38 0 39 20 21 45 -41 147 -261 196 -423 31 -102 39 -114 73 -110 43 5 39 49
-17 184 -26 66 -63 157 -81 204 -70 178 -209 420 -243 420 -13 0 -18 -8 -18
-27z"/>
<path d="M5367 2603 c-11 -11 -8 -42 8 -72 29 -56 75 -46 75 16 0 29 -5 36
-35 49 -40 16 -39 16 -48 7z"/>
<path d="M2411 2512 c-22 -41 48 -152 96 -152 16 0 24 7 29 27 8 28 -10 108
-28 130 -16 20 -85 17 -97 -5z"/>
<path d="M911 2483 c-12 -41 -15 -171 -5 -197 19 -50 73 34 74 114 0 45 -27
111 -48 118 -6 2 -15 -14 -21 -35z"/>
<path d="M1252 2498 c-18 -18 -15 -46 8 -78 11 -16 23 -42 26 -60 6 -27 2 -35
-40 -73 -49 -46 -50 -57 -5 -57 45 0 109 -58 181 -164 99 -145 154 -212 203
-246 43 -29 75 -39 75 -21 0 4 -12 26 -27 47 -125 181 -148 229 -159 339 -4
36 -11 68 -16 71 -6 4 -26 -10 -47 -30 -20 -20 -40 -36 -43 -36 -11 0 -37 80
-58 180 -12 52 -28 105 -36 118 -16 24 -43 29 -62 10z"/>
<path d="M780 2398 c-21 -46 -27 -142 -10 -153 5 -3 21 5 34 18 40 40 50 168
13 175 -12 3 -23 -9 -37 -40z"/>
<path d="M1150 2411 c-21 -40 19 -91 71 -91 19 0 21 4 16 36 -11 64 -64 98
-87 55z"/>
<path d="M3788 2399 c-64 -37 60 -389 136 -389 25 0 46 30 46 65 0 21 -12 53
-30 82 -17 26 -43 86 -57 132 -24 76 -50 122 -70 121 -5 0 -16 -5 -25 -11z"/>
<path d="M3925 2395 c-3 -8 -7 -22 -10 -30 -13 -42 41 -105 90 -105 22 0 19
17 -15 88 -28 60 -55 80 -65 47z"/>
<path d="M2540 2306 c0 -28 69 -104 101 -111 71 -16 60 39 -19 93 -50 34 -82
41 -82 18z"/>
<path d="M1550 2231 c0 -49 92 -218 247 -454 67 -101 115 -165 134 -175 16
-10 66 -62 109 -117 44 -55 99 -122 123 -148 l43 -49 37 16 c26 10 37 21 37
36 0 13 -46 66 -129 149 -145 145 -235 260 -388 493 -115 177 -164 242 -194
258 -16 9 -19 7 -19 -9z"/>
<path d="M5462 2213 c-20 -38 -44 -125 -38 -138 11 -29 46 -17 62 20 29 71 7
179 -24 118z"/>
<path d="M821 2194 c-36 -30 -49 -81 -31 -125 28 -66 88 -2 98 103 4 43 3 48
-16 48 -11 0 -34 -12 -51 -26z"/>
<path d="M1677 2213 c-26 -25 22 -73 73 -73 22 0 27 28 10 61 -11 19 -68 28
-83 12z"/>
<path d="M4274 2174 c-24 -94 44 -393 102 -451 l23 -23 -22 0 c-68 -2 -170
-20 -193 -35 -23 -15 -25 -21 -20 -58 17 -113 17 -128 1 -179 -27 -81 -62
-134 -123 -186 -32 -26 -60 -51 -64 -57 -14 -19 -8 -59 17 -100 29 -50 69 -71
108 -56 32 12 54 6 68 -20 8 -17 49 -28 49 -14 0 19 -32 77 -60 108 -22 26
-40 37 -60 37 -30 0 -42 17 -33 49 6 25 5 24 54 10 50 -16 60 -7 99 89 39 94
71 138 113 156 40 16 53 32 64 76 9 32 13 35 41 32 30 -3 32 -1 32 28 0 40
-20 119 -72 285 -23 72 -53 175 -68 229 -28 103 -44 127 -56 80z m44 -546 c16
-16 15 -61 -2 -103 -26 -62 -46 -40 -46 49 0 29 3 56 7 59 10 11 28 8 41 -5z"/>
<path d="M1103 2175 c-3 -9 2 -36 12 -61 22 -58 97 -169 110 -164 40 18 -58
240 -105 240 -6 0 -13 -7 -17 -15z"/>
<path d="M5550 2146 c0 -27 47 -89 61 -80 11 6 2 51 -17 82 -19 30 -44 29 -44
-2z"/>
<path d="M980 2125 c0 -74 96 -271 177 -364 30 -34 32 -35 33 -13 0 44 -129
338 -173 395 -22 27 -37 20 -37 -18z"/>
<path d="M1266 2072 c-10 -17 27 -76 88 -139 75 -77 96 -77 70 0 -28 81 -135
176 -158 139z"/>
<path d="M4696 1976 c-9 -38 11 -121 50 -208 29 -65 36 -94 38 -152 3 -86 30
-142 98 -200 48 -42 67 -42 86 -3 22 46 9 76 -39 83 -55 9 -67 31 -79 145 -14
134 -53 264 -100 330 -26 35 -46 37 -54 5z"/>
<path d="M2087 1943 c-4 -3 -7 -18 -7 -33 0 -37 40 -72 76 -68 25 3 29 8 32
40 3 32 -1 39 -27 52 -32 17 -63 21 -74 9z"/>
<path d="M912 1908 c-28 -28 -6 -118 29 -118 28 0 49 22 49 53 0 59 -46 97
-78 65z"/>
<path d="M5605 1887 c-43 -66 -93 -265 -77 -307 8 -22 4 -31 -33 -71 -43 -46
-65 -98 -65 -151 0 -37 12 -35 46 4 33 40 56 92 99 228 44 140 65 230 65 280
0 45 -12 51 -35 17z"/>
<path d="M1974 1820 c13 -67 53 -99 84 -68 33 33 4 86 -52 95 l-39 6 7 -33z"/>
<path d="M1586 1771 c-7 -11 36 -94 52 -99 18 -5 15 59 -4 86 -15 22 -39 29
-48 13z"/>
<path d="M4514 1743 c36 -210 34 -224 -33 -244 -62 -18 -76 -39 -63 -91 13
-50 0 -127 -42 -245 -28 -78 -30 -91 -18 -111 14 -21 39 -3 77 53 44 67 51 71
75 50 26 -24 43 -9 68 58 64 173 51 426 -28 537 -30 42 -44 38 -36 -7z m30
-423 c-6 -73 -9 -81 -21 -65 -7 11 -13 26 -13 35 0 24 30 123 36 117 3 -2 2
-42 -2 -87z"/>
<path d="M4926 1748 c-30 -42 -18 -108 18 -108 37 0 59 68 36 111 -14 25 -35
24 -54 -3z"/>
<path d="M1740 1708 c1 -64 104 -282 154 -326 46 -40 79 -40 84 0 4 35 -19 78
-88 163 -31 39 -74 94 -94 123 -37 51 -56 65 -56 40z"/>
<path d="M1380 1678 c0 -61 81 -198 116 -198 18 0 19 57 2 113 -14 45 -76 117
-101 117 -12 0 -17 -9 -17 -32z"/>
<path d="M2080 1682 c0 -32 138 -142 178 -142 37 0 -22 81 -95 129 -53 35 -83
40 -83 13z"/>
<path d="M1195 1658 c-19 -28 -39 -98 -30 -106 4 -4 19 9 35 28 21 26 30 31
34 20 2 -8 9 -31 16 -51 6 -20 20 -45 31 -55 18 -16 21 -16 36 -1 14 14 15 23
4 69 -17 79 -44 118 -80 118 -20 0 -35 -8 -46 -22z"/>
<path d="M1577 1604 c-14 -14 31 -81 143 -218 73 -90 85 -85 45 20 -31 83 -78
157 -115 184 -28 20 -61 26 -73 14z"/>
<path d="M2310 1426 c0 -15 94 -106 110 -106 5 0 47 -37 92 -83 120 -119 323
-230 446 -243 95 -10 96 36 1 66 -87 27 -206 94 -366 209 -234 168 -283 195
-283 157z"/>
<path d="M1523 1419 c-18 -18 8 -59 74 -118 60 -53 84 -63 82 -33 -1 23 -21
73 -39 98 -30 42 -98 72 -117 53z"/>
<path d="M5023 1373 c-48 -51 -93 -132 -103 -184 -18 -96 -194 -438 -267 -519
-43 -48 -103 -160 -103 -192 0 -53 60 -11 82 57 9 26 22 44 41 53 38 18 90 91
191 268 47 83 100 168 116 189 34 43 64 131 85 253 19 110 9 128 -42 75z"/>
<path d="M4323 1363 c-24 -35 -39 -70 -69 -157 -27 -79 -31 -126 -10 -126 34
0 127 147 142 225 7 37 -10 85 -30 85 -8 0 -23 -12 -33 -27z"/>
<path d="M1990 1336 c0 -3 9 -42 20 -88 11 -46 20 -86 20 -90 0 -13 -29 -9
-62 8 -67 35 -58 -27 17 -113 43 -50 84 -58 109 -21 22 31 20 45 -9 80 -29 35
-30 38 -10 64 14 18 16 18 50 -18 20 -21 45 -38 55 -38 61 0 67 42 13 91 -36
32 -184 129 -197 129 -3 0 -6 -2 -6 -4z"/>
<path d="M1424 1293 c8 -32 37 -75 54 -81 20 -6 14 53 -9 82 -28 36 -53 35
-45 -1z"/>
<path d="M2290 1263 c0 -64 244 -245 538 -399 125 -65 205 -121 210 -147 6
-32 -33 -18 -234 82 -209 104 -320 171 -417 252 -77 64 -126 76 -151 37 -13
-22 6 -44 99 -112 96 -71 202 -135 315 -191 52 -25 104 -58 116 -72 15 -18 52
-34 135 -59 152 -46 162 -53 154 -108 -6 -40 -5 -43 22 -54 46 -17 83 -23 105
-16 27 8 18 39 -38 133 -24 40 -44 75 -44 76 0 13 48 12 138 0 184 -27 327
-30 415 -11 126 28 169 87 76 102 l-42 7 27 22 c44 35 99 48 145 34 48 -14
153 6 229 45 57 29 77 50 68 72 -10 25 -90 12 -165 -25 -33 -17 -65 -31 -71
-31 -6 0 1 17 15 37 24 36 32 63 19 63 -3 0 -66 -27 -140 -60 -73 -33 -140
-60 -148 -60 -7 0 -19 7 -26 15 -17 21 9 49 67 75 79 35 40 70 -56 49 -28 -6
-65 -21 -83 -33 -28 -18 -33 -28 -33 -60 0 -64 -16 -69 -185 -62 -139 6 -147
5 -194 -18 -27 -13 -56 -22 -65 -20 -9 2 -37 6 -63 9 -34 4 -60 16 -90 42 -23
19 -94 61 -158 93 -63 33 -136 76 -162 97 -181 147 -289 223 -315 223 -7 0
-13 -11 -13 -27z m1313 -464 c29 -8 37 -15 37 -33 0 -34 -22 -49 -54 -36 -36
13 -79 13 -93 -1 -19 -19 -97 -12 -180 16 -43 15 -82 30 -86 35 -5 4 49 11
120 15 70 3 133 8 138 10 21 7 82 4 118 -6z"/>
<path d="M5077 1163 c-8 -10 -29 -61 -47 -115 -31 -93 -68 -162 -180 -335 -61
-95 -73 -155 -33 -161 28 -4 64 45 134 181 73 144 142 257 178 291 40 39 43
95 6 131 -29 30 -37 31 -58 8z"/>
<path d="M5451 1147 c-31 -16 -47 -61 -32 -93 15 -33 44 -30 75 7 31 36 34 74
7 89 -24 12 -21 12 -50 -3z"/>
<path d="M1750 1130 c-8 -14 -7 -28 3 -53 19 -45 117 -148 176 -186 98 -63
108 -28 22 86 -58 78 -104 125 -151 156 -31 22 -37 21 -50 -3z"/>
<path d="M3813 1090 c-53 -22 -8 -73 58 -68 36 2 45 7 47 24 2 11 -3 25 -10
31 -20 16 -70 23 -95 13z"/>
<path d="M3130 998 c0 -30 36 -88 54 -88 8 0 28 8 44 17 26 15 36 15 83 4 60
-14 141 -12 146 5 6 17 -60 42 -168 64 -135 27 -159 26 -159 -2z"/>
<path d="M2117 973 c-45 -44 82 -126 479 -307 247 -112 317 -137 337 -117 9 9
6 16 -13 31 -44 34 -232 127 -337 169 -66 25 -147 68 -225 120 -154 100 -218
128 -241 104z"/>
<path d="M5302 947 c-13 -14 -22 -36 -22 -55 0 -26 5 -35 27 -43 74 -28 123
50 67 105 -22 22 -47 20 -72 -7z"/>
<path d="M4242 935 c-65 -37 -262 -175 -304 -213 -41 -37 -48 -67 -20 -88 46
-35 115 -2 227 109 171 171 217 261 97 192z"/>
<path d="M2060 809 c-18 -34 -4 -69 36 -85 19 -8 39 -12 44 -9 24 15 -3 96
-35 109 -26 10 -34 7 -45 -15z"/>
<path d="M2238 779 c-30 -17 -22 -48 17 -65 50 -21 65 -18 65 11 0 26 -31 65
-52 65 -7 0 -21 -5 -30 -11z"/>
<path d="M5019 767 c-17 -13 -39 -50 -39 -66 0 -6 11 -18 24 -26 20 -13 29
-14 46 -5 25 14 52 72 44 94 -7 19 -52 21 -75 3z"/>
<path d="M4235 746 c-79 -35 -83 -88 -6 -94 48 -4 86 16 103 53 22 48 -30 70
-97 41z"/>
<path d="M4400 721 c0 -5 7 -14 16 -21 30 -26 35 -48 18 -81 -15 -31 -17 -31
-62 -23 -26 5 -94 8 -152 8 -120 -2 -199 -20 -366 -84 -233 -89 -191 -82 -454
-75 -300 8 -410 24 -575 81 -147 50 -225 58 -225 25 0 -58 207 -140 443 -175
91 -13 127 -26 127 -47 0 -14 -118 -10 -205 6 -89 17 -200 23 -211 12 -12 -12
17 -33 71 -51 28 -9 124 -28 215 -42 91 -13 200 -31 244 -39 103 -20 159 -18
226 5 64 22 89 24 139 9 75 -22 130 35 59 61 -19 7 -120 15 -233 19 -213 7
-273 19 -199 40 117 34 427 20 508 -21 51 -27 118 -27 177 -1 61 27 74 47 72
104 -2 45 0 50 26 64 16 8 48 17 71 21 l42 7 -31 -43 c-54 -75 -38 -79 58 -16
36 24 83 49 103 57 34 12 42 11 86 -10 84 -39 112 -11 112 109 0 57 -4 74 -20
90 -20 20 -80 28 -80 11z m-436 -291 c17 -17 -5 -25 -69 -24 -65 2 -114 18
-85 28 48 16 136 14 154 -4z"/>
<path d="M2423 653 c-9 -23 49 -73 87 -73 57 0 51 50 -11 74 -50 20 -68 20
-76 -1z"/>
<path d="M3641 610 c-69 -19 -107 -49 -98 -74 12 -30 202 -14 282 25 45 21 44
46 -2 58 -53 15 -108 13 -182 -9z"/>
<path d="M3343 593 c-23 -2 -47 -11 -54 -20 -11 -13 -10 -18 10 -34 47 -38
131 -37 152 2 20 39 -23 60 -108 52z"/>
<path d="M2310 574 c0 -35 82 -114 119 -114 24 0 9 39 -34 83 -45 47 -85 62
-85 31z"/>
<path d="M4306 464 c-21 -20 -20 -37 3 -65 16 -20 23 -22 47 -14 51 18 42 95
-12 95 -12 0 -30 -7 -38 -16z"/>
<path d="M2557 464 c-11 -11 -8 -57 6 -75 36 -47 97 -41 97 9 0 16 -8 36 -18
45 -21 19 -74 32 -85 21z"/>
<path d="M4351 324 c-65 -56 -98 -133 -69 -162 32 -32 82 9 122 101 46 103 25
127 -53 61z"/>
<path d="M4175 284 c-130 -45 -196 -88 -180 -114 10 -17 59 -3 151 41 142 69
162 119 29 73z"/>
<path d="M4486 273 c-53 -53 -13 -93 52 -53 39 24 49 45 32 65 -19 23 -54 18
-84 -12z"/>
<path d="M3762 180 c-35 -16 -43 -24 -40 -42 3 -20 10 -23 48 -26 59 -3 144
20 148 40 9 47 -79 63 -156 28z"/>
<path d="M2993 173 c-39 -5 -42 -17 -10 -37 51 -33 132 -48 268 -51 140 -2
159 -6 159 -31 0 -23 34 -16 61 12 23 24 27 25 96 18 78 -7 103 2 103 37 0 33
-33 39 -217 38 -98 0 -209 4 -248 10 -68 10 -147 12 -212 4z"/>
<path d="M3977 103 c-4 -3 -7 -18 -7 -33 0 -57 91 -97 109 -48 4 12 6 30 3 41
-8 30 -85 60 -105 40z"/>
</g>
</svg>
