<?xml version="1.0" standalone="no"?>
<!DOCTYPE svg PUBLIC "-//W3C//DTD SVG 20010904//EN"
 "http://www.w3.org/TR/2001/REC-SVG-20010904/DTD/svg10.dtd">
<svg version="1.0" xmlns="http://www.w3.org/2000/svg"
 width="2400.000000pt" height="2400.000000pt" viewBox="0 0 2400.000000 2400.000000"
 preserveAspectRatio="xMidYMid meet">
<metadata>
Created by potrace 1.13, written by Peter Selinger 2001-2015
</metadata>
<g transform="translate(0.000000,2400.000000) scale(0.100000,-0.100000)"
fill="#000000" stroke="none">
<path d="M12662 23993 c-22 -9 -54 -85 -59 -142 -4 -48 0 -65 26 -121 39 -82
39 -110 1 -154 -61 -69 -198 -92 -500 -83 -283 9 -595 43 -1105 124 -274 43
-452 50 -498 20 -52 -34 -67 -72 -67 -172 0 -191 37 -313 112 -368 37 -27 111
-25 222 7 219 64 736 116 1531 156 608 30 774 48 871 95 69 34 82 63 60 137
-48 163 -229 341 -471 461 -78 39 -104 48 -123 40z"/>
<path d="M9965 23450 c-158 -42 -269 -89 -730 -310 -517 -248 -733 -337 -974
-404 -205 -58 -426 -80 -515 -52 -77 24 -82 12 -36 -79 16 -33 30 -74 30 -91
0 -51 -47 -128 -120 -198 -87 -82 -153 -124 -310 -198 -69 -33 -169 -88 -222
-124 -132 -88 -177 -148 -129 -174 52 -27 155 -3 359 87 475 208 1012 427
1529 622 1087 411 1370 533 1475 635 66 65 60 96 -43 215 -67 78 -95 91 -189
90 -30 0 -86 -9 -125 -19z"/>
<path d="M13245 23080 c-499 -18 -867 -39 -1250 -71 -834 -69 -1745 -191
-1907 -256 -89 -36 -28 -47 242 -45 241 2 415 11 930 49 282 21 426 26 700 26
386 0 485 -10 540 -56 16 -14 52 -30 81 -37 70 -17 247 -8 374 20 143 30 267
37 336 17 66 -20 94 -47 108 -105 12 -56 39 -84 112 -116 78 -36 176 -56 274
-56 212 -1 446 -38 655 -105 64 -20 211 -83 330 -140 270 -131 402 -176 525
-182 78 -4 94 -2 123 16 18 12 37 33 43 49 27 67 -40 241 -126 328 l-51 51
-144 6 c-227 9 -736 88 -926 143 -221 64 -257 119 -169 264 63 105 59 138 -20
168 -86 33 -400 46 -780 32z"/>
<path d="M11460 22523 c-19 -2 -186 -17 -370 -34 -465 -42 -1193 -115 -1385
-139 -173 -22 -192 -31 -180 -80 27 -107 342 -239 615 -257 67 -4 115 0 224
21 204 38 223 35 107 -20 -52 -25 -111 -58 -132 -75 -127 -101 3 -172 340
-186 177 -7 333 4 883 62 399 42 467 48 443 40 -45 -16 -662 -200 -736 -219
-322 -85 -736 -124 -919 -87 -98 20 -230 16 -284 -8 -55 -24 -65 -42 -75 -134
-13 -113 -42 -143 -130 -135 -67 7 -140 44 -258 132 -229 172 -558 529 -639
693 -61 122 -160 154 -367 118 -221 -38 -430 -138 -488 -231 -16 -27 -20 -43
-15 -72 19 -105 18 -113 0 -134 -31 -34 -95 -57 -195 -68 -115 -13 -220 -37
-370 -86 -477 -153 -1218 -520 -1531 -757 -45 -34 -90 -68 -100 -76 -11 -8
-51 -58 -88 -111 -101 -143 -175 -197 -254 -187 -59 8 -119 -23 -151 -77 -36
-62 -33 -76 14 -76 112 0 455 146 956 407 608 317 1139 549 1395 609 155 37
456 218 543 327 19 23 48 67 66 97 39 65 70 100 87 100 34 0 54 -195 30 -289
-29 -112 -91 -207 -174 -265 -22 -15 -154 -71 -293 -125 -465 -180 -907 -375
-1404 -621 -585 -289 -935 -502 -935 -568 0 -34 -40 -82 -89 -107 -62 -31
-152 -55 -206 -55 -159 0 -420 -149 -483 -275 -50 -100 -21 -119 84 -56 97 59
160 55 183 -10 12 -36 37 2 -251 -394 -277 -383 -382 -555 -340 -555 42 0 320
256 657 605 387 401 645 626 1045 912 549 393 1167 718 1638 862 214 66 244
51 122 -62 -264 -245 -1184 -749 -1472 -807 -113 -23 -124 -27 -166 -57 -37
-28 -62 -71 -62 -108 0 -91 -133 -208 -330 -290 -149 -62 -235 -150 -227 -230
2 -22 10 -54 17 -71 29 -68 -14 -114 -123 -133 -39 -7 -79 -23 -112 -45 -333
-221 -1174 -1187 -1260 -1447 -61 -184 144 -8 1085 926 718 713 942 919 1005
925 89 9 125 -15 125 -84 0 -126 -189 -354 -579 -699 -252 -224 -507 -472
-740 -721 -597 -638 -1063 -1246 -1065 -1389 -1 -30 3 -42 15 -45 61 -12 357
273 777 748 678 766 892 985 1102 1125 110 74 159 97 363 171 l148 54 59 -61
58 -62 56 5 c74 6 128 43 291 200 170 164 184 170 350 173 72 1 150 8 175 14
144 40 308 168 487 383 273 326 324 462 155 413 -141 -41 -298 -131 -707 -404
-350 -234 -503 -330 -632 -395 -159 -79 -243 -91 -243 -35 0 53 109 217 202
305 105 98 187 144 309 169 137 29 335 144 552 322 172 139 255 201 352 259
190 113 333 156 403 120 48 -25 97 -21 121 10 12 15 21 38 21 53 0 44 20 99
47 131 37 45 88 67 193 84 156 25 280 99 331 198 24 48 24 73 -2 99 -19 19
-28 20 -112 14 -105 -7 -128 1 -164 54 -21 30 -23 45 -21 122 3 74 0 90 -16
108 -25 28 -60 27 -111 -4 -87 -50 -160 -29 -166 50 -4 53 3 71 45 111 78 74
241 115 385 94 78 -11 115 -26 145 -59 17 -19 19 -27 9 -63 -9 -35 -8 -43 7
-58 43 -43 170 -38 429 15 187 39 261 44 261 19 0 -9 -35 -48 -77 -88 -188
-172 -245 -233 -241 -257 6 -47 44 -54 273 -53 201 0 386 12 855 54 637 58
1044 75 1509 66 1087 -22 2064 -153 3081 -411 227 -58 306 -67 335 -39 34 34
-23 133 -109 190 -90 59 -147 76 -293 84 -145 9 -173 18 -173 56 0 49 69 141
136 180 123 72 277 45 612 -107 212 -97 316 -130 428 -136 105 -6 155 10 179
58 46 89 -14 159 -137 159 -168 0 -544 123 -948 310 -576 266 -1097 415 -1720
489 -320 39 -729 55 -1060 42 -134 -6 -245 -9 -247 -8 -3 4 237 106 352 151
304 117 618 176 862 162 295 -17 540 -86 1173 -327 719 -273 1193 -409 1442
-413 79 -1 100 2 114 16 16 16 16 18 0 43 -44 67 -296 195 -756 386 -443 183
-495 202 -755 274 -1249 348 -2635 603 -2635 485 0 -5 30 -32 68 -59 67 -49
112 -109 112 -150 0 -11 -16 -39 -36 -61 -90 -99 -210 -47 -299 130 -45 89
-111 161 -178 195 -51 25 -112 30 -227 18z m1922 -1123 c134 -9 221 -23 600
-101 244 -49 478 -99 520 -110 170 -43 329 -113 393 -173 36 -34 38 -38 32
-85 -11 -93 -67 -174 -149 -215 -92 -46 -179 -31 -235 41 -104 130 -554 216
-1443 274 -324 21 -1309 23 -1808 4 -497 -19 -946 -17 -1044 5 -32 7 -65 21
-74 31 -16 18 -16 21 6 44 29 31 98 57 220 83 588 126 2324 244 2982 202z
m-4764 -749 c13 -38 -261 -256 -563 -449 -458 -292 -1155 -642 -1359 -684 -66
-13 -86 -7 -86 25 0 131 622 558 1292 887 220 108 416 190 531 220 82 22 178
23 185 1z"/>
<path d="M11095 20609 c-66 -4 -181 -15 -255 -24 -178 -21 -1039 -143 -1062
-151 -10 -3 -22 -13 -27 -22 -10 -20 -49 -163 -86 -322 -32 -137 -81 -246
-130 -289 -40 -35 -57 -37 -108 -16 -179 75 -627 -132 -903 -417 -99 -102
-143 -167 -190 -282 -77 -189 -56 -246 92 -246 87 0 137 24 203 96 46 51 71
101 71 147 0 11 -7 44 -16 74 -28 95 -2 183 64 217 15 8 68 21 117 30 243 45
511 128 667 206 224 113 328 226 347 378 11 84 18 99 76 150 129 113 430 214
770 258 180 23 500 23 665 0 140 -19 292 -23 330 -8 45 17 55 37 41 82 -23 79
-119 122 -309 140 -119 11 -180 11 -357 -1z"/>
<path d="M12385 20505 c-5 -2 -23 -6 -39 -10 -27 -6 -27 -7 -12 -24 21 -23
161 -70 348 -117 204 -51 668 -141 768 -149 990 -78 2105 -467 2950 -1029 272
-181 492 -364 564 -469 48 -70 44 -92 -15 -83 -52 8 -143 54 -349 176 -510
302 -963 526 -1265 626 -900 297 -2513 576 -3785 655 -234 14 -728 14 -865 -1
-210 -22 -335 -62 -376 -120 -28 -41 -31 -65 -11 -91 38 -46 142 -39 492 34
256 54 390 58 390 13 0 -17 -60 -61 -136 -99 -85 -43 -250 -96 -459 -147 -703
-172 -1362 -415 -1529 -562 -47 -41 -47 -42 -41 -88 9 -64 -5 -89 -102 -180
-258 -246 -882 -549 -1217 -591 -45 -6 -121 -17 -170 -24 -163 -25 -286 -110
-299 -208 -9 -65 -62 -165 -150 -282 -397 -530 -1299 -1361 -1539 -1419 -42
-10 -72 24 -63 72 21 111 128 249 349 449 215 195 709 691 928 934 289 318
495 573 585 722 32 53 37 70 37 119 -1 75 -22 108 -68 108 -49 0 -125 -61
-306 -247 -115 -118 -169 -166 -209 -186 -91 -45 -168 -34 -246 34 -33 29 -45
34 -90 34 -63 -1 -149 -46 -275 -143 -120 -92 -524 -500 -800 -807 -424 -471
-580 -636 -909 -965 -252 -252 -347 -340 -418 -388 -196 -133 -206 -164 -73
-226 69 -32 111 -32 178 -1 213 99 511 395 1052 1045 532 640 833 984 1037
1189 l133 133 62 -4 c52 -4 65 -9 86 -33 30 -35 26 -69 -18 -158 -83 -163
-309 -433 -850 -1012 -453 -486 -815 -910 -1131 -1325 -383 -502 -606 -893
-559 -980 11 -20 18 -22 61 -18 84 8 159 82 159 156 0 104 83 169 248 196 114
18 165 45 192 101 18 37 19 48 9 95 -20 92 20 205 133 382 168 262 461 551
583 574 80 15 120 -30 90 -102 -26 -63 -62 -102 -162 -176 -52 -38 -116 -92
-142 -119 -92 -96 -150 -220 -151 -319 0 -134 -74 -304 -210 -485 -211 -279
-411 -651 -567 -1050 -85 -217 -122 -364 -133 -530 -6 -77 -15 -189 -20 -250
-11 -124 -13 -265 -4 -289 3 -9 12 -16 20 -16 20 0 205 180 310 303 109 127
180 228 199 283 12 35 11 42 -8 79 -19 35 -22 56 -22 160 1 102 6 139 34 249
154 607 723 1604 1332 2336 264 318 621 657 1054 1002 915 728 2092 1468 2335
1468 110 0 158 -93 105 -204 -35 -74 -112 -128 -200 -142 -77 -11 -148 -38
-279 -108 -396 -208 -1004 -635 -1391 -977 -146 -128 -197 -166 -237 -174 -23
-6 -33 -3 -40 9 -5 9 -13 16 -18 16 -56 0 -761 -767 -1421 -1545 -595 -702
-841 -1038 -874 -1193 -6 -29 -4 -34 14 -39 46 -12 22 -81 -87 -245 -90 -138
-115 -201 -116 -296 -1 -69 1 -75 27 -98 38 -32 82 -31 138 5 56 36 75 58 134
151 112 179 158 187 265 49 64 -82 84 -99 122 -99 65 0 146 135 257 428 60
159 121 369 121 417 0 32 -17 41 -41 19 -28 -25 -105 -150 -188 -304 -82 -152
-128 -221 -166 -246 -25 -16 -27 -16 -43 0 -58 59 47 543 170 778 423 814
2304 2519 3493 3166 166 90 300 147 506 216 334 112 363 151 196 265 -122 85
-147 114 -147 173 0 55 20 95 78 159 79 87 146 108 228 74 20 -8 103 -80 187
-162 168 -163 233 -206 319 -207 92 -2 137 58 147 198 8 106 27 147 88 189
200 137 612 202 1238 195 l270 -3 67 33 c113 55 188 160 188 263 0 60 -33 79
-136 79 -100 0 -213 -21 -569 -105 -498 -118 -591 -136 -697 -139 -72 -1 -79
1 -104 26 -24 24 -28 35 -28 96 -1 61 2 73 28 106 36 48 112 84 197 92 150 16
249 90 249 187 0 103 62 132 173 81 132 -60 431 -103 1029 -149 1452 -111
3371 -753 4473 -1496 115 -77 185 -109 321 -144 200 -52 550 -99 799 -107 97
-3 100 -2 98 18 -6 53 -134 236 -293 419 -347 399 -750 745 -868 745 -46 0
-82 34 -82 78 1 75 57 155 132 186 50 21 87 20 143 -4 92 -39 142 -20 152 60
6 41 4 43 -63 108 -108 106 -293 222 -583 367 -456 229 -961 400 -1009 342
-40 -48 202 -208 543 -361 268 -120 331 -154 374 -201 50 -55 53 -85 10 -143
-70 -96 -175 -118 -317 -67 -40 14 -150 64 -243 110 -238 117 -361 154 -513
155 -89 0 -176 62 -176 125 0 25 -34 82 -63 106 -37 31 -97 48 -247 69 -161
23 -620 106 -1095 198 -515 100 -973 166 -1337 192 -139 9 -311 12 -333 5z
m-1746 -1098 c14 -7 26 -17 28 -24 11 -34 -149 -157 -291 -224 -241 -113 -445
-86 -470 63 -6 32 -2 42 25 73 40 45 85 69 184 96 135 37 460 47 524 16z"/>
<path d="M16534 20489 c-37 -11 -87 -55 -82 -72 2 -6 20 -20 39 -30 66 -35
369 -10 369 31 0 36 -130 82 -227 81 -37 0 -82 -5 -99 -10z"/>
<path d="M12686 19439 c-98 -10 -173 -35 -187 -61 -19 -35 56 -92 260 -198
266 -138 307 -180 214 -217 -43 -16 -81 -18 -368 -18 -176 1 -486 3 -690 5
-323 4 -382 3 -463 -13 -157 -29 -222 -75 -222 -155 0 -128 -100 -162 -295
-102 -97 30 -159 38 -169 21 -3 -4 6 -23 19 -41 32 -43 31 -56 -3 -111 -53
-83 -153 -157 -372 -273 -162 -86 -240 -139 -240 -161 0 -22 59 -32 210 -38
147 -6 190 -16 190 -45 0 -23 -55 -75 -160 -154 -41 -30 -88 -70 -104 -87 -41
-43 -26 -55 79 -60 56 -2 85 -7 85 -15 0 -83 -457 -435 -1102 -850 -437 -280
-688 -420 -781 -432 l-47 -7 0 31 c0 39 51 114 230 338 157 195 191 247 174
264 -16 16 -149 -54 -319 -167 -181 -120 -259 -179 -542 -411 -256 -209 -317
-255 -453 -342 -185 -118 -305 -262 -320 -385 -21 -170 -146 -413 -371 -721
-231 -316 -404 -605 -433 -720 -24 -97 -106 -309 -216 -564 -164 -379 -221
-593 -176 -655 13 -18 15 -18 40 -2 63 42 177 248 291 527 326 796 1038 1933
1503 2397 140 141 235 193 345 193 49 0 61 -12 54 -54 -11 -65 -91 -171 -438
-572 -483 -560 -693 -910 -625 -1041 29 -56 133 -69 221 -28 53 25 144 117
183 185 18 30 48 105 67 165 101 314 323 625 558 784 73 49 127 71 182 71 78
0 114 -36 130 -127 9 -57 -8 -105 -52 -144 -48 -41 -87 -57 -175 -69 -109 -16
-146 -30 -195 -74 -49 -46 -60 -83 -48 -162 8 -54 49 -104 87 -104 34 0 115
41 183 93 84 63 242 222 408 411 160 180 255 277 377 380 256 217 567 414 750
476 96 33 382 89 485 96 55 4 101 2 118 -5 85 -33 -35 -121 -346 -251 -91 -38
-200 -86 -243 -108 -339 -170 -772 -566 -1180 -1077 -628 -787 -1144 -1757
-1349 -2539 -68 -256 -129 -636 -107 -658 26 -26 156 297 343 850 102 303 140
382 214 451 69 62 118 77 223 66 201 -22 268 -7 363 82 79 74 128 150 242 379
211 421 399 697 702 1028 166 181 430 410 645 558 344 237 733 414 1083 492
201 45 342 59 552 53 184 -5 250 -13 440 -56 209 -46 443 -52 575 -15 52 14
75 28 117 69 65 62 68 89 19 133 -192 169 -1281 156 -2013 -23 -273 -67 -442
-136 -620 -253 -559 -368 -1482 -1344 -1771 -1873 -54 -97 -78 -170 -87 -255
-11 -108 -43 -167 -107 -200 -53 -27 -149 -13 -196 30 -30 27 -25 66 25 191
114 288 355 703 558 965 109 141 189 254 268 380 118 188 313 380 614 607 233
176 480 335 708 454 177 92 280 133 480 191 254 73 315 109 300 177 -3 16 -41
70 -85 119 -83 96 -100 136 -100 236 0 24 -6 48 -12 53 -7 6 -47 13 -88 16
-87 6 -107 13 -120 37 -23 44 86 119 237 162 73 22 93 23 318 20 261 -3 277
-7 290 -59 10 -42 42 -70 104 -94 110 -41 186 -50 511 -59 469 -13 696 -55
955 -175 118 -55 182 -75 240 -75 68 0 97 23 127 101 49 127 145 209 247 209
78 0 89 -30 45 -118 -32 -64 -157 -199 -224 -242 -130 -84 -296 -96 -550 -40
-269 58 -476 74 -670 49 -107 -13 -229 -53 -272 -89 -33 -28 -33 -28 -14 -49
35 -39 204 -73 541 -111 550 -60 1018 -188 1271 -345 113 -70 202 -109 264
-113 39 -3 59 0 67 9 6 8 15 47 21 88 18 122 65 150 192 112 134 -41 342 -168
635 -387 123 -93 190 -152 292 -260 293 -310 415 -486 415 -600 0 -42 -5 -53
-31 -76 -52 -46 -92 -51 -401 -52 -275 -1 -286 -2 -327 -23 -81 -44 -76 -123
16 -263 60 -91 91 -128 336 -395 335 -365 408 -423 390 -311 -9 51 -62 220
-126 394 -27 74 -49 148 -49 166 0 84 84 183 290 342 119 92 170 145 170 177
0 12 -13 49 -29 82 -64 134 -222 326 -486 591 -374 375 -747 674 -982 787
l-88 42 -200 -1 c-110 0 -235 -6 -278 -12 -64 -10 -84 -9 -112 2 -44 19 -55
42 -55 114 0 122 61 235 155 285 64 35 192 30 315 -12 398 -136 991 -619 1820
-1481 362 -378 644 -656 783 -774 219 -187 347 -265 383 -235 38 31 -10 167
-114 323 -63 95 -153 202 -373 441 -101 111 -191 209 -199 220 -18 23 409
-310 570 -444 535 -445 972 -913 1520 -1626 85 -110 197 -252 249 -315 121
-146 341 -368 405 -409 74 -46 136 -42 136 10 0 77 -142 284 -625 909 -211
273 -270 358 -330 478 -56 112 -75 171 -75 231 0 58 21 81 74 81 99 0 225
-108 394 -340 220 -300 403 -519 617 -739 229 -235 395 -353 395 -280 0 90
-360 625 -706 1049 -151 184 -372 410 -403 410 -57 0 -199 185 -326 426 -124
235 -195 324 -255 324 -38 0 -61 -42 -67 -125 -10 -119 40 -254 143 -389 88
-116 122 -248 74 -291 -19 -17 -22 -17 -64 -1 -135 52 -301 187 -711 581 -342
328 -440 407 -601 481 -128 59 -212 61 -389 9 -114 -33 -208 -37 -255 -9 -34
20 -38 28 -60 124 -38 170 -199 424 -374 590 -335 318 -436 426 -510 549 -44
72 -52 124 -20 129 11 2 47 -11 79 -28 130 -68 299 -205 600 -485 381 -354
500 -423 645 -370 105 38 266 12 355 -57 23 -18 172 -184 331 -368 371 -431
450 -510 510 -510 58 0 66 102 16 201 -194 391 -1397 1601 -2257 2270 -298
232 -477 349 -705 463 -652 324 -1887 654 -2523 673 -203 6 -276 -2 -321 -38
-52 -41 -24 -110 62 -153 130 -65 258 -85 607 -96 188 -6 323 -15 410 -29 461
-70 949 -216 1266 -377 109 -56 198 -116 304 -205 83 -70 202 -126 294 -139
123 -17 308 -127 651 -388 597 -454 1133 -964 1079 -1028 -42 -51 -410 182
-909 576 -480 378 -907 660 -1000 660 -88 0 -255 86 -385 200 -137 120 -445
238 -766 294 -182 32 -556 70 -583 60 -39 -15 9 -39 353 -179 762 -309 1304
-573 1551 -755 119 -88 159 -145 140 -195 -22 -57 -79 -45 -215 46 -277 184
-1076 522 -1784 753 -402 132 -629 171 -698 120 -15 -12 -35 -33 -43 -47 -13
-24 -13 -31 3 -74 32 -82 32 -90 0 -121 -40 -41 -124 -69 -246 -83 -173 -19
-325 12 -399 82 -35 33 -38 40 -38 92 0 95 -27 105 -216 83 -71 -9 -187 -23
-259 -31 -145 -18 -383 -24 -432 -11 -18 4 -33 13 -33 19 0 7 23 27 50 44 62
41 94 98 93 168 0 43 -11 71 -66 175 -105 199 -150 372 -127 484 15 76 36 90
166 120 489 113 1045 178 1514 179 300 1 380 -6 620 -55 119 -24 181 -31 265
-31 176 0 222 25 338 183 18 25 53 56 77 70 40 22 56 25 150 24 111 -1 173
-14 385 -79 272 -84 378 -102 405 -70 34 40 -34 260 -96 315 -115 100 -756
347 -1483 570 -170 52 -182 53 -315 39z m-2241 -2230 c19 -30 -94 -143 -418
-413 -506 -422 -945 -732 -1176 -832 -186 -81 -258 -52 -232 92 20 107 76 174
158 188 106 19 421 206 903 536 364 249 580 380 693 420 62 23 64 23 72 9z"/>
<path d="M14830 18989 c-45 -9 -100 -54 -100 -83 0 -29 48 -81 104 -112 144
-79 413 -125 480 -81 145 96 -251 322 -484 276z"/>
<path d="M15650 18595 c0 -10 35 -52 78 -94 150 -147 426 -346 992 -711 554
-358 1134 -746 1400 -936 129 -92 276 -194 325 -226 89 -58 173 -92 199 -82
51 20 9 164 -122 418 -183 354 -342 556 -438 556 -29 0 -38 -6 -59 -40 -41
-65 -94 -75 -211 -39 -146 44 -349 158 -692 388 -583 391 -1255 758 -1422 778
-44 5 -50 3 -50 -12z"/>
<path d="M14900 18407 c0 -32 162 -158 410 -319 296 -192 858 -525 1085 -644
294 -153 435 -165 452 -36 7 53 -6 69 -132 157 -333 232 -1211 672 -1604 805
-140 47 -211 59 -211 37z"/>
<path d="M14320 18201 c0 -35 160 -163 385 -309 55 -36 268 -166 472 -288 613
-367 1079 -681 1515 -1021 303 -237 411 -338 1114 -1053 186 -190 429 -426
539 -525 287 -258 460 -421 521 -493 44 -51 52 -67 48 -90 -4 -21 5 -41 38
-89 62 -88 195 -237 362 -403 l146 -145 0 76 c0 109 -18 329 -36 439 -26 154
-68 242 -109 226 -35 -13 -135 48 -300 185 -55 46 -278 261 -495 479 -445 447
-558 550 -622 568 -59 16 -156 92 -271 212 -251 261 -507 636 -507 741 0 34 4
39 45 59 34 17 55 20 82 15 105 -19 276 -145 527 -385 49 -47 250 -256 446
-465 375 -398 382 -405 710 -689 140 -122 206 -173 208 -162 2 8 -1 116 -7
238 -11 231 -23 301 -61 363 -29 46 -61 54 -117 26 -85 -41 -154 -18 -197 66
-41 79 -151 208 -336 394 -193 194 -368 343 -565 484 -478 341 -790 505 -959
505 l-65 0 -71 -64 c-131 -118 -297 -179 -349 -127 -23 23 -18 52 19 99 35 43
26 70 -42 137 -93 90 -243 180 -673 402 -556 288 -1071 529 -1254 587 -101 32
-141 34 -141 7z"/>
<path d="M11425 18166 c-183 -30 -465 -126 -490 -166 -24 -40 89 -62 315 -61
299 0 497 66 488 163 -2 27 -10 36 -39 51 -49 23 -174 30 -274 13z"/>
<path d="M9585 18026 c-241 -77 -1250 -745 -1845 -1222 -458 -366 -760 -684
-977 -1027 -77 -122 -274 -519 -406 -817 -126 -284 -152 -352 -188 -482 -37
-139 -55 -173 -136 -261 -86 -93 -141 -179 -218 -341 -156 -324 -260 -705
-318 -1156 -34 -265 -37 -294 -27 -310 13 -20 40 40 315 700 418 1001 584
1375 821 1850 269 537 449 823 718 1140 195 230 690 697 1011 954 187 150 245
190 410 281 521 289 935 587 935 673 0 11 -32 33 -47 31 -4 0 -26 -6 -48 -13z"/>
<path d="M9768 17691 c-126 -49 -292 -214 -359 -356 -36 -76 -38 -119 -5 -140
107 -70 486 288 486 460 0 26 -29 55 -56 55 -10 -1 -40 -9 -66 -19z"/>
<path d="M11392 16560 c-18 -11 -41 -34 -52 -52 -44 -72 -38 -148 17 -209 139
-154 366 49 244 219 -43 60 -145 81 -209 42z"/>
<path d="M13224 15907 c-22 -19 -59 -72 -83 -118 -56 -105 -105 -158 -177
-193 -147 -72 -377 -87 -944 -61 -708 32 -896 12 -1185 -132 -125 -62 -319
-188 -545 -353 -314 -229 -512 -394 -729 -605 -244 -239 -368 -398 -378 -489
-5 -39 -2 -46 20 -61 24 -15 30 -15 79 -1 132 39 328 196 773 620 348 332 509
461 677 547 203 103 364 137 738 159 507 30 840 -42 1330 -291 164 -83 556
-298 603 -331 33 -24 35 -59 6 -107 -19 -31 -23 -33 -59 -28 -44 6 -160 53
-480 194 -410 182 -663 268 -865 294 -187 24 -409 -3 -694 -86 -834 -241
-1538 -868 -1989 -1771 -343 -685 -505 -1494 -452 -2254 25 -350 83 -867 126
-1120 79 -463 172 -711 468 -1255 191 -351 219 -437 177 -543 -12 -29 -21 -57
-21 -62 0 -18 26 -10 50 15 33 35 66 32 153 -13 123 -64 271 -185 483 -397
298 -297 442 -487 478 -632 10 -41 18 -51 51 -68 36 -18 59 -20 215 -19 442 1
1160 188 1362 354 53 44 245 351 353 565 51 99 117 219 148 266 197 305 327
593 327 725 0 49 -4 59 -31 86 -29 29 -33 30 -92 26 -81 -7 -167 -42 -244
-101 -66 -51 -126 -77 -178 -77 -65 0 -193 89 -261 181 -57 77 -44 105 52 117
51 6 61 11 80 40 47 69 44 230 -11 802 -40 422 -57 557 -91 765 -140 838 -403
1438 -814 1856 -214 217 -280 212 -735 -51 -275 -160 -456 -243 -485 -225 -29
18 1 85 103 229 72 101 116 180 155 274 30 75 59 86 302 112 107 11 296 34
419 51 261 37 292 34 385 -32 110 -79 370 -439 487 -674 l61 -122 3 -184 c4
-280 31 -435 72 -427 10 2 47 47 83 101 37 57 77 105 93 113 76 40 144 -41
305 -361 135 -268 246 -436 326 -493 29 -20 38 -22 77 -13 109 25 95 111 -71
449 -252 512 -554 1026 -775 1317 -329 432 -636 661 -960 716 -50 8 -122 9
-250 3 -255 -12 -308 -11 -312 3 -2 6 17 28 44 48 165 122 409 173 782 162
502 -14 861 -140 861 -301 0 -47 -55 -47 -203 0 -91 28 -110 29 -127 9 -28
-34 44 -155 275 -461 138 -182 348 -493 468 -694 262 -439 515 -963 587 -1220
81 -291 228 -1048 281 -1455 26 -200 32 -485 11 -522 -39 -70 -122 41 -200
269 -79 228 -115 440 -132 787 -28 559 -91 720 -285 721 -121 1 -283 153 -382
360 -161 337 -184 378 -224 415 -22 20 -46 34 -52 32 -7 -2 -17 -19 -24 -38
-33 -94 2 -358 101 -771 39 -164 43 -187 56 -383 11 -173 31 -290 71 -420 70
-227 164 -338 216 -258 25 38 23 206 -5 383 -29 192 -33 331 -9 365 20 26 61
13 85 -27 151 -248 319 -1817 282 -2633 -11 -244 -24 -339 -68 -495 -38 -134
-47 -202 -32 -230 15 -29 44 -22 135 34 84 52 99 58 113 44 11 -11 1 -46 -37
-128 -25 -54 -27 -117 -5 -148 21 -31 83 -31 112 1 29 31 57 99 77 187 14 60
19 159 25 490 11 546 37 743 125 925 46 96 107 158 227 228 53 31 109 72 125
92 111 134 102 444 -33 1184 -97 535 -221 1002 -356 1348 -43 110 -66 158
-297 602 -72 140 -193 381 -268 535 -75 155 -167 344 -204 420 -38 77 -67 141
-66 142 6 6 351 -416 405 -493 190 -275 446 -785 658 -1310 153 -380 279 -755
359 -1068 56 -221 72 -320 91 -549 20 -262 47 -369 103 -420 14 -13 29 -17 49
-13 26 5 41 -4 124 -78 105 -93 156 -155 193 -239 50 -112 81 -341 105 -756
35 -603 -100 -1360 -270 -1514 -77 -69 -139 -33 -155 91 -10 70 7 163 65 358
73 244 90 313 90 378 0 64 -10 74 -54 57 -65 -24 -244 -228 -301 -340 -12 -25
-25 -65 -29 -90 -4 -25 -15 -60 -26 -77 -25 -42 -95 -82 -163 -93 -81 -13
-112 -32 -213 -134 -104 -104 -190 -225 -295 -411 -130 -233 -236 -375 -313
-420 -49 -28 -73 -25 -82 12 -9 36 14 137 53 233 76 185 86 221 86 305 0 248
-175 499 -328 471 -103 -20 -210 -215 -175 -320 13 -40 43 -66 76 -66 12 0 46
14 77 30 104 55 167 33 167 -59 0 -63 -22 -90 -128 -159 -130 -86 -190 -67
-208 67 -16 122 -93 102 -284 -76 -95 -88 -148 -127 -230 -168 -336 -170 -844
-138 -1335 83 -60 27 -162 73 -225 102 -154 70 -243 100 -302 100 -43 0 -48
-2 -48 -22 0 -55 114 -180 240 -263 378 -250 1254 -537 1563 -512 81 7 109 23
137 77 43 84 146 130 310 137 222 10 402 -65 473 -196 58 -105 18 -122 -165
-70 -101 28 -122 31 -208 26 -146 -8 -218 -36 -355 -137 -100 -74 -281 -105
-565 -97 -243 7 -403 34 -570 98 -138 53 -203 113 -216 199 -13 88 -47 110
-104 68 -28 -21 -30 -21 -74 -4 -128 49 -349 228 -649 525 -261 257 -436 464
-497 585 -17 33 -30 68 -30 78 0 101 -458 673 -682 852 -88 71 -123 86 -146
62 -50 -50 139 -402 420 -784 595 -806 1556 -1646 2083 -1821 142 -46 243 -56
585 -55 316 0 468 12 720 55 287 49 435 118 613 288 103 99 203 223 369 462
227 325 348 473 414 504 35 17 37 16 57 -4 27 -26 35 -129 17 -210 -33 -153
-190 -445 -364 -676 -225 -301 -483 -552 -641 -626 -122 -58 -199 -71 -440
-76 -239 -6 -782 11 -935 28 -976 107 -1691 580 -2328 1540 -107 162 -170 267
-382 639 -241 422 -284 484 -339 492 -45 6 -60 42 -80 203 -12 91 -30 183 -47
234 -42 127 -172 331 -211 331 -14 0 -15 -11 -9 -77 9 -98 49 -317 82 -448 98
-388 303 -828 577 -1240 620 -932 1559 -1699 2387 -1948 235 -71 420 -97 690
-97 707 0 1248 160 1567 463 96 92 145 155 223 292 83 145 154 238 246 324
104 97 190 139 309 150 123 11 198 45 270 123 56 60 84 125 100 230 13 88 -21
73 -206 -91 -164 -146 -208 -173 -243 -148 -25 18 -35 77 -36 196 0 132 19
179 84 210 53 26 109 26 253 1 124 -22 185 -17 232 17 47 34 61 81 71 225 16
239 75 383 248 607 83 106 88 157 42 363 -33 146 -51 280 -75 551 -28 320 -67
482 -155 647 -172 322 -273 577 -320 808 -24 118 -26 199 -6 247 13 30 20 35
48 35 110 0 200 -178 278 -545 75 -358 148 -576 246 -737 56 -93 144 -144 182
-106 16 16 15 108 -3 190 -7 37 -41 163 -74 280 -81 288 -133 498 -176 713
-78 392 -182 730 -295 960 -102 207 -170 274 -236 230 -29 -19 -54 -71 -54
-113 0 -16 14 -73 30 -127 46 -148 38 -232 -24 -254 -34 -13 -72 7 -124 64
-71 77 -114 168 -193 407 -301 903 -719 1741 -1061 2129 -89 101 -132 134
-230 175 -138 57 -198 137 -206 275 -6 97 16 167 67 218 41 41 114 68 154 57
67 -16 292 -306 516 -664 375 -596 654 -1158 681 -1365 16 -124 64 -231 158
-349 78 -98 264 -240 292 -223 24 15 5 85 -85 315 -287 732 -796 1698 -1092
2071 -117 147 -835 784 -1123 996 -318 234 -477 289 -750 258 -74 -8 -215 -15
-313 -15 l-178 0 -62 -31 c-324 -163 -657 -437 -900 -739 -231 -287 -428 -663
-483 -920 -17 -82 -17 -111 0 -135 13 -18 15 -18 39 -2 38 25 95 113 182 283
88 170 129 240 199 339 320 454 771 734 1391 864 476 100 664 54 956 -232 217
-212 318 -377 263 -431 -57 -57 -242 -4 -489 139 -175 102 -274 149 -376 179
-233 67 -474 61 -716 -19 -230 -76 -441 -219 -599 -403 -149 -174 -325 -480
-359 -624 -16 -69 -17 -76 -1 -105 34 -66 12 -127 -63 -173 -57 -35 -91 -81
-131 -176 -77 -183 -120 -401 -127 -644 -6 -198 4 -273 44 -320 36 -43 75 -41
123 8 58 58 81 132 90 297 9 154 21 217 50 275 55 108 154 105 196 -5 13 -36
16 -63 11 -133 -8 -115 -36 -211 -105 -357 -49 -104 -56 -127 -56 -180 1 -79
27 -130 97 -182 89 -68 118 -163 78 -256 -40 -93 -20 -157 49 -157 39 0 64 23
98 92 62 128 107 303 147 577 40 274 81 440 139 566 44 95 76 130 129 143 87
22 101 75 48 180 -66 131 -24 182 122 148 432 -100 852 -846 987 -1751 46
-305 44 -602 -4 -945 -38 -268 -49 -429 -50 -745 l-1 -290 -27 -46 c-72 -122
-258 -195 -523 -205 -167 -7 -300 10 -438 56 -120 41 -182 77 -273 162 -42 39
-99 81 -127 93 -121 55 -262 56 -424 3 -88 -29 -98 -30 -122 -17 -35 20 -38
69 -11 178 27 104 23 176 -13 254 -42 92 -128 138 -194 104 -44 -23 -91 -81
-103 -127 -55 -204 293 -836 662 -1202 89 -89 207 -180 261 -203 42 -17 113
-20 152 -5 37 14 84 69 91 107 17 90 -174 273 -409 393 -70 36 -117 66 -125
81 -19 36 -11 198 11 233 31 47 62 35 219 -85 155 -119 315 -194 446 -209 80
-9 106 -24 128 -77 20 -46 17 -90 -11 -199 -41 -157 -28 -259 35 -292 40 -21
127 -10 202 25 150 70 291 190 485 411 224 256 379 397 443 404 23 3 25 0 28
-47 15 -230 -223 -791 -417 -986 -72 -71 -92 -76 -242 -55 -217 31 -314 31
-524 1 -333 -48 -468 -23 -663 125 -150 113 -298 281 -598 680 -157 209 -228
322 -239 377 -19 103 -299 718 -412 906 -142 236 -252 669 -310 1222 -22 215
-26 966 -5 1165 53 504 138 813 333 1203 311 619 782 1124 1347 1441 420 236
906 348 1327 307 156 -15 218 -32 345 -92 495 -236 1179 -986 1649 -1811 94
-166 386 -761 541 -1103 403 -889 753 -1792 866 -2232 19 -74 41 -195 50 -270
26 -227 88 -394 190 -513 84 -98 144 -245 213 -517 89 -356 136 -745 128
-1068 -7 -296 -31 -355 -146 -355 -63 0 -91 15 -91 50 0 10 11 70 25 134 37
172 32 268 -19 315 -49 46 -116 24 -160 -51 -50 -87 -57 -135 -66 -425 -10
-286 -34 -602 -75 -962 -29 -247 -33 -443 -11 -496 13 -29 20 -35 47 -35 17 0
53 12 80 27 58 33 77 27 97 -33 18 -50 11 -179 -28 -504 -67 -560 -172 -964
-336 -1293 -67 -134 -136 -228 -226 -309 -91 -81 -108 -109 -108 -172 0 -56
14 -93 48 -129 63 -67 149 -84 243 -47 28 12 54 18 57 16 9 -10 -77 -114 -217
-263 -346 -369 -769 -711 -884 -717 -26 -1 -33 3 -35 21 -7 50 86 157 296 341
222 194 391 397 422 507 15 55 8 75 -25 75 -69 0 -185 -89 -430 -330 -110
-109 -233 -222 -273 -253 -177 -136 -296 -151 -342 -44 -20 48 -34 156 -22
174 4 7 71 31 147 53 217 64 359 140 428 228 37 48 42 76 29 140 -42 198 -233
203 -559 16 -302 -174 -473 -349 -473 -483 1 -110 99 -221 264 -301 118 -56
170 -70 263 -70 93 0 141 -15 149 -44 6 -27 -20 -86 -72 -159 -19 -26 -34 -50
-34 -54 0 -4 -22 -39 -49 -78 -56 -81 -71 -122 -48 -131 21 -8 155 39 274 98
383 186 1164 739 1471 1040 130 128 136 140 129 246 -9 140 -50 232 -120 268
-27 15 -39 15 -95 4 -44 -9 -67 -9 -74 -2 -15 15 5 69 54 144 73 112 136 268
207 515 150 518 278 1209 297 1593 7 155 -9 445 -32 571 -20 110 -42 149 -85
149 -42 0 -106 37 -130 76 -10 17 -22 51 -25 75 -5 36 -1 51 18 79 36 53 81
72 153 65 142 -15 165 -3 220 108 76 156 99 322 99 697 0 375 -31 652 -109
969 -85 347 -197 565 -342 670 -77 55 -123 119 -123 171 0 71 59 89 160 47 82
-34 145 -80 240 -177 227 -230 301 -522 340 -1330 5 -121 15 -214 24 -246 21
-68 69 -132 113 -151 33 -13 38 -13 62 5 48 35 56 78 55 292 -1 355 -81 799
-196 1087 -89 223 -205 382 -406 552 -244 207 -398 427 -422 603 -5 40 -16
127 -25 193 -22 164 -69 402 -106 532 -26 92 -69 183 -284 603 -286 558 -394
784 -470 980 -75 194 -90 255 -90 386 0 110 0 111 42 196 50 100 110 168 149
168 44 0 90 -37 150 -118 110 -151 228 -374 329 -622 70 -173 157 -449 163
-519 5 -61 4 -63 -16 -52 -46 24 -175 197 -356 476 -161 247 -276 398 -292
382 -13 -12 59 -327 107 -474 93 -278 224 -515 368 -666 85 -89 103 -121 200
-343 125 -289 239 -618 266 -769 29 -160 45 -219 81 -291 67 -136 202 -276
319 -330 62 -29 79 -30 106 -3 58 58 -38 266 -155 338 -19 12 -39 35 -46 51
-18 43 -8 135 26 254 l28 100 -21 81 c-12 45 -86 256 -166 471 -178 478 -181
489 -422 1288 -148 490 -204 664 -232 714 -91 163 -307 435 -564 712 -303 326
-504 574 -549 675 -12 28 -27 61 -34 75 -25 52 -139 90 -274 90 -121 0 -190
58 -152 129 18 34 -8 89 -77 162 -81 86 -170 153 -342 258 -157 97 -228 149
-294 220 -217 232 12 323 392 156 179 -79 291 -164 531 -405 396 -395 882
-1005 1253 -1570 246 -375 369 -609 447 -850 74 -225 161 -400 240 -478 35
-35 70 -81 85 -114 53 -116 88 -302 105 -563 17 -257 48 -408 108 -519 20 -37
37 -53 72 -70 58 -27 91 -92 121 -236 26 -130 37 -336 20 -369 -18 -33 -15
-124 8 -230 21 -97 153 -596 273 -1031 121 -443 211 -690 252 -690 54 0 69
283 30 590 -27 210 -67 379 -143 600 -49 143 -71 249 -71 338 0 218 151 65
264 -268 53 -159 263 -981 286 -1121 25 -160 54 -421 80 -729 26 -304 35 -386
61 -525 44 -238 119 -441 180 -487 80 -60 100 -96 130 -243 17 -81 23 -495 10
-681 -32 -459 -111 -941 -221 -1339 -17 -60 -73 -236 -124 -390 -51 -154 -93
-281 -92 -282 6 -7 365 404 401 458 155 232 212 572 235 1399 6 206 20 713 31
1125 20 724 23 1245 6 1261 -4 5 -12 2 -17 -6 -12 -20 -45 -202 -79 -435 -51
-351 -122 -625 -164 -633 -56 -11 -115 327 -193 1113 -21 213 -24 505 -6 557
14 40 34 53 62 38 33 -18 104 -106 175 -216 94 -147 155 -232 172 -239 52 -19
49 21 -46 695 -57 398 -66 486 -52 494 14 9 43 -44 121 -225 123 -285 226
-444 337 -521 50 -34 66 -37 195 -27 56 5 91 -17 122 -77 17 -31 21 -57 21
-134 0 -87 -3 -100 -30 -149 -34 -62 -81 -97 -148 -110 -60 -11 -71 -21 -106
-95 -48 -101 -82 -266 -111 -531 -18 -161 -24 -736 -11 -943 34 -541 107 -818
227 -862 74 -27 47 -35 -97 -31 -119 3 -141 1 -181 -17 -65 -28 -88 -55 -88
-99 0 -78 62 -137 158 -149 35 -4 63 -15 82 -31 61 -51 100 -177 100 -323 0
-75 -15 -140 -33 -140 -17 0 -91 78 -169 180 -36 47 -75 94 -87 104 -21 19
-21 19 -21 -6 0 -14 15 -72 34 -129 44 -136 51 -202 32 -310 -33 -184 -125
-385 -303 -659 -201 -311 -246 -405 -247 -516 -1 -87 9 -101 105 -149 36 -18
71 -40 78 -49 25 -30 4 -65 -61 -104 -152 -91 -222 -197 -237 -357 -9 -106
-32 -157 -91 -207 -50 -44 -98 -58 -191 -58 -97 0 -142 14 -174 52 -21 25 -25
37 -19 62 18 83 90 169 282 339 133 117 172 165 172 214 0 59 -30 103 -165
243 -72 74 -145 154 -163 177 -109 140 -102 251 36 569 38 87 85 209 105 269
208 631 317 1816 181 1966 -9 10 -25 19 -35 19 -53 0 -148 -202 -200 -429 -17
-70 -22 -146 -29 -406 -22 -753 -61 -945 -350 -1680 -274 -699 -335 -875 -302
-875 13 0 65 59 147 170 97 129 188 220 257 254 63 32 101 33 129 5 19 -19 21
-30 17 -94 -7 -109 -57 -202 -247 -458 -184 -248 -293 -410 -346 -516 -83
-166 -51 -201 120 -128 83 34 191 67 226 67 39 0 76 -19 82 -41 15 -55 -49
-181 -189 -371 -175 -238 -205 -281 -200 -286 9 -9 132 86 331 256 503 429
1254 1236 1644 1766 161 219 271 408 271 468 0 64 -107 84 -179 34 -54 -38
-86 -87 -132 -205 -75 -194 -133 -288 -250 -403 -56 -54 -100 -87 -151 -112
-71 -35 -164 -60 -181 -49 -15 9 1 78 38 158 80 177 252 438 439 670 259 320
268 342 232 570 -22 139 -32 330 -18 339 7 4 33 0 60 -7 66 -20 98 -12 148 39
143 143 269 621 379 1444 26 194 24 258 -15 607 -127 1131 -560 2519 -746
2395 -66 -43 -86 -303 -45 -590 12 -84 21 -165 19 -180 l-3 -27 -18 32 c-9 18
-44 111 -76 206 -95 281 -128 332 -350 550 -183 179 -180 171 -191 517 -10
302 -34 452 -116 713 -33 103 -139 374 -191 487 -38 81 -123 362 -157 517 -18
81 -21 163 -6 163 30 0 137 -192 301 -545 265 -569 659 -1230 791 -1328 16
-12 33 -17 44 -13 69 26 -144 583 -480 1255 -323 645 -697 1243 -930 1489 -80
84 -120 110 -142 91 -20 -17 -18 -43 18 -165 39 -136 40 -208 4 -314 -50 -143
-44 -242 25 -431 43 -118 47 -144 23 -178 -12 -17 -15 -36 -11 -70 8 -68 97
-333 197 -591 103 -264 143 -388 198 -605 167 -655 270 -1506 212 -1726 -43
-159 -163 36 -209 341 -6 36 -17 139 -26 230 -53 557 -223 1272 -450 1896 -86
233 -148 380 -255 594 -98 196 -134 288 -151 385 -17 99 -2 145 71 220 70 71
105 142 120 242 29 183 -47 447 -187 654 -51 74 -214 268 -272 323 -30 28 -31
29 -31 8 0 -12 41 -136 91 -275 167 -465 204 -635 151 -679 -10 -9 -52 -13
-129 -13 l-114 0 -36 -39 -36 -38 5 -97 c8 -146 55 -282 255 -735 127 -288
180 -432 189 -511 6 -47 4 -55 -15 -67 -11 -7 -21 -22 -21 -34 0 -60 92 -263
174 -382 31 -46 69 -109 85 -140 125 -247 147 -666 40 -756 -38 -32 -66 -33
-109 -3 -45 30 -68 79 -84 178 -36 218 -220 851 -445 1529 -194 585 -329 926
-491 1249 -210 417 -389 662 -804 1101 -431 456 -527 577 -561 707 -16 60 -12
97 16 158 27 59 114 160 167 195 138 91 250 57 471 -142 73 -67 103 -81 127
-63 16 11 20 29 22 115 4 96 3 103 -23 143 -142 213 -667 546 -867 550 -33 1
-53 -5 -67 -18 -57 -51 -289 34 -581 212 -189 116 -276 156 -346 161 -59 4
-63 3 -100 -31z m351 -311 c41 -20 84 -54 135 -107 94 -98 142 -121 262 -127
69 -4 107 0 180 19 167 42 316 28 384 -36 30 -28 34 -38 34 -81 0 -50 -26
-120 -51 -140 -8 -6 -45 -19 -84 -28 -38 -10 -111 -33 -161 -52 -54 -20 -110
-34 -135 -34 -78 0 -187 64 -429 248 -259 198 -349 297 -326 358 10 26 118 15
191 -20z m18 -1311 c75 -35 224 -151 388 -300 216 -196 383 -400 469 -572 64
-129 72 -194 40 -335 -11 -51 -11 -60 5 -84 16 -24 21 -26 69 -21 28 3 98 23
156 45 58 22 124 43 148 47 38 6 42 5 42 -14 0 -12 -25 -49 -58 -84 -66 -71
-159 -185 -222 -272 -24 -33 -51 -65 -59 -72 -28 -22 -60 -14 -102 24 -45 41
-51 51 -125 210 -98 213 -284 505 -534 843 -168 226 -237 331 -290 440 -37 78
-51 146 -33 163 13 14 55 6 106 -18z m5337 -6577 c0 -7 -8 -25 -18 -39 -63
-94 -62 -91 -62 -174 0 -101 26 -217 84 -375 68 -187 87 -276 93 -425 5 -134
3 -143 -42 -265 -44 -118 -71 -401 -44 -453 16 -29 24 -235 10 -269 -15 -38
-33 -35 -74 12 -49 57 -84 128 -170 340 -41 102 -107 258 -146 346 -73 165
-87 226 -55 238 9 3 46 -7 84 -24 82 -36 130 -38 190 -7 107 53 130 190 48
283 -17 20 -56 51 -86 70 -135 87 -205 195 -204 317 0 59 5 80 36 143 20 40
60 98 88 129 52 57 154 136 199 154 34 14 69 13 69 -1z"/>
<path d="M7992 14843 c-76 -37 -180 -180 -303 -415 -160 -305 -251 -379 -370
-298 -32 21 -56 30 -88 30 -176 1 -508 -386 -622 -725 -30 -90 -33 -227 -6
-268 54 -83 144 14 273 297 96 208 183 353 264 438 65 67 66 68 118 68 43 0
58 -5 77 -25 58 -57 19 -187 -199 -668 -133 -294 -199 -505 -243 -772 -36
-225 -16 -718 33 -792 18 -28 28 -29 54 -3 70 70 141 330 185 677 38 304 85
512 185 813 76 230 151 412 260 635 119 243 206 378 330 510 51 55 112 129
136 165 73 110 102 220 71 279 -28 55 -101 80 -155 54z"/>
<path d="M16050 14534 c0 -54 89 -204 250 -419 123 -166 264 -335 505 -605
105 -118 225 -255 266 -305 302 -363 621 -808 828 -1154 253 -422 687 -1445
981 -2306 148 -436 199 -632 250 -965 57 -364 241 -1192 351 -1575 65 -227
138 -355 203 -355 60 0 86 89 86 289 0 316 -39 481 -408 1746 -105 358 -213
733 -241 835 -167 612 -275 1144 -241 1185 19 23 39 18 72 -17 43 -46 83 -130
150 -318 135 -373 254 -638 350 -778 92 -132 166 -178 276 -169 42 3 70 11 81
22 15 16 13 19 -28 53 -25 21 -70 62 -100 93 -102 102 -240 377 -360 719 -151
430 -252 652 -334 738 -29 30 -36 33 -71 27 -50 -7 -103 18 -179 86 -91 81
-159 172 -398 534 -124 187 -293 437 -376 556 -179 256 -236 346 -297 467 -48
96 -72 172 -62 197 5 15 9 14 37 -2 129 -76 779 -868 1360 -1658 383 -521 582
-818 680 -1018 55 -113 94 -160 154 -188 55 -26 131 -25 145 0 40 75 -24 256
-207 582 -157 281 -230 397 -330 524 -44 58 -126 180 -181 272 -165 276 -279
409 -369 428 -71 15 -259 246 -443 544 -262 423 -416 617 -530 665 -30 12 -39
12 -73 -1 -72 -29 -110 16 -127 152 -17 131 -79 257 -184 371 -98 109 -238
194 -288 178 -47 -15 -46 -109 2 -204 31 -62 79 -115 144 -159 78 -54 151
-176 156 -261 4 -70 -1 -73 -64 -39 -117 63 -368 289 -638 577 -482 512 -798
772 -798 656z"/>
<path d="M15824 14065 c-93 -143 -73 -728 35 -993 70 -174 196 -294 279 -268
11 4 28 23 39 44 25 51 25 291 -1 447 -66 399 -222 795 -314 795 -12 0 -29
-11 -38 -25z"/>
<path d="M9019 13694 c-96 -50 -376 -640 -597 -1256 -124 -343 -185 -565 -202
-733 -12 -117 -29 -151 -90 -183 -40 -21 -55 -23 -130 -18 -47 3 -108 8 -137
12 -207 26 -296 -222 -459 -1292 -45 -295 -47 -314 -35 -381 16 -93 55 -143
111 -143 31 0 44 6 68 34 66 75 92 205 92 456 0 331 62 597 175 755 81 114
144 147 279 146 126 -1 186 -20 186 -61 0 -21 -61 -77 -104 -95 -68 -29 -133
-134 -192 -309 -55 -165 -84 -313 -90 -456 -5 -108 -3 -130 13 -159 29 -56 62
-73 152 -81 111 -10 131 -30 181 -185 12 -38 78 -211 147 -383 175 -439 193
-528 120 -572 -39 -24 -122 -27 -172 -5 -53 21 -60 52 -39 157 16 81 16 88 0
112 -14 22 -24 26 -67 26 -50 0 -50 0 -71 -47 -16 -37 -20 -67 -20 -147 1
-225 80 -484 179 -583 93 -93 184 -60 300 110 30 43 36 47 73 47 51 0 126 -37
206 -102 119 -96 200 -205 335 -453 401 -737 640 -1062 955 -1298 216 -162
499 -279 813 -337 119 -22 152 -32 643 -200 394 -134 506 -153 623 -101 94 42
293 198 321 253 13 25 13 29 -1 33 -8 3 -22 7 -31 10 -55 18 78 234 336 546
170 205 243 319 256 397 6 36 3 43 -31 81 -30 33 -44 41 -71 41 -50 0 -98 -48
-245 -246 -70 -94 -159 -208 -199 -253 -143 -161 -322 -278 -495 -321 -91 -23
-101 -24 -650 -16 -434 5 -497 13 -648 84 -158 74 -254 150 -517 407 -381 373
-517 524 -715 790 -538 725 -880 1579 -971 2426 -8 79 -19 286 -24 459 -5 173
-11 324 -14 335 -3 11 -13 52 -22 90 -19 82 -68 181 -98 198 -12 6 -43 16 -71
22 -85 17 -71 62 48 151 80 60 175 152 192 185 13 23 12 31 -6 65 -19 36 -20
52 -16 189 9 277 112 737 234 1045 60 152 94 211 173 296 82 88 136 169 161
239 21 61 25 132 8 168 -21 47 -105 76 -150 51z m-767 -3062 c20 -50 23 -75
23 -207 0 -134 -2 -155 -22 -197 -12 -27 -26 -48 -31 -48 -32 0 -55 151 -50
338 5 207 29 241 80 114z"/>
<path d="M5278 13448 c-65 -71 -215 -303 -273 -422 -128 -265 -112 -359 45
-275 57 30 161 126 201 185 36 53 96 178 115 239 21 70 23 221 4 279 -16 49
-42 47 -92 -6z"/>
<path d="M8123 13014 c-18 -19 -64 -99 -102 -177 -205 -418 -343 -899 -288
-1007 30 -59 91 -24 172 100 61 93 99 172 170 354 200 512 232 735 107 759
-21 4 -33 -2 -59 -29z"/>
<path d="M6342 12867 c-18 -5 -46 -26 -63 -45 -30 -33 -30 -37 -22 -96 4 -33
8 -115 8 -181 0 -140 -16 -199 -71 -263 -54 -64 -120 -91 -251 -102 -198 -18
-208 -38 -68 -130 110 -72 166 -149 220 -300 57 -159 87 -332 110 -620 29
-363 67 -615 125 -835 35 -132 44 -155 116 -287 64 -119 110 -174 131 -157 29
24 14 200 -42 519 -36 198 -43 409 -21 597 20 174 43 264 100 408 97 241 70
314 -177 474 l-114 75 19 85 c34 152 98 402 138 540 22 74 40 152 40 175 0
129 -64 180 -178 143z"/>
<path d="M5915 12781 c-42 -26 -71 -60 -90 -103 -32 -78 -11 -154 67 -242 110
-126 169 -88 176 114 5 123 -8 181 -48 222 -33 33 -63 35 -105 9z"/>
<path d="M4479 12625 c-101 -37 -195 -117 -239 -205 -71 -141 -58 -300 25
-300 73 0 218 113 326 253 119 153 144 226 89 254 -32 16 -155 15 -201 -2z"/>
<path d="M4910 12163 c-121 -191 -156 -593 -105 -1203 23 -272 55 -450 80
-450 24 0 55 157 80 410 73 752 69 1290 -10 1290 -8 0 -29 -21 -45 -47z"/>
<path d="M9537 12179 c-62 -48 -141 -292 -152 -471 -4 -51 -14 -127 -23 -168
-24 -107 -23 -579 1 -810 47 -434 125 -805 203 -961 24 -47 75 -99 99 -99 7 0
27 -16 44 -35 37 -42 41 -93 14 -168 -16 -43 -16 -51 -3 -75 27 -49 82 -67
195 -66 115 2 171 19 180 57 8 31 -21 105 -75 192 -117 188 -142 233 -169 304
-56 146 -89 300 -117 548 -11 99 -18 313 -24 753 -8 602 -13 689 -46 838 -20
92 -38 135 -66 162 -27 25 -29 25 -61 -1z"/>
<path d="M5358 12083 c-48 -53 -71 -181 -69 -386 1 -284 40 -557 79 -557 31 0
74 94 98 215 24 117 27 515 5 613 -24 107 -74 158 -113 115z"/>
<path d="M11325 11712 c-72 -44 -139 -144 -239 -354 -116 -243 -156 -372 -157
-502 0 -65 4 -88 26 -132 28 -58 61 -85 173 -144 81 -43 112 -79 112 -131 0
-47 -39 -148 -76 -196 -29 -39 -20 -38 -171 -9 -170 32 -297 -20 -353 -147
-32 -71 -35 -138 -15 -309 23 -202 15 -250 -54 -317 -66 -64 -90 -102 -118
-184 -17 -50 -26 -103 -30 -172 -11 -214 62 -364 211 -430 90 -41 107 -40 137
3 28 40 81 72 121 72 57 0 130 -50 247 -167 140 -139 155 -151 177 -132 15 12
16 30 10 132 -15 259 -46 318 -211 397 -119 57 -212 135 -251 211 -48 96 -27
141 76 163 74 16 262 -60 388 -157 84 -65 185 -176 215 -237 33 -67 34 -110 2
-178 -26 -55 -31 -87 -17 -96 20 -12 93 38 162 110 227 238 398 633 439 1016
50 458 -59 905 -342 1398 -30 52 -88 153 -128 223 -143 251 -238 327 -334 269z
m152 -319 c86 -95 168 -445 242 -1028 58 -458 62 -600 22 -688 -42 -95 -113
-120 -341 -121 -89 -1 -177 4 -206 11 -142 34 -267 105 -314 180 -72 113 -6
179 156 153 56 -9 74 -17 112 -50 73 -65 141 -93 210 -88 68 5 97 23 140 89
58 88 92 257 92 454 -1 198 -29 326 -83 371 -28 24 -37 26 -87 21 -30 -3 -84
-18 -120 -32 -80 -34 -136 -37 -156 -10 -30 41 -13 163 57 402 37 126 108 295
141 333 25 30 62 50 83 44 11 -3 34 -21 52 -41z"/>
<path d="M4317 11582 c-49 -54 -94 -318 -128 -745 -19 -249 -5 -307 85 -348
73 -33 96 -21 120 62 58 193 98 812 61 937 -29 96 -95 141 -138 94z"/>
<path d="M6855 11506 c-32 -77 -40 -185 -39 -586 1 -386 10 -582 50 -1050 33
-393 80 -774 114 -933 16 -74 24 -92 53 -120 41 -38 80 -149 103 -296 42 -264
81 -414 215 -824 72 -218 96 -280 112 -289 12 -7 66 -14 119 -16 92 -4 98 -3
122 21 35 35 49 94 36 153 -6 26 -43 129 -81 228 -238 608 -420 1294 -508
1911 -36 246 -54 428 -76 730 -38 526 -98 930 -159 1054 -27 57 -43 62 -61 17z"/>
<path d="M5699 11461 c-23 -19 -24 -24 -23 -148 0 -144 23 -270 81 -463 60
-199 97 -280 129 -280 29 0 64 156 64 285 0 229 -85 527 -171 599 -37 31 -49
32 -80 7z"/>
<path d="M7220 11207 c-43 -15 -64 -53 -55 -100 9 -44 98 -163 151 -200 50
-35 75 -30 99 18 56 120 8 254 -103 285 -45 12 -48 12 -92 -3z"/>
<path d="M10004 11036 c-72 -32 -114 -116 -114 -224 0 -43 5 -60 26 -84 65
-78 100 -188 139 -433 40 -257 56 -331 76 -364 18 -30 21 -31 92 -31 88 0 133
21 164 76 56 99 56 355 2 669 -32 184 -61 266 -109 309 -85 77 -208 113 -276
82z"/>
<path d="M5402 10713 c-39 -100 -55 -392 -49 -888 5 -400 11 -471 47 -592 15
-49 44 -85 64 -77 25 10 66 102 86 191 29 135 40 274 40 512 0 397 -49 732
-123 842 -29 44 -51 48 -65 12z"/>
<path d="M4870 10248 c-95 -63 -116 -231 -79 -633 18 -194 60 -415 79 -415 16
0 41 46 56 102 21 79 92 469 105 578 19 161 0 297 -49 350 -38 41 -70 46 -112
18z"/>
<path d="M6217 9947 c-35 -27 -47 -160 -27 -302 12 -81 34 -123 55 -105 8 7
24 37 36 68 31 78 33 238 5 295 -22 46 -47 61 -69 44z"/>
<path d="M7537 9503 c-25 -29 -38 -99 -38 -204 1 -104 13 -151 50 -188 28 -28
77 -27 121 4 85 59 111 178 58 265 -70 115 -151 167 -191 123z"/>
<path d="M6595 9446 c-54 -128 -105 -547 -105 -856 0 -186 13 -292 52 -409 75
-225 186 -294 253 -157 54 111 53 273 -5 546 -42 193 -84 423 -110 600 -12 80
-27 181 -33 224 -14 90 -30 106 -52 52z"/>
<path d="M5889 9373 c-16 -50 -7 -190 31 -443 17 -113 46 -337 65 -499 67
-568 129 -834 150 -648 8 79 30 821 29 992 -3 295 -71 528 -176 609 -19 14
-46 26 -61 26 -21 0 -28 -7 -38 -37z"/>
<path d="M19563 9173 c-29 -43 -30 -235 -4 -418 67 -458 279 -1260 410 -1548
51 -113 57 -104 72 107 19 258 -5 722 -52 994 -42 251 -132 549 -220 730 -39
81 -58 108 -91 132 -52 38 -91 39 -115 3z"/>
<path d="M7629 8833 c-20 -23 -15 -103 11 -200 23 -84 117 -290 190 -412 43
-72 115 -161 130 -161 5 0 14 18 20 41 36 132 -117 558 -253 706 -42 46 -75
55 -98 26z"/>
<path d="M5485 8666 c-72 -109 -4 -664 160 -1309 120 -476 245 -807 364 -963
47 -61 64 -72 86 -54 16 13 17 30 12 145 -19 470 -400 1955 -558 2176 -25 35
-43 37 -64 5z"/>
<path d="M14308 8281 c-69 -8 -94 -28 -141 -120 -122 -234 -213 -755 -187
-1074 17 -199 65 -287 161 -287 73 0 154 65 197 158 23 51 24 62 18 152 l-7
98 46 88 c25 48 83 146 127 218 212 339 269 459 276 576 3 66 1 79 -20 110
-13 20 -45 46 -73 60 -46 23 -62 25 -195 26 -80 1 -171 -1 -202 -5z"/>
<path d="M6770 7836 c0 -22 -134 -585 -145 -613 -8 -18 -21 -33 -29 -33 -8 0
-46 46 -85 103 -38 56 -86 121 -106 145 -70 80 -85 54 -85 -146 0 -209 36
-398 92 -483 27 -39 98 -79 143 -79 38 0 123 40 152 71 28 31 53 90 53 126 0
15 -11 52 -25 81 -14 30 -25 72 -25 95 0 109 111 213 194 181 33 -12 57 -73
72 -175 27 -198 114 -282 239 -234 119 45 96 185 -82 511 -57 105 -90 150
-206 282 -164 186 -157 178 -157 168z"/>
<path d="M8012 7658 c-18 -18 -14 -115 7 -201 38 -146 73 -219 176 -360 45
-63 83 -185 100 -324 17 -134 56 -245 158 -448 125 -252 290 -521 425 -695
179 -230 440 -455 575 -495 30 -9 75 -36 116 -69 121 -99 159 -105 122 -21
-41 92 -162 247 -307 392 -140 139 -260 347 -514 893 -89 190 -199 417 -244
505 -277 532 -545 892 -614 823z"/>
<path d="M17031 7616 c-43 -46 -63 -121 -72 -276 -15 -257 -72 -360 -217 -390
-40 -9 -59 -20 -88 -52 -193 -214 -284 -1041 -135 -1219 35 -41 96 -61 136
-45 59 24 68 58 77 275 11 294 42 432 116 513 49 54 71 49 96 -22 17 -47 20
-83 20 -255 0 -110 -6 -258 -13 -330 -29 -314 -98 -764 -157 -1018 -47 -203
-42 -300 16 -359 58 -58 132 -28 182 74 37 76 56 188 63 378 7 208 29 450 60
655 57 379 80 785 72 1280 -6 363 -17 524 -47 673 -28 138 -59 172 -109 118z"/>
<path d="M7667 7202 c-43 -48 -30 -173 43 -392 66 -199 133 -353 276 -640 200
-399 378 -700 689 -1160 254 -375 385 -601 451 -778 35 -92 32 -122 -16 -166
-22 -20 -43 -36 -48 -36 -37 0 -114 82 -245 259 -319 432 -693 978 -854 1246
-201 335 -299 535 -380 770 -71 208 -153 344 -229 380 -31 15 -45 16 -92 6
-111 -22 -123 -51 -76 -189 125 -374 575 -1183 851 -1529 100 -127 199 -273
235 -348 32 -68 34 -83 13 -91 -57 -22 38 -144 314 -401 261 -244 357 -363
376 -464 9 -49 -10 -84 -78 -142 -30 -25 -60 -60 -67 -77 -28 -67 23 -145 163
-253 155 -120 201 -135 234 -74 16 28 18 62 18 307 0 178 -5 309 -14 371 -20
141 3 165 123 134 119 -31 219 -93 533 -331 355 -268 766 -504 1027 -589 177
-57 293 -77 426 -73 94 2 121 7 150 23 76 45 43 109 -110 215 -50 34 -94 69
-97 77 -19 48 56 71 238 72 219 2 334 -35 405 -131 50 -67 97 -99 209 -143
175 -68 356 -104 570 -112 201 -8 307 16 333 72 23 50 -19 100 -114 139 -110
45 -209 58 -499 65 -148 3 -276 10 -282 14 -38 24 -9 48 191 155 238 126 220
135 -299 152 -591 19 -697 39 -725 138 -18 68 -13 101 23 137 51 51 98 60 287
57 223 -4 261 13 195 87 -58 64 -196 125 -339 150 -89 16 -254 14 -315 -5 -79
-23 -109 -56 -119 -131 -5 -33 -16 -73 -26 -88 -78 -119 -349 -37 -698 214
-171 122 -244 167 -349 213 -113 50 -206 68 -252 49 -101 -43 -245 -3 -420
116 -154 106 -245 214 -273 323 -27 111 -118 266 -335 572 -249 351 -334 496
-398 680 -86 252 -279 681 -424 941 -117 212 -158 255 -200 209z m2356 -3201
c755 -317 1058 -480 1124 -605 18 -35 12 -64 -31 -130 -91 -140 -154 -145
-249 -19 -101 134 -139 163 -212 163 -20 0 -50 -7 -67 -16 -38 -20 -82 -10
-168 38 -168 93 -449 359 -591 562 -51 72 -59 96 -34 96 9 0 111 -40 228 -89z"/>
<path d="M15425 6669 c-139 -128 -286 -532 -372 -1018 -23 -133 -28 -184 -28
-346 l0 -190 34 -63 c34 -64 35 -92 4 -92 -22 0 -133 47 -308 128 -203 95
-273 116 -386 116 -86 1 -99 -1 -132 -24 -65 -44 -80 -87 -96 -260 -10 -117
-34 -173 -125 -285 -138 -173 -401 -355 -633 -438 -40 -15 -157 -42 -260 -62
-103 -20 -202 -40 -219 -46 -96 -30 -151 -184 -133 -373 20 -205 109 -326 240
-326 71 0 144 -42 174 -100 7 -14 15 -50 19 -80 4 -30 16 -74 26 -97 15 -34
24 -43 44 -43 39 0 49 55 43 240 -4 131 -9 168 -30 235 -45 137 -81 180 -168
199 -71 15 -54 143 32 241 23 26 39 35 63 35 43 0 67 -19 130 -104 69 -93 104
-118 171 -124 98 -8 179 38 346 195 132 125 200 175 309 229 101 51 177 67
241 52 58 -13 166 -5 206 16 53 27 100 74 138 137 41 66 68 89 105 89 31 -1
44 -11 94 -73 28 -34 45 -47 60 -45 60 9 153 298 225 698 28 154 45 268 151
1025 22 160 49 328 60 375 55 233 52 250 -25 179z m-749 -1714 c45 -48 53
-103 27 -188 -36 -117 -145 -246 -255 -303 -59 -30 -82 -30 -102 -2 -35 50 -7
168 80 340 93 182 175 232 250 153z"/>
<path d="M19571 6606 c-29 -31 -65 -145 -87 -281 -16 -92 -19 -169 -19 -465 0
-360 5 -432 30 -466 14 -19 14 -19 34 1 59 60 144 577 158 966 7 185 4 204
-31 242 -31 33 -56 34 -85 3z"/>
<path d="M6614 6490 c-31 -12 -54 -49 -54 -85 0 -140 194 -477 603 -1050 362
-505 980 -1316 1101 -1442 136 -143 246 -206 254 -147 5 35 -102 232 -239 440
-261 394 -509 718 -710 926 -90 92 -144 174 -280 427 l-78 146 -30 163 c-33
178 -52 230 -129 343 -135 201 -328 324 -438 279z"/>
<path d="M6200 6061 c-57 -30 -93 -91 -98 -165 -3 -44 1 -72 11 -93 29 -55 98
-134 132 -150 31 -15 36 -15 59 0 35 24 50 84 51 207 0 89 -3 112 -23 151 -20
42 -54 69 -85 69 -7 0 -28 -8 -47 -19z"/>
<path d="M6630 5638 c-59 -31 -51 -107 20 -202 55 -71 111 -116 148 -116 37 0
65 74 60 161 -4 73 -20 104 -71 143 -33 24 -122 32 -157 14z"/>
<path d="M16433 5322 c-37 -29 -92 -132 -123 -229 -48 -148 -70 -296 -80 -528
-11 -276 -40 -379 -141 -505 -50 -62 -62 -111 -62 -255 1 -291 96 -618 212
-735 100 -100 230 -81 290 43 46 94 16 172 -92 244 -149 98 -197 173 -197 306
0 87 19 161 80 307 141 340 212 692 214 1060 1 209 -6 261 -41 295 -19 19 -33
19 -60 -3z"/>
<path d="M19331 5100 c-100 -73 -471 -650 -471 -733 0 -35 33 -67 68 -67 77 0
222 118 280 228 34 66 164 430 182 514 13 55 9 88 -8 88 -5 0 -28 -14 -51 -30z"/>
<path d="M6534 5056 c-17 -8 -41 -27 -53 -42 -55 -69 0 -218 139 -380 22 -25
41 -63 49 -94 15 -60 144 -317 251 -500 102 -176 269 -427 321 -481 l44 -47
119 -12 c218 -23 232 -5 135 178 -183 346 -613 1058 -777 1285 -31 43 -69 85
-84 93 -34 18 -103 17 -144 0z"/>
<path d="M15553 4998 c-23 -28 -53 -110 -113 -319 -69 -238 -99 -322 -137
-389 -32 -56 -88 -116 -128 -138 -39 -21 -141 -20 -221 1 -78 21 -176 22 -214
2 -41 -21 -62 -67 -71 -158 -18 -181 -162 -384 -507 -715 -108 -104 -209 -210
-231 -243 -46 -69 -60 -121 -40 -145 33 -40 191 17 365 131 112 73 157 95 194
95 45 0 77 -37 85 -96 8 -67 16 -79 56 -82 106 -9 391 280 623 632 173 261
264 461 329 722 47 184 61 284 61 429 1 198 -20 311 -51 273z m-393 -1121 c0
-12 -137 -228 -353 -559 -42 -65 -81 -118 -86 -118 -26 0 -38 125 -16 189 39
118 166 274 344 422 96 80 111 89 111 66z"/>
<path d="M19643 4947 c-132 -137 -396 -595 -468 -810 -18 -53 -25 -95 -23
-128 l3 -50 54 75 c70 99 152 176 185 176 29 0 29 1 45 -139 17 -140 37 -165
71 -88 40 89 113 454 160 787 11 80 22 160 24 177 3 18 1 35 -3 37 -4 3 -26
-14 -48 -37z"/>
<path d="M9960 4943 c-24 -12 -43 -34 -60 -68 -22 -43 -25 -63 -25 -150 0 -88
4 -106 25 -145 33 -58 67 -72 117 -45 95 51 195 11 358 -145 160 -154 261
-217 361 -227 65 -7 97 10 114 63 29 86 -20 209 -122 312 -75 76 -262 220
-383 296 -171 107 -312 147 -385 109z"/>
<path d="M7062 4938 c-30 -30 -2 -181 51 -271 56 -95 143 -141 212 -113 49 21
60 54 40 122 -40 139 -247 318 -303 262z"/>
<path d="M7488 4333 c-44 -11 -36 -97 21 -219 158 -337 606 -793 1136 -1159
209 -144 317 -291 258 -350 -22 -23 -78 -14 -162 26 -145 67 -305 177 -586
404 -194 156 -327 248 -435 299 -83 40 -102 43 -121 20 -48 -58 220 -338 576
-604 654 -487 632 -470 1037 -796 110 -89 252 -168 382 -212 91 -32 116 -36
261 -43 88 -5 184 -15 213 -23 68 -19 134 -58 157 -93 50 -75 214 -222 296
-263 68 -35 160 -19 195 34 55 84 -65 272 -279 437 -178 138 -320 214 -790
420 -417 184 -547 255 -547 300 0 97 322 6 796 -225 341 -166 637 -343 821
-491 93 -75 129 -116 169 -198 51 -106 178 -194 343 -239 113 -31 313 -30 394
1 64 25 121 69 141 110 7 14 16 56 19 93 7 102 42 142 135 157 66 10 159 -2
316 -40 83 -21 137 -40 154 -54 l26 -22 -27 -25 c-15 -14 -82 -53 -149 -88
-135 -69 -191 -106 -183 -121 10 -16 129 -10 338 17 236 31 378 29 488 -5 99
-31 138 -65 188 -160 23 -45 56 -97 72 -115 118 -135 279 -53 416 211 97 187
126 318 89 406 -16 40 -68 87 -130 116 -81 40 -96 13 -44 -78 59 -103 40 -212
-52 -295 -52 -47 -96 -66 -154 -66 -68 0 -88 12 -188 113 -168 168 -392 292
-752 414 -302 102 -493 136 -1167 208 -428 45 -519 58 -585 80 -99 33 -224 96
-334 168 -47 30 -240 135 -430 232 -447 229 -532 274 -665 353 -402 238 -816
582 -1055 878 -54 66 -135 160 -181 208 -167 177 -349 297 -421 279z"/>
<path d="M16760 4162 c-113 -55 -209 -248 -170 -342 13 -31 46 -47 85 -41 71
10 170 113 205 215 24 66 25 107 5 145 -23 45 -65 53 -125 23z"/>
<path d="M12119 4021 c-39 -30 -43 -63 -18 -121 40 -93 157 -176 261 -187 44
-4 57 -2 81 17 51 40 31 126 -46 204 -89 88 -223 131 -278 87z"/>
<path d="M14309 4006 c-99 -40 -327 -198 -509 -352 -237 -200 -319 -316 -243
-345 116 -44 562 173 764 371 60 60 80 87 95 130 25 75 25 171 0 199 -24 26
-38 26 -107 -3z"/>
<path d="M19134 3450 c-212 -106 -657 -585 -735 -791 -13 -34 -17 -62 -13 -92
5 -37 2 -47 -22 -76 -34 -41 -73 -58 -161 -71 -85 -12 -204 -69 -291 -141
-113 -92 -266 -307 -233 -328 35 -22 226 56 333 136 411 309 1265 1271 1224
1379 -8 21 -37 17 -102 -16z"/>
<path d="M9690 3248 c-58 -31 -21 -135 88 -246 79 -81 146 -122 222 -138 74
-15 117 -3 159 42 29 32 33 41 28 76 -7 53 -58 106 -157 164 -142 84 -289 128
-340 102z"/>
<path d="M13215 2800 c-199 -16 -711 -82 -1011 -130 -322 -52 -444 -100 -444
-176 0 -36 69 -162 104 -189 155 -118 587 -37 1236 232 262 109 420 195 420
229 0 7 -8 18 -19 23 -28 16 -163 20 -286 11z"/>
<path d="M16424 2786 c-212 -69 -528 -288 -554 -385 -24 -89 -351 -348 -875
-693 -431 -284 -741 -456 -855 -476 -206 -37 -644 -382 -628 -495 3 -19 10
-22 54 -25 103 -6 204 54 289 171 80 110 135 132 234 98 109 -38 300 -23 464
36 190 67 319 151 812 523 341 257 439 325 497 346 62 22 125 73 259 211 257
266 496 601 487 681 -3 25 -6 27 -58 29 -36 2 -80 -6 -126 -21z"/>
<path d="M10502 2774 c-60 -22 -76 -51 -68 -117 19 -143 126 -214 441 -295
162 -41 251 -55 370 -56 162 -2 235 30 235 102 0 32 -8 44 -68 102 -110 106
-272 188 -482 242 -144 38 -356 48 -428 22z"/>
<path d="M7956 2402 c-13 -21 35 -175 87 -278 85 -168 255 -365 378 -437 35
-21 122 -55 194 -78 437 -135 628 -227 596 -287 -16 -30 -13 -69 5 -76 29 -11
63 -6 136 21 155 58 279 29 370 -86 106 -134 304 -171 395 -74 27 28 33 43 33
78 0 38 -5 47 -37 74 -48 39 -210 119 -443 217 -347 146 -606 288 -792 437
-332 264 -881 556 -922 489z"/>
<path d="M12811 2190 c-105 -22 -171 -80 -157 -136 11 -43 76 -103 150 -139
170 -84 359 -54 421 66 42 80 -5 151 -131 194 -57 20 -219 28 -283 15z"/>
<path d="M16292 2035 c-70 -40 -142 -107 -260 -242 -157 -181 -303 -304 -567
-478 -192 -127 -275 -173 -610 -342 -306 -154 -401 -210 -415 -247 -9 -25 0
-90 19 -123 68 -127 325 -14 845 370 214 158 370 253 611 372 194 96 422 185
473 185 33 0 69 20 83 48 19 35 19 319 0 384 -28 98 -91 123 -179 73z"/>
<path d="M12745 1173 c-70 -17 -132 -114 -121 -187 24 -150 210 -200 292 -77
47 72 44 148 -9 208 -47 53 -99 71 -162 56z"/>
<path d="M10394 1150 c-16 -5 -41 -21 -53 -34 -30 -32 -23 -62 24 -115 60 -66
148 -104 383 -164 l214 -54 9 24 c5 13 9 51 9 84 0 56 -3 62 -40 103 -47 50
-144 104 -245 136 -78 24 -250 36 -301 20z"/>
<path d="M15416 834 c-81 -29 -146 -100 -146 -158 0 -42 37 -112 71 -137 76
-54 188 -21 284 83 90 97 94 173 11 212 -43 20 -165 20 -220 0z"/>
<path d="M11445 829 c-90 -7 -151 -22 -180 -43 -33 -24 -7 -60 60 -85 174 -65
646 -90 859 -46 108 23 148 60 89 83 -93 37 -370 80 -560 88 -71 2 -141 6
-158 7 -16 2 -66 0 -110 -4z"/>
<path d="M12681 645 c-248 -55 -485 -201 -521 -322 -15 -49 1 -115 36 -150 23
-23 32 -25 88 -21 77 5 174 50 293 134 203 146 327 276 321 339 l-3 30 -75 2
c-41 1 -104 -5 -139 -12z"/>
<path d="M11071 528 c-45 -23 -66 -74 -65 -158 1 -89 14 -140 50 -196 47 -72
116 -93 191 -58 107 52 111 195 6 322 -63 77 -137 113 -182 90z"/>
<path d="M13495 369 c-324 -44 -674 -198 -675 -296 0 -32 34 -50 120 -64 113
-17 192 -6 379 57 280 93 487 208 467 259 -16 42 -155 63 -291 44z"/>
</g>
</svg>
