<?xml version="1.0" standalone="no"?>
<!DOCTYPE svg PUBLIC "-//W3C//DTD SVG 20010904//EN"
 "http://www.w3.org/TR/2001/REC-SVG-20010904/DTD/svg10.dtd">
<svg version="1.0" xmlns="http://www.w3.org/2000/svg"
 width="1024.000000pt" height="1024.000000pt" viewBox="0 0 1024.000000 1024.000000"
 preserveAspectRatio="xMidYMid meet">
<metadata>
Created by potrace 1.13, written by Peter Selinger 2001-2015
</metadata>
<g transform="translate(0.000000,1024.000000) scale(0.100000,-0.100000)"
fill="#000000" stroke="none">
<path d="M6225 10072 c-77 -8 -294 -47 -430 -77 -82 -18 -208 -45 -278 -60
-149 -30 -219 -54 -275 -95 -99 -72 -226 -115 -535 -185 -291 -65 -359 -89
-459 -162 -55 -40 -66 -64 -44 -98 19 -29 76 -35 96 -10 58 70 324 152 850
260 49 10 96 28 134 52 49 30 72 37 143 44 47 5 105 18 131 30 90 41 188 70
301 90 69 12 157 36 220 61 58 22 145 52 193 66 91 27 113 47 87 78 -12 14
-42 16 -134 6z"/>
<path d="M5325 10044 c-33 -8 -89 -29 -125 -47 -55 -27 -66 -37 -68 -61 -4
-33 31 -76 62 -76 11 0 66 20 121 45 55 24 124 50 153 58 63 16 76 28 68 60
-10 40 -97 48 -211 21z"/>
<path d="M6710 9948 c-17 -9 -26 -23 -28 -44 -5 -49 15 -58 138 -58 92 -1 112
2 127 17 26 25 7 48 -55 69 -74 25 -152 32 -182 16z"/>
<path d="M4956 9919 c-59 -20 -85 -25 -103 -18 -87 33 -246 -29 -289 -113 -15
-29 -15 -32 3 -56 33 -45 64 -48 140 -13 44 20 91 33 131 36 76 6 110 22 179
88 92 86 65 121 -61 76z"/>
<path d="M6485 9885 c-60 -28 -287 -76 -612 -130 -490 -81 -477 -78 -731 -177
-85 -32 -272 -93 -415 -134 -308 -89 -415 -127 -557 -200 -127 -65 -200 -117
-200 -143 0 -71 123 -42 356 84 127 68 133 70 443 140 173 39 325 85 506 155
61 23 216 69 345 101 129 32 278 71 330 87 53 17 156 42 230 57 159 31 260 58
330 87 47 20 51 23 48 52 -4 36 -26 43 -73 21z"/>
<path d="M6850 9789 c-41 -10 -115 -32 -165 -49 -49 -16 -135 -40 -191 -54
-55 -14 -183 -52 -285 -85 -241 -78 -303 -93 -553 -136 -250 -43 -308 -55
-666 -145 -332 -83 -475 -126 -635 -189 -66 -27 -169 -62 -229 -80 -141 -41
-152 -47 -418 -224 -204 -135 -228 -154 -228 -179 0 -32 23 -58 53 -58 12 0
89 45 172 100 186 123 276 166 375 179 53 7 95 21 145 47 96 50 235 104 390
152 153 48 730 208 1065 297 232 61 236 62 325 54 50 -4 185 -8 300 -8 116 -1
257 -5 315 -9 108 -7 339 -9 611 -3 95 1 173 -2 200 -9 105 -27 399 -134 457
-166 48 -26 67 -32 81 -24 24 12 33 37 22 58 -12 22 -104 78 -178 108 -86 34
-504 152 -597 169 -76 13 -195 13 -321 0 -59 -7 -212 -7 -240 -1 -11 2 -45 7
-75 11 -98 13 -97 21 6 34 184 23 217 27 344 36 47 4 112 11 145 16 33 6 86
14 117 19 70 10 78 15 78 46 0 31 -64 79 -133 99 -69 21 -196 18 -287 -6z"/>
<path d="M6020 9337 c-3 -3 -36 -7 -73 -11 -125 -12 -318 -57 -812 -190 -110
-29 -301 -77 -425 -106 -261 -61 -360 -92 -485 -150 -49 -23 -168 -77 -263
-120 -214 -97 -291 -142 -390 -230 -44 -40 -127 -98 -196 -137 -65 -37 -145
-93 -179 -123 -51 -47 -60 -61 -60 -90 0 -35 39 -80 70 -80 8 0 46 29 84 64
37 36 107 88 156 118 48 29 142 90 208 134 134 91 260 156 570 297 381 172
619 246 1265 391 367 82 459 94 760 95 140 1 275 4 300 6 60 5 479 7 505 1 11
-2 47 -7 80 -10 86 -10 198 -42 285 -81 41 -19 95 -36 120 -39 25 -3 82 -10
127 -16 143 -17 254 -53 351 -113 74 -47 102 -25 62 50 -68 128 -219 200 -445
213 -120 7 -137 10 -211 44 -155 68 -176 71 -674 71 -245 1 -508 5 -585 8 -78
4 -143 6 -145 4z"/>
<path d="M6105 9135 c-233 -31 -281 -39 -490 -81 -434 -86 -895 -231 -1046
-329 -116 -75 -147 -88 -235 -95 -76 -6 -85 -9 -180 -69 -116 -74 -217 -123
-449 -221 -200 -85 -276 -122 -295 -145 -7 -9 -47 -40 -89 -70 -42 -29 -98
-77 -126 -105 -51 -53 -123 -95 -230 -135 -50 -19 -61 -27 -63 -49 -5 -36 17
-41 80 -21 74 25 160 69 248 129 41 27 127 74 191 102 64 29 140 66 170 83 30
17 121 53 202 81 180 61 193 68 337 170 143 102 157 109 225 116 53 6 63 1 47
-22 -24 -37 -498 -280 -683 -350 -158 -60 -205 -84 -272 -138 -63 -51 -109
-76 -187 -101 -93 -30 -131 -54 -236 -152 -161 -150 -284 -232 -394 -264 -65
-18 -67 -25 -17 -44 79 -30 149 1 382 170 135 98 184 122 279 135 97 13 149
36 287 127 62 41 149 87 212 112 119 48 570 274 657 328 30 20 65 44 77 55 18
17 26 19 53 10 35 -13 50 -8 357 119 300 124 469 174 623 185 117 8 150 13
180 29 l30 15 -10 -26 c-8 -21 -7 -32 6 -51 16 -25 17 -25 117 -18 56 4 113 9
127 11 34 4 517 4 555 0 17 -2 66 -7 110 -11 290 -23 647 -117 905 -237 201
-94 327 -131 480 -143 173 -13 242 -26 311 -61 43 -21 119 -96 119 -116 0 -4
9 -8 20 -8 15 0 20 7 20 28 0 59 -30 120 -82 167 -62 55 -130 78 -403 135
-222 46 -318 74 -432 126 -114 52 -318 120 -476 159 -119 30 -180 41 -382 70
-113 16 -406 27 -575 21 -182 -6 -215 -8 -312 -21 -21 -3 -38 -3 -38 0 0 12
140 73 185 80 53 8 226 8 261 1 76 -16 304 -46 379 -50 50 -3 121 -10 160 -15
38 -5 73 -7 77 -5 4 3 43 -5 85 -17 58 -16 113 -23 218 -26 162 -4 276 -23
386 -63 43 -15 154 -47 246 -70 173 -43 274 -84 386 -156 73 -47 134 -53 153
-15 8 16 9 31 3 42 -8 16 -144 73 -474 199 -60 24 -185 76 -278 117 -187 83
-247 97 -447 108 -69 4 -136 8 -150 11 -14 2 -59 6 -100 10 -41 3 -86 8 -100
11 -14 3 -50 4 -80 2 -133 -9 -302 9 -470 51 -32 8 -31 8 10 4 37 -5 52 -1 83
20 34 24 44 25 130 22 50 -3 151 -17 222 -32 104 -22 150 -26 230 -24 277 9
356 5 490 -24 201 -44 438 -112 518 -149 40 -19 124 -63 187 -99 141 -79 142
-80 173 -63 23 12 27 11 32 -5 12 -38 65 -34 65 5 0 27 -22 48 -42 40 -12 -5
-15 1 -15 20 0 34 -13 46 -153 140 -176 120 -246 150 -435 185 -88 17 -267 52
-398 77 l-238 46 -118 -18 c-117 -18 -119 -18 -212 3 -147 33 -170 34 -292 21
-111 -12 -115 -11 -136 10 -25 25 -86 26 -246 6z m-90 -185 c-16 -6 -142 -35
-279 -66 -307 -69 -360 -85 -428 -130 -88 -60 -109 -67 -173 -66 -84 2 -182
-23 -317 -79 -126 -53 -195 -71 -235 -60 l-25 7 33 26 c56 42 213 117 326 154
75 25 143 40 234 50 127 14 153 21 295 83 132 57 278 81 529 88 56 1 64 0 40
-7z"/>
<path d="M5498 8575 c-226 -32 -580 -149 -883 -293 -129 -61 -293 -129 -425
-175 -337 -119 -418 -157 -822 -393 -98 -57 -260 -150 -360 -205 -280 -156
-428 -257 -428 -294 0 -23 45 -65 70 -65 12 0 68 31 125 69 57 37 177 105 267
151 90 46 269 144 398 218 364 209 593 320 851 412 113 41 274 109 542 229
187 84 367 150 490 181 166 41 261 48 602 44 176 -2 334 -5 350 -8 17 -2 64
-7 105 -11 86 -7 101 -9 270 -36 156 -25 280 -52 635 -140 480 -120 681 -188
938 -319 119 -60 140 -68 161 -59 32 15 48 52 36 83 -16 42 -268 168 -522 260
-381 138 -1153 309 -1538 341 -41 4 -86 9 -100 12 -14 3 -169 7 -345 8 -231 3
-347 0 -417 -10z"/>
<path d="M5510 8399 c-114 -12 -268 -43 -363 -74 -177 -57 -848 -370 -1088
-507 -69 -40 -101 -52 -115 -47 -38 15 -99 9 -139 -14 -34 -19 -40 -28 -43
-58 -3 -36 -4 -36 -57 -42 -38 -4 -74 -17 -122 -45 -37 -22 -79 -43 -93 -47
-14 -4 -54 -35 -90 -69 -51 -49 -83 -70 -145 -95 -215 -88 -464 -247 -717
-459 -94 -79 -105 -101 -63 -128 28 -18 22 -21 140 70 122 96 250 177 440 282
88 47 222 121 298 162 109 60 144 84 165 115 25 37 37 43 162 87 74 25 147 53
161 61 114 62 174 90 309 144 228 93 245 100 365 170 153 89 300 149 590 244
270 88 528 155 640 167 39 4 192 8 340 8 149 1 278 5 288 10 13 6 17 18 15 40
l-3 31 -395 1 c-217 1 -433 -3 -480 -7z"/>
<path d="M6431 8361 c-23 -15 -5 -38 51 -64 l53 -25 -160 -1 c-166 -1 -344 -8
-405 -15 -19 -3 -60 -8 -90 -11 -30 -4 -95 -15 -145 -25 -49 -10 -144 -21
-210 -25 -66 -4 -140 -11 -164 -16 -69 -15 -204 -74 -353 -155 -75 -41 -145
-74 -156 -74 -40 0 -160 -43 -282 -102 -69 -32 -184 -84 -257 -113 -378 -156
-831 -373 -939 -452 -147 -106 -171 -120 -300 -172 -71 -28 -150 -66 -176 -84
-75 -52 -338 -314 -338 -337 0 -12 10 -25 25 -32 30 -13 31 -13 186 112 146
117 238 174 337 209 114 41 161 69 307 187 121 97 149 114 405 243 396 200
598 293 629 289 26 -4 25 -5 -23 -52 -103 -102 -291 -201 -546 -286 -176 -59
-209 -76 -410 -210 -80 -53 -172 -111 -205 -129 -104 -55 -335 -231 -478 -364
-33 -31 -37 -39 -27 -56 6 -12 16 -21 24 -21 7 0 55 30 107 67 484 341 792
512 1104 613 39 13 84 29 100 37 19 8 23 9 11 1 -11 -7 -93 -62 -183 -123
-284 -192 -352 -232 -598 -356 -259 -131 -341 -180 -450 -267 -136 -109 -255
-215 -255 -228 0 -33 47 -17 193 68 38 22 70 38 72 36 2 -2 -18 -34 -46 -71
-55 -76 -61 -97 -25 -97 35 0 76 39 135 128 67 103 161 182 431 362 269 179
361 236 645 397 388 220 509 275 752 343 174 49 240 75 317 124 45 29 57 41
54 59 -4 31 -34 32 -100 3 -31 -14 -116 -39 -190 -56 -290 -69 -343 -87 -505
-180 -40 -22 -73 -39 -73 -37 0 3 49 39 109 81 122 86 150 114 206 207 21 35
47 74 58 87 23 25 136 62 191 62 39 0 90 22 170 76 28 18 76 42 106 52 53 19
95 27 355 72 66 12 165 37 220 55 205 70 260 77 653 81 350 3 353 3 415 -21
35 -13 146 -42 248 -64 236 -52 281 -69 409 -151 110 -70 168 -102 210 -115
28 -9 217 -119 300 -175 30 -21 91 -69 135 -106 129 -111 166 -140 235 -179
36 -21 75 -47 87 -57 48 -44 85 12 43 65 -55 69 -352 306 -527 418 -167 109
-276 190 -266 200 11 11 108 -15 181 -47 65 -29 429 -272 517 -345 33 -28 76
-59 97 -70 38 -19 118 -36 118 -25 0 4 -25 38 -55 76 -45 56 -75 81 -172 141
-89 54 -141 95 -210 165 -127 128 -199 161 -388 178 -33 3 -89 8 -125 11 -36
4 -92 13 -125 21 -33 8 -80 18 -105 23 -25 5 -74 21 -109 36 -36 15 -150 45
-254 67 -104 21 -232 55 -285 74 -177 65 -262 84 -291 65z"/>
<path d="M6075 8070 c-97 -13 -395 -76 -575 -120 -298 -74 -741 -209 -769
-235 -8 -8 -11 -21 -7 -30 5 -15 16 -17 79 -11 94 9 266 48 435 98 512 152
608 174 842 196 97 9 455 9 545 0 293 -30 490 -86 740 -208 348 -171 580 -353
1173 -917 148 -142 186 -173 209 -173 36 0 53 16 53 52 0 22 -27 55 -139 167
-602 602 -1117 944 -1679 1116 -152 46 -201 53 -442 59 -113 3 -250 8 -305 10
-55 3 -127 1 -160 -4z"/>
<path d="M5810 7874 c-78 -20 -129 -39 -261 -99 -96 -44 -129 -54 -195 -60
-100 -8 -153 -32 -224 -99 -118 -113 -261 -185 -496 -251 -145 -41 -207 -70
-332 -154 -104 -69 -168 -103 -265 -138 -130 -46 -259 -118 -502 -281 -333
-221 -420 -294 -860 -722 -82 -80 -186 -178 -229 -217 -76 -70 -78 -73 -64
-95 9 -13 23 -24 32 -26 41 -8 360 262 584 494 181 188 211 212 396 324 73 43
164 107 203 142 84 76 285 198 523 318 216 109 336 163 651 295 136 57 298
130 361 162 112 56 117 58 184 55 l69 -4 -50 -44 c-76 -68 -118 -88 -265 -130
-159 -44 -294 -95 -324 -122 -12 -11 -109 -50 -216 -87 -305 -105 -378 -145
-598 -328 -112 -93 -177 -137 -311 -211 -229 -127 -384 -246 -941 -725 -30
-26 -87 -64 -127 -85 -70 -37 -111 -74 -196 -180 -39 -47 -110 -98 -244 -175
-40 -23 -77 -50 -83 -61 -15 -28 -12 -70 5 -77 52 -19 335 165 486 318 42 42
71 61 110 74 46 15 69 33 159 125 187 192 378 365 515 466 l40 29 -51 -60
c-27 -33 -85 -104 -128 -157 -44 -55 -124 -138 -184 -190 -260 -224 -485 -453
-876 -891 -162 -182 -195 -227 -165 -227 33 0 220 136 344 251 44 41 75 67 69
59 -44 -62 -149 -184 -216 -250 -47 -48 -78 -87 -76 -97 5 -24 53 -56 75 -49
10 3 45 41 78 83 133 173 559 642 572 629 16 -16 -98 -179 -242 -346 -121
-139 -188 -227 -216 -283 -17 -33 -18 -38 -4 -43 23 -9 93 53 178 158 41 51
109 131 152 178 110 121 142 166 235 330 46 80 96 163 111 185 42 58 344 345
320 303 -10 -18 -24 -50 -31 -70 -8 -26 -37 -62 -94 -115 -46 -43 -112 -116
-147 -161 -35 -46 -73 -95 -84 -108 -18 -23 -18 -27 -4 -52 10 -18 24 -28 45
-30 26 -3 38 6 95 70 88 98 202 237 271 329 47 62 75 87 147 133 102 64 141
105 141 146 0 37 -22 54 -60 46 -42 -8 -148 -61 -192 -97 -69 -55 -38 -15 51
65 47 43 118 96 156 119 39 22 138 82 220 132 93 58 173 99 209 110 71 20 156
61 248 121 98 63 116 71 221 98 57 15 131 44 188 75 127 67 250 99 444 116 39
3 93 8 120 10 36 4 -24 -20 -220 -88 -424 -148 -623 -227 -860 -342 -205 -100
-495 -279 -495 -306 0 -22 30 -18 101 12 41 18 131 51 201 75 l127 42 -29 -40
c-16 -22 -50 -58 -75 -80 -26 -23 -71 -72 -101 -109 -30 -38 -83 -90 -119
-116 -35 -27 -68 -57 -73 -68 -21 -45 26 -87 78 -70 41 13 100 77 152 164 59
97 142 191 169 191 10 0 48 21 85 47 68 47 273 145 286 136 5 -2 8 -14 8 -27
0 -16 -10 -27 -37 -40 -20 -10 -91 -49 -157 -88 -105 -62 -139 -90 -280 -227
-205 -200 -265 -255 -351 -323 -161 -127 -243 -237 -380 -508 -206 -409 -286
-647 -286 -860 -1 -217 51 -371 159 -472 66 -62 138 -97 246 -119 89 -18 92
-18 191 2 55 12 103 23 106 24 3 2 45 7 94 10 49 4 100 11 112 16 13 5 81 18
151 29 172 28 268 73 344 163 111 129 138 152 228 188 67 27 97 46 144 92 119
117 316 225 316 174 0 -17 -93 -106 -153 -146 -39 -27 -48 -37 -45 -58 2 -14
15 -35 30 -46 l27 -20 68 34 c37 19 93 59 124 89 64 62 90 131 70 184 l-11 27
31 -18 c40 -23 77 -71 85 -110 17 -83 -86 -199 -242 -274 -110 -53 -122 -64
-193 -187 -58 -100 -92 -136 -148 -157 -78 -29 -199 -92 -312 -162 -145 -90
-288 -157 -401 -188 -83 -23 -114 -26 -243 -26 -82 1 -153 3 -158 6 -14 10
-11 25 6 25 9 0 28 12 42 26 24 24 31 25 82 20 129 -15 312 -16 339 -2 15 7
52 21 82 30 82 23 172 81 269 172 47 44 129 112 181 151 119 89 181 154 205
216 21 56 11 91 -31 107 -73 28 -160 -9 -327 -138 -135 -105 -145 -111 -320
-177 -199 -75 -287 -95 -416 -95 l-105 0 28 -29 c69 -72 253 -75 491 -6 126
37 196 73 300 155 153 121 155 118 15 -24 -150 -152 -213 -200 -304 -228 -54
-18 -82 -19 -251 -15 l-190 5 -120 46 c-67 24 -161 52 -210 61 -109 21 -161
43 -236 100 -168 130 -229 327 -184 601 79 486 333 997 678 1360 73 78 82 104
42 130 -23 15 -27 15 -52 -1 -47 -31 -293 -278 -344 -345 -67 -89 -125 -207
-154 -318 -30 -111 -79 -241 -174 -459 -122 -280 -154 -436 -127 -620 27 -179
73 -271 195 -393 91 -90 183 -147 321 -197 107 -40 5 -18 -131 27 -203 67
-288 121 -355 227 -19 28 -43 55 -54 58 -31 10 -70 -20 -70 -53 0 -60 106
-175 209 -227 68 -34 428 -164 489 -175 43 -9 66 -19 73 -32 10 -18 8 -19 -28
-13 -204 36 -332 73 -460 135 -121 59 -202 129 -300 262 -36 48 -71 88 -77 88
-7 0 -20 -6 -31 -14 -38 -27 10 -154 92 -246 137 -152 368 -252 706 -305 194
-30 262 -32 275 -9 8 14 33 16 190 15 l181 -2 143 47 c79 25 192 66 251 91
191 80 253 129 542 434 68 72 144 139 200 178 50 35 107 81 128 104 28 30 33
33 19 12 -35 -52 -143 -169 -250 -271 -57 -54 -151 -157 -208 -230 -57 -73
-127 -153 -155 -178 -58 -52 -211 -142 -329 -193 -93 -40 -255 -83 -314 -83
-56 0 -86 -22 -86 -64 0 -57 25 -70 125 -62 260 21 484 132 748 372 127 116
487 500 536 573 100 147 162 320 164 460 1 81 1 83 18 62 38 -46 37 -211 -2
-337 -45 -147 -123 -267 -249 -382 -38 -35 -110 -122 -172 -208 -139 -196
-209 -264 -387 -374 -254 -157 -552 -267 -832 -304 -131 -18 -373 -14 -494 8
-49 9 -91 19 -93 21 -2 2 45 4 105 4 102 0 156 5 211 16 17 4 22 12 22 35 0
16 -5 32 -12 36 -7 4 -132 8 -278 9 -289 2 -354 11 -469 69 -27 14 -87 39
-132 56 -115 42 -132 54 -126 93 2 18 0 41 -5 51 -9 17 -7 17 21 -3 48 -34
186 -95 293 -130 146 -46 248 -59 476 -61 169 -1 213 -4 274 -21 40 -11 86
-23 101 -26 56 -11 92 61 45 91 -53 34 -140 49 -263 46 -428 -11 -416 -12
-632 90 -298 142 -432 292 -472 530 -18 105 -30 130 -66 130 -40 0 -48 -23
-42 -113 13 -165 55 -292 133 -398 20 -27 32 -49 27 -49 -16 0 -74 48 -100 82
-33 44 -83 143 -83 165 0 10 -9 45 -19 78 -10 33 -21 102 -25 154 -6 99 -12
115 -42 109 -48 -9 -41 -263 9 -326 6 -7 25 -57 42 -110 48 -148 75 -188 160
-237 44 -26 48 -32 60 -93 8 -37 20 -45 92 -61 93 -19 156 -47 251 -109 96
-63 132 -75 262 -88 36 -4 72 -8 80 -10 8 -1 33 -3 55 -4 34 -1 36 -3 18 -10
-28 -11 -46 -46 -39 -75 12 -49 136 -70 416 -70 178 1 238 5 348 23 447 77
827 260 1017 489 27 33 96 116 152 184 56 68 157 183 224 254 121 129 191 224
223 299 60 143 78 344 42 466 -16 53 -30 76 -75 123 -108 111 -214 158 -358
158 -164 0 -339 -72 -693 -285 -226 -137 -365 -206 -468 -235 -96 -26 -310
-38 -381 -21 -29 7 -50 14 -48 17 3 2 26 6 53 9 142 15 312 61 440 119 130 59
239 136 391 277 267 246 711 401 981 343 191 -41 318 -173 369 -380 22 -93 22
-281 -1 -400 -56 -294 -240 -680 -451 -950 -75 -96 -256 -273 -380 -373 -151
-121 -399 -228 -737 -318 -169 -44 -269 -81 -283 -104 -14 -22 195 -6 309 24
55 14 101 24 102 23 13 -13 -377 -127 -435 -127 -43 0 -71 -26 -71 -66 0 -49
23 -54 138 -32 372 70 789 277 1107 550 155 133 298 296 420 478 28 41 60 83
73 93 45 37 111 144 136 221 34 103 63 152 98 167 16 6 31 9 34 7 5 -6 -67
-217 -102 -295 -12 -29 -49 -87 -82 -130 -33 -43 -97 -132 -143 -197 -106
-150 -170 -215 -339 -340 -248 -183 -279 -217 -232 -259 29 -27 50 -20 111 31
31 27 110 89 176 137 188 138 269 209 356 314 96 113 217 295 234 351 4 13 16
36 26 50 19 25 140 283 164 350 8 21 13 84 13 160 1 69 6 150 12 180 24 122
28 202 15 304 -17 128 -59 264 -89 291 -24 21 -135 231 -195 368 -45 104 -76
129 -188 155 -155 36 -239 49 -329 51 -94 1 -113 -2 -348 -68 -82 -23 -151
-40 -153 -37 -2 2 13 9 34 16 21 7 94 40 163 73 l125 62 130 -2 c84 0 155 -7
200 -18 39 -9 132 -27 208 -40 155 -26 223 -53 319 -129 66 -53 100 -107 288
-461 137 -257 158 -306 191 -450 22 -94 24 -120 24 -439 0 -310 1 -340 17
-350 28 -17 45 11 52 84 3 36 9 101 13 145 4 44 7 141 7 215 -1 150 -26 289
-91 525 -38 136 -64 257 -57 264 2 2 28 -47 58 -110 151 -322 208 -547 202
-799 -3 -107 -9 -147 -44 -280 -22 -85 -57 -227 -77 -315 -43 -185 -84 -318
-126 -413 -24 -53 -28 -71 -20 -89 12 -27 51 -39 79 -24 22 12 67 143 128 376
20 77 54 196 75 265 56 177 69 262 64 416 -6 163 -11 226 -36 394 -22 146 -36
330 -26 330 4 0 16 -19 28 -42 19 -37 21 -53 16 -120 -6 -68 -4 -81 12 -97 10
-10 23 -20 28 -22 5 -2 15 -22 23 -43 17 -44 43 -67 60 -50 18 18 33 143 28
233 -3 47 -1 76 3 65 4 -10 8 -34 8 -53 1 -18 10 -48 20 -65 11 -17 27 -76 36
-131 16 -100 32 -134 55 -120 9 6 11 28 5 84 -8 85 -9 124 -4 196 5 65 -9 188
-27 239 -17 47 -69 142 -92 169 -33 37 -92 8 -92 -47 0 -18 -20 12 -65 102
-36 71 -80 146 -98 168 -18 21 -47 69 -65 106 -83 170 -390 414 -671 532 -227
96 -427 138 -656 137 -218 0 -373 -32 -505 -106 -52 -29 -142 -79 -200 -110
-175 -95 -290 -178 -438 -315 -212 -196 -331 -336 -402 -474 -47 -90 -50 -86
-14 16 58 159 151 310 271 438 92 98 165 151 299 218 55 28 189 109 297 181
l195 130 125 25 c159 33 241 41 402 40 233 -2 450 -56 689 -173 294 -144 496
-320 658 -571 19 -30 60 -94 91 -142 61 -95 85 -115 117 -98 26 14 42 44 33
66 -3 9 -34 54 -67 99 -34 45 -108 151 -166 236 -166 243 -303 363 -555 484
-223 107 -404 169 -590 200 -78 14 -416 14 -475 2 -14 -3 -68 -13 -120 -22
-141 -24 -352 -74 -377 -91 -13 -8 -23 -20 -23 -27 -1 -6 -35 -27 -76 -46 -41
-19 -117 -61 -167 -93 -56 -35 -78 -46 -57 -28 37 33 205 150 214 150 3 0 38
22 78 48 194 129 431 181 803 178 l190 -2 129 -42 c100 -33 150 -44 220 -48
122 -7 193 -20 226 -41 35 -22 236 -165 272 -193 40 -31 147 -166 248 -315 48
-71 118 -163 154 -203 150 -165 185 -224 246 -414 21 -65 61 -160 88 -211 27
-51 57 -114 67 -140 10 -26 22 -50 26 -53 5 -2 16 10 25 27 16 33 16 122 -1
162 -6 13 -4 16 9 11 31 -12 46 -59 46 -142 0 -84 13 -117 45 -110 12 2 26 20
36 48 l17 45 36 -115 c19 -63 46 -153 58 -200 21 -76 26 -85 49 -88 15 -2 32
5 43 17 17 18 16 24 -18 153 -164 622 -457 1133 -925 1612 -69 71 -159 155
-199 187 -68 55 -71 59 -51 69 33 18 66 4 98 -43 36 -52 95 -108 281 -269 158
-137 205 -184 275 -279 62 -85 201 -370 330 -678 146 -349 262 -578 305 -601
23 -12 54 0 63 24 3 8 -29 85 -73 171 -43 86 -97 202 -119 258 -23 56 -64 143
-91 192 -94 170 -150 290 -175 380 -49 175 -146 331 -272 443 -36 31 -117 122
-181 202 -63 80 -140 171 -171 203 -30 31 -51 57 -47 57 5 0 39 -17 75 -37 95
-52 182 -146 299 -320 56 -83 135 -195 177 -248 44 -56 99 -142 131 -208 81
-161 136 -256 223 -387 116 -173 215 -339 235 -395 10 -27 53 -138 96 -245 79
-198 132 -354 145 -423 9 -49 41 -72 79 -57 15 5 29 17 33 26 11 30 -137 444
-214 597 -28 57 -44 97 -38 97 2 0 44 -60 93 -133 78 -117 96 -153 151 -302
34 -94 89 -258 122 -365 33 -107 64 -202 68 -210 11 -21 61 -19 75 2 8 13 7
26 -3 50 -14 35 -33 101 -76 258 -30 111 -60 178 -158 355 -59 106 -79 156
-115 280 -64 221 -96 282 -167 321 -31 17 -37 17 -45 4 -5 -8 -10 -34 -10 -58
l0 -42 -50 96 c-28 53 -107 182 -176 288 -308 470 -387 593 -439 687 -31 56
-54 103 -52 106 3 2 41 -31 85 -74 94 -92 152 -178 267 -397 47 -89 127 -224
178 -301 79 -119 97 -140 121 -143 33 -4 66 22 66 52 0 45 -69 164 -158 271
-73 87 -108 142 -173 268 -109 210 -144 263 -242 360 -69 69 -179 202 -212
256 -12 21 83 -47 139 -99 27 -25 94 -108 149 -185 67 -93 140 -179 217 -255
132 -131 148 -157 191 -322 45 -176 83 -242 219 -378 92 -92 111 -115 95 -118
-30 -6 -65 -43 -65 -69 0 -13 37 -103 81 -201 141 -307 177 -394 214 -521 20
-68 44 -139 53 -157 28 -54 125 -164 146 -164 17 0 18 6 12 61 -11 94 -51 201
-142 375 -46 89 -99 202 -119 252 -32 82 -73 267 -62 278 6 6 73 -111 162
-278 68 -131 86 -148 116 -112 16 19 9 39 -78 229 -36 77 -76 182 -89 233 -30
121 -46 147 -124 204 -161 118 -198 165 -329 415 -152 291 -287 488 -488 708
-108 118 -149 159 -208 202 -35 26 155 -53 221 -92 66 -39 137 -126 194 -237
60 -116 140 -236 349 -523 256 -352 512 -740 610 -925 30 -58 72 -148 91 -200
29 -77 40 -96 58 -98 52 -8 37 80 -36 203 -25 44 -87 161 -138 260 -133 264
-229 418 -687 1105 -177 266 -271 396 -320 448 -72 74 -173 147 -332 242 -49
30 -144 89 -210 133 -135 89 -277 161 -416 212 l-94 34 47 1 c64 0 226 -32
323 -65 126 -42 249 -112 344 -195 47 -42 158 -137 246 -211 308 -262 411
-392 685 -864 293 -505 319 -546 449 -694 61 -70 104 -129 127 -178 20 -40 40
-73 45 -73 21 0 21 35 2 114 -26 105 -73 215 -132 314 l-46 77 82 -83 c74 -75
86 -83 115 -80 23 2 37 11 47 30 14 25 13 31 -22 100 -21 40 -80 132 -132 203
-52 72 -171 243 -265 381 -93 138 -220 316 -281 395 -61 79 -172 227 -246 329
-75 102 -158 211 -185 243 -27 31 -47 57 -43 57 12 0 212 -179 270 -242 178
-191 503 -632 754 -1022 63 -97 135 -176 161 -176 33 0 44 26 31 73 -31 103
-122 259 -232 392 -34 42 -83 123 -123 203 -66 132 -81 183 -38 126 107 -140
155 -198 208 -251 34 -34 79 -89 99 -122 38 -62 51 -69 86 -51 41 23 24 60
-146 305 -49 72 -104 149 -122 173 -46 61 -50 84 -19 115 25 25 25 27 10 69
-39 112 -107 191 -249 291 -180 127 -299 224 -337 274 -96 127 -236 236 -455
357 -57 31 -148 81 -204 111 -55 31 -152 89 -214 130 -62 41 -143 89 -181 107
-63 30 -77 33 -159 32 -49 0 -133 -4 -185 -8 -104 -8 -122 -4 -284 54 -103 37
-180 47 -216 28 -26 -14 -36 -44 -22 -66 5 -7 73 -33 152 -57 137 -43 197 -57
300 -70 173 -23 288 -55 497 -137 84 -34 152 -63 150 -64 -2 -2 -37 8 -79 21
-126 40 -275 66 -408 71 -89 4 -152 13 -217 30 -177 48 -302 38 -639 -46 -195
-49 -251 -60 -320 -60 -169 0 -439 -48 -619 -111 -163 -56 -496 -178 -539
-198 -25 -11 -67 -39 -93 -64 -29 -27 -93 -66 -163 -100 -115 -55 -328 -179
-470 -272 -69 -46 -273 -237 -568 -532 -60 -61 -141 -128 -195 -164 l-92 -61
125 124 c69 67 162 155 206 195 45 40 137 138 203 217 181 215 239 265 454
386 100 57 227 132 282 168 65 43 139 80 213 108 154 57 191 95 142 144 -41
41 -155 11 -238 -64 -22 -20 -42 -36 -46 -36 -3 0 -29 -15 -58 -34 -56 -36
-238 -129 -238 -122 0 2 20 16 45 30 24 15 121 84 214 154 189 142 257 179
446 242 72 24 195 77 275 118 171 88 167 86 433 168 197 60 369 102 350 84 -4
-4 -51 -18 -103 -30 -215 -49 -299 -81 -478 -183 -63 -36 -153 -81 -200 -101
-48 -20 -139 -64 -202 -100 -94 -52 -116 -68 -118 -88 -2 -15 3 -28 12 -31 32
-13 156 26 299 94 94 44 168 72 196 75 25 3 74 9 109 15 35 5 89 7 120 4 46
-5 77 0 162 25 78 23 134 32 215 36 108 5 386 51 475 77 90 28 76 75 -26 81
-41 3 -87 -3 -149 -20 -49 -13 -160 -33 -245 -44 -85 -11 -182 -25 -215 -30
-180 -30 -263 9 -124 58 90 31 154 41 293 47 344 15 391 20 413 51 7 10 13 22
13 26 0 16 -50 59 -61 52 -16 -10 -231 -6 -242 5 -5 5 43 17 115 29 99 16 157
19 298 17 96 -2 184 -6 195 -8 11 -3 49 -8 85 -12 36 -4 76 -14 88 -22 13 -8
54 -17 90 -19 187 -13 433 -71 619 -145 132 -52 326 -156 465 -248 122 -81
138 -96 198 -177 95 -130 212 -248 423 -427 164 -139 198 -174 259 -260 81
-115 185 -283 234 -379 38 -75 48 -85 69 -68 24 20 18 46 -41 161 -77 151
-211 350 -340 503 -189 226 -552 575 -761 732 -315 236 -708 402 -1019 430
-72 6 -83 8 -174 23 -108 19 -168 23 -370 26 -191 3 -268 8 -330 21 -20 5 -8
11 55 30 142 42 233 55 380 55 150 0 163 -1 330 -32 306 -56 469 -119 869
-333 313 -167 421 -247 632 -469 66 -70 128 -127 136 -127 22 0 48 27 48 50 0
53 -191 273 -335 385 -102 79 -179 126 -341 207 -71 36 -169 90 -219 120 -49
30 -118 69 -153 88 -34 18 -61 35 -59 37 7 6 298 -116 436 -182 264 -128 359
-196 642 -461 245 -230 429 -418 548 -561 130 -157 162 -150 106 21 -52 161
-117 242 -219 276 -67 22 -108 57 -163 140 -51 75 -373 376 -483 450 -30 20
-113 71 -185 112 -71 41 -184 110 -250 152 -151 98 -258 156 -360 196 -44 18
-84 35 -90 40 -15 12 -156 47 -260 64 -118 20 -197 27 -435 40 -240 14 -307
19 -325 22 -58 13 -214 11 -265 -2z m539 -99 c277 -6 333 -15 484 -75 99 -40
151 -70 97 -57 -218 55 -404 75 -680 75 -259 0 -352 -6 -589 -44 -52 -8 -96
-13 -98 -10 -2 2 47 22 109 45 143 53 271 79 363 75 39 -2 180 -6 314 -9z
m-38 -745 c114 -34 128 -37 379 -60 133 -12 208 -32 288 -75 106 -59 365 -241
412 -291 l45 -47 -67 56 c-121 100 -231 150 -448 202 -64 15 -144 42 -181 61
-162 83 -372 99 -714 54 -38 -5 -95 -12 -125 -15 -30 -3 -73 -8 -95 -11 l-40
-5 45 27 c67 40 188 94 245 109 74 20 182 18 256 -5z m983 -144 c337 -166 547
-349 691 -601 24 -44 49 -87 55 -95 5 -8 26 -41 45 -73 19 -32 65 -98 103
-145 91 -115 94 -122 37 -81 -125 88 -210 182 -503 549 -142 179 -319 361
-363 375 -13 4 -43 23 -66 42 -23 19 -70 50 -105 69 -110 59 -52 37 106 -40z
m-849 -75 c33 -12 87 -24 120 -27 53 -5 125 -22 235 -56 68 -21 278 -114 356
-158 94 -54 186 -142 436 -420 350 -390 475 -549 582 -742 119 -215 226 -412
226 -417 0 -2 -52 74 -116 170 -377 564 -670 925 -939 1156 -207 179 -395 288
-624 363 -341 112 -717 125 -1146 39 -167 -33 -335 -85 -639 -198 -258 -96
-415 -147 -511 -166 l-30 -6 30 26 c63 55 244 133 430 185 99 28 230 66 290
85 175 54 303 82 565 121 135 20 297 44 360 54 154 23 296 20 375 -9z m-440
-211 c130 -33 439 -151 590 -225 142 -69 317 -177 395 -244 34 -29 -97 36
-420 207 -161 85 -417 184 -575 222 -131 32 -184 27 -452 -40 -131 -34 -272
-66 -313 -71 -41 -6 -82 -17 -91 -25 -8 -8 -58 -21 -110 -30 -282 -46 -336
-55 -354 -59 l-20 -5 20 9 c11 6 94 39 185 74 394 154 627 205 930 205 106 0
164 -5 215 -18z m18 -191 c85 -12 96 -19 78 -47 -6 -10 -24 -12 -67 -8 -32 3
-104 8 -159 11 -111 6 -251 33 -238 46 18 18 250 17 386 -2z m-515 -58 c23
-22 62 -46 89 -54 26 -9 206 -41 398 -72 193 -32 360 -61 373 -66 12 -5 35
-30 50 -55 15 -26 37 -62 49 -80 20 -30 20 -34 5 -34 -9 0 -48 -16 -86 -35
-39 -19 -78 -35 -88 -35 -10 0 -44 13 -76 29 -134 68 -328 121 -517 142 -126
14 -345 17 -455 6 -41 -4 -102 -10 -135 -13 -211 -20 -396 -57 -494 -100 -30
-13 -97 -55 -150 -93 -123 -89 -194 -125 -231 -118 -21 5 -47 -5 -109 -41
-264 -154 -524 -448 -712 -807 -139 -265 -200 -565 -165 -809 9 -60 16 -127
16 -148 0 -21 9 -56 20 -77 19 -38 72 -91 91 -91 5 0 9 -16 9 -35 0 -39 -8
-42 -51 -19 -185 95 -246 383 -155 732 23 88 168 446 233 577 110 219 219 358
377 478 112 85 203 173 313 304 52 62 103 113 112 113 27 0 270 138 353 200
45 34 92 61 111 64 141 21 232 41 329 72 62 19 142 42 178 50 36 8 72 18 80
21 13 6 139 28 181 32 9 0 34 -17 57 -38z m2729 -172 c142 -112 181 -157 167
-194 -9 -21 -20 -19 -61 12 -30 23 -162 176 -213 246 -14 19 -13 19 7 9 12 -7
57 -40 100 -73z m-2452 -195 c195 -31 382 -104 426 -165 11 -16 29 -29 39 -29
27 0 205 -145 339 -274 170 -166 315 -339 444 -529 45 -66 70 -130 81 -212 5
-38 4 -37 -25 24 -18 37 -59 95 -95 135 -36 39 -102 125 -147 190 -234 340
-467 574 -677 681 -82 41 -120 52 -263 70 -62 9 -138 22 -168 30 -169 46 -178
47 -364 41 -99 -3 -196 -8 -215 -11 -19 -3 -66 -10 -105 -16 -158 -24 -367
-88 -520 -159 -33 -15 -81 -35 -108 -45 -62 -22 -139 -80 -262 -196 -55 -52
-145 -131 -200 -176 -130 -105 -180 -158 -308 -328 -114 -150 -133 -189 -147
-304 -6 -41 -24 -122 -41 -180 -43 -145 -49 -253 -19 -315 27 -56 113 -136
183 -170 180 -88 454 -76 671 28 40 20 183 108 317 197 134 88 276 177 314
196 167 85 289 113 405 93 l70 -12 19 -63 c40 -127 36 -250 -10 -348 -11 -23
-17 -33 -14 -23 30 102 28 180 -5 268 -26 68 -45 95 -82 114 -43 22 -113 13
-195 -26 -36 -16 -70 -30 -77 -30 -45 0 -309 -174 -386 -254 -25 -26 -53 -42
-101 -56 -36 -11 -86 -33 -110 -50 -24 -16 -60 -33 -79 -36 -48 -9 -68 -20
-75 -43 -4 -14 -13 -18 -38 -16 -19 2 -73 -11 -123 -28 -81 -28 -100 -31 -214
-30 -122 0 -128 1 -263 46 -108 36 -153 47 -202 47 -35 0 -67 -5 -70 -10 -4
-6 -12 -4 -21 5 -31 31 -8 394 35 567 42 163 109 287 227 419 36 40 127 154
202 253 75 99 169 213 208 252 75 75 230 184 262 184 39 0 140 43 247 105 208
121 262 139 499 171 61 8 143 17 181 20 39 4 72 8 73 10 12 10 410 1 487 -12z
m-222 -498 c212 -19 475 -114 667 -242 136 -90 186 -138 220 -211 16 -35 27
-63 25 -63 -2 0 -18 20 -35 45 -39 57 -61 69 -95 53 -34 -15 -42 -53 -21 -89
25 -42 13 -36 -29 15 -20 25 -52 82 -70 128 -55 133 -94 156 -330 197 -60 11
-162 31 -225 44 -204 44 -272 50 -428 43 -173 -8 -231 -25 -386 -111 -215
-121 -304 -189 -554 -429 -79 -76 -190 -174 -245 -218 -119 -93 -142 -119
-159 -181 -11 -42 -10 -48 8 -68 16 -18 26 -20 65 -16 151 18 274 89 564 328
227 186 340 249 570 317 224 67 482 66 632 -3 98 -44 193 -157 249 -296 26
-63 74 -237 74 -267 0 -31 -14 0 -32 70 -40 158 -143 309 -276 405 -115 82
-242 120 -369 109 -125 -10 -411 -95 -538 -158 -110 -56 -169 -102 -330 -258
-88 -85 -187 -173 -220 -195 -102 -67 -359 -164 -479 -180 -49 -7 -51 -5 -62
75 -5 40 -4 50 8 50 8 0 48 48 89 107 187 271 399 500 575 620 49 33 170 101
269 151 99 49 211 110 248 135 127 85 342 117 620 93z m-1474 -223 c-192 -200
-366 -472 -429 -668 -29 -87 -36 -324 -13 -389 l14 -40 -27 25 c-73 67 -81
161 -30 360 39 153 89 276 169 411 85 145 125 189 241 268 57 39 110 77 116
85 7 8 15 15 18 15 3 0 -24 -30 -59 -67z m570 -255 c-35 -24 -136 -115 -224
-204 -155 -157 -248 -230 -339 -268 -83 -34 -52 5 99 128 55 44 145 121 200
170 112 99 162 136 250 183 83 45 89 41 14 -9z m1421 -754 c31 -126 28 -163
-32 -382 -25 -91 -33 -110 -44 -101 -27 22 -27 76 0 181 36 147 47 219 47 310
0 44 2 78 4 76 3 -2 14 -40 25 -84z m-1792 -349 c-1 -1 -23 -12 -47 -25 -24
-12 -45 -30 -48 -40 -4 -15 -29 -24 -117 -45 -193 -45 -189 -44 -386 -60 -36
-3 -76 -8 -90 -11 -14 -2 -52 -6 -85 -9 l-61 -4 -10 45 c-9 38 -8 46 8 61 10
9 18 24 18 35 0 24 7 23 80 -11 l62 -30 212 4 c239 5 276 13 387 84 54 33 65
37 72 25 5 -9 7 -17 5 -19z"/>
<path d="M5045 6276 c-132 -31 -310 -111 -554 -248 -112 -63 -125 -78 -94
-110 l22 -22 168 81 c304 147 405 176 618 177 83 0 175 -5 205 -11 30 -7 132
-19 225 -28 290 -26 417 -49 533 -96 87 -34 96 -35 122 -9 25 25 26 72 3 92
-46 39 -347 118 -548 142 -343 42 -606 54 -700 32z"/>
<path d="M4247 5899 c-60 -31 -82 -61 -65 -91 20 -39 94 -14 141 47 56 70 17
93 -76 44z"/>
<path d="M8280 6670 c0 -5 37 -58 82 -117 45 -59 111 -147 147 -195 36 -47 93
-131 125 -185 78 -129 156 -246 170 -255 20 -14 53 -8 70 11 31 35 11 77 -142
294 -58 82 -108 143 -274 330 -68 77 -178 149 -178 117z"/>
<path d="M2631 6181 c-82 -61 -101 -84 -101 -120 0 -34 29 -25 85 27 29 26 71
63 94 83 44 38 54 69 22 69 -11 0 -55 -27 -100 -59z"/>
<path d="M3784 6079 c-27 -16 -123 -105 -214 -197 -91 -92 -195 -194 -231
-227 -36 -33 -109 -114 -164 -180 -54 -66 -118 -141 -142 -166 l-45 -46 -25
23 c-36 33 -82 32 -115 -3 -30 -32 -104 -156 -172 -290 -36 -70 -62 -105 -112
-151 -35 -33 -64 -65 -64 -70 0 -14 29 -42 43 -42 7 0 42 20 79 45 67 45 82
65 187 245 18 30 29 44 25 30 -16 -57 -84 -176 -199 -345 -201 -295 -292 -467
-341 -643 -14 -50 -15 -64 -4 -77 19 -23 49 -18 66 13 122 222 248 437 422
717 116 187 216 347 221 355 12 18 -30 -85 -96 -235 -36 -81 -76 -147 -148
-245 -211 -287 -281 -432 -300 -625 -8 -75 2 -95 46 -95 34 0 49 23 49 77 0
59 27 157 61 226 33 65 115 197 123 197 3 0 -13 -51 -34 -114 -70 -210 -84
-324 -52 -425 21 -65 46 -86 82 -68 21 11 25 19 24 57 -1 25 -3 77 -4 115 -3
82 2 118 40 280 16 66 31 143 35 170 25 197 78 331 190 480 78 105 115 173
115 214 0 37 -29 56 -72 47 l-30 -6 23 38 c79 129 196 258 495 542 133 127
344 353 344 368 0 15 -29 42 -44 42 -7 0 -34 -14 -62 -31z"/>
<path d="M5953 5083 c-4 -10 8 -44 31 -87 189 -355 231 -453 262 -611 31 -164
11 -528 -42 -731 -19 -77 -65 -174 -111 -236 -24 -34 -36 -60 -35 -81 0 -20
-23 -81 -62 -162 l-64 -130 -188 -191 c-192 -193 -268 -260 -335 -294 -42 -22
-52 -40 -39 -74 20 -53 50 -43 187 63 116 90 245 217 315 312 336 455 353 482
403 655 25 85 49 236 59 359 3 39 9 115 13 170 4 55 8 172 7 260 -1 142 -4
170 -27 245 -36 119 -79 210 -145 310 -55 82 -195 240 -214 240 -5 0 -12 -8
-15 -17z"/>
<path d="M5242 4829 c-93 -23 -155 -51 -374 -164 -139 -71 -188 -101 -188
-115 0 -56 124 -24 342 87 95 49 196 94 223 100 184 41 436 -78 510 -240 80
-176 50 -366 -122 -757 -33 -76 -59 -119 -94 -155 -36 -38 -51 -62 -59 -99
-15 -68 -20 -74 -81 -105 -41 -20 -69 -46 -117 -106 -115 -145 -168 -191 -282
-250 -58 -30 -168 -95 -245 -145 -210 -136 -352 -199 -543 -241 -144 -31 -450
-36 -622 -9 -230 36 -398 85 -678 196 -416 165 -641 313 -741 487 -35 62 -46
69 -55 35 -29 -109 41 -234 196 -349 227 -168 810 -389 1193 -453 155 -25 166
-27 335 -31 188 -5 297 5 455 41 61 14 135 30 165 35 71 12 174 63 279 139 46
33 177 107 290 165 235 119 328 187 446 321 187 214 351 525 431 819 24 87 28
119 28 240 0 124 -2 147 -23 200 -51 130 -151 235 -292 310 -123 65 -242 79
-377 44z"/>
<path d="M2391 4603 c-97 -124 -237 -329 -290 -425 -27 -47 -30 -61 -21 -77
20 -39 54 -26 95 37 62 93 204 282 260 347 72 83 125 159 125 179 0 33 -20 56
-49 56 -25 0 -42 -16 -120 -117z"/>
<path d="M2214 4638 c-15 -18 -38 -58 -52 -88 -64 -143 -61 -140 -147 -195
-45 -29 -108 -77 -141 -107 -32 -30 -106 -94 -164 -142 -114 -95 -190 -179
-190 -211 0 -28 19 -45 51 -45 22 0 33 11 65 67 48 82 166 209 250 269 34 25
104 64 156 88 51 24 101 53 111 64 10 11 38 66 63 122 24 57 53 117 64 135 18
29 18 33 4 53 -21 30 -37 28 -70 -10z"/>
<path d="M2033 4643 c-7 -2 -29 -28 -50 -56 -21 -29 -68 -84 -105 -124 -69
-73 -77 -96 -38 -108 25 -8 68 15 106 57 68 74 134 169 134 192 0 26 -25 47
-47 39z"/>
<path d="M6423 4390 c-13 -5 -23 -17 -24 -27 -2 -50 4 -139 16 -233 20 -160
17 -350 -6 -456 -51 -236 -157 -461 -290 -616 -24 -28 -30 -43 -25 -62 7 -29
39 -50 64 -42 25 8 95 117 143 221 96 211 123 265 131 265 11 0 10 -53 -2 -84
-21 -56 -22 -111 -2 -135 46 -58 86 15 95 172 4 73 3 79 -19 94 -13 8 -28 12
-34 8 -12 -8 -14 17 -1 30 16 18 49 120 55 170 3 28 8 70 12 95 10 81 7 343
-5 410 -22 122 -59 209 -84 199 -1 0 -12 -4 -24 -9z"/>
<path d="M1893 4070 c-36 -15 -131 -120 -159 -177 -26 -53 -26 -86 1 -97 27
-10 44 5 79 68 19 34 52 82 73 106 45 52 73 91 73 102 0 10 -39 9 -67 -2z"/>
<path d="M7382 3978 c-18 -18 -15 -48 13 -135 30 -96 55 -213 55 -258 0 -38
27 -60 60 -50 21 7 21 9 25 85 4 82 -56 312 -91 351 -20 22 -44 25 -62 7z"/>
<path d="M8470 3931 c-17 -33 6 -116 42 -146 27 -23 33 -24 52 -12 28 19 31
48 10 89 -20 41 -63 88 -81 88 -7 0 -17 -9 -23 -19z"/>
<path d="M6932 3928 c-11 -13 -17 -47 -27 -133 -3 -27 -8 -69 -11 -92 -7 -55
8 -83 46 -83 45 0 58 30 66 150 6 88 4 111 -10 138 -17 33 -45 42 -64 20z"/>
<path d="M7240 3925 c-9 -11 -6 -40 14 -137 14 -68 30 -159 36 -203 6 -44 13
-93 16 -110 2 -16 7 -115 10 -220 7 -244 16 -255 51 -55 13 76 18 156 18 290
0 161 -3 196 -23 268 -41 152 -85 212 -122 167z"/>
<path d="M7719 3914 c-21 -26 -13 -91 22 -162 75 -159 104 -283 85 -368 -5
-22 -3 -34 8 -43 13 -11 20 -8 41 13 22 22 25 33 25 98 0 40 -4 89 -9 108 -5
19 -12 71 -16 115 -9 128 -23 182 -57 221 -33 38 -76 46 -99 18z"/>
<path d="M7097 3863 c-4 -3 -7 -41 -7 -83 0 -65 -4 -85 -27 -126 -23 -42 -27
-61 -27 -134 0 -96 16 -143 51 -148 16 -2 26 4 32 20 47 112 71 186 67 203 -3
11 -8 52 -11 90 -8 87 -23 155 -37 172 -11 14 -31 17 -41 6z"/>
<path d="M7906 3734 c-20 -19 -20 -18 1 -57 27 -53 43 -128 43 -203 0 -55 4
-77 18 -95 23 -28 48 -20 63 18 25 63 -13 286 -57 334 -21 23 -47 24 -68 3z"/>
<path d="M7617 3699 c-13 -18 -13 -27 8 -77 12 -31 26 -73 30 -92 10 -52 33
-82 58 -78 40 6 44 49 14 141 -15 45 -34 92 -42 105 -20 28 -49 28 -68 1z"/>
<path d="M2157 3612 c-20 -22 -23 -114 -6 -158 5 -16 30 -47 55 -69 36 -34 48
-53 60 -101 20 -77 49 -106 152 -149 94 -39 105 -41 122 -21 19 24 -1 46 -86
90 -81 43 -80 42 -103 132 -6 22 -27 62 -48 88 -31 40 -37 57 -41 109 -3 36
-11 69 -20 80 -20 22 -64 22 -85 -1z"/>
<path d="M1424 3516 c-12 -31 3 -50 63 -81 34 -18 82 -50 106 -72 57 -52 83
-66 113 -59 28 7 32 40 9 73 -22 32 -136 110 -194 133 -61 24 -90 25 -97 6z"/>
<path d="M7665 3383 c-14 -34 -17 -187 -6 -230 10 -38 15 -43 41 -43 44 0 49
21 35 145 -15 128 -21 145 -45 145 -10 0 -21 -8 -25 -17z"/>
<path d="M6881 3333 c-5 -10 -12 -43 -16 -73 -3 -30 -8 -63 -11 -72 -3 -9 4
-26 16 -38 21 -21 23 -21 41 -4 16 15 42 71 63 141 14 46 -70 87 -93 46z"/>
<path d="M1406 3324 c-8 -22 -9 -19 25 -59 17 -19 39 -35 48 -35 10 0 26 -9
37 -21 10 -12 49 -39 86 -61 65 -38 69 -40 92 -24 34 22 42 53 19 78 -23 26
-130 78 -162 78 -13 0 -39 14 -58 30 -37 33 -77 39 -87 14z"/>
<path d="M8011 3301 c-10 -7 -11 -23 -5 -72 4 -35 6 -88 5 -117 -3 -56 9 -82
40 -82 10 0 26 11 34 24 15 22 15 31 -1 108 -18 89 -38 148 -51 148 -4 0 -14
-4 -22 -9z"/>
<path d="M7043 3288 c-6 -7 -13 -37 -17 -67 -4 -30 -16 -80 -27 -112 -25 -72
-22 -103 9 -107 53 -8 82 61 82 192 0 41 -3 81 -6 90 -7 19 -28 21 -41 4z"/>
<path d="M1773 3259 c-32 -33 -16 -56 90 -128 56 -38 183 -131 282 -206 200
-151 275 -192 550 -301 241 -95 285 -108 488 -154 100 -23 236 -56 302 -75
170 -49 252 -64 380 -71 106 -6 114 -5 134 15 26 26 27 55 1 81 -17 17 -33 20
-112 19 -110 0 -195 15 -418 76 -91 24 -219 56 -286 70 -152 32 -200 48 -459
152 -293 117 -323 136 -591 358 -77 63 -163 127 -193 142 -61 30 -149 42 -168
22z"/>
<path d="M7488 3245 c-16 -37 44 -225 72 -225 18 0 36 32 27 47 -3 5 -8 43
-11 87 -4 43 -11 87 -17 97 -15 28 -57 24 -71 -6z"/>
<path d="M8184 3128 c3 -51 8 -113 11 -138 3 -25 7 -74 10 -110 3 -35 11 -70
17 -77 14 -18 53 -16 68 2 30 36 -21 331 -67 385 -41 49 -46 39 -39 -62z"/>
<path d="M6373 3182 c-27 -4 -35 -15 -58 -77 -28 -76 -79 -174 -130 -251 -99
-146 -320 -407 -446 -528 -137 -131 -188 -164 -364 -237 -81 -33 -140 -79
-132 -102 5 -16 -132 -72 -237 -97 -44 -10 -148 -29 -231 -40 -82 -12 -206
-34 -275 -50 -163 -37 -198 -41 -360 -41 -142 0 -187 4 -310 27 -93 17 -100
17 -100 0 0 -31 163 -93 316 -121 119 -22 461 -14 626 13 157 27 362 79 492
126 99 35 136 58 136 83 0 7 9 13 20 13 11 0 86 43 167 96 142 93 159 108 410
361 233 234 269 274 318 358 31 52 88 136 127 187 76 100 118 178 118 219 0
40 -41 69 -87 61z"/>
<path d="M7172 3135 c-22 -27 -37 -88 -47 -190 -7 -67 -17 -111 -47 -199 -34
-102 -41 -162 -24 -196 13 -28 13 -30 -4 -30 -25 0 -35 -16 -65 -100 -43 -121
-158 -347 -233 -460 -88 -132 -190 -242 -284 -306 -125 -85 -372 -189 -568
-239 -36 -9 -73 -19 -83 -21 -14 -4 -18 -1 -15 11 2 12 25 23 78 36 92 24 247
99 360 175 280 188 451 373 571 616 40 80 42 89 28 104 -15 14 -19 13 -50 -14
-19 -17 -59 -72 -89 -122 -30 -51 -88 -128 -128 -171 -67 -71 -251 -217 -397
-315 -114 -77 -312 -158 -412 -170 l-48 -6 25 21 c14 11 52 30 85 41 77 28
136 67 259 173 55 47 151 116 214 154 129 76 211 145 248 208 24 42 58 171 48
187 -12 19 -34 5 -60 -39 -56 -97 -212 -239 -364 -334 -47 -28 -121 -81 -165
-117 -78 -63 -110 -80 -249 -137 -93 -39 -130 -73 -152 -140 -16 -51 -19 -56
-58 -66 -164 -42 -366 -121 -488 -190 -109 -62 -139 -68 -204 -39 -42 19 -65
23 -154 22 -85 -1 -109 -5 -130 -20 -37 -28 -39 -74 -4 -101 35 -28 73 -27
197 5 103 26 144 27 284 8 59 -8 97 7 208 86 115 81 172 105 288 120 47 6 107
17 133 25 64 19 71 19 77 -5 3 -11 4 -20 4 -20 -32 0 -165 -35 -185 -48 -142
-96 -167 -107 -272 -118 -90 -9 -112 -19 -108 -46 6 -46 139 -45 292 2 70 21
130 32 203 37 100 6 103 5 103 -15 0 -22 -47 -40 -180 -68 -248 -51 -490 -66
-650 -40 -87 14 -141 15 -313 1 -93 -8 -100 -7 -145 17 -26 14 -62 29 -80 33
-54 11 -132 7 -155 -8 -18 -12 -32 -11 -100 5 -100 23 -290 79 -382 112 -39
14 -104 30 -145 36 -41 6 -101 15 -133 20 -41 7 -85 25 -148 61 -140 81 -243
80 -209 -1 26 -64 79 -86 225 -95 86 -5 95 -8 219 -70 71 -36 137 -76 147 -89
27 -34 211 -85 379 -105 47 -6 108 -13 135 -17 75 -10 1205 -12 1320 -2 55 5
127 15 160 23 33 7 62 11 65 8 3 -2 -7 -15 -22 -27 -16 -13 -28 -32 -28 -45
l0 -24 -138 6 c-76 4 -193 16 -261 28 -68 11 -134 18 -148 15 -28 -8 -46 -47
-37 -82 9 -34 42 -54 138 -81 l81 -23 -100 6 c-56 2 -129 9 -165 14 -67 9 -93
3 -104 -26 -4 -9 0 -27 8 -39 13 -20 24 -23 83 -23 55 0 100 -11 243 -57 l175
-57 163 4 c89 3 162 4 162 3 0 -18 -34 -75 -44 -75 -8 0 -21 -11 -29 -24 -14
-21 -23 -23 -64 -21 -26 2 -86 19 -133 38 -106 44 -189 56 -225 33 -24 -16
-25 -15 -25 2 0 41 -81 89 -124 73 -39 -15 -50 -76 -18 -103 28 -25 90 -32
118 -13 23 15 24 15 24 -14 0 -20 9 -37 31 -55 28 -23 38 -26 108 -24 76 1 80
0 158 -45 116 -68 180 -88 297 -93 97 -5 100 -4 127 22 l28 27 -22 23 c-13 13
-35 28 -50 33 -19 8 -27 18 -27 35 0 25 0 25 37 9 25 -10 58 -14 101 -11 55 3
68 8 87 31 21 23 22 30 13 67 -8 30 -8 44 0 52 13 13 62 15 109 5 48 -11 105
15 101 45 -3 20 -8 23 -40 20 -21 -2 -63 4 -93 13 -31 9 -87 17 -124 19 -63 3
-221 43 -221 57 0 9 98 39 129 39 36 1 111 36 111 53 0 10 21 16 78 21 42 4
93 9 112 11 33 5 32 4 -8 -9 -23 -8 -49 -20 -57 -26 -21 -18 -18 -54 6 -76 24
-22 78 -23 304 -10 200 12 239 28 179 75 -31 24 -105 40 -199 42 -68 2 -145
16 -100 18 11 1 55 12 98 26 89 29 165 32 208 9 38 -19 73 -15 77 9 5 24 -22
53 -73 81 -58 30 -239 30 -380 -2 -89 -20 -329 -53 -320 -44 2 2 45 18 97 36
51 18 140 53 199 78 89 38 115 46 170 46 79 0 154 29 309 121 187 110 286 155
346 155 48 1 57 -2 91 -36 41 -40 61 -46 81 -26 19 19 14 59 -13 94 -26 34
-97 74 -133 74 -12 0 -22 2 -22 4 0 2 16 28 36 57 20 30 43 70 52 89 8 19 16
31 17 25 2 -5 8 -37 15 -69 11 -51 20 -68 68 -118 57 -60 80 -69 102 -43 10
12 10 21 1 42 -7 14 -14 45 -17 67 -3 23 -12 66 -19 96 -8 30 -26 114 -40 185
-14 72 -28 138 -31 148 -7 21 -52 23 -60 2 -3 -8 -14 -17 -24 -20 -22 -7 -26
-17 -55 -132 -41 -161 -112 -266 -234 -347 -117 -78 -131 -69 -37 28 102 105
190 288 203 419 4 52 2 66 -12 80 -20 20 -18 65 8 222 33 194 39 221 77 335
27 78 43 149 51 220 13 124 5 173 -30 178 -32 5 -39 -5 -46 -63 -10 -76 -31
-163 -75 -310 -28 -90 -46 -176 -56 -262 -8 -70 -19 -144 -25 -163 -13 -41
-173 -300 -234 -380 -89 -115 -185 -187 -304 -226 -71 -23 -88 -44 -67 -85 18
-36 75 -31 170 14 154 73 287 203 400 391 l36 60 0 -35 c-1 -54 -45 -168 -95
-241 -76 -110 -168 -174 -301 -208 -46 -11 -61 -37 -39 -66 10 -15 19 -16 64
-7 29 6 65 8 82 4 26 -5 -12 -24 -278 -138 -402 -173 -406 -174 -460 -153
l-42 15 195 63 c107 35 224 78 260 96 35 18 67 29 70 24 7 -11 41 -10 49 2 29
46 -64 76 -210 67 -107 -7 -195 -29 -369 -92 -71 -25 -132 -43 -137 -38 -11
11 173 107 349 183 73 32 158 73 189 92 101 59 324 299 440 473 110 166 223
409 226 490 1 24 9 45 18 52 26 20 48 87 54 166 3 39 16 131 30 202 35 188 36
197 22 234 -15 44 -30 48 -55 16z m-1572 -2370 c253 -10 271 -16 132 -50 -104
-25 -196 -18 -252 19 -24 16 -55 33 -69 37 -22 7 -20 8 9 4 19 -3 100 -8 180
-10z"/>
<path d="M7392 3068 c-5 -7 -13 -94 -16 -193 -7 -190 -14 -317 -21 -400 -2
-27 -7 -81 -10 -120 -4 -38 -15 -125 -26 -192 -23 -150 -23 -140 2 -153 44
-24 60 23 107 320 23 148 26 194 26 448 1 241 -1 284 -14 292 -21 13 -36 12
-48 -2z"/>
<path d="M1397 3063 c-16 -15 -4 -33 51 -74 31 -23 122 -97 202 -163 448 -373
556 -424 1132 -542 270 -54 312 -65 455 -111 93 -31 114 -34 127 -24 9 8 16
22 16 33 0 19 5 20 73 13 39 -4 89 -10 109 -15 39 -8 58 2 58 31 0 19 -89 84
-180 129 -130 65 -242 100 -550 170 -102 24 -219 54 -260 68 -153 51 -293 133
-470 277 -107 86 -173 127 -243 151 -54 18 -93 13 -102 -15 -10 -31 3 -44 83
-89 42 -23 133 -83 202 -133 292 -212 374 -257 557 -310 146 -41 341 -117 307
-118 -6 -1 -90 15 -188 34 -317 64 -462 124 -616 255 -77 66 -143 106 -310
190 -80 40 -185 101 -235 135 -120 83 -202 124 -218 108z"/>
<path d="M6817 3009 c-35 -64 -77 -175 -77 -204 0 -46 57 -58 79 -17 15 29 51
191 51 233 0 54 -19 50 -53 -12z"/>
<path d="M6468 2983 c-8 -10 -44 -67 -80 -128 -128 -216 -374 -580 -421 -622
-64 -59 -128 -99 -297 -183 -172 -86 -235 -125 -301 -187 -51 -47 -60 -74 -36
-107 21 -29 62 -23 98 14 63 63 136 110 316 203 261 136 311 176 416 339 29
45 85 126 123 178 38 53 91 136 117 186 26 49 72 123 103 163 62 83 74 119 49
144 -22 22 -68 22 -87 0z"/>
<path d="M7854 2953 c-14 -31 -16 -62 -11 -173 11 -233 20 -274 78 -337 40
-44 64 -91 75 -149 7 -39 31 -57 57 -43 21 12 21 36 1 105 -8 30 -16 89 -18
132 -1 69 -6 86 -44 161 -34 65 -45 102 -53 165 -21 165 -22 171 -47 174 -18
3 -26 -4 -38 -35z"/>
<path d="M8025 2969 c-9 -14 3 -174 21 -274 37 -211 35 -206 59 -217 28 -12
65 5 65 30 0 9 -9 40 -19 67 -25 66 -39 146 -47 270 -4 55 -11 108 -16 118
-10 19 -53 23 -63 6z"/>
<path d="M6020 2928 c-5 -7 -34 -46 -63 -87 -32 -46 -106 -125 -194 -205 -78
-72 -172 -166 -208 -208 -81 -95 -124 -126 -244 -174 -64 -25 -98 -45 -114
-66 -58 -78 -70 -85 -208 -128 -132 -41 -239 -97 -239 -125 0 -7 16 -15 35
-18 69 -11 208 24 350 88 33 14 105 45 160 67 126 50 139 59 175 116 16 26 49
62 74 79 25 18 57 51 72 75 41 66 69 93 195 183 126 91 203 168 268 266 45 69
51 107 23 132 -22 20 -67 22 -82 5z"/>
<path d="M6988 2929 c-10 -5 -18 -19 -18 -30 0 -58 -35 -184 -75 -265 -55
-114 -61 -136 -40 -158 23 -23 33 -20 70 18 36 39 72 152 100 319 14 77 15
101 5 112 -14 17 -19 18 -42 4z"/>
<path d="M7545 2880 c-11 -18 -20 -175 -14 -252 1 -18 -3 -71 -9 -118 -6 -47
-14 -110 -16 -140 -3 -30 -13 -89 -21 -130 -9 -41 -13 -85 -9 -100 4 -14 8
-62 9 -107 2 -78 5 -89 63 -210 34 -70 64 -140 68 -155 7 -32 38 -45 61 -27
22 19 11 86 -32 192 -26 64 -35 99 -33 130 l3 42 18 -40 c29 -65 74 -103 146
-125 48 -15 67 -17 77 -9 22 18 16 38 -21 73 l-35 33 0 129 c0 134 -14 190
-53 223 -36 29 -137 4 -137 -34 0 -8 -5 -15 -11 -15 -15 0 -6 71 27 207 22 91
25 123 22 237 -4 156 -20 206 -69 206 -15 0 -31 -5 -34 -10z"/>
<path d="M1383 2829 c-7 -7 -13 -28 -13 -46 0 -38 37 -83 68 -83 10 0 27 -9
38 -21 49 -54 110 -60 140 -14 14 21 14 30 4 56 -13 30 -55 59 -86 59 -10 0
-30 11 -44 25 -31 30 -89 43 -107 24z"/>
<path d="M1631 2652 c-15 -11 -23 -29 -23 -51 -2 -64 81 -111 187 -108 71 3
71 24 1 93 -49 48 -106 84 -135 84 -5 0 -19 -8 -30 -18z"/>
<path d="M6455 2548 c-30 -17 -42 -36 -72 -113 -23 -58 -43 -86 -117 -162 -76
-79 -87 -96 -82 -118 9 -37 50 -43 104 -15 54 29 111 107 180 248 64 130 66
136 47 156 -19 19 -33 20 -60 4z"/>
<path d="M1433 2519 c-26 -9 -38 -42 -24 -67 14 -27 110 -74 225 -112 106 -35
125 -43 171 -76 37 -26 147 -82 235 -119 36 -15 147 -65 246 -111 216 -99 353
-148 470 -168 92 -16 104 -15 104 13 0 27 -134 91 -435 206 -148 57 -528 239
-616 295 -25 17 -88 41 -145 55 -54 14 -115 36 -134 49 -59 39 -74 44 -97 35z"/>
<path d="M1870 2515 c-24 -29 3 -58 106 -115 199 -109 242 -128 341 -150 54
-12 113 -28 130 -36 89 -40 166 -58 298 -69 102 -8 193 -23 339 -56 143 -32
306 -54 336 -44 23 7 26 28 7 44 -24 19 -279 79 -412 96 -338 42 -589 92 -668
131 -29 14 -104 55 -167 90 -91 50 -266 124 -293 124 -2 0 -10 -7 -17 -15z"/>
<path d="M4930 2451 c-71 -23 -135 -56 -255 -132 -174 -109 -281 -152 -455
-183 -114 -20 -162 -25 -244 -27 -52 -1 -73 -6 -87 -20 -23 -23 -24 -33 -4
-53 16 -16 17 -16 200 -1 272 21 412 69 685 234 82 51 182 104 221 120 85 34
97 44 79 66 -16 20 -71 18 -140 -4z"/>
<path d="M5224 2424 c-21 -15 -57 -43 -80 -64 -22 -20 -92 -61 -155 -91 -124
-58 -423 -207 -532 -265 -43 -23 -101 -42 -160 -54 -87 -18 -121 -21 -332 -36
-94 -6 -118 -15 -97 -36 15 -15 390 -18 562 -5 129 10 173 29 288 126 124 106
293 199 403 222 40 9 65 23 109 63 31 28 66 59 78 68 13 11 22 29 22 46 0 57
-44 68 -106 26z"/>
<path d="M7792 2418 c-7 -7 -8 -17 -2 -27 4 -9 14 -46 20 -81 14 -77 32 -110
63 -110 50 0 60 27 36 98 -24 71 -48 108 -76 121 -29 13 -27 13 -41 -1z"/>
<path d="M1392 2283 c-18 -7 -33 -39 -26 -57 8 -20 47 -38 329 -148 127 -49
291 -118 365 -153 74 -35 214 -92 310 -126 96 -34 225 -79 285 -100 61 -21
118 -39 127 -39 9 0 24 10 32 22 35 50 18 64 -115 97 -159 41 -268 84 -539
216 -182 88 -285 131 -458 190 -123 41 -236 82 -252 90 -30 16 -37 17 -58 8z"/>
<path d="M3724 2266 c-36 -16 -48 -40 -33 -67 17 -33 56 -42 129 -29 126 22
188 69 131 100 -28 15 -190 12 -227 -4z"/>
<path d="M3595 2141 c-33 -14 -48 -38 -41 -66 7 -29 26 -40 83 -49 35 -5 46
-3 63 14 25 25 26 76 2 89 -28 15 -85 21 -107 12z"/>
<path d="M2697 2102 c-45 -50 -6 -84 115 -103 40 -6 116 -28 168 -49 58 -23
122 -40 165 -45 39 -4 117 -22 175 -40 143 -44 205 -52 231 -29 21 19 26 73 7
92 -7 7 -30 12 -53 12 -78 0 -226 31 -372 77 -199 62 -351 103 -389 103 -17 0
-38 -8 -47 -18z"/>
<path d="M6102 2110 c-13 -6 -27 -22 -33 -37 -10 -31 -51 -60 -119 -87 -62
-24 -108 -54 -121 -78 -15 -29 -2 -67 27 -78 35 -14 80 7 152 72 33 29 84 67
113 83 46 25 54 35 57 62 2 22 -3 38 -17 52 -23 23 -26 24 -59 11z"/>
<path d="M1416 2021 c-10 -16 30 -74 73 -105 69 -50 102 -64 165 -71 32 -4 76
-13 98 -21 57 -20 75 -18 94 11 26 40 5 78 -59 104 -29 12 -77 34 -107 50 -47
24 -70 29 -157 34 -57 3 -105 2 -107 -2z"/>
<path d="M2990 1865 c-20 -24 -7 -49 40 -74 25 -13 74 -43 110 -66 58 -39 75
-44 162 -56 110 -14 191 -5 196 22 2 12 -12 19 -55 29 -32 7 -110 38 -173 70
-164 83 -254 107 -280 75z"/>
<path d="M5662 1831 c-51 -21 -100 -45 -110 -52 -69 -54 -132 -114 -138 -132
-8 -26 -37 -50 -86 -73 -42 -19 -45 -26 -23 -44 12 -10 26 -9 71 8 31 11 62
18 70 15 33 -12 90 22 170 103 71 70 91 85 139 99 66 19 87 50 60 91 -21 32
-44 30 -153 -15z"/>
<path d="M2002 1785 c-25 -31 -26 -39 -12 -65 18 -33 245 -118 525 -194 583
-160 576 -159 583 -108 5 30 -29 59 -79 67 -24 4 -98 35 -164 70 -139 73 -167
81 -295 89 -141 9 -191 22 -262 68 -90 59 -160 89 -221 95 -50 5 -55 3 -75
-22z"/>
<path d="M1588 1744 c-13 -12 -9 -22 24 -60 36 -41 98 -73 140 -74 49 0 76 71
44 116 -12 16 -29 20 -108 22 -51 2 -96 0 -100 -4z"/>
<path d="M2918 1726 c-17 -9 -23 -20 -23 -46 0 -33 3 -36 45 -49 25 -8 106
-38 180 -67 74 -28 191 -64 260 -79 69 -16 166 -43 215 -62 171 -65 244 -73
337 -36 42 17 55 40 35 61 -12 11 -22 11 -53 3 -65 -18 -109 -13 -237 28 -67
22 -171 49 -232 60 -111 21 -118 24 -340 139 -96 49 -154 64 -187 48z"/>
<path d="M5000 1699 c-47 -19 -215 -58 -325 -75 -83 -13 -175 -18 -370 -18
l-260 -1 -3 -27 c-4 -32 20 -47 118 -75 53 -14 100 -18 255 -17 166 0 206 4
316 27 69 14 177 43 240 64 113 38 114 38 117 71 6 56 -27 75 -88 51z"/>
<path d="M3716 1628 c-20 -28 -5 -55 47 -81 47 -24 158 -25 211 -3 39 16 39
16 20 37 -23 26 -46 35 -137 54 -98 20 -123 19 -141 -7z"/>
<path d="M1776 1555 c-50 -18 -66 -33 -46 -45 39 -24 330 -111 436 -130 233
-42 262 -48 320 -73 33 -14 97 -41 144 -61 79 -33 93 -36 187 -36 109 0 123
-4 347 -90 60 -23 126 -44 145 -47 20 -4 59 -19 86 -34 102 -57 272 -108 545
-163 120 -24 161 -28 420 -41 63 -4 126 -8 140 -9 27 -4 172 -12 377 -22 l131
-6 17 26 c20 30 14 72 -13 80 -54 17 -191 25 -466 25 -170 1 -311 3 -315 5 -3
2 -35 7 -71 11 -212 22 -387 65 -486 120 -147 82 -188 96 -327 109 -83 8 -196
39 -354 97 -76 28 -241 77 -367 110 -127 33 -289 80 -360 105 -72 25 -167 54
-211 64 -93 23 -222 25 -279 5z"/>
<path d="M4980 1474 c-90 -21 -185 -37 -250 -41 -116 -6 -168 -19 -184 -45 -8
-14 -7 -22 6 -34 26 -26 203 -32 301 -10 116 26 299 90 311 109 13 20 -2 51
-25 54 -8 1 -79 -14 -159 -33z"/>
<path d="M4225 1406 c-16 -24 -16 -28 -2 -50 24 -35 132 -51 157 -21 29 35
-20 84 -93 92 -40 5 -47 3 -62 -21z"/>
<path d="M3884 1334 c-24 -35 -9 -74 36 -97 28 -13 59 -17 150 -16 63 1 135
-4 160 -10 25 -7 88 -11 140 -9 92 3 95 4 95 27 0 21 -10 26 -100 53 -59 17
-134 31 -185 34 -47 3 -119 14 -162 25 -99 25 -114 24 -134 -7z"/>
<path d="M1989 1288 c-23 -43 34 -88 118 -95 71 -5 318 -71 449 -118 53 -19
156 -51 228 -71 72 -19 170 -51 217 -70 48 -18 95 -34 106 -34 46 0 71 71 36
102 -52 45 -172 86 -379 128 -84 17 -165 34 -180 39 -16 4 -56 6 -89 4 -59 -4
-61 -4 -110 39 -105 92 -102 91 -252 92 -119 1 -136 -1 -144 -16z"/>
<path d="M6891 1189 c-114 -25 -143 -54 -105 -107 21 -30 74 -29 167 3 109 38
147 74 117 110 -16 20 -73 17 -179 -6z"/>
<path d="M2370 1010 c-16 -16 -20 -28 -15 -48 4 -15 12 -30 18 -34 47 -30 269
-98 657 -199 168 -44 393 -106 500 -138 259 -78 292 -84 450 -85 164 -1 174 8
78 71 -94 63 -133 76 -198 70 -44 -5 -73 -1 -135 19 -44 14 -131 34 -193 45
-78 13 -131 28 -175 50 -92 47 -157 67 -308 94 -75 14 -167 34 -203 45 -37 12
-146 43 -244 71 -97 27 -184 52 -194 55 -9 3 -25 -3 -38 -16z"/>
<path d="M3183 984 c-15 -23 -15 -29 -2 -52 38 -67 193 -133 361 -152 62 -8
137 -26 223 -56 201 -70 260 -85 312 -82 46 3 48 4 51 35 3 29 -2 36 -43 62
-48 30 -112 49 -256 76 -48 8 -142 38 -209 65 -117 47 -136 53 -223 65 -48 6
-98 27 -116 48 -22 27 -77 22 -98 -9z"/>
<path d="M4363 779 c-41 -41 -9 -54 272 -114 196 -42 322 -77 422 -116 28 -11
35 -11 52 6 45 40 23 64 -98 105 -34 11 -81 32 -104 47 -82 51 -103 56 -302
64 -104 4 -199 10 -210 14 -11 3 -26 0 -32 -6z"/>
<path d="M2650 713 c-60 -42 8 -101 144 -127 40 -8 100 -28 132 -44 117 -59
219 -85 332 -86 92 -1 105 1 118 18 32 44 7 71 -76 80 -94 11 -203 42 -299 85
-153 69 -311 102 -351 74z"/>
<path d="M4539 554 c-23 -28 3 -48 97 -72 49 -13 208 -63 354 -112 146 -49
292 -96 325 -105 61 -16 365 -38 391 -28 42 16 -3 52 -129 103 -74 29 -107 37
-327 76 -52 9 -149 36 -215 61 -97 36 -152 49 -285 69 -196 28 -194 28 -211 8z"/>
<path d="M4319 471 c-23 -19 -23 -21 -9 -48 20 -36 49 -49 151 -69 187 -35
269 10 142 78 -107 58 -239 76 -284 39z"/>
<path d="M3921 461 c-23 -23 -26 -43 -11 -71 11 -20 94 -42 128 -34 14 4 27
-1 39 -16 39 -46 78 -46 103 0 16 29 -29 73 -65 64 -20 -5 -34 1 -65 30 -22
20 -46 36 -53 36 -6 0 -22 3 -34 6 -14 4 -28 -1 -42 -15z"/>
<path d="M4281 336 c-37 -39 -26 -76 32 -105 41 -20 67 -24 160 -27 122 -4
147 0 147 21 0 24 -41 43 -103 49 -72 8 -114 25 -146 60 -30 32 -61 33 -90 2z"/>
<path d="M4656 227 c-20 -15 -25 -62 -8 -79 12 -12 66 -21 132 -22 43 -1 45 0
45 29 0 26 -6 33 -49 53 -65 31 -97 36 -120 19z"/>
</g>
</svg>
