<?xml version="1.0" standalone="no"?>
<!DOCTYPE svg PUBLIC "-//W3C//DTD SVG 20010904//EN"
 "http://www.w3.org/TR/2001/REC-SVG-20010904/DTD/svg10.dtd">
<svg version="1.0" xmlns="http://www.w3.org/2000/svg"
 width="2400.000000pt" height="2400.000000pt" viewBox="0 0 2400.000000 2400.000000"
 preserveAspectRatio="xMidYMid meet">
<metadata>
Created by potrace 1.13, written by Peter Selinger 2001-2015
</metadata>
<g transform="translate(0.000000,2400.000000) scale(0.100000,-0.100000)"
fill="#000000" stroke="none">
<path d="M13422 23138 c-20 -20 -14 -59 18 -123 35 -71 37 -103 9 -139 -133
-169 -828 -150 -1904 51 -312 58 -426 50 -461 -32 -29 -70 -13 -298 26 -375
46 -89 113 -108 255 -72 209 54 834 91 1530 92 730 1 887 34 845 175 -32 107
-160 314 -240 389 -53 49 -60 52 -78 34z"/>
<path d="M9930 22904 c-258 -31 -488 -87 -952 -232 -192 -60 -350 -111 -353
-114 -3 -3 13 -4 37 -2 24 3 228 13 453 25 226 11 455 24 510 30 321 32 565
88 615 141 45 49 29 107 -38 135 -37 15 -201 26 -272 17z"/>
<path d="M10684 22820 c-12 -4 -39 -30 -60 -56 -82 -99 -116 -126 -239 -185
-264 -127 -745 -272 -1195 -363 -265 -53 -392 -69 -540 -70 -120 -1 -141 2
-188 22 -81 35 -89 21 -42 -73 37 -75 38 -109 1 -166 -45 -72 -139 -133 -308
-200 -43 -17 -116 -51 -163 -75 -191 -99 -259 -182 -164 -200 57 -11 114 4
372 93 308 106 496 168 1347 444 902 293 1141 377 1319 465 149 74 178 130
112 215 -60 76 -174 160 -216 158 -8 0 -24 -4 -36 -9z"/>
<path d="M12890 22333 c-603 -12 -1305 -55 -1595 -98 -176 -27 -257 -57 -228
-86 30 -30 97 -33 833 -34 736 -1 839 -5 1003 -36 35 -7 71 -23 93 -40 68 -54
212 -63 448 -28 169 25 265 22 334 -13 42 -20 49 -29 65 -78 22 -67 38 -85
100 -117 77 -39 188 -62 346 -73 308 -20 571 -98 861 -256 74 -40 186 -94 248
-118 302 -121 444 -88 398 94 -36 140 -138 268 -204 257 -84 -15 -717 94 -957
164 -98 29 -183 76 -201 111 -21 40 -11 74 42 149 24 34 44 73 44 86 0 67
-105 95 -425 113 -157 8 -841 10 -1205 3z"/>
<path d="M10425 22021 c-135 -25 -327 -76 -390 -105 -64 -29 -127 -85 -149
-130 -20 -42 -20 -87 -1 -150 29 -95 12 -186 -37 -202 -92 -29 -193 35 -260
165 -38 72 -68 94 -158 111 -64 13 -159 6 -285 -21 -184 -38 -339 -118 -378
-192 -19 -36 -19 -40 -2 -82 34 -91 -21 -132 -198 -146 -182 -14 -338 -50
-617 -141 -302 -99 -574 -210 -851 -348 -281 -140 -395 -222 -502 -359 -23
-30 -64 -71 -91 -90 -44 -31 -58 -36 -130 -41 -94 -6 -122 -21 -155 -81 -33
-57 -21 -66 69 -51 145 25 418 129 860 329 624 283 1098 464 1340 513 175 35
334 105 437 194 23 20 67 72 97 116 97 137 119 127 120 -55 1 -106 0 -113 -33
-180 -38 -77 -107 -152 -169 -184 -22 -11 -161 -61 -309 -110 -672 -223 -1327
-483 -1788 -711 -225 -112 -329 -175 -345 -210 -27 -60 -40 -77 -70 -98 -50
-34 -122 -51 -255 -61 -166 -13 -274 -53 -360 -133 -41 -37 -85 -108 -85 -136
0 -22 46 -12 114 23 80 42 118 44 151 10 88 -87 -65 -277 -322 -397 -152 -71
-282 -83 -344 -31 -16 13 -34 21 -40 18 -24 -15 22 -167 94 -310 48 -97 74
-135 92 -135 26 0 278 217 641 551 226 209 320 290 499 424 591 444 1320 808
1933 966 166 43 238 50 228 23 -3 -9 -6 -17 -6 -19 0 -7 -118 -90 -200 -140
-402 -244 -1044 -530 -1248 -555 -133 -17 -192 -59 -206 -147 -15 -84 -122
-171 -289 -235 -151 -57 -218 -103 -254 -172 -14 -28 -14 -35 2 -82 31 -91 4
-129 -103 -144 -71 -10 -111 -29 -219 -106 -245 -176 -720 -643 -969 -954
-138 -172 -197 -290 -146 -290 57 0 446 318 946 773 538 490 914 805 1038 868
67 34 158 0 158 -60 0 -71 -106 -219 -263 -367 -50 -47 -200 -173 -332 -279
-390 -313 -629 -530 -1015 -922 -442 -448 -717 -787 -737 -907 -5 -33 -4 -36
19 -36 32 0 118 56 238 155 52 43 394 378 760 745 828 830 968 954 1136 999
81 22 128 -5 209 -122 52 -74 105 -103 163 -87 58 15 140 74 287 205 203 181
381 291 563 349 67 21 103 26 185 26 171 0 212 -15 171 -62 -11 -12 -82 -71
-159 -133 -165 -131 -227 -197 -223 -234 3 -22 9 -26 42 -29 114 -9 356 186
441 356 34 68 33 97 -5 111 -58 20 -33 89 94 256 112 147 122 195 43 195 -103
0 -324 -107 -762 -370 -439 -263 -697 -388 -782 -378 -25 3 -28 7 -27 39 2 72
147 246 273 328 73 47 158 81 202 81 48 0 175 46 279 102 96 51 214 130 390
258 122 90 292 175 388 195 73 15 104 13 151 -11 39 -21 95 -18 116 6 10 11
22 42 26 70 16 102 86 151 239 169 100 12 156 30 223 73 97 62 137 158 83 194
-20 12 -41 14 -103 9 -87 -7 -112 2 -147 48 -18 25 -21 40 -18 119 4 132 -20
153 -118 103 -88 -44 -147 -26 -156 50 -7 58 20 96 98 134 87 43 200 59 302
43 132 -20 186 -64 158 -127 -9 -19 -7 -28 8 -47 29 -36 185 -37 396 -4 152
25 264 33 264 20 0 -20 -35 -56 -143 -143 -67 -54 -135 -112 -150 -129 -107
-113 115 -132 993 -86 598 31 1246 29 1730 -6 866 -64 1745 -213 2535 -432
121 -34 258 -72 305 -84 174 -48 229 -19 162 87 -66 104 -235 178 -407 179
-112 1 -141 41 -85 118 38 53 101 99 154 113 60 16 179 5 271 -26 44 -15 163
-67 265 -115 279 -133 423 -171 514 -136 80 31 103 111 46 159 -29 25 -48 30
-165 42 -153 17 -455 127 -802 294 -231 111 -359 164 -571 240 -404 145 -1021
301 -1457 370 -315 49 -396 55 -733 54 l-324 -1 224 89 c122 49 265 101 317
114 144 38 304 51 474 37 401 -33 835 -158 1607 -462 393 -155 527 -203 735
-265 608 -179 774 -118 323 119 -101 53 -569 265 -818 370 -457 193 -2057 608
-2623 681 -140 18 -176 19 -214 4 l-28 -10 36 -32 c20 -18 52 -44 71 -59 41
-31 72 -90 64 -122 -8 -33 -53 -74 -92 -85 -81 -22 -156 31 -217 156 -68 140
-166 223 -262 223 -38 0 -52 -5 -75 -28 -42 -42 -47 -88 -20 -188 27 -100 21
-145 -23 -178 -25 -18 -42 -21 -140 -21 -99 0 -118 3 -162 25 -28 14 -60 40
-73 60 -25 36 -25 40 -5 171 4 31 1 39 -26 62 -43 36 -90 47 -203 47 -245 0
-567 -111 -717 -247 -66 -59 -91 -104 -71 -128 18 -22 119 -19 316 10 189 28
194 28 194 17 0 -5 -28 -18 -62 -31 -133 -46 -216 -111 -192 -148 33 -53 145
-86 347 -104 162 -15 388 -8 907 26 212 14 387 25 390 24 13 -2 -633 -163
-760 -188 -227 -46 -423 -64 -624 -58 -104 3 -194 12 -231 21 -33 9 -96 16
-140 16 -119 0 -185 -36 -185 -99 0 -35 -66 -98 -128 -122 -71 -27 -247 -38
-319 -20 -74 19 -93 42 -93 114 0 80 65 275 145 432 109 217 205 337 438 551
132 121 73 159 -178 115z m3160 -1221 c94 -6 213 -15 265 -21 109 -12 939
-206 1075 -251 121 -40 249 -103 292 -144 34 -32 35 -36 31 -88 -8 -98 -87
-183 -193 -207 -71 -16 -131 5 -178 63 -43 54 -142 100 -308 142 -360 92 -930
161 -1709 206 -102 6 -529 15 -950 20 -421 5 -828 14 -905 20 -279 22 -359 62
-243 122 104 54 652 110 1338 137 302 12 1288 12 1485 1z m-4376 -519 c71 -45
-310 -292 -882 -571 -438 -214 -787 -350 -907 -353 -61 -2 -65 -1 -68 22 -8
54 201 217 478 373 133 76 432 226 582 294 394 177 731 276 797 235z"/>
<path d="M7310 21405 c-169 -34 -358 -124 -473 -225 -56 -49 -40 -60 93 -60
137 0 279 34 413 101 65 32 222 139 235 160 11 17 9 21 -13 29 -36 14 -176 11
-255 -5z"/>
<path d="M11374 20130 c-124 -10 -801 -75 -964 -93 l-105 -12 -16 -35 c-9 -19
-39 -115 -67 -212 -57 -196 -85 -260 -137 -313 -40 -40 -71 -44 -131 -19 -53
22 -204 14 -299 -16 -208 -65 -436 -214 -568 -369 -89 -104 -168 -290 -147
-345 31 -82 251 -71 295 15 19 36 19 82 0 158 -18 68 -10 119 25 164 25 32 58
42 190 62 406 61 713 173 855 313 54 53 95 130 95 181 0 113 150 212 426 282
161 40 306 60 499 67 211 9 370 0 545 -29 239 -39 350 -28 350 35 0 65 -79
122 -210 151 -90 19 -465 28 -636 15z"/>
<path d="M12795 19993 c-155 -22 167 -129 854 -284 174 -39 430 -104 571 -144
1340 -384 3319 -1250 3608 -1580 38 -43 82 -134 89 -183 7 -54 -13 -72 -84
-72 -140 0 -409 133 -889 438 -422 268 -839 503 -1128 636 -160 73 -409 158
-735 252 -1232 353 -3004 637 -3821 611 -213 -7 -326 -23 -395 -57 -70 -34
-95 -99 -54 -136 31 -28 165 -23 390 15 206 34 347 47 403 37 60 -11 46 -42
-39 -87 -102 -56 -231 -94 -485 -145 -643 -130 -1147 -278 -1413 -416 -94 -49
-129 -86 -120 -128 9 -46 -4 -75 -54 -126 -119 -119 -409 -273 -713 -379 -174
-60 -330 -94 -487 -105 -158 -12 -242 -33 -316 -79 -51 -33 -87 -82 -87 -120
0 -119 -390 -541 -880 -953 -368 -308 -669 -508 -767 -508 -69 0 -65 73 9 185
49 75 150 171 348 332 588 480 1326 1210 1434 1420 19 37 21 111 4 147 -33 74
-119 28 -352 -192 -215 -204 -309 -229 -439 -116 -40 34 -45 36 -99 32 -72 -5
-163 -51 -293 -147 -197 -146 -353 -291 -940 -871 -574 -567 -881 -843 -1095
-985 -69 -45 -131 -90 -139 -98 -25 -31 -9 -60 54 -95 51 -28 68 -32 115 -29
174 10 517 299 1090 917 434 468 766 769 957 868 68 35 74 36 105 23 18 -7 45
-16 61 -18 37 -7 35 11 -8 97 -67 132 -32 200 93 183 76 -10 102 -27 102 -69
0 -113 -188 -328 -825 -944 -403 -389 -692 -686 -943 -968 -530 -595 -839
-1046 -772 -1127 18 -22 86 -19 132 7 47 27 73 67 82 127 14 95 90 144 244
160 101 11 141 28 176 74 18 25 21 40 18 113 -3 82 -1 89 38 170 133 274 548
673 701 674 69 0 89 -57 43 -126 -32 -50 -57 -70 -176 -149 -53 -36 -117 -88
-143 -117 -58 -66 -115 -179 -115 -227 0 -61 -29 -162 -70 -246 -38 -79 -77
-134 -196 -277 -296 -355 -654 -1071 -671 -1345 -14 -210 104 -271 223 -116
45 59 74 143 85 244 5 50 22 123 40 175 152 432 780 1367 1399 2084 190 220
508 535 680 672 217 173 462 349 785 563 471 312 881 555 1255 745 321 162
497 227 594 217 127 -12 141 -151 25 -250 -45 -39 -71 -49 -180 -66 -88 -15
-208 -64 -408 -167 -385 -200 -751 -439 -1191 -779 -98 -75 -155 -99 -175 -72
-7 9 -17 17 -22 17 -39 0 -573 -507 -1027 -976 -822 -846 -1182 -1267 -1222
-1427 -5 -23 -3 -29 15 -34 45 -12 14 -89 -89 -222 -68 -88 -105 -158 -121
-228 -45 -192 133 -215 259 -35 71 101 134 162 167 162 29 0 67 -35 148 -133
21 -26 49 -50 62 -53 33 -8 80 20 116 69 61 84 182 344 245 528 92 271 26 256
-149 -34 -146 -243 -204 -309 -242 -277 -56 47 58 491 182 705 345 599 1665
1740 2788 2412 430 257 713 386 1035 473 159 43 255 82 274 112 19 32 -5 70
-79 121 -88 60 -110 81 -131 125 -13 29 -14 42 -5 72 15 52 71 122 127 159 55
36 114 41 172 14 21 -10 100 -81 177 -158 148 -149 208 -191 286 -201 89 -11
144 58 156 193 6 69 10 80 42 116 98 109 360 171 771 184 126 4 266 1 395 -8
288 -20 321 -19 399 20 110 54 184 159 174 247 -9 80 -147 82 -543 8 -137 -25
-333 -61 -435 -80 -104 -19 -238 -37 -305 -41 -118 -6 -121 -5 -149 19 -37 32
-47 107 -21 162 22 46 100 93 165 101 130 15 174 25 211 49 50 34 70 66 80
129 13 84 67 109 147 68 121 -62 447 -124 897 -171 1083 -113 2379 -507 3472
-1053 360 -181 617 -336 963 -581 351 -248 494 -260 654 -55 100 128 141 238
116 313 -28 86 -206 288 -388 438 -172 144 -302 221 -406 242 -48 10 -64 18
-75 38 -32 57 38 171 124 204 50 19 90 14 150 -16 52 -26 81 -25 110 5 18 17
25 35 25 62 0 32 -8 45 -62 98 -164 159 -625 418 -1058 592 -260 105 -429 144
-438 100 -5 -25 62 -88 173 -160 50 -32 225 -125 390 -207 287 -142 394 -204
478 -276 86 -72 110 -138 63 -169 -84 -55 -320 -8 -558 111 -270 135 -520 227
-664 244 -132 15 -204 68 -204 149 0 29 -59 92 -105 112 -22 9 -60 20 -85 24
-127 18 -603 118 -1050 220 -483 110 -867 182 -1203 225 -143 18 -417 42 -442
38 -5 0 -23 -3 -40 -5z m-1735 -933 c69 -13 82 -24 68 -55 -23 -51 -218 -163
-358 -206 -95 -30 -238 -33 -287 -6 -67 36 -100 114 -68 163 22 33 124 81 211
98 82 17 359 20 434 6z"/>
<path d="M16755 19825 c-40 -15 -68 -41 -62 -60 2 -5 20 -19 41 -29 31 -15 60
-19 150 -18 167 1 233 31 161 73 -76 45 -215 61 -290 34z"/>
<path d="M13037 18996 c-200 -44 -139 -162 166 -316 150 -77 192 -106 177
-125 -27 -33 -216 -29 -775 16 -315 26 -700 31 -790 10 -73 -16 -131 -45 -145
-71 -6 -10 -13 -40 -17 -65 -16 -118 -96 -137 -295 -71 -80 27 -148 34 -148
15 0 -6 9 -23 21 -37 60 -77 -52 -179 -366 -332 -110 -53 -211 -106 -225 -118
-23 -19 -24 -22 -10 -36 12 -12 58 -20 174 -31 179 -16 218 -30 193 -68 -7
-11 -69 -59 -137 -106 -68 -48 -128 -94 -134 -104 -16 -25 7 -37 74 -37 63 0
100 -8 100 -22 0 -5 -21 -32 -47 -60 -220 -235 -1443 -948 -1776 -1035 -35 -9
-71 -14 -80 -10 -62 24 46 143 390 430 236 197 226 196 -113 -10 -386 -233
-624 -372 -848 -493 -308 -166 -315 -170 -397 -250 -84 -82 -122 -147 -132
-223 -19 -138 -152 -359 -412 -682 -217 -270 -340 -456 -372 -564 -26 -90 -88
-232 -218 -501 -68 -140 -140 -303 -160 -361 -40 -122 -55 -220 -35 -244 17
-21 23 -19 61 12 58 49 146 199 304 517 182 368 288 551 520 901 408 617 833
1120 1073 1269 74 46 212 72 240 44 43 -43 -22 -126 -434 -556 -378 -396 -577
-654 -625 -814 -36 -117 0 -168 117 -168 67 0 119 22 184 77 61 53 112 136
165 273 102 263 299 516 508 653 101 67 152 87 218 87 44 0 55 -4 79 -30 45
-49 54 -137 18 -190 -35 -52 -103 -81 -207 -91 -128 -12 -191 -43 -227 -111
-31 -60 -5 -167 46 -188 89 -37 245 74 595 423 240 239 356 338 540 460 138
91 368 206 470 236 144 42 480 88 559 76 57 -9 70 -18 62 -43 -13 -41 -160
-114 -396 -197 -243 -85 -429 -187 -655 -359 -244 -186 -576 -517 -836 -836
-494 -606 -928 -1367 -1131 -1984 -92 -282 -174 -686 -138 -686 25 0 214 423
357 800 85 223 125 300 188 363 65 66 115 82 218 72 158 -16 247 -12 296 14
100 52 195 168 301 366 351 656 895 1203 1513 1521 409 210 777 306 1172 308
210 0 312 -12 525 -64 205 -51 303 -63 463 -57 158 5 191 14 253 70 75 68 64
110 -41 157 -119 54 -333 87 -641 99 -661 25 -1348 -65 -1688 -222 -525 -244
-1582 -1242 -1831 -1732 -35 -68 -48 -108 -56 -164 -21 -168 -124 -241 -256
-182 -61 28 -68 48 -43 122 65 193 346 654 531 871 142 167 278 339 340 429
166 242 596 562 1079 803 248 123 355 163 587 215 301 69 345 110 248 233
-122 156 -363 288 -524 288 -21 0 -46 7 -57 15 -18 15 -17 17 31 60 27 25 81
61 120 82 64 34 76 37 150 37 131 -1 202 -38 410 -215 163 -138 205 -163 205
-121 0 10 -18 74 -41 143 -36 108 -40 133 -37 193 3 61 7 71 32 93 24 20 35
23 65 18 70 -13 131 -82 131 -149 0 -35 57 -80 132 -105 102 -33 228 -50 463
-61 228 -10 398 -33 565 -75 140 -35 181 -50 330 -120 158 -74 222 -90 277
-72 33 10 43 21 75 86 45 89 76 123 142 156 54 27 133 34 154 13 30 -30 0 -94
-87 -190 -179 -195 -340 -225 -711 -133 -213 52 -269 60 -475 60 -205 0 -290
-13 -370 -58 -112 -63 12 -111 455 -176 264 -39 341 -54 530 -101 291 -73 512
-156 658 -246 190 -118 316 -164 352 -128 6 6 15 38 20 70 4 32 11 67 15 77
10 24 57 47 97 47 50 0 180 -58 296 -130 249 -156 697 -515 923 -740 151 -150
205 -217 215 -269 6 -26 3 -32 -20 -41 -32 -12 -82 -2 -212 42 -178 60 -196
17 -103 -244 41 -115 49 -168 25 -168 -17 0 -88 49 -243 168 -127 98 -197 135
-245 130 -30 -3 -33 -6 -36 -39 -6 -73 124 -285 321 -520 300 -358 607 -507
740 -359 49 53 62 99 61 205 -2 91 -15 160 -59 295 -51 154 -76 289 -82 435
-5 127 -8 145 -34 196 -136 272 -908 952 -1317 1160 -132 68 -165 73 -445 66
l-238 -5 -27 23 c-24 21 -27 30 -27 87 0 125 89 249 198 279 63 17 198 5 292
-26 451 -149 1100 -683 1922 -1580 422 -461 785 -785 880 -785 46 0 43 81 -7
186 -66 138 -148 244 -446 579 l-169 190 -46 -9 c-99 -19 -199 24 -199 86 0
13 -11 46 -24 73 -49 104 -150 222 -445 515 -293 292 -400 415 -447 515 -35
75 -33 89 15 82 75 -10 231 -127 501 -377 375 -347 612 -476 783 -426 113 33
254 14 342 -45 19 -13 165 -179 323 -369 361 -434 429 -502 482 -485 42 13 44
108 5 185 -215 427 -1736 1863 -2550 2407 -210 140 -400 237 -715 363 -739
296 -1718 537 -2108 518 -137 -7 -187 -37 -163 -99 39 -102 270 -169 636 -184
168 -7 310 -24 495 -62 461 -92 989 -284 1230 -446 25 -17 74 -56 110 -87 118
-104 257 -180 328 -180 69 -1 228 -94 466 -272 470 -353 1051 -891 1130 -1046
18 -36 15 -62 -6 -62 -29 0 -161 72 -284 155 -159 108 -274 196 -569 435 -488
396 -829 629 -922 630 -72 1 -215 80 -347 193 -138 118 -336 207 -616 277
-267 66 -680 122 -680 92 0 -10 142 -78 345 -166 755 -324 1347 -640 1523
-812 59 -56 63 -64 60 -99 -6 -77 -68 -72 -190 16 -145 104 -422 231 -886 405
-626 235 -1202 404 -1374 404 -71 0 -102 -13 -132 -53 -20 -27 -20 -28 -1 -83
23 -68 14 -100 -36 -126 -153 -79 -484 -55 -581 42 -34 34 -38 43 -38 89 0 69
-20 104 -72 129 -72 35 -160 43 -485 45 -273 2 -314 4 -329 18 -15 15 -13 18
27 40 63 36 101 88 107 148 4 46 -1 61 -62 183 -82 167 -109 267 -104 388 4
123 13 132 166 159 508 91 1091 135 1502 112 225 -13 356 -31 527 -71 173 -41
277 -53 359 -40 107 17 139 39 227 154 56 73 149 98 284 77 43 -7 179 -46 303
-86 124 -41 255 -79 292 -86 62 -11 69 -11 88 6 24 22 25 42 5 119 -48 183
-119 281 -285 391 -118 79 -231 133 -386 184 -159 53 -256 72 -396 78 -139 7
-215 -6 -304 -50 -82 -40 -95 -31 -63 43 30 70 20 97 -46 130 -43 21 -66 25
-160 27 -62 1 -135 -3 -168 -11z m-638 -576 c65 -12 121 -38 121 -55 0 -28
-72 -40 -240 -40 -167 0 -240 12 -240 39 0 15 57 42 115 55 55 12 182 13 244
1z m-1543 -1391 c23 -38 -510 -453 -956 -744 -418 -273 -661 -374 -731 -304
-19 19 -21 30 -16 80 6 65 46 150 84 174 13 9 45 20 71 25 119 22 370 145 667
324 385 232 434 261 564 329 137 72 263 126 293 127 9 0 20 -5 24 -11z"/>
<path d="M15084 18509 c-88 -20 -105 -81 -41 -142 72 -68 288 -137 427 -137
85 0 110 14 110 62 0 107 -335 253 -496 217z"/>
<path d="M15870 18116 c0 -43 215 -230 511 -445 78 -57 316 -222 528 -366 663
-449 990 -678 1306 -914 306 -229 380 -275 433 -269 26 3 27 5 26 63 -1 47
-14 92 -58 207 -108 284 -182 573 -206 803 -16 151 -24 180 -63 207 -68 48
-237 18 -326 -59 l-36 -31 19 -36 c11 -20 55 -64 99 -99 171 -132 217 -188
217 -262 0 -98 -71 -98 -293 1 -212 94 -502 265 -957 564 -337 222 -586 374
-795 488 -243 131 -405 191 -405 148z"/>
<path d="M15150 17966 c0 -52 408 -338 1030 -721 486 -300 647 -373 743 -336
27 10 57 61 57 96 0 93 -929 631 -1522 880 -203 86 -308 113 -308 81z"/>
<path d="M11724 17861 c-213 -44 -391 -106 -382 -133 16 -48 385 -77 568 -44
85 15 170 49 195 76 27 29 16 71 -25 95 -50 29 -229 32 -356 6z"/>
<path d="M10010 17799 c-190 -67 -704 -354 -1165 -649 -791 -506 -1218 -877
-1500 -1300 -172 -258 -479 -863 -541 -1067 -39 -128 -68 -179 -152 -263 -117
-118 -212 -270 -310 -500 -93 -217 -184 -517 -226 -750 -55 -303 -65 -390 -45
-390 11 0 105 190 359 730 217 462 584 1199 715 1440 447 816 719 1140 1447
1722 369 294 489 373 833 546 499 251 770 433 725 487 -17 20 -73 18 -140 -6z"/>
<path d="M14580 17807 c0 -14 91 -105 160 -158 124 -97 350 -246 732 -483 392
-242 879 -585 1263 -891 190 -151 256 -209 735 -649 228 -210 566 -518 750
-686 339 -308 644 -603 695 -673 22 -30 26 -40 16 -47 -34 -20 82 -174 330
-440 l164 -174 3 154 c5 241 -24 448 -73 517 -12 17 -23 21 -43 17 -38 -7
-105 35 -237 149 -145 124 -231 210 -528 524 -275 291 -464 474 -511 496 -17
8 -47 22 -66 31 -203 96 -879 807 -1002 1053 -37 76 -33 98 18 90 143 -23 405
-214 814 -592 596 -552 764 -706 1050 -964 l315 -284 3 189 c4 268 -16 370
-79 417 -26 19 -27 19 -74 -3 -35 -16 -60 -21 -88 -17 -45 6 -68 24 -102 82
-47 82 -329 331 -697 618 -573 446 -943 666 -1124 668 -57 1 -59 0 -148 -70
-174 -138 -395 -147 -302 -12 14 20 26 47 26 60 0 95 -285 273 -1216 760 -473
247 -784 373 -784 318z"/>
<path d="M10201 17490 c-156 -71 -361 -294 -361 -392 0 -67 65 -73 171 -17
190 102 381 353 317 417 -18 18 -77 14 -127 -8z"/>
<path d="M11790 17480 c-96 -4 -215 -8 -264 -9 -49 0 -87 -3 -85 -5 2 -2 135
-27 294 -55 401 -71 750 -137 879 -166 60 -14 110 -25 112 -25 7 0 24 78 24
113 0 65 -45 93 -209 128 -78 16 -141 21 -336 24 -132 1 -319 -1 -415 -5z"/>
<path d="M11772 16410 c-68 -16 -112 -80 -112 -161 0 -47 3 -55 43 -94 57 -57
108 -67 175 -33 35 17 53 34 70 68 27 55 28 82 1 136 -32 67 -105 102 -177 84z"/>
<path d="M13456 15719 c-20 -17 -52 -58 -73 -92 -59 -100 -89 -132 -152 -166
-34 -18 -93 -39 -133 -48 -116 -26 -420 -21 -798 13 -392 34 -716 39 -853 11
-223 -45 -398 -130 -802 -390 -510 -328 -879 -642 -992 -844 -36 -64 -41 -98
-17 -131 21 -30 56 -28 131 7 121 57 312 201 588 442 489 428 683 545 1001
605 119 22 633 31 812 15 351 -33 648 -121 1008 -297 153 -75 474 -254 507
-282 22 -20 22 -49 -3 -89 -17 -29 -25 -33 -64 -33 -108 0 -382 89 -731 237
-385 165 -542 210 -751 220 -160 7 -307 -11 -534 -68 -226 -55 -372 -109 -575
-209 -415 -205 -754 -489 -1049 -880 -390 -517 -626 -1120 -723 -1845 -25
-185 -25 -764 0 -1075 66 -840 131 -1099 415 -1666 157 -313 204 -520 147
-654 -14 -33 -25 -62 -25 -65 0 -12 29 -4 53 15 35 28 55 25 132 -14 181 -95
541 -441 749 -721 76 -103 146 -234 146 -275 0 -58 61 -80 240 -87 394 -15
1100 132 1307 272 43 29 64 54 116 143 94 159 193 351 322 622 143 303 177
350 196 277 4 -14 12 -120 18 -234 11 -202 23 -283 40 -283 25 0 107 195 134
320 18 79 21 130 21 300 0 179 -2 216 -22 293 -39 156 -71 207 -126 207 -35 0
-70 -19 -164 -92 -185 -142 -278 -129 -443 59 -49 56 -61 94 -37 110 7 4 39
10 71 14 84 10 115 44 145 159 33 126 26 676 -14 1075 -82 828 -298 1441 -662
1876 -155 185 -232 239 -340 239 -86 0 -149 -23 -402 -150 -354 -177 -500
-233 -520 -200 -12 20 6 59 60 130 91 117 127 174 155 244 23 58 26 79 21 125
-13 119 -14 113 23 138 86 58 291 95 531 97 188 0 247 -11 369 -70 124 -61
265 -211 428 -454 84 -125 182 -301 213 -381 29 -75 29 -80 23 -205 -7 -153
11 -368 33 -401 21 -33 42 -19 112 80 69 98 99 117 148 94 47 -23 94 -91 170
-247 175 -358 237 -463 320 -539 43 -41 49 -43 92 -38 61 7 75 26 69 97 -7 77
-73 234 -234 555 -157 315 -231 446 -360 644 -383 587 -789 940 -1211 1053
-63 17 -122 22 -327 28 -137 4 -258 10 -267 14 -30 14 -20 44 25 74 123 85
226 112 463 119 519 18 1157 -130 1254 -289 44 -72 16 -105 -72 -87 -29 6 -61
15 -70 20 -30 16 -128 38 -143 32 -46 -17 7 -121 192 -378 429 -596 775 -1230
948 -1737 114 -332 225 -1118 225 -1594 0 -262 -17 -355 -67 -362 -47 -7 -104
130 -138 328 -27 151 -36 282 -45 605 -16 584 -55 701 -242 718 -145 14 -292
170 -394 418 -91 225 -170 355 -211 347 -37 -7 -45 -45 -39 -193 3 -96 16
-205 40 -347 73 -423 101 -653 116 -961 14 -306 45 -412 120 -412 28 0 39 6
57 34 59 88 77 275 48 506 -19 153 -19 266 -1 310 16 38 30 43 63 20 62 -44
118 -351 154 -855 17 -237 23 -1047 10 -1295 -20 -387 -43 -538 -112 -755 -44
-140 -50 -212 -16 -218 10 -2 61 18 112 44 75 39 97 46 107 36 10 -10 5 -27
-25 -87 -55 -112 -49 -174 20 -191 61 -16 119 77 153 246 18 88 23 159 30 450
11 452 31 629 86 764 49 121 106 168 263 221 133 44 180 80 211 161 44 119 38
280 -30 824 -116 918 -228 1417 -387 1729 -99 194 -281 575 -430 901 -179 389
-187 408 -170 390 56 -58 344 -433 392 -510 331 -534 746 -1716 839 -2386 8
-60 18 -183 22 -274 7 -184 24 -292 54 -355 28 -58 55 -68 110 -44 111 50 172
5 230 -169 89 -269 131 -903 86 -1297 -70 -609 -232 -1016 -381 -959 -55 21
-64 157 -21 318 43 161 31 262 -35 290 -36 15 -94 6 -134 -20 -33 -22 -65 -75
-65 -110 -1 -90 -73 -154 -193 -173 -87 -13 -136 -44 -244 -153 -100 -100
-152 -168 -271 -356 -152 -239 -272 -366 -337 -360 -27 3 -30 7 -33 41 -4 51
18 123 72 234 25 51 52 116 61 145 42 143 -6 340 -112 458 -51 57 -96 80 -153
80 -56 0 -99 -28 -144 -93 -56 -82 -71 -159 -41 -217 22 -42 57 -48 119 -20
28 13 72 25 98 27 41 4 48 2 63 -21 63 -96 -91 -336 -214 -336 -40 0 -72 41
-80 102 -9 67 -23 88 -60 88 -34 0 -128 -56 -201 -119 -131 -114 -245 -175
-397 -213 -77 -20 -113 -23 -288 -22 -168 0 -217 4 -305 22 -235 50 -372 102
-693 263 -120 60 -223 107 -228 104 -16 -11 11 -46 130 -165 126 -127 216
-192 404 -290 234 -123 511 -230 753 -291 104 -26 150 -33 237 -33 l109 -1 26
33 c98 121 150 145 322 146 126 1 191 -11 286 -54 102 -46 184 -137 184 -204
0 -42 -36 -43 -166 -2 -97 30 -131 36 -206 36 -110 0 -202 -22 -270 -66 -161
-101 -209 -114 -439 -121 -286 -9 -566 40 -755 132 -116 56 -158 100 -167 175
-4 34 -14 61 -27 74 l-20 21 -44 -24 -44 -24 -53 26 c-119 59 -321 231 -574
489 -302 307 -465 519 -490 638 -16 76 -117 231 -291 450 -129 161 -363 399
-418 424 -35 16 -40 17 -54 2 -46 -46 99 -337 345 -693 551 -797 1485 -1646
1993 -1811 207 -68 722 -90 1100 -47 240 27 410 87 555 196 141 105 253 230
575 642 140 179 264 316 315 347 133 82 141 -132 14 -370 -117 -218 -295 -446
-539 -690 -319 -320 -438 -385 -744 -411 -130 -11 -466 -1 -741 22 -1034 87
-1782 574 -2392 1559 -50 80 -132 217 -183 305 -242 417 -437 681 -521 707
-48 14 -74 47 -64 80 3 13 18 50 32 82 23 53 25 68 20 140 -7 103 -40 200
-105 307 -89 146 -122 172 -122 94 0 -59 29 -265 56 -394 141 -686 602 -1469
1239 -2106 602 -601 1269 -990 1858 -1082 143 -22 611 -25 757 -5 480 68 826
217 1071 461 69 70 122 137 193 244 133 201 232 299 376 372 45 23 74 29 161
35 129 9 195 35 267 107 40 40 54 64 76 129 55 166 31 167 -172 5 -192 -153
-231 -169 -259 -104 -11 28 -14 63 -11 148 5 132 19 167 81 196 51 23 100 24
192 3 123 -27 181 -33 227 -23 81 19 107 62 119 200 4 53 15 126 24 161 23 92
106 254 164 323 125 147 144 175 181 251 69 139 83 212 84 419 1 151 -3 199
-22 295 -38 185 -94 335 -231 620 -71 146 -134 279 -141 295 -40 98 -93 260
-123 381 -77 306 -74 504 7 504 93 0 185 -233 266 -675 38 -203 60 -298 102
-425 61 -187 129 -310 192 -349 78 -48 114 -12 101 101 -4 35 -40 196 -81 358
-69 279 -87 363 -164 775 -74 393 -198 731 -311 848 -37 38 -52 47 -80 47 -84
0 -109 -93 -65 -239 38 -123 33 -183 -17 -216 -36 -23 -73 -10 -123 43 -61 64
-114 179 -178 387 -269 880 -672 1719 -982 2045 -79 82 -112 105 -211 145 -81
33 -147 130 -160 233 -7 61 18 149 53 192 54 63 147 88 200 53 125 -81 530
-724 806 -1278 167 -334 223 -484 247 -655 22 -153 137 -327 294 -446 81 -61
106 -72 117 -54 12 20 4 57 -55 225 -187 537 -560 1325 -846 1785 -133 216
-185 276 -448 524 -620 587 -892 802 -1123 888 -120 44 -210 46 -553 14 -376
-36 -357 -33 -440 -75 -330 -171 -1147 -905 -1251 -1125 -15 -30 -16 -42 -6
-69 26 -73 3 -148 -86 -270 -76 -105 -94 -141 -90 -179 7 -72 67 -58 163 37
81 79 163 191 271 370 186 307 364 502 614 670 103 69 332 183 455 225 297
104 702 167 894 140 176 -24 294 -92 471 -270 127 -127 201 -219 236 -295 29
-61 30 -89 4 -115 -55 -55 -225 2 -497 167 -154 93 -266 146 -366 172 -412
107 -846 -9 -1174 -314 -132 -122 -287 -337 -369 -510 -53 -111 -60 -148 -40
-197 22 -51 4 -105 -42 -133 -102 -61 -156 -144 -217 -328 -85 -260 -116 -604
-64 -713 31 -64 94 -61 153 7 45 53 66 123 76 255 9 120 22 179 51 235 50 98
147 105 185 13 39 -93 4 -260 -92 -449 -58 -113 -67 -137 -67 -185 0 -70 19
-107 84 -162 91 -77 110 -151 64 -250 -14 -29 -25 -61 -25 -71 0 -28 45 -67
79 -67 79 0 173 218 235 545 41 217 66 322 98 420 58 173 130 285 183 285 37
0 72 20 84 47 16 34 15 41 -19 111 -34 72 -38 113 -13 138 29 28 131 13 228
-35 179 -89 345 -281 485 -561 200 -400 306 -835 317 -1306 7 -268 -2 -371
-53 -635 -72 -377 -110 -644 -124 -855 -5 -84 -13 -141 -23 -161 -35 -68 -135
-129 -265 -165 -106 -29 -377 -31 -500 -4 -205 44 -311 97 -443 222 -110 104
-189 149 -292 167 -60 10 -74 9 -145 -12 -97 -28 -131 -25 -151 11 -14 24 -13
34 12 120 39 135 35 214 -16 289 -68 102 -167 103 -243 3 -27 -35 -29 -43 -28
-128 1 -112 34 -220 125 -398 157 -308 380 -578 595 -721 154 -102 263 -140
294 -102 36 44 -102 201 -285 324 -127 86 -269 223 -304 294 -46 95 -36 157
25 157 35 0 109 -40 178 -97 197 -162 313 -236 433 -279 37 -13 85 -24 106
-24 112 0 157 -101 107 -244 -75 -219 -29 -320 134 -294 138 21 307 140 566
397 208 208 319 303 388 333 57 26 71 14 65 -50 -24 -238 -217 -647 -396 -839
-33 -35 -73 -71 -87 -78 -15 -8 -99 -21 -186 -30 -88 -9 -258 -27 -379 -41
-423 -50 -533 -22 -745 186 -139 137 -320 368 -557 710 -221 318 -342 533
-373 659 -30 119 -59 191 -134 333 -131 247 -204 549 -253 1048 -24 247 -24
931 0 1180 69 703 191 1073 512 1555 454 682 1101 1120 1815 1231 247 38 623
18 793 -43 561 -200 1360 -1037 1782 -1868 224 -441 604 -1323 834 -1937 226
-603 332 -965 351 -1196 17 -212 69 -370 157 -479 97 -120 161 -311 217 -653
50 -304 60 -434 60 -765 0 -287 -2 -316 -21 -387 -37 -129 -72 -160 -142 -122
-72 39 -82 125 -36 303 21 80 26 121 23 178 -3 70 -6 77 -37 105 -27 25 -39
29 -65 24 -47 -10 -94 -63 -122 -140 -25 -68 -27 -86 -44 -361 -14 -221 -44
-473 -91 -785 -27 -177 -41 -303 -42 -380 -3 -171 18 -194 130 -140 41 20 73
30 88 26 60 -15 65 -166 14 -476 -84 -512 -335 -1137 -582 -1448 -27 -35 -81
-88 -119 -119 -84 -66 -108 -103 -108 -162 0 -66 37 -123 102 -155 62 -31 100
-32 173 -7 30 11 55 16 55 11 0 -19 -126 -152 -260 -275 -283 -258 -536 -453
-700 -538 -94 -49 -128 -60 -149 -48 -44 27 47 130 278 316 241 193 396 361
431 468 9 30 9 41 0 52 -18 22 -41 18 -106 -16 -80 -41 -173 -114 -339 -264
-278 -252 -499 -391 -639 -402 -78 -7 -121 8 -142 48 -20 39 -20 100 0 130 41
64 182 137 375 194 159 46 260 96 330 161 l56 52 -1 61 c-1 64 -20 105 -51
113 -54 14 -188 -45 -447 -200 -365 -216 -469 -309 -468 -415 1 -70 72 -148
199 -220 96 -55 168 -77 274 -87 109 -9 139 -21 139 -53 0 -28 -44 -99 -120
-192 -130 -159 -136 -189 -35 -168 94 20 260 93 423 185 305 174 785 507 1062
738 132 111 267 250 276 287 12 45 -12 201 -38 251 -42 81 -63 89 -203 79 -27
-2 -30 0 -28 28 1 17 26 64 57 110 31 44 77 127 105 185 203 432 505 1491 567
1990 14 110 15 150 7 221 -20 156 -75 241 -165 253 -82 12 -138 76 -138 158 1
77 57 118 165 118 91 0 115 27 155 172 118 432 71 1537 -83 1917 -34 83 -60
119 -118 162 -63 46 -107 102 -115 147 -6 31 -3 39 20 59 33 28 51 29 114 5
144 -55 317 -230 394 -399 83 -185 116 -410 127 -893 7 -297 10 -330 30 -381
27 -70 77 -120 122 -122 77 -4 105 111 96 388 -10 287 -59 601 -127 815 -44
138 -138 321 -214 416 -35 45 -114 125 -174 178 -242 212 -374 411 -394 594
-14 134 -35 251 -63 347 -26 89 -60 165 -269 604 -391 819 -538 1266 -497
1507 15 86 40 143 92 212 90 119 150 100 271 -83 101 -151 219 -402 298 -631
49 -144 104 -360 96 -381 -15 -38 -100 70 -424 532 -228 327 -239 342 -245
335 -10 -11 159 -394 451 -1020 93 -201 193 -421 222 -489 125 -297 206 -550
220 -687 12 -111 43 -199 104 -293 62 -97 107 -144 192 -200 88 -60 127 -70
156 -44 17 15 20 26 15 75 -8 94 -58 169 -175 266 -70 58 -96 110 -94 187 0
33 1 101 2 150 3 139 -51 441 -146 820 -20 77 -95 358 -169 625 -73 267 -152
555 -175 640 -24 85 -56 182 -73 215 -75 150 -267 405 -517 686 -192 216 -300
344 -389 462 -70 94 -141 215 -141 241 0 16 -37 49 -79 71 -18 9 -87 23 -152
31 -128 15 -151 22 -174 58 -13 20 -14 31 -4 68 12 42 11 48 -14 90 -38 65
-164 178 -291 262 -61 40 -150 99 -198 130 -108 70 -233 188 -253 238 -14 36
-14 39 6 59 19 19 29 21 83 16 124 -12 374 -123 516 -231 555 -418 1639 -1787
1861 -2349 11 -29 36 -104 56 -167 67 -222 141 -370 223 -450 88 -85 124 -237
145 -615 8 -137 21 -279 29 -315 34 -157 86 -240 150 -240 73 0 106 -63 70
-133 -44 -83 16 -552 142 -1127 122 -551 234 -945 289 -1008 39 -45 59 1 75
170 20 212 -23 577 -96 813 -61 197 -84 304 -85 387 -1 124 30 150 95 78 48
-53 89 -138 136 -279 46 -135 224 -900 245 -1046 21 -147 42 -412 60 -740 17
-311 39 -491 79 -649 33 -129 90 -243 135 -273 47 -32 59 -51 81 -137 68 -267
4 -954 -145 -1562 -57 -232 -111 -398 -234 -719 -55 -142 -99 -261 -97 -262 1
-2 86 82 188 185 195 197 257 278 308 403 100 242 150 626 195 1504 45 901 43
1427 -5 1379 -6 -6 -28 -82 -51 -170 -94 -370 -127 -415 -163 -216 -42 237
-118 1200 -108 1385 4 68 20 81 58 46 14 -13 80 -111 147 -218 189 -306 204
-314 194 -112 -3 69 -24 285 -47 479 -39 343 -49 492 -32 492 11 0 31 -42 117
-247 89 -213 142 -307 223 -394 84 -91 125 -110 222 -102 68 5 78 3 104 -18
60 -47 84 -170 52 -262 -29 -81 -107 -147 -174 -147 -100 0 -174 -192 -226
-590 -29 -215 -39 -405 -39 -705 0 -433 35 -713 106 -855 29 -58 38 -68 87
-91 63 -30 53 -38 -39 -27 -157 17 -237 7 -291 -38 -23 -20 -30 -34 -30 -62 0
-71 57 -126 143 -137 108 -15 160 -108 161 -290 2 -221 -22 -220 -193 7 -40
54 -79 98 -86 98 -16 0 -6 -50 28 -150 34 -101 30 -236 -11 -357 -57 -166
-118 -274 -298 -522 -183 -252 -244 -367 -244 -462 0 -44 4 -55 33 -81 17 -17
57 -45 87 -62 42 -24 56 -37 58 -57 3 -30 -18 -49 -103 -92 -112 -56 -189
-173 -204 -308 -5 -41 -16 -89 -24 -106 -22 -43 -89 -97 -136 -111 -95 -29
-246 -2 -284 50 -18 24 -19 32 -9 65 19 62 93 145 213 240 192 150 239 200
239 253 0 41 -42 101 -160 227 -255 271 -264 324 -104 653 96 197 152 339 203
521 113 397 187 847 198 1197 7 213 -4 313 -39 357 -51 65 -108 -3 -153 -181
-23 -90 -32 -168 -55 -504 -29 -419 -113 -763 -293 -1200 -30 -74 -116 -271
-190 -436 -194 -432 -262 -591 -286 -669 -34 -109 -14 -103 96 27 161 191 246
265 333 288 152 41 129 -172 -40 -380 -246 -301 -334 -421 -374 -513 -37 -81
-39 -104 -16 -127 27 -27 43 -26 170 16 138 44 209 45 224 2 21 -60 -62 -197
-279 -458 -213 -257 -216 -265 -51 -148 552 391 1372 1163 1837 1728 160 196
269 366 269 422 0 27 -46 51 -96 50 -82 -1 -157 -72 -204 -193 -106 -271 -307
-470 -512 -508 -68 -12 -80 -3 -66 47 23 83 107 222 270 446 184 252 303 469
374 681 26 79 36 128 43 223 11 148 27 187 91 219 54 28 138 30 284 7 135 -22
286 -16 341 12 58 30 73 61 57 121 -14 53 -68 113 -102 113 -28 0 -48 46 -70
159 -29 150 -49 360 -60 646 -24 615 -31 760 -45 925 -87 1004 -293 1982 -441
2099 -24 19 -30 20 -48 8 -12 -8 -32 -41 -45 -73 -33 -80 -40 -278 -17 -487
19 -173 19 -167 7 -167 -15 0 -44 86 -166 490 -63 206 -152 492 -198 635 -47
143 -90 280 -97 304 -14 51 -147 371 -337 806 -180 411 -234 541 -303 720 -59
153 -96 273 -86 283 30 30 192 -256 598 -1053 320 -628 443 -843 574 -1007 88
-109 126 -105 106 12 -70 411 -729 1787 -1175 2455 -108 162 -204 275 -233
275 -21 0 -18 -77 6 -152 56 -176 27 -288 -80 -306 -53 -9 -80 -42 -87 -103
-5 -49 7 -90 91 -334 30 -89 73 -230 95 -315 46 -181 84 -303 193 -609 89
-252 131 -407 182 -661 72 -363 114 -711 123 -1015 9 -342 -25 -463 -106 -376
-59 63 -103 260 -121 541 -32 513 -154 1106 -344 1665 -83 245 -129 361 -231
575 -46 96 -92 202 -104 236 -22 67 -43 185 -37 206 2 7 7 26 10 41 4 16 37
58 80 100 57 57 77 83 91 126 57 173 26 384 -88 605 -50 96 -211 309 -291 385
-33 32 -36 33 -36 13 0 -12 45 -157 100 -321 124 -372 170 -545 170 -646 0
-98 -11 -107 -125 -92 -97 12 -149 4 -182 -29 -24 -24 -25 -30 -21 -107 6
-104 49 -234 188 -567 116 -279 216 -569 226 -654 6 -54 5 -60 -16 -76 -24
-18 -24 -18 -6 -64 10 -25 37 -73 61 -106 120 -162 182 -396 154 -580 -18
-121 -59 -180 -124 -180 -72 0 -112 59 -132 193 -27 184 -159 676 -352 1308
-290 948 -489 1394 -818 1827 -96 126 -186 231 -398 462 -322 352 -430 493
-461 599 -31 103 0 173 133 302 97 94 151 131 197 132 44 1 70 -22 93 -82 47
-128 132 -201 233 -201 32 0 48 7 76 33 31 28 37 42 41 84 4 41 1 59 -16 87
-60 97 -268 245 -516 367 -228 111 -389 153 -441 114 -65 -49 -246 22 -572
226 -254 158 -334 182 -406 118z m331 -277 c43 -22 81 -53 128 -106 85 -95
134 -118 261 -124 60 -3 116 1 168 12 162 33 292 14 357 -54 35 -37 67 -118
55 -139 -4 -5 -32 -15 -64 -21 -31 -6 -107 -27 -169 -46 -61 -19 -124 -34
-140 -34 -54 0 -184 39 -279 84 -236 112 -529 376 -500 451 10 27 106 15 183
-23z m61 -1151 c154 -78 497 -399 657 -616 159 -215 213 -373 170 -495 -23
-65 -20 -106 10 -126 32 -21 65 -16 210 31 112 35 175 44 175 24 0 -6 -43 -57
-97 -113 -53 -55 -127 -138 -165 -183 -84 -100 -96 -108 -141 -89 -49 20 -80
66 -140 207 -87 204 -274 514 -480 798 -226 313 -329 508 -304 576 9 23 41 18
105 -14z m4802 -6196 c35 -18 38 -42 9 -79 -49 -63 -33 -221 51 -481 59 -183
74 -271 68 -406 -3 -95 -7 -111 -40 -179 -56 -116 -72 -216 -63 -385 12 -195
11 -286 -4 -312 -15 -29 -22 -29 -55 4 -43 43 -90 136 -156 313 -34 91 -93
240 -131 332 -96 232 -92 267 23 212 138 -66 260 -19 283 109 12 62 -16 117
-92 184 -97 86 -137 177 -149 343 -11 151 36 296 109 341 39 23 107 25 147 4z"/>
<path d="M8515 14998 c-72 -39 -190 -185 -293 -362 -166 -286 -258 -352 -372
-268 -58 42 -105 43 -186 2 -260 -129 -549 -575 -510 -785 20 -105 96 -87 186
45 20 30 65 110 100 178 106 210 224 373 292 405 44 20 115 8 141 -24 40 -49
-1 -164 -190 -544 -223 -446 -280 -638 -290 -992 -8 -251 16 -473 52 -487 63
-24 152 237 211 619 52 342 181 730 366 1108 161 328 266 485 444 662 106 105
137 144 166 202 46 91 54 139 34 187 -23 54 -100 82 -151 54z"/>
<path d="M16780 14952 c-44 -3 -170 -34 -170 -41 1 -3 74 -64 163 -136 736
-593 1142 -1018 1762 -1850 227 -304 319 -418 450 -554 153 -159 236 -209 279
-165 43 43 -47 189 -447 730 -290 392 -336 458 -391 564 -109 210 -115 330
-16 330 95 0 218 -110 378 -339 321 -458 691 -872 864 -966 31 -17 53 -24 59
-18 47 47 -341 649 -708 1098 -146 179 -246 279 -307 308 -32 15 -68 43 -89
69 -55 67 -141 209 -214 352 -108 213 -165 286 -224 286 -82 0 -90 -211 -13
-362 15 -29 44 -75 64 -102 84 -112 116 -239 71 -280 -27 -24 -66 -11 -162 55
-135 93 -211 161 -524 470 -170 168 -345 333 -388 367 -171 136 -310 194 -437
184z"/>
<path d="M16204 14435 c-17 -45 94 -240 275 -480 112 -149 216 -277 416 -510
368 -429 701 -885 944 -1294 232 -390 582 -1224 846 -2016 157 -469 223 -726
250 -965 33 -298 177 -1066 271 -1450 83 -339 150 -460 186 -336 15 52 15 358
-1 521 -35 358 -158 969 -366 1815 -181 742 -247 1068 -249 1240 -1 100 0 105
20 108 25 4 64 -38 99 -108 13 -26 54 -137 91 -246 194 -577 329 -819 486
-866 26 -8 56 -8 96 -2 80 13 79 30 -3 95 -77 60 -121 122 -199 276 -72 145
-120 266 -190 480 -102 315 -184 498 -258 579 -39 42 -44 45 -79 39 -52 -9
-99 14 -170 82 -93 88 -143 157 -304 413 -81 129 -249 388 -372 575 -233 353
-341 546 -350 629 -3 24 -1 46 5 50 73 45 1083 -1230 1644 -2074 102 -153 175
-276 229 -386 84 -171 135 -241 200 -274 51 -27 75 -25 95 5 34 52 3 173 -101
395 -72 155 -118 291 -135 403 -12 83 -9 116 21 181 10 22 19 47 19 54 0 18
-31 15 -84 -8 -40 -18 -51 -19 -85 -9 -93 28 -189 131 -298 317 -116 200 -236
343 -300 358 -15 4 -43 18 -61 31 -76 57 -255 308 -417 588 -145 249 -278 428
-377 506 -51 40 -54 41 -109 35 -30 -4 -63 -4 -73 0 -28 11 -47 61 -56 152
-15 147 -114 318 -243 420 -148 118 -222 124 -222 20 0 -74 50 -174 112 -225
84 -69 130 -120 157 -175 30 -62 45 -151 27 -162 -46 -29 -307 198 -609 529
-369 403 -528 559 -665 652 -76 51 -105 61 -113 38z"/>
<path d="M9426 13876 c-210 -227 -726 -1373 -782 -1739 -20 -126 -35 -162 -76
-187 -50 -30 -112 -35 -204 -17 -100 21 -137 21 -172 3 -118 -62 -182 -260
-336 -1045 -36 -184 -66 -358 -66 -385 0 -71 17 -125 50 -158 51 -50 109 -33
154 45 44 76 57 142 66 342 12 229 31 381 70 529 69 267 183 439 307 462 83
16 191 -35 229 -107 37 -72 0 -166 -84 -212 -28 -15 -64 -43 -81 -63 -93 -106
-209 -442 -228 -660 -7 -87 12 -152 54 -179 14 -10 59 -21 101 -27 93 -11 154
-42 225 -111 116 -113 200 -281 273 -547 68 -246 79 -421 32 -518 -16 -34 -31
-49 -65 -64 -111 -49 -193 39 -212 229 -11 106 -33 164 -73 199 -43 36 -86 30
-112 -15 -28 -48 -34 -206 -12 -326 47 -257 134 -405 238 -405 21 0 51 6 67
14 27 15 85 74 131 135 39 52 75 39 175 -63 98 -98 169 -201 310 -451 394
-694 662 -1020 1056 -1284 220 -148 409 -238 869 -416 677 -260 789 -291 912
-247 68 24 275 158 312 202 31 38 33 60 6 60 -77 0 21 163 254 425 165 185
268 347 301 470 15 61 9 98 -20 109 -82 31 -467 -313 -680 -609 -59 -82 -125
-206 -125 -236 0 -38 -27 -44 -189 -43 -315 1 -670 78 -966 209 -346 154 -610
339 -915 645 -189 189 -291 310 -437 518 -385 549 -659 1240 -773 1947 -38
239 -52 419 -60 800 -9 410 -13 447 -68 548 -27 50 -64 77 -105 77 -13 0 -32
6 -43 14 -18 14 -18 17 -4 43 9 15 49 51 90 80 87 61 176 137 197 169 13 20
12 25 -4 50 -54 84 13 489 147 886 96 283 169 422 272 518 182 167 241 366
124 415 -60 25 -85 20 -130 -29z m-791 -2764 c26 -71 31 -233 11 -312 -9 -36
-24 -75 -32 -89 -14 -20 -18 -21 -29 -10 -31 32 -45 259 -24 389 17 105 42
113 74 22z"/>
<path d="M5944 13871 c-67 -41 -262 -311 -333 -461 -51 -107 -69 -174 -55
-198 46 -73 266 67 363 231 67 113 85 172 89 292 3 96 2 113 -14 133 -19 22
-19 22 -50 3z"/>
<path d="M5450 13836 c-164 -58 -400 -353 -364 -454 8 -22 16 -28 47 -30 53
-5 126 38 221 128 151 144 232 303 180 354 -18 19 -37 19 -84 2z"/>
<path d="M15967 13412 c-82 -91 -21 -368 113 -515 61 -67 108 -88 169 -77 59
11 83 37 89 99 3 36 -2 71 -18 121 -25 76 -106 226 -161 295 -66 83 -154 119
-192 77z"/>
<path d="M6925 13281 c-16 -4 -39 -13 -51 -19 -46 -25 -48 -35 -49 -216 0
-163 -1 -174 -26 -226 -54 -115 -116 -149 -292 -161 -132 -9 -157 -14 -157
-33 0 -15 41 -54 101 -94 164 -110 244 -342 269 -775 35 -612 78 -876 179
-1081 155 -316 195 -232 121 255 -39 254 -35 472 11 684 28 133 44 175 122
334 81 167 93 224 45 229 -14 2 -79 -15 -144 -37 -251 -87 -273 -49 -179 312
42 164 125 438 164 544 37 101 46 158 31 211 -16 62 -74 91 -145 73z"/>
<path d="M6484 13201 c-69 -42 -104 -131 -80 -201 27 -79 115 -180 156 -180
29 0 57 33 70 82 15 55 16 215 2 250 -28 67 -87 86 -148 49z"/>
<path d="M5134 13121 c-111 -29 -225 -127 -264 -226 -31 -79 -34 -183 -6 -214
48 -53 155 -1 302 144 100 99 184 211 184 246 0 10 -11 26 -24 34 -28 18 -146
28 -192 16z"/>
<path d="M8527 13115 c-120 -68 -357 -609 -357 -817 0 -71 12 -98 45 -98 60 0
160 134 271 365 165 343 212 496 166 538 -26 24 -92 30 -125 12z"/>
<path d="M5527 12688 c-86 -115 -130 -297 -147 -612 -16 -289 15 -830 50 -896
43 -80 94 187 161 835 27 257 31 597 8 660 -18 51 -40 55 -72 13z"/>
<path d="M5930 12568 c-55 -90 -78 -290 -61 -547 17 -268 36 -328 86 -281 58
54 106 302 106 540 0 216 -25 311 -84 318 -21 3 -31 -4 -47 -30z"/>
<path d="M9886 12479 c-15 -12 -37 -42 -50 -67 -51 -103 -51 -99 -51 -957 0
-861 3 -914 55 -1104 30 -106 53 -146 101 -173 23 -12 51 -35 62 -49 24 -33
25 -95 3 -138 -24 -46 -20 -76 14 -105 38 -31 82 -41 185 -41 91 1 143 17 151
49 8 33 -26 113 -96 227 -107 174 -149 284 -184 479 -39 217 -47 528 -25 1045
18 429 -7 738 -67 830 -20 31 -61 33 -98 4z"/>
<path d="M4925 12111 c-16 -10 -49 -39 -73 -65 -111 -121 -109 -252 4 -306 63
-31 108 -23 156 28 65 70 88 212 49 299 -30 64 -78 80 -136 44z"/>
<path d="M7355 11996 c-33 -79 -47 -252 -52 -672 -7 -528 17 -1058 67 -1499
26 -230 35 -271 71 -303 44 -39 75 -152 104 -380 33 -260 77 -517 125 -732 59
-268 57 -263 110 -277 57 -14 165 -16 191 -3 29 16 49 64 49 119 0 35 -14 87
-44 168 -244 655 -398 1533 -436 2473 -25 637 -71 1019 -134 1115 -22 34 -34
31 -51 -9z"/>
<path d="M6249 12001 c-22 -17 -24 -28 -27 -118 -4 -120 24 -302 74 -478 36
-125 80 -227 102 -233 17 -5 48 69 63 152 16 94 6 306 -20 420 -25 109 -75
219 -114 252 -34 29 -48 30 -78 5z"/>
<path d="M11621 11998 c-67 -18 -178 -163 -279 -364 -128 -256 -149 -570 -46
-723 54 -81 124 -92 234 -36 76 38 100 43 100 20 0 -49 -65 -139 -130 -180
-75 -48 -126 -58 -282 -59 l-147 -1 -30 -30 c-48 -45 -54 -86 -47 -285 11
-274 -14 -387 -110 -491 -34 -37 -55 -70 -59 -92 -30 -159 244 -555 459 -662
86 -44 142 -47 178 -10 46 46 50 122 9 186 -34 55 -100 105 -205 155 -135 65
-218 161 -232 267 -10 83 52 147 141 147 22 0 66 -11 97 -24 200 -82 467 -394
468 -547 0 -20 -9 -56 -20 -80 -26 -58 -25 -75 5 -104 28 -29 89 -34 134 -11
146 76 266 416 315 896 53 517 13 1054 -105 1420 -62 191 -251 525 -329 582
-36 26 -80 36 -119 26z m124 -314 c74 -96 135 -386 184 -864 46 -444 50 -626
15 -708 -37 -90 -95 -112 -289 -112 -214 0 -356 49 -465 159 -47 47 -60 69
-84 140 -33 94 -45 215 -27 249 17 32 74 29 136 -7 28 -16 99 -74 160 -130
240 -222 346 -215 412 29 14 52 18 106 18 275 0 194 -2 213 -22 257 -40 87
-90 99 -233 54 -95 -30 -123 -32 -146 -9 -29 30 -14 144 45 323 114 352 208
460 296 344z"/>
<path d="M7666 11699 c-51 -40 -27 -122 68 -227 39 -42 86 -68 110 -59 28 11
50 70 50 137 1 53 -3 71 -22 98 -48 67 -153 93 -206 51z"/>
<path d="M10390 11403 c-26 -10 -52 -37 -73 -78 -16 -31 -21 -64 -25 -150 -4
-124 12 -223 52 -310 44 -97 95 -106 165 -30 96 104 154 308 121 427 -23 82
-169 167 -240 141z"/>
<path d="M5376 10916 c-21 -8 -63 -31 -93 -52 -75 -51 -199 -191 -191 -214 2
-6 54 15 121 50 65 33 124 60 132 60 7 0 21 -7 30 -16 19 -19 16 -38 -26 -172
-32 -100 -39 -210 -18 -273 13 -39 46 -79 65 -79 28 0 79 58 110 125 82 177
103 411 46 509 -37 64 -106 88 -176 62z"/>
<path d="M5964 10708 c-64 -29 -97 -175 -96 -423 0 -245 31 -395 81 -395 24 0
64 53 101 133 99 212 95 564 -8 659 -34 32 -52 38 -78 26z"/>
<path d="M6692 10588 c-41 -52 -42 -348 -1 -374 33 -20 89 116 89 215 0 81 -9
117 -36 146 -26 28 -37 31 -52 13z"/>
<path d="M10420 10574 c-29 -76 -1 -314 49 -411 31 -61 119 -133 162 -133 5 0
18 9 29 20 59 59 -21 302 -167 503 -39 53 -59 59 -73 21z"/>
<path d="M8412 10228 c-31 -34 -42 -72 -42 -143 0 -115 60 -222 134 -241 61
-15 156 46 172 112 15 61 -21 151 -89 222 -72 75 -134 93 -175 50z"/>
<path d="M7045 10116 c-43 -102 -94 -372 -115 -603 -7 -74 -10 -210 -8 -310 4
-149 9 -189 28 -248 32 -99 63 -157 105 -193 45 -41 69 -40 110 1 81 81 90
252 32 572 -43 235 -82 503 -97 667 -5 64 -13 124 -16 132 -10 25 -24 19 -39
-18z"/>
<path d="M7941 10125 c-26 -33 -41 -108 -41 -200 0 -118 33 -175 101 -175 68
0 148 95 149 176 0 46 -45 127 -100 178 -56 52 -80 57 -109 21z"/>
<path d="M6379 10093 c-11 -12 -14 -53 -13 -167 2 -156 29 -376 95 -771 35
-209 47 -258 59 -250 21 13 78 339 95 550 4 44 2 134 -4 200 -19 220 -69 361
-149 422 -49 37 -64 40 -83 16z"/>
<path d="M5873 9613 c-19 -46 -12 -118 24 -257 43 -165 153 -440 180 -450 19
-8 36 36 62 161 25 121 26 165 6 269 -19 102 -61 189 -118 243 -86 83 -129 93
-154 34z"/>
<path d="M8016 9514 c-22 -22 -21 -113 4 -201 41 -149 170 -408 242 -487 37
-40 38 -41 54 -21 23 28 13 165 -21 279 -56 194 -156 389 -219 427 -38 23 -40
23 -60 3z"/>
<path d="M5433 9474 c-14 -22 -19 -53 -21 -149 -3 -129 12 -210 38 -210 8 0
28 27 44 59 25 48 31 74 34 145 3 75 0 92 -20 131 -28 54 -50 61 -75 24z"/>
<path d="M19334 9465 c-10 -40 1 -125 25 -186 51 -134 171 -207 245 -148 49
38 29 123 -53 226 -92 117 -201 171 -217 108z"/>
<path d="M14179 8703 c-46 -49 -70 -90 -109 -187 -104 -263 -175 -689 -150
-907 18 -153 62 -222 144 -222 118 0 227 136 212 266 -27 235 -15 376 55 659
79 317 61 428 -70 428 -41 0 -51 -5 -82 -37z"/>
<path d="M7131 8503 c-104 -383 -139 -481 -181 -503 -36 -19 -67 9 -168 151
-66 93 -89 110 -108 84 -18 -24 -28 -155 -21 -277 12 -196 58 -338 123 -378
71 -44 154 -35 220 23 68 59 80 118 43 202 -40 91 -4 192 86 235 39 19 50 20
75 10 45 -19 62 -54 72 -154 16 -159 74 -246 164 -246 54 0 109 21 123 48 31
59 -1 187 -95 375 -56 112 -294 547 -299 547 -1 0 -17 -53 -34 -117z"/>
<path d="M14638 8497 c-81 -62 -138 -195 -122 -284 9 -50 32 -94 88 -170 81
-110 107 -81 131 145 27 249 15 341 -42 342 -6 0 -31 -15 -55 -33z"/>
<path d="M6085 8397 c-19 -19 -38 -52 -45 -78 -17 -61 -7 -241 19 -355 84
-369 274 -788 346 -761 27 11 36 57 36 182 -1 313 -133 875 -237 1012 -34 45
-74 45 -119 0z"/>
<path d="M8264 8365 c-8 -34 13 -182 38 -263 26 -85 69 -171 120 -238 55 -74
85 -166 102 -320 17 -156 50 -251 165 -484 101 -202 152 -292 276 -480 177
-269 383 -505 519 -594 65 -43 144 -59 185 -37 51 28 21 81 -139 246 -239 247
-459 620 -736 1247 -207 469 -383 816 -459 906 -42 48 -62 53 -71 17z"/>
<path d="M16899 8099 c-40 -43 -67 -138 -78 -279 -12 -141 -37 -205 -106 -268
-35 -33 -54 -42 -96 -48 -87 -12 -145 -78 -207 -235 -89 -223 -142 -584 -113
-769 20 -128 75 -215 121 -190 51 27 78 146 90 395 14 285 63 468 148 548 79
76 112 -21 112 -334 0 -420 -76 -994 -191 -1438 -43 -166 -37 -255 20 -305 32
-29 86 -25 123 11 72 68 101 170 118 408 14 208 32 342 80 605 70 390 99 702
107 1181 6 347 -4 564 -32 668 -23 89 -48 102 -96 50z"/>
<path d="M7936 7955 c-100 -101 111 -700 489 -1390 116 -211 212 -370 390
-645 190 -293 233 -365 311 -515 69 -132 117 -249 128 -308 7 -35 4 -41 -32
-78 -22 -21 -44 -39 -48 -39 -25 0 -80 47 -133 114 -115 146 -615 881 -759
1118 -219 359 -397 719 -448 903 -42 155 -135 328 -196 365 -42 25 -110 26
-165 0 -53 -24 -54 -35 -12 -167 44 -139 134 -345 254 -583 186 -369 339 -619
580 -949 88 -121 155 -242 155 -281 0 -12 -7 -28 -16 -35 -14 -10 -15 -15 -4
-36 29 -56 136 -175 308 -344 264 -258 332 -350 332 -445 0 -42 -4 -51 -37
-82 -21 -18 -47 -40 -59 -48 -60 -44 -69 -106 -26 -166 64 -88 250 -234 297
-234 31 0 52 22 66 68 16 52 23 467 10 580 -11 104 -8 120 23 128 58 14 206
-74 441 -263 328 -263 637 -469 901 -601 240 -121 551 -194 689 -162 129 29
109 104 -61 222 -70 48 -93 76 -79 98 12 19 82 30 197 30 188 0 337 -42 389
-109 63 -83 85 -102 157 -139 249 -129 725 -200 879 -132 71 31 67 94 -10 141
-99 60 -236 88 -497 100 -382 17 -390 26 -137 149 91 43 167 86 170 95 13 33
-70 46 -423 70 -518 34 -640 57 -675 126 -24 45 -19 121 8 147 52 49 88 55
279 47 123 -4 183 -3 197 5 78 41 -90 161 -296 212 -104 26 -295 31 -355 10
-53 -19 -88 -58 -88 -99 0 -114 -84 -163 -221 -129 -131 33 -275 114 -499 278
-155 115 -235 164 -340 209 -78 34 -74 34 -275 27 -50 -1 -70 4 -125 31 -93
48 -186 119 -273 210 -87 92 -134 167 -143 231 -12 91 -105 253 -366 638 -163
240 -242 386 -284 521 -73 234 -226 599 -365 871 -119 232 -159 278 -203 235z
m2094 -3061 c741 -328 1060 -512 1085 -623 8 -38 -26 -102 -86 -162 -69 -69
-127 -49 -209 70 -81 119 -152 158 -232 128 -48 -19 -74 -15 -148 23 -149 75
-437 355 -574 559 -30 44 -47 91 -32 91 2 0 90 -39 196 -86z"/>
<path d="M6920 7339 c-116 -25 -70 -196 153 -569 187 -311 746 -1109 1196
-1705 142 -188 289 -325 349 -325 22 0 24 3 19 35 -27 165 -578 983 -866 1285
-84 87 -150 203 -350 605 -172 344 -267 505 -361 608 -56 62 -89 77 -140 66z"/>
<path d="M15311 7264 c-120 -131 -257 -438 -360 -804 -66 -237 -94 -388 -95
-525 -1 -112 1 -124 28 -183 50 -112 23 -109 -257 29 -215 106 -322 142 -422
143 -132 1 -177 -52 -199 -234 -11 -85 -21 -126 -44 -173 -105 -211 -417 -472
-678 -566 -58 -21 -145 -40 -286 -60 -216 -32 -233 -38 -276 -101 -41 -61 -55
-132 -50 -254 4 -82 11 -126 27 -169 40 -102 86 -140 182 -153 112 -14 173
-68 184 -161 9 -80 23 -120 48 -138 45 -31 67 38 67 207 -1 226 -72 408 -160
408 -34 0 -60 28 -60 66 0 72 90 194 144 194 33 0 70 -32 117 -101 49 -73 78
-92 133 -91 74 1 153 49 316 192 123 108 244 191 344 234 75 32 91 33 311 24
73 -3 85 0 134 27 34 19 67 47 85 74 99 143 141 151 220 41 20 -27 40 -50 44
-50 18 0 63 59 90 120 67 148 123 359 218 819 112 545 188 871 253 1090 17 57
31 114 31 127 0 41 -34 28 -89 -32z m-804 -1576 c102 -95 4 -316 -191 -432
-61 -37 -112 -46 -134 -24 -21 21 -13 96 18 176 32 83 105 209 148 256 54 58
113 67 159 24z"/>
<path d="M6482 6949 c-48 -31 -82 -95 -82 -156 0 -41 7 -61 38 -109 108 -166
189 -144 207 56 16 183 -57 276 -163 209z"/>
<path d="M19217 6695 c-29 -29 -42 -89 -42 -195 0 -120 14 -159 64 -180 38
-15 70 -8 111 26 98 83 90 202 -20 316 -49 51 -85 61 -113 33z"/>
<path d="M6882 6540 c-37 -35 -30 -87 21 -162 43 -63 116 -128 143 -128 41 0
84 112 69 183 -10 45 -51 96 -91 113 -50 21 -116 18 -142 -6z"/>
<path d="M16238 5989 c-104 -109 -177 -363 -197 -690 -17 -257 -73 -449 -164
-557 -74 -87 -108 -252 -88 -428 20 -189 93 -411 149 -455 14 -11 40 -19 60
-19 31 0 45 9 103 69 81 82 102 132 76 185 -15 33 -31 48 -127 118 -64 47 -93
107 -86 179 7 73 45 176 118 323 110 220 163 375 218 634 64 308 74 583 24
660 -21 32 -42 27 -86 -19z"/>
<path d="M7298 5899 c-25 -14 -29 -54 -14 -128 34 -162 131 -265 231 -247 39
8 65 38 65 76 0 66 -91 200 -178 263 -53 38 -82 48 -104 36z"/>
<path d="M6834 5855 c-23 -36 -15 -187 15 -275 67 -193 166 -317 187 -234 19
75 -24 296 -81 420 -51 111 -88 139 -121 89z"/>
<path d="M9973 5752 c-23 -15 -33 -66 -35 -177 0 -92 3 -120 18 -152 26 -53
62 -68 110 -48 101 42 184 6 343 -148 64 -63 138 -129 166 -147 98 -67 218
-101 231 -65 3 8 -4 36 -17 62 -53 110 -575 580 -736 662 -45 22 -61 25 -80
13z"/>
<path d="M15334 5665 c-9 -14 -52 -129 -96 -256 -111 -325 -170 -434 -258
-479 -51 -26 -134 -26 -225 0 -38 11 -96 20 -128 20 -101 0 -140 -40 -153
-156 -12 -114 -94 -242 -269 -422 -55 -57 -145 -141 -200 -185 -263 -215 -367
-354 -291 -388 50 -23 167 19 368 132 156 88 217 83 233 -19 11 -72 19 -87 48
-90 116 -14 466 324 702 677 147 221 244 454 303 726 21 99 25 145 24 260 -1
187 -18 241 -58 180z m-394 -992 c0 -16 -47 -84 -237 -345 -107 -148 -198
-268 -203 -268 -5 0 -12 10 -14 23 -3 12 -7 35 -11 50 -22 107 122 302 353
477 88 66 112 80 112 63z"/>
<path d="M18889 5394 c-124 -83 -301 -250 -335 -315 -12 -25 -13 -34 -2 -56
21 -42 41 -49 94 -35 94 25 207 127 262 237 28 56 65 182 57 195 -10 16 -19
13 -76 -26z"/>
<path d="M7654 5274 c-16 -23 -16 -29 0 -87 83 -297 560 -834 1041 -1172 179
-126 277 -227 291 -301 9 -50 -17 -78 -66 -69 -120 22 -339 171 -704 480 -234
197 -441 313 -471 264 -12 -19 43 -113 112 -190 132 -147 276 -274 553 -484
246 -188 596 -467 746 -596 148 -127 218 -177 329 -232 126 -64 200 -86 320
-97 190 -18 274 -57 379 -174 83 -94 160 -136 245 -136 100 0 126 42 73 116
-95 130 -329 296 -694 490 -298 158 -484 278 -586 377 -63 61 -75 81 -67 107
5 17 15 20 62 20 161 0 679 -254 1128 -553 262 -174 404 -302 455 -409 79
-168 284 -270 545 -271 102 -1 129 3 177 21 76 31 124 84 133 149 12 90 16
102 50 131 60 53 161 50 375 -10 228 -64 227 -79 -13 -188 -136 -61 -170 -84
-147 -100 20 -13 75 -12 265 5 292 27 457 15 564 -40 60 -30 92 -66 130 -143
41 -85 65 -117 105 -141 40 -25 102 -27 152 -6 109 45 282 308 314 477 19 98
-24 179 -120 228 -77 39 -104 14 -61 -57 11 -17 25 -50 31 -72 31 -117 -90
-260 -224 -263 -68 -1 -95 15 -180 107 -200 219 -644 429 -1142 539 -87 19
-383 67 -657 106 -412 58 -512 76 -579 100 -105 39 -207 94 -326 178 -126 90
-406 263 -712 442 -284 166 -396 238 -558 359 -282 211 -513 428 -690 651
-189 237 -351 392 -467 446 -65 31 -90 30 -111 -2z m3483 -2371 c159 -67 323
-185 357 -257 21 -45 20 -53 -8 -71 -19 -13 -32 -14 -71 -5 -135 30 -412 218
-461 312 -35 67 50 76 183 21z"/>
<path d="M19053 5103 c-14 -21 -19 -53 -21 -136 -4 -125 2 -186 23 -213 15
-18 16 -18 35 4 46 55 73 211 50 291 -9 33 -46 81 -62 81 -4 0 -16 -12 -25
-27z"/>
<path d="M7315 5064 c-33 -36 -49 -118 -36 -188 11 -57 31 -110 53 -137 68
-82 196 -61 240 39 32 71 7 151 -75 239 -72 78 -137 95 -182 47z"/>
<path d="M16533 4931 c-113 -52 -212 -232 -171 -311 64 -120 298 65 301 237 0
38 -4 50 -27 70 -33 28 -48 28 -103 4z"/>
<path d="M12046 4817 c-14 -14 -26 -36 -26 -49 2 -137 261 -298 345 -213 30
29 31 56 5 111 -42 86 -150 161 -245 171 -48 5 -56 3 -79 -20z"/>
<path d="M14168 4830 c-154 -46 -653 -452 -765 -622 -80 -120 68 -115 310 9
145 75 324 200 413 287 64 64 86 93 103 139 27 75 28 150 1 177 -22 22 -23 22
-62 10z"/>
<path d="M18804 4201 c-103 -35 -289 -177 -473 -361 -196 -196 -308 -357 -295
-426 14 -76 -51 -126 -179 -138 -125 -12 -252 -79 -368 -195 -77 -77 -163
-196 -153 -212 16 -27 182 18 281 78 247 146 812 668 1120 1034 72 86 143 192
143 215 0 21 -25 23 -76 5z"/>
<path d="M9701 4191 c-28 -28 -27 -36 11 -111 43 -88 138 -182 222 -221 58
-27 75 -31 128 -27 53 4 65 9 89 36 43 48 40 91 -12 147 -71 77 -262 177 -366
191 -44 5 -54 3 -72 -15z"/>
<path d="M10477 3736 c-128 -46 -80 -124 144 -234 402 -199 838 -279 805 -147
-16 64 -187 200 -339 270 -216 99 -499 150 -610 111z"/>
<path d="M12790 3644 c-769 -61 -1075 -109 -1110 -175 -17 -30 -11 -74 16
-125 65 -124 124 -149 338 -142 168 6 315 35 582 113 347 103 709 248 734 295
8 16 6 22 -12 32 -33 18 -331 20 -548 2z"/>
<path d="M16225 3644 c-291 -87 -655 -300 -655 -383 0 -85 -765 -628 -1326
-942 -169 -95 -266 -138 -346 -155 -121 -26 -204 -65 -373 -178 -97 -65 -209
-165 -231 -208 -29 -56 -15 -78 50 -78 92 0 195 58 274 155 75 93 115 106 240
79 24 -5 58 1 120 22 110 35 417 188 587 292 72 43 212 129 311 190 311 189
621 352 672 352 122 0 802 725 802 855 0 20 -56 19 -125 -1z"/>
<path d="M8063 3473 c28 -172 621 -661 921 -759 122 -40 225 -115 246 -179 9
-27 8 -40 -5 -65 -9 -17 -15 -41 -13 -53 4 -32 71 -34 155 -6 80 26 176 23
238 -8 22 -12 71 -56 109 -98 52 -58 85 -85 130 -106 129 -61 246 -25 246 76
0 69 -171 188 -501 348 -359 174 -506 262 -684 412 -242 203 -712 475 -821
475 -25 0 -26 -2 -21 -37z"/>
<path d="M12622 3105 c-99 -28 -138 -75 -108 -132 22 -44 81 -92 156 -127 59
-28 74 -31 165 -31 108 0 136 9 188 61 111 111 -15 230 -253 240 -65 3 -112
-1 -148 -11z"/>
<path d="M15945 2901 c-63 -37 -144 -107 -270 -236 -185 -189 -441 -358 -855
-562 -472 -233 -660 -361 -660 -447 0 -46 26 -95 55 -102 81 -20 230 58 700
366 563 370 870 536 1027 556 87 11 144 52 179 129 36 78 20 254 -27 306 -26
29 -88 25 -149 -10z"/>
<path d="M17028 2250 c-96 -18 -189 -117 -204 -216 -12 -84 49 -124 155 -104
145 27 253 126 237 215 -7 38 -75 105 -105 105 -11 0 -25 2 -33 4 -7 2 -30 0
-50 -4z"/>
<path d="M10290 2212 c-56 -27 -54 -75 5 -134 52 -52 135 -92 260 -128 61 -17
150 -43 198 -57 67 -20 90 -24 99 -15 7 7 14 41 16 76 4 64 4 64 -38 110 -110
119 -425 206 -540 148z"/>
<path d="M12522 2143 c-73 -36 -104 -148 -59 -213 37 -55 72 -75 132 -75 153
0 212 195 86 281 -43 29 -109 32 -159 7z"/>
<path d="M16299 1915 c-113 -36 -198 -128 -185 -200 9 -44 88 -132 141 -156
121 -55 233 22 251 173 17 146 -73 226 -207 183z"/>
<path d="M11179 1875 c-57 -18 -67 -38 -35 -70 109 -109 941 -160 980 -59 12
31 -119 69 -372 110 -200 32 -501 42 -573 19z"/>
<path d="M15105 1840 c-162 -41 -212 -167 -105 -264 34 -30 47 -36 85 -36 113
0 265 119 265 207 0 78 -122 125 -245 93z"/>
<path d="M12506 1679 c-247 -36 -511 -182 -532 -294 -8 -44 8 -105 35 -129 10
-9 34 -19 53 -23 107 -17 388 136 554 301 135 135 104 176 -110 145z"/>
<path d="M10915 1604 c-64 -69 -47 -258 30 -336 18 -20 47 -38 63 -41 75 -15
164 46 177 121 17 105 -117 282 -214 282 -22 0 -40 -9 -56 -26z"/>
<path d="M12725 1288 c-90 -32 -158 -138 -112 -176 25 -21 131 -42 208 -42 85
0 122 10 157 42 49 47 14 142 -65 174 -38 16 -145 17 -188 2z"/>
</g>
</svg>
