<?xml version="1.0" standalone="no"?>
<!DOCTYPE svg PUBLIC "-//W3C//DTD SVG 20010904//EN"
 "http://www.w3.org/TR/2001/REC-SVG-20010904/DTD/svg10.dtd">
<svg version="1.0" xmlns="http://www.w3.org/2000/svg"
 width="200.000000pt" height="200.000000pt" viewBox="0 0 200.000000 200.000000"
 preserveAspectRatio="xMidYMid meet">
<metadata>
Created by potrace 1.13, written by Peter Selinger 2001-2015
</metadata>
<g transform="translate(0.000000,200.000000) scale(0.100000,-0.100000)"
fill="#000000" stroke="none">
<path d="M1215 1861 c-26 -8 -103 -49 -135 -71 -56 -38 -143 -80 -166 -80 -14
0 -22 -4 -19 -10 3 -5 2 -10 -4 -10 -12 0 -164 -71 -171 -80 -6 -8 -134 -70
-146 -70 -5 0 -20 -9 -34 -20 l-25 -19 40 10 c45 12 138 52 175 75 14 8 90 47
169 86 135 66 252 133 259 151 2 4 11 7 20 7 10 1 33 9 52 20 34 19 26 25 -15
11z"/>
<path d="M1260 1835 c-33 -12 -65 -29 -245 -126 -38 -21 -90 -48 -115 -59 -25
-11 -70 -33 -100 -48 -30 -16 -77 -40 -105 -53 -27 -14 -77 -38 -110 -53 -86
-40 -88 -41 -93 -54 -2 -7 21 -1 55 14 32 14 72 31 88 37 50 17 77 31 128 65
27 17 56 32 66 32 9 0 27 6 41 14 84 45 146 80 156 87 11 9 91 52 207 111 33
17 71 34 85 38 l27 8 -25 0 c-14 1 -41 -5 -60 -13z"/>
<path d="M1310 1811 c-62 -23 -215 -101 -297 -152 -37 -23 -81 -49 -98 -58
-16 -9 -32 -18 -35 -21 -31 -30 -62 -52 -94 -65 -50 -21 -39 -4 14 20 22 10
40 24 40 32 0 17 -61 -13 -108 -52 -16 -14 -60 -36 -97 -50 -80 -30 -161 -71
-170 -85 -3 -5 -4 -10 -1 -10 8 0 85 30 136 52 58 26 119 48 149 54 37 8 160
80 236 140 22 17 116 70 209 118 94 48 172 89 175 91 8 9 -13 4 -59 -14z"/>
<path d="M1343 1786 c-22 -8 -55 -23 -71 -35 -17 -11 -35 -21 -41 -21 -6 0
-11 -4 -11 -10 0 -5 -5 -10 -11 -10 -20 0 -187 -88 -226 -118 -71 -57 -213
-130 -373 -192 -112 -44 -169 -72 -175 -87 -6 -17 0 -16 38 4 18 9 34 18 37
18 42 11 75 23 125 46 33 15 97 44 143 63 86 37 178 91 222 130 27 25 118 79
136 82 17 3 88 37 94 45 14 19 112 68 150 74 30 5 38 10 29 16 -17 11 -14 11
-66 -5z"/>
<path d="M1425 1712 c-5 -6 -28 -12 -50 -13 -22 -2 -52 -10 -67 -17 -15 -7
-45 -15 -65 -16 -21 -2 -60 -13 -88 -25 -27 -13 -63 -29 -80 -36 -16 -7 -44
-26 -62 -43 -17 -16 -34 -27 -37 -24 -3 3 -6 1 -6 -5 0 -6 -8 -13 -17 -17 -10
-3 -40 -20 -68 -36 -27 -17 -70 -40 -95 -50 -25 -11 -58 -27 -75 -36 -80 -45
-206 -104 -223 -104 -7 0 -12 -4 -12 -9 0 -4 -14 -12 -32 -17 -30 -9 -52 -34
-29 -34 5 0 47 18 93 40 46 22 89 40 96 40 8 0 57 25 110 55 53 30 102 55 110
55 16 0 146 83 156 99 12 18 128 79 201 104 92 33 194 51 242 43 21 -4 52 -8
70 -10 39 -5 73 -23 94 -49 9 -11 19 -16 22 -11 13 22 -43 64 -104 78 -83 20
-88 30 -10 23 45 -4 60 -2 53 5 -15 15 -114 22 -127 10z"/>
<path d="M1325 1640 c-118 -27 -149 -37 -220 -72 -44 -22 -100 -57 -125 -78
-25 -20 -88 -58 -140 -84 -52 -26 -122 -61 -155 -79 -90 -49 -152 -81 -235
-120 -58 -28 -69 -36 -48 -36 33 -1 189 71 314 145 50 30 96 54 101 54 15 0
139 76 163 100 20 20 140 85 200 107 56 22 180 42 237 38 58 -3 177 -56 193
-85 11 -20 40 -34 40 -20 0 6 -21 30 -46 54 -66 62 -190 95 -279 76z"/>
<path d="M1260 1579 c-19 -5 -44 -11 -56 -14 -11 -3 -57 -23 -101 -45 -45 -22
-86 -40 -91 -40 -5 0 -15 -7 -22 -15 -7 -8 -10 -15 -7 -15 6 0 71 26 115 46
147 68 266 84 367 51 58 -18 152 -76 168 -103 14 -24 27 -16 16 9 -12 27 -84
77 -154 108 -56 25 -177 34 -235 18z"/>
<path d="M1266 1532 c-2 -1 -18 -4 -36 -7 -18 -2 -38 -9 -43 -14 -6 -6 -18
-11 -26 -11 -9 0 -38 -12 -66 -25 -27 -14 -57 -25 -66 -25 -27 0 -314 -150
-376 -196 -17 -13 -34 -24 -36 -24 -3 0 -34 -16 -69 -36 -34 -20 -76 -38 -92
-41 -32 -5 -110 -53 -86 -53 8 1 26 7 40 15 14 8 34 14 46 15 27 0 179 81 283
150 45 30 85 55 89 55 7 1 98 46 142 70 14 8 33 15 43 15 9 0 25 4 35 9 9 6
55 24 102 42 83 31 218 50 255 36 8 -4 16 -6 18 -6 1 0 29 -12 61 -26 63 -28
143 -79 163 -104 10 -13 12 -13 13 -2 0 20 -77 89 -132 117 -60 30 -165 55
-219 52 -22 -2 -42 -4 -43 -6z"/>
<path d="M1270 1474 c-47 -8 -112 -22 -145 -33 -120 -40 -165 -58 -158 -64 3
-4 -2 -7 -12 -7 -16 0 -137 -64 -253 -133 -44 -26 -45 -28 -16 -23 17 3 76 30
131 61 103 57 303 148 310 141 3 -2 19 2 36 9 64 26 191 33 277 14 60 -13 104
-41 163 -102 40 -41 57 -44 37 -7 -25 46 -119 113 -184 131 -85 24 -103 25
-186 13z"/>
<path d="M1240 1419 c-25 -6 -57 -11 -73 -14 -63 -9 -136 -40 -357 -154 -52
-27 -109 -51 -127 -54 -18 -3 -69 -23 -115 -45 -46 -23 -108 -50 -138 -62 -56
-21 -97 -46 -89 -54 2 -2 20 2 39 9 19 7 51 19 70 26 19 7 69 28 110 47 41 19
106 46 144 59 38 13 103 43 145 66 84 46 235 115 266 122 192 39 269 44 314
21 40 -21 58 -21 40 1 -34 40 -125 53 -229 32z"/>
<path d="M1240 1369 c-19 -6 -37 -14 -40 -18 -11 -15 -82 -51 -122 -62 -24 -6
-81 -32 -128 -59 -98 -55 -254 -131 -274 -134 -8 -1 -20 -6 -27 -12 -8 -5 -25
-15 -39 -21 -56 -24 -126 -59 -140 -69 -8 -6 -35 -18 -60 -27 -60 -23 -112
-55 -105 -66 3 -5 24 1 48 13 23 12 61 28 85 36 24 7 45 17 48 21 4 7 18 14
179 88 50 23 97 46 105 51 8 6 28 15 44 21 15 7 49 23 75 36 93 50 137 72 186
93 28 12 79 36 114 53 76 38 78 38 163 38 76 -1 121 -16 160 -55 34 -35 28
-69 -6 -37 -12 12 -29 21 -37 21 -8 0 -32 12 -54 25 -22 14 -53 25 -70 25 -49
-1 -142 -26 -180 -50 -19 -12 -35 -18 -35 -14 0 4 -8 0 -17 -8 -10 -9 -49 -28
-88 -43 -38 -15 -81 -35 -95 -44 -14 -10 -43 -26 -65 -36 -130 -59 -265 -127
-298 -149 -21 -14 -42 -26 -47 -26 -5 0 -24 -9 -43 -20 -19 -12 -43 -22 -53
-25 -39 -8 -90 -34 -113 -59 -23 -25 -23 -25 -2 -23 11 1 21 4 21 7 0 4 24 17
53 30 80 35 222 105 327 161 116 62 164 83 155 70 -3 -6 -38 -26 -76 -45 -39
-19 -76 -39 -82 -44 -7 -5 -61 -35 -122 -67 -60 -31 -115 -61 -121 -66 -7 -6
-23 -12 -35 -14 -13 -3 -25 -9 -27 -15 -2 -5 -10 -10 -17 -10 -21 0 -90 -43
-76 -48 6 -2 28 4 49 13 20 9 46 20 57 24 47 19 204 101 255 133 75 48 300
160 385 193 39 14 80 31 92 37 21 10 43 5 43 -12 0 -5 -8 -8 -17 -8 -34 2
-136 -36 -283 -105 -14 -6 -43 -23 -65 -38 -22 -14 -51 -30 -64 -34 -14 -4
-46 -23 -73 -41 -26 -19 -50 -34 -53 -34 -2 0 -42 -22 -87 -48 -46 -27 -122
-66 -170 -88 -93 -41 -112 -57 -53 -44 37 8 186 70 195 81 3 3 12 9 20 13 8 3
39 21 67 39 87 53 271 157 279 157 4 0 15 6 23 14 24 21 189 84 251 96 30 6
83 11 117 12 72 1 114 -20 215 -106 35 -30 65 -52 67 -50 13 12 -145 152 -179
159 -11 2 -23 6 -28 8 -4 3 -25 8 -46 11 -63 10 -57 19 7 12 78 -9 108 -26
186 -105 67 -68 78 -81 100 -116 11 -18 12 -17 6 9 -13 60 -121 178 -197 215
-48 23 -149 31 -198 16 -21 -6 -23 -5 -12 6 8 9 41 15 86 16 61 2 84 -2 131
-22 64 -29 167 -128 192 -184 18 -43 25 -36 12 12 -14 51 -91 136 -153 169
-43 23 -107 42 -214 64 -14 3 -21 1 -18 -5 4 -6 -16 -17 -43 -25 -28 -8 -65
-21 -83 -30 -111 -50 -150 -66 -160 -66 -6 0 -19 -7 -29 -16 -10 -9 -24 -14
-31 -12 -12 4 173 99 222 113 14 4 36 15 50 25 24 17 60 31 90 36 8 2 34 8 58
15 41 11 48 10 110 -21 43 -21 80 -48 102 -75 19 -23 47 -50 62 -59 16 -10 31
-28 34 -41 3 -14 10 -22 15 -19 14 9 -21 66 -62 102 -42 36 -43 40 -30 61 11
17 43 -8 78 -62 26 -42 39 -45 24 -5 -13 34 -139 157 -180 175 -42 18 -175 25
-221 12z"/>
<path d="M1120 1349 c-19 -5 -102 -43 -185 -84 -82 -40 -179 -85 -215 -100
-36 -14 -101 -43 -145 -65 -81 -39 -116 -55 -193 -85 -23 -10 -47 -26 -53 -36
-12 -23 -6 -24 29 -5 55 29 139 66 151 66 7 0 47 18 89 39 42 22 106 51 141
66 35 14 125 57 201 96 75 38 142 69 147 69 14 0 103 40 103 45 0 7 -31 4 -70
-6z"/>
<path d="M1160 1126 c-30 -7 -76 -22 -101 -34 -25 -12 -49 -22 -54 -22 -15 0
-177 -81 -227 -114 -62 -41 -113 -72 -226 -136 -51 -29 -95 -57 -98 -61 -3 -5
-12 -9 -20 -9 -21 0 -121 -46 -129 -61 -16 -25 129 28 197 73 31 21 61 38 65
38 5 0 24 11 43 24 19 13 87 52 150 88 63 35 124 69 135 76 43 24 204 93 251
107 59 18 146 19 194 2 76 -28 217 -136 232 -179 6 -15 14 -28 19 -28 11 0 11
1 -1 37 -13 36 -138 143 -210 179 -61 31 -135 37 -220 20z"/>
<path d="M1129 1075 c-85 -30 -291 -131 -338 -167 -13 -10 -27 -18 -32 -18 -4
0 -34 -18 -67 -40 -33 -21 -79 -49 -103 -61 -24 -13 -57 -32 -73 -43 -37 -25
-97 -56 -110 -56 -16 0 -96 -43 -96 -52 0 -10 40 -1 55 13 5 5 20 9 35 10 14
0 48 14 75 30 28 16 69 38 92 49 23 11 55 31 70 43 32 25 54 39 104 66 20 11
49 31 65 44 16 13 101 56 188 97 158 72 161 73 246 74 86 1 87 1 149 -41 34
-24 64 -43 67 -43 14 0 59 -57 85 -110 33 -67 44 -76 34 -27 -13 57 -44 105
-89 136 -25 17 -51 37 -59 46 -8 8 -35 26 -60 40 -64 35 -152 39 -238 10z"/>
<path d="M1183 1045 c-23 -7 -44 -11 -46 -8 -3 2 -56 -21 -120 -52 -63 -30
-118 -55 -122 -55 -3 0 -27 -15 -53 -32 -26 -18 -51 -35 -57 -38 -36 -17 -135
-84 -135 -91 0 -5 -7 -9 -15 -9 -8 0 -15 -4 -15 -10 0 -5 -7 -10 -15 -10 -8 0
-36 -13 -62 -30 -26 -16 -53 -30 -60 -30 -7 0 -13 -3 -13 -7 0 -5 -24 -19 -53
-32 -92 -42 -116 -55 -113 -59 12 -11 152 42 206 78 14 9 54 33 90 52 36 20
115 69 175 109 178 117 441 239 410 189 -4 -6 9 -10 32 -10 46 0 135 -43 178
-86 17 -17 40 -48 50 -70 10 -21 21 -41 24 -44 7 -6 34 -62 48 -99 5 -14 12
-21 15 -15 3 5 -4 39 -15 75 -20 62 -39 92 -93 158 -34 40 -132 95 -183 102
l-46 6 45 2 c71 2 192 -70 237 -142 21 -33 63 -130 63 -144 0 -2 5 -3 10 -3
12 0 13 25 1 48 -5 9 -17 36 -27 60 -27 67 -54 97 -136 151 -84 56 -134 68
-205 46z"/>
<path d="M1058 968 c-27 -12 -48 -25 -48 -30 0 -12 9 -10 74 13 32 11 66 17
75 13 17 -7 -55 -27 -162 -44 -61 -10 -125 -38 -147 -65 -16 -19 -98 -75 -110
-75 -5 0 -21 -11 -37 -23 -27 -23 -64 -45 -112 -67 -13 -6 -40 -23 -60 -39
-46 -36 -103 -64 -163 -81 -59 -16 -64 -31 -5 -18 23 5 49 11 57 13 9 2 31 12
50 24 19 11 53 30 75 42 95 51 262 154 290 179 72 65 108 85 164 91 89 11 124
19 156 38 55 31 95 26 159 -17 68 -45 131 -142 166 -254 14 -46 31 -60 26 -21
-6 54 -28 117 -52 152 -13 20 -24 40 -24 46 0 17 -70 79 -124 109 -68 39 -180
45 -248 14z"/>
<path d="M1190 933 c-8 -3 -22 -7 -30 -10 -22 -9 -30 -11 -79 -23 -24 -6 -57
-18 -74 -26 -27 -15 -29 -15 -24 0 4 9 1 16 -6 16 -19 0 -137 -79 -137 -91 0
-9 74 28 108 54 7 5 14 8 17 5 6 -6 -121 -78 -138 -78 -8 0 -18 -7 -21 -16 -4
-9 -9 -14 -13 -11 -8 9 -34 -13 -28 -23 8 -12 -90 -90 -173 -139 -46 -27 -89
-44 -115 -46 -23 -2 -55 -7 -72 -11 -16 -4 -42 -7 -57 -8 -16 0 -28 -5 -28
-10 0 -15 172 3 232 25 37 14 92 50 163 107 132 107 202 155 282 193 78 37
179 69 220 69 56 0 173 -92 173 -136 0 -6 6 -17 14 -23 8 -6 19 -31 24 -54 14
-55 42 -121 48 -114 7 7 -22 116 -44 165 -54 121 -167 207 -242 185z"/>
<path d="M1165 882 c-27 -2 -54 -7 -60 -11 -5 -5 -25 -12 -43 -16 -56 -12
-218 -116 -301 -193 -13 -12 -41 -32 -60 -44 -20 -12 -38 -25 -41 -28 -8 -10
-104 -74 -115 -77 -5 -2 -35 -7 -65 -13 -30 -5 -66 -11 -80 -14 -14 -2 -36 -5
-50 -6 -23 -1 -23 -2 -7 -11 12 -7 41 -8 75 -4 156 19 129 6 297 135 177 135
210 159 219 160 6 0 20 10 33 22 l23 21 -13 -26 c-6 -14 -27 -33 -45 -41 -35
-17 -37 -18 -91 -63 -41 -34 -74 -68 -121 -124 -30 -36 -76 -66 -86 -56 -2 2
18 19 45 37 45 31 77 67 68 76 -4 4 -137 -101 -147 -117 -10 -14 -72 -34 -145
-44 -11 -2 -22 -4 -25 -5 -3 -1 -21 -1 -41 0 -21 1 -40 -4 -44 -10 -6 -9 18
-11 96 -8 89 4 112 8 157 32 30 15 58 26 64 24 13 -5 -71 -50 -122 -66 -19 -6
-51 -13 -71 -15 -20 -2 -44 -11 -53 -19 -9 -9 -24 -14 -36 -11 -11 3 -20 0
-20 -6 0 -14 67 -15 75 -1 4 6 11 8 16 5 5 -3 46 6 91 21 77 26 88 33 158 105
41 43 89 93 105 112 59 67 165 134 240 152 152 36 201 29 229 -28 39 -83 54
-127 62 -177 8 -59 7 -176 -2 -225 -4 -21 -3 -27 5 -20 6 6 13 42 17 80 3 39
7 79 9 90 5 35 -34 206 -54 239 -39 63 -68 81 -130 83 -32 0 -83 -5 -114 -12
-32 -7 -55 -9 -51 -4 3 5 9 9 14 9 5 0 21 5 37 12 15 6 42 12 58 13 17 1 35 4
40 5 39 12 111 -29 162 -93 23 -29 52 -167 50 -243 -1 -41 1 -74 4 -74 4 0 11
26 17 58 l9 57 2 -53 c0 -29 5 -51 10 -48 13 8 8 111 -5 109 -6 -1 -16 27 -22
61 -13 68 -42 144 -74 188 -29 41 -111 63 -191 50 -34 -5 -78 -15 -97 -21 -30
-9 -33 -9 -17 3 21 16 135 45 188 48 61 3 128 -52 172 -141 9 -19 17 -43 17
-53 0 -11 6 -32 14 -46 19 -38 36 -94 36 -121 0 -12 4 -20 9 -17 20 13 -21
178 -65 262 -41 77 -91 123 -149 136 -11 2 -42 2 -70 0z"/>
<path d="M1180 763 c0 -4 13 -15 29 -24 35 -20 69 -90 76 -159 1 -8 5 -25 9
-36 4 -15 2 -23 -9 -28 -11 -4 -15 2 -16 22 -4 85 -15 128 -40 161 -31 39 -71
61 -109 60 l-35 -1 35 -11 c109 -32 145 -120 114 -277 -2 -14 -7 -57 -9 -97
-3 -39 -9 -84 -15 -98 -8 -22 -51 -86 -70 -105 -3 -3 -16 -18 -30 -34 -21 -24
-22 -27 -5 -18 59 30 130 150 141 235 4 34 9 65 10 70 1 4 2 24 3 45 1 24 4
32 10 24 8 -13 7 -30 -5 -132 -6 -53 -49 -154 -82 -195 -12 -15 -10 -14 9 3
35 30 91 142 96 190 2 20 4 57 4 82 0 24 5 51 10 60 13 20 1 -167 -12 -191 -6
-11 -5 -20 1 -24 11 -7 15 1 29 65 16 69 13 139 -9 227 -24 98 -43 143 -67
165 -21 19 -63 33 -63 21z"/>
<path d="M983 723 c-45 -25 -157 -123 -179 -156 -11 -16 -31 -35 -46 -43 -15
-7 -34 -26 -43 -41 -17 -28 -98 -96 -119 -99 -6 -1 -24 -8 -41 -15 -16 -6 -37
-13 -45 -15 -44 -9 -106 -28 -115 -36 -12 -11 65 -4 113 11 17 5 32 8 32 6 0
-2 21 7 48 20 55 28 134 94 247 209 99 100 139 131 192 146 36 11 48 10 94 -6
28 -10 59 -29 67 -42 15 -23 25 -162 11 -162 -12 0 -17 26 -8 41 20 33 -16
139 -49 139 -12 0 -12 -4 4 -21 46 -51 9 -233 -71 -352 -46 -69 -44 -55 8 46
24 46 52 119 62 162 l18 78 -26 53 c-15 30 -34 55 -42 55 -8 1 -21 2 -27 3
-20 3 -92 -27 -119 -49 -13 -11 -44 -43 -69 -70 -56 -63 -262 -246 -268 -240
-3 3 -10 1 -16 -3 -19 -15 -102 -42 -141 -47 -56 -8 -56 -15 1 -15 66 0 191
40 214 69 3 3 26 16 51 29 26 13 59 37 75 53 43 45 6 35 -45 -12 -24 -22 -46
-37 -49 -34 -7 7 35 44 89 80 20 13 63 53 95 90 70 78 138 125 183 125 19 0
30 -4 26 -10 -4 -6 -11 -8 -16 -4 -17 10 -64 -6 -95 -34 -43 -38 -164 -180
-164 -192 0 -13 -112 -100 -129 -100 -8 0 -24 -8 -35 -18 -34 -30 -135 -62
-226 -72 -3 0 1 -4 8 -9 18 -11 139 12 198 38 77 35 168 106 230 182 122 148
204 218 204 172 0 -8 -5 -11 -10 -8 -14 8 -86 -55 -117 -102 -40 -60 -192
-202 -248 -231 -67 -36 -129 -61 -190 -77 l-50 -14 41 0 c22 -1 49 6 60 14 10
8 26 15 35 15 19 0 81 30 155 74 64 39 245 210 268 254 18 35 46 61 46 42 0
-35 -231 -268 -308 -311 -26 -14 -47 -32 -47 -40 0 -21 -81 -58 -146 -65 -32
-4 -56 -10 -53 -15 6 -10 103 -2 118 10 6 5 34 12 61 16 63 10 138 60 226 151
94 99 145 173 164 237 19 64 29 76 44 48 13 -24 15 -103 2 -83 -6 10 -14 2
-31 -29 -12 -24 -24 -53 -26 -64 -2 -11 -13 -31 -24 -45 -11 -14 -26 -36 -32
-50 -14 -28 -60 -92 -98 -132 -14 -15 -54 -44 -90 -64 -44 -24 -55 -33 -35
-29 50 11 133 64 155 99 11 19 26 36 33 39 19 7 104 150 116 194 13 46 31 77
31 53 -1 -28 -39 -131 -62 -163 -48 -69 -144 -177 -160 -183 -10 -3 -18 -9
-18 -14 0 -5 -28 -18 -62 -29 -35 -11 -53 -20 -40 -20 13 -1 20 -5 17 -11 -4
-6 1 -7 11 -3 13 5 14 8 5 11 -7 2 10 12 37 21 52 18 115 55 166 100 l30 26
-16 -25 c-15 -24 -40 -42 -163 -114 -68 -41 -60 -49 11 -11 53 28 69 26 33 -4
-13 -11 -18 -20 -11 -21 6 0 12 5 12 11 0 6 6 9 13 6 7 -3 24 1 38 9 32 18 49
17 25 -1 -21 -16 -10 -21 13 -6 7 5 11 13 8 18 -4 6 7 22 23 38 34 33 140 186
140 203 0 7 5 12 10 12 13 0 -7 -39 -60 -122 -22 -34 -38 -64 -35 -67 7 -6 27
22 77 103 46 74 50 66 7 -14 -17 -32 -59 -86 -92 -121 -51 -50 -56 -59 -30
-45 67 34 175 189 160 229 -2 7 2 48 9 92 32 196 7 278 -93 301 -64 15 -108
14 -140 -3z"/>
</g>
</svg>
