<?xml version="1.0" standalone="no"?>
<!DOCTYPE svg PUBLIC "-//W3C//DTD SVG 20010904//EN"
 "http://www.w3.org/TR/2001/REC-SVG-20010904/DTD/svg10.dtd">
<svg version="1.0" xmlns="http://www.w3.org/2000/svg"
 width="1159.000000pt" height="1075.000000pt" viewBox="0 0 1159.000000 1075.000000"
 preserveAspectRatio="xMidYMid meet">

<g transform="translate(0.000000,1075.000000) scale(0.100000,-0.100000)"
fill="#000000" stroke="none">
<path d="M8007 10743 c-4 -3 -7 -15 -7 -25 0 -13 7 -18 25 -18 20 0 25 5 25
25 0 18 -5 25 -18 25 -10 0 -22 -3 -25 -7z"/>
<path d="M8237 10701 c-21 -36 -22 -51 -3 -51 18 0 46 38 46 62 0 28 -24 21
-43 -11z"/>
<path d="M2227 10493 c-12 -11 -8 -40 8 -53 7 -6 27 -35 43 -63 30 -52 88
-117 105 -117 5 0 7 20 5 45 -4 35 -15 55 -52 96 -25 28 -46 57 -46 63 0 7
-11 18 -25 24 -30 14 -30 14 -38 5z"/>
<path d="M5980 10460 c-17 -32 16 -167 36 -147 11 10 18 111 10 142 -8 30 -31
33 -46 5z"/>
<path d="M5182 10427 c-7 -7 -18 -29 -26 -47 -13 -31 -12 -36 7 -61 21 -29 46
-137 47 -203 0 -21 -5 -56 -12 -78 -10 -34 -9 -43 10 -77 18 -31 22 -55 22
-121 0 -88 10 -120 39 -120 36 0 44 27 49 163 4 121 2 138 -21 207 -35 101
-42 167 -27 230 l12 52 -33 34 c-36 37 -50 41 -67 21z"/>
<path d="M9218 10389 c-122 -131 -233 -299 -170 -258 35 24 247 267 247 285 0
35 -28 25 -77 -27z"/>
<path d="M2604 10324 c-15 -59 38 -98 70 -52 23 32 20 53 -9 66 -39 18 -54 15
-61 -14z"/>
<path d="M5360 10265 c0 -31 26 -43 47 -22 21 21 9 47 -22 47 -20 0 -25 -5
-25 -25z"/>
<path d="M5957 10243 c-13 -12 -7 -43 8 -43 9 0 15 9 15 25 0 24 -10 32 -23
18z"/>
<path d="M7360 10190 c-11 -11 -20 -33 -20 -50 0 -25 4 -30 26 -30 19 0 28 8
39 34 25 59 -3 88 -45 46z"/>
<path d="M2360 10155 c0 -9 5 -15 11 -13 6 2 11 8 11 13 0 5 -5 11 -11 13 -6
2 -11 -4 -11 -13z"/>
<path d="M4455 10140 c-15 -24 41 -160 66 -160 27 0 -13 162 -43 168 -9 2 -19
-2 -23 -8z"/>
<path d="M8866 10069 c-45 -39 -61 -79 -32 -79 15 0 106 96 106 111 0 20 -30
7 -74 -32z"/>
<path d="M5736 10063 c-8 -21 -21 -173 -14 -173 17 0 87 42 92 55 13 35 6 102
-12 118 -24 22 -58 22 -66 0z"/>
<path d="M2382 10038 c-15 -15 -16 -45 -2 -53 14 -9 160 -205 160 -215 0 -5
13 -11 29 -15 16 -3 39 -17 51 -31 60 -63 106 7 61 94 -29 55 -158 184 -210
209 -52 26 -72 28 -89 11z"/>
<path d="M6488 9973 c-15 -39 -23 -133 -10 -133 12 0 64 138 56 151 -11 18
-35 8 -46 -18z"/>
<path d="M7580 9950 c0 -5 9 -10 20 -10 11 0 20 5 20 10 0 6 -9 10 -20 10 -11
0 -20 -4 -20 -10z"/>
<path d="M4217 9933 c-16 -15 -6 -62 15 -77 33 -23 48 -20 48 12 0 46 -40 88
-63 65z"/>
<path d="M4650 9775 c0 -14 9 -42 20 -62 11 -21 20 -50 20 -65 0 -41 10 -58
36 -58 39 0 44 27 18 108 -27 86 -38 102 -70 102 -19 0 -24 -5 -24 -25z"/>
<path d="M5040 9740 c0 -41 13 -50 54 -34 17 7 10 29 -20 58 -25 25 -34 19
-34 -24z"/>
<path d="M5770 9760 c0 -5 7 -10 15 -10 8 0 15 5 15 10 0 6 -7 10 -15 10 -8 0
-15 -4 -15 -10z"/>
<path d="M8585 9749 c-10 -15 1 -23 20 -15 9 3 13 10 10 16 -8 13 -22 13 -30
-1z"/>
<path d="M3866 9725 c-21 -31 -20 -36 6 -109 29 -78 98 -171 139 -185 47 -16
62 -13 82 15 17 22 17 31 7 77 -18 73 -35 104 -65 111 -19 5 -32 21 -50 61
-23 53 -25 55 -63 55 -31 0 -43 -5 -56 -25z"/>
<path d="M702 9718 c-7 -7 -12 -18 -12 -25 0 -13 141 -113 160 -113 19 0 -27
75 -69 113 -44 39 -60 44 -79 25z"/>
<path d="M9950 9650 c-36 -70 -18 -90 47 -50 63 38 67 90 7 90 -29 0 -36 -5
-54 -40z"/>
<path d="M4904 9624 c-4 -14 -3 -75 1 -136 6 -101 5 -112 -13 -131 -19 -22
-29 -51 -39 -117 -6 -43 29 -95 58 -87 10 3 20 -1 23 -9 10 -27 42 -15 64 25
27 48 28 93 3 129 -16 22 -20 52 -25 164 -3 75 -10 148 -16 162 -13 35 -47 35
-56 0z"/>
<path d="M6149 9593 c-50 -131 -65 -212 -41 -220 7 -3 19 11 28 34 9 21 24 47
34 58 10 11 20 36 23 55 4 19 9 50 13 68 6 30 4 32 -20 32 -20 0 -29 -7 -37
-27z"/>
<path d="M4593 9531 c10 -85 57 -145 73 -93 3 9 10 26 16 38 12 26 7 76 -8 81
-6 2 -15 -6 -18 -19 -7 -22 -8 -22 -23 10 -9 17 -23 32 -31 32 -12 0 -14 -10
-9 -49z"/>
<path d="M1580 9520 c0 -5 9 -10 20 -10 11 0 20 5 20 10 0 6 -9 10 -20 10 -11
0 -20 -4 -20 -10z"/>
<path d="M4747 9504 c-10 -10 -9 -64 2 -64 12 0 21 41 12 57 -4 7 -10 10 -14
7z"/>
<path d="M5274 9503 c-39 -4 -40 -5 -53 -56 -26 -110 -27 -102 24 -152 59 -56
82 -57 102 0 7 21 22 48 33 60 26 28 48 111 34 133 -11 18 -59 23 -140 15z"/>
<path d="M2272 9448 c2 -17 10 -24 32 -26 29 -4 29 -3 14 20 -22 33 -51 37
-46 6z"/>
<path d="M6214 9410 c-9 -22 -25 -45 -35 -51 -12 -6 -19 -21 -19 -41 0 -18 -7
-58 -16 -89 -19 -68 -14 -89 20 -89 33 0 25 -25 -15 -45 -22 -12 -32 -29 -49
-84 -27 -92 -26 -111 4 -111 31 0 35 7 43 70 3 27 8 50 11 50 3 0 13 -7 23
-16 28 -25 46 -11 63 49 21 71 20 142 -1 177 -15 26 -15 32 1 92 30 111 31
128 7 128 -15 0 -26 -11 -37 -40z"/>
<path d="M1610 9380 c0 -15 7 -20 25 -20 30 0 33 15 6 30 -27 14 -31 13 -31
-10z"/>
<path d="M11481 9323 c-65 -39 -160 -115 -174 -140 -34 -58 115 7 234 102 33
26 40 40 33 59 -9 23 -22 20 -93 -21z"/>
<path d="M2410 9335 c0 -9 5 -15 11 -13 6 2 11 8 11 13 0 5 -5 11 -11 13 -6 2
-11 -4 -11 -13z"/>
<path d="M7184 9299 c-16 -18 -51 -56 -78 -85 -40 -45 -49 -60 -50 -93 -1 -57
12 -67 68 -51 55 15 57 17 107 121 46 95 48 132 8 137 -19 2 -34 -6 -55 -29z"/>
<path d="M7774 9316 c-12 -31 1 -51 34 -54 31 -3 33 -2 27 20 -14 46 -49 65
-61 34z"/>
<path d="M3004 9295 c-9 -23 19 -58 75 -94 49 -32 81 -37 88 -15 2 6 -18 36
-44 68 -40 47 -52 56 -80 56 -21 0 -36 -6 -39 -15z"/>
<path d="M330 9216 c0 -10 9 -16 21 -16 24 0 21 23 -4 28 -10 2 -17 -3 -17
-12z"/>
<path d="M6637 9203 c-4 -3 -7 -17 -7 -30 0 -16 6 -23 20 -23 21 0 45 34 35
50 -7 11 -38 13 -48 3z"/>
<path d="M6386 9153 c-21 -63 -21 -75 6 -71 16 2 25 16 38 55 18 56 17 63 -11
63 -12 0 -22 -15 -33 -47z"/>
<path d="M390 9140 c0 -11 7 -20 15 -20 8 0 15 9 15 20 0 11 -7 20 -15 20 -8
0 -15 -9 -15 -20z"/>
<path d="M990 9120 c0 -25 4 -30 25 -30 14 0 28 7 31 15 8 20 -13 45 -37 45
-14 0 -19 -7 -19 -30z"/>
<path d="M5691 9098 c-17 -18 -31 -42 -31 -53 1 -25 33 -65 53 -65 39 0 75
102 47 135 -19 23 -36 18 -69 -17z"/>
<path d="M3152 9077 c-34 -36 -27 -63 29 -128 54 -62 68 -69 90 -43 11 13 7
27 -27 90 -21 41 -46 81 -55 89 -14 13 -18 12 -37 -8z"/>
<path d="M3830 9019 c0 -6 16 -44 36 -86 43 -90 40 -95 -56 -87 l-65 6 -13
-38 c-7 -22 -15 -47 -18 -56 -4 -11 5 -24 30 -40 20 -13 36 -26 36 -30 0 -4
-15 -14 -33 -22 -21 -8 -43 -30 -59 -57 -15 -24 -40 -57 -57 -73 l-31 -30 -26
25 c-14 13 -35 41 -45 62 -12 22 -27 37 -37 37 -16 0 -18 -10 -19 -85 -1 -94
-12 -121 -44 -104 -10 5 -19 19 -19 30 0 35 -28 89 -65 123 -22 21 -35 43 -35
59 0 16 -11 35 -32 52 -28 23 -38 26 -75 21 -38 -5 -43 -3 -43 14 0 14 -10 22
-32 28 -30 8 -33 11 -30 45 3 32 0 38 -23 47 -15 6 -48 28 -73 50 -50 44 -71
49 -95 22 -25 -27 -21 -54 13 -98 17 -21 40 -54 51 -72 12 -18 34 -39 50 -48
16 -8 29 -22 29 -32 0 -27 94 -133 143 -162 66 -39 88 -57 107 -85 15 -23 16
-30 4 -53 -7 -15 -17 -39 -23 -54 -9 -24 -16 -28 -50 -28 -27 0 -48 8 -69 25
-16 13 -48 29 -72 34 -23 5 -47 14 -53 20 -32 32 -83 -9 -72 -59 l7 -30 -56 6
c-44 5 -61 3 -82 -11 -25 -16 -26 -21 -20 -70 10 -89 19 -103 70 -110 36 -6
46 -11 46 -26 0 -12 -10 -21 -27 -25 -16 -3 -46 -11 -68 -16 -22 -6 -67 -11
-100 -12 -48 -1 -69 -8 -102 -30 l-42 -28 -47 41 c-55 48 -84 53 -84 16 0 -18
16 -42 52 -77 51 -52 51 -52 40 -93 -20 -74 -31 -95 -64 -114 -18 -11 -44 -29
-58 -40 -14 -11 -36 -28 -49 -38 -28 -22 -24 -46 16 -93 l25 -30 -31 -26 c-17
-14 -40 -43 -53 -65 -12 -21 -26 -39 -31 -39 -5 0 -32 8 -59 18 -48 17 -50 16
-64 -2 -22 -31 -18 -91 9 -120 25 -28 133 -86 159 -86 23 0 33 -43 21 -84 -15
-47 -5 -94 23 -113 13 -8 24 -18 24 -22 -1 -3 -19 -26 -40 -50 l-40 -43 -46
22 c-36 18 -55 21 -92 16 -62 -8 -89 -30 -127 -102 -18 -32 -47 -69 -66 -82
-40 -28 -49 -40 -49 -70 0 -17 10 -27 37 -39 30 -13 34 -18 19 -21 -32 -7
-144 -72 -150 -87 -3 -8 -21 -17 -41 -21 -71 -13 -70 -74 1 -104 24 -11 44
-24 44 -29 0 -6 -13 -17 -30 -26 -36 -19 -110 -161 -110 -211 0 -26 -4 -33
-22 -36 -16 -2 -24 -11 -26 -28 -2 -13 -17 -41 -33 -62 -20 -24 -26 -39 -18
-44 7 -4 9 -21 5 -44 -5 -33 -2 -43 28 -79 32 -38 34 -45 29 -94 -5 -52 -5
-54 28 -75 19 -12 47 -33 63 -46 l28 -23 -25 -39 c-14 -22 -30 -56 -37 -76 -6
-21 -16 -40 -21 -43 -15 -10 -10 -36 14 -66 12 -16 32 -42 45 -59 13 -16 32
-30 43 -30 11 0 23 -10 29 -24 10 -28 38 -46 72 -46 13 0 37 -14 55 -30 30
-27 32 -34 35 -107 3 -74 4 -78 27 -81 15 -3 30 3 37 13 12 15 14 15 38 0 14
-10 26 -19 26 -21 0 -14 -69 -34 -117 -34 -71 0 -103 -19 -103 -61 0 -37 17
-53 152 -140 l48 -31 -71 -70 c-60 -59 -82 -74 -142 -94 -87 -30 -117 -49
-117 -74 0 -14 11 -22 41 -30 47 -13 82 -4 131 34 18 13 51 29 73 35 22 6 50
18 63 27 44 30 109 3 127 -54 4 -15 23 -30 51 -42 47 -21 53 -30 29 -50 -23
-19 -18 -49 13 -77 l28 -24 -15 -59 c-13 -49 -20 -60 -46 -72 -16 -7 -31 -20
-33 -28 -1 -9 18 -37 43 -63 25 -27 43 -53 39 -58 -3 -6 -26 -19 -50 -30 -25
-10 -60 -31 -79 -46 -28 -23 -35 -35 -35 -63 0 -41 -28 -63 -93 -75 -45 -9
-87 -40 -87 -65 0 -10 -11 -31 -24 -47 -12 -15 -29 -38 -35 -51 -16 -29 -10
-36 80 -103 64 -47 78 -69 44 -69 -19 0 -27 -34 -23 -100 3 -51 5 -54 43 -75
22 -12 58 -31 80 -43 22 -12 45 -22 52 -22 7 0 30 -9 51 -20 45 -24 154 -44
193 -36 20 4 33 -2 55 -25 22 -23 36 -29 70 -29 61 0 184 33 238 65 59 35 85
29 122 -29 34 -52 97 -98 127 -94 12 2 26 12 32 23 6 11 23 40 38 64 26 39 27
46 16 73 -11 26 -9 36 18 91 17 34 36 74 42 90 6 15 21 32 33 37 13 6 38 22
57 35 19 14 47 25 62 25 19 0 33 8 41 21 7 11 29 29 49 39 20 10 57 40 82 66
46 47 46 47 73 29 23 -15 26 -21 20 -57 -4 -22 -4 -55 0 -74 6 -31 8 -33 38
-27 17 3 50 16 72 29 l41 23 23 -24 c19 -21 33 -25 77 -25 119 0 181 -84 118
-158 -33 -39 -33 -70 0 -78 30 -7 48 6 65 46 7 18 20 30 31 30 23 0 49 -37 49
-70 0 -15 11 -37 25 -50 24 -23 25 -23 45 -5 16 15 25 16 43 7 39 -18 67 -21
126 -11 52 9 61 8 95 -11 20 -13 43 -35 52 -51 19 -38 40 -37 65 6 12 19 27
35 33 35 32 0 73 -23 88 -50 21 -37 42 -38 91 -5 40 28 39 28 54 -34 12 -46
39 -63 59 -37 8 11 14 33 14 48 0 16 7 42 15 58 14 27 20 30 65 30 50 0 70
-16 28 -22 -17 -2 -24 -11 -26 -32 -4 -35 10 -46 60 -46 33 0 40 4 51 32 11
27 22 35 67 48 55 16 55 16 66 69 7 29 14 55 17 57 3 3 39 9 81 13 57 5 81 12
99 29 28 26 47 27 104 6 41 -16 44 -16 64 2 12 10 33 39 47 64 32 55 38 60 79
60 20 0 40 8 52 21 26 28 41 17 41 -29 0 -43 23 -82 48 -82 9 0 44 -19 77 -41
52 -35 65 -39 100 -35 22 3 52 6 67 6 28 0 87 50 120 100 13 20 19 23 29 12
21 -20 49 -14 86 19 33 28 39 30 89 23 32 -4 74 -1 105 6 43 10 53 18 64 44 9
21 11 45 6 73 -8 41 6 123 22 140 4 4 42 10 85 13 70 5 77 7 80 28 2 13 -3 25
-13 28 -14 6 -13 9 5 27 16 14 21 28 18 49 -4 21 0 33 14 41 31 20 22 53 -27
93 -52 42 -56 71 -15 90 86 42 262 60 273 30 3 -8 22 -18 43 -22 30 -5 39 -13
50 -43 21 -53 28 -63 56 -84 23 -18 27 -18 64 -2 43 17 114 81 114 102 0 7 11
20 24 29 14 8 30 32 37 52 15 47 46 82 74 82 12 0 43 -11 69 -25 55 -29 78
-31 97 -9 11 14 10 20 -14 40 l-28 23 28 7 c40 10 93 44 93 59 0 7 -7 29 -15
48 -26 62 -21 71 67 134 45 32 92 63 104 70 26 15 45 58 41 98 -2 30 -2 30 60
36 44 4 74 14 100 32 21 14 52 31 68 38 41 17 75 49 75 70 0 13 -12 18 -59 24
l-60 7 4 51 c3 43 7 53 30 64 21 12 26 20 23 46 -3 30 -6 32 -62 45 -37 8 -68
10 -85 4 -37 -12 -90 6 -97 34 -8 30 2 44 31 44 13 0 31 10 39 22 12 17 26 22
68 22 39 1 69 9 113 32 33 17 72 34 88 38 28 7 35 20 17 31 -5 3 -10 15 -10
25 0 15 11 23 46 31 28 7 65 29 97 55 28 24 56 44 62 44 7 0 20 9 30 20 22 24
52 25 163 4 75 -14 86 -14 99 -1 21 21 10 33 -42 46 l-46 12 25 30 c36 42 33
66 -9 83 -19 8 -35 21 -35 27 0 7 -9 22 -19 33 -11 12 -31 43 -44 71 l-25 49
23 28 c22 26 24 61 4 74 -5 2 -11 28 -15 55 -6 43 -12 54 -38 70 -16 10 -37
33 -46 51 -22 48 -69 68 -162 68 -71 0 -80 2 -109 28 l-32 29 18 71 c9 40 21
75 26 78 22 13 5 35 -46 60 -31 15 -54 32 -52 38 2 6 21 14 42 17 42 7 65 30
65 65 0 15 -8 25 -22 29 -41 13 -68 46 -68 84 0 20 -9 50 -19 67 -17 29 -18
34 -5 53 11 16 26 21 57 21 79 0 154 -33 95 -42 -19 -2 -24 -10 -26 -42 -2
-21 2 -44 7 -49 6 -6 39 -17 72 -24 50 -10 65 -10 82 1 12 8 33 17 47 21 31 9
90 68 90 90 0 17 25 21 35 5 10 -16 42 -12 49 6 3 9 6 53 6 99 0 82 -1 84 -32
111 -18 15 -28 29 -23 31 65 23 82 53 30 53 -65 0 -113 -83 -88 -151 6 -15 8
-30 5 -33 -3 -3 -49 -6 -103 -6 -106 0 -119 7 -119 61 0 12 -8 31 -17 41 -13
14 -14 21 -5 30 7 7 12 27 12 45 0 19 6 49 14 67 13 31 19 34 75 44 39 7 72 8
93 1 52 -15 67 -11 74 17 4 17 18 31 40 40 43 18 48 28 29 58 -13 20 -14 32
-5 65 10 37 49 81 72 81 5 0 43 30 84 68 69 63 74 70 74 109 0 40 -3 44 -40
63 -52 27 -58 26 -102 -17 -27 -26 -49 -38 -82 -43 -43 -6 -45 -6 -34 14 6 12
24 37 39 57 16 20 29 46 29 58 0 11 17 35 37 53 73 64 83 77 77 93 -11 28 -51
27 -187 -5 -75 -17 -143 -30 -154 -28 -27 5 -23 42 4 46 15 2 25 13 29 28 8
31 -2 41 -41 46 -25 3 -30 8 -37 43 -5 22 -15 54 -23 72 -8 17 -15 38 -15 46
0 21 -44 50 -104 71 -67 22 -73 21 -95 -15 -17 -27 -20 -29 -34 -15 -19 19
-54 21 -60 4 -3 -10 -13 -10 -50 0 -67 17 -171 16 -187 -3 -18 -22 -44 -20
-35 3 18 43 18 62 -2 62 -26 0 -54 -32 -73 -83 -11 -30 -22 -43 -38 -45 -12
-2 -22 1 -22 7 0 18 -31 41 -57 41 -14 0 -43 -14 -64 -31 -52 -41 -75 -36 -72
15 l3 39 -79 -6 c-73 -6 -80 -5 -101 18 -12 13 -33 26 -46 29 -28 7 -30 18 -9
36 25 21 19 77 -12 106 -38 35 -64 39 -171 24 l-94 -13 -25 27 c-13 15 -42 34
-62 42 -31 12 -40 23 -50 55 -11 35 -10 43 9 68 34 48 27 61 -30 61 -28 0 -67
7 -87 15 -53 22 -81 19 -95 -9 -12 -28 -72 -56 -118 -56 -19 0 -42 11 -65 31
-34 30 -46 59 -25 59 15 0 11 52 -5 74 -24 32 -68 56 -101 56 -17 0 -78 -9
-135 -21 l-103 -21 -17 21 c-20 25 -46 26 -113 6 -68 -21 -83 -19 -90 9 -10
42 -58 44 -221 10 -63 -13 -78 -13 -150 2 -105 22 -132 21 -198 -10 -56 -27
-137 -104 -137 -130 0 -8 -8 -22 -17 -31 -20 -20 -80 -14 -119 12 -29 18 -191
53 -252 53 -24 0 -52 -5 -64 -11 -17 -9 -25 -6 -47 15 -34 32 -81 34 -121 5
-29 -22 -52 -23 -186 -3 -37 5 -45 2 -88 -35 -26 -23 -53 -41 -59 -41 -18 0
-61 59 -81 112 -10 26 -23 51 -29 55 -7 5 -48 8 -93 8 -88 0 -108 9 -119 53
-10 44 -53 102 -75 102 -11 0 -20 -5 -20 -11z m2900 -669 c0 -5 -4 -10 -10
-10 -5 0 -10 5 -10 10 0 6 5 10 10 10 6 0 10 -4 10 -10z m-4035 -3800 c0 -12
-96 -69 -118 -70 -4 0 12 20 35 44 42 43 83 56 83 26z m2863 -1023 c5 -23 -23
-32 -56 -17 -26 11 -26 12 -7 26 25 19 59 14 63 -9z"/>
<path d="M5960 8990 c0 -32 23 -42 34 -15 8 21 -3 45 -20 45 -9 0 -14 -11 -14
-30z"/>
<path d="M202 8988 c-15 -15 -16 -53 -2 -78 6 -11 26 -22 46 -26 20 -4 45 -15
56 -26 27 -27 92 -22 96 8 4 31 -44 83 -103 110 -57 27 -76 29 -93 12z"/>
<path d="M5616 8944 c-10 -26 -7 -34 14 -34 15 0 20 7 20 25 0 28 -24 34 -34
9z"/>
<path d="M9277 8944 c-10 -10 -9 -32 4 -77 9 -33 14 -38 37 -35 58 7 55 110
-4 116 -16 2 -33 0 -37 -4z"/>
<path d="M3670 8825 c0 -10 7 -15 18 -13 21 4 19 22 -2 26 -10 2 -16 -3 -16
-13z"/>
<path d="M10478 8811 c-18 -16 -30 -32 -26 -36 18 -18 118 30 118 56 0 21 -61
8 -92 -20z"/>
<path d="M1390 8795 c0 -10 7 -15 18 -13 21 4 19 22 -2 26 -10 2 -16 -3 -16
-13z"/>
<path d="M10162 8748 c-16 -16 -15 -38 2 -38 29 0 66 20 66 35 0 18 -50 21
-68 3z"/>
<path d="M7573 8708 c-52 -57 -92 -148 -65 -148 21 0 97 101 107 143 9 34 -13
37 -42 5z"/>
<path d="M10911 8670 l-23 -20 37 0 c39 0 75 15 75 30 0 18 -64 10 -89 -10z"/>
<path d="M2143 8634 c-8 -22 15 -44 26 -25 10 16 4 41 -10 41 -5 0 -12 -7 -16
-16z"/>
<path d="M8143 8573 c-7 -2 -13 -18 -13 -34 0 -27 3 -30 28 -27 23 2 27 8 27
33 0 29 -15 40 -42 28z"/>
<path d="M10432 8508 c-22 -22 -14 -40 16 -36 33 4 47 48 15 48 -11 0 -24 -5
-31 -12z"/>
<path d="M10940 8480 c0 -5 7 -10 15 -10 8 0 15 5 15 10 0 6 -7 10 -15 10 -8
0 -15 -4 -15 -10z"/>
<path d="M2257 8463 c-23 -23 6 -73 58 -101 42 -22 73 29 42 69 -24 31 -83 50
-100 32z"/>
<path d="M1510 8405 c0 -10 7 -15 18 -13 21 4 19 22 -2 26 -10 2 -16 -3 -16
-13z"/>
<path d="M11422 8344 c-28 -19 -29 -44 -1 -44 34 0 78 29 79 53 0 13 -55 7
-78 -9z"/>
<path d="M2280 8325 c0 -16 71 -118 89 -130 6 -3 8 -18 5 -33 -4 -19 0 -32 13
-43 27 -24 104 -49 147 -49 35 0 37 2 25 17 -8 9 -38 27 -67 40 -51 22 -53 24
-48 56 8 44 -31 111 -66 115 -14 2 -34 12 -44 23 -21 23 -54 25 -54 4z"/>
<path d="M11060 8313 c-94 -33 -175 -67 -220 -91 -30 -16 -89 -37 -130 -46
-84 -18 -89 -21 -113 -56 -24 -34 -22 -39 19 -56 43 -18 84 -11 110 18 11 11
39 31 64 45 25 13 56 31 70 39 14 8 79 33 145 57 110 38 120 44 120 67 0 19
-6 25 -25 27 -14 1 -32 -1 -40 -4z"/>
<path d="M8854 8194 c-94 -42 -124 -54 -129 -54 -17 0 -95 -74 -95 -90 0 -27
51 -44 107 -35 65 9 141 43 148 66 3 10 15 21 25 24 40 13 38 89 -3 97 -13 3
-37 -1 -53 -8z"/>
<path d="M1642 7998 c2 -14 22 -33 58 -54 30 -18 73 -52 95 -77 52 -58 91 -77
160 -77 69 0 70 10 12 82 -38 47 -49 54 -91 60 -33 4 -63 19 -101 47 -43 33
-63 41 -95 41 -37 0 -41 -2 -38 -22z"/>
<path d="M1444 7985 c-8 -20 4 -35 26 -35 25 0 35 17 20 35 -16 19 -39 19 -46
0z"/>
<path d="M2087 7953 c-17 -16 -5 -45 24 -61 18 -9 68 -50 113 -90 80 -72 82
-73 131 -70 43 3 50 6 47 22 -7 38 -38 67 -108 101 -39 19 -91 51 -115 70 -41
33 -77 44 -92 28z"/>
<path d="M1430 7908 c1 -30 41 -58 84 -58 38 0 32 23 -13 48 -43 25 -71 28
-71 10z"/>
<path d="M9813 7895 c-3 -9 -3 -18 0 -21 10 -10 47 7 47 22 0 19 -39 18 -47
-1z"/>
<path d="M1629 7785 c-30 -16 -46 -79 -27 -102 6 -7 48 -32 94 -54 71 -35 90
-40 121 -34 82 15 88 36 23 79 -22 14 -46 39 -54 55 -18 34 -74 71 -107 71
-13 -1 -36 -7 -50 -15z"/>
<path d="M660 7725 c0 -27 56 -73 100 -80 22 -4 71 -22 109 -41 38 -19 83 -34
100 -34 27 0 31 4 31 26 0 21 -9 29 -57 50 -32 13 -85 38 -118 55 -74 38 -165
51 -165 24z"/>
<path d="M445 7713 c-36 -9 -46 -24 -39 -57 8 -39 22 -56 43 -56 20 0 118 -70
141 -100 23 -31 153 -38 200 -12 44 24 49 52 16 95 -20 26 -41 38 -88 52 -35
10 -94 31 -132 46 -78 32 -112 39 -141 32z"/>
<path d="M2050 7707 c0 -16 52 -47 79 -47 28 0 27 25 -1 44 -27 19 -78 21 -78
3z"/>
<path d="M9304 7656 c-96 -12 -116 -22 -139 -66 -17 -33 -5 -55 26 -47 166 36
274 79 274 108 0 18 -45 20 -161 5z"/>
<path d="M1137 7644 c-12 -12 -7 -58 8 -77 7 -10 22 -17 32 -15 14 3 18 13 18
48 0 41 -2 45 -25 48 -14 2 -29 0 -33 -4z"/>
<path d="M9503 7640 c-30 -12 -29 -28 2 -36 38 -10 75 3 75 26 0 15 -7 20 -27
19 -16 0 -38 -4 -50 -9z"/>
<path d="M9850 7540 c-8 -5 -30 -10 -48 -10 -39 0 -82 -26 -82 -49 0 -18 73
-84 113 -102 40 -18 112 -3 151 32 54 47 51 119 -4 119 -10 0 -22 5 -25 10 -8
13 -85 13 -105 0z"/>
<path d="M10830 7455 c-25 -8 -58 -27 -74 -44 l-28 -29 23 -16 c33 -23 97 -20
143 7 50 28 65 51 50 75 -14 22 -57 25 -114 7z"/>
<path d="M11214 7324 c-106 -56 -121 -74 -60 -74 35 0 201 54 224 72 28 24 13
38 -41 38 -43 0 -69 -8 -123 -36z"/>
<path d="M1392 7248 c4 -31 58 -40 58 -10 0 20 -18 32 -47 32 -9 0 -13 -8 -11
-22z"/>
<path d="M1520 7259 c0 -20 34 -38 73 -39 48 0 47 14 -3 34 -48 19 -70 20 -70
5z"/>
<path d="M1208 6969 c-22 -12 -23 -42 -4 -58 8 -6 36 -14 64 -18 65 -7 75 8
31 53 -35 34 -61 41 -91 23z"/>
<path d="M1840 6925 c0 -9 5 -15 11 -13 6 2 11 8 11 13 0 5 -5 11 -11 13 -6 2
-11 -4 -11 -13z"/>
<path d="M1162 6828 c7 -19 38 -22 38 -4 0 10 -9 16 -21 16 -12 0 -19 -5 -17
-12z"/>
<path d="M11003 6749 c-81 -25 -84 -44 -5 -35 122 14 182 28 182 42 0 21 -102
17 -177 -7z"/>
<path d="M184 6738 c-10 -16 42 -58 71 -58 26 0 50 32 41 56 -7 17 -101 20
-112 2z"/>
<path d="M8818 6624 c-5 -4 -8 -14 -8 -22 0 -11 13 -14 65 -10 62 4 85 11 72
24 -9 9 -121 17 -129 8z"/>
<path d="M8400 6600 c0 -5 7 -10 15 -10 8 0 15 5 15 10 0 6 -7 10 -15 10 -8 0
-15 -4 -15 -10z"/>
<path d="M11161 6356 c-7 -8 -11 -27 -9 -43 3 -25 8 -28 42 -31 51 -4 62 8 42
46 -21 41 -54 54 -75 28z"/>
<path d="M9489 6200 c-41 -4 -85 -13 -97 -19 -25 -13 -30 -49 -8 -57 18 -7
242 22 285 37 21 7 31 17 29 28 -4 19 -85 23 -209 11z"/>
<path d="M9743 6160 c-39 -16 -27 -33 18 -27 48 6 59 14 39 27 -18 12 -28 12
-57 0z"/>
<path d="M10632 6148 c-22 -22 -13 -38 21 -38 37 0 58 15 50 36 -6 17 -55 18
-71 2z"/>
<path d="M9130 6026 c0 -11 9 -16 26 -16 31 0 28 23 -4 28 -15 2 -22 -2 -22
-12z"/>
<path d="M10733 6008 c-45 -11 -111 -63 -114 -88 -1 -8 -1 -37 0 -65 l1 -50
59 -32 c45 -25 72 -33 109 -33 46 0 54 4 102 49 48 46 52 52 46 83 -4 18 -10
50 -13 70 -4 30 -12 40 -40 53 -46 22 -97 26 -150 13z"/>
<path d="M9884 5966 c-9 -22 4 -36 32 -36 21 0 25 4 22 23 -4 26 -45 37 -54
13z"/>
<path d="M722 5698 c7 -19 38 -22 38 -4 0 10 -9 16 -21 16 -12 0 -19 -5 -17
-12z"/>
<path d="M8410 5330 c0 -29 207 -108 253 -96 15 3 27 10 27 14 0 7 -121 63
-179 81 -43 14 -101 14 -101 1z"/>
<path d="M9266 5254 c-9 -23 -8 -24 22 -24 34 0 43 7 35 26 -7 19 -49 18 -57
-2z"/>
<path d="M8420 5165 c0 -18 33 -40 87 -55 54 -16 78 -8 63 21 -22 40 -150 70
-150 34z"/>
<path d="M1458 4982 c-29 -6 -20 -30 13 -37 45 -10 66 26 22 37 -10 2 -26 2
-35 0z"/>
<path d="M10190 4980 c0 -5 7 -10 15 -10 8 0 15 5 15 10 0 6 -7 10 -15 10 -8
0 -15 -4 -15 -10z"/>
<path d="M10770 4745 c0 -25 47 -47 147 -71 53 -12 99 -27 102 -32 10 -15 50
-24 77 -18 17 5 24 13 24 30 0 32 -15 42 -85 56 -33 6 -89 20 -124 31 -78 23
-141 25 -141 4z"/>
<path d="M8810 4692 c0 -15 24 -32 47 -32 25 0 29 10 11 28 -13 13 -58 16 -58
4z"/>
<path d="M1603 4646 c-48 -23 -16 -59 49 -54 37 3 43 7 46 27 6 39 -43 53 -95
27z"/>
<path d="M10040 4586 c0 -20 44 -53 80 -61 16 -3 34 -13 41 -21 17 -21 59 -18
59 4 0 19 -20 33 -92 69 -54 26 -88 30 -88 9z"/>
<path d="M1412 4568 c-19 -19 -14 -28 16 -28 35 0 45 9 31 27 -14 16 -31 17
-47 1z"/>
<path d="M10294 4388 c-10 -15 26 -43 84 -64 26 -10 66 -28 89 -41 27 -16 54
-23 75 -21 63 6 38 30 -87 85 -125 55 -149 61 -161 41z"/>
<path d="M1513 4373 c-7 -3 -13 -9 -13 -14 0 -12 37 -12 44 0 7 11 -14 20 -31
14z"/>
<path d="M8290 4210 c0 -5 7 -10 15 -10 8 0 15 5 15 10 0 6 -7 10 -15 10 -8 0
-15 -4 -15 -10z"/>
<path d="M8420 4195 c0 -9 9 -15 25 -15 16 0 25 6 25 15 0 9 -9 15 -25 15 -16
0 -25 -6 -25 -15z"/>
<path d="M7570 4147 c0 -23 45 -57 74 -57 37 0 29 19 -20 47 -45 26 -54 28
-54 10z"/>
<path d="M9860 4106 c0 -15 21 -26 51 -26 23 0 25 25 3 34 -27 10 -54 7 -54
-8z"/>
<path d="M1935 4010 c-21 -4 -31 -12 -33 -28 -3 -20 1 -22 40 -22 50 0 73 12
65 33 -7 18 -33 25 -72 17z"/>
<path d="M8720 3991 c0 -21 43 -61 66 -61 32 0 31 23 -2 49 -27 21 -64 28 -64
12z"/>
<path d="M7634 3828 c3 -18 14 -43 24 -56 9 -14 25 -39 35 -56 23 -38 56 -65
80 -66 27 0 20 23 -27 87 -24 33 -49 71 -56 84 -27 50 -66 55 -56 7z"/>
<path d="M7364 3825 c-6 -16 91 -164 114 -172 7 -3 21 1 29 10 15 15 14 19 -9
54 -14 21 -35 57 -47 81 -18 35 -26 42 -52 42 -17 0 -32 -6 -35 -15z"/>
<path d="M7980 3706 c0 -19 39 -66 55 -66 27 0 26 21 -4 50 -32 32 -51 38 -51
16z"/>
<path d="M1407 3663 c-37 -28 -44 -51 -31 -100 9 -33 36 -29 105 13 64 40 71
57 39 92 -28 30 -69 28 -113 -5z"/>
<path d="M6672 3553 c-20 -37 20 -155 67 -197 18 -16 25 -17 46 -8 31 14 33
46 4 104 -11 24 -28 59 -37 78 -20 41 -64 54 -80 23z"/>
<path d="M1744 3320 c-30 -12 -65 -60 -62 -84 2 -17 11 -22 44 -24 35 -3 45 1
63 24 12 15 21 37 19 47 -4 28 -38 47 -64 37z"/>
<path d="M6650 3290 c0 -5 9 -10 20 -10 11 0 20 5 20 10 0 6 -9 10 -20 10 -11
0 -20 -4 -20 -10z"/>
<path d="M9547 3228 c-15 -19 -27 -42 -27 -51 0 -24 56 -102 82 -113 52 -24
125 -47 163 -51 78 -9 139 63 106 126 -6 10 -41 40 -78 66 -62 44 -72 48 -144
52 l-76 6 -26 -35z"/>
<path d="M8010 3230 c0 -5 7 -10 15 -10 8 0 15 5 15 10 0 6 -7 10 -15 10 -8 0
-15 -4 -15 -10z"/>
<path d="M4410 3105 c-5 -14 -15 -25 -22 -25 -7 0 -19 -4 -27 -9 -12 -8 -8
-19 18 -60 27 -41 38 -51 61 -51 42 0 62 38 54 101 -4 33 -13 53 -25 59 -30
16 -49 11 -59 -15z"/>
<path d="M1476 3083 c-11 -12 -6 -33 8 -33 19 0 28 27 11 33 -7 3 -16 3 -19 0z"/>
<path d="M2775 3040 c-10 -11 -15 -23 -12 -26 10 -11 67 17 67 32 0 21 -34 17
-55 -6z"/>
<path d="M1240 3005 c-60 -23 -90 -41 -101 -60 -9 -14 -27 -34 -40 -43 -13 -8
-43 -32 -67 -53 -23 -20 -67 -50 -97 -65 -41 -22 -55 -34 -55 -51 0 -50 76
-57 134 -13 22 17 45 30 51 30 6 0 22 11 35 25 13 14 29 25 35 25 26 0 157 73
172 96 9 14 28 31 43 39 23 12 27 20 26 57 -1 38 -4 43 -26 45 -14 1 -63 -13
-110 -32z"/>
<path d="M5549 2989 c-7 -14 -9 -61 -6 -137 4 -96 8 -118 23 -129 33 -24 52
-16 59 27 4 21 4 44 0 50 -5 9 -34 176 -35 203 0 16 -30 6 -41 -14z"/>
<path d="M6930 2960 c0 -16 5 -21 23 -18 12 2 22 10 22 18 0 8 -10 16 -22 18
-18 3 -23 -2 -23 -18z"/>
<path d="M3867 2963 c-14 -13 -6 -33 13 -33 13 0 20 7 20 20 0 19 -20 27 -33
13z"/>
<path d="M9922 2833 c4 -22 48 -31 48 -10 0 14 -20 27 -42 27 -5 0 -8 -8 -6
-17z"/>
<path d="M3395 2768 c-2 -7 -8 -42 -14 -77 -7 -43 -24 -88 -50 -133 -22 -38
-50 -97 -62 -131 -12 -34 -28 -75 -37 -92 -8 -16 -23 -59 -33 -95 -9 -36 -24
-90 -33 -120 -25 -86 -23 -92 26 -88 41 3 43 5 60 53 10 28 18 57 18 65 0 8 9
21 20 28 15 9 20 23 20 52 0 45 24 124 50 160 9 14 21 48 24 75 4 28 18 103
31 169 13 65 21 124 18 132 -6 17 -32 18 -38 2z"/>
<path d="M6918 2763 c-23 -4 -28 -9 -28 -32 0 -56 27 -101 75 -121 24 -10 49
-28 55 -39 6 -12 34 -36 63 -54 42 -27 58 -46 84 -99 18 -35 49 -83 70 -106
34 -36 45 -42 96 -48 54 -6 57 -5 57 15 0 12 -11 39 -25 61 -14 22 -25 44 -25
49 0 10 -84 81 -115 96 -16 9 -20 20 -20 65 0 66 -35 131 -98 185 -37 32 -45
35 -101 34 -34 -1 -73 -4 -88 -6z"/>
<path d="M8097 2744 c-10 -11 15 -52 39 -63 30 -13 35 -3 19 37 -13 30 -41 43
-58 26z"/>
<path d="M6494 2648 c6 -66 24 -95 50 -85 40 16 -3 146 -48 147 -5 0 -6 -28
-2 -62z"/>
<path d="M7410 2695 c0 -11 7 -15 23 -13 12 2 22 8 22 13 0 6 -10 11 -22 13
-16 2 -23 -2 -23 -13z"/>
<path d="M7705 2661 c-9 -29 10 -64 48 -94 45 -34 67 -35 67 -3 0 39 -57 116
-85 116 -14 0 -26 -7 -30 -19z"/>
<path d="M6664 2646 c-12 -32 19 -90 60 -109 21 -10 45 -16 52 -13 22 9 17 71
-8 101 -29 33 -94 46 -104 21z"/>
<path d="M845 2603 c-73 -39 -153 -106 -158 -132 -4 -20 -18 -33 -56 -51 -60
-27 -86 -53 -77 -75 17 -46 96 -28 156 35 25 26 72 66 106 88 70 47 126 107
122 130 -4 23 -55 26 -93 5z"/>
<path d="M10860 2606 c0 -11 9 -16 26 -16 31 0 28 23 -4 28 -15 2 -22 -2 -22
-12z"/>
<path d="M6860 2582 c0 -36 43 -55 68 -30 19 19 -4 48 -38 48 -22 0 -30 -5
-30 -18z"/>
<path d="M6950 2460 c0 -23 26 -38 41 -23 14 14 0 43 -22 43 -12 0 -19 -7 -19
-20z"/>
<path d="M9510 2469 c0 -18 59 -111 93 -146 21 -22 40 -33 60 -33 l28 0 -21
38 c-47 84 -160 183 -160 141z"/>
<path d="M4682 2458 c-22 -28 -40 -76 -46 -123 -10 -75 -56 -238 -71 -255 -23
-26 -28 -66 -10 -84 30 -29 60 -17 70 29 4 17 24 84 46 150 59 183 69 221 69
259 0 31 -3 36 -24 36 -13 0 -28 -6 -34 -12z"/>
<path d="M1877 2454 c-4 -4 -7 -11 -7 -16 0 -13 50 -6 53 7 2 12 -36 19 -46 9z"/>
<path d="M5572 2448 c-17 -22 -23 -56 -12 -63 7 -4 9 -18 5 -32 -3 -13 -3 -40
1 -59 6 -32 9 -35 38 -32 30 3 31 4 44 87 13 79 13 86 -4 98 -23 16 -59 17
-72 1z"/>
<path d="M11383 2443 c-3 -8 -2 -18 4 -22 153 -101 207 -122 201 -79 -2 16
-24 35 -77 64 -85 48 -120 58 -128 37z"/>
<path d="M5124 2395 c-7 -38 -2 -51 15 -40 14 8 14 62 2 70 -6 3 -13 -11 -17
-30z"/>
<path d="M7510 2354 c0 -25 62 -145 78 -151 7 -3 18 -1 24 5 19 19 -58 162
-88 162 -8 0 -14 -7 -14 -16z"/>
<path d="M8493 2335 l-33 -34 44 -36 c49 -40 57 -41 91 -19 20 13 25 25 25 55
0 35 -3 40 -36 54 -49 20 -54 19 -91 -20z"/>
<path d="M2931 2295 c-17 -20 -31 -42 -31 -50 0 -7 -12 -27 -26 -45 -25 -30
-26 -31 -9 -50 25 -28 44 -25 58 8 7 15 24 45 38 67 32 51 40 71 33 90 -10 24
-30 18 -63 -20z"/>
<path d="M1710 2245 c0 -8 7 -15 15 -15 8 0 15 7 15 15 0 8 -7 15 -15 15 -8 0
-15 -7 -15 -15z"/>
<path d="M4550 2215 c0 -10 7 -15 18 -13 21 4 19 22 -2 26 -10 2 -16 -3 -16
-13z"/>
<path d="M8870 2144 c0 -19 19 -56 34 -66 6 -4 19 -8 29 -8 23 0 22 31 -4 64
-23 29 -59 35 -59 10z"/>
<path d="M2180 2055 c0 -8 7 -15 15 -15 8 0 15 7 15 15 0 8 -7 15 -15 15 -8 0
-15 -7 -15 -15z"/>
<path d="M4470 2010 c0 -11 7 -20 15 -20 8 0 15 9 15 20 0 11 -7 20 -15 20 -8
0 -15 -9 -15 -20z"/>
<path d="M8760 1930 c0 -5 7 -10 15 -10 8 0 15 5 15 10 0 6 -7 10 -15 10 -8 0
-15 -4 -15 -10z"/>
<path d="M1803 1915 c-3 -9 -3 -18 0 -22 10 -10 37 6 37 22 0 20 -29 20 -37 0z"/>
<path d="M5490 1810 c0 -5 7 -10 15 -10 8 0 15 5 15 10 0 6 -7 10 -15 10 -8 0
-15 -4 -15 -10z"/>
<path d="M2 1748 c4 -51 20 -58 53 -22 24 26 24 28 9 46 -10 10 -28 18 -41 18
-22 0 -24 -3 -21 -42z"/>
<path d="M967 1763 c-14 -13 -6 -33 12 -33 19 0 35 23 24 34 -8 8 -28 8 -36
-1z"/>
<path d="M7350 1685 c0 -8 7 -15 15 -15 8 0 15 7 15 15 0 8 -7 15 -15 15 -8 0
-15 -7 -15 -15z"/>
<path d="M8336 1654 c-21 -21 -20 -42 4 -81 24 -39 52 -42 68 -8 24 53 5 105
-38 105 -10 0 -26 -7 -34 -16z"/>
<path d="M6515 1602 c3 -15 6 -50 6 -77 2 -79 53 -119 105 -81 19 15 18 16 -8
64 -16 28 -28 56 -28 64 0 20 -42 58 -64 58 -14 0 -16 -6 -11 -28z"/>
<path d="M8050 1551 c0 -37 30 -91 50 -91 26 0 25 15 -2 68 -24 44 -48 56 -48
23z"/>
<path d="M10472 1538 c-18 -18 -14 -73 6 -91 10 -10 31 -17 45 -17 25 0 27 4
27 38 0 63 -45 103 -78 70z"/>
<path d="M10857 1502 c-10 -10 -17 -33 -17 -50 0 -80 142 -124 186 -57 26 39
12 68 -48 98 -62 32 -98 34 -121 9z"/>
<path d="M7231 1454 c-40 -50 -51 -125 -24 -163 11 -14 25 -49 32 -78 12 -50
46 -94 105 -136 10 -8 21 -30 25 -51 5 -31 13 -41 53 -63 62 -34 108 -27 138
22 27 44 18 90 -43 213 -8 17 -8 31 0 53 7 17 8 31 2 35 -5 3 -24 29 -43 57
-44 69 -97 117 -143 134 -57 19 -69 16 -102 -23z"/>
<path d="M9372 1238 c3 -24 34 -36 49 -21 16 16 -2 43 -28 43 -20 0 -24 -4
-21 -22z"/>
<path d="M8300 1225 c0 -10 7 -15 18 -13 21 4 19 22 -2 26 -10 2 -16 -3 -16
-13z"/>
<path d="M5980 1060 c0 -5 7 -10 15 -10 8 0 15 5 15 10 0 6 -7 10 -15 10 -8 0
-15 -4 -15 -10z"/>
<path d="M8530 1057 c0 -19 29 -57 44 -57 22 0 28 31 10 51 -19 22 -54 25 -54
6z"/>
<path d="M8102 718 c3 -70 5 -75 56 -140 29 -38 58 -80 64 -95 11 -26 27 -46
92 -116 35 -37 72 -34 69 6 -2 27 -45 97 -91 149 -18 20 -23 33 -18 55 5 23 1
34 -20 53 -14 14 -34 41 -44 61 -25 47 -74 99 -95 99 -15 0 -17 -9 -13 -72z"/>
<path d="M11170 120 c0 -5 9 -10 20 -10 11 0 20 5 20 10 0 6 -9 10 -20 10 -11
0 -20 -4 -20 -10z"/>
<path d="M11240 38 c0 -21 21 -38 48 -38 19 0 23 5 20 23 -2 17 -11 23 -35 25
-23 2 -33 -1 -33 -10z"/>
</g>
</svg>
