<?xml version="1.0" standalone="no"?>
<!DOCTYPE svg PUBLIC "-//W3C//DTD SVG 20010904//EN"
 "http://www.w3.org/TR/2001/REC-SVG-20010904/DTD/svg10.dtd">
<svg version="1.0" xmlns="http://www.w3.org/2000/svg"
 width="1869.000000pt" height="1489.000000pt" viewBox="0 0 1869.000000 1489.000000"
 preserveAspectRatio="xMidYMid meet">

<g transform="translate(0.000000,1489.000000) scale(0.100000,-0.100000)"
fill="#000000" stroke="none">
<path d="M17888 14871 c-26 -9 -63 -31 -82 -50 -20 -19 -38 -32 -42 -29 -3 4
-30 -18 -59 -48 -30 -30 -58 -54 -63 -54 -17 0 -44 -70 -38 -96 6 -21 12 -24
44 -23 20 1 51 10 68 21 17 10 36 18 42 18 14 0 88 76 109 111 9 15 29 34 46
44 50 30 67 53 67 90 0 41 -14 43 -92 16z"/>
<path d="M17957 14717 c-22 -46 -22 -45 17 -52 45 -9 73 7 78 45 4 25 1 30
-16 30 -12 0 -30 3 -42 6 -17 4 -24 -2 -37 -29z"/>
<path d="M16230 14254 c0 -9 5 -14 12 -12 18 6 21 28 4 28 -9 0 -16 -7 -16
-16z"/>
<path d="M17262 14063 c-26 -5 -48 -43 -39 -67 7 -18 47 -22 47 -5 0 5 4 8 9
5 12 -8 34 21 26 34 -3 5 -2 10 4 10 6 0 8 7 5 15 -6 15 -10 16 -52 8z"/>
<path d="M7049 13494 c-17 -20 5 -89 37 -121 20 -20 28 -22 40 -12 15 12 14
24 -12 95 -16 45 -45 62 -65 38z"/>
<path d="M8547 13473 c-11 -18 6 -173 18 -173 20 0 25 25 18 95 -5 59 -24 98
-36 78z"/>
<path d="M18603 13340 c-18 -4 -39 -12 -45 -18 -7 -5 -38 -15 -69 -21 -36 -8
-65 -21 -79 -37 -16 -16 -30 -22 -43 -18 -57 18 -116 -93 -76 -142 15 -18 72
-23 99 -8 14 7 41 15 61 19 46 7 114 52 184 122 54 54 74 103 41 103 -8 0 -20
2 -28 4 -7 2 -28 0 -45 -4z"/>
<path d="M12040 13118 c-35 -35 -70 -106 -70 -141 0 -12 -9 -37 -20 -55 -23
-38 -34 -96 -16 -87 6 3 18 8 27 11 18 6 59 74 59 97 0 8 11 22 25 31 14 10
31 29 37 44 7 15 20 37 31 49 17 19 17 24 5 50 -18 39 -39 39 -78 1z"/>
<path d="M7374 12955 c-3 -14 5 -57 21 -104 30 -86 57 -123 77 -103 9 9 6 31
-11 94 -12 46 -27 94 -34 107 -16 33 -45 36 -53 6z"/>
<path d="M17153 12805 c-15 -17 -17 -29 -3 -20 6 3 10 1 10 -4 0 -6 12 -11 26
-11 21 0 25 4 22 23 -4 26 -37 34 -55 12z"/>
<path d="M4930 12754 c0 -3 4 -14 10 -24 12 -23 50 -15 50 11 0 14 -7 19 -30
19 -16 0 -30 -3 -30 -6z"/>
<path d="M17888 12733 c-25 -6 -23 -48 3 -74 11 -11 23 -19 27 -16 4 2 22 9
40 16 22 9 32 20 32 34 0 11 -3 17 -7 14 -3 -4 -11 1 -18 10 -12 16 -46 23
-77 16z"/>
<path d="M8187 12283 c-4 -3 -7 -19 -7 -34 0 -15 -4 -31 -10 -34 -35 -22 27
-241 83 -293 14 -12 22 -14 35 -5 14 8 17 27 18 94 1 92 -11 147 -50 227 -24
49 -49 65 -69 45z"/>
<path d="M6615 12255 c-3 -8 -7 -22 -10 -31 -3 -9 6 -29 20 -46 22 -26 30 -47
26 -71 -1 -4 8 -25 19 -46 11 -22 22 -55 24 -74 7 -56 72 -111 102 -86 28 23
8 139 -31 181 -13 14 -37 54 -53 89 -29 64 -42 81 -75 92 -11 4 -19 1 -22 -8z"/>
<path d="M12239 12243 c-14 -16 -34 -45 -45 -67 -10 -21 -29 -45 -41 -53 -13
-9 -23 -24 -23 -34 0 -10 -7 -22 -16 -27 -13 -7 -14 -13 -6 -29 22 -41 35 -44
90 -16 40 20 52 31 52 48 0 13 7 25 15 29 9 3 15 18 15 34 0 17 10 40 25 56
28 31 33 71 9 80 -30 12 -50 6 -75 -21z"/>
<path d="M10455 12209 c-4 -6 -5 -13 -2 -16 7 -7 27 6 27 18 0 12 -17 12 -25
-2z"/>
<path d="M10935 12180 c-11 -5 -31 -25 -45 -44 -14 -20 -30 -36 -36 -36 -6 0
-9 -12 -6 -28 2 -18 -2 -33 -12 -41 -20 -17 -20 -50 0 -79 14 -21 54 -31 54
-14 0 4 10 12 23 17 15 7 28 29 42 72 11 34 31 73 44 87 21 22 22 28 10 43
-27 35 -39 38 -74 23z"/>
<path d="M13514 12170 c-12 -5 -24 -15 -27 -24 -4 -10 -18 -16 -36 -16 -25 0
-30 -5 -36 -30 -4 -16 -11 -32 -16 -35 -5 -4 -9 -17 -9 -29 0 -19 7 -25 30
-28 19 -3 35 1 42 9 6 8 24 21 39 29 15 7 30 23 34 34 3 11 13 20 21 20 10 0
13 8 10 27 -7 37 -26 53 -52 43z"/>
<path d="M10682 12163 c-28 -6 -62 -73 -62 -126 0 -30 -6 -43 -29 -63 -31 -26
-53 -77 -50 -116 4 -42 -1 -58 -17 -58 -11 0 -14 -8 -12 -27 3 -25 9 -29 50
-36 68 -13 114 11 129 67 7 22 18 61 26 86 9 27 12 62 8 90 -5 42 -4 46 25 62
41 23 43 76 4 107 -27 21 -30 22 -72 14z"/>
<path d="M8757 11871 c-2 -10 3 -83 13 -162 10 -79 21 -200 25 -269 6 -115 14
-150 36 -150 5 0 13 10 20 21 8 16 8 45 -1 115 -6 52 -16 142 -21 201 -16 182
-26 245 -40 254 -21 13 -26 11 -32 -10z"/>
<path d="M13926 11730 c-27 -27 -57 -50 -68 -50 -20 0 -77 -34 -116 -68 -32
-28 -44 -135 -18 -145 10 -4 26 -2 37 3 10 6 19 7 19 3 0 -4 5 -2 12 5 7 7 18
12 25 12 8 0 26 11 40 24 15 14 50 44 79 68 105 87 134 175 64 192 -21 6 -34
-2 -74 -44z"/>
<path d="M16702 11737 c-19 -6 -41 -21 -50 -35 -15 -24 -15 -26 12 -49 16 -13
35 -22 43 -19 8 3 25 6 38 6 13 0 34 10 47 21 23 21 24 23 9 55 -17 37 -37 41
-99 21z"/>
<path d="M6850 11630 c0 -5 5 -10 10 -10 6 0 10 5 10 10 0 6 -4 10 -10 10 -5
0 -10 -4 -10 -10z"/>
<path d="M11389 11371 c-19 -10 -35 -27 -37 -40 -2 -11 -7 -21 -12 -21 -5 0
-27 -19 -50 -42 -39 -42 -40 -44 -38 -108 3 -62 4 -65 29 -68 20 -2 28 2 32
17 3 12 12 21 20 21 8 0 18 14 23 31 5 18 18 37 29 43 31 18 44 39 45 73 0 17
5 35 10 38 14 9 12 51 -3 63 -10 9 -22 7 -48 -7z"/>
<path d="M8430 11310 c-6 -12 -8 -30 -4 -42 3 -11 7 -40 9 -64 3 -43 24 -82
64 -118 29 -26 43 -11 51 52 4 41 1 54 -27 101 -18 30 -35 63 -39 73 -7 24
-41 23 -54 -2z"/>
<path d="M7921 11256 c-9 -10 -11 -28 -7 -48 4 -18 9 -49 12 -68 10 -67 14
-77 38 -88 20 -9 28 -7 45 7 26 23 26 37 1 100 -11 28 -17 56 -15 63 12 33
-51 61 -74 34z"/>
<path d="M12618 11110 c-7 -11 -21 -20 -31 -20 -9 0 -38 -21 -63 -46 -36 -35
-44 -48 -34 -57 9 -9 15 -7 27 11 9 12 24 22 33 22 10 0 27 11 38 25 11 14 27
25 35 25 20 0 40 27 33 45 -8 21 -23 19 -38 -5z"/>
<path d="M7233 11093 c-14 -5 43 -127 72 -157 19 -19 45 -21 45 -3 0 16 -89
167 -98 166 -4 0 -13 -3 -19 -6z"/>
<path d="M10311 10971 c-12 -16 -21 -32 -21 -36 0 -11 -28 -35 -42 -35 -7 0
-39 -14 -72 -30 -53 -26 -65 -28 -135 -24 -99 6 -136 -11 -171 -80 -29 -57
-44 -62 -133 -43 -47 9 -59 16 -63 34 -9 33 -30 40 -104 34 -59 -5 -66 -9 -78
-34 -13 -26 -17 -28 -50 -22 -21 3 -60 22 -88 41 -64 43 -90 44 -99 5 -8 -38
-51 -81 -80 -81 -12 0 -28 -7 -35 -15 -14 -17 -85 -21 -95 -5 -9 14 -71 12
-83 -3 -6 -6 -13 -24 -17 -39 -10 -41 -22 -46 -122 -52 -50 -3 -100 -10 -111
-17 -11 -7 -27 -9 -37 -5 -16 6 -16 8 0 32 19 29 13 74 -10 74 -18 0 -45 39
-45 65 0 11 -11 36 -24 55 -13 19 -27 50 -30 68 -4 17 -11 32 -15 32 -11 0
-51 -45 -51 -58 0 -37 -24 -61 -72 -71 -27 -6 -62 -11 -78 -11 -28 0 -30 -3
-30 -38 0 -41 14 -62 41 -62 9 0 21 -6 27 -13 16 -19 -15 -82 -45 -96 -31 -14
-49 -4 -77 45 -18 32 -28 40 -64 46 -76 13 -122 54 -122 108 0 13 -14 26 -40
39 -33 16 -46 17 -73 9 -75 -25 -74 -24 -81 -78 -6 -42 -11 -53 -34 -63 -51
-23 -71 -56 -72 -118 0 -43 -5 -60 -20 -74 -11 -10 -23 -36 -26 -57 -7 -43 -7
-42 -33 -26 -15 9 -28 7 -66 -11 -41 -19 -52 -21 -76 -10 -16 6 -40 9 -54 7
-33 -7 -57 19 -32 33 29 17 20 38 -20 44 -21 3 -56 15 -77 25 -22 10 -43 17
-47 14 -4 -2 -10 -25 -14 -52 -7 -50 -42 -102 -70 -102 -8 0 -15 -7 -15 -15 0
-23 -28 -30 -48 -13 -25 22 -44 27 -65 16 -14 -7 -24 -5 -37 7 -28 25 -47 12
-55 -37 -4 -24 -14 -52 -21 -63 -8 -11 -14 -34 -14 -51 0 -47 -51 -61 -85 -24
-39 43 -104 70 -170 70 -57 0 -63 -2 -73 -25 -7 -14 -12 -33 -12 -41 0 -8 -13
-20 -30 -25 -16 -6 -30 -15 -30 -20 0 -5 -6 -9 -14 -9 -9 0 -15 -24 -20 -87
-3 -48 -11 -104 -16 -124 -9 -32 -14 -37 -35 -34 -14 1 -42 14 -63 29 -21 14
-46 26 -55 26 -22 0 -53 -27 -78 -67 -14 -22 -27 -32 -42 -30 -16 2 -24 -7
-37 -42 -10 -25 -26 -48 -36 -52 -10 -3 -28 -16 -38 -28 -11 -11 -27 -21 -36
-21 -10 0 -29 -9 -42 -20 -38 -29 -76 -42 -96 -31 -35 19 -101 22 -130 8 -33
-18 -93 -37 -114 -37 -9 0 -21 7 -28 16 -20 24 -71 15 -101 -19 -23 -25 -27
-26 -39 -13 -7 9 -26 16 -43 16 -33 0 -97 -20 -97 -30 0 -3 -8 -15 -18 -26
-10 -10 -21 -27 -25 -37 -6 -16 -14 -18 -46 -12 -35 6 -41 3 -63 -25 -22 -28
-28 -31 -46 -21 -19 10 -24 7 -47 -29 -37 -59 -33 -81 28 -135 70 -64 75 -79
30 -100 -74 -35 -176 -37 -228 -4 -49 31 -119 54 -134 45 -6 -4 -11 -14 -11
-22 0 -8 -5 -23 -12 -33 -11 -18 -13 -18 -35 -4 -13 9 -25 14 -26 12 -2 -2
-14 -21 -27 -41 -14 -21 -31 -38 -38 -38 -7 0 -15 -6 -17 -13 -4 -8 -27 -13
-65 -14 -66 -1 -82 -11 -106 -68 -25 -60 -66 -56 -79 6 -4 19 -16 34 -31 39
-14 6 -34 26 -45 45 -12 19 -25 35 -30 35 -14 0 -71 -30 -91 -47 -10 -9 -24
-13 -32 -10 -8 3 -30 -4 -48 -17 -31 -21 -33 -26 -33 -79 0 -52 -3 -59 -30
-77 -18 -12 -38 -17 -52 -14 -15 4 -30 -1 -45 -15 -13 -12 -32 -28 -43 -35
-17 -13 -18 -18 -7 -33 24 -35 45 -89 50 -132 4 -40 3 -42 -14 -33 -24 13 -86
1 -139 -27 -21 -12 -52 -21 -67 -21 -23 0 -28 -4 -28 -25 0 -33 -32 -49 -85
-42 -36 5 -46 2 -79 -25 -40 -33 -75 -38 -171 -23 -43 6 -53 4 -67 -12 -22
-24 -32 -73 -19 -93 7 -10 29 -14 75 -15 l66 0 15 -37 c14 -37 14 -39 -16 -83
-17 -25 -36 -45 -43 -45 -7 0 -22 11 -34 25 -31 36 -61 36 -135 3 -41 -19 -55
-20 -96 -12 -33 7 -51 7 -58 -1 -17 -19 -21 -91 -8 -155 12 -59 12 -63 -6 -67
-10 -3 -19 -10 -19 -15 0 -5 -5 -6 -11 -2 -8 5 -10 -3 -6 -27 6 -31 3 -37 -34
-68 -34 -28 -46 -32 -74 -28 -38 6 -73 -13 -154 -84 -24 -22 -50 -39 -57 -39
-16 0 -27 -34 -19 -60 4 -13 15 -20 30 -20 30 0 74 -18 100 -42 11 -9 34 -30
52 -45 26 -24 32 -37 36 -85 4 -44 2 -58 -7 -58 -8 0 -19 -6 -25 -14 -15 -18
0 -51 34 -78 20 -16 21 -21 12 -57 -9 -32 -8 -44 6 -65 19 -28 34 -31 81 -16
17 5 44 12 60 15 16 4 30 14 33 25 4 15 14 20 38 20 19 0 40 3 48 6 9 3 28 -7
46 -25 18 -17 38 -31 46 -31 9 0 19 -18 26 -45 8 -33 20 -50 44 -65 38 -24 45
-36 38 -72 -6 -34 38 -132 66 -147 11 -7 28 -25 36 -41 29 -56 95 -26 95 42 0
23 7 31 37 45 21 8 48 20 59 25 12 6 26 20 32 32 11 24 56 49 122 66 82 22 90
27 90 60 0 72 84 3 142 -118 34 -72 39 -88 29 -108 -19 -43 -14 -73 15 -80 29
-7 93 1 106 14 5 5 12 29 15 53 6 49 28 99 43 99 6 0 10 -8 10 -17 0 -10 9
-37 20 -60 19 -42 20 -43 70 -43 l50 0 0 37 c0 35 0 36 20 18 11 -10 20 -23
20 -29 0 -6 18 -28 40 -49 53 -49 52 -70 -2 -83 -56 -12 -63 -43 -19 -80 32
-27 43 -78 19 -87 -10 -3 -7 -20 10 -68 12 -35 22 -83 22 -107 0 -37 5 -47 47
-87 26 -25 56 -45 67 -45 12 0 31 -3 44 -6 20 -6 22 -11 16 -37 -4 -21 0 -44
16 -77 20 -43 27 -49 84 -69 76 -27 91 -38 100 -76 13 -52 37 -93 57 -98 11
-3 22 -17 25 -35 4 -22 16 -35 39 -46 44 -21 48 -21 68 14 10 17 27 30 38 30
10 0 28 9 38 19 12 12 27 17 41 14 13 -4 29 2 43 15 26 24 115 72 133 72 8 0
14 4 14 10 0 5 22 20 49 33 49 23 50 23 97 6 25 -10 55 -25 65 -35 18 -16 18
-17 -7 -36 -14 -11 -23 -23 -20 -26 3 -2 -2 -18 -11 -33 -13 -22 -15 -35 -7
-56 10 -29 44 -45 44 -21 0 21 61 48 103 45 32 -2 39 -6 49 -34 7 -18 17 -33
24 -33 13 0 24 -22 24 -51 0 -34 76 -53 87 -21 4 9 16 29 29 44 12 15 24 33
26 39 2 6 33 17 68 23 63 12 65 13 68 45 l3 33 67 -6 c37 -4 84 -14 105 -23
31 -13 46 -15 78 -6 45 12 82 -1 88 -32 5 -28 40 -75 55 -75 7 0 23 -9 36 -20
13 -11 25 -20 27 -20 13 0 130 44 141 52 14 12 16 54 2 63 -20 12 -9 36 23 51
17 8 40 20 49 26 14 10 23 7 55 -18 21 -17 39 -40 41 -52 2 -12 19 -35 38 -52
34 -29 36 -30 70 -15 26 11 47 12 77 6 23 -5 85 -9 137 -10 79 -2 98 -5 116
-22 11 -10 23 -17 26 -14 3 3 18 0 34 -6 35 -15 126 -38 177 -46 48 -7 87 3
87 22 0 18 15 18 140 1 82 -11 160 -36 160 -51 0 -3 -5 -14 -12 -24 -14 -22 2
-69 34 -97 16 -15 21 -16 28 -4 6 9 27 13 67 12 136 -2 157 -10 168 -63 6 -25
18 -35 71 -59 35 -16 67 -36 70 -45 10 -26 41 -37 65 -24 12 6 47 15 78 19 47
6 60 4 80 -11 16 -13 40 -19 73 -19 46 0 49 1 55 31 3 18 14 34 23 36 10 3 23
16 30 29 12 22 15 23 31 8 23 -20 53 -11 67 21 9 19 19 25 44 25 50 0 62 -12
54 -53 -8 -43 1 -47 79 -35 33 6 76 11 95 12 l35 1 7 -65 c4 -36 5 -97 2 -136
-7 -78 5 -114 36 -114 10 0 21 8 24 18 7 21 -1 148 -9 162 -12 20 28 23 61 5
20 -11 42 -15 58 -11 21 5 26 14 31 54 3 26 10 54 14 62 12 22 88 37 157 32
39 -3 64 0 68 7 4 6 22 11 41 11 25 0 35 5 40 20 3 11 12 20 18 20 7 0 20 14
29 30 20 34 51 39 99 15 21 -11 43 -14 78 -9 49 6 89 -9 117 -45 7 -9 20 -11
42 -6 26 5 32 12 32 31 0 29 16 64 30 64 4 0 26 16 48 36 31 27 43 48 52 87
16 69 33 93 69 100 28 6 31 10 31 44 0 21 4 43 8 49 13 21 52 35 77 28 20 -5
25 -3 25 13 0 23 26 80 49 106 14 17 14 22 -7 57 -28 50 -28 64 3 78 38 17 79
15 106 -7 13 -10 33 -20 44 -22 25 -5 65 -65 65 -98 0 -38 34 -122 54 -133 11
-6 21 -6 29 1 7 5 29 12 48 14 20 2 41 7 47 11 7 4 33 -12 60 -38 27 -26 58
-46 69 -46 24 0 58 -34 72 -73 8 -21 16 -27 29 -23 28 9 53 -16 59 -60 7 -51
-14 -73 -53 -55 -14 6 -35 11 -47 11 -31 0 -87 -36 -87 -57 0 -28 50 -73 82
-73 17 0 33 -8 40 -20 15 -23 35 -26 57 -6 25 22 53 22 99 2 47 -21 59 -59 22
-69 -15 -4 -20 -13 -20 -39 0 -49 12 -63 38 -47 18 12 24 11 36 -1 12 -12 13
-23 3 -57 -6 -23 -8 -45 -5 -48 5 -5 129 7 208 20 31 6 39 2 69 -29 19 -20 42
-36 51 -36 9 0 25 -9 36 -21 29 -32 53 -42 134 -55 41 -6 83 -14 92 -18 11 -5
24 0 37 13 30 30 66 27 91 -9 29 -40 56 -45 119 -20 29 11 56 18 61 15 4 -3
24 2 44 10 49 21 61 19 75 -11 6 -15 17 -24 25 -21 23 9 36 -8 38 -49 1 -56
13 -74 49 -74 39 0 83 31 115 81 14 22 36 45 49 51 16 7 25 19 25 35 0 12 5
23 10 23 6 0 9 12 8 26 -2 21 4 29 37 47 89 46 90 47 129 36 20 -6 55 -9 78
-7 37 3 44 7 62 43 25 48 54 55 107 26 20 -12 58 -24 84 -28 34 -4 56 -14 74
-33 25 -26 29 -27 87 -21 33 3 68 13 76 21 8 9 17 37 20 64 5 46 4 51 -27 80
-26 24 -34 41 -38 78 -3 35 -1 48 10 53 9 3 13 13 10 24 -6 22 10 31 56 31 21
1 45 12 67 30 44 38 56 38 81 -5 26 -43 55 -61 73 -46 10 8 18 6 31 -9 10 -11
24 -20 31 -20 7 0 22 -12 33 -26 12 -15 31 -28 44 -29 12 -2 34 -6 48 -10 16
-4 30 -2 33 4 4 6 25 11 47 11 29 0 47 7 65 25 13 14 38 26 54 27 17 1 30 8
30 15 0 7 5 13 10 13 6 0 10 6 10 13 0 8 11 19 25 25 25 11 34 32 15 32 -5 0
-10 9 -10 20 0 27 -22 70 -49 94 -12 11 -21 25 -21 32 0 22 -86 65 -137 69
-27 2 -50 3 -52 4 -3 1 3 7 12 13 10 7 19 24 22 37 2 13 6 24 7 25 52 21 97
73 83 97 -4 6 -24 7 -50 3 -37 -5 -45 -3 -54 14 -6 11 -9 27 -6 34 3 8 -6 24
-20 36 -14 12 -25 27 -25 34 0 7 -17 29 -37 50 -48 49 -35 61 49 44 35 -6 38
-5 51 26 12 28 23 35 75 50 l61 18 37 -25 c21 -14 42 -24 48 -22 6 1 22 24 34
50 l24 46 -23 32 c-12 17 -25 45 -28 62 -6 26 -13 33 -41 38 -20 4 -44 19 -56
35 -20 24 -26 26 -65 20 -32 -4 -58 -1 -94 13 l-50 19 0 58 c0 56 2 60 34 79
65 39 91 70 91 111 0 23 -7 46 -19 58 -29 31 -30 87 -3 121 24 30 30 92 12
126 -8 14 -17 18 -35 13 -20 -5 -28 0 -44 27 -17 29 -20 44 -14 109 4 57 10
79 25 90 13 11 18 26 16 50 -3 34 -2 35 31 32 43 -4 81 5 81 20 0 6 7 20 16
29 16 17 15 19 -9 28 -32 12 -40 26 -28 48 5 10 14 30 20 46 6 15 16 27 24 27
7 0 20 9 30 20 16 19 16 22 -3 60 -24 47 -12 53 42 20 64 -39 107 -14 94 55
-4 21 -2 36 7 43 11 10 12 24 3 77 -12 72 -52 135 -86 135 -11 0 -20 6 -20 14
0 29 13 46 35 46 12 0 28 7 35 15 7 8 19 15 26 15 8 0 14 10 14 24 0 13 7 29
15 36 8 7 15 20 15 30 0 10 -7 23 -15 30 -8 7 -15 25 -15 41 0 22 -5 29 -20
29 -24 0 -67 64 -72 106 -3 26 -7 29 -38 29 -34 0 -109 43 -139 79 -8 9 -20
16 -28 16 -18 0 -73 38 -73 51 0 5 6 9 14 9 22 0 46 29 46 55 0 16 9 26 29 35
16 6 38 22 48 34 12 14 37 26 61 30 31 5 45 13 59 36 17 30 61 50 108 50 31 0
46 19 34 42 -5 10 -17 18 -25 18 -9 0 -34 18 -56 40 -47 46 -75 50 -107 16
-21 -22 -39 -28 -134 -42 -20 -4 -43 -14 -50 -23 -24 -33 -64 -42 -107 -25
-36 14 -45 14 -103 0 -35 -9 -73 -16 -85 -16 -43 0 -63 63 -47 151 7 36 25 56
95 102 19 12 35 30 34 40 0 9 -1 35 -2 56 -2 46 -13 52 -99 55 -42 2 -56 -1
-63 -15 -5 -9 -20 -19 -32 -22 -69 -16 -116 -43 -166 -93 -31 -31 -74 -65 -96
-76 -63 -32 -103 -66 -110 -94 l-7 -25 -37 32 c-20 18 -44 46 -52 63 -8 17
-26 36 -40 43 -24 12 -59 51 -60 66 0 4 12 19 26 32 25 23 25 24 9 59 -10 21
-25 36 -38 38 -29 4 -31 21 -5 33 12 6 29 22 37 36 14 25 12 29 -34 88 -52 66
-63 70 -124 45 -31 -12 -44 -13 -61 -4 -12 6 -33 9 -46 6 -19 -5 -24 -13 -24
-36 0 -23 -7 -33 -32 -46 l-32 -16 -29 36 c-24 30 -35 36 -66 36 -20 0 -54 -9
-76 -20 -39 -20 -54 -15 -55 17 0 7 -11 23 -25 36 l-26 23 26 48 c32 60 32 92
0 122 -14 13 -25 32 -25 44 0 15 -6 20 -24 20 -23 0 -49 18 -158 110 -45 38
-92 62 -132 67 -17 1 -44 13 -60 24 l-28 21 -38 -21 c-42 -23 -50 -20 -50 20
0 17 -8 34 -21 43 -31 21 -18 46 25 46 25 0 35 5 39 20 3 12 14 20 25 20 29 0
32 19 18 99 -9 59 -16 74 -35 84 -13 7 -23 15 -23 20 2 29 15 67 23 67 5 0 9
7 9 15 0 10 -11 16 -32 17 -58 3 -103 -3 -110 -15 -6 -9 -12 -9 -25 1 -10 7
-30 17 -45 23 -15 6 -34 21 -42 35 -9 13 -30 31 -46 39 -25 13 -30 22 -30 51
0 24 -5 37 -17 41 -10 3 -32 17 -50 29 -17 13 -38 22 -45 19 -8 -3 -26 8 -41
25 -49 54 -72 32 -81 -79 -7 -79 -8 -81 -44 -103 -20 -12 -39 -25 -42 -28 -3
-3 -34 -11 -69 -18 -89 -16 -131 7 -131 70 0 11 -8 33 -17 49 -16 28 -16 29 2
43 11 8 31 12 46 9 20 -4 27 1 37 22 16 34 15 52 -4 108 -20 59 -45 75 -81 52
-35 -23 -78 -4 -103 46 -18 35 -24 38 -67 41 -39 2 -50 8 -59 27 -20 40 -124
64 -124 29 0 -6 -9 -3 -20 7 -19 17 -20 17 -35 -19 -11 -26 -13 -42 -5 -56 7
-13 7 -26 -1 -43 -8 -19 -8 -31 3 -53 12 -23 12 -33 2 -52 -16 -32 -67 -62
-93 -55 -11 3 -29 2 -38 -2 -10 -4 -33 -8 -51 -10 -36 -2 -54 17 -33 38 6 6
11 28 11 48 0 20 7 42 15 49 17 14 45 67 45 85 0 7 -14 16 -32 21 -24 7 -34
18 -45 48 -15 44 -40 76 -59 76 -7 0 -22 -13 -33 -29z m-3001 -807 c21 -21 22
-27 10 -35 -22 -14 -82 -6 -93 13 -8 12 -7 21 2 32 20 24 54 19 81 -10z m6485
-3160 c24 -25 15 -58 -17 -62 -61 -7 -94 47 -40 66 37 14 38 14 57 -4z m-6569
-835 c12 -13 10 -18 -12 -42 -25 -27 -26 -27 -54 -11 -26 16 -30 16 -53 1 -13
-8 -27 -29 -30 -46 -11 -55 -47 -34 -47 28 0 27 48 83 79 93 24 7 101 -8 117
-23z m-1826 -94 c0 -8 -4 -15 -9 -15 -13 0 -22 16 -14 24 11 11 23 6 23 -9z
m-50 -56 c0 -5 -7 -9 -15 -9 -15 0 -20 12 -9 23 8 8 24 -1 24 -14z m-180 -68
c0 -10 -7 -21 -15 -25 -11 -4 -15 1 -15 19 0 16 6 25 15 25 8 0 15 -9 15 -19z
m4140 -582 c0 -11 -4 -17 -10 -14 -5 3 -10 15 -10 26 0 11 5 17 10 14 6 -3 10
-15 10 -26z m2401 -115 c12 -14 11 -16 -5 -13 -11 2 -21 10 -24 17 -5 17 13
15 29 -4z"/>
<path d="M598 10743 c-20 -5 -22 -12 -9 -32 5 -7 14 -10 20 -7 6 4 11 2 11 -3
0 -6 9 -11 20 -11 26 0 27 36 1 50 -11 5 -21 9 -23 9 -2 -1 -11 -3 -20 -6z"/>
<path d="M14450 10365 c-24 -8 -36 -20 -38 -35 -3 -21 -1 -22 32 -17 49 8 91
29 91 47 0 19 -40 22 -85 5z"/>
<path d="M15813 10215 c-29 -20 -98 -42 -160 -50 -29 -4 -53 -11 -53 -15 0 -5
-9 -12 -20 -15 -18 -6 -28 -43 -15 -57 9 -9 129 12 152 27 12 8 32 15 44 15
32 0 139 71 139 93 0 22 -56 24 -87 2z"/>
<path d="M3578 9582 c-7 -25 9 -42 38 -42 13 0 25 -4 28 -9 4 -5 40 -9 81 -10
68 -1 75 1 75 19 0 29 -50 50 -139 57 -73 5 -78 4 -83 -15z"/>
<path d="M2305 9240 c35 -23 55 -26 55 -6 0 14 -29 26 -65 26 -17 0 -15 -3 10
-20z"/>
<path d="M2395 9230 c-4 -6 1 -12 9 -15 9 -3 23 -7 31 -10 25 -7 17 11 -10 23
-15 7 -26 8 -30 2z"/>
<path d="M0 8998 c0 -45 8 -54 65 -80 41 -19 69 -23 155 -24 97 -1 282 25 298
41 11 11 -28 34 -67 40 -20 3 -67 15 -104 26 -37 11 -82 19 -100 18 -18 -2
-37 -1 -42 3 -6 3 -28 3 -50 1 -54 -6 -74 -5 -117 2 -37 5 -38 5 -38 -27z"/>
<path d="M14340 7692 c-37 -4 -63 -19 -55 -32 6 -10 97 -21 221 -26 87 -4 104
-3 124 14 21 17 21 19 6 34 -13 14 -37 16 -139 15 -67 -1 -138 -3 -157 -5z"/>
<path d="M2800 6441 c0 -5 -26 -11 -57 -14 -112 -10 -166 -25 -281 -80 -13 -6
-48 -11 -78 -11 -30 1 -54 -3 -54 -7 0 -5 -15 -9 -34 -9 -19 0 -37 -4 -40 -9
-3 -4 -17 -6 -31 -4 -54 11 -105 -19 -105 -62 0 -30 31 -41 71 -25 16 7 43 10
61 7 20 -3 39 1 49 9 8 8 47 21 85 30 38 9 82 23 97 31 16 8 40 13 54 10 13
-2 46 2 71 10 26 7 57 11 69 8 12 -3 23 -1 25 5 2 5 12 11 23 13 11 2 29 8 40
14 11 6 23 11 28 12 37 3 58 55 27 71 -11 6 -20 7 -20 1z"/>
<path d="M3635 6390 c-4 -7 -2 -16 6 -21 18 -11 23 -4 11 17 -7 12 -11 13 -17
4z"/>
<path d="M3640 5975 c-7 -8 -19 -15 -26 -15 -8 0 -14 -4 -14 -10 0 -5 -11 -10
-24 -10 -27 0 -92 -25 -101 -39 -3 -6 0 -20 7 -31 10 -16 20 -20 38 -16 14 3
40 8 58 12 17 3 32 10 32 15 0 5 17 12 38 15 29 5 41 13 55 40 9 19 17 39 17
44 0 16 -66 11 -80 -5z"/>
<path d="M4623 5735 c-18 -8 -33 -19 -33 -25 0 -6 -4 -8 -10 -5 -5 3 -10 0
-10 -7 0 -8 -14 -14 -33 -15 -19 -2 -56 -14 -83 -29 -59 -31 -74 -43 -74 -58
0 -18 56 -18 70 -1 7 8 16 15 21 15 5 0 21 12 36 28 29 28 83 52 121 52 11 0
24 5 27 10 4 6 10 8 15 5 15 -9 22 15 10 30 -15 18 -16 18 -57 0z"/>
<path d="M15396 5614 c-3 -9 -6 -18 -6 -20 0 -8 25 -4 40 6 13 9 13 11 0 20
-21 13 -27 12 -34 -6z"/>
<path d="M14373 5597 c-35 -9 -42 -15 -46 -41 -3 -17 -9 -43 -12 -57 -5 -18 0
-36 17 -62 22 -35 36 -41 91 -40 9 0 17 -3 17 -6 0 -10 53 -5 81 6 59 25 79
111 34 153 -20 19 -119 62 -135 58 -3 0 -24 -6 -47 -11z"/>
<path d="M6710 5533 c-58 -20 -109 -53 -160 -104 -62 -61 -72 -82 -44 -93 18
-7 46 6 87 40 16 13 32 24 37 24 32 0 130 99 130 130 0 11 -25 12 -50 3z"/>
<path d="M6405 5322 c-11 -2 -29 -12 -40 -21 -11 -10 -35 -24 -52 -31 -18 -7
-33 -15 -33 -19 0 -4 -12 -14 -27 -24 -57 -34 -56 -33 -44 -56 7 -11 21 -21
32 -21 38 0 102 25 131 53 17 15 37 27 45 27 19 0 43 24 43 43 0 24 -33 54
-55 49z"/>
<path d="M7665 5198 c-24 -14 -39 -33 -60 -75 -9 -18 -20 -35 -25 -38 -6 -3
-10 -17 -10 -29 0 -13 -7 -40 -15 -59 -8 -20 -15 -47 -15 -60 0 -14 -7 -30
-15 -37 -8 -7 -15 -19 -15 -28 0 -8 -11 -25 -25 -38 -14 -13 -25 -34 -25 -47
0 -14 -7 -30 -15 -37 -8 -7 -15 -19 -15 -26 0 -8 -11 -19 -24 -24 -16 -6 -26
-19 -30 -42 -3 -19 -15 -40 -26 -48 -27 -20 -25 -48 4 -61 21 -10 28 -7 60 24
23 23 43 58 57 99 11 35 27 70 34 78 7 8 19 33 26 55 7 22 17 44 21 50 4 5 8
19 8 32 0 12 10 33 23 47 48 54 77 94 77 109 0 8 12 35 26 60 25 45 30 97 9
103 -5 2 -19 -2 -30 -8z"/>
<path d="M11020 5156 c0 -45 41 -89 62 -68 16 16 -18 82 -41 82 -12 0 -21 -6
-21 -14z"/>
<path d="M14901 4606 c-10 -12 -8 -17 8 -25 36 -20 61 -14 61 14 0 21 -5 25
-29 25 -16 0 -34 -6 -40 -14z"/>
<path d="M1730 4340 c0 -5 -6 -10 -14 -10 -7 0 -19 -7 -26 -15 -7 -8 -20 -15
-30 -15 -16 0 -30 -19 -30 -41 0 -15 27 -10 34 6 3 8 11 15 18 15 8 0 20 8 28
18 39 47 42 52 31 52 -6 0 -11 -4 -11 -10z"/>
<path d="M5483 4288 c-18 -11 -33 -28 -33 -38 0 -10 -11 -25 -25 -34 -24 -16
-36 -66 -16 -66 5 0 16 -3 25 -6 10 -4 21 7 35 34 16 31 27 41 54 46 38 7 53
36 36 68 -12 23 -35 22 -76 -4z"/>
<path d="M11410 4091 c0 -16 16 -66 35 -111 19 -45 35 -89 35 -98 0 -10 14
-30 30 -45 31 -29 35 -46 21 -82 -10 -23 3 -54 31 -73 10 -7 18 -19 18 -27 0
-42 99 -41 118 0 12 26 6 62 -15 87 -8 9 -13 21 -10 25 9 14 -24 72 -43 78
-10 3 -22 20 -25 36 -12 53 -52 112 -136 201 -44 46 -59 48 -59 9z"/>
<path d="M12620 4066 c0 -32 22 -68 72 -118 30 -29 65 -69 80 -88 28 -38 33
-38 42 0 6 21 -5 38 -64 102 -82 89 -130 128 -130 104z"/>
<path d="M8023 3693 c-36 -7 -45 -29 -54 -131 -12 -146 -21 -196 -34 -204 -15
-9 -28 -69 -19 -91 7 -19 62 -43 73 -31 5 5 16 34 25 64 10 30 26 64 36 77 10
12 21 42 24 67 4 24 13 52 21 62 8 11 15 36 15 57 0 21 5 47 10 58 7 13 7 19
0 19 -5 0 -10 6 -10 13 0 18 -33 47 -51 46 -8 -1 -24 -4 -36 -6z"/>
<path d="M11111 3416 c-9 -11 -10 -29 -2 -71 6 -32 9 -61 6 -65 -3 -5 1 -14 8
-22 27 -29 44 -65 50 -107 4 -32 14 -53 36 -73 17 -16 31 -34 31 -39 0 -6 14
-38 30 -71 17 -34 29 -67 26 -75 -7 -18 33 -43 71 -43 26 0 36 6 45 24 9 22 6
30 -21 64 -17 22 -31 43 -31 48 0 4 -7 16 -16 25 -9 10 -18 29 -20 41 -17 116
-23 140 -36 155 -9 10 -21 36 -27 58 -13 49 -20 59 -48 74 -13 6 -23 20 -23
29 0 47 -53 79 -79 48z"/>
<path d="M6083 3287 c-10 -21 -9 -26 3 -31 9 -3 22 0 30 8 18 18 18 26 0 26
-8 0 -16 5 -18 11 -2 6 -9 0 -15 -14z"/>
<path d="M9096 3139 c-14 -70 -15 -147 -1 -165 31 -42 46 24 28 124 -12 61
-20 74 -27 41z"/>
<path d="M4300 3140 c0 -5 5 -10 10 -10 6 0 10 5 10 10 0 6 -4 10 -10 10 -5 0
-10 -4 -10 -10z"/>
<path d="M12285 2764 c-30 -32 -30 -35 -8 -94 33 -91 81 -112 162 -70 32 16
39 26 43 54 4 33 -13 56 -42 56 -5 0 -33 18 -62 40 -29 22 -57 40 -61 40 -4 0
-19 -12 -32 -26z"/>
<path d="M11679 2643 c15 -49 40 -103 91 -194 27 -49 50 -95 50 -103 0 -22 28
-27 39 -8 7 13 -3 42 -38 112 -26 52 -59 123 -74 158 -22 52 -30 62 -51 62
-22 0 -24 -3 -17 -27z"/>
<path d="M5960 2630 c0 -5 7 -10 16 -10 8 0 12 5 9 10 -3 6 -10 10 -16 10 -5
0 -9 -4 -9 -10z"/>
<path d="M8248 1867 c-17 -36 -10 -64 15 -54 15 6 25 41 19 70 -5 26 -17 21
-34 -16z"/>
<path d="M11298 1533 c-22 -5 -22 -18 -4 -71 8 -22 12 -43 9 -46 -12 -12 18
-33 47 -34 17 0 39 -4 51 -7 28 -9 69 30 69 64 -1 75 -81 118 -172 94z"/>
<path d="M15314 1465 c-75 -31 -31 -106 50 -84 37 10 44 25 26 59 -17 32 -42
40 -76 25z"/>
<path d="M7352 1314 c-12 -8 -22 -22 -22 -30 0 -8 -5 -14 -10 -14 -6 0 -13 -8
-17 -17 -3 -10 -17 -33 -30 -51 -20 -27 -24 -43 -23 -100 1 -130 0 -151 -10
-157 -11 -7 -13 -45 -4 -69 4 -9 18 -16 35 -16 24 0 30 5 39 40 6 21 15 42 21
45 5 4 9 14 8 23 -1 10 3 31 10 47 6 17 14 36 16 43 2 6 9 12 14 12 5 0 15 17
22 38 7 20 18 46 26 58 16 25 5 99 -21 139 -19 29 -24 30 -54 9z"/>
<path d="M13379 983 c-3 -47 6 -73 47 -135 24 -38 48 -68 52 -68 11 0 52 -82
52 -102 0 -18 27 -43 56 -52 15 -5 24 0 34 18 11 21 10 29 -11 63 -12 21 -33
51 -46 66 -13 16 -26 41 -29 55 -4 15 -13 36 -20 47 -8 11 -14 31 -14 46 0 28
-27 59 -53 59 -9 0 -19 5 -22 10 -10 17 -45 11 -46 -7z"/>
<path d="M8535 204 c-10 -8 -27 -14 -36 -14 -28 0 -59 -48 -59 -91 0 -22 4
-39 9 -39 5 0 12 -11 15 -25 4 -14 10 -24 14 -23 4 0 15 -2 25 -7 24 -10 108
2 125 19 21 21 31 82 20 126 -6 22 -14 40 -19 40 -5 0 -11 0 -14 0 -3 0 -18 6
-33 14 -24 12 -30 12 -47 0z"/>
</g>
</svg>
