<?xml version="1.0" standalone="no"?>
<!DOCTYPE svg PUBLIC "-//W3C//DTD SVG 20010904//EN"
 "http://www.w3.org/TR/2001/REC-SVG-20010904/DTD/svg10.dtd">
<svg version="1.0" xmlns="http://www.w3.org/2000/svg"
 width="1693.000000pt" height="1316.000000pt" viewBox="0 0 1693.000000 1316.000000"
 preserveAspectRatio="xMidYMid meet">

<g transform="translate(0.000000,1316.000000) scale(0.100000,-0.100000)"
fill="#000000" stroke="none">
<path d="M8886 13149 c-3 -8 -26 -69 -51 -136 -60 -163 -60 -236 0 -144 20 29
30 67 45 162 17 112 19 156 6 118z"/>
<path d="M6800 12999 c-16 -35 -1 -144 20 -144 33 0 37 107 6 151 -14 18 -15
18 -26 -7z"/>
<path d="M15143 12883 c-7 -2 -13 -10 -13 -16 0 -6 -7 -19 -17 -29 -14 -16
-15 -18 0 -18 9 0 18 4 22 10 3 5 11 7 18 4 7 -2 20 9 30 26 18 30 18 30 -5
29 -13 0 -29 -3 -35 -6z"/>
<path d="M7565 12819 c-4 -6 -9 -29 -11 -52 -2 -23 -7 -50 -10 -60 -8 -24 22
-67 46 -67 32 0 43 43 29 109 -14 72 -36 100 -54 70z"/>
<path d="M5233 12799 c-9 -9 -6 -21 10 -50 12 -22 25 -39 28 -39 14 0 19 50 7
74 -12 28 -27 33 -45 15z"/>
<path d="M5985 12770 c-9 -14 4 -70 16 -70 12 0 12 67 0 75 -5 3 -13 1 -16 -5z"/>
<path d="M3290 12680 c0 -5 5 -10 10 -10 6 0 10 5 10 10 0 6 -4 10 -10 10 -5
0 -10 -4 -10 -10z"/>
<path d="M8467 12607 c-15 -12 -39 -102 -29 -112 15 -15 32 0 51 44 11 27 21
54 21 59 0 16 -27 21 -43 9z"/>
<path d="M9187 12540 c-5 -18 1 -60 8 -60 22 0 35 17 35 46 0 27 -4 34 -19 34
-10 0 -21 -9 -24 -20z"/>
<path d="M6648 12481 c-3 -39 4 -106 13 -117 8 -9 30 -11 60 -5 4 0 7 26 8 56
1 47 -2 56 -22 67 -32 17 -57 17 -59 -1z"/>
<path d="M15733 12453 c-22 -15 -32 -53 -14 -53 18 0 71 22 71 30 0 7 -28 41
-33 39 -1 0 -12 -7 -24 -16z"/>
<path d="M7657 12283 c-11 -18 -18 -74 -12 -93 9 -28 26 -25 58 8 29 31 36 72
12 72 -8 0 -15 5 -15 10 0 12 -37 14 -43 3z"/>
<path d="M12405 12180 c-94 -61 -135 -99 -135 -126 0 -13 2 -24 5 -24 38 0
235 148 235 176 0 25 -44 14 -105 -26z"/>
<path d="M3975 12149 c-8 -24 31 -106 58 -123 14 -8 20 -8 27 4 19 29 10 69
-21 105 -35 40 -55 44 -64 14z"/>
<path d="M2820 12145 c0 -8 -5 -15 -11 -15 -5 0 -15 -13 -20 -30 -6 -16 -15
-30 -20 -30 -11 0 7 -38 29 -59 10 -10 11 -16 3 -19 -19 -6 -13 -44 7 -40 9 2
24 -2 32 -9 8 -7 18 -13 23 -13 4 0 20 -6 35 -13 33 -17 84 -15 90 3 8 22 36
50 50 50 7 0 10 5 7 10 -3 6 -1 10 4 10 6 0 11 5 11 10 0 6 -6 10 -13 10 -19
0 -70 51 -85 83 -8 19 -18 27 -27 23 -8 -3 -17 -1 -20 5 -7 10 -71 39 -86 39
-5 0 -9 -7 -9 -15z"/>
<path d="M10171 12074 c-12 -15 -21 -33 -21 -40 0 -35 63 2 75 44 9 32 -28 30
-54 -4z"/>
<path d="M5547 12084 c-4 -4 -7 -25 -7 -46 0 -32 3 -39 18 -36 13 3 16 12 14
38 -3 37 -14 55 -25 44z"/>
<path d="M8350 11968 c-11 -18 -22 -45 -25 -60 -4 -15 -11 -30 -16 -33 -15
-10 -10 -62 7 -69 37 -14 84 22 84 65 0 5 12 27 26 49 26 39 26 41 9 60 -28
30 -62 25 -85 -12z"/>
<path d="M7597 11834 c-4 -4 -7 -15 -7 -25 0 -10 -6 -22 -14 -26 -22 -13 -7
-137 17 -141 10 -2 20 4 24 15 3 10 13 34 21 53 8 19 16 46 17 60 2 14 5 34 7
45 2 16 -3 21 -27 23 -17 2 -34 0 -38 -4z"/>
<path d="M2460 11796 c0 -17 14 -29 23 -20 8 8 -3 34 -14 34 -5 0 -9 -6 -9
-14z"/>
<path d="M15606 11726 c-23 -19 -28 -61 -8 -79 15 -14 23 -14 54 -4 46 16 86
63 69 80 -16 16 -97 18 -115 3z"/>
<path d="M4297 11704 c-13 -13 -7 -54 8 -61 25 -9 30 5 14 38 -8 17 -18 27
-22 23z"/>
<path d="M15829 11675 c-59 -16 -109 -38 -109 -47 0 -5 -7 -8 -16 -8 -12 0
-14 -9 -12 -37 l3 -38 45 3 c33 2 53 10 75 31 17 16 49 38 72 50 49 24 61 40
42 52 -18 11 -44 10 -100 -6z"/>
<path d="M5033 11673 c-19 -7 -16 -37 5 -63 14 -18 25 -22 45 -16 30 7 33 22
15 61 -11 24 -35 31 -65 18z"/>
<path d="M3492 11655 l-23 -12 27 -32 c29 -35 80 -65 88 -53 3 5 -3 32 -12 60
-18 56 -34 63 -80 37z"/>
<path d="M9968 11621 c-59 -47 -31 -107 35 -74 24 12 28 19 25 51 -4 44 -23
51 -60 23z"/>
<path d="M517 11611 c-6 -24 14 -44 37 -35 17 6 23 44 7 44 -5 0 -16 3 -24 6
-9 3 -16 -3 -20 -15z"/>
<path d="M7485 11586 c-15 -11 -19 -31 -21 -132 -3 -129 0 -154 20 -154 18 0
51 88 48 125 -3 29 8 92 22 125 4 10 -3 21 -22 32 -24 15 -32 15 -47 4z"/>
<path d="M16219 11534 c-13 -7 -31 -13 -40 -14 -14 0 -69 -43 -69 -53 0 -14
36 -15 67 -2 19 8 48 15 64 15 28 0 56 31 45 49 -10 16 -43 18 -67 5z"/>
<path d="M14975 11529 c-10 -14 -1 -21 19 -13 9 3 13 10 10 15 -7 12 -21 11
-29 -2z"/>
<path d="M4930 11434 c-15 -39 -12 -74 8 -81 9 -3 29 -19 43 -35 32 -35 59
-37 59 -4 0 14 5 28 10 31 17 10 12 65 -5 65 -9 0 -27 11 -41 25 -32 33 -62
32 -74 -1z"/>
<path d="M5825 11451 c-3 -5 -1 -12 5 -16 5 -3 10 1 10 9 0 18 -6 21 -15 7z"/>
<path d="M70 11361 c0 -23 29 -36 44 -21 8 8 6 15 -8 26 -27 19 -36 18 -36 -5z"/>
<path d="M10408 11352 c-20 -4 -24 -27 -7 -38 6 -3 15 -2 21 4 15 15 5 38 -14
34z"/>
<path d="M3750 11331 c0 -11 4 -22 9 -25 5 -3 25 -31 46 -61 61 -92 75 -67 23
40 -26 52 -37 65 -55 65 -16 0 -23 -6 -23 -19z"/>
<path d="M4095 11310 c-9 -15 4 -49 35 -95 15 -22 37 -60 50 -84 23 -46 67
-97 77 -88 8 9 -26 117 -37 117 -6 0 -24 28 -40 62 -41 85 -69 114 -85 88z"/>
<path d="M6146 11189 c-11 -13 -16 -30 -12 -44 4 -14 1 -25 -6 -27 -17 -6 0
-28 29 -39 32 -12 73 12 73 43 0 26 -38 88 -54 88 -6 0 -20 -9 -30 -21z"/>
<path d="M9872 11148 c-7 -7 -12 -20 -12 -31 0 -32 44 -18 48 16 4 29 -14 37
-36 15z"/>
<path d="M3680 11120 c0 -5 7 -10 16 -10 8 0 12 5 9 10 -3 6 -10 10 -16 10 -5
0 -9 -4 -9 -10z"/>
<path d="M10316 11097 c-16 -23 -17 -31 -6 -58 8 -19 18 -28 27 -25 8 4 23 6
34 6 16 0 19 7 19 40 0 36 -3 40 -24 40 -13 0 -26 6 -28 12 -3 8 -12 1 -22
-15z"/>
<path d="M16177 11083 c-3 -5 -2 -15 2 -22 7 -10 10 -10 16 -1 4 6 3 16 -3 22
-5 5 -12 6 -15 1z"/>
<path d="M6827 11043 c-14 -13 -7 -100 8 -113 13 -11 15 -6 15 31 0 24 3 54 6
67 5 15 2 22 -8 22 -8 0 -18 -3 -21 -7z"/>
<path d="M8872 10970 c-16 -26 -15 -40 1 -40 16 0 47 32 47 48 0 19 -34 14
-48 -8z"/>
<path d="M6860 10839 c0 -11 5 -17 10 -14 6 3 10 13 10 21 0 8 -4 14 -10 14
-5 0 -10 -9 -10 -21z"/>
<path d="M8974 10788 c-38 -42 -55 -128 -19 -98 15 13 48 96 43 111 -2 5 -13
0 -24 -13z"/>
<path d="M8066 10753 c-7 -16 -20 -48 -27 -72 -7 -24 -20 -46 -29 -48 -13 -4
-15 -12 -11 -40 7 -42 9 -43 38 -22 24 17 93 157 93 190 0 31 -46 25 -64 -8z"/>
<path d="M10573 10737 c3 -8 -5 -27 -17 -42 -21 -26 -22 -30 -7 -47 21 -25 63
-23 89 5 29 30 20 66 -19 74 -16 3 -29 9 -29 14 0 5 -5 9 -11 9 -6 0 -9 -6 -6
-13z"/>
<path d="M4405 10661 c-26 -5 -30 -11 -30 -41 -1 -31 21 -76 54 -116 6 -7 8
-14 5 -17 -12 -12 9 -56 29 -59 15 -2 23 -12 27 -32 3 -17 8 -30 13 -29 51 5
65 13 69 44 6 42 -5 94 -25 114 -9 9 -14 21 -11 28 2 7 -7 24 -21 37 -14 13
-25 32 -25 41 0 10 -9 23 -19 29 -21 11 -21 11 -66 1z"/>
<path d="M340 10533 c-38 -7 -58 -30 -56 -66 1 -27 7 -34 34 -43 51 -16 57
-28 28 -52 -32 -25 -33 -35 -2 -56 14 -8 27 -25 31 -36 4 -13 18 -23 36 -27
18 -3 42 -20 57 -39 23 -29 33 -34 70 -34 31 0 42 4 42 15 0 23 34 18 60 -10
19 -20 33 -25 72 -25 44 0 48 2 48 25 0 34 -100 133 -135 133 -14 0 -31 6 -38
14 -7 8 -30 28 -52 44 -51 36 -72 58 -115 116 -19 26 -39 47 -45 46 -5 0 -21
-3 -35 -5z"/>
<path d="M4337 10483 c-15 -14 -6 -70 13 -91 30 -32 40 -27 40 16 0 27 -7 45
-23 60 -13 12 -27 19 -30 15z"/>
<path d="M8740 10408 c-11 -18 -20 -39 -20 -46 0 -7 -7 -26 -15 -41 -8 -16
-12 -31 -9 -34 12 -12 36 7 56 46 11 22 27 47 35 55 18 18 13 46 -9 50 -11 2
-25 -9 -38 -30z"/>
<path d="M16205 10410 c-3 -5 -1 -10 4 -10 6 0 11 5 11 10 0 6 -2 10 -4 10 -3
0 -8 -4 -11 -10z"/>
<path d="M10746 10363 c-11 -3 -36 -15 -55 -28 -20 -12 -55 -31 -78 -41 -33
-15 -43 -25 -43 -43 0 -21 3 -23 30 -17 17 3 50 20 74 38 24 18 58 41 75 50
17 9 31 24 31 33 0 16 -2 16 -34 8z"/>
<path d="M3200 10080 c0 -22 49 -72 62 -63 13 8 9 20 -18 52 -30 36 -44 39
-44 11z"/>
<path d="M10870 10090 c0 -5 5 -10 10 -10 6 0 10 5 10 10 0 6 -4 10 -10 10 -5
0 -10 -4 -10 -10z"/>
<path d="M12578 10088 c-33 -12 -33 -41 0 -64 20 -14 26 -14 62 3 32 14 40 23
40 46 0 25 -3 27 -37 26 -21 0 -50 -5 -65 -11z"/>
<path d="M9005 10046 c-8 -19 -19 -37 -23 -40 -14 -8 -54 -125 -50 -144 3 -14
8 -12 30 11 31 33 92 173 84 193 -9 24 -26 15 -41 -20z"/>
<path d="M3743 10054 c-6 -16 8 -33 136 -166 61 -63 81 -74 81 -43 0 16 -101
148 -147 193 -38 35 -60 41 -70 16z"/>
<path d="M1491 10028 c-29 -23 -27 -34 20 -77 45 -43 87 -60 100 -39 19 29 4
85 -31 119 -20 19 -64 18 -89 -3z"/>
<path d="M6380 10002 c0 -42 41 -86 71 -77 33 11 69 -36 69 -91 0 -45 -2 -47
-51 -58 -22 -5 -28 0 -42 32 -9 20 -30 46 -47 56 -31 18 -31 18 -57 -8 -14
-14 -30 -26 -34 -26 -5 0 -9 -8 -9 -18 0 -9 -9 -23 -21 -30 -32 -21 -79 2 -79
37 0 29 -16 51 -37 51 -7 0 -13 -5 -13 -11 0 -6 -18 -29 -39 -50 l-40 -38 -93
3 c-51 2 -96 4 -100 5 -4 0 -11 19 -14 42 -8 47 -38 69 -70 51 -14 -8 -23 -7
-34 2 -26 22 -103 28 -130 9 -15 -11 -42 -16 -77 -15 -52 1 -54 0 -70 -33 -9
-19 -23 -35 -30 -35 -7 0 -13 -7 -13 -15 0 -8 -4 -15 -9 -15 -4 0 -6 -11 -3
-25 5 -30 28 -32 57 -5 19 18 23 18 43 4 26 -18 30 -64 7 -64 -23 0 -65 -30
-65 -46 0 -25 -28 -15 -35 13 -3 15 -12 31 -18 35 -18 11 -75 10 -82 -2 -4 -6
-22 -17 -41 -25 -19 -8 -42 -21 -50 -30 -9 -8 -25 -15 -37 -15 -23 0 -40 -28
-52 -87 -6 -28 -4 -33 12 -33 10 0 25 -4 33 -10 12 -7 11 -12 -5 -30 -18 -20
-28 -22 -108 -18 -49 2 -92 9 -95 15 -13 20 -111 55 -136 49 -33 -8 -74 -53
-82 -90 -5 -25 -8 -27 -18 -15 -6 8 -23 22 -38 32 -23 15 -35 15 -80 6 -29 -6
-62 -16 -73 -22 -11 -6 -33 -10 -48 -8 -29 3 -77 -36 -77 -63 0 -8 -11 -21
-25 -30 -14 -9 -25 -25 -25 -35 0 -26 -26 -85 -44 -100 -13 -11 -23 -10 -56 3
-56 22 -63 21 -114 -23 -29 -25 -52 -38 -64 -35 -10 3 -26 -3 -36 -15 -15 -16
-23 -18 -38 -10 -26 14 -68 3 -68 -17 0 -9 -12 -25 -26 -36 -16 -14 -24 -27
-21 -39 3 -12 0 -19 -9 -19 -8 0 -17 -7 -20 -15 -4 -8 -16 -15 -29 -15 -17 0
-24 -7 -29 -31 -16 -82 -6 -99 58 -99 17 0 42 -8 55 -17 l24 -17 -39 -14 c-21
-8 -53 -17 -71 -22 l-31 -8 -7 48 c-8 57 -20 64 -80 48 -41 -11 -45 -10 -80
16 -36 28 -38 28 -96 16 -32 -7 -71 -10 -87 -7 -28 6 -67 -12 -84 -37 -12 -18
4 -70 29 -93 12 -12 23 -28 23 -36 0 -16 33 -49 46 -46 32 6 35 -3 10 -35 -30
-39 -31 -53 -11 -80 14 -19 16 -19 50 -3 39 19 75 22 75 8 0 -5 -10 -13 -22
-17 -27 -8 -93 -81 -93 -104 -1 -8 6 -25 14 -38 13 -22 12 -25 -13 -50 -25
-25 -28 -26 -37 -9 -18 31 -50 20 -100 -34 l-48 -51 -65 7 c-53 5 -66 4 -66
-7 0 -8 -22 -37 -50 -65 -27 -28 -50 -56 -50 -62 0 -6 -4 -11 -10 -11 -5 0
-12 -16 -16 -35 -6 -32 -9 -34 -33 -28 -14 3 -35 12 -46 19 -12 8 -30 15 -40
18 -44 9 -64 19 -69 32 -4 11 -11 12 -23 5 -10 -5 -32 -7 -48 -5 -24 2 -35 -3
-49 -21 -14 -18 -25 -23 -42 -19 -19 5 -26 1 -34 -22 -25 -65 13 -107 89 -97
24 3 41 2 41 -4 0 -12 90 -53 115 -53 11 0 14 -7 11 -26 -3 -17 2 -32 16 -46
17 -17 18 -23 8 -43 -23 -42 -9 -51 69 -49 81 4 119 23 128 65 8 42 46 44 104
5 43 -28 47 -34 43 -61 -3 -16 -6 -50 -8 -75 -5 -60 -17 -110 -27 -110 -4 0
-18 4 -32 9 -17 7 -33 5 -58 -7 -59 -29 -71 -48 -77 -123 -4 -64 -6 -69 -28
-69 -13 0 -43 -9 -66 -19 -67 -29 -126 -41 -138 -26 -8 9 -20 10 -53 2 -23 -6
-43 -12 -45 -13 -3 -2 -9 -25 -11 -45 -1 -4 -11 -19 -23 -34 -19 -25 -22 -39
-19 -106 2 -61 -2 -87 -18 -124 -12 -26 -21 -57 -21 -69 -1 -11 -7 -32 -15
-46 -8 -14 -14 -38 -15 -53 0 -25 -2 -27 -20 -17 -26 14 -114 -9 -153 -40 -14
-11 -29 -20 -33 -20 -5 0 -17 -11 -29 -26 l-20 -25 -48 21 c-26 12 -62 20 -80
18 -30 -3 -32 -5 -33 -46 -1 -23 -4 -45 -7 -49 -4 -3 -32 -7 -63 -9 -62 -3
-124 -21 -124 -35 0 -5 -11 -11 -25 -15 -13 -3 -27 -15 -31 -26 -7 -22 -8 -21
31 -34 27 -9 29 -12 27 -55 -4 -52 6 -63 61 -73 41 -8 46 -29 9 -34 -52 -8
-48 -92 5 -92 14 0 23 -6 23 -15 0 -19 26 -20 37 -1 9 16 69 34 94 29 9 -2 21
-15 28 -29 26 -58 0 -111 -47 -93 -35 13 -47 7 -78 -43 -15 -23 -33 -49 -41
-56 -7 -7 -13 -21 -13 -31 0 -18 -31 -44 -93 -76 -20 -11 -40 -28 -43 -37 -3
-10 -11 -18 -19 -18 -10 0 -12 -18 -10 -77 2 -43 7 -93 10 -110 6 -28 5 -33
-12 -33 -22 0 -57 -33 -46 -43 10 -11 52 -8 72 5 15 9 28 8 64 -6 68 -26 138
-14 162 27 l18 31 11 -25 c6 -13 14 -26 18 -29 4 -3 11 -18 17 -33 10 -26 9
-27 -24 -27 -19 0 -35 4 -35 9 0 18 -40 22 -62 7 -12 -9 -30 -16 -39 -16 -31
0 -40 -24 -24 -64 8 -20 20 -36 25 -36 6 0 10 -11 10 -24 0 -20 6 -24 47 -30
34 -4 53 -14 68 -32 11 -14 30 -26 43 -27 20 -1 22 -5 16 -32 -4 -16 -17 -43
-29 -59 l-22 -28 33 -35 c19 -19 34 -42 34 -51 -1 -42 -94 -85 -137 -64 -10 5
-32 17 -50 26 -38 20 -38 20 -41 -1 -12 -84 -12 -159 -1 -182 20 -39 87 -103
100 -95 6 3 3 -5 -6 -20 -17 -26 -17 -26 30 -70 42 -39 47 -47 41 -72 -24 -96
-18 -109 45 -98 49 7 56 -8 25 -49 -15 -19 -26 -39 -26 -45 0 -6 -15 -18 -34
-27 -65 -31 -94 -89 -56 -113 17 -10 24 -10 43 3 26 18 57 20 58 3 3 -32 -4
-64 -17 -79 -8 -8 -14 -20 -14 -26 0 -15 42 -24 77 -17 32 6 133 -37 133 -56
0 -6 15 -10 34 -10 56 0 96 -20 122 -61 13 -21 24 -47 24 -58 0 -23 77 -111
96 -111 9 0 14 -20 16 -67 3 -61 5 -68 26 -73 21 -5 20 -8 -28 -58 -59 -62
-64 -91 -20 -124 22 -16 30 -30 30 -52 0 -19 10 -42 25 -58 27 -30 30 -49 14
-95 -9 -27 -7 -34 15 -56 22 -22 24 -30 15 -49 -6 -13 -20 -28 -32 -33 -12 -6
-23 -20 -25 -32 -4 -28 41 -53 97 -53 36 0 40 -3 43 -27 2 -21 13 -33 43 -48
32 -17 42 -30 54 -70 12 -37 13 -49 3 -53 -18 -6 -15 -36 6 -62 17 -21 21 -21
61 -9 23 7 52 23 64 35 l21 22 22 -25 c18 -21 27 -24 53 -18 17 3 31 12 31 18
0 7 14 26 30 44 33 36 36 49 16 72 -10 11 -12 28 -7 55 5 34 11 41 39 48 18 5
35 15 39 23 3 10 20 15 50 15 27 0 42 -4 38 -10 -12 -19 6 -48 33 -53 15 -3
45 -19 66 -36 26 -21 50 -31 72 -31 18 0 35 -4 38 -9 3 -4 28 -9 56 -10 40 0
55 4 78 24 15 14 39 34 55 46 29 22 37 59 11 59 -9 0 -14 6 -12 13 3 7 23 12
49 13 33 0 49 -5 66 -22 25 -25 28 -40 13 -78 -9 -25 -7 -26 35 -37 33 -8 45
-16 45 -29 0 -12 10 -21 30 -25 16 -3 32 -15 35 -25 4 -12 17 -20 38 -22 l32
-3 -2 -62 c-2 -48 1 -63 11 -63 7 0 25 -9 39 -20 22 -17 24 -25 17 -50 -6 -20
-5 -30 3 -33 7 -2 12 -19 12 -37 0 -34 1 -34 60 -47 78 -16 105 -5 131 50 l19
42 3 -43 c3 -39 5 -42 32 -42 16 0 32 -4 35 -10 3 -5 13 -10 22 -10 8 0 26 -9
40 -20 20 -15 34 -18 69 -13 29 4 54 1 70 -8 21 -11 27 -11 34 1 5 8 6 26 4
40 -5 21 1 30 34 52 29 18 43 23 51 15 7 -7 17 -7 33 1 13 6 37 13 53 16 17 3
43 8 58 12 20 4 33 1 47 -11 19 -17 20 -17 26 1 4 11 14 27 22 36 12 14 13 25
3 62 -6 25 -11 63 -11 85 0 30 -6 44 -22 55 -12 9 -19 17 -15 17 8 2 8 2 52
14 16 5 47 26 67 47 42 43 83 50 83 13 1 -11 4 -25 8 -32 8 -12 84 -16 102 -4
6 3 24 6 42 6 44 0 53 -32 14 -46 -33 -12 -36 -37 -6 -61 12 -10 25 -31 28
-48 5 -21 12 -30 26 -30 11 0 22 4 25 9 3 5 21 12 39 15 37 7 119 44 128 57 3
5 3 28 0 51 -6 39 -10 45 -56 67 -57 27 -111 36 -129 21 -10 -7 -16 -3 -25 16
-6 15 -10 27 -9 28 2 1 17 11 35 24 18 12 36 22 41 22 5 0 15 7 22 15 7 8 20
15 30 15 10 0 23 7 31 16 7 8 21 13 32 10 11 -2 27 0 37 6 14 9 28 9 58 0 54
-16 65 -15 92 8 13 11 29 20 36 20 13 0 34 50 34 81 0 10 5 30 12 44 14 32 43
32 103 2 33 -16 45 -28 45 -44 0 -16 -6 -23 -19 -23 -20 0 -91 -80 -91 -103 0
-8 9 -26 20 -40 16 -20 28 -25 59 -23 22 1 49 10 59 19 10 9 28 17 39 17 42 0
81 22 99 56 10 18 24 34 31 34 6 0 14 9 18 20 3 11 19 29 36 40 16 12 29 30
29 41 0 23 16 25 36 4 24 -24 38 -19 117 37 24 18 51 -1 55 -39 2 -20 16 -43
42 -67 33 -30 46 -36 84 -36 27 0 51 6 60 15 8 9 29 21 46 26 27 10 30 15 30
55 0 24 -4 44 -10 44 -5 0 -10 10 -10 23 0 20 5 23 31 21 34 -2 45 -11 63 -45
6 -13 22 -29 34 -35 13 -6 33 -21 47 -34 13 -12 28 -19 34 -16 13 8 94 -24
104 -41 13 -21 25 -15 29 15 2 19 9 28 26 30 16 3 25 12 29 34 4 19 14 33 31
39 24 9 24 12 20 81 -5 58 -10 74 -28 88 -25 19 -20 39 20 75 22 19 22 19 36
0 18 -25 18 -42 -2 -53 -13 -7 -15 -19 -9 -61 4 -28 11 -51 17 -51 6 0 8 -10
5 -22 -4 -12 -2 -27 3 -33 5 -6 10 -38 12 -70 3 -54 5 -60 27 -63 13 -2 28 1
34 7 13 13 18 222 5 238 -5 7 -6 18 -2 24 4 7 8 36 10 64 1 43 -1 53 -19 61
-11 5 -23 15 -25 23 -3 10 4 12 36 6 63 -10 142 44 142 98 0 16 3 18 12 9 7
-7 27 -12 45 -12 27 0 35 5 43 25 5 14 13 25 18 25 5 0 17 19 26 43 28 65 29
67 61 85 17 9 32 20 33 25 6 12 22 8 44 -13 34 -32 94 -44 120 -25 27 18 48
20 48 3 0 -6 7 -19 16 -29 23 -26 11 -46 -35 -60 -55 -16 -53 -38 7 -69 26
-14 50 -30 54 -36 12 -19 54 -25 101 -14 52 11 100 0 133 -31 l23 -21 25 27
c14 15 26 22 26 15 0 -22 87 -4 118 25 15 14 32 25 38 25 15 0 34 45 34 80 0
19 -9 35 -26 49 -22 17 -26 30 -31 96 -5 60 -9 75 -22 75 -31 1 -51 26 -51 64
0 29 4 36 19 36 35 0 52 -12 71 -51 29 -56 73 -76 85 -40 4 13 -4 35 -22 61
-15 23 -36 56 -45 74 -11 19 -28 33 -45 36 -35 7 -43 30 -9 30 18 0 30 8 40
28 8 15 33 44 56 65 39 34 42 40 35 73 -4 22 -2 41 6 50 13 16 52 18 80 4 13
-7 25 -7 38 -1 47 26 121 -62 121 -143 0 -58 15 -83 64 -105 26 -11 46 -25 46
-30 0 -15 52 -13 73 3 9 7 17 19 17 25 0 7 9 21 20 33 l19 21 28 -28 c44 -44
104 -85 126 -85 16 0 18 5 13 28 -13 53 -12 57 17 60 26 3 27 6 27 60 0 31 3
67 6 79 5 19 -1 26 -38 44 -63 30 -72 48 -52 104 17 50 10 68 -27 80 -30 10
-22 24 19 31 64 11 92 27 92 52 0 18 10 28 40 40 28 12 40 23 39 37 -1 30 -41
98 -64 110 -12 6 -19 17 -17 28 3 14 12 17 55 13 29 -2 57 -5 62 -6 22 -5 71
24 83 48 9 19 9 34 1 56 -13 37 2 86 26 86 8 0 15 5 15 10 0 6 8 10 19 10 27
0 43 24 40 62 -2 18 3 43 9 55 7 12 11 32 9 45 -2 20 2 23 28 19 16 -1 45 -16
63 -32 20 -18 45 -29 65 -30 46 -2 88 -7 105 -14 37 -14 162 55 162 91 0 8 3
14 8 14 15 0 34 63 38 128 7 116 16 145 44 152 24 6 25 10 25 76 0 78 7 94 38
94 13 0 37 14 55 30 18 17 39 30 46 30 22 0 47 25 50 50 1 14 8 38 15 55 7 17
10 44 6 63 -6 30 -4 32 18 27 15 -4 28 -1 36 9 8 9 22 16 32 16 11 0 19 5 19
10 0 6 -7 10 -15 10 -12 0 -15 13 -15 56 0 55 0 56 26 50 36 -9 64 2 64 25 0
11 7 19 16 19 13 0 15 6 10 28 -4 15 -14 61 -22 102 -13 64 -19 77 -42 88 -31
15 -78 16 -87 2 -10 -16 -25 -12 -25 8 0 9 -7 30 -15 46 -8 15 -15 38 -15 51
0 34 -23 47 -94 50 -72 4 -102 16 -111 45 -3 11 -15 25 -25 30 -32 17 -14 42
25 34 25 -4 42 0 72 20 35 24 84 39 170 53 33 5 52 31 32 44 -18 10 -97 0
-159 -20 -30 -11 -74 -24 -98 -31 -24 -6 -45 -17 -48 -25 -7 -17 -34 -8 -52
17 -13 18 -52 24 -66 11 -4 -5 -12 -9 -17 -9 -5 -1 -10 -2 -11 -4 -13 -10 -61
-3 -66 10 -3 8 -26 41 -50 72 -31 41 -45 72 -51 107 -9 56 8 101 37 101 10 0
26 6 36 13 17 12 16 15 -14 46 -31 30 -32 33 -14 46 14 10 23 10 32 3 10 -8
21 -3 47 22 39 37 36 55 -6 46 -17 -3 -29 -1 -29 5 0 5 -10 -1 -22 -15 -25
-27 -98 -47 -98 -26 0 6 -10 10 -22 8 -21 -3 -23 0 -20 40 1 24 -5 64 -13 89
-11 32 -13 49 -5 58 6 8 8 30 4 55 -6 39 -9 42 -35 38 -33 -5 -33 -4 -19 23
12 22 60 44 119 54 24 4 41 12 41 20 0 20 49 75 67 75 8 0 21 7 29 15 9 8 24
15 35 15 30 0 24 46 -9 80 -26 26 -93 53 -132 55 -23 0 -23 30 -1 80 l20 45
70 -3 c76 -3 78 -1 57 48 -13 31 -6 106 13 129 5 6 5 21 0 34 -9 24 -9 24 -74
4 -11 -3 -30 -5 -42 -3 -13 1 -53 -10 -90 -25 -38 -15 -94 -35 -125 -45 l-58
-17 0 25 c0 18 -15 39 -47 69 -26 24 -50 44 -55 44 -10 0 -10 41 0 57 5 7 28
17 53 21 50 10 99 51 99 83 0 25 72 98 123 123 20 11 37 23 37 28 0 4 5 8 10
8 19 0 70 60 64 75 -9 24 -40 18 -77 -15 -19 -16 -40 -30 -46 -30 -6 0 -14 -7
-17 -15 -8 -19 -130 -105 -149 -105 -8 0 -22 11 -31 25 -9 14 -22 25 -28 25
-6 0 -19 9 -29 20 -11 13 -29 20 -54 20 -61 0 -146 27 -166 52 -41 52 -70 78
-86 78 -10 0 -40 -12 -67 -26 -33 -18 -56 -24 -74 -19 -14 3 -35 6 -47 6 -14
-1 -23 5 -23 14 0 32 -35 35 -116 10 -13 -4 -25 -1 -33 9 -21 26 -65 19 -99
-14 -18 -16 -38 -30 -46 -30 -8 0 -19 -6 -23 -14 -9 -14 -46 -36 -62 -36 -5 0
-12 8 -15 18 -5 16 -46 42 -89 56 -11 3 -21 15 -24 25 -3 11 -13 21 -23 24
-13 3 -17 11 -13 26 9 37 29 44 99 38 69 -7 102 2 142 37 26 23 31 86 7 106
-8 7 -15 19 -15 26 0 19 -41 34 -94 34 -23 0 -47 5 -53 11 -8 8 -17 8 -32 0
-17 -10 -21 -9 -21 4 0 8 12 20 27 26 31 11 219 16 230 6 27 -27 53 21 32 60
-10 19 -11 28 -1 44 10 16 9 30 -3 72 -15 51 -17 53 -63 65 -95 24 -100 24
-107 -8 -7 -34 -32 -45 -80 -36 -20 4 -51 0 -76 -8 -41 -14 -45 -14 -66 6 -16
15 -23 33 -23 59 0 31 5 41 30 55 28 17 80 107 80 139 0 36 -32 10 -63 -50
l-33 -66 -34 36 c-32 33 -37 35 -103 35 -51 0 -76 -5 -95 -19 -38 -26 -99 -36
-117 -18 -8 8 -44 21 -80 28 -54 11 -72 19 -96 46 -16 19 -29 38 -29 43 0 18
-26 10 -49 -14 -13 -14 -26 -40 -30 -58 -4 -22 -13 -34 -26 -37 -11 -2 -24 -9
-28 -17 -4 -8 -16 -14 -27 -14 -27 0 -50 -27 -50 -59 0 -15 -6 -35 -13 -45
-12 -17 -16 -15 -47 23 -22 26 -43 41 -57 41 -20 0 -23 5 -23 35 0 25 -8 44
-25 60 -31 32 -35 31 -70 -5 -35 -36 -46 -37 -82 -6 -24 20 -26 26 -14 40 7 9
28 20 45 24 26 7 34 17 53 68 12 32 22 74 22 92 1 31 -1 32 -37 32 -56 0 -111
44 -112 88 0 27 6 36 35 53 40 24 45 52 13 73 -43 28 -75 30 -100 6 -19 -18
-31 -21 -72 -16 -30 3 -55 1 -63 -5 -9 -8 -17 -8 -28 1 -8 7 -26 9 -43 5 -35
-7 -73 20 -92 65 -10 25 -18 30 -34 26 -12 -3 -31 -6 -43 -6 -12 0 -29 -7 -37
-16 -16 -16 -56 -11 -56 7 0 17 -43 27 -63 15 -13 -8 -20 -8 -27 3 -6 11 -32
15 -104 15 l-96 1 0 -33z m578 -191 c3 -8 -1 -12 -9 -9 -7 2 -15 10 -17 17 -3
8 1 12 9 9 7 -2 15 -10 17 -17z m-2178 -451 c0 -5 -2 -10 -4 -10 -3 0 -8 5
-11 10 -3 6 -1 10 4 10 6 0 11 -4 11 -10z m2860 -15 c0 -14 -4 -25 -10 -25
-11 0 -14 33 -3 43 11 11 13 8 13 -18z m-2837 -325 c8 0 8 -3 0 -11 -13 -13
-43 -5 -43 12 0 6 7 8 16 5 9 -3 21 -6 27 -6z m-1102 -507 c13 -16 12 -17 -3
-4 -10 7 -18 15 -18 17 0 8 8 3 21 -13z m-381 -1150 c0 -13 -3 -13 -15 -3 -8
7 -12 16 -9 21 8 13 24 1 24 -18z m6220 -78 c0 -2 -7 -5 -15 -9 -9 -3 -15 0
-15 9 0 9 6 12 15 9 8 -4 15 -7 15 -9z m-23 -286 c34 -13 43 -25 43 -66 0 -25
7 -36 34 -52 41 -26 49 -43 31 -68 -8 -10 -15 -15 -15 -11 0 4 -12 3 -27 -3
-23 -8 -30 -6 -60 23 -37 35 -41 53 -17 66 14 8 15 13 3 37 -11 22 -22 28 -52
30 -48 3 -55 10 -32 35 20 22 50 25 92 9z m748 -379 c3 -5 -1 -10 -9 -10 -9 0
-19 0 -23 -1 -4 0 -9 4 -11 10 -5 14 35 14 43 1z m-7351 -874 c28 -18 65 -35
81 -39 87 -17 105 -40 59 -76 -21 -17 -41 -21 -94 -21 -58 0 -69 -3 -87 -24
-19 -21 -25 -23 -64 -15 -24 4 -60 8 -80 9 -35 0 -37 -2 -50 -45 -12 -41 -18
-47 -53 -56 -34 -9 -42 -8 -53 7 -24 33 -16 44 32 44 36 0 45 4 46 18 0 9 2
26 4 38 3 13 -5 30 -20 44 -20 19 -25 33 -25 71 0 26 5 51 11 55 15 9 98 19
178 21 57 2 70 -2 115 -31z m6484 -276 c8 0 32 -72 32 -95 0 -20 -8 -29 -35
-41 -43 -18 -42 -18 -48 7 -6 20 -10 21 -76 15 -48 -5 -71 -4 -71 3 0 6 -9 11
-20 11 -32 0 -23 18 15 31 25 9 35 19 35 35 0 17 10 24 53 36 33 9 63 11 82 6
16 -4 31 -8 33 -8z m-1053 -1300 c3 -5 2 -10 -4 -10 -5 0 -13 5 -16 10 -3 6
-2 10 4 10 5 0 13 -4 16 -10z m-1922 -392 c18 -12 33 -22 35 -23 1 -1 -2 -13
-7 -26 -7 -16 -10 -18 -10 -7 -1 11 -14 18 -41 23 -41 7 -45 11 -34 39 8 21
20 20 57 -6z m-1913 -923 c10 -12 10 -15 -3 -15 -8 0 -20 7 -27 15 -10 12 -10
15 3 15 8 0 20 -7 27 -15z"/>
<path d="M3216 9992 c-7 -11 51 -68 61 -59 4 4 2 20 -3 35 -9 27 -46 42 -58
24z"/>
<path d="M4286 9961 c-7 -11 13 -66 43 -113 23 -38 41 -49 41 -25 0 16 -33
119 -43 135 -9 14 -33 16 -41 3z"/>
<path d="M7276 9801 c-4 -7 -5 -15 -2 -18 9 -9 19 4 14 18 -4 11 -6 11 -12 0z"/>
<path d="M8836 9788 c-30 -47 -40 -78 -29 -89 13 -13 63 59 63 91 0 27 -16 25
-34 -2z"/>
<path d="M9292 9770 c-20 -13 -32 -26 -29 -35 3 -7 1 -29 -5 -49 -6 -20 -9
-39 -5 -42 10 -11 77 -22 77 -13 0 5 9 9 19 9 29 0 34 16 15 45 -16 24 -15 25
5 25 17 0 21 6 21 35 0 28 -4 35 -19 35 -11 0 -25 2 -33 5 -7 3 -28 -4 -46
-15z"/>
<path d="M4175 9759 c-13 -21 6 -57 59 -112 66 -69 91 -75 83 -19 -5 28 -19
49 -63 90 -58 54 -68 59 -79 41z"/>
<path d="M2375 9680 c-7 -12 11 -40 26 -40 14 0 10 26 -5 39 -10 9 -16 9 -21
1z"/>
<path d="M3815 9649 c-12 -18 37 -76 82 -98 75 -36 83 -24 26 36 -34 35 -84
73 -97 73 -3 0 -8 -5 -11 -11z"/>
<path d="M10225 9586 c-44 -44 -56 -66 -34 -66 18 0 109 80 109 96 0 26 -30
14 -75 -30z"/>
<path d="M1962 9574 c-12 -8 -22 -20 -22 -27 0 -18 52 -67 71 -67 10 0 19 -3
21 -7 2 -5 24 -19 49 -32 37 -19 49 -22 67 -12 33 18 10 55 -49 81 -27 11 -49
24 -49 28 -1 14 -26 39 -45 46 -12 3 -30 -1 -43 -10z"/>
<path d="M13343 9435 c-10 -23 -9 -25 10 -25 47 0 65 40 21 46 -12 2 -23 -6
-31 -21z"/>
<path d="M938 9353 c-10 -2 -18 -8 -18 -13 0 -4 -9 -10 -20 -13 -32 -8 -24
-77 9 -77 23 0 41 -20 41 -45 0 -14 11 -25 33 -34 63 -27 117 -22 117 11 0 27
19 60 30 53 11 -7 23 35 18 62 -3 15 -11 17 -50 15 -40 -3 -47 -1 -53 17 -7
23 -21 28 -27 9 -3 -8 -11 -7 -28 5 -14 9 -27 16 -30 16 -3 -1 -13 -3 -22 -6z"/>
<path d="M13660 9285 c-6 -7 -32 -20 -58 -29 -90 -33 -122 -49 -122 -63 0 -22
63 -15 131 16 35 15 77 33 92 40 37 15 33 46 -6 47 -15 1 -32 -4 -37 -11z"/>
<path d="M9655 9220 c-11 -5 -35 -9 -52 -9 -18 -1 -33 -5 -33 -10 0 -5 -10
-11 -22 -13 -22 -3 -23 -8 -24 -85 -1 -72 2 -85 21 -103 29 -28 139 -33 174
-8 13 10 28 15 32 12 4 -2 10 4 13 14 4 10 18 25 32 32 24 14 25 17 20 80 -3
36 -5 66 -6 68 0 1 -10 2 -22 2 -13 0 -32 7 -42 15 -22 16 -60 18 -91 5z"/>
<path d="M2016 9171 c-11 -17 6 -40 36 -50 39 -14 38 -14 38 7 0 35 -59 69
-74 43z"/>
<path d="M1600 9161 c-21 -6 -25 -12 -22 -41 2 -19 10 -42 18 -51 8 -8 14 -20
14 -26 0 -18 52 -33 102 -30 60 4 79 19 69 55 -4 15 -6 32 -4 38 5 15 -49 67
-56 55 -4 -6 -12 -6 -21 -1 -17 11 -63 11 -100 1z"/>
<path d="M10550 9139 c-33 -13 -70 -49 -70 -67 0 -12 10 -13 52 -8 59 8 90 30
86 60 -3 24 -31 30 -68 15z"/>
<path d="M10094 8927 c-88 -47 -118 -86 -36 -47 22 11 47 20 55 20 17 0 37 20
37 37 0 18 -8 16 -56 -10z"/>
<path d="M12157 8905 c-28 -13 -52 -57 -44 -78 8 -22 79 -23 112 -1 18 12 25
25 25 49 0 30 -3 33 -36 37 -19 2 -45 -1 -57 -7z"/>
<path d="M10802 8878 c-17 -17 -15 -32 9 -62 34 -43 101 -28 77 18 -12 24 -48
55 -63 56 -6 0 -16 -5 -23 -12z"/>
<path d="M9671 8856 c-9 -11 -8 -18 4 -30 30 -30 62 -15 50 24 -7 23 -37 26
-54 6z"/>
<path d="M9977 8799 c-46 -41 -57 -59 -36 -59 22 0 99 64 99 82 0 27 -11 23
-63 -23z"/>
<path d="M10460 8796 c-14 -8 -44 -17 -67 -21 -44 -7 -69 -27 -58 -45 8 -13
52 -13 60 0 3 6 26 15 51 21 37 10 44 15 44 35 0 13 -1 24 -2 24 -2 -1 -14 -7
-28 -14z"/>
<path d="M9480 8715 c0 -9 5 -15 11 -13 6 2 11 8 11 13 0 5 -5 11 -11 13 -6 2
-11 -4 -11 -13z"/>
<path d="M12690 8570 c0 -5 7 -10 15 -10 8 0 15 5 15 10 0 6 -7 10 -15 10 -8
0 -15 -4 -15 -10z"/>
<path d="M10045 8412 c-11 -10 -111 -42 -129 -42 -18 0 -66 -24 -66 -32 0 -13
75 -9 95 6 11 7 44 16 73 20 69 9 82 15 82 37 0 20 -37 27 -55 11z"/>
<path d="M16008 8379 c-10 -5 -18 -19 -18 -31 0 -17 4 -19 27 -13 35 9 36 9
28 34 -7 23 -12 25 -37 10z"/>
<path d="M15180 8363 c-8 -4 -20 -11 -26 -18 -6 -6 -48 -19 -93 -29 -75 -16
-82 -19 -79 -39 3 -20 8 -22 58 -19 30 1 62 5 70 9 8 3 17 7 20 8 3 1 18 7 33
13 16 7 32 12 37 12 5 0 14 9 20 20 8 16 8 24 -4 35 -8 8 -16 15 -18 14 -2 0
-10 -3 -18 -6z"/>
<path d="M13323 8323 c-7 -2 -13 -13 -13 -24 0 -24 42 -26 65 -3 13 14 14 19
3 25 -14 9 -36 10 -55 2z"/>
<path d="M13714 8278 c-3 -5 -9 -6 -14 -3 -5 3 -17 2 -27 -4 -21 -10 -200 -51
-225 -51 -25 0 -71 -47 -64 -65 4 -11 22 -15 78 -15 62 0 79 4 111 26 22 15
63 29 100 35 97 16 101 17 124 39 34 31 20 51 -34 48 -24 -1 -46 -6 -49 -10z"/>
<path d="M10660 8080 c0 -5 5 -10 10 -10 6 0 10 5 10 10 0 6 -4 10 -10 10 -5
0 -10 -4 -10 -10z"/>
<path d="M12096 7947 c-22 -16 -17 -50 7 -55 37 -7 67 7 67 32 0 35 -41 47
-74 23z"/>
<path d="M15508 7943 c-25 -3 -38 -9 -38 -19 0 -11 16 -14 74 -13 77 1 103 9
92 28 -7 11 -50 12 -128 4z"/>
<path d="M13944 7909 c-6 -10 11 -29 26 -29 3 0 11 4 19 9 17 11 5 31 -19 31
-10 0 -22 -5 -26 -11z"/>
<path d="M11510 7640 c0 -5 5 -10 10 -10 6 0 10 5 10 10 0 6 -4 10 -10 10 -5
0 -10 -4 -10 -10z"/>
<path d="M12310 7570 c-16 -30 8 -75 40 -75 20 0 26 6 28 28 2 15 -1 27 -6 27
-5 0 -12 9 -15 20 -7 26 -33 26 -47 0z"/>
<path d="M10490 7458 c0 -5 -7 -8 -16 -8 -23 0 -13 -55 14 -80 12 -11 22 -16
22 -10 0 7 6 8 19 1 13 -8 30 -7 58 3 39 14 41 17 34 92 -1 13 -131 14 -131 2z"/>
<path d="M11414 7298 c-9 -15 27 -41 39 -29 13 13 1 41 -17 41 -8 0 -18 -5
-22 -12z"/>
<path d="M12420 7221 c0 -22 25 -45 40 -36 5 3 10 17 10 31 0 19 -5 24 -25 24
-18 0 -25 -5 -25 -19z"/>
<path d="M11990 7106 c0 -11 10 -16 31 -16 38 0 35 24 -4 28 -19 2 -27 -1 -27
-12z"/>
<path d="M13981 7109 c-14 -5 -43 -9 -65 -9 -63 2 -124 -11 -130 -27 -9 -22
18 -26 122 -19 126 9 174 22 170 44 -4 20 -60 27 -97 11z"/>
<path d="M660 6882 c0 -11 8 -23 18 -26 27 -9 184 2 195 13 19 19 -4 26 -109
29 -99 4 -104 3 -104 -16z"/>
<path d="M14537 6866 c-7 -17 26 -31 44 -20 9 5 6 11 -6 21 -24 17 -32 16 -38
-1z"/>
<path d="M11845 6850 c-8 -13 5 -13 25 0 13 8 13 10 -2 10 -9 0 -20 -4 -23
-10z"/>
<path d="M11894 6849 c-11 -18 12 -25 82 -27 73 -2 86 2 77 23 -6 18 -148 22
-159 4z"/>
<path d="M925 6600 c3 -5 8 -10 11 -10 2 0 4 5 4 10 0 6 -5 10 -11 10 -5 0 -7
-4 -4 -10z"/>
<path d="M11506 6523 c-12 -12 -5 -23 14 -23 11 0 20 4 20 9 0 11 -26 22 -34
14z"/>
<path d="M734 6492 c-38 -32 2 -71 52 -51 20 7 34 7 49 -1 12 -6 58 -10 110
-8 85 3 90 4 93 26 3 18 -1 22 -26 22 -16 0 -32 3 -36 8 -4 4 -47 7 -94 7 -48
1 -96 4 -107 8 -13 4 -27 1 -41 -11z"/>
<path d="M1790 6475 c0 -9 5 -15 11 -13 6 2 11 8 11 13 0 5 -5 11 -11 13 -6 2
-11 -4 -11 -13z"/>
<path d="M13928 6370 c-43 -40 0 -69 50 -34 17 12 20 19 12 29 -17 21 -44 23
-62 5z"/>
<path d="M1757 6334 c-9 -10 2 -24 19 -24 8 0 14 7 14 15 0 15 -21 21 -33 9z"/>
<path d="M13633 6303 c-7 -2 -13 -22 -13 -43 0 -51 35 -81 85 -73 19 3 35 1
35 -4 0 -16 66 -15 80 2 11 13 26 14 86 9 l73 -7 11 29 c15 37 -4 74 -37 74
-13 0 -43 5 -67 11 -29 7 -68 8 -122 1 -43 -5 -80 -5 -82 -1 -4 10 -29 11 -49
2z"/>
<path d="M12954 6255 c-4 -10 -1 -21 7 -26 23 -14 31 -10 27 13 -4 27 -26 35
-34 13z"/>
<path d="M11725 6182 c-30 -6 -45 -22 -45 -46 0 -21 4 -22 63 -18 70 5 87 14
71 40 -12 18 -57 30 -89 24z"/>
<path d="M10610 6141 c0 -24 13 -33 34 -25 27 10 20 44 -9 44 -18 0 -25 -5
-25 -19z"/>
<path d="M2017 6113 c-14 -13 -6 -23 18 -23 18 0 23 4 19 15 -6 16 -26 20 -37
8z"/>
<path d="M1860 6011 c-30 -10 -72 -21 -93 -24 -65 -10 -127 -45 -127 -72 0
-13 5 -25 12 -27 18 -6 92 15 101 29 4 7 17 13 29 13 11 0 37 10 57 23 20 12
49 27 66 32 29 10 41 35 20 41 -5 2 -35 -5 -65 -15z"/>
<path d="M11000 6010 c0 -5 5 -10 10 -10 6 0 10 5 10 10 0 6 -4 10 -10 10 -5
0 -10 -4 -10 -10z"/>
<path d="M14350 5934 c0 -9 7 -14 17 -12 25 5 28 28 4 28 -12 0 -21 -6 -21
-16z"/>
<path d="M13400 5794 c0 -9 5 -14 12 -12 18 6 21 28 4 28 -9 0 -16 -7 -16 -16z"/>
<path d="M10236 5762 c-3 -3 -6 -27 -6 -54 0 -44 2 -48 24 -48 28 0 37 22 24
58 -4 13 -6 27 -3 32 6 9 -31 21 -39 12z"/>
<path d="M10340 5452 c2 -27 63 -65 91 -57 39 13 18 31 -63 55 -16 5 -28 6
-28 2z"/>
<path d="M13694 5304 c3 -9 6 -18 6 -20 0 -2 14 -4 31 -4 24 0 30 3 25 16 -3
9 -6 18 -6 20 0 2 -14 4 -31 4 -24 0 -30 -3 -25 -16z"/>
<path d="M10548 5283 c-27 -7 -21 -38 10 -53 59 -28 68 -31 92 -27 44 7 37 40
-13 65 -44 22 -56 24 -89 15z"/>
<path d="M9710 5115 c0 -14 4 -25 9 -25 12 0 23 29 15 41 -10 18 -24 9 -24
-16z"/>
<path d="M11718 4888 c-32 -11 -37 -38 -10 -59 27 -22 74 -46 107 -53 17 -4
53 -18 82 -32 28 -13 57 -24 62 -24 6 0 11 -7 11 -15 0 -19 19 -20 26 -1 3 8
18 18 34 21 20 4 29 14 33 33 8 40 -11 52 -99 64 -44 6 -82 15 -85 21 -3 5 -9
8 -13 7 -6 -2 -30 8 -98 41 -10 5 -19 9 -20 8 -2 0 -15 -5 -30 -11z"/>
<path d="M9742 4878 c-19 -19 -15 -85 5 -97 14 -7 24 -3 45 20 33 34 35 50 10
72 -22 20 -43 22 -60 5z"/>
<path d="M10042 4699 c2 -6 8 -10 13 -10 5 0 11 4 13 10 2 6 -4 11 -13 11 -9
0 -15 -5 -13 -11z"/>
<path d="M12197 4525 c-4 -8 -3 -16 1 -19 13 -8 35 11 28 23 -10 15 -23 14
-29 -4z"/>
<path d="M15000 4409 c0 -23 198 -84 216 -66 9 9 -15 37 -32 37 -8 0 -40 9
-71 20 -63 22 -113 26 -113 9z"/>
<path d="M9060 4125 c0 -8 2 -15 4 -15 2 0 11 -3 19 -6 12 -4 14 0 10 15 -6
24 -33 29 -33 6z"/>
<path d="M190 4091 c-14 -5 -45 -18 -69 -30 -25 -11 -54 -21 -65 -21 -29 -1
-56 -23 -56 -47 0 -11 2 -22 5 -25 7 -7 95 14 95 23 0 11 95 69 113 69 10 0
15 8 14 20 -1 22 -1 22 -37 11z"/>
<path d="M2358 4059 c-57 -40 -79 -72 -60 -91 14 -14 58 11 110 62 77 76 44
95 -50 29z"/>
<path d="M14632 3958 c-17 -17 4 -48 33 -48 32 0 38 12 19 38 -17 24 -34 28
-52 10z"/>
<path d="M2050 3951 c0 -5 -11 -12 -24 -15 -15 -4 -31 -21 -44 -47 l-20 -41
34 -14 c18 -8 38 -14 44 -14 5 0 37 21 70 46 63 48 76 77 38 88 -35 9 -98 7
-98 -3z"/>
<path d="M8750 3615 c0 -14 8 -29 20 -35 41 -22 56 18 18 44 -31 22 -38 20
-38 -9z"/>
<path d="M10194 3325 c-9 -24 22 -53 38 -37 9 9 10 17 2 29 -15 24 -33 27 -40
8z"/>
<path d="M11616 3301 c-8 -12 20 -71 33 -71 13 0 41 36 41 53 0 9 -6 17 -12
17 -7 0 -23 3 -34 6 -12 3 -25 1 -28 -5z"/>
<path d="M11816 3247 c7 -18 62 -65 149 -125 33 -23 71 -51 85 -62 33 -26 59
-18 52 16 -2 13 -11 24 -20 24 -8 0 -40 19 -71 42 -96 73 -148 107 -175 114
-21 5 -25 3 -20 -9z"/>
<path d="M6980 3205 c0 -14 5 -25 10 -25 6 0 10 11 10 25 0 14 -4 25 -10 25
-5 0 -10 -11 -10 -25z"/>
<path d="M7597 3213 c-18 -18 -2 -103 19 -103 22 0 27 23 14 69 -10 39 -19 48
-33 34z"/>
<path d="M13750 3212 c0 -12 25 -26 245 -140 17 -8 44 -26 60 -38 40 -30 79
-44 95 -34 19 12 5 39 -27 50 -16 5 -41 17 -58 27 -43 24 -151 81 -215 114
-53 27 -100 37 -100 21z"/>
<path d="M2115 3131 c-6 -11 9 -23 19 -14 9 9 7 23 -3 23 -6 0 -12 -4 -16 -9z"/>
<path d="M6608 3054 c-21 -11 -28 -24 -34 -66 -7 -50 -8 -82 -5 -119 1 -21 49
-31 73 -15 10 6 21 20 24 31 4 11 14 31 24 45 9 14 18 39 18 57 0 25 -6 36
-37 56 -33 22 -40 23 -63 11z"/>
<path d="M15343 3004 c-8 -21 19 -46 40 -38 21 8 21 18 1 38 -20 20 -33 20
-41 0z"/>
<path d="M12020 2949 c0 -5 5 -7 10 -4 6 3 10 8 10 11 0 2 -4 4 -10 4 -5 0
-10 -5 -10 -11z"/>
<path d="M690 2942 c-14 -2 -27 -7 -30 -11 -3 -3 -17 -14 -32 -24 -30 -19 -37
-47 -13 -47 24 0 67 25 93 53 26 27 21 35 -18 29z"/>
<path d="M12050 2935 c0 -18 88 -77 109 -73 33 7 19 29 -38 58 -70 35 -71 35
-71 15z"/>
<path d="M5150 2870 c0 -5 5 -10 10 -10 6 0 10 5 10 10 0 6 -4 10 -10 10 -5 0
-10 -4 -10 -10z"/>
<path d="M6627 2793 c-31 -5 -42 -21 -51 -79 -7 -42 11 -73 34 -59 6 4 10 -6
10 -24 0 -28 3 -31 29 -31 17 0 33 5 36 10 4 6 13 9 22 8 22 -4 42 30 24 41
-8 5 -16 32 -19 62 -7 78 -12 83 -85 72z"/>
<path d="M7410 2720 c0 -33 19 -40 40 -15 16 20 5 45 -20 45 -16 0 -20 -7 -20
-30z"/>
<path d="M8340 2739 c0 -5 5 -7 10 -4 6 3 10 8 10 11 0 2 -4 4 -10 4 -5 0 -10
-5 -10 -11z"/>
<path d="M1125 2678 c-16 -6 -46 -23 -65 -38 -19 -15 -51 -33 -72 -39 -20 -7
-39 -18 -42 -26 -3 -8 -12 -15 -19 -15 -14 0 -57 -32 -57 -42 0 -3 13 -11 30
-18 25 -10 35 -9 72 9 24 12 61 37 83 56 22 19 46 35 54 35 7 0 24 10 35 23
12 12 31 27 41 33 21 12 13 34 -13 33 -9 0 -30 -5 -47 -11z"/>
<path d="M10740 2678 c1 -30 133 -150 155 -142 9 4 15 10 13 14 -5 12 -151
140 -160 140 -4 0 -8 -6 -8 -12z"/>
<path d="M16712 2629 c2 -20 19 -30 93 -61 111 -46 127 -47 123 -11 -2 17 -10
27 -22 29 -45 6 -67 15 -85 35 -12 14 -37 23 -66 27 -45 5 -47 4 -43 -19z"/>
<path d="M12610 2574 c0 -19 50 -63 72 -64 36 0 31 25 -12 51 -42 26 -60 30
-60 13z"/>
<path d="M7463 2551 c-54 -9 -57 -13 -55 -64 2 -31 9 -48 28 -64 33 -30 96
-31 126 -3 21 20 21 20 3 74 -10 30 -22 53 -27 50 -4 -3 -8 0 -8 5 0 12 -4 12
-67 2z"/>
<path d="M8540 2510 c0 -5 7 -10 15 -10 8 0 15 5 15 10 0 6 -7 10 -15 10 -8 0
-15 -4 -15 -10z"/>
<path d="M10472 2498 c2 -12 11 -24 21 -26 24 -5 22 25 -4 38 -18 10 -20 9
-17 -12z"/>
<path d="M9710 2389 c0 -34 14 -66 41 -92 11 -10 19 -27 19 -37 0 -11 5 -20
10 -20 6 0 10 -7 10 -16 0 -12 9 -14 43 -12 38 3 42 6 45 31 3 21 -3 33 -22
48 -14 11 -26 27 -26 34 0 22 -77 95 -100 95 -16 0 -20 -6 -20 -31z"/>
<path d="M4497 2358 c-10 -24 -11 -37 -4 -47 9 -11 14 -9 29 9 22 27 23 44 3
60 -12 10 -17 6 -28 -22z"/>
<path d="M11040 2350 c0 -13 7 -20 20 -20 13 0 20 7 20 20 0 13 -7 20 -20 20
-13 0 -20 -7 -20 -20z"/>
<path d="M6557 2183 c-12 -11 -8 -23 8 -23 8 0 15 7 15 15 0 16 -12 20 -23 8z"/>
<path d="M8067 2164 c-14 -14 -7 -35 11 -32 9 2 17 10 17 17 0 16 -18 25 -28
15z"/>
<path d="M16251 2118 c-15 -41 24 -83 67 -71 44 11 21 75 -31 87 -23 5 -29 2
-36 -16z"/>
<path d="M12220 2114 c0 -19 31 -52 112 -121 51 -42 96 -81 99 -85 8 -11 66
-27 73 -20 18 17 1 45 -46 76 -29 19 -88 62 -130 95 -68 53 -108 74 -108 55z"/>
<path d="M7705 2003 c3 -49 7 -116 8 -150 1 -35 5 -63 10 -63 4 0 7 -19 7 -42
0 -51 32 -111 57 -106 24 4 40 64 25 89 -7 10 -12 35 -12 54 0 20 -6 46 -14
58 -8 12 -19 55 -25 95 -12 79 -38 152 -53 152 -6 0 -8 -32 -3 -87z"/>
<path d="M1418 2019 c-10 -5 -18 -21 -18 -34 0 -20 5 -25 24 -25 24 0 36 16
36 51 0 21 -15 24 -42 8z"/>
<path d="M3728 1938 c-47 -56 -75 -88 -115 -129 -18 -18 -26 -38 -27 -65 -1
-35 2 -39 25 -42 19 -2 34 6 58 33 17 20 31 45 31 56 0 11 22 44 49 72 57 60
80 127 43 127 -12 0 -38 -21 -64 -52z"/>
<path d="M8560 1980 c0 -5 5 -10 10 -10 6 0 10 5 10 10 0 6 -4 10 -10 10 -5 0
-10 -4 -10 -10z"/>
<path d="M1238 1952 c-47 -27 -63 -46 -52 -63 11 -18 33 -8 73 33 62 65 56 74
-21 30z"/>
<path d="M1040 1750 c0 -5 7 -10 15 -10 8 0 15 5 15 10 0 6 -7 10 -15 10 -8 0
-15 -4 -15 -10z"/>
<path d="M10855 1690 c-11 -17 5 -32 21 -19 7 6 11 15 8 20 -7 12 -21 11 -29
-1z"/>
<path d="M4472 1588 c-17 -17 -15 -55 3 -62 17 -6 35 22 35 53 0 23 -19 28
-38 9z"/>
<path d="M4906 1585 c4 -8 10 -12 15 -9 14 8 10 24 -6 24 -9 0 -12 -6 -9 -15z"/>
<path d="M641 1564 c-35 -29 -39 -44 -13 -44 22 0 62 35 62 55 0 22 -14 18
-49 -11z"/>
<path d="M4711 1508 c-40 -71 -48 -106 -27 -114 25 -10 54 23 72 81 17 52 14
85 -5 85 -5 0 -23 -24 -40 -52z"/>
<path d="M25 1360 c3 -5 8 -10 11 -10 2 0 4 5 4 10 0 6 -5 10 -11 10 -5 0 -7
-4 -4 -10z"/>
<path d="M1493 1350 c-25 -23 -29 -45 -12 -56 17 -10 41 21 37 50 l-3 27 -22
-21z"/>
<path d="M5340 1285 c0 -28 15 -34 24 -9 10 25 7 34 -9 34 -9 0 -15 -9 -15
-25z"/>
<path d="M14160 1031 c0 -25 15 -41 47 -52 49 -16 64 1 30 35 -25 25 -77 36
-77 17z"/>
<path d="M12555 990 c-8 -12 20 -60 35 -60 5 0 17 -13 27 -30 16 -28 63 -44
63 -21 0 19 -46 79 -76 100 -34 24 -40 25 -49 11z"/>
<path d="M14780 972 c0 -25 19 -42 47 -42 32 0 30 33 -2 48 -36 16 -45 15 -45
-6z"/>
<path d="M11902 924 c2 -11 11 -20 22 -22 13 -3 17 1 14 14 -2 11 -11 20 -22
22 -13 3 -17 -1 -14 -14z"/>
<path d="M10256 891 c-8 -12 2 -38 32 -83 25 -38 47 -48 54 -26 8 23 -26 97
-50 107 -28 13 -29 13 -36 2z"/>
<path d="M11090 886 c0 -15 18 -31 26 -23 7 7 -7 37 -17 37 -5 0 -9 -6 -9 -14z"/>
<path d="M5610 775 c0 -25 14 -34 24 -16 8 12 -3 41 -15 41 -5 0 -9 -11 -9
-25z"/>
<path d="M7420 690 c0 -11 6 -20 13 -20 8 0 14 7 14 15 0 8 -6 16 -14 19 -8 3
-13 -2 -13 -14z"/>
<path d="M3586 623 c-12 -12 -6 -33 9 -33 8 0 15 6 15 14 0 17 -14 28 -24 19z"/>
<path d="M7845 580 c4 -6 11 -8 16 -5 14 9 11 15 -7 15 -8 0 -12 -5 -9 -10z"/>
<path d="M5960 564 c0 -8 5 -12 10 -9 6 3 10 10 10 16 0 5 -4 9 -10 9 -5 0
-10 -7 -10 -16z"/>
<path d="M2035 350 c3 -5 8 -10 11 -10 2 0 4 5 4 10 0 6 -5 10 -11 10 -5 0 -7
-4 -4 -10z"/>
<path d="M3847 213 c-47 -74 -50 -107 -7 -96 25 7 60 75 60 118 0 19 -4 35 -8
35 -4 0 -24 -26 -45 -57z"/>
<path d="M9800 204 c0 -8 11 -43 23 -77 13 -34 28 -75 33 -92 17 -54 92 -41
77 13 -3 12 -12 22 -20 22 -8 0 -21 17 -29 38 -38 96 -48 112 -66 112 -10 0
-18 -7 -18 -16z"/>
</g>
</svg>
