<?xml version="1.0" standalone="no"?>
<!DOCTYPE svg PUBLIC "-//W3C//DTD SVG 20010904//EN"
 "http://www.w3.org/TR/2001/REC-SVG-20010904/DTD/svg10.dtd">
<svg version="1.0" xmlns="http://www.w3.org/2000/svg"
 width="800.000000pt" height="580.000000pt" viewBox="0 0 800.000000 580.000000"
 preserveAspectRatio="xMidYMid meet">
<metadata>
Created by potrace 1.13, written by Peter Selinger 2001-2015
</metadata>
<g transform="translate(0.000000,580.000000) scale(0.100000,-0.100000)"
fill="#000000" stroke="none">
<path d="M3403 5455 c-16 -17 -23 -37 -23 -65 0 -50 18 -70 60 -70 48 0 60 19
60 94 l0 66 -37 -1 c-27 0 -45 -7 -60 -24z"/>
<path d="M2663 5395 c-19 -20 -23 -36 -23 -90 0 -37 4 -65 10 -65 6 0 10 -7
10 -16 0 -23 25 -44 54 -44 14 0 26 -4 26 -10 0 -15 70 -12 86 4 8 8 14 22 14
30 0 9 5 16 10 16 6 0 10 27 10 60 0 33 -4 60 -10 60 -5 0 -10 14 -10 30 0 23
-4 30 -20 30 -11 0 -20 5 -20 10 0 6 -25 10 -57 9 -48 0 -62 -4 -80 -24z"/>
<path d="M3573 5405 c-15 -17 -17 -85 -3 -85 6 0 10 -13 10 -30 0 -27 3 -30
30 -30 17 0 30 -4 30 -10 0 -18 31 -10 55 15 30 29 32 65 5 85 -11 8 -20 20
-20 28 0 38 -80 58 -107 27z"/>
<path d="M4040 5010 c0 -5 -9 -10 -20 -10 -13 0 -20 -7 -20 -20 0 -11 -4 -20
-10 -20 -5 0 -10 -13 -10 -30 0 -16 5 -30 10 -30 6 0 10 -7 10 -15 0 -18 44
-65 60 -65 17 0 40 -26 40 -44 0 -9 -4 -16 -10 -16 -5 0 -10 -22 -10 -50 0
-43 3 -50 20 -50 11 0 20 5 20 10 0 6 7 10 16 10 36 0 44 25 44 134 0 64 -4
106 -10 106 -5 0 -10 16 -10 36 0 19 -6 42 -14 50 -17 16 -106 20 -106 4z"/>
<path d="M4900 4850 c0 -5 -9 -10 -20 -10 -18 0 -20 -7 -20 -70 0 -40 4 -70
10 -70 6 0 10 -9 10 -20 0 -11 5 -20 10 -20 6 0 10 -8 10 -18 0 -10 9 -24 20
-32 11 -8 20 -20 20 -28 0 -18 25 -42 44 -42 9 0 16 -4 16 -10 0 -15 29 -12
46 4 8 8 14 22 14 30 0 9 5 16 10 16 6 0 10 9 10 20 0 13 7 20 20 20 11 0 20
5 20 10 0 6 9 10 20 10 16 0 20 7 20 30 0 17 -4 30 -10 30 -5 0 -10 9 -10 20
0 11 -4 20 -10 20 -5 0 -10 7 -10 15 0 19 -44 65 -62 65 -8 0 -20 9 -28 20
-12 16 -26 20 -72 20 -32 0 -58 -4 -58 -10z"/>
<path d="M4753 4785 c-15 -17 -17 -85 -3 -85 6 0 10 -26 10 -58 0 -46 -4 -60
-20 -72 -11 -8 -20 -18 -20 -22 0 -4 9 -8 20 -8 11 0 20 5 20 10 0 6 18 10 40
10 22 0 40 -4 40 -10 0 -5 5 -10 10 -10 6 0 10 13 10 29 0 16 6 32 13 35 10 5
10 7 0 12 -7 3 -13 18 -13 33 0 15 -9 33 -20 41 -11 8 -20 22 -20 32 0 10 -4
18 -10 18 -5 0 -10 14 -10 30 0 33 -25 41 -47 15z"/>
<path d="M4360 4751 c0 -16 -6 -32 -12 -35 -10 -5 -10 -7 0 -12 6 -3 12 -23
12 -45 0 -21 5 -39 10 -39 6 0 10 -9 10 -20 0 -11 5 -20 10 -20 6 0 10 -9 10
-20 0 -30 26 -24 65 15 27 26 35 43 35 70 0 19 5 35 10 35 6 0 10 9 10 20 0
12 -7 20 -16 20 -9 0 -29 14 -44 30 -21 23 -37 30 -64 30 -33 0 -36 -2 -36
-29z"/>
<path d="M5300 4690 c0 -16 -4 -30 -10 -30 -5 0 -10 -13 -10 -30 0 -16 5 -30
10 -30 6 0 10 -7 10 -16 0 -8 6 -22 14 -30 17 -16 46 -19 46 -4 0 6 9 10 20
10 17 0 20 7 20 50 0 28 -4 50 -10 50 -5 0 -10 9 -10 20 0 13 -7 20 -20 20
-11 0 -20 5 -20 10 0 6 -9 10 -20 10 -16 0 -20 -7 -20 -30z"/>
<path d="M5893 4605 c-7 -8 -13 -21 -13 -30 0 -8 -4 -15 -10 -15 -5 0 -10 -8
-10 -18 0 -10 -9 -24 -20 -32 -11 -8 -20 -22 -20 -32 0 -10 -4 -18 -10 -18 -5
0 -10 -18 -10 -39 0 -22 -6 -42 -12 -45 -10 -5 -10 -7 0 -12 6 -3 12 -23 12
-45 l0 -39 46 0 c52 0 74 16 74 54 0 22 -4 26 -30 26 -16 0 -30 5 -30 10 0 6
-9 10 -20 10 -11 0 -20 4 -20 8 0 4 9 14 20 22 11 8 20 22 20 32 0 10 5 18 10
18 6 0 10 9 10 20 0 11 5 20 10 20 6 0 10 14 10 30 0 17 5 30 10 30 6 0 10 14
10 30 0 33 -8 37 -27 15z"/>
<path d="M3840 4530 c0 -16 5 -30 10 -30 6 0 10 -12 10 -26 0 -14 6 -32 14
-40 17 -16 46 -19 46 -4 0 6 14 10 30 10 29 0 30 2 30 46 0 60 -15 74 -84 74
-56 0 -56 0 -56 -30z"/>
<path d="M2553 4525 c-7 -8 -13 -21 -13 -30 0 -8 -4 -15 -10 -15 -15 0 -12
-70 4 -86 8 -8 22 -14 30 -14 9 0 16 -4 16 -10 0 -5 9 -10 20 -10 11 0 20 -4
20 -10 0 -5 9 -10 20 -10 11 0 20 5 20 10 0 6 7 10 16 10 9 0 25 9 35 21 l18
21 26 -26 c14 -14 25 -30 25 -36 0 -6 23 -33 50 -60 28 -27 50 -55 50 -62 0
-8 9 -20 20 -28 12 -8 20 -26 20 -42 0 -15 5 -28 10 -28 16 0 13 -149 -4 -166
-21 -21 -26 -18 -26 16 0 27 -3 30 -30 30 l-30 0 0 -60 c0 -33 4 -60 10 -60 6
0 10 -22 10 -50 0 -27 5 -50 10 -50 6 0 10 -7 10 -16 0 -9 9 -25 21 -35 19
-16 20 -20 6 -34 -10 -9 -33 -15 -61 -15 l-46 0 0 -40 c0 -36 -2 -40 -25 -40
-29 0 -75 -40 -75 -65 0 -8 -4 -15 -10 -15 -5 0 -10 -4 -10 -10 0 -6 29 -10
68 -10 56 0 70 3 82 20 20 27 30 25 30 -6 0 -35 -22 -54 -64 -54 -20 0 -36 -4
-36 -10 0 -5 -13 -10 -29 -10 -16 0 -32 -6 -34 -12 -4 -10 -8 -9 -16 2 -10 13
-12 13 -20 0 -8 -12 -13 -11 -29 8 -24 27 -43 28 -62 2 -8 -11 -21 -20 -28
-20 -7 0 -31 -18 -52 -40 -21 -22 -46 -40 -54 -40 -9 0 -16 -4 -16 -10 0 -5
-13 -10 -30 -10 -16 0 -30 5 -30 10 0 6 -9 10 -20 10 -11 0 -20 5 -20 10 0 6
-9 10 -20 10 -11 0 -20 5 -20 10 0 6 -9 10 -20 10 -11 0 -20 5 -20 10 0 6 -13
10 -30 10 -16 0 -30 5 -30 10 0 6 -22 10 -50 10 -27 0 -50 5 -50 10 0 6 -18
10 -40 10 -33 0 -40 3 -40 20 0 11 5 20 10 20 6 0 10 14 10 30 0 17 -4 30 -10
30 -5 0 -10 11 -10 25 0 14 -11 37 -25 50 -32 33 -103 35 -125 5 -8 -12 -26
-20 -42 -20 -15 0 -28 -4 -28 -10 0 -5 -13 -10 -30 -10 -16 0 -30 5 -30 10 0
6 -18 10 -40 10 -22 0 -40 5 -40 10 0 6 -9 10 -20 10 -11 0 -20 5 -20 10 0 6
-9 10 -20 10 -11 0 -20 5 -20 10 0 6 -9 10 -20 10 -11 0 -20 5 -20 10 0 6 -13
10 -30 10 -16 0 -30 5 -30 10 0 21 -70 10 -95 -15 -30 -29 -32 -55 -5 -55 11
0 20 -4 20 -10 0 -5 9 -10 20 -10 11 0 20 -4 20 -10 0 -5 14 -10 30 -10 17 0
30 -4 30 -10 0 -5 9 -10 20 -10 11 0 20 -4 20 -10 0 -5 9 -10 20 -10 11 0 20
-4 20 -10 0 -5 14 -10 30 -10 17 0 30 -4 30 -10 0 -5 14 -10 30 -10 17 0 30
-4 30 -10 0 -5 9 -10 20 -10 11 0 20 -4 20 -10 0 -5 9 -10 20 -10 11 0 20 -4
20 -10 0 -5 9 -10 20 -10 11 0 20 -4 20 -8 0 -4 -9 -14 -20 -22 -12 -8 -20
-26 -20 -42 0 -26 3 -28 40 -28 33 0 40 3 40 20 0 11 3 20 6 20 10 0 34 -28
34 -40 0 -6 7 -19 16 -27 13 -14 17 -14 25 -2 8 12 10 12 19 -1 9 -13 11 -13
21 0 8 11 12 12 16 3 3 -8 24 -13 54 -13 27 0 49 -4 49 -10 0 -5 9 -10 20 -10
11 0 20 -4 20 -10 0 -5 13 -10 28 -10 16 0 34 -8 42 -20 8 -11 22 -20 32 -20
10 0 18 -4 18 -10 0 -5 8 -10 18 -10 10 0 24 -9 32 -20 8 -11 21 -20 30 -20 9
0 22 -9 30 -20 8 -11 20 -20 28 -20 40 0 56 -65 22 -90 -16 -12 -20 -26 -20
-78 0 -53 -4 -67 -25 -87 -13 -14 -36 -25 -50 -25 -14 0 -25 -4 -25 -10 0 -6
-53 -10 -140 -10 -133 0 -140 -1 -140 -20 0 -13 7 -20 19 -20 11 0 22 -6 25
-12 5 -10 7 -10 12 0 4 8 29 12 75 12 62 0 69 -2 69 -20 0 -13 -7 -20 -20 -20
-23 0 -27 -25 -6 -46 17 -16 106 -20 106 -4 0 6 53 10 140 10 87 0 140 -4 140
-10 0 -5 13 -10 28 -10 16 0 34 -8 42 -20 8 -11 20 -20 28 -20 7 0 20 -6 28
-14 16 -17 19 -66 4 -66 -5 0 -10 -9 -10 -20 0 -11 5 -20 10 -20 6 0 10 -13
10 -30 0 -16 5 -30 10 -30 15 0 13 -117 -2 -123 -8 -2 4 -20 30 -45 23 -22 42
-47 42 -54 0 -7 9 -20 20 -28 11 -8 20 -21 20 -30 0 -9 9 -22 20 -30 31 -23
25 -57 -20 -100 -22 -21 -40 -48 -40 -60 0 -26 31 -61 38 -42 4 14 82 17 82 2
0 -5 9 -10 19 -10 11 0 21 -6 23 -12 6 -17 38 14 38 36 0 9 8 16 20 16 11 0
20 5 20 10 0 6 23 10 50 10 28 0 50 -4 50 -10 0 -5 11 -10 25 -10 29 0 88 -51
67 -58 -7 -2 -12 -12 -12 -23 0 -10 -4 -19 -10 -19 -6 0 -10 -33 -10 -80 0
-102 9 -103 100 -10 38 39 75 70 82 70 8 0 20 -9 28 -20 8 -11 22 -20 31 -20
10 0 20 -6 23 -12 5 -10 7 -10 12 0 3 6 21 12 40 12 30 0 45 -11 114 -80 44
-44 86 -80 95 -80 8 0 15 -4 15 -10 0 -5 14 -10 30 -10 17 0 30 -4 30 -10 0
-5 14 -10 30 -10 17 0 30 5 30 10 0 6 14 10 30 10 25 0 30 -4 30 -25 0 -31 41
-75 70 -75 29 0 50 23 50 54 0 14 5 26 10 26 6 0 10 9 10 20 0 11 -4 20 -10
20 -5 0 -10 9 -10 20 0 11 -4 20 -10 20 -5 0 -10 14 -10 30 0 17 -4 30 -10 30
-16 0 -12 109 4 126 9 8 34 14 60 14 25 0 46 5 46 10 0 6 9 10 20 10 16 0 20
-7 20 -36 0 -38 18 -64 44 -64 13 0 16 -12 16 -60 0 -33 4 -60 10 -60 6 0 10
5 10 10 0 6 8 10 18 10 10 0 24 9 32 20 8 11 22 20 32 20 10 0 18 5 18 10 0 6
9 10 20 10 13 0 20 -7 20 -20 0 -11 5 -20 10 -20 6 0 10 -40 10 -100 0 -60 -4
-100 -10 -100 -5 0 -10 -13 -10 -30 0 -16 -4 -30 -10 -30 -5 0 -10 -8 -10 -18
0 -10 -9 -24 -20 -32 -11 -8 -20 -22 -20 -32 0 -10 -4 -18 -10 -18 -5 0 -10
-8 -10 -18 0 -10 -9 -24 -20 -32 -11 -8 -20 -21 -20 -30 0 -9 -9 -22 -20 -30
-11 -8 -20 -22 -20 -32 0 -10 -4 -18 -10 -18 -5 0 -10 -9 -10 -20 0 -11 -4
-20 -10 -20 -5 0 -10 -9 -10 -20 0 -11 -4 -20 -10 -20 -5 0 -10 -9 -10 -20 0
-11 -4 -20 -10 -20 -6 0 -10 -43 -10 -110 0 -67 4 -110 10 -110 6 0 10 -7 10
-16 0 -28 27 -44 74 -44 25 0 46 5 46 10 0 6 9 10 20 10 18 0 20 7 20 60 0 33
-4 60 -10 60 -5 0 -10 7 -10 16 0 8 -18 33 -40 54 -45 43 -51 77 -20 100 12 8
20 26 20 42 0 15 5 28 10 28 6 0 10 14 10 30 0 17 5 30 10 30 6 0 10 9 10 20
0 11 5 20 10 20 6 0 10 9 10 20 0 11 5 20 10 20 6 0 10 7 10 15 0 20 65 85 85
85 8 0 15 5 15 10 0 6 14 10 30 10 27 0 30 -3 30 -30 0 -16 -4 -30 -10 -30 -5
0 -10 -9 -10 -20 0 -11 5 -20 10 -20 6 0 10 5 10 10 0 6 8 10 18 10 10 0 24 9
32 20 8 11 22 20 32 20 10 0 18 5 18 10 0 6 7 10 16 10 18 0 44 23 44 40 0 15
25 40 39 40 14 0 141 -126 141 -140 0 -16 128 -140 145 -140 23 0 19 8 -35 60
-28 27 -50 56 -50 64 0 9 -4 16 -10 16 -5 0 -10 9 -10 20 0 11 5 20 10 20 6 0
10 -4 10 -10 0 -5 9 -10 20 -10 16 0 20 7 20 30 0 17 -4 30 -10 30 -5 0 -10
18 -10 40 l0 40 -40 0 c-33 0 -40 3 -40 20 0 15 7 20 28 20 16 0 34 -8 42 -20
8 -11 22 -20 32 -20 11 0 18 -7 18 -18 0 -10 9 -24 20 -32 11 -8 20 -26 20
-41 0 -15 6 -30 13 -33 10 -5 10 -7 0 -12 -7 -3 -13 -19 -13 -35 0 -22 5 -29
20 -29 11 0 20 -4 20 -10 0 -5 9 -10 20 -10 11 0 20 -4 20 -10 0 -5 7 -10 15
-10 20 0 105 -85 105 -105 0 -8 5 -15 10 -15 6 0 10 -13 10 -30 0 -16 5 -30
10 -30 6 0 10 -33 10 -80 0 -47 -4 -80 -10 -80 -5 0 -10 -16 -10 -36 0 -28 8
-43 40 -74 22 -21 40 -46 40 -54 0 -9 5 -16 10 -16 6 0 10 -13 10 -30 0 -23
-5 -30 -19 -30 -11 0 -22 -6 -24 -12 -4 -10 -8 -9 -17 2 -9 11 -13 12 -17 3
-2 -7 -11 -13 -20 -13 -22 0 -43 -26 -43 -54 0 -14 -4 -26 -10 -26 -5 0 -10
-11 -10 -26 0 -18 18 -42 60 -84 33 -32 60 -65 60 -72 0 -8 9 -20 20 -28 12
-8 20 -26 20 -42 0 -15 5 -28 10 -28 6 0 10 -22 10 -49 0 -30 5 -52 13 -55 10
-5 10 -7 0 -12 -9 -4 -13 -35 -13 -105 0 -92 1 -99 20 -99 11 0 20 -4 20 -10
0 -5 9 -10 20 -10 19 0 20 7 20 180 0 113 -4 180 -10 180 -6 0 -10 26 -10 59
0 38 -4 61 -12 63 -9 3 -8 9 4 21 23 23 128 24 128 2 0 -18 169 -190 177 -181
4 3 -4 14 -15 25 -12 10 -22 24 -22 31 0 6 -13 25 -30 40 -17 15 -30 34 -30
42 0 7 -9 20 -20 28 -11 8 -20 21 -20 30 0 9 -9 22 -20 30 -11 8 -20 20 -20
28 0 18 -66 82 -85 82 -8 0 -15 -4 -15 -10 0 -5 5 -10 10 -10 15 0 12 -29 -4
-46 -8 -8 -17 -14 -20 -14 -3 0 -6 72 -6 160 0 100 -4 160 -10 160 -6 0 -10
67 -10 180 0 113 4 180 10 180 6 0 10 18 10 40 0 22 5 40 10 40 6 0 10 -4 10
-10 0 -5 17 -10 38 -10 26 0 42 6 52 20 24 33 74 26 115 -15 19 -19 35 -39 35
-45 0 -10 85 -100 95 -100 3 0 5 9 5 20 0 11 2 20 5 20 12 0 55 -50 55 -62 0
-8 9 -20 20 -28 11 -8 20 -22 20 -32 0 -10 5 -18 10 -18 6 0 10 -7 10 -15 0
-14 102 -125 115 -125 3 0 5 9 5 20 0 11 -4 20 -10 20 -5 0 -10 9 -10 20 0 11
-4 20 -10 20 -5 0 -10 9 -10 20 0 11 -4 20 -10 20 -5 0 -10 8 -10 18 0 10 -9
24 -20 32 -11 8 -20 22 -20 32 0 10 -4 18 -10 18 -5 0 -10 8 -10 18 0 10 -9
24 -20 32 -11 8 -20 22 -20 32 0 10 -4 18 -10 18 -5 0 -10 9 -10 20 0 11 -4
20 -10 20 -5 0 -10 9 -10 20 0 11 -4 20 -10 20 -5 0 -10 14 -10 30 0 17 -4 30
-10 30 -5 0 -10 7 -10 16 0 18 -23 44 -40 44 -16 0 -60 47 -60 65 0 8 -4 15
-10 15 -6 0 -10 37 -10 90 0 53 4 90 10 90 6 0 10 12 10 26 0 14 6 32 14 40
17 16 46 19 46 4 0 -5 9 -10 20 -10 17 0 20 7 20 50 0 28 5 50 10 50 6 0 10
14 10 30 0 23 4 30 20 30 11 0 20 -4 20 -10 0 -5 18 -10 40 -10 33 0 40 3 40
20 0 11 -4 20 -10 20 -5 0 -10 18 -10 40 0 33 3 40 20 40 13 0 20 7 20 20 0
11 5 20 10 20 6 0 10 30 10 70 0 63 2 70 20 70 11 0 20 -4 20 -10 0 -5 8 -10
18 -10 10 0 24 -9 32 -20 17 -23 55 -26 76 -6 16 17 19 46 4 46 -5 0 -10 9
-10 20 0 11 -4 20 -10 20 -5 0 -10 9 -10 20 0 11 -4 20 -10 20 -5 0 -10 14
-10 30 0 17 5 30 10 30 6 0 10 5 10 10 0 6 -18 10 -40 10 -22 0 -40 -4 -40
-10 0 -5 -4 -10 -10 -10 -5 0 -10 18 -10 40 0 22 -4 40 -10 40 -5 0 -10 23
-10 50 0 28 -4 50 -10 50 -6 0 -10 27 -10 60 l0 60 30 0 c17 0 30 5 30 10 0 6
21 10 46 10 47 0 74 16 74 44 0 9 -8 16 -20 16 -11 0 -20 5 -20 10 0 6 -9 10
-20 10 -11 0 -20 5 -20 10 0 6 -13 10 -30 10 -16 0 -30 5 -30 10 0 6 -7 10
-15 10 -9 0 -27 11 -41 25 -22 22 -23 27 -10 40 8 8 22 15 30 15 23 0 20 33
-4 50 -18 13 -20 26 -20 122 0 65 4 108 10 108 6 0 10 23 10 50 0 28 5 50 10
50 6 0 10 27 10 60 0 53 -2 60 -20 60 -13 0 -20 7 -20 20 0 11 -4 20 -10 20
-5 0 -10 14 -10 30 0 17 5 30 10 30 6 0 10 18 10 40 0 22 5 40 10 40 6 0 10 9
10 20 0 18 -7 20 -70 20 l-70 0 0 -45 c0 -66 -31 -95 -100 -95 -44 0 -55 4
-85 35 -19 19 -35 41 -35 49 0 8 -6 16 -12 18 -17 6 14 38 36 38 24 0 21 52
-4 70 -11 8 -20 21 -20 30 0 9 -9 22 -20 30 -12 8 -20 26 -20 42 0 15 -4 28
-10 28 -5 0 -10 9 -10 20 0 11 -4 20 -10 20 -5 0 -10 9 -10 20 0 11 -4 20 -10
20 -5 0 -10 18 -10 40 0 22 5 40 10 40 6 0 10 9 10 20 0 11 5 20 10 20 6 0 10
18 10 40 0 22 -4 40 -10 40 -5 0 -10 9 -10 20 0 11 -4 20 -10 20 -5 0 -10 13
-10 28 0 16 -8 34 -20 42 -11 8 -20 22 -20 32 0 10 -4 18 -10 18 -5 0 -10 7
-10 15 0 22 -52 73 -58 57 -2 -7 -12 -12 -23 -12 -10 0 -19 -4 -19 -10 0 -5
-9 -10 -20 -10 -39 0 -24 -47 31 -101 45 -44 49 -51 35 -64 -8 -8 -22 -15 -30
-15 -9 0 -16 -8 -16 -20 0 -11 -7 -20 -15 -20 -17 0 -145 -124 -145 -141 0
-14 -25 -39 -40 -39 -6 0 -38 -27 -70 -60 -35 -35 -67 -60 -80 -60 -24 0 -110
82 -110 105 0 11 -11 15 -40 15 -22 0 -40 -4 -40 -10 0 -5 -13 -10 -30 -10
-16 0 -30 -4 -30 -10 0 -5 -9 -10 -20 -10 -11 0 -20 -4 -20 -10 0 -5 -9 -10
-20 -10 -16 0 -20 7 -20 30 0 17 5 30 10 30 6 0 10 5 10 10 0 6 -13 10 -30 10
-16 0 -30 -4 -30 -10 0 -5 -13 -10 -30 -10 -23 0 -30 4 -30 20 0 17 7 20 40
20 33 0 40 3 40 20 0 11 -4 20 -10 20 -5 0 -10 23 -10 50 0 28 5 50 10 50 6 0
10 9 10 20 0 11 5 20 10 20 6 0 10 14 10 30 0 17 5 30 10 30 18 0 10 31 -15
55 -13 14 -36 25 -50 25 -14 0 -25 5 -25 10 0 6 -9 10 -20 10 -11 0 -20 5 -20
10 0 6 -7 10 -16 10 -9 0 -29 14 -44 30 -15 17 -35 30 -44 30 -11 0 -16 -9
-16 -30 0 -16 -4 -30 -10 -30 -5 0 -10 -7 -10 -15 0 -20 -65 -85 -85 -85 -8 0
-15 -4 -15 -10 0 -5 -13 -10 -30 -10 -27 0 -30 -3 -30 -30 0 -16 5 -30 10 -30
6 0 10 -9 10 -20 0 -11 5 -20 10 -20 6 0 10 -7 10 -15 0 -20 125 -145 145
-145 8 0 15 -4 15 -10 0 -5 14 -10 30 -10 17 0 30 -4 30 -10 0 -5 -4 -10 -10
-10 -5 0 -10 -13 -10 -30 0 -16 -4 -30 -10 -30 -6 0 -10 -29 -10 -66 0 -43 -5
-70 -14 -80 -20 -19 -26 -18 -26 6 0 17 -7 20 -40 20 l-40 0 0 -86 c0 -113
-14 -131 -65 -80 -39 40 -45 74 -15 96 27 20 25 56 -5 85 -41 42 -95 26 -95
-29 0 -14 -3 -26 -6 -26 -11 0 -34 29 -34 42 0 8 -9 20 -20 28 -21 15 -28 50
-10 50 6 0 10 9 10 20 0 11 5 20 10 20 6 0 10 7 10 16 0 22 32 53 38 36 2 -6
11 -12 21 -12 9 0 23 -9 31 -20 23 -32 30 -24 30 40 0 33 4 60 10 60 6 0 10
30 10 70 0 40 -4 70 -10 70 -5 0 -10 7 -10 16 0 18 -23 44 -40 44 -6 0 -29
-19 -51 -41 l-40 -41 -18 21 c-15 17 -30 21 -75 21 -31 0 -56 -4 -56 -10 0 -5
-7 -10 -16 -10 -8 0 -22 -6 -30 -14 -17 -18 -19 -82 -1 -90 10 -5 10 -7 0 -12
-7 -3 -13 -14 -13 -25 0 -10 -4 -19 -10 -19 -5 0 -10 14 -10 30 0 17 -4 30
-10 30 -5 0 -10 9 -10 20 0 11 -4 20 -10 20 -5 0 -10 9 -10 20 0 11 -4 20 -10
20 -5 0 -10 9 -10 20 0 11 -4 20 -10 20 -5 0 -10 14 -10 30 0 17 -4 30 -10 30
-5 0 -10 18 -10 40 0 22 5 40 10 40 6 0 10 -4 10 -10 0 -5 5 -10 10 -10 6 0
10 9 10 20 0 11 5 20 10 20 6 0 10 5 10 10 0 6 -18 10 -40 10 -22 0 -40 5 -40
10 0 6 -7 10 -16 10 -8 0 -37 23 -64 50 -27 28 -56 50 -64 50 -9 0 -16 5 -16
10 0 6 -13 10 -30 10 -23 0 -30 -4 -30 -20 0 -11 5 -20 10 -20 14 0 12 -37 -2
-43 -10 -4 -9 -8 2 -17 11 -9 12 -13 3 -17 -9 -3 -13 -33 -13 -102 0 -85 2
-98 20 -111 24 -17 26 -36 6 -56 -17 -16 -146 -20 -146 -4 0 6 -9 10 -20 10
-13 0 -20 7 -20 20 0 12 -7 20 -16 20 -9 0 -29 14 -44 30 -15 17 -31 30 -34
30 -12 0 -6 -158 7 -164 10 -5 10 -7 0 -12 -7 -3 -13 -14 -13 -25 0 -16 -7
-19 -50 -19 -27 0 -50 5 -50 10 0 6 -7 10 -15 10 -18 0 -85 64 -85 81 0 6 -13
24 -30 39 -25 23 -30 36 -30 74 0 25 -4 46 -10 46 -5 0 -10 9 -10 20 0 11 -4
20 -10 20 -5 0 -10 14 -10 30 0 17 -4 30 -10 30 -5 0 -10 14 -10 30 0 20 -5
30 -15 30 -17 0 -125 104 -125 120 0 6 -20 31 -45 55 -43 44 -46 45 -107 45
-42 -1 -67 -6 -75 -15z"/>
<path d="M4080 4510 c-14 -16 -31 -30 -38 -30 -7 0 -24 -11 -37 -25 -21 -20
-25 -34 -25 -80 0 -48 2 -55 20 -55 13 0 20 -7 20 -20 0 -17 7 -20 40 -20 22
0 40 5 40 10 0 6 9 10 19 10 11 0 21 6 24 13 3 8 11 5 24 -10 11 -13 23 -23
27 -23 3 0 6 45 6 100 0 60 4 100 10 100 6 0 10 9 10 20 0 16 -7 20 -30 20
-16 0 -30 5 -30 10 0 23 -56 9 -80 -20z"/>
<path d="M3232 4444 c-11 -12 -9 -19 17 -43 17 -16 31 -39 31 -51 0 -12 7 -29
16 -37 13 -14 17 -14 26 -2 7 11 11 11 15 2 6 -15 63 -18 63 -3 0 6 9 10 20
10 15 0 20 7 20 28 0 16 -8 34 -20 42 -11 8 -20 22 -20 32 0 13 -8 18 -29 18
-16 0 -32 6 -34 13 -4 9 -8 8 -17 -3 -9 -11 -13 -12 -17 -2 -7 17 -55 15 -71
-4z"/>
<path d="M6633 4125 c-29 -30 -33 -41 -33 -90 0 -30 5 -55 10 -55 6 0 10 -9
10 -20 0 -13 7 -20 20 -20 11 0 20 -4 20 -10 0 -5 13 -10 29 -10 16 0 32 -6
35 -12 5 -10 7 -10 12 0 3 6 14 12 25 12 10 0 19 5 19 10 0 6 9 10 20 10 13 0
20 7 20 20 0 11 5 20 10 20 6 0 10 9 10 20 0 11 5 20 10 20 6 0 10 18 10 40 0
38 -2 40 -30 40 -16 0 -30 5 -30 10 0 6 -9 10 -20 10 -11 0 -20 5 -20 10 0 6
-9 10 -20 10 -11 0 -20 5 -20 10 0 24 -56 7 -87 -25z"/>
<path d="M1060 4014 c0 -11 29 -34 44 -34 9 0 16 -4 16 -10 0 -5 9 -10 20 -10
11 0 20 -4 20 -10 0 -5 9 -10 20 -10 11 0 20 -4 20 -10 0 -5 9 -10 20 -10 11
0 20 -4 20 -10 0 -5 9 -10 20 -10 11 0 20 -4 20 -10 0 -5 9 -10 20 -10 11 0
20 -4 20 -10 0 -5 8 -10 18 -10 10 0 24 -9 32 -20 8 -11 22 -20 32 -20 10 0
18 -4 18 -10 0 -5 9 -10 20 -10 11 0 20 -4 20 -10 0 -5 9 -10 20 -10 11 0 20
-4 20 -10 0 -5 8 -10 18 -10 10 0 24 -9 32 -20 8 -11 22 -20 32 -20 10 0 18
-4 18 -10 0 -5 9 -10 20 -10 11 0 20 -4 20 -10 0 -5 9 -10 20 -10 11 0 20 -4
20 -10 0 -5 9 -10 20 -10 11 0 20 3 20 6 0 11 -29 34 -44 34 -9 0 -16 5 -16
10 0 6 -8 10 -18 10 -10 0 -24 9 -32 20 -8 11 -22 20 -32 20 -10 0 -18 5 -18
10 0 6 -9 10 -20 10 -11 0 -20 5 -20 10 0 6 -8 10 -18 10 -10 0 -24 9 -32 20
-8 11 -22 20 -32 20 -10 0 -18 5 -18 10 0 6 -9 10 -20 10 -11 0 -20 5 -20 10
0 6 -9 10 -20 10 -11 0 -20 5 -20 10 0 6 -9 10 -20 10 -11 0 -20 5 -20 10 0 6
-9 10 -20 10 -11 0 -20 5 -20 10 0 6 -9 10 -20 10 -11 0 -20 5 -20 10 0 6 -9
10 -20 10 -11 0 -20 5 -20 10 0 6 -9 10 -20 10 -11 0 -20 5 -20 10 0 6 -13 10
-30 10 -16 0 -30 5 -30 10 0 6 -4 10 -10 10 -5 0 -10 -3 -10 -6z"/>
<path d="M6120 3590 c0 -27 5 -50 10 -50 6 0 10 -12 10 -26 0 -17 14 -39 40
-64 22 -21 40 -46 40 -54 0 -9 3 -16 6 -16 11 0 34 29 34 44 0 9 5 16 10 16 6
0 10 14 10 30 0 17 5 30 10 30 6 0 10 11 10 25 0 33 -42 75 -75 75 -14 0 -25
5 -25 10 0 6 -13 10 -30 10 -16 0 -30 5 -30 10 0 6 -4 10 -10 10 -5 0 -10 -22
-10 -50z"/>
<path d="M6120 3213 c-16 -17 -20 -28 -12 -31 7 -2 12 -12 12 -23 0 -10 5 -19
10 -19 6 0 10 -7 10 -16 0 -25 26 -44 60 -44 34 0 60 19 60 44 0 9 5 16 10 16
6 0 10 14 10 30 0 27 -3 30 -30 30 -16 0 -30 5 -30 10 0 6 -13 10 -30 10 -16
0 -30 5 -30 10 0 16 -13 10 -40 -17z"/>
<path d="M6340 3170 c0 -5 -7 -10 -16 -10 -8 0 -22 -6 -30 -14 -16 -16 -19
-86 -4 -86 6 0 10 -9 10 -20 0 -13 7 -20 20 -20 11 0 20 -4 20 -10 0 -15 49
-12 66 4 8 8 14 31 14 50 0 20 5 36 10 36 6 0 10 9 10 20 0 13 -7 20 -20 20
-13 0 -20 7 -20 20 0 16 -7 20 -30 20 -16 0 -30 -4 -30 -10z"/>
<path d="M6460 2970 c0 -5 -9 -10 -20 -10 -18 0 -20 -7 -20 -55 0 -67 29 -105
80 -105 45 0 60 20 60 80 0 58 -15 80 -54 80 -14 0 -26 5 -26 10 0 6 -4 10
-10 10 -5 0 -10 -4 -10 -10z"/>
<path d="M7263 2935 c-17 -18 -23 -36 -23 -70 0 -25 5 -45 10 -45 6 0 10 -9
10 -20 0 -13 7 -20 20 -20 11 0 20 -4 20 -10 0 -5 14 -10 30 -10 17 0 30 5 30
10 0 6 9 10 20 10 18 0 20 7 20 60 0 33 -4 60 -10 60 -5 0 -10 9 -10 20 0 13
-7 20 -20 20 -11 0 -20 5 -20 10 0 19 -55 9 -77 -15z"/>
<path d="M6433 2745 c-7 -8 -13 -21 -13 -30 0 -8 -4 -15 -10 -15 -5 0 -10 -9
-10 -20 0 -11 -4 -20 -10 -20 -20 0 -9 -33 20 -60 38 -35 39 -60 4 -60 -29 0
-54 -21 -54 -44 0 -9 -4 -16 -10 -16 -5 0 -10 -9 -10 -20 0 -11 5 -20 10 -20
6 0 10 -13 10 -30 0 -16 5 -30 10 -30 6 0 10 -7 10 -15 0 -29 67 -85 100 -85
38 0 80 39 80 75 0 14 5 25 10 25 6 0 10 14 10 30 0 17 5 30 10 30 6 0 10 9
10 20 0 12 7 20 16 20 8 0 22 6 30 14 16 17 19 66 4 66 -5 0 -10 23 -10 50 0
28 -4 50 -10 50 -5 0 -10 12 -10 26 0 33 -21 54 -54 54 -14 0 -26 5 -26 10 0
16 -93 11 -107 -5z"/>
<path d="M860 2550 c0 -5 -13 -10 -30 -10 -30 0 -40 -14 -17 -24 10 -5 10 -7
0 -12 -7 -3 -13 -13 -13 -23 0 -9 -9 -23 -20 -31 -21 -15 -28 -50 -10 -50 6 0
10 -9 10 -20 0 -11 5 -20 10 -20 6 0 10 5 10 10 0 6 9 10 20 10 11 0 20 5 20
10 0 6 9 10 20 10 11 0 20 5 20 10 0 6 7 10 15 10 21 0 93 72 77 78 -7 2 -12
12 -12 23 0 16 -7 19 -40 19 -22 0 -40 5 -40 10 0 6 -4 10 -10 10 -5 0 -10 -4
-10 -10z"/>
<path d="M6100 2540 c0 -17 -7 -20 -40 -20 l-40 0 0 -50 c0 -49 1 -50 30 -50
17 0 30 -4 30 -10 0 -5 9 -10 20 -10 11 0 20 -4 20 -10 0 -5 9 -10 20 -10 11
0 20 5 20 10 0 6 7 10 15 10 20 0 65 45 65 65 0 11 -12 15 -50 15 -27 0 -50 5
-50 10 0 6 5 10 10 10 6 0 10 14 10 30 0 27 -3 30 -30 30 -23 0 -30 -4 -30
-20z"/>
<path d="M2080 1930 c0 -5 -22 -10 -50 -10 -43 0 -50 -3 -50 -20 0 -11 -4 -20
-10 -20 -5 0 -10 -7 -10 -15 0 -20 -45 -65 -65 -65 -8 0 -15 -4 -15 -10 0 -5
-9 -10 -20 -10 -11 0 -20 -4 -20 -10 0 -5 -9 -10 -20 -10 -11 0 -20 -4 -20
-10 0 -5 -9 -10 -20 -10 -11 0 -20 -4 -20 -10 0 -5 -13 -10 -28 -10 -16 0 -34
-8 -42 -20 -8 -11 -20 -20 -28 -20 -13 0 -42 -23 -42 -34 0 -3 9 -6 20 -6 11
0 20 5 20 10 0 6 9 10 20 10 11 0 20 5 20 10 0 6 9 10 20 10 11 0 20 5 20 10
0 6 25 10 56 10 54 0 84 14 84 40 0 15 46 60 62 60 8 0 20 9 28 20 8 11 26 20
40 20 14 0 32 9 40 20 8 11 22 20 32 20 13 0 18 8 18 30 0 17 -4 30 -10 30 -5
0 -10 -4 -10 -10z"/>
<path d="M3312 1765 c-11 -13 -9 -19 12 -40 19 -19 35 -25 71 -25 43 0 45 -1
45 -29 0 -16 6 -32 13 -35 10 -5 10 -7 0 -12 -23 -10 -13 -24 17 -24 17 0 30
5 30 10 0 6 7 10 16 10 26 0 44 26 44 64 l0 36 -60 0 c-53 0 -60 2 -60 20 0
13 -7 20 -20 20 -11 0 -20 5 -20 10 0 16 -73 11 -88 -5z"/>
<path d="M2780 1590 c0 -5 -11 -10 -25 -10 -41 0 -75 -42 -75 -90 0 -35 6 -47
40 -80 22 -21 40 -46 40 -54 0 -9 5 -16 10 -16 6 0 10 -16 10 -35 0 -25 8 -44
25 -60 22 -23 32 -25 110 -25 50 0 85 4 85 10 0 6 14 10 30 10 17 0 30 5 30
10 0 6 5 10 10 10 6 0 10 -7 10 -15 0 -9 11 -27 25 -40 40 -41 115 -28 115 19
0 9 5 16 10 16 22 0 9 53 -20 80 -16 15 -30 33 -30 40 0 21 -28 40 -60 40 -23
0 -40 9 -60 30 -17 18 -38 30 -53 30 -14 0 -28 6 -31 13 -5 10 -7 10 -12 0 -3
-7 -14 -13 -25 -13 -17 0 -19 8 -19 70 l0 70 -70 0 c-40 0 -70 -4 -70 -10z"/>
<path d="M3480 1490 c0 -5 -7 -10 -16 -10 -22 0 -53 -32 -36 -38 6 -2 12 -12
12 -23 0 -10 5 -19 10 -19 6 0 10 -13 10 -30 0 -23 4 -30 20 -30 11 0 20 5 20
10 0 6 7 10 15 10 9 0 27 11 40 25 19 18 25 35 25 70 l0 45 -50 0 c-27 0 -50
-4 -50 -10z"/>
<path d="M6440 1480 c0 -11 5 -20 10 -20 6 0 10 -13 10 -30 0 -27 3 -30 30
-30 17 0 30 -4 30 -10 0 -5 17 -10 38 -10 26 0 42 -6 52 -20 8 -11 20 -20 28
-20 15 0 62 -45 62 -60 0 -10 145 -160 155 -160 3 0 5 7 5 15 0 9 -31 47 -70
85 -61 60 -70 74 -70 105 0 34 -1 35 -40 35 -22 0 -40 5 -40 10 0 6 -7 10 -16
10 -8 0 -37 23 -64 50 -27 28 -56 50 -64 50 -9 0 -16 5 -16 10 0 6 -9 10 -20
10 -13 0 -20 -7 -20 -20z"/>
<path d="M3660 1320 c0 -22 5 -40 10 -40 6 0 10 -7 10 -15 0 -9 16 -31 35 -50
31 -32 40 -35 90 -35 48 0 55 2 55 20 0 11 5 20 10 20 6 0 10 9 10 20 0 11 5
20 10 20 6 0 10 14 10 30 0 28 -2 30 -40 30 -22 0 -40 5 -40 10 0 6 -13 10
-30 10 -16 0 -30 -4 -30 -10 0 -5 -9 -10 -20 -10 -11 0 -20 -4 -20 -10 0 -5
-4 -10 -10 -10 -5 0 -10 7 -10 16 0 15 -23 44 -34 44 -3 0 -6 -18 -6 -40z"/>
<path d="M4640 1280 c0 -11 5 -20 10 -20 6 0 10 -9 10 -20 0 -11 5 -20 10 -20
6 0 10 -9 10 -20 0 -11 5 -20 10 -20 6 0 10 -8 10 -18 0 -10 9 -24 20 -32 11
-8 20 -21 20 -28 0 -8 14 -27 30 -42 17 -15 30 -33 30 -39 0 -17 70 -84 78
-76 4 4 1 10 -5 12 -7 3 -13 12 -13 22 0 9 -9 23 -20 31 -11 8 -20 22 -20 32
0 10 -4 18 -10 18 -5 0 -10 9 -10 20 0 11 -4 20 -10 20 -5 0 -10 9 -10 20 0
11 -4 20 -10 20 -5 0 -10 9 -10 20 0 11 -4 20 -10 20 -5 0 -10 7 -10 15 0 14
-82 105 -95 105 -3 0 -5 -9 -5 -20z"/>
<path d="M3403 1135 c-28 -30 -29 -46 -3 -65 15 -11 20 -26 20 -58 0 -50 17
-72 54 -72 25 0 26 2 26 59 0 38 -5 61 -12 65 -10 5 -10 7 0 12 6 3 12 19 12
35 0 16 5 29 10 29 6 0 10 5 10 10 0 6 -21 10 -47 9 -37 0 -53 -6 -70 -24z"/>
<path d="M2723 475 c-13 -13 -23 -35 -23 -49 0 -13 -6 -26 -12 -28 -17 -6 14
-38 36 -38 9 0 16 -4 16 -10 0 -5 14 -10 30 -10 17 0 30 5 30 10 0 6 9 10 20
10 17 0 20 7 20 40 0 22 -4 40 -10 40 -5 0 -10 7 -10 16 0 45 -61 57 -97 19z"/>
</g>
</svg>
