<?xml version="1.0" standalone="no"?>
<!DOCTYPE svg PUBLIC "-//W3C//DTD SVG 20010904//EN"
 "http://www.w3.org/TR/2001/REC-SVG-20010904/DTD/svg10.dtd">
<svg version="1.0" xmlns="http://www.w3.org/2000/svg"
 width="800.000000pt" height="800.000000pt" viewBox="0 0 800.000000 800.000000"
 preserveAspectRatio="xMidYMid meet">
<metadata>
Created by potrace 1.13, written by Peter Selinger 2001-2015
</metadata>
<g transform="translate(0.000000,800.000000) scale(0.100000,-0.100000)"
fill="#000000" stroke="none">
<path d="M3349 7871 c-55 -56 -27 -161 43 -161 42 0 98 57 98 100 0 40 -47 90
-85 90 -16 0 -38 -12 -56 -29z"/>
<path d="M4238 7393 c-36 -39 -40 -59 -23 -101 18 -42 30 -52 67 -52 40 0 57
10 73 41 23 43 18 77 -14 110 -37 36 -70 37 -103 2z"/>
<path d="M1400 7243 c0 -3 33 -58 74 -122 82 -129 173 -276 281 -456 40 -66
113 -187 164 -269 56 -93 91 -160 91 -177 0 -15 5 -31 10 -34 16 -10 12 -20
-18 -37 -18 -11 -33 -14 -42 -8 -11 7 -24 0 -47 -22 -28 -27 -33 -39 -33 -80
0 -44 3 -49 46 -83 73 -55 130 -42 117 27 -4 20 0 28 16 33 11 3 30 18 41 32
11 14 21 24 23 22 1 -2 33 -54 70 -115 50 -84 67 -121 67 -148 0 -36 35 -86
60 -86 5 0 10 -15 10 -33 0 -34 -35 -77 -73 -90 -24 -9 -64 13 -106 57 -19 20
-40 36 -46 36 -6 0 -24 14 -40 30 -31 32 -55 39 -55 15 0 -8 26 -34 57 -58 32
-23 80 -64 107 -91 45 -45 48 -51 43 -88 -3 -22 -17 -57 -31 -78 -37 -56 -72
-60 -383 -45 -114 5 -173 5 -173 -2 0 -23 56 -33 195 -33 l145 0 0 -34 c0 -19
11 -49 25 -70 20 -29 22 -38 11 -42 -8 -3 -17 -16 -20 -30 -4 -13 -13 -24 -22
-24 -8 0 -12 -4 -9 -10 3 -5 16 -10 29 -10 27 0 56 -29 56 -56 0 -26 -52 -82
-84 -90 -14 -3 -26 -11 -27 -18 -1 -6 -2 -20 -3 -31 0 -13 -9 -21 -23 -23 -22
-3 -33 -22 -13 -22 6 0 10 -11 10 -25 0 -20 5 -25 25 -25 36 0 31 -16 -12 -32
l-36 -15 26 -7 c16 -4 27 -13 27 -24 0 -9 7 -25 15 -36 12 -16 12 -23 -6 -58
-11 -22 -31 -43 -47 -49 -14 -6 -29 -14 -32 -19 -3 -6 -28 -2 -58 7 -28 9 -55
14 -58 10 -9 -9 15 -37 32 -37 8 0 14 -4 14 -10 0 -5 -9 -10 -19 -10 -26 0
-34 -15 -16 -30 18 -15 20 -13 -120 -120 -60 -46 -137 -106 -170 -132 -161
-131 -185 -146 -240 -150 -52 -3 -66 -17 -80 -78 -5 -23 -148 -144 -211 -178
-13 -7 -24 -17 -24 -22 0 -19 33 -10 64 18 18 15 47 38 66 52 19 14 48 37 66
53 38 32 54 34 77 7 24 -29 48 -25 101 15 50 39 58 65 26 92 -29 26 -25 39 20
59 22 10 40 21 40 26 0 8 116 102 308 248 l123 94 57 -12 c140 -29 222 -25
165 7 -10 5 -15 13 -11 16 4 4 27 -7 52 -23 28 -19 48 -27 52 -20 11 18 134 2
157 -21 18 -18 19 -21 4 -27 -9 -3 -26 1 -39 10 -74 52 -154 -47 -101 -124 23
-34 33 -40 71 -40 23 0 40 8 58 27 l25 27 24 -29 c19 -23 23 -37 19 -60 -8
-39 -42 -95 -58 -95 -15 0 -40 27 -50 54 -4 13 -13 17 -31 14 -22 -5 -25 -2
-25 23 0 16 -4 29 -10 29 -5 0 -10 -4 -10 -8 0 -5 -9 -18 -21 -31 -19 -20 -22
-21 -38 -7 -32 29 -84 12 -92 -29 -2 -10 -15 -22 -29 -25 -29 -7 -35 -43 -8
-48 12 -2 22 6 30 25 16 38 16 37 33 23 8 -7 15 -25 15 -41 0 -15 5 -39 12
-53 9 -21 8 -33 -6 -64 -12 -26 -15 -50 -11 -73 9 -46 -8 -85 -39 -93 -35 -9
-39 -6 -42 34 -2 19 -6 47 -9 61 -5 21 -2 28 14 32 12 3 24 13 28 22 8 22 -32
54 -58 48 -15 -4 -19 0 -19 21 0 17 -7 29 -17 32 -10 3 -29 12 -43 19 -30 16
-151 5 -175 -15 -8 -6 -23 -9 -33 -6 -14 5 -22 -1 -32 -21 -7 -16 -12 -34 -11
-41 1 -8 -11 -5 -35 9 -25 13 -40 17 -47 10 -7 -7 -1 -14 16 -22 30 -14 35
-40 12 -59 -13 -11 -20 -9 -38 9 -31 28 -81 28 -101 -1 -21 -30 -20 -56 4 -95
18 -31 24 -33 73 -33 29 0 58 -5 65 -12 19 -19 14 -62 -13 -115 -43 -82 -8
-113 55 -48 33 34 63 44 75 26 3 -6 6 -40 7 -76 2 -64 1 -68 -30 -93 -36 -30
-40 -47 -15 -75 17 -18 17 -19 -27 -13 -47 7 -65 -2 -86 -39 -6 -11 -21 -21
-32 -23 -23 -3 -62 -46 -62 -67 0 -19 32 -42 78 -56 55 -16 70 -33 49 -57 -16
-17 -15 -21 3 -57 11 -22 20 -49 20 -60 0 -31 5 -33 58 -24 41 6 51 4 80 -18
18 -13 42 -25 55 -27 12 -1 35 -8 50 -14 16 -7 36 -12 46 -12 10 0 24 -7 31
-15 10 -12 7 -23 -14 -60 -15 -25 -31 -45 -36 -45 -6 0 -10 -9 -10 -20 0 -25
-45 -99 -65 -107 -21 -7 -8 -23 19 -23 29 0 36 -21 36 -111 0 -69 -15 -100
-37 -78 -8 8 -13 8 -17 0 -10 -15 3 -33 19 -27 17 6 29 -24 16 -37 -7 -7 -18
-7 -35 1 -21 9 -23 8 -19 -8 6 -22 -21 -33 -79 -32 -27 1 -38 -4 -38 -14 0 -9
11 -14 31 -14 26 0 29 -3 25 -20 -3 -11 -9 -29 -12 -40 -3 -11 -10 -20 -15
-20 -5 0 -9 -7 -9 -15 0 -8 -8 -15 -19 -15 -29 0 -66 -77 -57 -122 3 -20 13
-41 21 -48 8 -7 15 -21 15 -31 0 -21 11 -24 27 -8 13 13 98 8 98 -6 0 -5 -16
-16 -35 -23 -33 -11 -31 -12 29 -6 l64 6 -7 -32 c-4 -24 -1 -38 11 -52 11 -12
17 -34 17 -59 -1 -35 1 -39 18 -33 24 7 48 -12 48 -38 0 -15 5 -18 20 -13 16
5 20 2 20 -19 0 -19 5 -26 19 -26 11 0 23 5 26 10 11 17 35 11 43 -11 7 -18
10 -19 21 -5 9 10 22 13 43 9 23 -5 34 -2 44 12 7 9 20 15 28 12 10 -4 16 1
18 16 2 13 11 23 23 25 11 2 27 6 35 9 20 8 27 10 44 12 23 2 26 28 5 54 -10
14 -19 30 -19 36 0 16 58 43 65 30 4 -6 4 -13 1 -16 -6 -7 12 -33 24 -33 4 0
12 12 19 27 9 19 15 23 23 15 8 -8 7 -19 -2 -42 -25 -60 18 -52 50 10 11 22
24 40 29 40 12 0 38 -32 45 -57 8 -25 36 -32 36 -9 0 7 7 19 15 26 9 8 12 22
8 41 -5 28 5 38 21 22 4 -5 20 -8 34 -8 23 0 27 -5 30 -31 2 -19 -3 -36 -12
-44 -20 -16 -20 -31 -2 -56 15 -19 15 -19 30 1 15 20 15 20 32 -3 28 -40 73
-82 87 -82 15 0 44 -30 71 -73 18 -30 36 -28 36 3 0 26 37 58 81 70 20 6 42
17 49 25 10 12 15 12 33 0 19 -11 28 -11 61 0 21 7 44 11 51 9 7 -3 20 2 29
12 16 16 18 15 32 -5 17 -24 32 -26 69 -9 29 13 31 24 8 50 -14 16 -15 23 -5
38 17 27 15 85 -4 121 -16 32 -11 109 7 109 5 0 38 -29 73 -65 l64 -64 -4 -82
c-3 -74 -1 -83 19 -101 12 -11 40 -26 61 -33 69 -24 122 15 165 122 11 27 11
39 -4 77 -14 37 -15 49 -5 61 16 19 50 20 50 1 0 -18 56 -47 76 -39 7 3 14 18
14 34 0 17 8 34 22 43 21 15 24 14 43 -5 11 -11 35 -29 53 -40 36 -21 41 -38
13 -46 -26 -7 -91 -88 -102 -128 -6 -22 -22 -41 -44 -55 -36 -22 -45 -40 -22
-40 7 0 18 -14 24 -31 10 -26 10 -36 -2 -53 -25 -35 -19 -105 14 -155 23 -34
28 -51 24 -81 -4 -31 -1 -40 18 -54 31 -21 55 -20 79 4 11 11 27 20 36 20 9 0
29 10 46 21 l30 22 -7 -31 c-5 -26 -3 -31 12 -30 10 0 25 -2 33 -6 21 -9 76
27 92 61 9 20 21 28 38 28 22 0 25 -4 22 -30 -1 -16 -2 -49 -2 -73 1 -34 -3
-45 -17 -48 -10 -3 -24 -17 -30 -32 -13 -30 -14 -184 -1 -176 4 3 8 11 8 19 0
20 15 26 42 16 16 -6 34 -5 54 4 17 7 50 16 72 20 23 4 40 10 37 15 -3 4 -14
6 -25 3 -15 -4 -20 0 -20 15 0 28 -20 73 -41 94 -16 16 -16 20 4 62 25 54 60
65 56 18 -3 -43 0 -64 10 -58 5 3 7 14 4 24 -3 13 5 25 23 37 26 17 28 17 41
-1 17 -24 17 -31 -7 -56 -11 -12 -20 -29 -20 -39 0 -14 8 -16 43 -14 41 2 67
-8 67 -27 0 -5 -18 -27 -41 -49 -44 -43 -48 -72 -11 -77 16 -3 25 3 32 22 5
14 14 26 19 26 21 0 21 -21 -1 -50 -28 -38 -16 -63 30 -68 19 -2 36 -12 46
-27 11 -16 22 -22 36 -18 11 3 20 0 20 -6 0 -6 -9 -11 -19 -11 -21 0 -36 -26
-20 -35 16 -11 49 6 49 24 0 10 9 26 20 36 18 17 21 16 63 -4 24 -11 57 -21
74 -21 17 0 37 -8 47 -19 20 -23 58 -31 80 -19 22 12 33 -18 17 -44 -20 -32
-2 -35 24 -4 l25 29 24 -26 c24 -26 26 -56 3 -84 -15 -20 -78 -16 -102 7 -25
24 -51 18 -61 -13 -5 -15 0 -26 15 -38 29 -24 27 -57 -5 -69 -20 -8 -24 -15
-19 -30 4 -12 1 -28 -7 -37 -12 -15 -10 -16 20 -10 30 6 32 5 22 -13 -6 -11
-20 -20 -31 -20 -11 0 -23 -10 -28 -22 -5 -13 -18 -32 -30 -42 -11 -11 -21
-25 -21 -32 0 -19 -23 -23 -42 -7 -27 24 -41 6 -36 -49 5 -48 -7 -76 -18 -41
-19 59 -31 77 -58 94 -42 26 -76 24 -116 -6 -18 -13 -37 -22 -41 -19 -5 3 -9
-9 -9 -26 0 -17 -7 -42 -16 -56 -13 -19 -14 -28 -5 -37 6 -6 11 -18 11 -27 0
-9 15 -31 33 -48 32 -31 36 -32 75 -23 43 9 98 55 162 136 23 28 38 39 54 37
12 -2 30 6 41 18 10 11 22 20 27 20 16 0 8 -19 -19 -44 -15 -14 -24 -28 -20
-32 4 -4 18 3 31 15 30 28 42 13 20 -26 -16 -29 -12 -53 18 -95 10 -14 5 -26
-26 -73 -22 -34 -35 -63 -31 -73 5 -12 9 -10 21 13 29 57 56 95 66 95 5 0 17
-7 26 -16 15 -15 17 -15 30 5 19 28 40 27 54 -4 6 -14 15 -26 20 -26 4 -1 13
-2 18 -3 6 0 15 -8 20 -16 6 -10 7 -3 3 22 -3 21 -1 43 4 50 6 7 13 25 17 39
4 17 15 29 31 33 26 7 32 29 16 55 -11 18 4 51 23 51 27 0 55 45 62 100 4 30
11 60 16 67 7 8 0 17 -21 28 -17 8 -31 20 -31 25 0 16 60 79 81 85 24 8 77
-15 104 -45 23 -26 45 -26 45 0 0 17 5 19 25 14 19 -5 25 -2 25 10 0 9 8 16
20 16 11 0 20 5 20 11 0 6 6 17 13 24 36 41 37 44 28 91 -8 41 -7 47 10 51 27
7 24 21 -6 29 -14 3 -25 12 -25 19 0 7 -3 20 -6 29 -8 21 19 21 36 1 7 -8 17
-12 22 -9 5 3 15 -2 22 -11 11 -15 18 -16 47 -7 19 6 47 14 64 19 22 6 31 16
35 38 5 26 10 30 35 28 25 -2 27 0 13 8 -10 6 -18 22 -18 37 0 15 -7 50 -16
77 -9 28 -18 56 -20 63 -2 6 -15 12 -29 12 -18 0 -25 5 -25 20 0 15 -7 20 -25
20 -14 0 -27 6 -29 12 -22 83 -43 103 -75 74 -12 -11 -21 -32 -21 -47 0 -31
-43 -69 -79 -69 -27 0 -27 -14 1 -32 l21 -14 -24 -45 c-31 -57 -29 -55 -37
-43 -10 15 -42 28 -72 28 -22 1 -24 5 -22 39 3 34 1 37 -21 37 -30 0 -52 -24
-43 -47 7 -18 -9 -33 -36 -33 -11 0 -18 8 -18 20 0 11 -11 27 -25 36 -30 20
-33 44 -5 44 14 0 20 6 18 17 -2 12 4 18 17 18 15 0 20 7 21 25 1 51 38 69 62
30 7 -11 21 -20 32 -20 11 0 20 -4 20 -10 0 -18 18 -10 23 10 5 20 47 29 47
10 0 -5 7 -10 15 -10 9 0 19 17 26 45 8 33 16 45 30 45 19 0 23 8 19 48 -1 14
4 22 14 22 23 0 26 13 11 56 -8 25 -10 45 -4 56 12 22 0 78 -17 78 -7 0 -21
11 -30 25 -19 29 -14 47 32 103 l27 32 -37 0 c-22 0 -36 -5 -36 -13 0 -7 -15
-25 -32 -41 -30 -26 -37 -28 -89 -22 -48 5 -59 2 -74 -14 -10 -11 -22 -20 -27
-20 -6 0 -18 -10 -29 -23 -16 -19 -20 -20 -29 -7 -5 8 -10 34 -10 57 0 39 2
42 48 64 26 12 49 23 50 25 9 7 -11 44 -23 44 -8 0 -17 5 -20 11 -5 6 6 9 31
7 20 -2 39 2 41 8 2 5 -15 30 -37 55 -22 24 -40 52 -40 62 0 21 3 21 41 1 39
-20 59 -5 59 43 0 32 2 35 23 28 12 -4 42 -9 67 -10 59 -2 148 46 152 84 2 16
12 30 26 36 25 11 29 25 7 25 -20 0 -19 12 7 55 16 28 26 36 43 33 18 -4 21
-1 17 20 -4 19 4 32 34 58 35 29 38 35 27 53 -7 11 -13 25 -13 30 0 15 40 20
52 7 14 -15 58 1 58 21 0 6 8 14 18 17 9 3 22 16 27 28 6 14 20 24 38 26 15 2
27 9 27 18 0 14 4 23 34 81 9 17 16 38 16 47 0 8 8 19 17 25 13 7 14 13 6 23
-5 7 -13 32 -17 56 -6 39 -4 45 29 78 41 41 38 63 -5 37 -38 -22 -64 -4 -55
39 5 20 3 28 -7 28 -19 0 -65 50 -70 75 -2 14 -10 19 -24 17 -12 -1 -27 4 -34
13 -7 8 -21 15 -31 15 -19 0 -49 25 -49 41 0 5 6 9 13 9 10 0 14 18 15 66 0
47 5 71 18 85 16 17 16 21 -2 56 -29 61 -24 98 19 137 40 36 43 46 26 77 -7
13 -7 24 -1 32 6 7 12 23 14 36 2 18 12 27 36 33 18 5 32 15 32 23 0 26 66 19
93 -10 22 -25 25 -25 53 -10 19 9 29 23 29 37 0 15 8 24 25 28 28 7 35 36 8
34 -26 -2 -22 15 6 26 13 5 27 14 31 19 11 18 40 12 64 -13 34 -36 83 -42 137
-15 50 24 50 24 115 -43 30 -31 64 -35 93 -13 12 9 25 11 35 6 35 -18 102 -4
154 31 l27 19 20 -46 c19 -44 91 -125 111 -125 13 0 11 -74 -3 -105 -6 -14 -8
-28 -5 -32 12 -12 67 50 91 103 23 49 27 53 79 68 30 9 62 16 71 16 8 0 20 9
26 20 6 11 20 20 30 20 23 0 24 4 8 29 -10 16 -8 29 11 69 25 52 41 61 118 65
17 1 30 4 27 6 -2 2 10 19 26 38 21 23 30 44 30 67 0 22 6 36 16 40 31 12 0
129 -38 142 -33 11 -80 6 -98 -11 -9 -8 -21 -15 -26 -15 -13 0 -114 -96 -114
-109 0 -23 -38 -11 -44 14 -7 28 -36 34 -56 10 -7 -8 -20 -15 -29 -15 -9 0
-27 -7 -39 -16 -21 -15 -27 -15 -72 0 -79 26 -124 19 -85 -14 21 -18 19 -38
-10 -72 -14 -16 -25 -36 -25 -45 0 -11 -6 -13 -22 -8 -13 4 -44 10 -70 12 -47
5 -48 6 -48 39 0 31 -3 34 -29 34 -17 0 -33 -4 -36 -10 -6 -10 12 -51 28 -62
6 -3 -2 -17 -19 -31 -22 -20 -32 -23 -43 -14 -7 6 -23 17 -35 24 -58 34 -67
37 -94 27 -24 -8 -31 -6 -61 23 -27 26 -42 33 -75 33 -37 0 -48 6 -91 50 -30
30 -58 50 -72 50 -12 0 -25 5 -28 11 -11 17 27 39 57 33 17 -3 37 1 54 13 27
17 28 17 21 0 -18 -48 -18 -63 2 -81 12 -11 21 -25 21 -32 0 -7 9 -18 19 -23
26 -14 45 10 38 48 -5 25 -3 28 13 24 51 -13 116 37 130 101 7 32 12 34 67 22
27 -6 36 -3 66 27 61 61 54 153 -15 195 -23 14 -33 15 -60 4 -17 -6 -34 -10
-36 -7 -2 2 3 25 12 51 8 25 13 50 11 55 -3 4 2 12 11 17 11 6 13 11 5 16 -6
4 -11 17 -11 30 0 12 -5 27 -10 32 -8 8 -8 25 -1 55 9 41 8 46 -15 68 -18 17
-23 26 -15 34 20 20 11 32 -23 34 -26 1 -35 -3 -39 -18 -6 -23 -35 -25 -43 -4
-4 8 1 26 10 40 20 30 21 41 1 22 -10 -11 -32 -14 -72 -13 -55 3 -86 16 -158
70 -9 6 -24 -2 -48 -26 -19 -20 -49 -42 -65 -49 -17 -7 -29 -16 -26 -20 6 -10
-26 -89 -36 -89 -5 0 -12 -9 -15 -20 -8 -25 -25 -26 -25 -1 0 10 -7 24 -16 32
-10 8 -13 21 -9 36 4 16 1 23 -9 23 -7 0 -16 -9 -19 -21 -4 -16 -12 -20 -39
-17 -25 2 -32 0 -29 -12 11 -46 9 -101 -5 -107 -8 -3 -14 -13 -14 -24 0 -10
-10 -23 -21 -30 -12 -6 -35 -26 -51 -45 -27 -31 -33 -33 -47 -20 -10 8 -28 12
-48 9 -35 -6 -43 6 -19 26 10 8 16 9 21 1 13 -21 24 -10 15 16 -19 49 -14 56
31 49 44 -8 73 9 89 51 8 20 -4 71 -24 102 -8 14 -54 13 -88 -3 -15 -6 -18 -2
-18 30 0 43 -40 105 -68 105 -9 0 -28 12 -42 26 l-24 26 34 62 c18 33 39 67
46 74 10 10 10 18 0 44 -12 27 -11 38 3 76 15 41 15 44 -2 56 -26 20 -21 32
26 58 31 18 42 30 42 48 1 14 9 43 20 65 10 22 20 63 21 90 2 28 6 62 10 77 8
36 -28 111 -61 126 -42 19 -32 50 40 117 55 51 65 66 65 94 0 38 24 94 57 134
34 42 33 118 -3 146 -15 12 -36 21 -48 21 -27 0 -66 -27 -66 -45 0 -15 -51
-61 -78 -69 -9 -3 -32 -31 -50 -61 -26 -42 -39 -55 -57 -55 -35 0 -59 -43 -65
-114 l-5 -60 -42 -9 c-53 -10 -63 -24 -66 -89 l-2 -53 -55 -18 c-30 -10 -58
-24 -62 -30 -4 -6 -10 -8 -14 -4 -16 16 29 47 68 47 31 0 40 5 48 23 10 26
-19 57 -54 57 -29 0 -46 18 -46 49 0 30 28 110 47 132 19 22 16 49 -5 49 -23
0 -51 38 -87 117 -26 60 -58 93 -89 93 -8 0 -16 -6 -19 -12 -6 -18 -41 3 -45
28 -6 30 -19 39 -38 24 -14 -12 -17 -12 -25 3 -7 12 -18 15 -39 10 -28 -5 -63
4 -118 30 -16 8 -26 7 -34 -1 -10 -10 -6 -18 17 -36 39 -32 23 -54 -39 -52
-47 1 -76 19 -76 46 0 11 -10 20 -28 23 -42 9 -53 50 -40 153 9 62 9 87 1 95
-16 16 -40 4 -61 -31 l-19 -30 -20 23 c-42 45 -77 62 -138 67 -53 4 -60 8 -63
27 -2 15 -13 25 -30 30 -15 3 -40 17 -55 30 -33 26 -82 30 -111 8 -27 -20 -33
-19 -59 11 -20 23 -28 57 -25 109 3 73 0 89 -21 107 -30 24 -60 22 -92 -5 -32
-27 -41 -59 -26 -100 14 -42 36 -58 68 -51 34 6 46 -27 19 -51 -16 -15 -19
-14 -37 11 -18 25 -20 25 -36 9 -22 -22 -50 -16 -57 13 -6 29 -23 30 -30 1 -3
-12 -12 -25 -20 -29 -8 -4 -38 -20 -66 -34 -62 -31 -64 -31 -64 -7 0 24 -23
43 -44 35 -9 -3 -22 -2 -29 4 -6 5 -29 15 -49 21 -21 7 -38 17 -38 23 0 6 -10
8 -25 4 -14 -4 -34 -2 -45 4 -16 8 -20 8 -20 -4 0 -8 -9 -18 -21 -21 -24 -8
-63 -44 -65 -62 -1 -6 -9 -21 -17 -33 -11 -16 -12 -31 -6 -67 5 -25 11 -49 14
-51 3 -3 -2 -14 -12 -24 -15 -17 -15 -18 10 -18 21 0 27 -5 27 -23 0 -13 6
-29 13 -36 10 -11 9 -13 -5 -8 -14 5 -18 1 -18 -18 0 -29 -27 -46 -55 -35 -29
11 -44 2 -60 -37 -13 -31 -18 -34 -42 -28 -16 3 -38 16 -50 27 -20 19 -23 19
-29 4 -3 -9 -4 -25 -1 -35 2 -11 -3 -26 -15 -35 -15 -13 -17 -24 -12 -53 6
-33 5 -35 -12 -28 -42 17 -54 17 -60 1 -4 -10 1 -25 12 -37 27 -30 9 -73 -34
-77 -29 -3 -32 -1 -32 22 0 19 -5 26 -19 26 -11 0 -23 -4 -26 -10 -3 -5 -17
-10 -31 -10 -28 0 -39 -19 -30 -54 7 -30 29 -39 60 -25 32 15 79 -7 54 -25 -8
-6 -22 -26 -32 -43 -21 -42 -33 -42 -52 2 -10 24 -19 33 -27 28 -7 -4 -16 -8
-22 -9 -27 -5 -65 -25 -65 -34 0 -21 -29 -9 -42 18 -24 51 -98 34 -98 -22 0
-13 7 -29 15 -36 23 -19 18 -38 -12 -42 -18 -2 -27 -8 -25 -17 2 -8 0 -21 -3
-29 -4 -11 -8 -12 -20 -2 -19 16 -19 44 0 60 21 17 19 27 -6 26 -13 -1 -36 16
-61 46 -35 41 -38 49 -28 68 17 31 -3 49 -23 20 -11 -16 -21 -19 -41 -14 -30
7 -56 -9 -56 -35 0 -10 13 -38 30 -64 33 -52 23 -74 -15 -33 -13 14 -35 26
-48 26 -28 0 -11 -23 -259 375 -233 373 -335 539 -564 914 -43 70 -63 91 -86
91 -10 0 -18 -3 -18 -7z m3867 -1637 c24 -8 63 -56 63 -78 0 -21 -39 -54 -82
-69 -21 -7 -40 -21 -44 -31 -10 -32 -34 -50 -50 -37 -21 17 -17 55 8 71 12 8
18 19 14 26 -11 19 -32 14 -64 -13 -32 -27 -57 -32 -68 -14 -7 13 124 149 144
149 7 0 15 7 19 15 5 14 8 14 22 2 9 -8 26 -18 38 -21z m-2330 -3132 c3 -8 1
-20 -6 -27 -18 -18 -13 -27 15 -27 19 0 25 -4 20 -15 -3 -8 2 -21 10 -30 22
-22 12 -40 -24 -43 -37 -3 -56 19 -50 57 7 51 -53 47 -72 -5 -13 -34 -31 -30
-24 5 4 16 1 32 -5 35 -18 12 -12 46 9 54 11 4 43 8 70 9 38 2 52 -1 57 -13z
m2200 -1575 c8 -8 8 -20 3 -35 -11 -29 13 -58 41 -49 14 5 21 0 28 -17 14 -39
-29 -117 -66 -118 -17 0 -17 27 -1 32 14 5 -15 58 -32 58 -6 0 -10 9 -10 20 0
11 -7 23 -15 26 -13 5 -13 37 1 82 4 15 36 16 51 1z"/>
<path d="M4935 6884 c-42 -38 -41 -37 -140 -19 l-30 6 25 -18 c89 -65 95 -81
53 -125 l-27 -28 20 -37 c15 -28 26 -38 44 -38 23 0 25 -3 22 -43 -3 -46 18
-87 48 -97 39 -12 104 43 131 112 12 30 15 27 33 -31 5 -14 12 -17 34 -11 15
4 44 8 64 9 32 1 41 7 68 48 29 43 30 50 21 86 -16 59 -44 89 -88 94 -21 3
-46 1 -55 -4 -14 -6 -21 -2 -33 21 -8 17 -15 37 -15 46 0 9 -4 14 -9 10 -5 -3
-17 3 -27 12 -9 10 -27 16 -39 15 -13 -2 -25 3 -28 12 -9 24 -28 19 -72 -20z"/>
<path d="M3175 6734 c-49 -53 -24 -134 41 -134 31 0 64 45 64 86 0 28 -6 38
-32 54 -42 25 -44 25 -73 -6z"/>
<path d="M2737 6563 c-2 -4 -8 -72 -12 -150 -7 -137 -6 -142 14 -155 19 -11
20 -19 15 -73 -5 -48 -3 -63 9 -74 42 -34 102 24 78 75 -6 13 -23 30 -38 36
-16 7 -32 17 -36 23 -4 5 -5 76 -2 156 5 121 4 148 -9 158 -8 6 -16 8 -19 4z"/>
<path d="M1291 6249 c-19 -6 -35 -18 -38 -30 -3 -10 -10 -19 -15 -19 -14 0
-38 -65 -38 -102 0 -24 10 -45 38 -76 34 -38 44 -44 88 -46 56 -4 107 19 138
61 23 31 32 98 17 135 -23 61 -117 99 -190 77z"/>
<path d="M1030 5326 c-88 -13 -100 -19 -100 -51 0 -40 31 -49 124 -36 49 7 99
8 126 3 25 -4 76 -4 115 1 55 7 79 6 115 -6 44 -16 201 -47 233 -47 40 0 11
21 -60 43 -77 24 -98 39 -68 51 16 6 325 -21 333 -29 3 -2 -1 -12 -8 -20 -19
-22 1 -39 25 -22 28 21 2 74 -45 88 -110 33 -633 50 -790 25z"/>
<path d="M6623 5062 c-42 -43 -53 -70 -53 -125 0 -56 18 -89 60 -108 59 -28
138 7 172 78 14 29 15 44 7 86 -13 69 -40 95 -103 100 -45 4 -51 2 -83 -31z"/>
<path d="M7805 4833 c-11 -2 -27 -7 -35 -10 -8 -3 -24 -8 -35 -10 -11 -2 -21
-8 -23 -13 -2 -5 -15 -26 -29 -47 -23 -34 -25 -44 -20 -107 2 -39 10 -72 16
-74 6 -2 11 -9 11 -16 0 -22 33 -44 70 -47 47 -4 114 28 136 65 36 59 43 101
28 153 -8 27 -20 55 -27 63 -12 15 -63 51 -69 49 -2 -1 -12 -3 -23 -6z"/>
<path d="M7625 4017 l-40 -23 0 -83 c0 -70 3 -85 20 -97 26 -19 48 -18 79 7
31 24 35 72 10 107 -13 19 -14 28 -4 52 13 33 8 60 -12 60 -7 0 -31 -11 -53
-23z"/>
<path d="M7381 3810 c-38 -9 -47 -19 -62 -74 -16 -60 -3 -108 41 -151 38 -37
39 -38 84 -26 72 18 153 57 165 79 6 11 12 43 13 71 2 43 -2 55 -23 76 -21 22
-36 26 -104 29 -44 2 -95 0 -114 -4z"/>
<path d="M1265 3553 c-49 -6 -87 -43 -92 -95 -4 -32 0 -42 29 -68 41 -38 72
-46 113 -31 17 6 38 11 47 11 20 0 48 42 48 71 0 12 -10 37 -21 56 -18 29 -20
37 -8 44 9 6 3 7 -17 3 -19 -4 -34 -1 -38 5 -4 6 -10 10 -14 9 -4 -1 -25 -3
-47 -5z"/>
<path d="M1245 3324 c-13 -10 -31 -13 -50 -9 -22 4 -33 1 -45 -15 -8 -11 -38
-26 -66 -33 -47 -12 -53 -12 -74 5 -12 10 -34 18 -49 18 -38 0 -97 -56 -115
-110 -16 -50 -12 -49 -126 -30 -111 19 -111 19 -134 -25 -14 -26 -29 -41 -44
-43 -30 -5 -28 -18 13 -63 19 -22 35 -45 35 -52 0 -8 11 -24 25 -37 19 -18 22
-26 13 -37 -19 -23 6 -40 35 -24 20 11 28 10 46 -1 18 -11 21 -19 15 -43 -11
-50 -10 -80 4 -79 6 1 30 2 53 3 46 1 45 21 -2 21 -38 0 -38 19 2 77 26 37 35
44 55 39 16 -4 30 0 43 13 17 17 19 29 14 73 -5 47 -13 67 -48 114 -18 25 8
38 47 24 29 -11 39 -10 66 4 44 23 47 21 47 -26 0 -41 2 -43 31 -46 54 -5 84
47 48 82 -8 9 -27 16 -40 16 -18 0 -25 5 -22 17 2 13 16 17 63 18 54 1 63 -2
85 -26 21 -23 35 -28 88 -31 61 -4 64 -3 78 23 7 15 10 30 5 33 -5 3 -11 28
-13 56 -4 37 -11 55 -27 66 -11 8 -21 22 -21 30 0 18 -10 17 -35 -2z"/>
<path d="M1215 2917 c3 -26 0 -48 -9 -62 -18 -28 -8 -114 14 -125 8 -4 32 -15
53 -25 l38 -19 25 27 c14 15 36 27 49 27 20 0 25 5 25 24 0 14 5 28 10 31 6 3
10 19 10 35 0 16 -4 32 -10 35 -5 3 -10 14 -10 23 0 25 -76 60 -142 65 l-58 4
5 -40z"/>
<path d="M5915 2508 c-11 -6 -26 -20 -33 -30 -7 -10 -24 -18 -38 -18 -13 0
-24 -4 -24 -8 0 -5 -9 -18 -20 -30 -19 -20 -19 -24 -5 -45 17 -27 11 -57 -13
-57 -22 0 -70 -57 -76 -91 -4 -16 -9 -42 -12 -58 -3 -16 0 -32 5 -36 6 -3 11
-19 11 -36 0 -16 5 -29 10 -29 6 0 10 -8 10 -17 1 -20 23 -53 36 -53 4 0 20
-11 34 -25 34 -32 120 -42 164 -20 16 8 35 15 42 15 8 0 19 11 25 24 6 13 20
27 30 29 14 4 19 14 19 42 0 24 6 42 18 51 14 10 15 15 5 25 -7 7 -13 23 -13
35 0 13 -4 26 -10 29 -5 3 -10 16 -10 28 -1 33 -45 78 -92 93 -22 8 -23 18 -3
34 9 7 14 19 11 26 -8 20 14 74 30 74 8 0 14 5 14 11 0 6 -6 9 -12 6 -7 -2
-26 7 -41 19 -32 27 -35 28 -62 12z"/>
<path d="M1362 2087 c-29 -31 -29 -77 1 -105 13 -12 33 -22 44 -22 57 0 94 89
54 129 -28 28 -72 27 -99 -2z"/>
<path d="M1560 1832 c0 -7 -9 -12 -19 -12 -27 0 -90 -42 -91 -60 0 -8 -7 -24
-15 -34 -8 -11 -15 -30 -15 -43 0 -18 -9 -28 -35 -39 -37 -15 -60 -43 -70 -86
-16 -65 32 -128 97 -128 31 0 42 6 64 36 24 31 32 35 60 31 17 -3 36 -1 42 5
6 6 15 3 25 -12 l15 -21 6 26 c4 14 12 25 19 25 14 0 39 27 57 60 6 11 17 55
24 96 13 72 12 75 -8 89 -11 8 -28 15 -38 15 -10 0 -27 9 -38 20 -11 11 -28
20 -38 20 -10 0 -23 5 -30 12 -9 9 -12 9 -12 0z"/>
<path d="M690 1670 c-43 -43 -13 -130 45 -130 35 0 75 42 75 79 0 58 -79 92
-120 51z"/>
<path d="M3531 1475 c-32 -36 -36 -51 -23 -71 11 -16 48 -34 71 -34 17 0 21
-6 21 -32 l0 -33 -25 28 c-29 30 -56 35 -75 11 -20 -23 -16 -72 6 -89 29 -22
44 -18 80 20 18 19 37 35 42 35 10 0 42 76 42 101 0 34 -27 69 -63 84 -20 8
-39 15 -41 15 -2 0 -18 -16 -35 -35z"/>
<path d="M5843 1422 c-28 -21 -45 -75 -34 -105 13 -34 47 -59 85 -63 28 -4 38
1 60 27 52 61 19 159 -53 159 -20 0 -46 -8 -58 -18z"/>
<path d="M1089 1294 c-6 -8 -19 -14 -29 -14 -19 0 -30 -27 -30 -77 0 -17 -7
-38 -15 -47 -20 -19 -19 -26 3 -26 9 0 26 -7 36 -15 11 -9 29 -12 39 -9 17 5
19 3 13 -19 -7 -28 16 -49 42 -40 14 6 16 39 2 48 -6 4 2 19 19 36 16 16 33
38 36 49 9 27 -21 72 -67 104 -31 21 -39 22 -49 10z"/>
<path d="M2160 1263 c-14 -3 -29 -9 -34 -14 -6 -5 -18 -9 -27 -9 -10 0 -25
-18 -39 -46 -28 -61 -20 -110 27 -167 55 -66 80 -67 143 -5 45 44 64 109 46
153 -13 31 -72 96 -84 94 -4 -1 -18 -4 -32 -6z"/>
<path d="M946 1065 c-9 -14 -26 -25 -37 -25 -14 0 -26 -12 -38 -40 -10 -22
-29 -49 -44 -60 -15 -12 -31 -38 -37 -58 -7 -27 -19 -41 -42 -52 -22 -10 -36
-25 -42 -47 -7 -21 -18 -34 -33 -38 -26 -6 -63 -59 -63 -88 0 -26 57 -77 85
-77 27 0 75 52 75 81 0 10 6 19 14 19 21 0 66 58 66 86 0 14 7 27 18 31 20 8
45 39 52 67 3 11 17 23 30 26 17 4 29 18 39 44 13 34 13 41 -4 68 -13 23 -15
32 -5 38 14 9 10 42 -6 47 -6 2 -19 -8 -28 -22z"/>
<path d="M4248 866 c-22 -16 -38 -59 -38 -101 0 -25 7 -38 27 -53 27 -19 27
-22 14 -57 -9 -27 -10 -40 -2 -48 6 -6 11 -18 11 -27 0 -8 9 -21 20 -28 11 -7
20 -21 20 -32 0 -17 6 -20 33 -18 18 1 38 -1 45 -6 6 -4 25 0 41 9 17 8 36 14
42 13 11 -3 22 19 35 70 2 6 10 12 19 12 9 0 30 16 48 35 18 20 42 35 54 35
29 0 39 33 19 62 -9 12 -16 34 -16 49 0 16 -12 40 -29 58 -39 41 -104 44 -149
6 -39 -32 -54 -32 -90 5 -33 32 -74 39 -104 16z"/>
<path d="M5626 444 c-14 -15 -26 -34 -27 -43 -3 -49 4 -78 26 -97 13 -12 25
-34 27 -48 4 -33 20 -36 33 -8 5 12 22 26 37 33 14 6 29 18 32 26 4 11 14 13
36 8 29 -6 42 6 21 20 -5 3 -15 22 -22 43 -22 69 -45 92 -93 92 -33 0 -49 -6
-70 -26z"/>
</g>
</svg>
