<?xml version="1.0" standalone="no"?>
<!DOCTYPE svg PUBLIC "-//W3C//DTD SVG 20010904//EN"
 "http://www.w3.org/TR/2001/REC-SVG-20010904/DTD/svg10.dtd">
<svg version="1.0" xmlns="http://www.w3.org/2000/svg"
 width="1000.000000pt" height="1000.000000pt" viewBox="0 0 1000.000000 1000.000000"
 preserveAspectRatio="xMidYMid meet">
<metadata>
Created by potrace 1.13, written by Peter Selinger 2001-2015
</metadata>
<g transform="translate(0.000000,1000.000000) scale(0.100000,-0.100000)"
fill="#000000" stroke="none">
<path d="M3587 8693 c-9 -2 -15 -8 -12 -13 3 -5 -4 -11 -15 -15 -11 -3 -20
-14 -20 -22 0 -9 -3 -14 -6 -10 -3 3 -13 -2 -23 -11 -13 -13 -14 -22 -6 -39 5
-13 14 -23 18 -23 5 0 5 -4 2 -10 -3 -5 -1 -10 5 -10 7 0 10 -7 6 -15 -3 -9 3
-19 15 -26 15 -8 18 -14 9 -24 -8 -9 -8 -14 0 -17 6 -2 12 -19 13 -38 2 -32
28 -70 49 -70 4 0 8 -7 8 -15 0 -15 10 -19 43 -16 9 1 17 -3 17 -10 0 -7 3
-10 6 -6 9 8 33 -16 26 -27 -3 -5 1 -5 9 0 8 5 24 10 37 12 16 2 22 -2 22 -17
0 -11 -6 -22 -12 -24 -10 -4 -10 -6 0 -6 7 -1 10 -6 7 -11 -3 -6 1 -13 9 -16
9 -3 14 -10 11 -14 -6 -10 15 -7 33 4 8 5 18 4 25 -3 11 -11 9 -12 -15 -15 -6
0 -13 -12 -15 -24 -2 -16 1 -22 9 -19 7 2 12 10 10 16 -1 6 2 11 8 11 9 0 14
-14 11 -33 0 -4 2 -6 6 -6 5 1 15 1 23 0 13 -1 13 -2 0 -11 -8 -5 -10 -10 -4
-10 6 0 10 -10 9 -22 -3 -33 6 -50 22 -44 8 3 11 1 8 -4 -3 -6 -1 -10 6 -10 7
0 9 -3 6 -6 -4 -4 3 -15 15 -26 12 -10 18 -21 15 -24 -10 -11 23 -36 38 -30 8
3 15 0 15 -6 0 -18 10 -3 15 22 2 12 2 20 -2 17 -8 -9 -33 19 -33 37 0 9 -7
16 -16 16 -8 0 -12 5 -9 10 3 6 1 10 -5 10 -6 0 -9 4 -6 8 3 5 -3 14 -13 21
-11 9 -16 22 -13 37 3 16 -1 26 -12 30 -9 3 -13 10 -10 15 3 5 1 9 -5 9 -5 0
-14 -7 -19 -16 -7 -13 -11 -14 -17 -4 -5 8 -2 18 6 24 8 6 15 21 15 33 1 19
-2 21 -18 12 -44 -24 -49 36 -5 71 32 26 34 36 7 45 -11 3 -20 12 -20 20 0 16
-57 38 -65 25 -6 -10 -55 9 -55 21 0 7 -41 24 -49 20 -2 -2 -12 10 -22 26 -10
15 -19 24 -19 19 0 -5 -13 8 -30 29 -16 20 -27 42 -23 48 3 6 1 7 -5 3 -6 -3
-16 3 -22 14 -13 25 -4 46 14 31 7 -6 16 -7 20 -3 4 4 12 7 17 7 8 0 11 8 8
18 0 1 -2 9 -4 17 -4 21 -24 70 -27 69 -2 -1 -11 -3 -21 -6z"/>
<path d="M4585 8562 c-3 -3 0 -11 5 -17 8 -9 6 -14 -5 -19 -15 -5 -14 -9 4
-32 20 -25 20 -51 0 -39 -5 4 -9 -2 -9 -12 0 -14 -2 -15 -9 -4 -5 8 -18 12
-29 9 -15 -4 -19 -2 -15 8 3 8 0 14 -7 14 -6 0 -9 4 -5 9 3 5 1 12 -5 16 -6 4
-7 11 -4 17 5 7 2 8 -7 2 -8 -4 -20 -9 -27 -10 -8 -2 -17 -6 -20 -10 -4 -4 0
-5 8 -2 11 4 16 0 16 -13 0 -12 -4 -15 -12 -8 -8 7 -10 2 -6 -17 5 -26 4 -27
-34 -21 -21 3 -33 3 -26 0 6 -2 12 -9 12 -14 0 -4 -7 -6 -15 -3 -11 5 -13 2
-9 -10 5 -12 2 -15 -12 -10 -16 5 -16 4 -4 -5 13 -10 13 -12 0 -21 -8 -5 -10
-10 -5 -10 6 -1 0 -5 -13 -11 -13 -5 -21 -13 -17 -18 3 -5 0 -13 -6 -17 -8 -4
-9 -3 -5 4 4 7 2 12 -3 12 -6 0 -11 -3 -12 -7 0 -5 -2 -18 -3 -30 -2 -13 -1
-23 0 -23 2 0 13 10 25 23 12 12 19 17 15 10 -3 -6 -1 -15 5 -19 7 -4 9 -3 6
3 -4 6 1 17 10 24 9 8 14 9 10 3 -9 -16 16 -25 34 -12 11 8 10 9 -3 4 -20 -6
-24 4 -7 21 6 6 18 9 25 6 9 -3 14 2 15 13 0 18 1 17 9 -1 7 -18 8 -19 15 -2
7 16 26 25 24 10 -1 -5 0 -10 1 -13 7 -20 7 -40 -1 -40 -6 0 -7 -4 -4 -10 13
-22 13 -50 0 -50 -8 0 -12 -9 -10 -25 2 -23 -6 -30 -29 -26 -4 1 -14 -3 -21
-9 -10 -8 -15 -7 -18 2 -5 10 -9 9 -19 -3 -7 -9 -23 -14 -35 -13 -12 2 -25 -1
-28 -6 -4 -6 -11 -7 -17 -4 -6 4 -8 3 -5 -3 6 -10 -40 -38 -56 -34 -5 1 -6 -3
-3 -8 4 -5 -2 -14 -11 -20 -10 -6 -14 -11 -9 -11 5 0 3 -6 -3 -14 -17 -21 -20
-74 -5 -87 11 -9 11 -15 3 -25 -9 -11 -8 -14 5 -15 33 -3 37 -4 46 -19 8 -12
10 -12 10 -1 0 10 3 11 13 2 10 -8 16 -8 25 1 12 12 12 -9 -1 -29 -5 -9 -3
-11 6 -7 11 4 14 -2 12 -27 -2 -17 -7 -34 -11 -38 -12 -8 -14 -41 -3 -41 5 0
6 -7 3 -15 -4 -8 -10 -13 -14 -10 -5 3 -7 -3 -5 -12 1 -10 -3 -24 -9 -32 -9
-12 -8 -13 4 -7 8 4 4 -2 -10 -13 -14 -11 -19 -21 -12 -21 10 0 10 -4 0 -22
-7 -13 -12 -26 -13 -30 0 -5 -4 -9 -10 -10 -5 0 -15 -8 -21 -16 -9 -12 -15 -9
-37 19 l-27 34 0 -27 c0 -16 5 -28 11 -28 16 0 5 -25 -12 -26 -46 -3 -52 -5
-46 -10 8 -8 -18 -34 -33 -34 -6 0 -9 -4 -6 -9 4 -5 -3 -7 -13 -4 -11 3 -28
-4 -40 -16 -12 -12 -21 -19 -21 -16 0 2 -14 -9 -30 -25 -30 -29 -41 -34 -67
-31 -7 1 -13 -3 -13 -10 0 -6 -8 -9 -20 -6 -11 3 -20 2 -20 -3 0 -14 -33 -21
-44 -9 -8 9 -7 10 3 4 10 -6 12 -4 5 6 -15 24 -14 41 2 35 12 -4 14 -1 9 14
-4 11 -2 20 4 20 6 0 11 -5 11 -10 0 -7 5 -6 13 2 17 15 9 59 -12 75 -10 8
-11 12 -4 13 7 0 10 7 6 17 -5 12 -3 14 7 8 10 -6 12 -3 8 13 -3 12 -1 23 4
24 11 4 -61 78 -75 78 -5 0 -3 8 4 17 8 9 10 14 4 11 -13 -7 -76 57 -67 68 4
4 2 4 -5 1 -6 -4 -18 0 -26 8 -9 8 -20 15 -26 15 -6 0 -11 5 -11 11 0 5 4 7
10 4 6 -3 7 1 4 9 -3 9 -10 16 -16 16 -5 0 -6 5 -2 11 4 7 -1 9 -12 7 -12 -2
-18 -11 -16 -22 2 -13 -1 -16 -10 -10 -7 4 -5 -2 5 -13 18 -21 23 -53 8 -53
-5 0 -11 5 -13 11 -3 9 -10 9 -26 0 -17 -9 -22 -9 -22 0 0 8 -4 8 -15 -1 -11
-10 -18 -9 -31 4 -16 16 -34 13 -34 -5 0 -6 4 -8 8 -5 11 6 43 -30 34 -39 -4
-3 1 -3 10 0 8 3 22 0 29 -7 8 -7 20 -13 27 -14 37 -3 43 -5 38 -12 -7 -12 37
-9 47 3 6 6 10 6 14 -2 2 -7 11 -13 19 -13 8 0 14 -4 14 -10 0 -5 7 -10 16
-10 8 0 12 -4 9 -10 -5 -9 16 -15 38 -11 5 1 5 -3 2 -9 -4 -6 -13 -9 -21 -6
-11 4 -12 1 -1 -17 6 -12 17 -25 22 -29 6 -5 6 -8 1 -8 -6 0 -1 -7 10 -16 10
-8 13 -12 6 -9 -11 6 -12 3 -3 -14 7 -11 15 -21 20 -21 4 0 8 -6 8 -14 0 -14
-14 -16 -34 -3 -9 5 -11 3 -7 -6 3 -8 1 -18 -5 -22 -6 -3 -11 -2 -11 4 0 5 -9
9 -20 8 -11 -1 -20 -5 -20 -10 0 -5 7 -7 14 -4 10 4 13 1 9 -9 -3 -7 0 -14 7
-14 9 0 9 -4 -1 -17 -12 -15 -12 -16 1 -8 9 5 8 0 -4 -13 -11 -12 -16 -22 -12
-22 4 0 1 -7 -8 -15 -8 -9 -13 -23 -10 -33 5 -14 4 -15 -5 -2 -6 8 -11 11 -11
6 0 -5 -8 -2 -17 5 -14 12 -16 12 -8 0 6 -11 3 -13 -14 -8 -16 4 -21 1 -19
-11 2 -10 -4 -17 -12 -17 -8 0 -14 6 -13 13 2 6 -3 12 -10 13 -32 2 -51 9 -68
26 -40 40 -47 43 -59 28 -7 -8 -16 -13 -20 -10 -5 3 -11 1 -15 -4 -4 -7 -15
-7 -32 0 -20 7 -29 6 -35 -3 -5 -8 -6 -3 -3 13 5 21 2 27 -13 31 -10 3 -27 1
-36 -4 -11 -6 -21 -4 -31 6 -9 8 -21 13 -28 10 -7 -2 -23 5 -35 16 -17 16 -36
21 -89 21 -107 2 -125 0 -118 -12 4 -6 0 -9 -11 -7 -29 5 -66 48 -61 69 3 11
2 17 -1 15 -4 -2 -13 2 -20 10 -9 10 -10 14 -1 14 7 0 2 8 -9 19 -12 10 -22
24 -22 31 0 7 -8 10 -20 7 -11 -3 -20 -2 -20 1 0 10 -55 33 -84 36 -38 5 -39
-27 -2 -60 18 -17 30 -37 28 -47 -2 -11 3 -17 16 -17 23 0 37 -26 19 -34 -9
-3 -9 -5 0 -5 6 -1 9 -10 6 -21 -4 -14 0 -20 11 -20 9 0 16 -4 16 -10 0 -5 16
-10 35 -10 25 0 35 -4 35 -16 0 -8 4 -12 10 -9 5 3 15 -3 22 -15 7 -11 19 -20
27 -20 8 0 23 -8 34 -17 13 -11 17 -12 12 -4 -6 11 -4 13 8 8 8 -3 21 0 27 8
6 8 18 11 26 8 8 -3 24 3 34 12 18 16 24 14 21 -7 -1 -8 26 -4 35 5 14 14 26
7 21 -13 -3 -11 -2 -20 1 -20 4 0 7 -11 7 -25 0 -14 -4 -25 -8 -25 -5 0 -5 -4
-2 -10 3 -5 3 -10 -2 -10 -4 0 -13 -11 -19 -23 -11 -24 2 -47 26 -47 6 0 8 -4
5 -10 -7 -11 8 -14 19 -3 3 4 14 8 22 9 11 2 14 -3 11 -17 -3 -10 -2 -17 3
-14 4 3 16 -3 27 -13 10 -9 12 -12 4 -7 -11 8 -13 7 -7 -3 4 -7 20 -18 34 -23
25 -10 26 -11 9 -23 -16 -13 -16 -15 3 -39 15 -18 17 -28 9 -33 -7 -4 -9 -3
-6 3 9 15 -11 21 -55 17 -22 -2 -38 1 -38 7 0 6 -4 7 -10 4 -5 -3 -10 -2 -10
2 0 5 -18 7 -40 5 -22 -2 -40 -8 -40 -13 0 -6 -12 -8 -27 -6 -15 2 -34 -2 -41
-10 -16 -16 -36 -17 -26 -2 3 6 -5 3 -20 -6 -14 -10 -26 -21 -26 -25 0 -14
-39 -18 -50 -6 -5 7 -8 15 -5 17 2 3 -4 5 -15 5 -10 0 -16 -4 -14 -8 3 -4 0
-8 -5 -8 -6 0 -11 11 -11 25 0 25 -14 29 -36 10 -8 -7 -7 -14 5 -25 19 -17 16
-50 -4 -50 -9 0 -12 8 -9 26 3 16 1 23 -6 19 -5 -3 -10 -1 -10 6 0 8 -5 7 -17
-2 -15 -12 -16 -12 -8 1 5 10 5 12 -2 5 -15 -14 -27 -68 -13 -60 5 3 10 1 10
-6 0 -7 3 -10 6 -6 3 3 17 2 31 -4 17 -6 22 -6 17 2 -4 7 -1 10 7 7 19 -6 14
-59 -6 -71 -8 -4 -12 -13 -9 -19 4 -7 2 -8 -4 -4 -7 4 -12 2 -12 -3 0 -16 -69
-9 -75 7 -6 16 3 34 14 28 4 -3 8 4 8 15 2 16 -1 18 -11 10 -7 -6 -16 -8 -20
-4 -4 4 -4 -1 0 -11 5 -14 4 -17 -4 -12 -7 4 -12 3 -12 -2 0 -6 -9 -8 -19 -5
-13 3 -23 -2 -30 -16 -7 -12 -9 -21 -7 -21 3 0 1 -12 -4 -26 -7 -19 -7 -31 1
-40 6 -8 7 -14 2 -14 -5 0 -10 -6 -10 -14 0 -8 6 -12 13 -9 7 2 11 13 9 24 -2
10 0 19 6 19 5 0 9 -4 9 -10 0 -14 43 -6 48 9 3 9 7 9 18 0 11 -9 14 -9 14 0
0 8 5 7 15 -3 16 -16 20 -38 8 -50 -12 -12 -14 -86 -2 -86 5 0 7 -4 4 -10 -3
-5 -1 -10 6 -10 24 0 -1 -13 -32 -16 -18 -2 -37 -8 -43 -12 -10 -7 -17 -8 -43
-3 -4 0 3 10 15 21 24 22 29 40 11 40 -6 0 -9 6 -6 14 4 9 0 13 -11 11 -9 -1
-23 2 -30 8 -7 6 -12 6 -11 1 1 -5 0 -11 -1 -14 -7 -18 -7 -40 0 -40 21 0 15
-25 -6 -26 -13 -1 -22 2 -19 6 3 5 -1 11 -7 13 -10 4 -9 8 2 16 26 18 3 23
-30 6 -29 -15 -31 -18 -16 -34 12 -14 13 -20 3 -30 -9 -10 -9 -11 4 -6 13 5
15 1 12 -17 -3 -17 4 -29 28 -47 17 -13 29 -19 25 -12 -5 7 1 11 13 11 12 0
21 4 21 10 0 5 14 17 30 25 17 9 29 19 26 23 -3 4 4 9 15 9 11 1 17 -2 14 -8
-13 -20 13 -8 28 14 l16 22 -6 -22 c-3 -14 -1 -23 6 -23 7 0 10 -4 7 -9 -4 -5
-1 -11 6 -13 8 -3 5 -11 -10 -23 -12 -11 -22 -25 -22 -33 0 -8 -5 -10 -12 -6
-10 5 -10 4 -2 -5 14 -15 6 -63 -9 -54 -6 3 -7 1 -3 -6 4 -6 13 -8 19 -4 6 4
30 8 52 9 22 1 46 3 54 5 12 4 42 -39 49 -71 7 -29 34 -51 48 -39 7 6 19 7 25
3 7 -4 9 -3 5 4 -3 6 -2 13 4 17 9 6 14 -8 11 -28 -1 -5 4 -5 10 -1 6 3 15 0
20 -7 13 -21 11 -33 -5 -20 -10 9 -15 8 -20 -4 -8 -22 3 -43 22 -41 9 2 15 6
14 11 -5 11 20 25 31 18 6 -3 0 -13 -12 -22 -11 -9 -22 -28 -23 -43 -2 -18 -8
-28 -19 -28 -16 0 -19 -25 -5 -48 5 -9 1 -10 -20 -2 -39 15 -174 20 -174 6 0
-7 -3 -7 -8 -1 -13 18 -31 15 -42 -5 -6 -11 -20 -20 -31 -20 -11 0 -18 4 -15
9 7 11 -44 9 -62 -3 -16 -10 -27 -1 -17 14 4 7 18 10 31 7 25 -4 28 0 25 46
-1 16 3 26 8 23 5 -3 12 1 15 10 3 8 2 12 -4 9 -6 -3 -10 1 -10 9 0 11 -9 16
-29 16 -20 0 -30 6 -34 20 -3 12 -14 20 -25 20 -12 0 -23 9 -27 20 -4 11 -11
18 -16 15 -5 -4 -9 1 -9 9 0 10 -6 13 -17 9 -11 -4 -14 -3 -9 5 6 9 1 9 -17 1
-18 -8 -30 -8 -47 1 -18 10 -21 9 -15 -1 6 -9 2 -11 -13 -7 -15 4 -22 2 -22
-8 0 -8 -5 -14 -11 -14 -5 0 -8 -4 -5 -8 3 -5 0 -9 -7 -9 -7 0 -13 8 -13 18 0
10 5 15 11 11 5 -3 4 2 -4 11 -7 9 -10 17 -6 17 5 0 -1 8 -12 18 -32 28 -24
70 12 62 6 -1 6 2 2 7 -5 4 -20 8 -33 8 -20 1 -24 -3 -21 -17 3 -10 1 -18 -5
-18 -6 0 -8 -13 -6 -29 2 -17 1 -28 -4 -25 -4 3 -8 -2 -8 -10 0 -9 -3 -15 -7
-14 -5 2 -9 -1 -10 -6 -1 -5 -7 -13 -15 -17 -10 -7 -10 -9 0 -9 7 0 10 -4 7
-10 -3 -5 -1 -10 5 -10 6 0 8 -4 5 -10 -3 -5 -1 -10 5 -10 8 0 7 -6 -1 -21 -7
-13 -7 -19 -1 -15 6 3 13 2 17 -4 4 -6 11 -8 16 -4 5 3 17 0 26 -8 14 -11 16
-11 8 2 -8 13 -7 13 9 0 12 -9 14 -16 7 -18 -9 -3 -9 -8 -1 -17 8 -10 8 -15
-1 -21 -8 -4 -9 -3 -5 4 4 7 2 13 -3 13 -35 4 -46 2 -43 -10 2 -9 -4 -12 -18
-8 -11 3 -20 1 -20 -4 0 -5 -3 -8 -7 -8 -20 3 -23 -3 -13 -21 7 -14 7 -20 0
-20 -15 0 -12 -37 4 -43 7 -3 23 1 34 9 13 9 23 11 27 4 4 -7 14 -5 28 5 12 8
25 15 29 15 13 0 9 -58 -4 -63 -7 -3 -3 -4 9 -4 12 1 25 8 28 16 5 11 8 10 20
-5 8 -10 15 -14 15 -8 0 13 31 15 46 3 6 -5 26 0 47 11 42 23 51 25 41 8 -4
-7 -3 -8 5 -4 6 4 9 11 6 16 -3 5 -1 11 5 15 6 4 8 11 5 16 -3 5 1 6 9 3 9 -3
13 -11 9 -18 -11 -17 -12 -36 -2 -36 4 0 6 -7 2 -15 -3 -9 3 -25 13 -36 17
-19 17 -20 -2 -13 -18 7 -18 6 2 -17 20 -22 22 -35 13 -64 -2 -5 2 -20 9 -32
9 -16 9 -23 2 -23 -6 0 -1 -15 11 -32 23 -33 23 -33 1 -14 -13 12 -22 14 -22
7 0 -7 -5 -9 -12 -5 -7 5 -9 2 -5 -8 4 -11 -2 -17 -19 -21 -13 -2 -24 1 -24 7
0 5 -7 3 -15 -5 -17 -17 -11 -44 11 -53 10 -4 12 -2 8 5 -4 7 -1 10 7 7 8 -3
13 -11 11 -17 -1 -7 2 -10 6 -7 5 3 18 -4 28 -16 11 -12 13 -18 7 -14 -7 4
-18 2 -25 -4 -7 -6 -24 -19 -37 -30 -13 -11 -18 -20 -11 -20 7 0 0 -12 -15
-26 l-29 -27 -17 21 c-9 12 -19 18 -23 15 -3 -3 -13 0 -23 8 -14 12 -16 12 -8
0 6 -11 3 -13 -13 -9 -12 4 -20 2 -16 -3 5 -8 -12 -13 -43 -12 -7 1 -10 -3 -7
-8 3 -5 0 -9 -6 -9 -6 0 -9 -4 -5 -10 3 -5 -3 -18 -15 -30 -22 -22 -23 -26 -9
-52 7 -12 4 -18 -9 -21 -14 -4 -15 -5 -1 -6 19 -1 32 -38 17 -48 -7 -4 -4 -11
7 -20 11 -7 14 -14 7 -14 -7 -1 -16 -3 -22 -4 -5 -1 -15 -3 -21 -4 -5 0 -7 -6
-3 -12 3 -6 9 -7 13 -3 11 16 39 15 45 -1 3 -9 2 -13 -4 -10 -6 3 -10 2 -10
-4 0 -5 6 -12 13 -14 9 -4 9 -6 -1 -6 -7 -1 -10 -6 -6 -13 5 -8 2 -9 -10 -5
-10 4 -15 3 -11 -3 9 -14 52 -13 61 2 4 7 3 8 -4 4 -19 -11 -14 5 6 21 9 8 11
12 5 8 -9 -4 -11 -1 -7 9 3 9 10 14 14 11 4 -3 13 2 20 9 16 21 79 15 92 -8 8
-15 8 -17 -3 -10 -23 13 9 -23 81 -95 36 -35 59 -61 53 -57 -12 7 -17 -7 -16
-42 1 -7 -5 -11 -13 -8 -8 3 -13 0 -11 -6 1 -7 -3 -12 -10 -13 -6 0 -15 -3
-19 -7 -13 -14 -26 -9 -20 7 3 8 3 15 1 15 -7 0 -39 -34 -51 -56 -6 -10 -23
-25 -37 -32 -15 -7 -27 -18 -27 -23 0 -6 -4 -7 -10 -4 -6 4 -7 -1 -3 -11 4
-10 2 -15 -3 -11 -6 3 -17 -3 -24 -14 -18 -24 -36 -24 -49 -1 -7 13 -6 23 2
32 9 10 9 11 0 6 -8 -4 -13 -1 -13 8 0 18 -15 21 -25 6 -8 -12 -35 -1 -35 15
0 7 -7 16 -16 19 -15 6 -15 4 -3 -11 8 -9 9 -14 3 -10 -6 4 -22 -2 -34 -13
-13 -11 -27 -20 -31 -20 -5 0 -5 -7 -2 -17 4 -9 2 -14 -3 -11 -5 4 -10 -5 -10
-18 -1 -13 3 -24 8 -24 6 0 5 -6 -2 -15 -9 -11 -10 -18 -1 -28 6 -8 8 -16 5
-20 -3 -3 -7 -20 -8 -37 -2 -25 3 -34 21 -41 14 -5 22 -13 19 -18 -16 -25 25
-1 60 35 21 23 45 39 52 37 10 -4 8 -9 -5 -20 -10 -8 -11 -11 -3 -7 13 7 13 5
1 -9 -7 -9 -20 -17 -29 -17 -8 0 -12 -3 -9 -7 4 -3 2 -12 -4 -20 -6 -7 -8 -13
-3 -13 5 0 3 -4 -5 -9 -18 -11 -22 -61 -7 -80 8 -11 8 -13 -1 -7 -14 8 -17 -3
-7 -28 3 -9 9 -14 14 -11 8 5 6 -32 -5 -65 -6 -18 -9 -19 -23 -8 -12 10 -14
10 -8 1 5 -9 0 -13 -13 -13 -14 0 -19 5 -15 15 4 8 11 15 16 15 6 0 8 7 4 15
-3 8 -1 15 5 15 6 0 8 4 5 9 -4 5 0 11 6 14 9 3 8 10 -6 23 -10 11 -16 14 -12
8 4 -8 -5 -11 -29 -10 -19 1 -35 -2 -35 -7 0 -4 -4 -5 -10 -2 -5 3 -10 1 -10
-5 0 -6 -4 -9 -9 -6 -5 4 -8 -2 -6 -11 1 -10 -2 -23 -7 -30 -5 -7 -5 -14 2
-18 6 -3 8 -10 5 -15 -3 -4 2 -10 10 -14 8 -3 15 -10 15 -17 0 -6 -6 -9 -14
-6 -10 4 -14 0 -11 -12 2 -10 -3 -18 -11 -18 -8 0 -14 5 -14 10 0 5 -7 4 -15
-3 -11 -9 -15 -9 -15 -1 0 7 -5 9 -10 6 -6 -4 -17 -2 -24 4 -16 14 -62 -22
-51 -40 5 -7 3 -10 -6 -7 -7 2 -25 -1 -38 -8 -14 -7 -29 -10 -34 -7 -6 3 -7 1
-3 -5 4 -7 1 -12 -8 -12 -9 0 -16 -5 -16 -11 0 -6 -7 -9 -14 -6 -11 4 -13 1
-9 -10 5 -12 3 -14 -8 -8 -8 5 -6 -1 5 -13 21 -24 48 -17 60 15 6 15 8 15 16
3 7 -11 10 -12 10 -2 0 7 4 11 9 7 5 -3 17 2 25 11 9 8 16 11 16 5 0 -6 5 -11
11 -11 5 0 8 3 6 8 -3 4 6 8 19 8 13 1 24 -3 24 -10 0 -6 5 -4 10 4 6 9 10 10
10 3 0 -16 -41 -44 -54 -36 -6 3 -8 3 -4 -1 11 -12 -29 -49 -43 -41 -8 5 -10
4 -5 -3 12 -19 -3 -35 -20 -21 -11 9 -14 8 -14 -5 0 -9 -7 -16 -16 -16 -9 0
-12 -5 -8 -12 5 -7 2 -9 -8 -6 -9 4 -24 -5 -39 -25 -13 -17 -34 -41 -45 -53
-16 -17 -19 -25 -10 -35 8 -9 7 -11 -6 -6 -10 4 -17 3 -15 -1 3 -9 -46 -58
-55 -55 -5 2 -7 -3 -5 -10 1 -6 -3 -11 -10 -10 -6 2 -15 -7 -18 -18 -4 -13
-12 -18 -21 -15 -8 3 -13 2 -9 -3 3 -5 -2 -17 -11 -25 -8 -9 -12 -16 -7 -16 4
0 1 -6 -8 -13 -16 -12 -19 -18 -19 -36 0 -11 -19 -9 -39 3 -9 6 -12 5 -8 0 3
-5 -3 -10 -14 -10 -10 0 -19 6 -19 13 0 7 4 13 9 13 6 0 8 9 6 20 -2 11 -1 18
4 16 4 -3 12 4 19 15 8 12 8 19 2 19 -7 0 -7 6 0 20 6 11 16 17 22 14 7 -4 8
-3 4 4 -4 7 -3 12 1 12 5 0 9 9 9 21 0 14 -5 19 -17 16 -10 -3 -20 2 -24 11
-3 8 -8 12 -12 9 -3 -4 -12 -2 -20 4 -10 9 -13 8 -13 0 0 -7 -4 -9 -10 -6 -5
3 -10 1 -10 -5 0 -6 -12 -22 -27 -36 -16 -14 -22 -23 -15 -19 8 4 13 2 11 -6
-3 -29 2 -36 27 -33 21 2 23 0 13 -12 -6 -8 -8 -14 -5 -14 4 0 1 -6 -6 -14 -7
-8 -17 -11 -22 -8 -5 3 -5 -1 0 -9 4 -8 7 -24 6 -36 -2 -11 2 -24 7 -28 6 -3
11 -17 11 -30 0 -13 4 -27 10 -30 15 -9 -12 -45 -34 -45 -11 0 -16 -3 -13 -6
3 -4 -4 -15 -17 -25 -14 -11 -23 -27 -22 -37 2 -9 0 -29 -5 -44 -8 -29 13 -64
32 -53 5 4 9 0 9 -8 0 -8 9 -17 20 -20 11 -3 20 -1 20 4 0 6 8 5 19 -1 15 -7
23 -6 35 6 9 8 16 12 16 7 0 -4 6 -1 13 7 14 18 37 24 37 10 0 -6 10 -6 28 0
l27 10 -22 -17 c-24 -19 -19 -40 10 -40 12 0 17 8 17 29 0 16 4 27 9 24 12 -8
91 63 91 81 0 7 4 13 9 13 16 0 8 54 -15 98 l-23 44 31 28 c17 16 35 27 39 25
4 -3 9 2 13 10 3 8 12 15 21 15 9 0 25 9 37 20 12 10 25 17 30 14 4 -3 8 0 8
6 0 6 5 8 10 5 6 -3 10 -1 10 6 0 7 3 10 6 7 3 -3 19 7 36 23 17 15 35 26 40
23 4 -3 8 -2 8 3 0 13 58 35 72 27 7 -4 10 -4 6 0 -10 11 28 49 41 41 6 -3 11
-1 11 5 0 6 5 8 10 5 6 -4 9 -1 8 7 -2 7 3 12 10 11 6 -2 12 2 12 8 0 6 9 9
20 6 12 -3 17 -1 14 5 -3 5 3 12 15 15 12 3 21 9 21 14 0 5 7 6 15 3 8 -4 15
-1 15 6 0 8 9 11 24 8 18 -4 23 -1 18 10 -3 9 -1 13 5 9 6 -4 22 4 37 18 14
13 26 21 26 18 0 -3 6 0 13 6 8 6 17 8 20 4 4 -3 7 -1 7 5 0 7 7 12 15 12 20
0 19 -30 -2 -47 -10 -8 -13 -12 -8 -10 11 5 37 -18 29 -25 -8 -9 46 -59 56
-53 6 3 10 0 10 -7 0 -8 3 -9 8 -3 4 6 18 10 30 9 37 -2 75 40 76 84 1 20 -3
40 -9 45 -7 5 -7 9 0 15 12 8 13 27 3 38 -12 12 -9 21 7 21 8 0 11 -5 8 -11
-4 -6 -1 -6 8 1 15 12 42 13 47 0 6 -19 1 -48 -8 -42 -15 9 -12 -32 5 -64 8
-16 11 -31 8 -35 -4 -3 -1 -6 6 -6 7 0 9 -4 6 -10 -3 -5 0 -10 8 -10 8 0 18
-7 21 -16 3 -8 10 -12 16 -9 5 3 10 1 10 -4 0 -6 7 -11 15 -11 8 0 15 -6 15
-12 0 -10 2 -10 9 0 4 8 19 11 34 8 15 -2 33 1 39 8 14 13 21 16 39 16 5 0 8
4 4 9 -3 5 4 12 14 16 17 5 39 42 32 54 -2 2 3 8 11 12 8 6 9 9 1 9 -17 0 -9
30 14 54 17 17 18 23 7 34 -7 6 -18 12 -24 12 -6 0 -8 5 -5 10 3 6 0 10 -9 10
-8 0 -17 -6 -19 -12 -4 -10 -6 -10 -6 0 -1 6 -8 12 -17 12 -8 0 -12 5 -9 10 3
6 -3 10 -14 10 -25 0 -38 20 -20 31 8 5 17 3 21 -4 4 -7 8 -7 8 -2 0 6 9 16
21 23 12 8 18 9 15 3 -4 -5 -2 -12 4 -16 5 -3 10 -2 10 4 0 6 7 8 15 5 8 -4
15 -1 15 5 0 6 7 11 16 11 8 0 13 -4 10 -8 -3 -5 6 -15 20 -22 15 -8 20 -16
14 -20 -7 -4 2 -12 19 -20 17 -7 31 -17 31 -22 0 -5 6 -6 13 -1 17 11 61 10
69 -2 5 -6 8 -5 8 4 0 11 3 11 17 0 11 -10 14 -10 9 -1 -4 6 -2 12 3 12 6 0
11 6 11 13 0 7 10 13 22 14 12 1 28 10 37 19 15 17 15 17 -2 5 -15 -12 -17
-12 -11 3 3 9 1 16 -5 16 -15 0 -14 83 1 98 9 9 16 8 32 -6 11 -9 16 -11 12
-4 -4 7 0 15 11 19 10 3 27 15 38 26 16 18 17 20 2 14 -9 -3 -17 -2 -17 3 0 5
7 10 15 12 12 2 10 9 -10 32 -13 16 -22 33 -19 37 3 5 0 9 -7 9 -9 0 -9 3 0
14 7 8 10 26 7 40 -3 15 -1 24 4 21 10 -6 22 23 15 35 -8 12 34 3 51 -11 12
-10 13 -9 8 4 -4 11 0 15 13 13 13 -2 17 -10 15 -29 -4 -30 13 -44 33 -27 8 7
15 9 15 5 0 -4 6 -2 13 4 8 6 17 8 21 4 4 -4 4 0 0 10 -4 11 -1 17 7 17 12 0
12 2 1 9 -8 4 -13 11 -13 15 3 23 0 36 -8 32 -5 -3 -11 1 -15 9 -3 8 -1 15 4
15 5 0 11 8 14 18 4 13 17 17 53 17 27 0 51 -4 55 -10 5 -6 8 -5 8 4 0 10 3
11 14 2 14 -12 11 -51 -4 -51 -5 0 -7 -11 -6 -25 2 -14 -3 -30 -11 -37 -8 -6
-12 -17 -9 -24 6 -16 -10 -28 -19 -14 -8 13 -25 3 -25 -13 0 -8 3 -8 9 2 7 11
10 11 17 0 4 -7 3 -14 -4 -17 -7 -2 -12 -10 -12 -18 0 -10 -5 -12 -12 -8 -18
11 -48 12 -54 2 -3 -4 -14 -3 -26 3 -14 8 -18 8 -14 0 5 -7 1 -9 -8 -5 -9 3
-13 10 -10 15 3 5 0 9 -6 9 -6 0 -10 -16 -8 -40 1 -22 4 -37 7 -35 2 3 11 -1
19 -8 11 -8 14 -8 9 0 -4 6 -3 14 3 18 5 3 10 1 10 -5 0 -8 6 -8 23 0 22 11
22 11 -2 -9 -13 -12 -20 -21 -16 -21 5 0 0 -9 -10 -20 -10 -11 -13 -20 -7 -20
7 0 12 -5 12 -11 0 -5 -4 -8 -9 -5 -5 4 -7 -4 -3 -16 3 -13 1 -19 -5 -15 -6 4
-9 -5 -7 -24 2 -16 0 -28 -4 -25 -5 3 -6 -8 -4 -24 3 -21 -1 -32 -11 -36 -9
-3 -13 -12 -10 -20 3 -8 0 -14 -7 -14 -6 0 -9 -4 -6 -8 8 -13 -28 -39 -52 -37
-12 1 -24 -5 -27 -13 -3 -8 -8 -12 -12 -8 -3 3 -15 -2 -26 -11 -15 -13 -18
-14 -12 -3 8 13 7 13 -10 0 -10 -8 -19 -13 -21 -10 -1 3 -13 -4 -26 -15 -14
-11 -30 -21 -36 -22 -16 -4 -52 -40 -45 -46 2 -3 -5 -8 -16 -12 -12 -3 -21
-11 -21 -16 0 -5 -6 -9 -13 -9 -8 0 -24 -9 -37 -20 -13 -12 -29 -19 -35 -16
-6 2 -12 -5 -12 -17 -1 -11 -6 -23 -10 -26 -5 -3 -17 -23 -28 -43 -10 -20 -23
-35 -27 -32 -4 3 -8 0 -8 -6 0 -6 -4 -8 -10 -5 -5 3 -10 -2 -10 -13 0 -10 -9
-27 -20 -37 -11 -10 -18 -20 -15 -23 2 -3 -5 -13 -17 -23 -11 -11 -16 -19 -9
-19 7 0 9 -5 6 -10 -4 -6 -11 -8 -16 -5 -5 4 -9 -3 -9 -14 0 -12 -4 -21 -10
-21 -5 0 -9 -6 -7 -12 1 -7 -3 -12 -8 -11 -6 1 -10 -11 -9 -25 1 -15 -4 -33
-10 -41 -6 -9 -7 -12 -1 -9 7 4 11 -12 11 -42 0 -27 -3 -47 -6 -45 -4 2 -7 -2
-7 -10 0 -8 5 -11 10 -8 6 4 8 0 4 -9 -3 -9 2 -23 13 -33 11 -10 18 -21 15
-24 -2 -4 6 -8 18 -8 12 -1 27 -10 34 -19 8 -11 13 -13 13 -5 0 7 4 10 8 7 8
-5 42 28 42 39 0 3 -7 5 -16 5 -14 0 -14 3 -4 15 16 19 22 65 9 65 -6 0 -8 4
-4 9 3 5 -5 11 -17 13 -20 3 -23 9 -24 56 -1 28 3 52 8 52 5 0 7 4 4 9 -3 5
10 18 30 30 19 12 33 25 30 30 -7 11 29 43 38 34 4 -4 4 1 0 11 -5 12 -4 17 3
13 5 -3 16 5 23 19 10 18 16 21 22 12 6 -10 8 -10 8 0 0 7 5 10 10 7 6 -3 10
3 10 14 0 12 5 21 10 21 6 0 10 9 10 20 0 11 3 19 8 19 21 -4 30 3 36 27 5 17
12 24 21 20 8 -3 14 0 12 7 -1 7 4 11 11 10 6 -2 12 2 12 8 0 5 5 7 10 4 6 -3
10 0 10 7 0 9 3 9 10 -2 6 -10 10 -11 10 -2 0 6 7 12 15 12 8 0 15 5 15 11 0
5 5 7 10 4 6 -3 10 -1 10 4 0 6 7 11 15 11 8 0 15 5 15 11 0 5 5 7 10 4 9 -5
15 15 11 37 0 4 7 4 16 1 11 -4 14 -3 9 5 -6 11 5 17 27 13 4 0 7 6 7 15 0 8
5 12 10 9 6 -3 13 1 16 10 6 13 8 14 15 3 7 -10 9 -10 9 0 0 6 7 12 16 12 8 0
13 4 10 9 -4 5 0 12 6 14 10 4 9 6 -1 6 -10 1 -9 6 5 19 22 20 58 82 48 82 -3
0 0 8 7 17 9 11 10 14 2 9 -9 -5 -11 -2 -7 8 3 9 11 16 16 16 5 0 8 6 5 13 -2
6 0 20 5 31 7 12 7 16 0 12 -6 -3 -9 5 -8 18 0 13 3 22 5 20 2 -2 11 2 19 9
13 9 14 9 8 0 -4 -7 -4 -13 1 -14 54 -7 63 -5 63 12 0 9 4 19 9 21 5 2 11 14
13 28 3 28 19 50 31 43 12 -7 8 22 -5 37 -8 9 -5 8 7 -1 11 -9 28 -16 39 -16
18 0 18 1 0 14 -17 13 -17 13 1 13 23 0 16 8 -11 13 -10 1 -25 7 -33 11 -8 6
-12 5 -8 0 3 -5 -1 -17 -8 -27 -12 -16 -13 -16 -17 8 -3 14 -1 25 6 25 6 0 5
4 -2 9 -11 7 -10 9 3 15 9 3 13 11 9 17 -10 17 18 30 35 16 12 -10 13 -9 6 2
-6 11 -4 13 8 8 9 -3 19 -1 23 5 4 7 3 8 -4 4 -7 -4 -12 -2 -12 5 0 7 8 9 21
6 14 -4 19 -2 16 7 -3 7 3 20 12 28 12 10 17 27 15 49 -1 19 -3 40 -3 47 -1 7
-5 11 -10 8 -4 -3 -8 7 -7 22 1 26 11 40 30 40 5 0 12 6 17 13 6 10 13 9 33
-5 14 -9 26 -13 26 -8 0 12 38 8 51 -5 16 -16 -25 -27 -50 -14 -13 7 -22 8
-26 1 -3 -5 -3 -10 2 -10 12 0 10 -60 -2 -60 -5 0 -2 -5 8 -11 9 -5 22 -7 29
-3 7 4 8 3 4 -4 -4 -7 -2 -12 4 -12 6 0 13 7 16 15 4 8 11 12 16 9 6 -4 5 2
-1 14 -8 15 -8 22 2 25 9 4 9 6 0 6 -18 1 -16 18 3 25 8 3 28 -4 44 -16 23
-16 27 -25 19 -35 -6 -7 -15 -11 -19 -8 -5 3 -16 -3 -26 -12 -10 -10 -21 -18
-26 -18 -4 0 -8 -4 -7 -9 0 -5 -3 -12 -8 -15 -4 -3 -15 -15 -23 -25 -12 -16
-12 -18 -1 -11 10 6 12 4 6 -4 -4 -7 -15 -11 -25 -8 -14 3 -17 1 -13 -11 5
-11 3 -13 -8 -7 -9 6 -9 2 3 -11 14 -16 14 -21 2 -32 -8 -7 -14 -9 -14 -5 0 4
-5 1 -10 -7 -6 -10 -10 -11 -10 -2 0 6 -4 12 -8 12 -5 0 -8 -10 -6 -22 4 -34
4 -34 13 -20 6 10 10 10 21 -3 10 -12 10 -15 -1 -15 -11 0 -11 -2 1 -10 9 -6
10 -10 3 -10 -8 0 -6 -16 7 -52 10 -29 16 -57 13 -62 -4 -5 -1 -6 5 -2 7 4 12
1 12 -8 0 -9 5 -16 11 -16 5 0 7 -4 4 -10 -3 -5 -2 -10 4 -10 15 0 62 -46 54
-53 -3 -4 1 -7 10 -7 10 0 17 -5 17 -11 0 -6 7 -9 15 -5 9 3 15 0 15 -9 0 -8
6 -12 14 -9 20 8 30 -14 15 -32 -6 -8 -9 -17 -6 -21 4 -3 2 -15 -4 -26 -8 -15
-8 -18 1 -12 9 5 10 2 6 -13 -5 -13 -1 -22 10 -26 9 -3 14 -13 11 -21 -4 -9
-1 -12 9 -8 16 6 19 -8 5 -22 -6 -6 -4 -17 5 -29 8 -11 14 -16 14 -10 0 5 4 3
9 -4 7 -11 9 -11 14 2 4 9 2 16 -3 16 -22 0 -8 18 17 23 22 4 25 3 13 -6 -15
-12 -21 -27 -25 -60 0 -9 -10 -24 -21 -33 -10 -8 -13 -13 -6 -9 19 10 15 -1
-11 -29 -13 -14 -27 -23 -30 -19 -4 3 -7 -1 -7 -11 0 -10 -5 -14 -11 -10 -8 5
-8 1 0 -14 14 -26 14 -45 1 -37 -6 4 -7 12 -3 18 4 8 1 7 -9 -1 -13 -10 -17
-10 -21 0 -3 9 -7 7 -13 -6 -4 -12 -3 -21 3 -23 5 -2 8 -15 5 -28 -2 -14 -9
-22 -15 -18 -6 4 -7 1 -2 -7 5 -8 2 -18 -9 -26 -10 -7 -17 -15 -17 -18 3 -20
-1 -25 -13 -20 -9 3 -15 -5 -19 -24 -3 -16 -13 -37 -22 -46 -9 -9 -13 -20 -10
-26 4 -6 3 -9 -2 -8 -4 2 -10 -1 -11 -7 -2 -5 -8 -16 -14 -22 -7 -9 -7 -13 1
-13 6 0 11 -5 11 -11 0 -5 -4 -7 -10 -4 -5 3 -15 -15 -21 -39 -6 -25 -16 -43
-21 -40 -6 4 -6 -1 0 -13 11 -20 -2 -58 -17 -49 -4 3 -8 -1 -8 -9 0 -8 5 -11
10 -8 6 4 8 0 4 -10 -3 -10 -2 -18 3 -18 28 -5 35 -3 35 11 0 8 8 14 18 14 16
-2 17 0 4 20 -12 18 -12 26 -3 44 7 13 16 19 21 15 4 -4 5 0 2 9 -3 9 -1 19 6
22 9 3 9 5 0 5 -7 1 -13 6 -13 12 0 5 4 8 9 5 5 -3 11 1 15 9 3 8 13 15 23 15
12 0 14 3 6 8 -8 5 -9 13 -3 22 6 8 10 11 10 5 0 -5 7 1 16 13 8 12 24 22 35
22 11 0 17 5 14 10 -3 6 -1 10 4 10 6 0 11 7 11 15 0 8 5 15 10 15 6 0 10 11
10 25 0 14 9 33 19 42 11 9 18 20 15 25 -3 4 0 8 6 8 6 0 8 5 4 11 -3 6 -1 15
6 19 10 6 9 12 -5 26 -11 12 -14 19 -6 22 6 2 9 8 5 13 -5 8 9 13 29 10 4 0 7
6 7 14 0 8 4 15 9 15 5 0 12 7 15 16 4 10 2 13 -7 7 -6 -4 -4 5 6 20 9 15 15
27 12 27 -2 0 4 16 15 36 11 19 15 32 9 28 -7 -4 -10 -2 -7 7 3 8 11 13 18 11
8 -2 9 5 5 20 l-7 23 21 -24 c22 -25 27 -36 12 -27 -12 8 -22 -20 -14 -41 6
-15 4 -16 -8 -6 -13 10 -16 10 -16 -2 0 -7 5 -13 11 -12 6 1 10 -3 9 -9 -2
-12 51 -13 63 -1 11 11 12 47 2 47 -5 0 -5 8 0 18 5 9 7 23 5 30 -3 7 1 11 9
10 7 -2 12 3 11 10 -2 6 2 12 7 12 17 0 11 28 -10 43 -11 8 -17 17 -12 22 4 4
-3 4 -15 1 -18 -6 -22 -4 -17 8 3 9 2 16 -3 16 -5 0 -10 16 -11 35 -2 31 2 37
24 34 3 0 14 9 23 20 10 11 21 18 25 14 3 -3 6 -1 6 6 0 7 4 10 9 6 6 -3 8
-14 6 -25 -2 -12 1 -17 10 -14 7 3 16 0 20 -5 3 -6 11 -9 16 -5 6 3 9 0 7 -8
-2 -7 1 -15 7 -16 5 -1 11 11 12 28 3 29 1 31 -39 34 -16 1 -29 19 -19 26 4 3
17 22 30 43 23 38 35 49 25 22 -5 -11 -2 -13 10 -9 9 3 16 2 16 -4 0 -6 11 -9
25 -7 14 1 25 -2 25 -6 0 -5 -9 -9 -19 -9 -10 0 -29 -9 -42 -19 l-24 -20 22
-20 c30 -28 28 -28 44 -15 11 9 17 9 27 -2 7 -8 11 -14 8 -14 -2 0 -1 -14 4
-30 5 -18 5 -28 -1 -25 -5 3 -6 0 -3 -8 3 -8 17 -13 34 -12 26 2 29 -1 26 -26
-3 -23 2 -31 25 -41 16 -7 29 -17 29 -21 0 -5 4 -6 9 -3 15 10 19 -19 5 -38
-7 -11 -11 -23 -8 -27 3 -5 0 -9 -6 -9 -6 0 -8 -6 -4 -12 3 -7 -5 1 -19 17
-14 17 -29 27 -33 23 -4 -5 -2 -8 4 -8 6 0 9 -7 6 -15 -4 -8 -1 -15 5 -15 6 0
20 -9 31 -20 11 -11 16 -20 11 -20 -5 0 -14 -13 -19 -30 -6 -16 -8 -29 -4 -29
25 4 52 -3 47 -11 -3 -5 -1 -10 4 -10 6 0 11 -5 11 -10 0 -6 9 -20 19 -31 20
-22 34 -112 16 -105 -5 2 -9 9 -7 15 2 9 -3 9 -20 0 -30 -16 -29 -14 -22 -33
6 -16 26 -23 21 -7 -1 5 3 9 8 8 11 0 7 -39 -5 -47 -5 -3 -7 -21 -6 -40 1 -19
-4 -42 -10 -50 -13 -15 -14 -19 -14 -46 0 -8 -4 -12 -10 -9 -6 3 -7 -1 -4 -10
4 -10 -1 -22 -12 -30 -11 -8 -15 -15 -11 -15 5 0 -2 -14 -14 -32 -13 -17 -18
-28 -11 -24 18 11 14 -5 -5 -21 -11 -9 -12 -11 -3 -7 12 6 11 3 -2 -12 -22
-26 -38 -70 -40 -110 -1 -18 -4 -33 -7 -32 -22 2 -31 -4 -25 -14 5 -8 0 -7
-11 2 -10 8 -16 10 -12 4 8 -14 -20 -54 -37 -54 -8 0 -17 -7 -20 -16 -3 -8 -9
-13 -13 -11 -11 6 -48 -8 -49 -19 -3 -33 -42 -107 -69 -133 -14 -13 -25 -34
-25 -48 0 -13 -4 -22 -9 -18 -6 3 -8 -6 -5 -21 3 -19 1 -24 -8 -18 -10 6 -10
5 -2 -7 14 -17 0 -64 -17 -53 -8 5 -8 1 0 -14 8 -14 8 -23 1 -27 -8 -5 -8 -11
0 -20 8 -9 8 -15 0 -20 -6 -3 -7 -12 -3 -18 13 -21 11 -35 -4 -41 -8 -4 -13
-13 -10 -20 3 -8 -4 -27 -16 -42 -12 -16 -16 -25 -10 -21 6 4 14 3 18 -2 3 -6
-4 -15 -15 -21 -11 -6 -18 -15 -15 -20 3 -4 -2 -16 -11 -24 -8 -9 -12 -16 -7
-16 4 0 -1 -8 -12 -16 -13 -11 -16 -18 -8 -21 7 -2 9 -11 6 -19 -3 -7 -10 -11
-17 -7 -6 3 -8 3 -4 -2 4 -4 3 -14 -3 -22 -8 -9 -8 -13 -1 -13 7 0 8 -10 2
-30 -5 -18 -5 -32 1 -36 6 -4 6 -11 -2 -20 -9 -11 -8 -14 2 -14 11 0 11 -2 1
-9 -10 -6 -10 -10 2 -21 9 -7 13 -16 10 -21 -3 -5 3 -9 12 -9 10 0 14 -3 11
-6 -9 -9 12 -46 23 -39 4 3 6 -5 2 -17 -3 -13 -1 -19 5 -15 6 4 9 -17 8 -56
-1 -34 -7 -61 -12 -60 -5 1 -9 -8 -8 -20 1 -12 -4 -31 -11 -41 -9 -13 -10 -25
-3 -37 5 -11 5 -20 0 -23 -5 -4 -12 0 -14 6 -3 7 -6 3 -6 -9 -1 -30 -12 -54
-21 -48 -5 3 -5 -8 0 -25 7 -25 5 -33 -10 -42 -10 -6 -16 -17 -13 -23 2 -7 -3
-15 -12 -19 -9 -3 -13 -10 -10 -16 9 -14 -4 -52 -16 -45 -5 4 -6 -3 0 -17 10
-27 4 -51 -11 -42 -7 4 -8 2 -4 -5 4 -6 0 -18 -8 -27 -12 -12 -13 -20 -6 -35
6 -10 8 -19 4 -19 -4 0 3 -9 16 -20 17 -15 26 -17 37 -9 7 6 13 8 13 5 0 -4 6
-1 14 6 16 17 18 68 2 68 -6 0 -5 4 3 9 7 5 10 14 7 20 -4 6 -3 11 3 11 5 0
13 9 16 20 4 12 16 30 28 40 11 11 17 20 12 20 -5 0 0 7 11 16 10 8 12 12 4 8
-12 -7 -13 -5 -3 8 7 8 9 19 5 24 -4 4 1 3 10 -4 14 -12 16 -10 11 9 -4 14 0
25 9 30 9 5 14 19 13 34 -2 14 2 28 7 32 7 4 8 1 3 -8 -6 -11 -5 -12 5 -2 10
10 11 15 1 27 -10 11 -9 16 3 23 14 8 16 12 16 34 0 5 5 7 12 3 7 -5 9 -2 5 8
-3 9 0 21 6 27 8 8 8 11 -2 11 -9 0 -10 4 -4 13 5 6 8 22 7 34 0 13 3 23 8 23
5 0 6 5 3 10 -3 5 0 10 7 10 8 0 6 5 -5 11 -9 6 -15 14 -12 20 4 5 2 9 -3 9
-5 0 -7 11 -4 25 3 16 0 25 -9 25 -7 0 -10 3 -6 6 3 3 -5 24 -19 46 -14 22
-23 46 -20 53 3 8 0 15 -6 17 -6 2 -12 30 -13 61 -2 37 1 54 8 50 5 -3 7 -2 4
4 -8 13 8 68 19 66 5 -1 9 15 8 35 0 37 14 74 27 67 3 -3 5 8 5 23 -1 15 2 35
7 45 5 10 4 17 -3 17 -6 0 -8 5 -5 10 4 6 11 7 17 4 7 -5 9 -1 5 9 -3 9 -1 19
5 23 7 5 7 8 -1 13 -7 5 -6 14 3 32 7 13 10 31 8 38 -3 9 0 11 8 6 9 -5 11 -4
6 4 -4 6 0 23 8 36 12 19 13 25 4 25 -8 1 -6 6 5 14 10 8 17 16 16 18 -10 12
12 48 29 48 12 0 24 5 27 11 4 6 14 8 22 5 9 -4 11 -2 7 6 -5 8 1 9 20 4 17
-4 25 -3 22 3 -3 5 1 11 9 15 8 3 15 12 15 19 0 8 9 22 20 32 11 10 20 23 20
29 0 6 9 22 19 35 10 14 17 31 14 38 -3 8 0 13 8 11 9 -2 13 4 11 15 -2 9 2
17 8 17 5 0 10 7 10 16 0 9 5 12 13 8 8 -6 8 -3 -1 9 -12 14 -10 17 12 23 22
5 24 9 15 26 -7 12 -7 18 -1 14 9 -5 36 40 44 74 2 8 11 22 20 31 10 9 15 19
11 23 -3 3 -2 6 4 6 6 0 9 9 5 22 -4 16 -2 19 8 13 10 -6 12 -4 7 9 -4 10 -1
19 8 22 24 10 68 112 69 160 1 24 -3 44 -9 44 -5 0 -3 5 5 10 12 8 12 10 1 10
-8 0 -12 3 -8 6 8 9 -16 33 -27 26 -5 -3 -5 1 -1 9 12 18 14 49 3 43 -4 -3 -8
0 -8 5 0 13 -22 10 -32 -4 -4 -6 -8 -2 -8 8 0 9 6 17 13 17 8 0 7 3 -3 10 -13
8 -12 12 4 27 10 10 15 12 11 4 -5 -9 -4 -12 3 -7 19 12 14 43 -8 49 -11 3
-20 1 -20 -4 0 -5 -5 -9 -12 -9 -6 0 -4 8 6 19 10 11 24 17 32 14 8 -3 14 1
14 11 0 9 -3 15 -7 15 -20 -3 -34 2 -28 11 3 6 1 10 -4 10 -6 0 -11 9 -11 19
0 11 -7 26 -15 34 -8 8 -11 17 -8 21 4 3 -1 6 -11 6 -9 0 -14 5 -11 10 3 6 -1
13 -9 16 -9 3 -13 11 -9 18 10 15 13 37 5 32 -4 -2 -13 2 -20 10 -8 9 -9 14
-2 14 7 0 7 8 -2 23 -7 12 -11 25 -10 29 1 5 -3 7 -10 5 -17 -3 -18 56 -1 71
9 9 13 9 13 2 0 -7 14 2 31 19 17 17 35 31 40 31 6 0 7 5 4 10 -4 6 -3 9 2 8
16 -4 53 14 48 23 -4 5 -1 9 4 9 6 0 11 -4 11 -10 0 -33 20 -48 58 -45 17 1
29 -1 26 -6 -3 -5 -1 -9 5 -9 5 0 8 -9 6 -20 -2 -11 0 -22 6 -25 16 -11 10
-20 -20 -32 -20 -7 -31 -20 -36 -41 -3 -18 -12 -30 -18 -29 -15 3 -9 -35 6
-45 17 -11 29 -10 22 2 -3 6 -1 10 4 10 10 0 15 -14 12 -32 0 -5 4 -8 10 -8 5
0 7 -4 4 -10 -3 -6 -1 -10 6 -10 8 0 9 -3 0 -13 -6 -8 -8 -16 -5 -20 11 -10
12 -92 1 -105 -7 -9 -5 -11 8 -6 12 5 16 4 12 -3 -4 -6 0 -16 9 -23 8 -7 12
-20 9 -28 -3 -9 -1 -18 4 -22 6 -3 12 -17 14 -30 3 -18 11 -24 30 -25 30 -2
39 13 42 73 1 27 -3 42 -10 42 -8 0 -11 15 -10 40 1 25 -3 40 -10 40 -7 0 -10
15 -9 38 0 20 -2 39 -6 42 -4 3 -10 18 -14 33 -5 21 -4 27 5 21 8 -5 9 -3 3 7
-12 19 -14 40 -4 34 5 -3 11 -1 15 5 4 6 10 8 15 5 5 -3 7 3 5 14 -2 12 3 21
16 24 15 4 18 2 10 -7 -6 -7 -6 -17 -1 -26 5 -9 5 -19 -1 -26 -7 -8 -7 -14 0
-18 5 -4 8 -18 5 -32 -3 -15 2 -31 11 -41 9 -8 14 -22 11 -30 -3 -8 -2 -12 3
-9 5 3 11 -1 15 -9 3 -8 0 -15 -6 -15 -7 0 -4 -6 7 -13 10 -8 15 -19 11 -25
-3 -6 -2 -14 4 -17 8 -5 7 -11 -1 -21 -8 -10 -8 -14 0 -14 6 0 11 -5 11 -11 0
-6 -8 -8 -17 -5 -16 5 -16 5 -2 -6 9 -7 14 -19 12 -25 -3 -7 0 -13 5 -13 14 0
9 -64 -7 -83 -9 -11 -10 -17 -2 -17 6 0 11 -5 11 -11 0 -5 -5 -7 -12 -3 -7 4
-8 3 -4 -4 4 -6 7 -36 7 -67 1 -30 5 -52 10 -49 5 3 9 -7 9 -21 0 -14 4 -24 9
-20 14 8 27 -24 30 -75 2 -25 7 -46 12 -48 14 -5 11 -32 -3 -32 -9 0 -8 -4 2
-10 13 -9 13 -11 0 -20 -9 -6 -10 -10 -3 -10 7 0 12 -16 11 -40 0 -27 -4 -38
-12 -33 -6 4 -5 -1 2 -10 8 -9 11 -20 8 -26 -3 -5 0 -12 6 -14 10 -4 10 -6 0
-6 -12 -1 -7 -49 7 -61 3 -3 12 -15 19 -27 10 -19 10 -23 0 -23 -8 0 -9 -3 -3
-8 6 -4 11 -15 12 -24 2 -43 4 -49 12 -44 11 7 9 -13 -3 -33 -6 -10 -5 -12 3
-7 7 5 15 -4 22 -23 6 -17 15 -28 20 -25 5 3 5 -6 -1 -20 -5 -14 -6 -26 -1
-26 9 0 5 -55 -4 -71 -4 -5 0 -9 7 -9 9 0 9 -3 -2 -10 -8 -5 -10 -10 -3 -10 7
0 10 -14 7 -40 -2 -23 0 -39 4 -36 5 3 16 -4 25 -15 10 -11 22 -17 27 -14 6 3
10 1 10 -5 0 -8 6 -8 20 0 19 10 25 6 21 -14 -1 -5 5 -4 13 3 12 10 14 8 12
-13 -2 -15 3 -27 11 -31 9 -3 12 -12 9 -20 -3 -9 0 -15 10 -15 9 0 12 -5 8
-11 -3 -6 -1 -15 7 -19 11 -7 11 -13 0 -34 -8 -14 -18 -23 -24 -19 -5 3 -7 0
-5 -8 3 -8 -3 -26 -13 -40 -10 -14 -16 -29 -12 -32 3 -4 0 -14 -8 -24 -12 -15
-12 -16 1 -8 9 5 7 -1 -5 -15 -11 -13 -14 -20 -6 -15 11 6 13 3 9 -13 -4 -12
-2 -25 4 -28 5 -3 2 -15 -9 -27 -10 -11 -13 -17 -7 -14 9 5 11 -20 10 -91 -1
-68 2 -101 11 -110 7 -8 11 -18 8 -23 -3 -4 1 -19 9 -31 7 -13 12 -35 11 -51
-2 -15 0 -25 6 -22 9 6 10 5 14 -34 1 -13 9 -27 16 -32 12 -7 11 -9 -1 -9 -9
0 -11 -3 -5 -8 6 -4 10 -18 10 -32 -1 -14 3 -28 9 -32 13 -9 9 -80 -5 -89 -7
-4 -9 -14 -6 -23 4 -9 2 -16 -4 -16 -6 0 -7 -4 -4 -10 3 -5 1 -10 -5 -10 -6 0
-9 -4 -5 -9 3 -5 1 -13 -5 -16 -8 -5 -8 -11 0 -20 8 -10 8 -15 0 -20 -8 -5 -8
-10 0 -20 8 -10 8 -15 0 -20 -6 -4 -7 -12 -2 -18 10 -15 9 -57 -2 -76 -6 -10
-5 -12 2 -7 15 9 33 -34 27 -63 -4 -23 18 -28 45 -11 13 9 13 10 0 10 -13 0
-13 1 0 10 8 5 11 10 6 10 -4 0 -2 10 6 22 11 18 12 28 3 45 -7 13 -15 20 -18
17 -4 -4 -2 7 3 25 5 20 5 31 -1 31 -6 0 -3 7 5 16 9 8 13 21 9 27 -3 7 -3 9
2 5 9 -8 55 36 55 53 0 5 7 9 15 9 9 0 12 6 9 15 -4 9 0 15 7 15 9 0 10 3 3 8
-13 9 -13 105 0 114 8 5 7 8 0 8 -13 0 -13 68 0 89 6 10 5 12 -2 7 -16 -10
-15 7 1 23 10 11 9 12 -1 7 -9 -6 -11 -1 -8 18 2 13 0 26 -6 28 -5 2 -11 22
-13 44 -1 22 -8 51 -15 63 -10 19 -10 22 2 15 11 -6 11 -5 -1 9 -7 9 -10 17
-6 17 4 0 2 6 -4 13 -6 8 -8 17 -4 20 3 4 1 7 -5 7 -6 0 -9 6 -6 14 3 7 -2 21
-11 30 -15 15 -12 21 9 17 5 -1 6 5 2 14 -3 9 0 18 7 21 8 3 13 19 12 39 -1
20 3 35 9 35 6 0 5 4 -2 9 -17 11 -17 21 0 32 7 5 8 9 2 9 -6 0 -11 7 -11 15
0 8 5 15 11 15 6 0 4 4 -4 10 -12 8 -12 10 3 16 9 3 14 10 11 15 -3 5 1 9 8 9
10 0 13 11 12 32 -1 18 2 38 7 45 7 7 6 14 -1 18 -6 3 -7 11 -4 17 4 6 2 8 -3
5 -13 -8 -21 10 -18 43 1 14 -3 28 -9 32 -6 4 -11 11 -11 15 -2 28 -63 102
-81 96 -5 -2 -19 4 -29 13 -11 8 -13 12 -5 8 8 -4 -1 7 -20 25 -19 18 -35 37
-35 42 0 5 -5 13 -12 17 -8 5 -9 13 -3 22 5 8 5 21 -1 32 -7 12 -6 18 1 18 6
0 8 5 5 10 -3 6 -2 10 2 10 15 0 9 156 -6 174 -9 10 -10 16 -2 16 6 0 11 5 11
11 0 5 -4 8 -9 5 -5 -3 -7 14 -6 39 2 25 -1 45 -6 45 -13 0 -29 46 -33 96 -2
30 0 42 8 37 6 -3 -4 7 -21 24 -18 16 -30 33 -26 36 3 4 1 7 -6 7 -7 0 -9 4
-6 10 3 5 -3 17 -14 27 -15 13 -17 19 -8 25 9 6 8 10 -3 18 -13 9 -13 10 0 10
13 1 13 2 0 13 -18 15 -23 79 -7 89 9 6 9 8 0 8 -6 0 -10 9 -8 20 2 11 -1 19
-8 17 -15 -3 -16 75 -1 91 7 6 22 12 33 12 11 0 23 5 26 11 4 6 13 8 20 5 7
-2 12 3 11 12 0 10 5 16 13 14 12 -3 12 0 1 12 -10 13 -10 16 0 16 10 0 10 3
0 15 -7 8 -9 15 -4 15 4 0 -1 7 -12 16 -10 8 -13 13 -6 9 6 -3 12 -1 12 4 0 6
-5 11 -11 11 -5 0 -7 5 -4 11 4 6 -10 26 -31 46 -22 19 -33 32 -27 29 8 -5 11
-2 7 8 -7 18 -31 28 -39 16 -4 -6 -11 -10 -16 -10 -6 0 -7 4 -4 10 3 6 2 10
-2 10 -5 0 -14 9 -21 21 -11 17 -11 20 0 14 7 -3 5 0 -5 8 -11 9 -14 18 -8 21
13 8 -7 56 -23 56 -6 0 -4 5 4 10 8 5 11 10 5 10 -5 0 -10 13 -11 30 -1 16 2
27 6 25 4 -2 5 8 3 23 -3 15 -1 23 4 17 10 -13 36 -19 29 -7 -3 5 8 9 24 8 18
-1 30 -6 30 -14 0 -10 4 -9 16 2 8 9 21 13 27 9 7 -3 9 -3 5 1 -4 5 2 18 13
30 16 17 20 33 18 81 -2 52 0 60 15 57 9 -2 30 7 47 19 27 19 29 23 16 37 -14
13 -12 17 13 38 15 13 34 24 41 24 11 0 11 3 -1 10 -10 7 -11 10 -2 10 9 0 9
8 -2 35 -8 19 -12 35 -9 35 4 0 -2 7 -13 15 -12 9 -13 13 -4 10 9 -3 26 4 39
16 18 17 20 23 9 30 -10 7 -10 9 0 9 8 0 10 5 6 12 -5 8 -2 9 9 5 9 -3 16 -3
15 1 -1 4 3 17 10 28 6 12 8 24 5 28 -4 3 9 3 28 0 34 -7 57 -26 39 -32 -6 -2
-6 -10 0 -21 5 -10 6 -21 3 -25 -7 -7 -2 -8 40 -11 17 -1 27 3 27 12 0 8 4 12
9 9 5 -4 11 -2 13 4 2 6 12 12 24 14 21 4 26 -16 11 -41 -4 -6 -2 -13 5 -15
17 -6 19 -38 2 -38 -8 0 -14 -4 -14 -10 0 -5 5 -10 11 -10 6 0 8 -8 4 -19 -4
-14 0 -23 14 -31 17 -8 20 -18 17 -50 -3 -26 0 -40 7 -40 7 0 5 -5 -3 -10 -12
-8 -12 -10 -1 -10 10 0 11 -3 3 -13 -7 -8 -7 -18 -2 -27 5 -8 7 -17 4 -21 -2
-4 1 -11 7 -15 8 -4 9 -3 5 4 -4 7 -2 12 3 12 17 0 13 -18 -6 -29 -17 -10 -17
-12 1 -26 11 -8 15 -15 8 -15 -6 0 -9 -7 -5 -17 5 -12 3 -14 -8 -9 -8 4 -7 1
3 -6 11 -10 13 -19 7 -30 -7 -13 -4 -16 16 -14 40 5 57 24 43 50 -6 11 -15 24
-21 27 -11 8 -20 69 -9 68 34 -5 41 1 31 29 -17 44 -21 75 -8 67 8 -6 8 -2 0
12 -6 11 -7 24 -3 28 4 3 1 5 -7 3 -10 -2 -14 10 -16 49 -1 29 2 50 7 47 10
-6 39 -61 37 -70 0 -4 3 -10 8 -13 5 -3 14 -19 21 -34 7 -15 17 -25 22 -22 6
3 10 -1 10 -10 0 -16 16 -38 35 -46 5 -2 9 -8 7 -12 -1 -5 2 -6 7 -3 5 4 12 2
16 -3 3 -6 12 -8 20 -5 10 4 12 0 8 -15 -3 -12 -9 -23 -13 -26 -10 -6 0 -55
11 -55 5 0 9 -7 9 -15 0 -9 7 -18 15 -21 8 -4 12 -10 9 -15 -3 -5 2 -9 10 -9
9 0 16 -3 16 -8 0 -4 18 -15 40 -25 43 -18 53 -28 19 -20 -19 5 -20 3 -10 -14
5 -11 7 -23 4 -27 -3 -3 0 -6 7 -6 7 0 10 -3 7 -7 -7 -7 30 -36 50 -39 7 -1
11 10 11 27 -1 15 -5 26 -10 23 -4 -3 -8 2 -8 11 0 9 -4 13 -10 10 -5 -3 -10
-1 -10 4 0 6 9 11 19 11 17 0 21 14 11 40 -1 3 -2 9 -1 13 1 5 -3 6 -8 3 -12
-8 -41 3 -41 15 0 5 7 17 15 26 8 10 15 20 14 23 0 3 4 18 10 33 8 21 8 26 -1
21 -8 -5 -9 -2 -5 9 3 10 2 17 -4 17 -6 0 -8 4 -5 8 6 11 -4 24 -33 40 -16 10
-21 10 -16 1 5 -7 3 -10 -6 -7 -8 3 -13 11 -11 17 1 8 -2 9 -10 5 -24 -16 -48
-15 -42 1 4 9 0 15 -9 15 -10 0 -14 9 -12 30 1 17 -2 30 -7 30 -5 0 -7 4 -4 8
3 5 -4 14 -14 22 -10 8 -17 17 -14 22 3 4 0 8 -6 8 -6 0 -8 5 -5 10 3 6 1 10
-6 10 -6 0 -9 8 -6 20 3 11 0 18 -7 17 -6 -1 -11 8 -10 19 0 13 -5 20 -11 18
-7 -3 -11 4 -10 17 1 13 7 25 13 27 7 2 12 12 12 23 0 11 7 19 17 19 13 0 14
3 5 12 -14 14 -16 32 -2 23 6 -4 7 2 1 18 -5 13 -5 30 -1 37 5 8 5 21 0 30 -6
11 -4 24 4 36 14 19 16 25 16 45 0 5 4 8 9 5 4 -3 8 16 7 42 -1 32 -6 51 -19
60 -9 7 -15 18 -12 23 4 5 1 9 -4 9 -6 0 -11 7 -11 16 0 8 -4 13 -9 10 -19
-12 -3 28 17 45 12 9 22 23 22 31 0 10 3 9 10 -2 7 -11 10 -11 10 -2 0 7 4 11
9 8 5 -3 12 1 15 10 3 8 10 12 16 9 6 -4 7 -12 3 -18 -4 -7 1 -6 11 2 9 8 16
10 15 5 -3 -19 1 -34 12 -34 5 0 7 5 4 10 -10 16 1 12 15 -6 11 -12 11 -15 -1
-12 -8 2 -13 -3 -11 -9 1 -7 -3 -13 -8 -13 -15 0 31 -46 53 -53 9 -4 17 -1 17
5 0 15 15 0 15 -15 1 -7 -3 -15 -8 -18 -5 -4 -4 -10 2 -13 6 -4 11 -2 11 4 0
6 5 8 12 4 7 -5 8 -3 2 7 -21 35 -7 60 20 34 8 -8 17 -11 20 -6 9 14 -4 41
-19 41 -7 0 -15 7 -19 15 -3 8 -1 15 4 15 6 0 10 8 10 18 0 14 2 15 10 2 7
-10 10 -11 10 -2 0 7 -9 20 -20 29 -15 14 -17 20 -7 32 8 11 5 11 -9 -2 -21
-17 -28 -47 -12 -47 4 0 8 5 8 12 0 6 3 8 6 5 4 -4 2 -12 -3 -19 -6 -7 -9 -23
-7 -36 3 -14 0 -21 -6 -17 -5 3 -10 -2 -11 -12 0 -10 -3 -13 -6 -5 -2 6 -9 12
-14 12 -6 0 -7 -5 -3 -12 5 -7 3 -8 -6 -3 -10 6 -9 11 5 22 11 7 13 13 7 13
-7 0 -12 6 -12 14 0 8 -5 16 -11 18 -5 2 -7 11 -4 20 4 9 13 14 21 11 8 -3 14
0 14 6 0 6 -7 11 -16 11 -8 0 -13 4 -10 8 3 5 -2 9 -10 9 -8 0 -13 -6 -10 -14
3 -7 1 -13 -4 -13 -6 0 -10 7 -10 15 0 8 -5 15 -11 15 -5 0 -7 -5 -3 -12 4 -7
3 -8 -5 -4 -6 4 -8 13 -4 19 4 7 8 16 8 21 0 5 9 12 20 17 11 4 14 8 8 8 -7 1
-13 10 -13 21 0 11 -4 20 -10 20 -5 0 -10 11 -10 25 0 20 5 25 26 25 14 0 23
4 20 9 -8 13 19 8 37 -7 10 -9 17 -10 22 -2 4 7 12 7 26 0 15 -9 17 -15 9 -30
-13 -24 -13 -33 0 -25 6 3 13 -1 16 -9 3 -9 10 -16 16 -16 10 0 7 32 -5 41 -4
3 -5 13 -1 23 5 13 9 14 20 5 8 -6 11 -16 7 -23 -3 -6 -2 -7 2 -3 13 11 15 38
3 31 -6 -4 -9 -1 -6 6 6 18 38 21 45 4 3 -8 9 -12 13 -9 4 3 10 -2 14 -10 3
-8 2 -15 -2 -15 -4 0 -9 -11 -10 -24 -1 -18 3 -24 16 -22 9 2 17 11 17 22 0
12 6 18 15 15 36 -8 46 -8 57 1 9 8 15 4 22 -13 5 -13 10 -20 10 -16 1 12 31
-19 31 -32 0 -6 -6 -11 -12 -11 -9 0 -8 -4 2 -10 11 -7 19 -5 31 9 10 13 20
16 30 11 7 -5 18 -5 25 1 12 10 47 2 40 -10 -3 -4 16 -6 41 -5 29 2 50 8 55
18 6 11 15 13 31 7 13 -5 30 -5 39 0 11 6 19 5 23 -1 4 -6 10 -8 14 -6 4 3 6
-12 4 -32 -2 -20 0 -32 3 -25 3 7 12 9 20 6 8 -3 14 0 14 6 0 16 30 13 36 -4
4 -8 10 -15 16 -15 5 0 6 6 2 13 -5 7 -1 6 10 -3 25 -19 36 -53 22 -62 -7 -5
-5 -8 7 -8 9 0 17 -4 17 -10 0 -5 9 -10 20 -10 11 0 20 -4 20 -10 0 -5 7 -10
16 -10 8 0 12 -4 9 -10 -3 -6 1 -7 9 -4 9 3 16 1 16 -5 0 -6 7 -8 17 -4 12 5
14 3 8 -7 -5 -9 -4 -11 4 -6 6 4 23 1 36 -8 18 -12 25 -12 28 -3 3 7 6 4 6 -6
1 -10 6 -15 11 -12 6 3 10 2 10 -4 0 -6 6 -8 14 -5 8 3 17 0 21 -5 3 -6 11 -9
16 -6 5 4 9 1 9 -5 0 -6 5 -8 10 -5 6 3 10 1 10 -5 0 -6 5 -8 10 -5 6 3 10 1
10 -5 0 -6 5 -8 10 -5 9 6 14 -8 11 -28 -1 -5 3 -6 9 -2 5 3 10 2 10 -2 0 -15
58 -72 66 -65 5 4 2 -2 -6 -12 -8 -11 -10 -17 -3 -13 6 4 17 2 25 -5 7 -7 20
-14 28 -16 26 -6 37 -21 34 -47 -1 -14 1 -23 6 -20 4 3 18 -8 31 -24 13 -16
27 -27 31 -25 4 3 8 0 8 -6 0 -6 5 -8 10 -5 6 3 10 1 10 -5 0 -7 7 -10 15 -6
9 3 19 -3 25 -15 6 -11 15 -17 21 -14 5 4 9 2 9 -3 0 -6 12 -13 28 -17 30 -7
65 -39 54 -50 -4 -4 -2 -5 3 -3 15 5 56 -28 47 -38 -4 -4 1 -2 11 5 16 13 19
12 24 -7 3 -12 12 -22 20 -22 8 0 11 -4 8 -10 -3 -5 -1 -10 6 -10 7 0 10 -3 6
-6 -3 -4 0 -13 8 -20 17 -17 67 -15 61 3 -3 6 0 13 6 15 6 2 4 11 -6 21 -10 9
-14 17 -9 17 4 0 0 5 -10 11 -9 6 -15 14 -12 19 3 4 -3 6 -13 3 -13 -3 -28 7
-47 29 -15 18 -30 32 -31 31 -11 -8 -25 1 -60 35 -22 22 -45 37 -51 35 -7 -3
-13 3 -13 12 0 15 -3 15 -16 5 -13 -11 -16 -10 -21 9 -3 13 -9 18 -12 12 -5
-7 -14 -5 -27 7 -10 10 -27 21 -37 25 -17 6 -17 8 0 34 10 15 13 24 7 20 -7
-4 -17 0 -24 9 -7 8 -20 12 -28 9 -8 -3 -16 3 -19 15 -3 11 -9 17 -14 14 -5
-3 -9 0 -9 5 0 6 -3 10 -7 10 -21 -3 -33 3 -33 16 0 9 -8 19 -17 22 -24 9 -43
29 -36 37 4 3 1 6 -6 6 -7 0 -10 4 -7 9 3 5 -1 12 -10 15 -8 3 -13 10 -9 15 3
6 -6 8 -21 5 -21 -4 -25 -2 -20 11 4 13 2 14 -14 5 -16 -9 -20 -8 -20 5 0 9
-7 15 -17 13 -10 -2 -19 4 -21 15 -2 10 3 17 11 17 13 0 21 29 8 31 -3 0 -14
2 -24 4 -16 3 -18 -1 -12 -22 6 -24 4 -25 -22 -19 -15 4 -32 13 -38 20 -5 7
-22 12 -37 11 -15 -1 -29 4 -32 12 -3 7 -12 13 -21 13 -8 0 -15 5 -15 11 0 5
-4 8 -9 4 -5 -3 -12 -1 -15 4 -9 13 25 23 39 11 6 -5 15 -7 18 -3 4 3 7 -1 7
-9 0 -20 17 -25 58 -18 l34 5 -22 28 c-12 15 -30 27 -40 27 -11 0 -24 9 -30
20 -6 12 -21 20 -35 20 -14 0 -25 5 -25 11 0 5 -4 7 -10 4 -5 -3 -10 0 -10 7
0 11 -2 10 -9 0 -7 -11 -9 -11 -14 1 -3 9 -16 13 -31 12 -14 -2 -29 2 -33 7
-4 7 -1 8 7 3 9 -6 11 -4 6 4 -5 7 -14 10 -22 7 -9 -3 -14 1 -14 12 0 13 -2
14 -9 3 -6 -9 -11 -10 -15 -2 -4 6 -12 9 -17 6 -5 -4 -9 1 -9 10 0 9 -4 13
-10 10 -5 -3 -10 -1 -10 6 0 7 -3 9 -6 6 -4 -4 -15 3 -25 15 -11 11 -19 16
-19 9 0 -9 -4 -8 -14 1 -10 9 -11 18 -5 31 8 13 6 17 -11 17 -11 0 -28 9 -37
20 -19 22 -33 26 -33 9 0 -5 4 -8 8 -5 5 3 9 -2 9 -11 0 -12 -5 -11 -19 7 -17
21 -23 19 -18 -5 1 -5 -2 -6 -6 -2 -14 13 -13 35 2 41 8 3 14 13 14 22 0 9 6
14 13 11 7 -3 18 3 24 12 11 18 63 27 63 11 0 -6 5 -10 11 -10 5 0 7 5 3 12
-4 7 -3 8 4 4 8 -5 5 -17 -11 -39 -12 -18 -26 -35 -30 -38 -12 -9 19 -30 53
-36 29 -4 31 -3 20 16 -6 12 -7 21 -3 21 4 0 2 4 -5 9 -11 7 -10 9 3 14 9 4
13 3 10 -3 -3 -6 1 -10 10 -10 16 0 14 9 -9 39 -13 17 -17 43 -5 35 5 -3 7 -9
4 -14 -3 -4 3 -14 12 -21 14 -12 16 -12 11 2 -4 11 0 15 15 15 14 -1 23 6 25
19 2 16 1 17 -7 5 -9 -13 -11 -12 -11 3 0 10 -4 16 -9 12 -5 -3 -16 2 -24 10
-20 20 -28 19 -20 -2 6 -15 5 -16 -9 -3 -9 8 -13 19 -10 24 3 5 -6 7 -20 4
-28 -5 -59 26 -35 35 7 3 2 6 -11 6 -32 1 -55 24 -39 40 9 9 7 11 -8 5 -19 -6
-19 -6 -2 7 19 15 14 54 -6 42 -6 -4 -7 -1 -2 7 6 10 12 7 26 -11 10 -13 19
-19 19 -13 0 6 13 9 31 6 21 -3 34 1 44 14 9 12 14 14 15 6 0 -9 7 -11 21 -7
16 5 20 3 17 -6 -3 -8 -14 -14 -25 -14 -12 0 -25 -3 -29 -7 -3 -4 4 -5 17 -3
22 4 23 3 6 -9 -14 -11 -15 -15 -4 -19 9 -3 19 5 26 21 8 17 15 22 20 14 5 -9
12 -8 27 3 19 15 19 15 -1 8 -18 -6 -18 -5 -6 10 12 15 12 17 0 14 -8 -2 -11
-2 -6 0 4 3 4 9 1 15 -4 6 3 5 15 -1 16 -9 21 -9 19 0 -4 15 58 23 67 9 4 -6
-1 -7 -12 -3 -15 6 -16 5 -3 -9 15 -15 45 -14 35 2 -3 4 2 11 11 14 8 3 12 2
9 -4 -3 -6 1 -10 9 -10 8 0 18 5 22 11 3 6 17 9 30 6 15 -2 24 1 24 8 0 19 81
13 104 -7 11 -10 22 -15 25 -12 3 3 1 8 -5 12 -12 8 -16 55 -4 47 5 -3 12 0
15 6 4 5 14 8 22 5 8 -3 11 -2 8 3 -3 5 -1 12 4 15 5 3 11 -1 14 -8 3 -8 16
-20 28 -26 17 -10 20 -9 14 1 -6 9 -2 11 13 7 12 -4 20 -2 17 2 -3 5 4 8 15 7
11 -1 20 -6 20 -12 0 -5 5 -3 10 5 9 13 10 13 10 0 0 -12 2 -12 9 -1 6 9 11
10 15 3 4 -6 13 -9 21 -6 8 4 13 10 10 14 -3 4 6 10 20 12 14 3 22 1 18 -4 -3
-6 4 -5 15 1 16 9 23 7 36 -12 10 -14 14 -16 10 -4 -4 9 -2 17 2 18 5 0 19 2
32 5 12 2 22 -1 22 -7 0 -8 4 -8 14 0 9 7 17 8 20 2 7 -11 24 -9 51 7 23 13
24 13 -35 17 -63 4 -64 4 -57 12 4 3 2 12 -4 19 -6 8 -6 14 0 18 5 4 12 2 16
-3 3 -6 13 -7 22 -4 11 4 14 3 9 -6 -6 -9 -1 -10 18 -5 18 4 28 2 31 -8 3 -8
14 -14 25 -15 11 -1 17 3 14 11 -3 7 2 13 10 13 8 0 12 -5 9 -11 -4 -6 0 -5 9
1 8 7 18 10 21 6 4 -3 7 -2 8 3 0 5 2 17 4 27 2 9 -1 15 -6 11 -5 -3 -9 1 -9
8 0 8 -3 9 -8 3 -4 -5 -26 -11 -49 -11 -36 -1 -43 2 -43 17 0 22 35 45 45 29
4 -6 12 -7 18 -3 7 4 21 9 32 10 11 2 22 8 23 13 2 6 8 7 14 4 5 -3 17 2 27
12 15 16 15 21 4 29 -10 7 -2 10 29 10 25 0 48 6 54 14 9 11 15 11 33 1 19
-10 26 -9 40 5 15 15 15 16 -3 9 -13 -5 -17 -4 -12 4 4 7 1 12 -8 12 -18 0
-20 9 -6 30 8 13 10 13 10 1 0 -11 4 -10 16 5 8 10 13 12 9 4 -5 -12 -4 -12 7
1 9 11 20 14 33 9 11 -4 27 -4 36 1 9 5 20 5 24 1 5 -4 5 -1 0 7 -6 11 -3 13
13 9 12 -4 22 -2 22 4 0 5 5 6 11 2 16 -9 98 -11 92 -1 -2 4 1 7 7 7 6 0 13
-7 17 -16 4 -11 8 -12 13 -4 4 7 13 11 20 8 7 -2 -2 -11 -21 -21 -20 -9 -35
-12 -37 -6 -3 6 -10 5 -19 -2 -11 -10 -16 -10 -22 0 -7 10 -13 10 -30 2 -12
-7 -27 -9 -34 -5 -6 5 -5 -1 3 -11 14 -17 14 -18 -7 -7 -14 8 -24 9 -28 2 -4
-6 -9 -8 -13 -6 -9 5 -36 -16 -39 -29 -1 -6 10 -11 23 -11 27 -2 30 6 12 25
-11 10 -8 10 12 3 14 -5 55 -8 93 -8 37 1 67 -2 67 -7 0 -5 7 -2 15 7 8 8 24
17 34 21 11 3 22 13 25 21 3 8 2 12 -4 9 -6 -3 -10 3 -10 14 0 11 5 23 10 26
6 4 8 10 6 14 -3 4 1 8 9 8 8 0 11 -5 8 -10 -4 -6 -1 -7 8 -1 8 4 24 9 36 10
12 0 29 7 38 14 14 12 18 11 26 -1 5 -8 9 -12 10 -9 0 3 2 15 5 28 2 14 0 21
-6 17 -5 -3 -10 -2 -10 3 0 5 -15 9 -34 9 -19 -1 -33 -4 -30 -8 4 -7 -34 -22
-48 -20 -5 1 -8 -4 -8 -10 0 -5 -6 -7 -12 -3 -17 11 -81 5 -89 -8 -3 -5 -20
-7 -38 -5 -17 3 -31 1 -31 -4 0 -6 -4 -8 -9 -4 -5 3 -13 1 -16 -5 -5 -8 -11
-8 -20 0 -8 6 -16 7 -19 2 -3 -5 -17 -9 -31 -9 -14 0 -22 4 -18 10 4 6 1 7 -8
1 -8 -4 -22 -10 -32 -11 -10 -2 -28 -10 -41 -18 -21 -14 -24 -13 -46 10 -26
28 -65 33 -74 9 -3 -8 -11 -12 -17 -8 -8 4 -9 3 -5 -4 4 -7 2 -12 -4 -12 -6 0
-9 -4 -5 -9 3 -5 -2 -17 -12 -26 -14 -14 -18 -15 -27 -4 -6 8 -22 16 -36 17
-14 2 -27 8 -29 13 -1 6 -10 2 -18 -8 -8 -10 -12 -13 -8 -6 4 8 -3 8 -22 -2
-15 -8 -30 -11 -33 -7 -6 10 -21 9 -37 -1 -7 -5 -13 -5 -13 0 0 4 -4 1 -10 -7
-8 -12 -10 -12 -16 3 -5 15 -9 15 -22 5 -12 -10 -14 -10 -8 0 4 7 1 12 -8 12
-9 0 -16 -6 -17 -12 0 -7 -4 -4 -9 7 -8 19 -9 19 -9 -2 -1 -13 -4 -23 -8 -23
-13 1 -43 27 -38 32 3 3 -3 11 -12 19 -17 13 -17 13 -3 -5 14 -18 13 -19 -2
-13 -12 4 -15 2 -12 -7 8 -22 -13 -28 -31 -10 -9 9 -19 14 -22 10 -3 -3 -12
-1 -20 5 -7 6 -13 8 -13 3 0 -5 -5 -2 -10 6 -8 13 -10 12 -10 -4 0 -16 -6 -18
-45 -14 -24 3 -43 2 -40 -2 2 -3 -2 -7 -10 -7 -8 0 -15 5 -15 10 0 5 -8 6 -17
2 -28 -11 -57 -11 -65 0 -5 6 -8 6 -8 -2 0 -7 -7 -10 -15 -7 -8 4 -21 2 -28
-4 -8 -7 -18 -6 -31 4 -11 8 -25 14 -30 14 -6 0 -4 -5 4 -10 13 -9 13 -10 0
-11 -8 -1 -19 -3 -25 -3 -5 -1 -17 -6 -25 -11 -13 -8 -68 -16 -113 -16 -9 0
-15 -4 -13 -8 4 -6 -54 -7 -106 -2 -5 1 -8 8 -8 17 0 8 4 13 9 9 5 -3 13 0 17
6 4 8 9 7 15 -2 6 -10 9 -11 9 -1 0 6 7 12 15 12 8 0 15 4 15 9 0 5 9 12 20
16 11 3 19 9 19 13 -3 19 15 51 25 46 6 -3 3 1 -6 9 -10 8 -18 20 -18 26 0 31
-45 50 -62 26 -8 -10 -12 16 -8 44 1 9 -4 12 -14 8 -15 -6 -21 8 -17 41 2 14
-18 18 -66 12 -11 -1 -13 -3 -5 -7 6 -2 12 -9 12 -14 0 -6 -6 -7 -12 -3 -7 4
-4 -3 7 -16 l20 -23 -22 12 c-24 12 -45 15 -26 3 17 -11 24 -70 9 -76 -7 -3
-7 -5 2 -5 6 -1 12 -6 12 -11 0 -6 -3 -9 -7 -8 -11 4 -15 -5 -9 -22 13 -41 13
-72 0 -77 -8 -3 -12 -9 -9 -13 7 -11 -28 -7 -36 4 -4 5 -12 5 -18 1 -9 -5 -7
-11 6 -21 17 -13 17 -13 -5 -14 -27 0 -44 36 -30 63 7 14 13 16 23 7 10 -8 12
-4 11 19 -1 29 -9 33 -35 17 -9 -6 -12 -5 -8 1 4 6 0 13 -8 16 -10 4 -12 1 -9
-11 5 -14 4 -14 -4 -3 -8 12 -15 9 -36 -15 -22 -24 -27 -27 -36 -14 -12 18 -7
36 9 32 6 -1 11 2 11 8 0 6 3 9 8 8 13 -3 56 14 77 31 20 16 20 16 0 -9 l-20
-25 28 24 c15 14 25 26 22 29 -2 3 0 13 5 23 7 11 7 20 0 24 -5 3 -7 12 -3 20
3 8 0 15 -7 15 -6 0 -8 5 -5 10 3 6 -2 10 -12 10 -14 0 -15 2 -4 9 11 7 11 14
-2 40 -9 17 -12 29 -7 26 4 -3 10 2 14 10 6 16 -3 19 -28 9 -9 -3 -16 -14 -17
-23 0 -10 -2 -11 -6 -3 -2 6 -13 12 -24 12 -10 0 -19 4 -19 8 0 5 -7 9 -15 9
-8 0 -12 -4 -9 -9 3 -4 0 -8 -5 -8 -10 0 -15 20 -12 47 1 6 -3 14 -9 18 -13 8
-13 25 1 25 5 0 7 -6 3 -12 -4 -8 -3 -10 2 -5 5 5 9 14 9 20 0 7 8 11 18 9 9
-2 17 2 17 8 0 14 33 13 48 -2 9 -10 16 -9 29 4 15 16 15 17 -7 11 -16 -4 -21
-3 -16 5 4 7 16 12 27 12 23 0 25 15 3 24 -8 3 -13 2 -10 -3 3 -4 -6 -13 -20
-20 -36 -16 -40 -14 -13 7 21 18 21 20 7 41 l-16 23 -12 -21 c-6 -12 -15 -19
-19 -16 -5 2 -11 -4 -14 -15 -3 -11 -13 -20 -22 -20 -10 0 -13 5 -9 12 5 7 2
9 -8 6 -8 -4 -15 -1 -15 7 0 7 8 12 19 10 10 -2 18 0 18 6 0 5 6 8 13 7 6 -2
11 3 9 10 -1 8 2 11 7 8 11 -7 71 22 71 35 0 17 -51 14 -62 -4 -6 -9 -8 -8 -8
1 0 7 -4 10 -10 7 -5 -3 -10 0 -10 8 0 8 -7 18 -16 21 -12 4 -14 1 -9 -14 4
-12 2 -20 -5 -20 -6 0 -8 -5 -4 -12 4 -7 3 -8 -4 -4 -7 4 -12 3 -12 -2 0 -5
-11 -7 -25 -4 -14 2 -25 8 -25 12 0 12 30 21 42 13 7 -3 8 -1 4 5 -4 6 -2 20
3 30 17 31 -34 21 -62 -12 -22 -26 -25 -26 -40 -11 -13 12 -14 21 -7 35 13 25
33 36 38 22 2 -7 11 -12 19 -12 10 0 13 6 9 15 -7 19 23 33 33 17 4 -6 23 -11
44 -10 45 2 54 26 18 50 -23 16 -27 16 -43 1 -15 -13 -18 -14 -18 -2 0 21 37
51 44 36 3 -8 5 -8 5 2 1 10 4 11 14 2 11 -8 14 -4 14 22 0 28 -4 32 -24 31
-13 0 -29 -6 -36 -14 -9 -10 -9 -11 0 -6 9 5 11 2 7 -8 -3 -9 -10 -13 -15 -10
-5 3 -9 2 -8 -3 4 -16 -13 -63 -21 -58 -5 3 -15 -2 -24 -10 -9 -9 -17 -11 -21
-5 -3 5 -4 10 -1 10 3 0 -3 9 -14 20 -20 20 -36 27 -26 12 2 -4 -7 -13 -21
-19 -14 -7 -23 -10 -20 -7 3 4 0 13 -8 21 -8 8 -15 20 -14 26 0 8 2 8 6 -1 4
-10 8 -10 21 0 14 11 15 10 8 -7 -5 -14 -4 -17 4 -9 7 7 6 22 -4 50 -8 21 -15
31 -15 22 -1 -9 -5 -19 -10 -22 -5 -4 -7 2 -4 13 5 18 -15 33 -47 35 -9 1 -15
10 -14 24 0 15 -3 19 -10 12 -16 -16 -16 -43 -1 -60 12 -14 12 -16 -3 -16 -14
0 -19 9 -21 36 -1 19 -6 37 -11 38 -6 2 -10 14 -10 27 0 12 -7 26 -16 29 -8 3
-12 11 -9 16 5 8 11 8 20 0 10 -8 15 -8 21 1 5 8 3 9 -6 4 -9 -5 -11 -4 -6 3
10 16 58 11 52 -5 -3 -7 4 -17 14 -23 11 -6 20 -8 20 -4 0 3 7 1 15 -6 12 -10
15 -10 15 0 0 8 3 10 7 7 3 -4 12 -2 20 4 10 9 13 8 13 -2 0 -12 2 -12 9 -1 7
11 13 9 30 -9 11 -12 21 -17 21 -11 0 8 11 10 33 7 26 -5 30 -4 20 6 -16 16
-17 33 -1 23 7 -5 8 -3 3 7 -14 21 -14 50 0 39 7 -6 11 -3 12 11 1 11 -2 17
-7 14 -4 -3 -11 2 -14 11 -9 23 -7 31 3 16 6 -10 10 -7 13 11 5 25 4 25 -17 9
-13 -9 -21 -20 -18 -24 2 -5 1 -8 -2 -8 -3 0 -11 14 -16 30 -10 26 -24 35 -51
31 -4 0 -5 6 -2 14 4 8 10 12 15 9 14 -8 11 6 -5 21 -12 12 -15 12 -20 -1 -4
-10 -2 -13 6 -8 7 4 8 3 4 -5 -6 -9 -11 -9 -21 -1 -15 12 -96 20 -89 8 2 -3
-6 -14 -18 -23 -13 -8 -22 -18 -21 -20 2 -3 -5 -21 -14 -40 -15 -31 -25 -40
-36 -32 -2 1 -10 -3 -18 -9 -19 -16 -33 1 -37 44 -1 24 1 32 10 27 7 -4 5 0
-4 8 -10 8 -18 16 -18 19 0 11 65 6 72 -5 6 -9 8 -8 8 2 0 11 4 9 15 -5 11
-13 14 -14 13 -4 -4 21 -30 39 -48 32 -13 -5 -13 -4 0 13 14 17 13 17 -8 11
-21 -7 -22 -6 -11 12 15 23 4 56 -15 49 -8 -3 -17 1 -20 9 -4 10 -2 13 7 8 9
-5 9 -4 0 6 -15 16 10 45 28 34 8 -4 9 -3 5 4 -4 7 -3 12 3 12 6 0 8 7 5 15
-4 9 0 15 9 15 16 0 30 27 21 41 -3 5 0 9 6 9 6 0 8 5 4 12 -4 6 -3 8 4 4 6
-3 18 1 27 10 9 9 18 14 21 11 8 -8 44 25 38 35 -3 4 2 5 10 2 9 -3 16 -10 16
-15 0 -6 8 -6 18 0 13 7 22 7 30 -1 8 -8 10 -5 8 8 -2 13 -10 18 -25 16 -20
-2 -21 0 -7 13 8 8 22 15 30 15 9 0 16 5 16 10 0 6 7 10 16 10 8 0 13 4 10 9
-3 5 5 11 18 13 21 4 24 1 23 -32 0 -20 -7 -42 -14 -49 -7 -6 -13 -8 -13 -4 0
4 -5 1 -10 -7 -5 -8 -15 -15 -21 -15 -21 0 -19 -37 3 -43 14 -3 16 -7 7 -13
-10 -6 -10 -10 0 -23 18 -21 4 -41 -17 -24 -13 11 -14 11 -7 -1 6 -11 4 -13
-8 -8 -11 4 -15 1 -12 -14 4 -18 -11 -25 -39 -20 -5 1 -6 -8 -3 -20 3 -11 3
-18 0 -15 -3 3 -14 1 -24 -5 -11 -5 -19 -6 -20 -2 -3 35 -19 72 -19 45 0 -6
-7 -9 -15 -6 -11 5 -14 0 -11 -17 2 -16 9 -23 20 -21 10 2 14 -2 10 -11 -3 -8
2 -22 11 -31 9 -9 13 -21 9 -28 -4 -7 2 -5 13 5 11 9 23 14 26 10 4 -3 7 -1 7
5 0 7 7 12 16 12 10 0 14 6 11 14 -4 10 -1 13 8 9 8 -3 12 -10 8 -16 -12 -20
39 21 55 45 15 21 15 22 0 10 -13 -10 -18 -10 -24 -1 -4 7 -3 9 3 6 5 -3 16 3
23 13 11 16 17 17 29 7 11 -9 13 -9 8 0 -9 14 50 46 67 36 6 -3 8 -3 4 2 -11
11 29 38 44 29 7 -4 8 -3 4 4 -4 7 -2 12 3 12 6 0 9 10 8 22 -3 15 -11 22 -30
22 -14 1 -24 -1 -21 -5 5 -9 -27 -22 -34 -14 -3 3 0 11 6 17 9 9 8 16 -3 28
-13 14 -13 19 1 38 16 23 44 30 44 11 0 -5 5 -7 12 -3 6 4 9 3 5 -2 -3 -5 1
-20 9 -34 8 -16 14 -19 14 -10 1 10 4 9 9 -4 9 -23 47 -28 62 -9 6 7 16 10 23
6 6 -3 8 -3 4 2 -8 9 45 65 62 65 5 0 9 6 8 13 -2 7 6 12 19 11 12 0 20 3 17
8 -3 4 0 8 5 8 6 0 11 6 11 14 0 9 7 13 20 11 11 -2 20 1 20 6 0 6 4 8 9 4 5
-3 12 -1 15 4 3 5 15 7 26 4 12 -3 20 -1 18 5 -2 6 6 18 17 26 17 13 18 17 5
25 -10 7 -17 6 -22 -2 -6 -9 -8 -9 -8 1 0 10 -4 10 -22 0 -13 -7 -26 -11 -30
-10 -4 1 -17 -6 -28 -15 -13 -12 -16 -21 -9 -29 7 -8 -1 -11 -31 -10 -22 1
-40 -2 -40 -6 0 -4 -6 -8 -14 -8 -8 0 -17 -7 -20 -16 -3 -8 -11 -12 -17 -8 -7
4 -10 3 -7 -2 8 -12 -17 -35 -28 -26 -4 4 -4 2 -1 -4 4 -6 -3 -20 -15 -30 -12
-11 -18 -13 -14 -6 4 7 1 12 -8 12 -9 0 -16 7 -16 15 0 13 -6 17 -26 14 -4 0
-11 5 -15 13 -5 7 -9 8 -9 2 0 -6 -7 -11 -15 -11 -8 0 -15 8 -15 17 0 9 -9 25
-20 35 -11 10 -20 25 -20 33 0 10 -8 13 -30 10 -17 -3 -30 0 -30 6 0 5 -6 2
-14 -9 -8 -12 -20 -16 -35 -12 -11 3 -19 1 -16 -3 9 -14 -94 -113 -110 -106
-8 3 -17 0 -21 -6 -5 -7 -2 -8 6 -3 9 5 11 4 6 -3 -4 -7 -16 -12 -27 -12 -10
0 -19 -4 -19 -10 0 -5 -5 -10 -11 -10 -5 0 -7 6 -4 13 4 6 -1 3 -10 -8 -9 -11
-23 -19 -31 -17 -8 2 -14 -2 -14 -8 0 -6 -4 -8 -10 -5 -5 3 -10 2 -10 -4 0 -6
-6 -8 -14 -5 -8 3 -23 -4 -33 -15 -9 -12 -25 -21 -35 -21 -10 0 -18 -5 -18
-11 0 -5 -4 -7 -10 -4 -6 4 -7 -1 -3 -11 3 -10 2 -15 -3 -12 -5 4 -9 -8 -9
-25 0 -19 -5 -31 -11 -30 -7 1 -10 -6 -7 -17 3 -12 -3 -23 -21 -32 -13 -7 -25
-17 -25 -21 0 -13 -28 -37 -35 -30 -3 4 -6 -1 -6 -11 0 -9 -11 -21 -25 -28
-13 -6 -22 -15 -18 -21 3 -6 1 -7 -5 -3 -6 3 -17 0 -25 -8 -8 -8 -17 -13 -20
-10 -3 3 -10 -4 -17 -15 -6 -12 -18 -21 -28 -21 -15 0 -15 -2 -2 -10 11 -7 8
-9 -14 -8 -15 2 -31 8 -33 15 -3 7 -9 10 -14 7 -5 -3 -9 2 -9 10 0 14 19 21
43 17 5 -1 6 3 3 8 -8 13 31 20 43 8 8 -8 11 -7 11 2 0 7 5 9 10 6 6 -3 10 -1
10 4 0 6 -5 11 -11 11 -5 0 -7 6 -3 13 5 9 4 9 -6 0 -10 -9 -18 -9 -34 -1 -19
10 -20 10 -7 -5 19 -24 -4 -22 -28 2 -11 11 -21 18 -23 16 -2 -2 -4 5 -5 15
-1 11 3 20 9 20 7 0 7 4 0 13 -9 10 -6 13 13 15 47 3 55 5 55 13 0 5 7 5 17 2
12 -5 14 -3 8 7 -5 9 -4 11 3 6 7 -4 12 -14 12 -21 0 -9 6 -12 17 -8 12 5 14
3 8 -7 -5 -9 -4 -11 4 -6 7 5 8 13 4 19 -14 19 -16 67 -3 67 6 0 10 6 8 13 -6
35 33 91 59 82 6 -2 17 3 24 11 10 12 14 12 20 2 7 -10 9 -9 9 4 0 12 6 16 21
13 12 -3 19 -2 16 1 -3 3 2 14 11 23 13 13 22 15 36 8 12 -6 16 -6 12 1 -3 5
3 21 14 33 11 13 20 20 19 14 -3 -23 2 -31 19 -31 10 0 19 6 19 13 0 7 -5 13
-11 13 -6 0 -4 5 4 10 10 6 11 10 3 10 -7 0 -13 9 -13 19 0 11 -6 21 -12 24
-18 6 -69 -13 -63 -23 3 -5 -6 -21 -20 -37 -14 -17 -24 -22 -25 -14 0 9 -9 5
-23 -11 -20 -21 -32 -25 -68 -24 -24 2 -46 -1 -49 -5 -8 -12 -55 -18 -70 -9
-9 6 -8 10 6 19 11 6 15 11 11 11 -5 0 1 13 12 29 12 16 21 36 21 45 0 9 8 16
18 17 9 0 12 3 5 5 -7 3 -9 12 -6 20 3 9 -1 14 -12 14 -11 0 -15 5 -11 15 4
12 2 13 -14 3 -12 -8 -15 -15 -9 -19 12 -7 -13 -19 -42 -19 -10 0 -18 -3 -17
-7 1 -5 -4 -19 -12 -33 -7 -14 -14 -27 -14 -30 -1 -3 -4 -4 -8 -3 -4 2 -5 -4
-1 -13 3 -9 0 -20 -8 -25 -8 -4 -14 -14 -14 -21 -1 -7 -7 -12 -14 -10 -7 1
-10 -2 -6 -8 3 -5 -1 -13 -9 -16 -9 -3 -13 -10 -10 -15 7 -12 -62 -79 -72 -71
-4 4 -4 2 -1 -5 4 -6 1 -18 -7 -26 -8 -8 -12 -18 -8 -22 4 -5 0 -6 -10 -2 -11
4 -15 1 -14 -11 2 -9 -8 -26 -22 -39 -14 -13 -22 -23 -18 -23 4 0 2 -9 -4 -20
-6 -11 -15 -18 -21 -15 -5 4 -9 -2 -9 -11 0 -10 -8 -26 -17 -37 -13 -15 -14
-18 -3 -13 8 5 2 -3 -14 -18 -32 -29 -41 -33 -30 -13 6 10 4 10 -7 0 -7 -7
-17 -13 -22 -13 -4 0 -5 6 -1 13 5 9 4 9 -6 0 -11 -10 -11 -15 1 -29 13 -16
12 -16 -7 -6 -19 10 -21 9 -19 -11 0 -12 -2 -30 -7 -39 -5 -10 -4 -20 4 -24 6
-4 8 -3 5 2 -3 6 -1 16 4 24 7 12 8 11 6 -5 -1 -11 -6 -26 -10 -32 -5 -8 -3
-13 3 -13 6 0 8 -5 5 -10 -4 -6 -11 -7 -17 -4 -7 5 -9 1 -5 -8 3 -10 -3 -24
-16 -35 -20 -16 -20 -16 -8 0 20 26 21 165 1 177 -8 5 -11 10 -6 10 5 0 1 10
-10 22 -12 13 -13 18 -4 13 12 -7 13 -6 3 6 -10 12 -10 18 0 29 7 8 8 10 1 7
-7 -4 -17 6 -24 23 -7 16 -16 28 -20 25 -4 -3 -10 2 -13 9 -8 20 -49 16 -55
-6 -2 -9 -16 -18 -31 -20 -19 -2 -25 -8 -23 -21 2 -14 -3 -17 -25 -14 -18 2
-29 10 -31 23 -3 16 -1 17 8 4 10 -12 11 -12 5 5 -4 11 -8 25 -8 31 0 13 -28
15 -43 2 -7 -5 -9 -19 -6 -31 3 -12 1 -19 -3 -14 -5 4 -17 -1 -27 -10 -13 -12
-18 -13 -16 -4 4 17 -28 23 -40 8 -6 -8 0 -24 15 -46 18 -26 23 -30 24 -15 0
18 1 18 9 -1 5 -11 9 -14 9 -7 1 6 7 12 15 12 8 0 16 5 18 12 2 6 11 12 19 13
19 3 22 -34 3 -42 -7 -3 -12 -9 -9 -13 3 -5 1 -11 -5 -15 -6 -4 -8 -11 -5 -16
3 -5 -1 -6 -9 -3 -9 3 -13 11 -9 18 5 7 2 7 -8 -1 -12 -10 -18 -8 -32 7 -9 11
-17 24 -17 30 0 5 -4 12 -10 15 -6 4 -7 -1 -3 -12 6 -15 4 -16 -9 -6 -8 7 -17
11 -19 8 -3 -2 -11 6 -18 18 -13 21 -13 21 4 7 17 -13 18 -13 13 1 -4 9 -2 21
4 27 6 6 6 12 -1 16 -5 4 -8 13 -4 21 3 8 1 15 -4 15 -11 0 -11 29 0 46 3 6 3
14 0 18 -10 10 -13 37 -3 31 6 -4 21 30 19 44 0 2 5 8 13 12 10 7 9 9 -5 9
-10 0 -16 4 -12 9 11 18 -36 7 -53 -13 -9 -11 -11 -16 -4 -12 8 5 12 1 12 -12
0 -14 -7 -19 -22 -18 -17 1 -23 7 -22 24 1 21 0 22 -16 7 -10 -9 -17 -24 -15
-33 2 -9 4 -19 4 -21 1 -3 6 0 13 7 9 9 14 7 24 -6 18 -23 19 -76 2 -66 -9 6
-9 3 0 -9 10 -12 11 -21 3 -34 -8 -14 -11 -15 -11 -3 -1 10 -4 7 -10 -6 -6
-16 -15 -20 -39 -16 -26 3 -30 1 -28 -17 1 -13 8 -21 20 -21 11 0 15 -4 11
-12 -5 -8 -2 -9 10 -5 10 4 15 3 11 -3 -3 -5 4 -14 15 -20 24 -13 25 -20 5
-46 -14 -18 -14 -17 -5 10 10 27 9 28 -7 15 -15 -12 -16 -12 -10 4 5 14 -4 23
-15 15 -2 -1 -14 5 -28 12 -22 12 -24 12 -12 -2 10 -13 10 -18 1 -24 -7 -4 -9
-3 -6 3 4 6 0 14 -9 17 -8 3 -13 10 -9 15 3 5 -6 26 -20 46 -13 21 -22 41 -19
46 3 5 -2 9 -10 9 -10 0 -13 6 -10 15 7 16 -14 76 -29 86 -13 9 -15 43 -3 51
7 5 4 8 -6 8 -11 0 -18 8 -18 20 0 11 -4 20 -10 20 -5 0 -10 14 -10 31 0 30
-22 64 -34 52 -3 -4 -6 1 -6 10 0 10 -4 17 -10 17 -5 0 -10 9 -10 20 0 11 -4
20 -8 20 -5 0 -8 10 -6 23 1 12 3 25 3 29 1 4 11 4 24 0 32 -10 86 -7 99 6 9
9 3 19 -20 42 -29 28 -30 30 -10 30 12 0 18 3 15 7 -4 3 -2 12 4 20 7 8 8 13
1 13 -5 0 -8 9 -5 20 3 11 1 20 -5 20 -5 0 -9 16 -8 37 1 27 -3 37 -16 41 -10
2 -15 8 -12 13 3 5 1 9 -3 9 -15 0 -13 41 2 46 8 3 11 12 8 20 -3 8 0 14 7 14
7 0 10 8 7 20 -3 12 -1 17 5 14 5 -3 9 0 7 7 -3 28 1 40 14 34 6 -4 3 0 -7 9
-10 8 -23 13 -28 10 -5 -3 -16 0 -25 7 -15 13 -59 20 -68 11z m-129 -426 c34
2 49 -2 62 -16 8 -11 20 -16 25 -13 6 4 8 -3 4 -16 -3 -12 1 -27 9 -35 17 -17
12 -77 -9 -107 -13 -17 -15 -18 -21 -4 -4 10 -11 13 -18 8 -7 -4 -20 -8 -28
-8 -8 0 -20 -4 -27 -8 -6 -4 -14 -3 -18 3 -9 14 -27 1 -19 -13 4 -7 3 -8 -2
-4 -15 14 -11 81 5 94 9 7 11 12 4 13 -6 0 -9 9 -6 20 4 14 0 20 -11 20 -9 0
-16 3 -16 8 0 4 -13 8 -30 8 -18 1 -27 -2 -23 -9 3 -5 1 -7 -5 -3 -6 3 -14 1
-19 -6 -14 -24 -11 -38 7 -38 35 0 47 -41 18 -59 -16 -10 -19 -10 -13 1 6 10
5 11 -6 1 -20 -19 -31 -15 -19 6 13 25 13 42 -1 19 -5 -10 -15 -18 -21 -18 -7
0 -7 4 1 13 15 19 2 30 -18 15 -9 -7 -13 -8 -9 -4 4 5 2 16 -4 25 -7 9 -8 13
-4 9 5 -4 20 7 33 24 12 18 23 26 23 20 0 -10 3 -10 14 0 8 7 12 16 10 20 -3
4 4 5 15 3 15 -3 18 0 14 13 -6 14 -4 15 8 5 12 -10 17 -8 29 10 7 12 15 17
17 11 2 -6 24 -9 49 -8z m1281 -355 c1 -14 -3 -18 -14 -14 -10 4 -14 2 -10 -4
4 -6 0 -18 -8 -26 -18 -18 -20 -47 -3 -47 6 0 8 -3 5 -7 -4 -3 -2 -12 4 -20 9
-10 8 -13 -1 -13 -7 0 -10 -6 -7 -14 3 -8 -1 -22 -9 -33 -9 -10 -13 -12 -9 -5
11 21 -13 13 -32 -11 -10 -13 -22 -24 -28 -25 -13 -3 -14 -22 -1 -47 6 -11 9
-24 7 -30 -1 -5 1 -7 5 -3 4 4 13 3 21 -3 9 -9 13 -8 13 0 0 7 9 6 25 -5 14
-9 25 -13 25 -8 0 4 3 5 6 1 8 -7 -15 -31 -38 -40 -10 -3 -20 -2 -22 2 -3 5
-17 6 -31 3 -25 -4 -30 5 -26 48 1 11 -3 10 -14 -4 -15 -20 -15 -20 -16 0 0
11 -5 5 -12 -16 -11 -33 -10 -37 15 -60 l27 -25 -24 0 c-12 0 -21 5 -18 10 2
6 -1 3 -9 -5 -7 -8 -25 -16 -40 -17 -23 -2 -28 2 -28 20 0 13 -6 29 -12 36
-10 11 -10 14 0 18 6 3 12 13 12 24 0 10 5 19 11 19 5 0 7 5 4 10 -3 6 -2 10
4 10 6 0 7 7 4 17 -5 12 -3 14 7 8 10 -6 12 -4 7 8 -4 12 -1 17 9 17 10 0 14
6 11 14 -6 15 19 30 34 20 5 -3 8 0 7 8 -2 7 2 12 9 11 7 -2 11 10 10 30 -1
21 3 31 11 30 6 -2 11 3 10 10 -2 6 3 11 10 9 8 -1 11 2 7 8 -3 5 -1 10 4 10
6 0 11 7 11 15 0 8 9 20 20 27 11 7 20 16 20 21 0 9 22 36 30 37 3 0 6 -9 7
-19z m-2064 -558 c-4 -10 0 -14 13 -11 12 2 18 -2 16 -11 -3 -12 0 -12 12 -1
14 11 16 7 14 -29 -1 -36 -7 -47 -23 -38 -2 1 -12 -8 -21 -21 -9 -13 -22 -21
-30 -18 -7 3 -17 0 -21 -7 -13 -19 -60 -40 -77 -34 -8 3 -17 1 -20 -6 -2 -7
-5 -4 -5 6 -1 9 -7 17 -15 17 -7 0 -19 7 -26 15 -9 11 -9 15 -1 15 7 0 9 5 6
10 -4 6 -3 9 2 8 4 -1 17 3 28 9 11 6 25 12 30 13 6 1 9 8 7 17 -2 8 1 12 6 9
5 -3 13 11 17 31 5 27 9 33 16 22 5 -8 9 -9 9 -4 0 13 41 32 57 27 6 -2 9 -10
6 -19z m3542 -863 c-6 -20 -3 -22 42 -23 14 0 20 -4 16 -11 -4 -6 5 -3 19 6
19 13 29 15 34 6 5 -7 3 -8 -6 -3 -9 5 -11 4 -6 -4 11 -16 28 -2 22 18 -5 12
-2 11 9 -3 15 -20 15 -20 15 0 0 15 2 16 9 5 5 -7 14 -11 19 -7 9 5 32 -21 32
-37 0 -7 -22 -3 -40 7 -8 5 -12 6 -8 2 20 -23 -77 -44 -99 -22 -3 3 -12 1 -19
-4 -14 -13 -33 -10 -52 8 -7 6 -18 12 -23 12 -6 0 -7 -6 -3 -12 6 -10 4 -10
-7 0 -19 18 -28 15 -24 -8 3 -18 -1 -20 -33 -18 -33 3 -37 0 -36 -19 0 -13 -2
-21 -4 -18 -3 3 -11 -3 -19 -13 -8 -9 -12 -11 -8 -4 4 8 -4 12 -29 12 -39 0
-48 15 -17 25 12 4 18 12 14 20 -3 8 2 17 10 21 9 3 13 12 11 19 -9 22 32 42
76 38 24 -2 40 0 40 7 0 14 37 13 43 -2 3 -9 7 -7 12 5 10 24 18 22 10 -3z
m-530 -348 c-11 -9 -19 -26 -17 -36 3 -15 0 -17 -14 -12 -10 4 -15 4 -11 0 4
-4 1 -14 -6 -22 -9 -13 -9 -14 1 -8 7 4 12 1 12 -9 0 -9 4 -13 10 -10 6 3 7
-1 4 -9 -4 -10 -1 -16 7 -16 12 0 12 -2 1 -9 -11 -7 -11 -9 2 -14 9 -4 16 -2
16 4 0 6 7 9 15 5 8 -3 15 -1 15 5 0 6 5 7 10 4 6 -4 7 -11 4 -17 -4 -6 -2 -8
4 -4 6 3 13 2 17 -4 4 -6 11 -8 16 -4 6 3 13 -3 16 -15 3 -11 9 -18 14 -15 5
3 9 0 9 -6 0 -6 4 -9 8 -6 5 3 9 -2 9 -10 0 -8 -6 -13 -14 -10 -22 9 -15 -22
10 -40 15 -11 16 -15 5 -11 -20 7 -25 -8 -5 -17 6 -2 1 -3 -12 -2 -14 2 -27 8
-29 15 -3 9 -7 9 -18 0 -11 -9 -14 -9 -14 0 0 7 -4 9 -10 6 -14 -9 -12 8 3 24
10 11 8 12 -10 6 -13 -3 -23 -2 -23 4 0 5 -10 13 -21 16 -12 4 -17 10 -12 14
17 11 11 40 -9 38 -10 -1 -18 -6 -18 -12 0 -5 -9 5 -20 23 -17 27 -39 40 -53
30 -2 -2 -11 3 -20 10 -16 14 -12 47 4 36 5 -3 9 0 9 5 0 6 14 11 30 11 28 0
36 11 31 43 0 4 4 7 11 7 6 0 4 6 -5 13 -15 10 -11 12 25 14 42 2 42 2 23 -15z
m-1911 -578 c10 -13 11 -23 4 -31 -7 -9 -6 -18 3 -30 12 -14 12 -16 0 -8 -11
6 -13 4 -8 -8 4 -10 1 -17 -6 -17 -8 0 -9 -3 -1 -8 15 -10 25 -42 13 -42 -5 0
-7 -12 -5 -26 5 -25 4 -25 -18 -10 -22 14 -23 14 -23 -11 0 -14 -6 -28 -12
-32 -7 -5 -2 -12 14 -19 15 -7 32 -9 38 -5 7 4 5 -1 -3 -12 -15 -18 -14 -18
18 -1 37 19 52 15 33 -8 -7 -8 -20 -12 -29 -9 -14 6 -15 4 -5 -8 10 -12 8 -15
-7 -15 -10 0 -17 3 -14 7 2 4 -3 10 -12 13 -8 3 -12 11 -9 17 9 14 -33 -11
-57 -34 -11 -10 -17 -21 -14 -24 3 -4 1 -12 -6 -20 -8 -11 -7 -12 6 -7 9 3 16
1 16 -5 0 -6 3 -10 8 -10 20 3 31 -3 37 -20 3 -10 16 -22 29 -25 12 -3 23 -12
24 -21 1 -8 3 -23 3 -32 1 -10 5 -23 10 -28 13 -17 21 -77 9 -70 -6 4 -7 -1
-3 -11 4 -11 8 -13 11 -6 7 23 31 13 25 -10 -3 -13 -6 -34 -8 -48 -1 -14 -8
-24 -15 -22 -8 2 -10 -3 -6 -13 3 -9 2 -13 -3 -10 -6 3 -14 -2 -19 -11 -6 -11
-11 -13 -16 -5 -4 6 -2 11 3 11 6 0 11 5 11 10 0 6 -10 10 -22 10 -19 0 -20 2
-8 10 10 6 11 10 2 10 -6 0 -11 6 -10 13 2 6 -5 11 -14 11 -18 -2 -20 16 -3
28 6 5 4 8 -4 8 -12 0 -11 3 1 18 9 9 15 29 14 45 -1 15 4 27 11 27 20 0 24
17 5 31 -15 13 -16 12 -3 -3 12 -16 11 -18 -3 -18 -9 0 -18 1 -20 3 -2 1 -13
-6 -25 -17 -17 -16 -18 -20 -6 -32 7 -8 19 -14 25 -14 6 0 8 -4 5 -10 -3 -5
-17 -10 -30 -10 -17 0 -26 8 -34 30 -5 17 -7 30 -3 30 17 0 4 52 -17 67 -18
12 -20 17 -10 24 10 6 8 9 -8 9 -14 0 -23 6 -23 16 0 8 -5 12 -10 9 -11 -7 -9
23 3 42 4 6 1 13 -5 16 -10 3 -9 8 2 22 9 11 10 16 3 11 -9 -5 -13 -1 -13 11
0 11 6 25 13 32 8 10 8 12 0 7 -6 -3 -15 -2 -18 4 -4 6 -1 9 6 8 7 -2 13 2 14
9 0 18 12 25 21 12 5 -8 3 -10 -6 -4 -9 6 -11 4 -5 -4 5 -9 10 -10 18 -2 7 7
16 7 29 0 10 -5 18 -6 17 -2 -3 20 2 25 15 14 11 -9 16 -9 22 0 5 8 3 9 -7 4
-11 -7 -12 -6 -3 6 6 8 10 22 8 32 -1 12 2 17 11 13 9 -3 12 0 8 10 -7 19 -19
18 -35 -5 -14 -20 -14 -20 -26 0 -10 15 -10 19 1 19 7 0 14 12 15 27 2 27 19
46 34 37 4 -3 8 0 8 5 0 6 -5 11 -11 11 -6 0 -7 5 -2 13 14 23 12 39 -4 33
-13 -5 -14 -4 -3 9 16 19 46 14 64 -11z"/>
<path d="M6285 8461 c-3 -5 -15 -8 -27 -6 -13 3 -28 -3 -38 -15 -10 -11 -23
-20 -29 -20 -7 0 -10 -4 -7 -9 4 -5 1 -11 -6 -13 -7 -3 -8 -10 -4 -17 6 -9 20
-11 43 -6 26 5 33 3 27 -6 -5 -9 -3 -9 7 -3 8 5 21 9 30 9 9 0 23 6 32 13 8 7
17 9 19 5 6 -9 -17 -55 -26 -54 -8 1 -46 -37 -46 -46 -1 -16 -35 -53 -48 -53
-7 0 -11 -4 -8 -9 8 -12 -4 -42 -14 -36 -11 7 -22 -24 -13 -37 3 -7 1 -8 -6
-4 -17 11 -25 -22 -8 -38 8 -8 17 -12 21 -9 3 4 6 0 6 -8 1 -10 4 -9 15 4 7
11 12 28 10 39 -3 13 0 18 9 15 9 -4 12 3 10 20 -1 14 0 22 3 20 7 -8 53 43
53 59 0 8 7 14 16 14 8 0 13 3 11 8 -3 4 5 16 16 27 11 11 16 14 12 6 -5 -9
-4 -12 3 -7 7 4 12 14 12 22 0 8 3 13 8 12 20 -5 51 16 57 40 4 15 11 29 16
32 5 4 0 16 -12 29 -20 21 -22 21 -40 5 -14 -13 -19 -14 -19 -4 0 11 -3 11
-12 2 -8 -8 -18 -6 -39 9 -16 11 -30 15 -34 10z"/>
<path d="M5315 8030 c3 -5 -1 -10 -9 -10 -16 0 -18 -32 -3 -46 12 -12 8 -26
-5 -18 -8 5 -9 2 -5 -10 6 -14 3 -17 -9 -12 -15 6 -15 4 -3 -11 12 -15 12 -16
-2 -11 -9 4 -16 1 -16 -7 0 -7 6 -11 14 -8 7 3 13 0 13 -6 0 -6 -4 -11 -9 -11
-5 0 -8 -7 -7 -15 1 -9 4 -14 7 -13 7 4 37 -26 33 -33 -2 -4 4 -6 14 -6 33 0
38 -3 39 -24 3 -31 21 -47 29 -26 3 9 10 15 14 12 5 -3 6 22 3 55 -2 33 -1 60
4 60 18 -1 55 -38 49 -49 -4 -6 -13 -8 -19 -4 -7 4 -6 -1 2 -10 12 -16 12 -17
-5 -11 -16 6 -15 3 5 -19 29 -32 32 -33 25 -9 -5 14 -4 15 5 2 6 -8 8 -27 5
-42 -7 -35 8 -42 38 -18 14 11 28 17 32 15 3 -3 2 0 -3 6 -6 7 -6 21 0 36 5
15 5 22 0 18 -6 -3 -9 4 -8 15 1 16 6 20 22 16 18 -5 19 -4 3 8 -18 14 -25 32
-9 21 5 -3 12 -1 15 4 4 5 2 12 -3 15 -5 4 -12 2 -16 -4 -4 -6 -11 -8 -16 -5
-5 4 -9 -1 -9 -9 0 -9 -4 -16 -9 -16 -6 0 -8 9 -6 20 2 11 -1 20 -6 20 -6 0
-7 5 -4 10 3 6 1 10 -4 10 -6 0 -11 7 -11 15 0 9 -7 18 -15 21 -8 4 -13 10
-10 14 7 11 -24 22 -37 13 -7 -3 -8 -1 -4 5 4 7 1 12 -8 12 -9 0 -16 5 -16 12
0 6 -3 8 -7 5 -3 -4 -12 -2 -20 4 -7 6 -13 8 -13 5 0 -4 -7 0 -16 8 -17 18
-39 22 -29 6z"/>
<path d="M2953 7276 c-13 -6 -23 -19 -23 -29 0 -10 -4 -15 -10 -12 -6 4 -10
-6 -10 -24 0 -16 -5 -33 -10 -36 -17 -10 0 -26 23 -23 12 1 29 -2 37 -6 8 -5
12 -6 8 -2 -9 11 14 35 27 28 6 -2 4 1 -2 9 -21 22 -15 32 17 27 17 -3 30 -1
30 4 0 4 13 6 30 4 16 -2 27 1 24 5 -3 5 0 9 5 9 6 0 11 5 11 10 0 14 -37 12
-43 -2 -4 -10 -7 -10 -18 0 -9 8 -9 12 -1 12 6 0 9 7 6 15 -4 8 -10 12 -15 9
-5 -3 -9 0 -9 5 0 14 -48 12 -77 -3z"/>
<path d="M7124 7107 c-16 -11 -22 -17 -14 -14 10 3 15 -3 15 -18 0 -13 -4 -21
-9 -18 -4 3 -5 -5 -1 -18 4 -17 3 -20 -3 -10 -6 9 -12 10 -16 3 -4 -6 2 -16
13 -22 16 -8 19 -15 12 -34 -7 -18 -5 -26 9 -36 11 -8 17 -17 15 -20 -2 -4 10
-6 28 -6 23 1 31 -3 29 -14 -2 -8 10 -1 26 15 16 17 40 38 53 48 13 9 19 17
15 17 -5 0 -3 7 4 15 10 12 10 15 -1 15 -9 0 -10 3 -4 8 17 12 41 47 28 38
-12 -6 -18 5 -14 27 0 4 -5 6 -11 5 -7 -2 -12 2 -11 8 1 6 -5 11 -13 12 -7 1
-21 3 -29 4 -8 1 -15 5 -15 9 0 15 -77 4 -106 -14z"/>
<path d="M2684 6936 c-3 -9 -11 -13 -18 -9 -6 3 -8 3 -4 -2 4 -4 2 -15 -5 -23
-10 -13 -9 -14 1 -8 11 7 11 4 0 -13 -14 -24 -38 -36 -38 -20 0 6 -7 9 -15 5
-8 -3 -15 -2 -15 2 0 10 -58 7 -68 -3 -4 -5 0 -5 8 0 11 6 10 3 -2 -10 -22
-24 -33 -14 -18 15 10 18 9 21 -2 18 -7 -3 -22 -2 -33 2 -18 7 -21 4 -21 -26
0 -21 5 -34 13 -34 7 0 13 5 13 11 0 8 5 7 16 -2 10 -8 12 -15 5 -17 -6 -2 -8
-8 -5 -14 4 -6 0 -14 -7 -19 -10 -6 -10 -9 -2 -9 7 0 10 -7 7 -15 -4 -8 -1
-15 6 -15 7 0 10 -7 6 -15 -3 -10 1 -18 12 -22 9 -4 20 -11 24 -17 8 -12 49
-16 42 -4 -4 5 0 8 7 7 24 -4 48 12 42 27 -3 8 5 24 18 35 21 18 22 23 11 51
-10 28 -9 34 7 49 10 10 22 15 25 12 3 -4 7 -2 7 3 7 53 6 64 -2 69 -5 4 -12
-1 -15 -9z"/>
<path d="M2818 6291 c2 -18 9 -28 16 -25 7 3 18 -2 25 -10 7 -8 19 -12 28 -9
8 3 18 1 22 -5 4 -7 19 -13 34 -14 31 -3 37 -18 6 -18 -11 0 -17 -4 -14 -10 6
-10 40 -8 51 3 11 11 26 8 18 -4 -4 -7 2 -9 17 -7 18 2 25 10 27 31 2 15 8 25
13 22 5 -4 9 -1 9 5 0 15 -26 41 -34 33 -3 -4 -6 0 -6 8 0 8 -9 15 -20 16 -11
1 -20 -2 -20 -7 0 -10 -19 -8 -38 4 -7 4 -19 2 -28 -5 -29 -24 -104 -14 -88
12 3 5 -1 9 -9 9 -9 0 -12 -9 -9 -29z"/>
<path d="M6260 5451 c0 -7 -4 -10 -9 -6 -6 3 -15 -4 -21 -15 -6 -11 -15 -18
-20 -15 -6 3 -7 -1 -4 -9 3 -9 1 -16 -5 -16 -6 0 -11 -5 -11 -11 0 -5 5 -7 10
-4 12 8 13 3 0 -29 -8 -21 -7 -24 7 -19 12 5 14 3 8 -7 -5 -8 -4 -11 3 -6 6 3
16 0 24 -7 14 -15 54 -13 73 3 7 5 15 7 18 3 4 -3 9 2 13 11 3 9 9 14 13 12 6
-4 10 11 13 51 1 10 4 10 16 0 13 -10 15 -9 10 11 -4 12 -3 22 1 22 4 0 8 7 8
16 0 10 -9 5 -24 -15 -14 -17 -29 -29 -34 -25 -5 3 -7 10 -3 15 3 5 2 9 -3 8
-4 -1 -15 -1 -23 0 -12 1 -13 3 -1 10 11 7 11 10 0 17 -8 4 -14 3 -17 -5 -3
-9 -9 -8 -23 5 -12 11 -19 13 -19 5z"/>
<path d="M6370 4469 c0 -5 -4 -8 -8 -5 -5 3 -9 -1 -9 -9 0 -8 2 -13 5 -10 2 2
11 -2 19 -10 11 -11 11 -19 3 -35 -8 -15 -8 -20 2 -18 6 2 12 -3 13 -10 0 -7
5 -16 11 -20 6 -4 10 -15 8 -25 -1 -9 2 -15 7 -11 8 5 14 -18 10 -40 -3 -15
33 -35 45 -25 6 5 13 8 15 6 2 -1 3 0 2 2 -1 2 7 12 17 24 19 20 19 20 -3 39
-12 11 -22 24 -22 28 0 5 -6 15 -12 22 -7 6 -13 18 -13 25 0 7 -5 13 -11 13
-5 0 -7 5 -4 10 3 6 -1 10 -10 10 -9 0 -14 4 -10 9 7 12 -22 41 -41 41 -8 0
-14 -5 -14 -11z"/>
<path d="M2457 3947 c4 -6 -2 -8 -15 -5 -12 4 -20 2 -17 -2 3 -5 -3 -11 -13
-14 -24 -8 -24 -65 0 -87 10 -9 14 -20 10 -24 -4 -5 0 -4 8 0 8 5 32 8 52 6
21 -1 38 1 37 6 -4 20 2 27 12 13 8 -12 10 -9 6 12 -2 15 -1 26 2 25 9 -3 9
16 0 41 -5 13 -13 20 -19 17 -5 -3 -10 0 -10 7 0 9 -3 9 -10 -2 -5 -8 -10 -10
-10 -4 0 7 -9 14 -20 17 -13 3 -18 1 -13 -6z"/>
<path d="M1314 3858 c-3 -5 -2 -8 1 -8 3 0 0 -6 -7 -14 -7 -8 -17 -11 -23 -8
-5 3 -4 -1 3 -10 10 -13 10 -18 -1 -30 -8 -7 -13 -21 -11 -30 1 -10 -4 -22
-12 -29 -8 -6 -11 -16 -7 -22 4 -6 0 -8 -11 -4 -9 4 -14 3 -11 -2 3 -5 -4 -16
-14 -23 -20 -14 -43 -59 -45 -88 -4 -42 79 -141 113 -135 9 1 19 -3 23 -8 4
-7 11 -7 20 0 7 5 26 9 41 8 18 -1 31 4 38 17 5 10 14 16 18 13 8 -5 23 18 26
40 0 6 6 9 13 8 6 -2 9 3 6 11 -3 8 -1 17 5 21 13 8 15 45 2 45 -9 0 -22 27
-27 57 -1 7 -9 20 -18 29 -9 8 -14 19 -11 24 3 5 -1 10 -7 13 -10 3 -10 8 1
18 12 12 13 12 6 0 -6 -10 -4 -12 4 -7 9 6 9 12 -3 25 -9 10 -13 21 -9 25 4 4
0 4 -10 0 -9 -3 -17 -11 -17 -17 0 -8 -4 -7 -12 1 -8 8 -15 8 -24 2 -8 -7 -13
-6 -18 5 -3 9 0 15 8 15 8 0 13 8 12 18 0 9 4 16 10 15 7 -1 10 6 7 17 -4 14
-13 19 -30 18 -13 -2 -27 -6 -29 -10z"/>
<path d="M3151 3585 c-1 -6 -11 -15 -22 -20 -12 -6 -21 -14 -20 -19 2 -5 -3
-12 -10 -17 -11 -7 -18 -25 -21 -56 -1 -6 -7 -9 -13 -6 -16 6 -26 -33 -15 -60
5 -12 9 -17 9 -10 1 7 8 10 16 7 17 -7 48 20 37 31 -4 4 0 6 8 3 8 -2 25 7 37
20 13 14 23 22 23 18 0 -3 11 1 25 10 24 15 24 17 8 29 -10 8 -15 17 -11 20 8
8 -15 35 -30 35 -6 0 -13 6 -15 13 -3 6 -6 7 -6 2z"/>
<path d="M1164 3474 c4 -8 -8 -11 -36 -10 -38 2 -44 -1 -59 -28 -10 -19 -13
-35 -8 -41 13 -14 11 -27 -3 -19 -9 5 -9 2 1 -9 11 -13 11 -17 1 -17 -8 0 -10
-3 -7 -7 4 -3 -1 -12 -11 -19 -9 -8 -12 -14 -5 -14 6 0 10 -9 8 -20 -2 -12 3
-24 13 -29 23 -12 68 -6 65 8 -2 6 2 11 8 11 5 0 8 3 6 8 -3 4 1 13 9 20 8 7
14 10 14 6 0 -4 10 6 23 22 12 16 22 35 22 44 0 8 4 21 9 29 7 10 6 12 -4 6
-10 -6 -12 -3 -7 14 3 13 3 20 0 17 -3 -3 -14 5 -25 17 -11 12 -17 17 -14 11z"/>
</g>
</svg>
