<?xml version="1.0" standalone="no"?>
<!DOCTYPE svg PUBLIC "-//W3C//DTD SVG 20010904//EN"
 "http://www.w3.org/TR/2001/REC-SVG-20010904/DTD/svg10.dtd">
<svg version="1.0" xmlns="http://www.w3.org/2000/svg"
 width="1998.000000pt" height="1777.000000pt" viewBox="0 0 1998.000000 1777.000000"
 preserveAspectRatio="xMidYMid meet">
<metadata>
Created by potrace 1.13, written by Peter Selinger 2001-2015
</metadata>
<g transform="translate(0.000000,1777.000000) scale(0.100000,-0.100000)"
fill="#000000" stroke="none">
<path d="M12305 16765 c-45 -44 -29 -116 30 -141 45 -19 48 -18 84 12 63 53
28 154 -54 154 -25 0 -44 -8 -60 -25z"/>
<path d="M14007 16073 c-2 -5 -7 -21 -11 -38 -4 -16 -19 -42 -33 -57 -21 -22
-27 -39 -29 -81 -2 -39 -18 -90 -58 -184 -53 -123 -67 -173 -47 -173 5 0 25
39 46 88 20 48 62 137 92 199 44 89 56 124 60 176 4 40 2 67 -5 71 -6 3 -13 3
-15 -1z"/>
<path d="M14029 15001 c-48 -48 -31 -108 37 -137 79 -33 133 52 83 132 -28 46
-77 48 -120 5z"/>
<path d="M12761 14862 c-40 -42 -56 -86 -66 -184 -5 -46 -16 -73 -54 -131 -59
-90 -79 -148 -136 -401 -49 -216 -52 -244 -30 -252 27 -11 64 25 100 96 75
149 117 279 160 493 24 119 37 153 88 225 37 52 44 106 20 151 -10 19 -24 37
-31 39 -7 2 -30 -14 -51 -36z"/>
<path d="M14383 14790 c-48 -21 -62 -54 -42 -92 16 -30 28 -38 61 -38 19 0 33
8 45 27 22 33 23 100 3 113 -19 12 -18 13 -67 -10z"/>
<path d="M13006 14335 c-9 -9 -25 -49 -37 -88 -26 -87 -41 -117 -78 -159 -26
-31 -56 -106 -94 -235 -13 -45 -14 -53 -1 -64 11 -9 17 -9 29 1 25 21 95 160
130 260 18 52 50 133 71 179 26 61 34 89 27 100 -14 22 -29 24 -47 6z"/>
<path d="M13137 14199 c-12 -19 -48 -142 -93 -324 -12 -48 45 37 72 107 15 40
35 87 45 103 29 50 32 89 11 115 l-19 24 -16 -25z"/>
<path d="M14142 14022 c-11 -11 -23 -35 -27 -52 -5 -22 -33 -59 -86 -112 -43
-44 -79 -84 -79 -88 0 -5 -35 -55 -77 -111 -43 -56 -90 -118 -105 -138 -27
-35 -36 -71 -19 -71 19 0 78 48 96 80 11 19 64 77 117 130 86 85 98 101 108
146 14 63 43 112 73 123 36 14 59 46 55 78 -4 34 -30 41 -56 15z"/>
<path d="M14845 13826 c-17 -7 -43 -31 -57 -54 -24 -35 -37 -44 -99 -64 -45
-14 -82 -33 -98 -51 -14 -15 -53 -45 -87 -66 -62 -40 -94 -77 -94 -109 0 -19
34 -62 50 -62 5 0 24 30 42 68 32 66 34 68 117 109 46 22 102 59 125 81 22 22
57 45 76 51 64 21 99 73 68 99 -9 7 -22 6 -43 -2z"/>
<path d="M7539 13810 c-69 -19 -111 -73 -111 -144 0 -131 148 -212 246 -135
77 61 73 193 -6 252 -31 23 -94 36 -129 27z"/>
<path d="M10074 13717 c-20 -17 -27 -33 -27 -57 0 -39 40 -80 79 -80 33 0 74
42 74 75 0 32 -49 85 -79 85 -11 0 -32 -11 -47 -23z"/>
<path d="M9407 13542 c-9 -10 -20 -32 -23 -50 -5 -26 -1 -36 22 -60 67 -68 66
-64 55 -132 l-10 -62 40 -66 c39 -64 42 -73 51 -182 9 -108 13 -122 64 -237
78 -174 81 -199 51 -358 -21 -109 -23 -142 -16 -205 8 -75 42 -198 93 -337 34
-96 36 -218 4 -340 -19 -71 -28 -90 -60 -118 -20 -19 -56 -39 -80 -46 -78 -21
-96 -30 -102 -53 -3 -13 -27 -39 -52 -60 -65 -50 -104 -49 -191 4 -73 44 -106
49 -161 23 -46 -21 -163 -138 -180 -179 -17 -40 -65 -75 -116 -85 -51 -9 -78
6 -161 91 -64 66 -114 103 -154 113 -14 3 -54 -2 -90 -12 -107 -29 -125 -19
-283 164 -163 190 -171 201 -159 224 12 22 14 64 5 98 -8 28 -42 36 -71 17
-34 -22 -31 -69 7 -104 38 -35 100 -125 100 -143 0 -8 -10 -18 -22 -24 -18 -8
-32 -5 -68 15 -83 46 -135 3 -75 -63 22 -23 32 -26 68 -23 32 3 50 -2 77 -20
34 -23 46 -24 106 -6 17 4 30 -6 68 -56 25 -34 46 -66 46 -71 0 -5 -12 -15
-26 -21 -22 -10 -34 -7 -88 19 -35 17 -85 35 -112 38 -33 5 -71 22 -116 52
-37 24 -94 53 -127 64 -43 15 -77 37 -123 78 -69 63 -122 95 -144 87 -17 -6
-7 -37 31 -94 32 -49 65 -65 102 -51 30 11 52 -1 263 -141 63 -42 147 -95 185
-117 76 -44 108 -80 118 -130 5 -27 1 -38 -26 -67 -52 -55 -70 -55 -188 4
-126 63 -190 110 -280 205 -63 66 -74 73 -126 84 -31 6 -78 11 -105 11 -33 0
-58 6 -76 20 -15 11 -67 36 -116 56 -50 20 -107 49 -128 64 -20 15 -55 30 -76
34 -35 5 -41 10 -59 54 -16 39 -27 50 -49 55 -24 5 -35 19 -64 78 -46 94 -114
196 -190 286 -47 56 -99 98 -233 190 -95 66 -217 143 -272 173 -55 29 -147 80
-204 113 -57 33 -135 68 -173 79 -168 48 -209 75 -598 396 -56 46 -92 55 -143
33 -50 -22 -70 -51 -61 -89 10 -37 51 -90 77 -98 12 -4 47 -30 77 -59 71 -67
126 -101 175 -110 51 -9 104 -36 135 -70 14 -15 76 -73 139 -129 140 -124 288
-287 297 -328 10 -46 -11 -73 -121 -160 -112 -89 -123 -107 -154 -258 -18 -84
-18 -85 4 -157 42 -134 158 -264 272 -304 46 -17 74 -20 138 -16 232 14 364
162 365 410 1 95 20 121 82 114 58 -6 407 -134 433 -158 60 -57 109 -91 169
-118 85 -39 184 -117 262 -206 73 -85 142 -132 203 -140 25 -3 55 -8 66 -10
36 -8 405 -214 447 -249 56 -49 125 -154 148 -229 22 -71 16 -112 -26 -178
-28 -45 -69 -69 -119 -69 -76 0 -203 120 -191 180 7 38 -5 46 -105 66 -84 17
-86 17 -120 -2 -30 -18 -34 -26 -37 -66 -6 -98 70 -197 197 -255 83 -38 91
-46 126 -118 31 -62 31 -83 0 -170 -15 -42 -31 -123 -41 -204 -8 -73 -19 -144
-24 -156 -13 -34 -60 -49 -118 -36 -27 5 -58 8 -69 5 -14 -4 -27 4 -47 30 -29
39 -67 47 -123 25 -89 -34 -136 -39 -252 -28 -154 14 -279 40 -374 78 -67 26
-85 30 -136 25 -77 -8 -179 22 -240 71 -44 35 -44 35 -144 35 -114 0 -171 13
-208 47 -21 19 -37 24 -70 23 -71 -3 -77 -1 -113 31 -29 25 -41 29 -66 24 -35
-8 -37 -14 -10 -48 13 -16 35 -28 60 -32 22 -4 55 -17 73 -29 43 -30 69 -36
112 -26 36 8 109 -6 152 -28 12 -7 35 -34 52 -62 28 -46 34 -50 68 -50 21 0
57 8 81 17 35 13 52 14 81 6 20 -6 83 -24 141 -41 94 -27 188 -42 510 -82 52
-7 122 -21 154 -32 53 -17 67 -18 125 -8 82 15 250 13 298 -3 l37 -12 14 -90
c21 -142 20 -164 -7 -186 -17 -14 -39 -19 -81 -19 -36 0 -62 -5 -69 -13 -17
-22 -3 -27 75 -27 66 0 74 -2 93 -26 27 -35 36 -82 35 -181 -2 -98 -23 -161
-89 -262 -93 -143 -101 -184 -59 -290 34 -85 53 -242 36 -300 -15 -47 -50 -71
-107 -71 -46 0 -131 -36 -275 -116 -111 -61 -203 -99 -303 -125 -61 -15 -130
-76 -163 -143 -30 -58 -45 -73 -132 -122 -34 -20 -79 -56 -99 -81 -44 -53
-101 -85 -162 -89 -54 -3 -95 -31 -99 -67 -3 -24 0 -27 27 -27 19 0 42 11 63
29 18 16 68 43 110 61 43 17 117 57 165 87 121 76 124 77 163 74 61 -4 123
-55 179 -150 31 -51 72 -62 133 -35 75 34 116 120 85 180 -21 40 -45 58 -97
73 -53 16 -60 24 -60 74 0 26 7 45 23 60 33 33 171 102 256 127 72 22 76 22
150 6 42 -9 86 -16 98 -16 15 0 23 -7 25 -22 2 -13 11 -24 21 -26 13 -3 17 3
17 23 0 24 3 26 26 21 67 -17 117 -50 143 -94 81 -138 128 -169 247 -163 12 1
46 19 75 41 50 37 58 40 121 40 114 0 246 -34 309 -80 21 -15 61 -48 91 -73
29 -26 108 -88 175 -138 131 -97 207 -172 231 -229 8 -19 18 -89 23 -155 5
-66 15 -151 24 -190 26 -120 30 -250 11 -343 -32 -160 -139 -433 -188 -482
-14 -14 -37 -44 -51 -66 -20 -32 -48 -54 -119 -94 -126 -72 -156 -95 -173
-137 -22 -52 -18 -113 11 -193 25 -67 26 -74 14 -131 -10 -44 -23 -71 -51
-103 -38 -43 -39 -46 -39 -120 0 -78 -16 -174 -31 -190 -5 -6 -9 -19 -9 -31 0
-12 -5 -26 -12 -33 -9 -9 -9 -15 0 -24 17 -17 30 3 39 56 4 24 24 63 56 103
52 69 95 170 122 292 16 66 19 72 85 131 85 75 132 154 159 269 18 74 38 110
63 111 15 0 46 68 53 115 7 53 63 192 114 285 16 30 39 98 50 150 12 52 37
127 56 165 49 100 158 248 242 330 39 39 77 81 84 95 44 88 158 172 265 195
132 28 205 17 283 -43 30 -23 45 -27 91 -25 45 2 60 -2 87 -23 68 -52 99 -170
84 -320 -9 -92 -1 -196 17 -230 18 -33 45 -52 95 -66 44 -11 49 -11 68 8 17
18 22 40 28 136 5 64 11 120 15 127 4 6 25 15 47 21 22 6 54 24 71 39 45 40
45 100 -1 202 -53 120 -33 171 89 228 49 23 72 26 215 32 178 7 186 9 304 68
182 92 342 218 356 280 3 17 20 42 36 55 49 41 98 49 264 41 147 -6 152 -6
220 20 48 19 97 29 158 32 l88 6 43 -47 c58 -61 81 -64 51 -6 -11 22 -15 55
-13 123 3 89 4 93 24 89 37 -7 40 19 6 47 -28 23 -30 30 -24 61 6 27 17 40 47
56 l40 21 -3 56 c-4 54 -2 58 38 106 50 60 171 135 200 126 15 -5 20 -2 20 14
0 11 -4 22 -9 25 -21 14 42 166 115 279 l48 72 7 155 c4 85 10 169 14 185 10
40 51 83 87 90 45 10 57 46 30 93 -36 64 -32 99 19 178 25 38 52 84 59 102 14
35 16 35 79 20 7 -2 18 5 24 14 17 26 -5 43 -54 41 l-41 -2 5 52 c3 29 -1 106
-9 172 -13 107 -12 132 3 235 17 122 61 242 92 256 9 4 36 10 61 14 25 4 91
19 147 34 95 25 105 26 132 11 49 -25 92 -18 193 30 80 39 111 48 203 60 59 8
109 16 111 18 2 2 -3 13 -12 25 -18 26 -48 28 -98 7 -23 -10 -87 -18 -179 -22
-120 -5 -160 -11 -256 -40 -87 -25 -134 -33 -195 -33 -48 -1 -91 -6 -105 -14
-29 -16 -66 -9 -136 27 -28 14 -73 31 -100 38 -159 38 -299 118 -399 227 -108
116 -119 137 -124 225 -4 73 -3 80 21 105 14 15 47 65 72 112 34 61 65 102
111 144 36 32 93 95 127 140 108 143 244 310 276 340 17 17 31 36 31 43 0 7
16 23 36 35 22 15 75 80 144 179 60 86 144 199 187 250 136 162 236 291 273
354 30 48 39 76 47 142 15 117 57 217 105 251 28 20 38 34 38 55 0 35 -27 36
-40 1 -6 -14 -21 -40 -35 -58 -14 -18 -50 -86 -81 -151 -33 -70 -97 -179 -156
-264 -55 -80 -116 -177 -135 -215 -78 -156 -293 -455 -419 -586 -56 -58 -141
-152 -189 -210 -48 -58 -117 -132 -155 -165 -37 -33 -119 -107 -183 -163 -105
-93 -120 -103 -145 -97 -36 7 -62 56 -92 170 -25 93 -47 141 -75 159 -26 17
-170 25 -260 15 -69 -7 -70 -7 -103 24 -41 39 -126 209 -125 251 0 17 6 51 12
76 14 50 12 85 -18 248 -16 89 -18 127 -11 185 10 90 95 309 150 388 44 63 59
116 60 205 0 87 13 113 81 174 l61 53 -5 50 c-7 55 -35 110 -59 115 -9 2 -31
-10 -50 -27 -30 -26 -36 -40 -51 -121 -22 -114 -41 -153 -88 -184 -55 -37 -89
-112 -89 -200 -1 -143 -49 -281 -116 -332 -40 -31 -65 -30 -103 2 -17 14 -38
23 -46 20 -19 -7 -19 -20 0 -36 23 -19 18 -28 -27 -51 -65 -33 -115 -77 -151
-133 -56 -87 -67 -122 -67 -205 0 -68 -3 -82 -29 -122 -37 -57 -77 -93 -120
-108 -19 -6 -86 -11 -150 -11 -114 0 -117 -1 -176 -35 -132 -77 -160 -86 -241
-79 -62 6 -77 4 -101 -12 -41 -28 -65 -32 -95 -17 -47 23 -61 96 -62 316 l-1
189 49 17 c61 21 68 39 66 166 -1 90 -26 214 -57 285 -9 19 -32 82 -52 139
-41 115 -58 136 -90 107 -18 -17 -19 -27 -14 -209 3 -106 9 -209 13 -230 7
-33 6 -37 -10 -32 -21 7 -45 -19 -37 -39 3 -8 18 -16 33 -18 37 -4 52 -49 53
-160 1 -111 -2 -119 -39 -106 -23 7 -56 50 -145 183 -151 227 -250 319 -419
390 -133 55 -165 95 -187 230 -6 38 -30 102 -65 172 -31 62 -64 148 -75 190
-11 43 -33 107 -49 142 -17 35 -30 76 -30 91 0 31 -53 163 -67 167 -5 2 -17
-5 -26 -15z"/>
<path d="M5608 13510 c-39 -23 13 -93 106 -143 32 -17 100 -68 150 -112 135
-120 266 -221 422 -327 76 -52 146 -99 154 -103 8 -5 -18 28 -59 74 -45 49
-123 118 -195 172 -298 221 -347 261 -392 324 -44 63 -74 89 -128 112 -33 15
-36 15 -58 3z"/>
<path d="M11825 13076 c-83 -36 -67 -170 23 -197 101 -30 165 87 90 165 -39
40 -72 50 -113 32z"/>
<path d="M4753 12654 c-26 -11 -11 -44 42 -92 51 -44 62 -50 117 -56 48 -5 85
-18 167 -62 58 -31 120 -69 138 -85 19 -16 43 -29 54 -29 12 0 86 -34 165 -76
79 -41 150 -74 156 -72 14 5 -23 30 -152 103 -47 26 -101 61 -120 76 -19 16
-75 47 -124 69 -117 54 -197 110 -236 164 -28 38 -38 45 -78 50 -97 13 -117
15 -129 10z"/>
<path d="M6290 12519 c0 -16 49 -96 63 -102 7 -3 51 -21 99 -40 47 -19 147
-69 222 -111 75 -42 141 -76 147 -76 31 0 -21 39 -127 94 -130 69 -149 92 -94
113 23 9 30 17 30 38 0 21 -8 29 -37 41 -34 15 -38 15 -51 -3 -8 -10 -20 -31
-26 -46 l-13 -28 -52 51 c-53 52 -103 80 -141 80 -11 0 -20 -5 -20 -11z"/>
<path d="M12940 12442 c-19 -9 -44 -33 -54 -53 -17 -32 -18 -40 -6 -69 23 -55
74 -67 153 -35 35 14 57 86 41 130 -7 18 -55 45 -81 45 -10 0 -34 -8 -53 -18z"/>
<path d="M9217 12329 c-45 -26 -75 -156 -57 -245 20 -97 136 -234 198 -234 52
0 92 99 92 226 0 76 -20 123 -83 191 -61 67 -108 86 -150 62z"/>
<path d="M14054 12112 c-165 -57 -220 -208 -118 -322 54 -59 121 -84 230 -85
85 0 96 2 160 35 84 43 125 95 132 168 8 85 -38 150 -138 196 -68 32 -186 35
-266 8z"/>
<path d="M11096 12087 c-10 -8 -18 -25 -18 -40 0 -14 -9 -34 -19 -43 -11 -9
-19 -27 -19 -39 0 -16 -8 -25 -25 -29 -50 -13 -58 -84 -13 -126 30 -28 72 -26
96 5 12 15 30 25 45 25 33 0 83 43 90 77 8 39 -47 149 -84 168 -34 18 -31 18
-53 2z"/>
<path d="M8023 12075 c-12 -8 -27 -31 -33 -50 -9 -29 -8 -41 8 -78 33 -74 113
-96 160 -44 78 87 -40 238 -135 172z"/>
<path d="M6693 12038 c-27 -13 -33 -35 -18 -71 17 -41 58 -64 128 -72 67 -7
102 -28 232 -140 131 -113 287 -205 346 -205 17 0 42 9 56 19 13 11 49 25 78
32 108 24 103 65 -13 123 -98 49 -228 92 -302 100 -36 4 -109 20 -163 37 -82
25 -104 36 -133 68 -116 126 -110 121 -150 120 -22 0 -49 -5 -61 -11z"/>
<path d="M8744 12016 c-35 -16 -59 -64 -49 -98 25 -82 142 -126 199 -75 90 79
-36 225 -150 173z"/>
<path d="M15815 11866 c-38 -16 -92 -77 -101 -113 -24 -94 94 -149 197 -91 54
29 79 64 86 116 5 36 2 45 -25 72 -26 25 -38 30 -79 30 -26 -1 -62 -7 -78 -14z"/>
<path d="M8143 11818 c-30 -14 -46 -58 -35 -89 20 -51 142 -138 195 -139 25 0
21 9 -18 44 -35 31 -35 31 -21 70 17 49 12 70 -26 101 -31 27 -59 30 -95 13z"/>
<path d="M15071 11633 c-11 -10 -24 -32 -27 -50 -5 -27 -1 -37 24 -63 37 -37
74 -39 107 -5 68 67 -30 179 -104 118z"/>
<path d="M4713 11473 c-31 -6 -73 -52 -73 -79 0 -31 41 -58 76 -50 32 8 84 58
84 80 0 20 -36 56 -52 55 -7 -1 -23 -4 -35 -6z"/>
<path d="M13477 11383 c-4 -3 -7 -15 -7 -26 0 -10 -21 -37 -46 -60 -93 -85
-89 -208 10 -281 22 -17 42 -21 101 -21 67 0 76 3 112 31 128 103 101 272 -50
315 -23 7 -51 21 -63 31 -21 18 -45 23 -57 11z"/>
<path d="M16982 11076 c-18 -9 -59 -34 -91 -56 l-57 -40 -220 -4 c-128 -2
-299 -13 -414 -25 -125 -14 -217 -19 -258 -15 -52 5 -66 3 -82 -11 -11 -10
-20 -24 -20 -31 0 -7 -10 -16 -22 -20 -57 -17 -188 -86 -198 -104 -19 -35 6
-66 74 -92 89 -34 301 -31 511 6 204 36 265 53 445 127 l155 63 90 -3 c199 -8
184 -10 287 41 53 26 98 55 102 63 10 26 -16 66 -57 87 -53 27 -198 35 -245
14z"/>
<path d="M15055 10631 c-16 -5 -63 -23 -104 -40 -41 -17 -118 -43 -170 -57
-53 -15 -103 -30 -111 -34 -14 -8 -10 -9 85 -24 17 -2 50 -11 74 -20 35 -14
50 -15 78 -5 23 7 68 9 133 4 93 -7 101 -6 159 20 67 30 83 56 63 100 -22 47
-132 77 -207 56z"/>
<path d="M5784 10565 c-9 -14 -13 -32 -10 -40 3 -10 -4 -25 -18 -38 -38 -35
-41 -62 -11 -93 20 -20 32 -24 53 -20 39 10 65 44 59 80 -3 20 3 40 16 58 19
26 19 28 3 52 -22 35 -69 35 -92 1z"/>
<path d="M5158 10220 c-196 -59 -187 -299 14 -399 143 -72 303 -20 338 110 14
51 5 94 -31 157 -59 104 -209 166 -321 132z"/>
<path d="M14381 10208 c-76 -21 -121 -77 -121 -149 0 -83 57 -139 140 -139 86
0 159 62 167 143 10 98 -85 173 -186 145z"/>
<path d="M5833 10116 c-105 -47 -88 -198 24 -213 75 -10 136 42 136 118 0 78
-86 128 -160 95z"/>
<path d="M7651 10044 c-28 -36 -26 -60 8 -95 35 -34 59 -36 95 -8 54 42 21
129 -49 129 -24 0 -39 -7 -54 -26z"/>
<path d="M6151 10034 c-12 -15 -21 -31 -21 -36 0 -25 33 -67 65 -82 69 -33
135 8 120 73 -15 70 -122 99 -164 45z"/>
<path d="M3930 10023 c-32 -12 -60 -47 -60 -76 0 -64 81 -126 166 -127 120 0
128 132 11 189 -42 20 -86 25 -117 14z"/>
<path d="M346 9595 c-79 -28 -111 -87 -77 -142 30 -48 92 -75 182 -81 89 -5
136 8 185 50 93 82 -7 188 -176 187 -41 0 -93 -6 -114 -14z"/>
<path d="M14042 9439 c-57 -29 -94 -84 -100 -152 -2 -28 -9 -58 -14 -64 -7 -8
-35 -13 -74 -13 -84 0 -136 -22 -160 -65 -18 -33 -18 -37 -1 -101 15 -55 16
-69 5 -75 -38 -24 -297 49 -323 91 -9 15 -71 12 -85 -5 -29 -34 25 -85 92 -85
18 0 53 -10 78 -21 61 -28 152 -48 263 -58 65 -6 104 -16 129 -31 33 -19 39
-20 65 -7 15 7 55 19 88 27 109 23 149 92 110 187 -8 20 -14 37 -13 38 2 1 40
22 85 46 67 35 85 50 99 81 21 47 13 90 -26 150 -51 76 -134 98 -218 57z"/>
<path d="M6690 9173 c-41 -16 -80 -24 -105 -22 -102 7 -130 4 -133 -13 -6 -29
39 -46 170 -62 148 -19 217 -19 272 -3 40 12 61 37 31 37 -9 0 -35 20 -57 45
-50 54 -79 57 -178 18z"/>
<path d="M5091 8914 c-28 -36 -26 -50 8 -85 24 -23 38 -29 75 -29 36 0 48 5
65 27 14 16 19 34 15 47 -18 66 -123 91 -163 40z"/>
<path d="M13719 8841 c-26 -14 -48 -18 -77 -14 -43 6 -104 -22 -116 -53 -9
-22 18 -78 49 -102 30 -24 60 -22 103 6 13 8 45 19 72 23 63 10 100 34 100 66
0 38 -17 62 -57 78 -43 18 -32 19 -74 -4z"/>
<path d="M15563 7671 c-17 -11 -34 -28 -37 -39 -23 -71 95 -143 178 -108 47
20 66 58 46 93 -37 65 -128 91 -187 54z"/>
<path d="M14125 7655 c-19 -15 -18 -17 25 -55 49 -43 156 -98 233 -120 42 -11
50 -11 58 1 6 10 1 17 -20 24 -16 6 -44 30 -62 54 -19 24 -52 56 -74 71 -50
35 -132 47 -160 25z"/>
<path d="M14752 7615 c-47 -21 -68 -72 -48 -120 31 -74 133 -99 187 -46 50 50
34 128 -33 162 -44 22 -62 23 -106 4z"/>
<path d="M12900 7384 c0 -4 15 -23 33 -44 17 -20 40 -51 49 -68 9 -18 37 -44
63 -59 25 -15 45 -34 45 -41 0 -22 48 -62 75 -62 14 0 25 4 25 9 0 15 -41 61
-55 61 -7 0 -30 27 -49 59 -28 45 -45 63 -75 75 -23 9 -47 28 -57 46 -16 26
-54 43 -54 24z"/>
<path d="M8493 7239 c-45 -22 -68 -50 -79 -95 -4 -16 -16 -39 -26 -51 -22 -24
-17 -43 12 -43 11 0 24 -9 30 -21 32 -59 147 -79 210 -36 92 62 91 190 -2 247
-42 26 -92 25 -145 -1z"/>
<path d="M5075 7218 c-65 -37 -58 -110 12 -124 27 -5 37 -1 63 24 36 37 38 55
5 87 -26 27 -49 31 -80 13z"/>
<path d="M15195 6979 c-4 -13 -2 -26 6 -33 92 -82 165 -134 271 -195 70 -39
155 -98 190 -129 35 -31 78 -68 96 -80 51 -37 144 -70 181 -64 30 4 33 7 27
34 -11 54 -93 136 -181 180 -44 22 -118 68 -165 103 -134 98 -229 152 -315
179 -97 31 -102 31 -110 5z"/>
<path d="M9898 6909 c-30 -17 -39 -73 -21 -132 28 -98 91 -147 167 -133 78 15
121 122 78 192 -38 60 -171 104 -224 73z"/>
<path d="M6415 6851 c-28 -9 -127 -59 -220 -113 -94 -53 -262 -144 -374 -202
-164 -85 -213 -106 -246 -106 -127 0 -334 -137 -458 -303 -58 -78 -290 -268
-492 -404 -115 -77 -160 -136 -170 -219 -8 -70 -48 -139 -106 -185 -22 -17
-83 -48 -137 -68 -88 -34 -97 -39 -106 -69 -19 -69 40 -108 127 -84 60 17 163
107 207 181 22 38 54 76 75 90 20 13 67 54 104 91 64 62 70 72 100 161 47 143
64 156 517 407 148 82 357 202 464 267 107 65 295 173 417 240 274 152 347
203 376 261 21 43 21 44 1 59 -22 17 -16 17 -79 -4z"/>
<path d="M8875 6723 c-70 -36 -134 -123 -135 -181 0 -13 -15 -35 -36 -54 -73
-64 -100 -163 -66 -240 61 -139 251 -155 381 -32 20 19 61 49 91 67 44 26 60
43 84 89 33 65 38 150 13 211 -21 50 -85 117 -132 138 -51 23 -158 25 -200 2z"/>
<path d="M5161 6704 c-35 -29 -42 -76 -15 -105 15 -16 14 -20 -5 -41 -48 -51
1 -106 69 -78 31 13 66 63 55 80 -3 5 4 24 15 42 27 45 25 64 -9 99 -36 36
-70 37 -110 3z"/>
<path d="M7835 6501 c-3 -10 -3 -26 1 -35 4 -11 1 -16 -10 -16 -21 0 -84 -56
-103 -93 -11 -22 -13 -44 -9 -81 8 -60 9 -74 4 -100 -3 -18 5 -20 91 -22 99
-3 131 6 179 50 79 71 66 195 -26 241 -22 11 -52 33 -66 48 -29 31 -52 35 -61
8z"/>
<path d="M4706 6410 c-69 -45 -68 -110 2 -110 68 0 130 56 118 106 -6 21 -12
24 -49 24 -25 0 -54 -8 -71 -20z"/>
<path d="M13990 6270 c0 -26 68 -110 100 -125 42 -19 80 -72 144 -201 43 -89
47 -93 123 -142 43 -27 89 -62 102 -76 27 -29 56 -34 64 -11 9 22 -80 174
-137 233 -28 30 -84 73 -124 97 -47 28 -85 59 -109 91 -20 27 -48 62 -62 77
-29 33 -101 73 -101 57z"/>
<path d="M9718 6064 c-86 -46 -60 -154 36 -154 29 0 75 35 86 66 13 32 -5 79
-36 93 -33 14 -53 13 -86 -5z"/>
<path d="M12035 5918 c-51 -27 -62 -87 -20 -114 67 -44 165 56 107 109 -21 19
-58 21 -87 5z"/>
<path d="M16085 5888 c-27 -15 -35 -28 -35 -61 0 -59 57 -107 128 -107 98 0
95 125 -4 166 -40 17 -62 17 -89 2z"/>
<path d="M5125 5736 c-42 -18 -85 -72 -85 -105 0 -39 28 -61 80 -61 74 0 140
55 140 117 0 56 -65 80 -135 49z"/>
<path d="M7801 5624 c-63 -53 -23 -130 53 -104 39 12 76 52 76 81 0 52 -78 66
-129 23z"/>
<path d="M8399 5371 c-44 -45 -33 -92 26 -107 27 -7 80 18 95 45 40 76 -57
126 -121 62z"/>
<path d="M7841 5242 c-41 -22 -71 -73 -71 -120 0 -24 9 -42 30 -64 27 -26 36
-30 67 -25 97 16 147 151 76 207 -32 25 -58 25 -102 2z"/>
<path d="M11086 3398 c-24 -34 -19 -66 13 -99 37 -36 75 -38 97 -4 46 70 -63
171 -110 103z"/>
<path d="M10897 2920 c-10 -31 -27 -188 -27 -251 0 -37 5 -91 10 -120 29 -150
30 -185 10 -243 -22 -65 -18 -111 14 -151 28 -35 60 -27 83 19 14 30 13 38
-10 112 -23 75 -24 90 -19 254 3 134 0 194 -12 258 -17 89 -41 148 -49 122z"/>
<path d="M6136 1459 c-30 -35 -32 -58 -11 -99 18 -34 71 -55 106 -41 62 23 83
99 39 146 -36 38 -99 35 -134 -6z"/>
<path d="M6905 413 c-32 -76 -82 -186 -112 -245 -29 -59 -53 -119 -53 -133 0
-23 4 -26 27 -23 22 2 33 14 54 58 60 122 168 480 145 480 -1 0 -29 -62 -61
-137z"/>
</g>
</svg>
