<?xml version="1.0" standalone="no"?>
<!DOCTYPE svg PUBLIC "-//W3C//DTD SVG 20010904//EN"
 "http://www.w3.org/TR/2001/REC-SVG-20010904/DTD/svg10.dtd">
<svg version="1.0" xmlns="http://www.w3.org/2000/svg"
 width="1722.000000pt" height="1410.000000pt" viewBox="0 0 1722.000000 1410.000000"
 preserveAspectRatio="xMidYMid meet">

<g transform="translate(0.000000,1410.000000) scale(0.100000,-0.100000)"
fill="#000000" stroke="none">
<path d="M1160 14082 c0 -17 28 -52 42 -52 3 0 8 11 11 25 3 18 -1 29 -14 35
-27 15 -39 12 -39 -8z"/>
<path d="M2131 13871 c-16 -29 1 -144 23 -159 6 -4 20 -8 31 -9 11 -1 37 -5
57 -7 21 -3 40 -1 43 5 4 5 10 7 14 4 5 -2 11 10 15 28 5 27 2 35 -19 50 -14
10 -25 27 -25 37 0 13 -18 27 -54 44 -65 31 -72 32 -85 7z"/>
<path d="M6552 13818 c-14 -18 -3 -110 17 -137 34 -44 82 11 73 84 -6 50 -17
65 -52 65 -15 0 -32 -6 -38 -12z"/>
<path d="M2586 13764 c-17 -17 -22 -39 -7 -29 5 3 13 -4 16 -15 7 -22 50 -44
66 -34 16 9 10 60 -9 77 -23 21 -46 22 -66 1z"/>
<path d="M7427 13562 c-10 -10 -17 -34 -17 -53 0 -25 -8 -42 -30 -62 -36 -34
-46 -67 -30 -97 10 -18 9 -24 -1 -31 -8 -5 -17 -9 -21 -9 -5 0 -8 -11 -8 -24
0 -16 11 -32 30 -46 17 -12 30 -19 30 -15 0 3 13 -2 29 -11 28 -17 32 -17 70
1 23 10 41 22 41 26 0 4 7 15 16 23 8 9 11 16 6 16 -16 0 -34 57 -27 88 4 20
1 34 -9 45 -20 20 -20 25 1 23 12 -1 19 11 25 41 8 36 6 45 -12 63 -11 11 -20
25 -20 30 0 17 -56 11 -73 -8z"/>
<path d="M9605 13553 c-11 -3 -31 -18 -44 -35 -20 -25 -22 -32 -10 -43 8 -8
25 -16 39 -20 20 -5 30 1 53 30 28 35 28 37 11 56 -9 10 -20 18 -23 18 -3 -1
-15 -4 -26 -6z"/>
<path d="M1532 13436 c-37 -18 -25 -50 21 -54 42 -4 49 12 20 45 -15 16 -22
18 -41 9z"/>
<path d="M9237 13432 c-22 -24 -22 -61 0 -69 20 -8 63 39 63 68 0 25 -41 26
-63 1z"/>
<path d="M7217 13423 c-4 -3 -7 -11 -7 -17 0 -6 5 -5 12 2 6 6 9 14 7 17 -3 3
-9 2 -12 -2z"/>
<path d="M1460 13287 c0 -22 16 -37 41 -37 5 0 9 11 9 25 0 14 -4 25 -9 25 -5
0 -16 3 -25 6 -12 5 -16 0 -16 -19z"/>
<path d="M5456 13191 c-5 -37 -2 -59 13 -95 23 -52 50 -62 53 -18 4 83 -16
162 -41 162 -14 0 -20 -11 -25 -49z"/>
<path d="M17155 13162 c-41 -8 -47 -48 -10 -62 34 -13 75 6 75 35 0 24 -26 35
-65 27z"/>
<path d="M8437 13141 c-6 -24 0 -31 19 -24 18 7 18 43 0 43 -7 0 -16 -9 -19
-19z"/>
<path d="M1000 13081 c0 -13 29 -35 37 -28 7 8 -15 37 -28 37 -5 0 -9 -4 -9
-9z"/>
<path d="M7252 13048 c-5 -7 -13 -23 -16 -35 -4 -13 -12 -23 -17 -23 -10 0 -2
-49 11 -63 4 -4 18 -3 32 2 21 8 26 18 31 62 5 37 3 55 -6 61 -17 11 -23 10
-35 -4z"/>
<path d="M8406 12898 c-9 -17 -16 -42 -16 -55 0 -19 5 -24 22 -21 30 4 53 47
44 81 -9 36 -31 34 -50 -5z"/>
<path d="M3018 12743 c-10 -2 -18 -11 -18 -19 0 -8 -4 -14 -9 -14 -13 0 -23
-34 -15 -54 3 -9 13 -16 21 -16 10 0 13 -6 9 -16 -3 -9 4 -25 19 -40 14 -14
25 -29 25 -35 0 -6 4 -8 9 -5 5 4 21 2 36 -4 20 -8 31 -7 42 2 8 7 25 17 37
23 30 15 35 86 7 121 -11 14 -22 25 -25 25 -3 -1 -23 8 -43 19 -37 19 -59 23
-95 13z"/>
<path d="M10760 12532 c-20 -10 -42 -31 -51 -51 -8 -18 -23 -37 -31 -42 -10
-5 -14 -17 -11 -33 8 -43 25 -48 65 -21 20 13 38 21 42 18 6 -6 65 51 67 64 5
51 3 66 -12 74 -24 12 -29 12 -69 -9z"/>
<path d="M7270 12482 c-39 -13 -53 -64 -20 -69 26 -5 42 13 38 44 -2 21 -7 28
-18 25z"/>
<path d="M15002 12435 c4 -5 3 -14 -4 -22 -14 -17 -4 -28 17 -19 20 7 16 37
-5 44 -8 3 -12 1 -8 -3z"/>
<path d="M0 12388 c0 -21 70 -88 91 -88 32 0 22 36 -18 69 -39 32 -73 41 -73
19z"/>
<path d="M3291 12338 c-8 -23 5 -68 19 -68 4 0 10 -13 13 -28 12 -61 97 -79
97 -21 0 16 5 29 10 29 17 0 11 30 -7 37 -24 9 -40 26 -36 38 3 12 -43 35 -69
35 -10 0 -22 -10 -27 -22z"/>
<path d="M6708 12315 c-10 -13 -18 -35 -18 -49 0 -14 -5 -26 -11 -26 -7 0 -9
-12 -5 -36 4 -19 3 -59 -3 -87 -17 -90 -20 -142 -11 -157 8 -13 12 -12 29 5
15 15 22 44 30 115 6 52 15 96 21 98 5 2 10 21 10 42 0 21 4 50 10 64 20 53
-20 77 -52 31z"/>
<path d="M10435 12183 c-27 -7 -115 -94 -115 -113 0 -9 -4 -20 -10 -26 -5 -5
-7 -19 -4 -32 9 -31 46 -28 101 8 24 17 48 30 54 30 5 0 9 9 9 20 0 11 7 20
15 20 19 0 22 22 10 78 -5 22 -18 25 -60 15z"/>
<path d="M5191 12111 c-30 -42 -30 -136 0 -152 32 -17 84 -3 97 26 6 14 18 25
27 25 9 0 15 9 15 23 0 49 -12 65 -60 86 -27 12 -51 21 -54 21 -2 0 -14 -13
-25 -29z"/>
<path d="M6462 12073 c-23 -8 -41 -20 -40 -26 1 -7 -3 -22 -10 -34 -9 -17 -10
-23 -1 -23 14 0 3 -51 -14 -63 -9 -6 -9 -10 1 -14 6 -2 12 -10 12 -17 0 -19
32 -44 60 -47 48 -6 87 59 60 101 -6 10 -4 22 5 37 13 19 13 26 0 57 -8 19
-18 37 -22 39 -5 2 -27 -2 -51 -10z"/>
<path d="M1765 12070 c3 -5 8 -10 11 -10 2 0 4 5 4 10 0 6 -5 10 -11 10 -5 0
-7 -4 -4 -10z"/>
<path d="M16729 12035 c-3 -2 -21 -5 -40 -6 -18 -1 -65 -8 -102 -17 -50 -11
-74 -12 -91 -4 -14 6 -28 7 -37 1 -8 -5 -29 -9 -47 -9 -35 0 -78 -23 -100 -53
-8 -10 -24 -28 -36 -40 -28 -27 -47 -78 -39 -107 3 -12 25 -30 57 -45 43 -20
61 -23 114 -18 34 3 62 9 62 12 0 3 10 7 23 7 53 4 87 27 80 55 -6 21 33 49
67 49 30 1 60 21 60 42 0 9 19 20 48 29 39 12 48 18 50 41 4 38 -14 68 -42 68
-12 0 -25 -2 -27 -5z"/>
<path d="M351 12001 c-21 -14 -3 -50 34 -68 60 -29 89 11 42 55 -24 23 -52 28
-76 13z"/>
<path d="M7628 11995 c-27 -7 -48 -11 -48 -9 0 2 -9 -4 -20 -13 -11 -10 -20
-21 -20 -24 0 -4 -13 -20 -29 -36 -27 -27 -29 -33 -27 -106 1 -52 -2 -78 -10
-81 -14 -5 -8 -43 11 -66 7 -8 16 -25 20 -38 7 -23 81 -66 97 -56 4 3 30 7 56
10 43 4 68 11 112 34 11 5 14 20 12 49 -2 27 2 51 13 67 21 32 13 54 -19 54
-34 0 -41 15 -16 40 25 25 29 107 5 116 -8 4 -15 12 -15 20 0 8 -7 14 -15 14
-8 0 -23 9 -32 20 -10 11 -20 20 -23 19 -3 0 -26 -7 -52 -14z"/>
<path d="M2742 11933 c3 -35 6 -38 36 -41 28 -3 32 0 32 21 0 27 -28 57 -54
57 -14 0 -17 -7 -14 -37z"/>
<path d="M8852 11915 c-24 -28 -33 -66 -17 -71 17 -6 75 53 75 75 0 29 -31 27
-58 -4z"/>
<path d="M8547 11914 c-4 -4 -16 -7 -29 -8 -19 -1 -24 -10 -36 -71 -8 -38 -20
-77 -28 -86 -8 -8 -14 -20 -14 -26 0 -6 -6 -13 -14 -16 -15 -6 -18 -57 -3 -56
5 0 17 -10 28 -22 45 -52 120 -67 151 -29 10 12 18 20 18 17 0 -3 14 -1 30 4
24 9 30 17 30 39 0 16 -6 30 -12 32 -9 3 -8 14 5 44 16 36 17 42 3 76 -9 20
-20 39 -25 43 -6 3 -7 13 -4 21 7 19 -16 36 -39 28 -10 -3 -18 -1 -18 5 0 12
-33 15 -43 5z"/>
<path d="M1031 11879 c-24 -10 -30 -59 -7 -59 8 0 22 -22 31 -52 20 -62 44
-93 59 -78 6 6 21 3 43 -11 18 -11 43 -19 55 -17 20 3 23 8 20 38 -2 22 -12
42 -28 55 -13 12 -24 31 -24 44 0 20 -4 22 -26 17 -16 -4 -23 -3 -20 3 4 5 1
13 -5 16 -5 4 -8 13 -6 19 7 16 -64 35 -92 25z"/>
<path d="M11450 11855 c-14 -17 -7 -43 15 -51 20 -8 55 23 55 48 0 23 -51 25
-70 3z"/>
<path d="M4633 11785 c-19 -13 -20 -18 -10 -52 6 -21 16 -44 22 -51 28 -37 80
-82 93 -82 12 0 61 56 74 85 10 22 8 27 -18 47 -36 29 -109 68 -126 68 -8 0
-23 -7 -35 -15z"/>
<path d="M6800 11729 c-28 -30 -36 -47 -39 -83 -2 -37 1 -45 19 -51 11 -4 19
-12 18 -18 -1 -7 1 -24 5 -39 7 -28 38 -38 62 -20 16 11 35 50 35 71 0 10 7
24 15 31 19 15 14 105 -6 125 -8 8 -28 16 -44 18 -24 3 -37 -4 -65 -34z"/>
<path d="M12745 11728 c-16 -6 -38 -19 -49 -30 -11 -10 -26 -18 -33 -18 -7 0
-13 -6 -13 -13 0 -14 -28 -41 -73 -70 -17 -11 -27 -26 -27 -42 0 -21 5 -25 28
-25 15 1 45 9 67 20 22 10 43 16 47 14 5 -3 8 1 8 8 0 7 25 38 56 69 51 52 55
58 42 78 -14 24 -12 23 -53 9z"/>
<path d="M4981 11594 c-15 -11 -20 -22 -16 -35 5 -14 0 -21 -19 -29 -14 -5
-26 -13 -26 -18 0 -14 23 -32 42 -32 13 0 18 -8 18 -31 0 -19 4 -28 11 -24 6
4 21 -3 35 -16 22 -21 25 -21 42 -6 10 10 26 17 35 17 10 0 17 8 17 20 0 11 8
24 18 28 9 4 18 19 19 34 1 20 -4 28 -23 32 -16 4 -29 18 -36 37 -9 25 -15 29
-42 27 -17 -1 -36 1 -42 5 -6 3 -21 -1 -33 -9z"/>
<path d="M13512 11525 c-36 -46 -3 -74 46 -39 22 15 31 54 13 54 -5 0 -16 3
-24 6 -9 3 -23 -6 -35 -21z"/>
<path d="M8163 11433 c-7 -2 -13 -13 -13 -23 0 -11 -11 -36 -25 -56 -29 -42
-44 -106 -26 -112 6 -2 11 -10 11 -17 0 -8 8 -16 18 -19 10 -4 28 -15 40 -26
18 -17 28 -19 54 -12 18 4 38 18 44 31 6 12 15 22 20 21 5 0 11 10 12 22 2 13
11 31 19 41 10 10 12 17 5 17 -8 0 -10 14 -6 44 5 36 3 47 -16 66 -15 15 -29
20 -45 16 -13 -3 -27 -2 -30 4 -6 10 -41 12 -62 3z"/>
<path d="M10748 11386 c-27 -20 -23 -56 5 -56 13 0 28 5 35 12 7 7 12 22 12
35 0 26 -24 30 -52 9z"/>
<path d="M14570 11344 c0 -9 5 -14 12 -12 18 6 21 28 4 28 -9 0 -16 -7 -16
-16z"/>
<path d="M13165 11303 c-40 -51 -66 -104 -63 -128 4 -29 20 -25 71 21 33 29
49 53 55 80 17 74 -14 87 -63 27z"/>
<path d="M6626 11303 c-4 -9 -4 -40 -1 -68 5 -40 3 -54 -9 -64 -12 -10 -16
-33 -16 -102 0 -48 -5 -91 -10 -94 -7 -4 -6 -13 1 -27 8 -15 7 -37 -2 -84 -9
-46 -10 -67 -2 -75 18 -18 52 12 70 61 9 25 20 50 24 55 4 6 4 17 -1 25 -14
21 -12 84 2 98 6 6 11 33 11 59 0 26 4 53 9 60 5 7 5 14 -2 18 -6 4 -10 32 -8
69 1 34 -1 67 -6 74 -11 18 -53 15 -60 -5z"/>
<path d="M7767 11294 c-14 -14 -7 -44 13 -54 16 -9 22 -8 27 6 10 27 -22 65
-40 48z"/>
<path d="M10074 11175 c-10 -8 -28 -15 -39 -15 -29 -1 -49 -20 -75 -70 -21
-41 -95 -120 -112 -120 -5 0 -8 -11 -8 -24 0 -13 -6 -27 -12 -30 -10 -5 -10
-7 0 -12 6 -3 9 -11 5 -17 -4 -6 0 -8 10 -4 12 5 17 1 17 -12 0 -20 52 -47 69
-37 5 3 11 1 13 -5 8 -23 62 6 82 44 14 26 31 41 62 53 24 9 51 25 61 36 19
21 53 120 53 155 0 26 -39 66 -57 59 -7 -3 -13 -1 -13 4 0 15 -34 12 -56 -5z"/>
<path d="M8243 11079 c-5 -5 -25 -18 -44 -27 -19 -9 -38 -27 -44 -39 -5 -12
-17 -24 -27 -26 -10 -3 -18 -12 -18 -21 0 -9 -7 -16 -15 -16 -21 0 -19 -47 3
-59 9 -6 12 -11 6 -11 -6 0 -25 -13 -43 -29 l-33 -30 17 -54 c16 -51 16 -56 0
-87 -11 -22 -15 -43 -10 -64 3 -17 7 -46 8 -65 1 -19 9 -37 17 -41 8 -4 25
-12 38 -19 36 -18 127 -3 157 27 14 13 25 28 25 32 0 4 11 12 25 18 13 6 31
27 39 46 8 20 28 42 45 51 41 21 59 59 56 120 -5 81 -15 116 -34 113 -10 -2
-15 3 -13 12 2 8 8 40 13 70 8 51 7 56 -14 72 -12 10 -29 15 -38 13 -9 -3 -29
1 -45 10 -34 18 -56 19 -71 4z m-113 -313 c0 -2 -9 -6 -20 -9 -11 -3 -18 -1
-14 4 5 9 34 13 34 5z"/>
<path d="M2609 11069 c-11 -7 -2 -21 38 -59 51 -50 86 -63 96 -36 7 17 -19 56
-37 56 -7 0 -21 9 -30 19 -21 23 -49 32 -67 20z"/>
<path d="M9078 11040 c-31 -24 -43 -60 -21 -60 22 0 83 48 83 66 0 20 -33 17
-62 -6z"/>
<path d="M1606 11033 c-9 -23 33 -58 86 -71 32 -8 40 -7 45 5 12 32 -26 63
-93 77 -25 6 -33 3 -38 -11z"/>
<path d="M6430 11010 c0 -5 5 -10 10 -10 6 0 10 5 10 10 0 6 -4 10 -10 10 -5
0 -10 -4 -10 -10z"/>
<path d="M8869 10991 c-15 -3 -43 -21 -64 -38 -21 -18 -50 -38 -65 -45 -27
-12 -34 -27 -47 -95 -6 -33 22 -78 57 -93 16 -7 30 -16 30 -20 0 -18 45 -17
87 1 24 10 55 19 67 19 15 0 27 9 34 25 6 14 16 25 21 25 5 0 12 16 16 36 4
24 13 38 26 41 15 4 19 14 19 44 0 22 -4 39 -9 39 -5 0 -13 9 -16 20 -3 11
-13 20 -21 20 -8 0 -14 7 -14 15 0 11 -11 15 -47 14 -27 -1 -60 -4 -74 -8z"/>
<path d="M2217 10953 c-26 -26 32 -100 87 -113 59 -13 76 -4 76 41 0 35 -3 39
-24 39 -35 0 -56 10 -56 26 0 15 -70 21 -83 7z"/>
<path d="M15553 10930 c-46 -28 -43 -50 5 -50 46 0 76 19 70 46 -5 26 -37 28
-75 4z"/>
<path d="M11220 10870 c0 -5 7 -10 16 -10 8 0 12 5 9 10 -3 6 -10 10 -16 10
-5 0 -9 -4 -9 -10z"/>
<path d="M3750 10860 c0 -5 5 -10 10 -10 6 0 10 5 10 10 0 6 -4 10 -10 10 -5
0 -10 -4 -10 -10z"/>
<path d="M12826 10784 c-23 -23 -21 -64 3 -64 23 0 51 25 51 45 0 25 -36 37
-54 19z"/>
<path d="M15093 10793 c-15 -6 -17 -29 -3 -38 13 -8 72 24 65 35 -6 10 -41 12
-62 3z"/>
<path d="M6380 10781 c0 -7 -5 -9 -11 -6 -6 4 -17 -2 -25 -14 -12 -17 -23 -20
-59 -17 -36 3 -47 -1 -64 -20 -12 -13 -18 -24 -14 -24 4 0 2 -5 -5 -12 -7 -7
-12 -19 -12 -27 0 -8 -6 -22 -14 -30 -11 -12 -12 -28 -5 -71 6 -40 5 -56 -4
-62 -9 -6 -8 -12 6 -22 9 -7 17 -18 17 -24 0 -5 7 -12 15 -15 8 -4 21 -22 29
-41 11 -27 19 -34 31 -29 10 3 21 0 25 -8 7 -11 13 -10 29 6 19 16 24 17 49 4
15 -8 30 -18 33 -23 7 -9 69 2 69 13 0 4 21 8 46 8 37 0 50 4 65 24 10 13 17
30 14 36 -2 7 1 16 8 20 18 12 35 52 41 98 11 75 6 105 -20 131 -13 14 -22 29
-19 34 3 4 -2 11 -10 14 -9 3 -20 17 -25 31 -9 23 -14 25 -77 25 -38 0 -78 3
-90 6 -14 4 -23 2 -23 -5z"/>
<path d="M9765 10710 c-3 -5 -13 -10 -21 -10 -21 0 -42 -22 -37 -40 4 -14 -23
-47 -59 -73 -11 -8 -17 -28 -18 -57 -2 -62 -2 -66 11 -53 8 8 18 8 35 0 18 -8
28 -7 36 1 7 7 20 12 30 12 11 0 18 7 18 20 0 15 7 20 24 20 19 0 28 8 37 33
6 18 21 38 33 43 12 5 24 24 29 47 8 32 6 40 -9 52 -22 16 -100 20 -109 5z"/>
<path d="M4294 10681 c3 -5 -5 -12 -19 -15 -26 -7 -28 -15 -25 -76 2 -37 24
-70 46 -70 7 0 19 -9 27 -20 22 -32 74 -43 111 -24 17 9 45 19 61 23 25 6 30
12 33 41 2 32 -1 37 -40 60 -44 25 -56 31 -95 44 -11 5 -23 16 -26 27 -4 14
-14 19 -42 19 -20 0 -34 -4 -31 -9z"/>
<path d="M13860 10651 c-14 -27 -13 -31 8 -31 27 0 44 21 31 37 -16 18 -27 16
-39 -6z"/>
<path d="M5693 10625 c3 -20 1 -48 -4 -63 -7 -21 -6 -36 6 -58 8 -16 15 -34
15 -41 0 -21 23 -27 35 -9 9 11 10 29 4 59 -4 23 -8 66 -9 95 0 49 -1 52 -26
52 -25 0 -26 -2 -21 -35z"/>
<path d="M5150 10587 c0 -14 14 -50 32 -81 56 -97 82 -58 30 44 -30 60 -62 79
-62 37z"/>
<path d="M1370 10582 c0 -22 31 -45 76 -57 87 -23 84 15 -4 49 -46 18 -72 20
-72 8z"/>
<path d="M8455 10550 c-3 -5 -1 -10 4 -10 6 0 11 5 11 10 0 6 -2 10 -4 10 -3
0 -8 -4 -11 -10z"/>
<path d="M9360 10520 c0 -5 -7 -10 -16 -10 -9 0 -14 -6 -11 -12 2 -7 -4 -24
-14 -37 -11 -13 -19 -34 -19 -46 0 -20 4 -21 36 -16 21 3 37 11 36 16 0 6 8
24 19 41 28 45 25 74 -6 74 -14 0 -25 -4 -25 -10z"/>
<path d="M4871 10457 c-30 -9 -33 -13 -28 -41 3 -17 11 -44 18 -61 11 -29 13
-37 17 -77 1 -10 9 -18 17 -18 24 0 18 -38 -7 -46 -13 -4 -26 -11 -30 -17 -4
-7 -14 -5 -30 5 -27 17 -60 17 -81 -1 -22 -18 -33 -133 -17 -172 9 -20 13 -72
12 -140 -1 -95 -3 -110 -21 -128 -12 -12 -21 -25 -21 -29 0 -5 -10 -8 -22 -8
-22 1 -23 -2 -20 -69 2 -38 9 -76 15 -83 13 -17 -2 -32 -45 -46 -28 -10 -33
-16 -36 -48 -2 -29 2 -40 17 -50 12 -7 21 -17 21 -21 0 -5 -23 -30 -52 -55
-41 -38 -59 -47 -87 -47 -33 0 -36 -2 -33 -27 2 -22 -2 -28 -16 -28 -10 0 -22
-4 -28 -9 -5 -4 -44 -14 -86 -21 l-77 -13 -16 -48 c-19 -56 -14 -72 21 -63 20
5 24 2 24 -15 0 -17 -6 -21 -34 -21 -18 0 -39 7 -47 16 -12 14 -14 14 -25 -1
-7 -9 -25 -17 -41 -19 -23 -3 -29 -8 -31 -35 -2 -21 1 -31 10 -31 8 0 29 -13
48 -29 32 -27 34 -30 21 -54 -8 -15 -11 -36 -6 -56 4 -21 3 -31 -5 -31 -9 0
-11 -12 -6 -42 6 -36 5 -39 -8 -28 -10 8 -31 10 -58 7 -24 -4 -69 -8 -102 -10
-58 -4 -76 -15 -76 -48 0 -18 19 -37 53 -54 21 -10 50 -55 42 -64 -3 -2 -26
-4 -52 -3 -45 1 -52 -3 -107 -52 l-60 -54 30 -31 c16 -17 37 -31 46 -31 29 0
20 -26 -17 -51 -62 -42 -54 -98 14 -100 l26 0 -22 -11 c-13 -6 -23 -15 -23
-20 0 -4 -12 -8 -27 -8 -14 0 -49 -14 -76 -32 -39 -25 -60 -32 -104 -32 -32
-1 -57 -6 -62 -14 -4 -7 -21 -16 -37 -21 -38 -10 -44 -45 -13 -70 18 -14 22
-27 21 -65 -1 -26 -7 -56 -13 -67 -5 -11 -7 -24 -3 -30 3 -6 -3 -19 -15 -30
-30 -28 -26 -56 9 -74 17 -9 30 -24 30 -34 0 -22 40 -61 64 -61 25 0 56 -19
56 -33 0 -7 6 -22 14 -32 13 -18 15 -19 33 -3 35 32 66 32 101 -1 20 -20 42
-31 60 -31 16 0 37 -9 47 -20 10 -11 28 -20 40 -20 23 0 49 -22 39 -33 -3 -3
-27 1 -52 9 -26 7 -59 14 -73 14 -28 0 -59 -27 -59 -53 0 -23 -47 -67 -64 -61
-8 3 -19 19 -25 36 -9 27 -14 29 -38 24 -67 -17 -83 -106 -29 -161 14 -14 46
-28 79 -35 60 -12 96 -43 77 -66 -6 -6 -8 -19 -4 -28 3 -9 1 -16 -5 -16 -18 0
-12 -28 8 -35 10 -3 26 -14 36 -25 17 -19 17 -20 -1 -26 -38 -11 -48 -21 -57
-53 -7 -28 -5 -36 13 -48 23 -16 23 -18 4 -126 -8 -45 5 -63 50 -71 18 -3 45
-20 61 -36 24 -26 34 -29 62 -24 l33 6 0 -46 c0 -52 21 -71 71 -64 35 5 36 1
7 -29 -16 -17 -19 -26 -10 -35 8 -8 8 -17 1 -30 -14 -26 3 -45 51 -59 31 -9
39 -17 42 -40 3 -19 -2 -35 -14 -46 -10 -9 -18 -29 -18 -44 0 -21 -7 -32 -29
-43 -30 -16 -41 -34 -41 -67 0 -10 -3 -19 -7 -20 -5 0 -44 -2 -87 -5 -86 -5
-106 -17 -98 -60 3 -17 11 -24 28 -24 14 0 24 -6 24 -14 0 -8 7 -16 15 -20 24
-9 17 -42 -12 -62 -16 -10 -34 -24 -41 -31 -7 -7 -20 -13 -28 -13 -22 0 -17
-22 12 -53 17 -19 32 -26 43 -22 9 4 24 10 34 12 9 3 17 12 17 21 0 9 16 33
36 54 l37 37 20 -25 c12 -16 17 -34 14 -50 -2 -14 2 -39 10 -55 12 -24 21 -29
49 -29 19 0 34 -4 34 -10 0 -15 33 -50 48 -50 20 0 83 -71 74 -84 -4 -6 -18
-28 -30 -48 -28 -45 -71 -76 -82 -58 -5 8 -13 9 -26 3 -21 -11 -64 -10 -81 0
-17 10 -41 -2 -49 -25 -3 -12 -11 -17 -20 -14 -9 3 -25 -5 -38 -19 -13 -14
-28 -25 -33 -25 -5 0 -18 -9 -28 -20 -10 -11 -26 -20 -37 -20 -12 0 -18 -7
-18 -21 0 -12 -4 -18 -11 -13 -14 8 -29 -14 -29 -43 0 -13 -5 -23 -11 -23 -5
0 -8 -4 -5 -8 3 -5 -2 -21 -10 -37 -8 -15 -14 -38 -14 -49 1 -12 1 -37 1 -56
0 -19 3 -40 7 -45 13 -19 89 -47 109 -41 13 4 25 0 34 -10 12 -14 10 -19 -15
-39 -26 -20 -28 -26 -21 -64 4 -25 15 -47 26 -54 10 -6 19 -20 19 -29 0 -10 4
-18 9 -18 5 0 12 -12 15 -26 6 -24 11 -26 41 -21 19 3 57 16 84 28 53 25 77
59 62 87 -5 9 -9 19 -10 22 0 3 -5 19 -11 37 -12 34 -32 47 -69 44 -25 -3 -26
17 0 30 44 23 84 39 101 39 10 0 18 4 18 9 0 18 62 71 83 71 32 0 42 11 46 50
2 19 6 37 11 40 15 10 21 49 9 68 -24 39 -7 49 80 49 94 0 116 -14 116 -76 0
-35 1 -36 39 -36 31 0 41 -5 49 -23 20 -44 95 -35 84 10 -6 22 29 34 70 23 37
-9 83 -43 83 -61 0 -18 16 -36 48 -53 12 -6 22 -21 22 -31 0 -25 4 -25 40 2
25 18 35 20 63 11 28 -8 38 -7 57 7 24 18 22 50 -2 50 -7 0 -21 11 -30 24 -16
23 -16 25 3 42 17 15 24 16 39 6 27 -16 50 -15 50 3 0 9 9 15 23 15 12 1 33 7
47 15 29 17 76 19 85 5 3 -5 -5 -12 -19 -16 -19 -4 -26 -14 -31 -45 -4 -22
-12 -39 -20 -39 -24 0 -24 -41 1 -93 40 -84 54 -107 66 -107 6 0 8 -10 4 -26
-9 -35 15 -70 62 -89 20 -9 44 -24 52 -35 15 -18 16 -18 52 -1 22 11 41 15 50
10 23 -15 39 -10 56 21 18 31 52 41 52 15 0 -8 6 -15 13 -15 24 0 67 25 72 41
7 20 96 40 119 27 20 -11 20 -22 1 -42 -20 -20 -7 -27 63 -33 51 -5 63 -2 110
26 58 34 68 37 74 20 7 -20 103 -23 149 -5 22 9 49 14 58 11 21 -6 46 20 55
58 8 33 41 36 79 7 14 -11 32 -17 41 -14 20 8 20 -5 1 -30 -19 -25 -11 -36 25
-36 41 0 63 -10 51 -24 -6 -7 -1 -21 15 -40 22 -25 30 -28 68 -24 40 5 42 4
38 -18 -2 -13 1 -24 6 -24 6 0 19 -9 29 -19 10 -11 35 -22 55 -25 32 -5 39 -2
57 23 25 35 28 108 6 137 -8 10 -15 31 -15 46 0 15 -7 42 -16 61 -15 31 -15
35 6 70 12 20 26 37 31 37 5 0 18 9 29 20 11 11 30 21 43 21 34 2 39 3 80 21
20 9 37 22 37 28 0 6 9 5 23 -4 12 -7 39 -17 59 -20 35 -6 36 -7 27 -38 -13
-47 2 -58 78 -58 69 0 116 -17 133 -50 13 -24 -2 -60 -25 -60 -11 0 -11 -5 3
-30 9 -17 24 -32 33 -35 11 -4 15 -13 12 -25 -5 -18 0 -20 56 -20 37 0 74 6
93 16 16 9 27 11 24 5 -5 -7 8 -11 39 -11 33 0 52 -6 68 -21 17 -16 31 -20 65
-16 34 4 45 1 52 -14 11 -19 106 -53 121 -43 5 3 9 14 9 25 0 18 2 19 30 4 32
-17 86 -20 94 -6 4 5 24 12 46 16 33 6 40 11 40 30 0 20 -7 25 -35 31 -40 7
-39 6 -23 51 9 25 16 32 28 26 14 -7 46 -7 148 -1 66 4 156 -5 189 -19 49 -20
53 -17 53 37 0 59 11 67 102 76 35 4 70 13 79 21 18 15 45 9 53 -13 3 -9 20
-14 46 -14 32 0 46 6 70 31 16 18 30 35 30 38 0 11 74 30 85 22 12 -9 209 -6
224 4 6 3 11 19 11 34 0 32 22 56 44 48 21 -8 56 21 56 47 0 14 -10 28 -26 36
-14 8 -35 27 -46 42 -15 21 -28 28 -54 28 -19 0 -34 4 -34 10 0 12 37 32 75
40 26 5 30 10 31 41 0 33 38 109 54 109 4 0 13 -7 21 -16 16 -20 50 -12 113
29 57 36 73 40 80 21 8 -20 72 -18 80 2 3 8 2 23 -3 33 -8 15 -12 69 -11 146
1 37 -39 57 -102 51 -32 -3 -69 -1 -83 4 -21 8 -24 14 -19 40 5 20 3 30 -6 30
-8 0 -10 8 -7 22 3 13 0 31 -8 41 -7 11 -11 25 -8 33 6 15 -21 79 -38 89 -7 5
-6 11 1 20 6 8 10 26 8 41 -3 24 2 29 30 36 22 6 40 21 57 49 18 27 35 41 56
46 35 7 52 38 50 92 0 20 6 39 14 45 25 18 30 78 8 104 l-18 23 -47 -24 c-34
-17 -59 -23 -85 -20 -32 3 -42 0 -59 -22 l-20 -26 -31 48 c-47 74 -55 93 -49
117 3 14 -3 42 -15 67 -27 55 -24 53 -48 39 -13 -6 -21 -7 -21 -1 0 19 33 28
68 20 31 -7 38 -4 64 23 33 36 37 78 8 96 -11 7 -20 21 -20 32 0 11 -7 20 -15
20 -10 0 -15 10 -15 33 -1 52 -30 80 -87 84 -121 7 -177 22 -187 49 -3 8 11
30 30 49 31 31 40 35 69 29 31 -5 36 -3 55 27 20 33 21 63 4 122 -4 14 1 17
35 17 37 0 71 19 71 40 0 4 11 11 25 14 34 9 31 22 -6 30 -27 5 -30 8 -19 21
7 8 10 27 7 41 -4 23 -2 25 22 19 14 -4 64 -11 111 -16 80 -8 86 -8 103 12 21
26 22 62 2 79 -13 11 -12 15 9 31 31 25 49 94 35 142 -11 40 -34 57 -89 66
-43 8 -53 42 -21 72 23 22 21 52 -7 101 -15 26 -15 29 1 41 17 12 17 14 -5 34
-13 11 -36 27 -51 35 l-28 14 38 26 c27 19 46 25 65 21 15 -3 35 1 48 10 15
10 31 12 63 6 37 -7 44 -5 59 14 10 12 18 30 18 39 0 10 18 47 40 83 45 74 48
90 20 107 -16 10 -18 20 -13 55 l6 43 -39 0 c-49 1 -81 26 -89 73 -6 30 -13
37 -48 51 -57 21 -157 12 -165 -16 -3 -13 -14 -18 -38 -18 -29 0 -34 4 -34 23
0 13 -13 36 -30 52 -33 32 -38 45 -15 45 10 0 15 10 15 28 0 15 4 33 9 41 6 9
1 25 -15 49 -29 42 -29 48 -4 64 20 13 27 42 12 52 -4 2 -24 7 -45 11 -30 6
-37 4 -37 -9 0 -13 -35 -36 -55 -36 -13 0 11 39 26 43 27 7 24 34 -9 66 -41
42 -65 51 -132 51 -53 0 -63 3 -67 19 -4 16 -17 21 -62 26 -31 4 -69 11 -86
15 -16 5 -50 14 -75 21 -25 7 -63 21 -85 30 l-39 18 27 10 c23 9 27 16 27 51
0 27 4 40 13 40 20 0 43 31 50 65 5 27 1 33 -33 53 -22 12 -48 22 -58 22 -35
0 -89 29 -95 51 -4 16 -11 19 -26 14 -11 -3 -36 -3 -56 1 -28 5 -35 11 -35 29
0 28 -10 32 -109 44 -70 9 -100 26 -101 56 0 15 -33 33 -74 41 -29 5 -42 2
-58 -12 l-21 -19 8 35 c9 42 9 48 -1 123 -6 47 -11 60 -29 67 -12 5 -35 21
-51 37 -16 16 -38 34 -49 40 -17 10 -18 14 -5 37 12 23 12 29 -1 42 -8 8 -30
16 -49 19 -18 2 -38 9 -44 15 -8 9 -5 11 13 8 20 -2 26 2 31 22 14 56 -6 79
-68 80 -13 0 -57 13 -97 29 -40 16 -82 27 -92 25 -11 -3 -25 2 -32 10 -16 19
-46 20 -107 5 -52 -13 -64 -31 -39 -59 16 -17 16 -19 -4 -30 -14 -7 -21 -21
-21 -39 0 -31 -14 -41 -61 -41 -16 0 -46 -7 -66 -15 -48 -20 -53 -19 -53 13 0
46 -38 81 -95 90 -28 5 -66 16 -85 26 -45 23 -170 32 -170 12 0 -7 -7 -19 -15
-26 -8 -7 -15 -22 -15 -35 0 -12 -8 -29 -17 -37 -21 -18 -81 -29 -89 -16 -11
18 -64 8 -78 -14 -30 -48 -29 -67 4 -118 36 -56 31 -84 -19 -95 -41 -9 -85 16
-112 65 l-23 41 -110 -3 -110 -3 -1 -30 c0 -26 -4 -30 -40 -38 -26 -5 -58 -4
-94 4 -46 11 -55 11 -65 -2 -6 -9 -36 -25 -66 -38 -52 -21 -57 -21 -92 -7 -40
17 -52 44 -67 146 -5 38 -10 45 -30 46 -13 1 -27 8 -32 16 -5 10 -22 15 -46
14 -35 -1 -38 -3 -48 -46 -6 -25 -13 -45 -15 -44 -3 0 -26 6 -52 13 -42 12
-49 11 -63 -3 -9 -9 -20 -15 -23 -13 -4 2 -19 9 -34 16 -38 19 -73 7 -97 -34
-23 -39 -22 -39 -105 -55 -38 -8 -68 -21 -83 -36 -22 -22 -29 -24 -56 -14 -18
6 -47 24 -66 41 -32 29 -34 36 -37 100 -2 60 0 69 17 74 10 4 19 11 19 16 0 5
16 9 35 9 22 0 35 5 35 13 0 7 9 20 21 30 14 13 18 24 13 40 -4 12 -11 24 -15
25 -5 2 -7 8 -3 13 3 5 -4 9 -15 9 -24 0 -27 10 -9 28 9 9 8 15 -8 27 -10 8
-24 15 -30 15 -7 0 -14 7 -18 15 -3 8 -15 15 -26 15 -11 0 -20 5 -20 10 0 13
-65 11 -109 -3z m3883 -3566 c12 -19 -5 -38 -30 -33 -23 4 -31 21 -17 35 9 10
41 8 47 -2z m-4524 -581 l20 -20 -24 0 c-27 0 -41 14 -31 30 9 14 12 13 35
-10z m2485 -1281 c8 -13 6 -15 -23 -24 -22 -6 -22 -5 -10 14 14 23 24 26 33
10z"/>
<path d="M1403 10454 c-13 -6 -6 -35 11 -46 24 -17 67 -8 75 15 5 12 8 23 6
25 -5 6 -80 10 -92 6z"/>
<path d="M14120 10432 c-8 -3 -21 -11 -28 -19 -7 -7 -20 -13 -28 -13 -24 0
-17 -48 10 -65 17 -12 30 -13 49 -6 14 5 28 7 31 4 3 -3 16 1 29 10 22 14 23
14 23 -6 -1 -17 7 -23 43 -30 28 -5 46 -5 50 1 3 6 24 15 46 21 33 9 43 17 53
44 7 18 12 36 12 39 0 14 -46 16 -74 4 -17 -7 -50 -18 -73 -23 -38 -9 -43 -8
-43 8 0 24 -63 44 -100 31z"/>
<path d="M15810 10395 c-9 -11 -10 -19 -3 -26 14 -14 53 6 53 26 0 20 -34 19
-50 0z"/>
<path d="M3720 10281 c0 -6 5 -13 10 -16 6 -3 10 1 10 9 0 9 -4 16 -10 16 -5
0 -10 -4 -10 -9z"/>
<path d="M9158 10255 c-3 -3 -16 -8 -28 -10 -39 -8 -63 -43 -68 -100 l-4 -52
37 -6 c21 -3 46 -2 55 3 13 7 20 5 24 -6 5 -13 9 -14 21 -4 8 6 19 9 24 6 10
-7 51 30 76 68 15 22 13 25 -31 60 -26 20 -53 36 -60 36 -7 0 -19 2 -26 5 -8
3 -17 3 -20 0z"/>
<path d="M4640 10244 c-8 -3 -32 -12 -52 -21 -38 -16 -40 -22 -23 -80 6 -18
71 -27 104 -13 35 14 46 62 23 97 -14 23 -24 26 -52 17z"/>
<path d="M6368 10213 c-4 -53 9 -103 27 -103 11 0 15 12 15 44 0 24 -3 51 -6
60 -8 22 -34 20 -36 -1z"/>
<path d="M8487 10128 c-37 -58 -47 -93 -24 -86 18 6 69 105 65 126 -3 12 -15
0 -41 -40z"/>
<path d="M11423 9974 c-3 -11 -21 -33 -40 -49 -18 -17 -33 -36 -33 -43 0 -24
26 -40 55 -34 37 7 125 69 125 88 0 8 5 14 11 14 5 0 7 5 4 10 -3 6 -16 10
-28 10 -18 0 -20 2 -7 11 12 9 11 9 -5 4 -25 -9 -36 -9 -57 0 -13 5 -20 1 -25
-11z"/>
<path d="M3884 9946 c-3 -8 0 -24 6 -36 10 -18 8 -24 -7 -35 -11 -9 -20 -10
-24 -3 -5 8 -95 -7 -166 -28 -7 -2 -13 -16 -13 -31 0 -17 -8 -33 -20 -41 -24
-15 -27 -57 -4 -66 9 -3 29 -6 45 -6 20 0 29 -5 29 -16 0 -11 6 -14 20 -9 11
3 20 3 20 -2 0 -4 14 -14 30 -21 21 -10 30 -21 30 -37 0 -13 8 -29 18 -34 9
-6 13 -11 8 -11 -5 0 -3 -6 3 -14 9 -11 22 -11 76 -1 36 6 65 9 65 6 0 -3 5 0
12 7 7 7 20 12 30 12 11 0 18 7 18 18 0 9 14 34 31 55 30 36 30 38 14 63 -9
14 -27 29 -39 34 -13 5 -39 22 -57 38 -19 16 -42 31 -51 35 -28 10 -21 26 9
24 45 -3 41 28 -9 73 -46 42 -65 49 -74 26z m41 -86 c-3 -5 -10 -10 -16 -10
-5 0 -9 5 -9 10 0 6 7 10 16 10 8 0 12 -4 9 -10z"/>
<path d="M8248 9856 c-26 -19 -22 -45 8 -57 33 -12 67 13 62 45 -4 25 -45 32
-70 12z"/>
<path d="M8928 9733 c-10 -3 -18 -9 -18 -15 0 -6 -10 -8 -23 -4 -12 3 -35 -1
-50 -9 -15 -8 -25 -9 -21 -3 4 6 1 9 -7 6 -9 -3 -15 -25 -17 -66 l-3 -62 50 0
c30 0 51 -5 53 -12 6 -16 118 38 118 56 0 7 10 23 21 35 18 19 19 25 8 32 -8
5 -10 9 -6 9 4 0 4 7 -1 16 -9 16 -68 25 -104 17z"/>
<path d="M3157 9714 c-8 -8 1 -24 14 -24 5 0 9 7 9 15 0 15 -12 20 -23 9z"/>
<path d="M3247 9593 c-13 -12 -7 -20 31 -47 33 -22 82 -35 82 -21 0 45 -85 96
-113 68z"/>
<path d="M9615 9570 c-4 -6 -15 -8 -26 -5 -10 4 -19 2 -19 -4 0 -8 -13 -15
-55 -28 -5 -2 -27 -6 -48 -10 -26 -6 -42 -16 -50 -33 -7 -14 -20 -24 -28 -23
-20 3 -49 -65 -49 -115 0 -35 6 -48 35 -77 35 -33 71 -52 82 -42 2 3 18 1 34
-5 25 -9 32 -7 43 7 10 13 26 18 60 18 44 -1 51 3 101 52 30 29 55 62 55 73 0
11 8 22 18 25 19 4 32 44 32 93 0 25 -62 93 -68 75 -5 -14 -39 -14 -47 -1 -8
13 -62 13 -70 0z"/>
<path d="M8794 9555 c-8 -20 3 -48 18 -43 6 2 16 12 22 21 8 13 7 20 -4 27
-21 14 -30 12 -36 -5z"/>
<path d="M4335 9523 c-4 -12 1 -24 15 -35 38 -31 57 -18 40 26 -11 30 -44 35
-55 9z"/>
<path d="M13595 9500 c-3 -5 -2 -10 4 -10 5 0 13 5 16 10 3 6 2 10 -4 10 -5 0
-13 -4 -16 -10z"/>
<path d="M9185 9452 c-22 -10 -52 -22 -67 -25 -38 -10 -78 -56 -78 -89 0 -23
4 -28 24 -28 41 0 149 51 179 84 53 59 19 93 -58 58z"/>
<path d="M3927 9350 c-9 -11 -25 -20 -36 -20 -15 0 -18 -5 -13 -22 4 -18 2
-20 -16 -16 -46 12 -22 -63 38 -119 23 -22 40 -47 40 -60 0 -22 7 -26 68 -38
41 -8 66 9 52 35 -14 25 -3 47 26 54 13 4 24 13 24 21 0 7 9 20 21 28 29 21
22 60 -11 67 -45 10 -100 40 -100 54 0 8 -11 14 -27 14 -15 0 -29 5 -31 11 -5
16 -15 14 -35 -9z"/>
<path d="M11130 9343 c-72 -5 -90 -12 -90 -32 0 -24 46 -36 84 -21 15 5 47 10
72 10 36 0 44 3 44 19 0 20 -20 32 -48 29 -9 -1 -37 -3 -62 -5z"/>
<path d="M3180 9210 c0 -5 5 -10 10 -10 6 0 10 5 10 10 0 6 -4 10 -10 10 -5 0
-10 -4 -10 -10z"/>
<path d="M2995 9190 c-15 -17 -17 -25 -8 -38 6 -9 17 -16 23 -14 7 1 23 -4 36
-13 13 -8 25 -11 29 -5 3 5 12 7 20 4 9 -4 16 3 21 21 8 32 -4 46 -43 50 -15
2 -35 6 -44 9 -9 4 -23 -2 -34 -14z"/>
<path d="M10225 9187 c-13 -10 -16 -21 -11 -40 5 -20 3 -27 -9 -27 -23 0 -18
-38 8 -51 12 -7 25 -16 28 -21 4 -6 13 -6 25 0 11 5 32 16 48 23 26 12 56 60
56 89 0 5 -15 10 -34 10 -21 0 -36 6 -40 15 -7 19 -46 19 -71 2z"/>
<path d="M1410 9137 c0 -42 15 -57 57 -57 18 0 33 -3 33 -7 0 -5 16 -8 35 -9
19 0 43 -8 53 -17 20 -18 72 -23 72 -7 0 6 9 10 20 10 23 0 27 28 5 36 -8 4
-15 12 -15 19 0 8 -24 14 -72 18 -58 5 -76 10 -87 27 -10 15 -24 20 -57 20
-43 0 -44 -1 -44 -33z"/>
<path d="M12510 9060 c-82 -15 -125 -33 -128 -56 -3 -19 3 -22 50 -27 29 -4
72 -7 95 -7 39 0 42 -2 40 -27 -3 -45 30 -42 74 7 22 24 39 46 39 49 0 4 -12
19 -27 33 -32 30 -79 39 -143 28z"/>
<path d="M1019 9031 c-3 -9 -20 -15 -46 -15 -33 -1 -43 -6 -56 -28 -15 -25
-14 -27 11 -36 15 -6 59 -10 97 -10 43 0 85 -5 107 -15 31 -13 39 -14 45 -2 5
7 24 15 43 17 30 3 35 7 35 28 0 22 -5 25 -37 26 -21 1 -52 7 -70 13 -20 7
-34 8 -38 2 -3 -6 -11 -6 -20 -1 -8 6 -25 10 -37 10 -12 0 -23 6 -25 13 -4 9
-6 8 -9 -2z"/>
<path d="M11140 9000 c-9 -22 -19 -30 -37 -30 -18 0 -24 -4 -20 -14 3 -8 -1
-20 -9 -26 -7 -7 -12 -22 -10 -34 9 -46 15 -52 55 -48 29 3 42 -1 52 -15 14
-19 53 -24 77 -9 7 4 16 5 21 2 5 -3 11 0 14 8 7 18 56 27 78 13 13 -8 25 -8
43 1 29 13 34 49 15 99 -22 58 -49 70 -185 78 l-82 5 -12 -30z"/>
<path d="M10089 8981 c-26 -10 -72 -51 -66 -58 8 -8 96 17 103 29 9 15 -19 37
-37 29z"/>
<path d="M3340 8790 l-25 -19 33 -31 c17 -17 32 -38 32 -46 0 -7 6 -14 13 -14
8 0 22 -9 32 -20 10 -11 26 -20 37 -20 10 0 18 -4 18 -8 0 -5 16 -14 37 -20
30 -9 45 -8 89 8 30 10 61 26 71 35 15 16 14 18 -13 41 -16 13 -39 23 -52 24
-12 0 -25 7 -28 15 -4 9 -19 15 -40 15 -19 0 -34 5 -34 11 0 5 -4 7 -10 4 -5
-3 -10 -1 -10 5 0 6 -5 8 -10 5 -6 -4 -31 3 -55 14 -54 25 -54 25 -85 1z"/>
<path d="M10613 8737 c-23 -12 -43 -28 -43 -35 0 -10 -5 -10 -22 -1 -19 10
-26 7 -60 -32 -34 -39 -40 -42 -51 -28 -6 9 -22 19 -35 23 -18 6 -22 4 -22
-13 0 -14 -6 -20 -17 -19 -45 3 -65 -3 -70 -22 -3 -11 -8 -20 -12 -21 -43 -6
-59 -4 -76 7 -20 13 -79 8 -70 -6 3 -4 -2 -11 -11 -14 -11 -4 -15 -17 -14 -44
3 -47 -8 -82 -26 -82 -16 0 -19 -31 -5 -45 5 -6 11 -28 13 -50 2 -33 7 -41 26
-43 12 -2 22 -10 22 -19 0 -11 7 -14 25 -11 14 3 25 2 25 -3 0 -12 69 -29 117
-29 23 0 45 -5 48 -10 4 -7 11 -8 18 -2 7 5 48 13 92 17 110 10 195 33 217 59
10 11 27 32 39 46 13 16 32 25 52 26 40 2 95 11 106 19 5 3 7 14 4 25 -4 14 1
21 21 26 19 4 26 13 27 33 1 14 3 35 3 46 1 11 -6 35 -16 53 -10 18 -18 40
-18 48 0 17 -20 19 -20 2 0 -7 -8 2 -16 20 -17 33 -32 40 -50 22 -7 -7 -17 -3
-32 10 -12 11 -43 30 -69 42 -27 12 -50 23 -53 24 -3 2 -24 -7 -47 -19z"/>
<path d="M3015 8650 c3 -5 8 -10 11 -10 2 0 4 5 4 10 0 6 -5 10 -11 10 -5 0
-7 -4 -4 -10z"/>
<path d="M12718 8629 c-10 -5 -18 -19 -18 -30 0 -17 6 -20 32 -17 35 3 51 33
26 49 -16 11 -19 11 -40 -2z"/>
<path d="M2600 8446 c0 -18 16 -29 30 -21 13 8 1 35 -16 35 -8 0 -14 -6 -14
-14z"/>
<path d="M11036 8408 c-15 -17 -16 -24 -7 -46 9 -19 15 -22 23 -14 17 17 48
15 48 -3 0 -8 -9 -15 -20 -15 -11 0 -20 -4 -20 -8 0 -5 -19 -14 -41 -21 -25
-8 -43 -20 -46 -31 -3 -11 -13 -22 -22 -25 -14 -4 -41 -47 -41 -66 0 -4 11
-10 25 -13 14 -4 25 -11 25 -17 0 -16 27 -39 45 -39 9 0 29 -9 44 -19 19 -13
39 -19 64 -16 20 1 39 0 42 -4 2 -4 14 -7 27 -6 13 1 29 -2 35 -7 7 -6 20 -8
28 -4 10 3 17 -3 21 -19 4 -18 12 -23 33 -23 16 1 33 -2 40 -6 7 -4 17 -3 24
2 10 8 70 24 102 27 6 0 19 6 31 12 20 11 77 5 103 -12 7 -4 23 -4 37 -1 20 5
24 13 24 41 0 45 -26 59 -108 57 -50 0 -64 3 -72 17 -6 13 -17 17 -35 14 -27
-6 -33 5 -13 25 9 9 10 15 2 20 -6 4 -21 24 -32 46 -26 49 -64 69 -120 63 -23
-2 -45 -1 -48 4 -3 5 -17 9 -32 9 -15 0 -37 3 -50 6 -23 7 -23 7 -2 21 22 16
26 43 8 61 -20 20 -100 13 -122 -10z"/>
<path d="M3583 8320 c-28 -11 -30 -36 -4 -50 29 -15 73 7 69 34 -3 24 -31 30
-65 16z"/>
<path d="M1128 8289 c-22 -29 -22 -43 -2 -75 14 -21 22 -23 50 -18 27 5 34 3
34 -10 0 -9 11 -21 24 -26 25 -9 66 -3 66 10 0 4 13 10 29 13 62 13 39 101
-26 103 -16 0 -34 3 -40 7 -5 4 -35 9 -64 12 -48 6 -56 4 -71 -16z"/>
<path d="M12465 8270 c-10 -11 -27 -23 -39 -26 -29 -10 -46 -35 -39 -61 7 -29
-5 -76 -16 -68 -17 10 2 -35 25 -60 30 -32 89 -35 97 -5 6 23 27 27 27 6 0
-26 127 -46 136 -21 4 9 22 12 65 11 44 -2 59 1 59 10 0 8 12 17 28 20 46 11
133 55 127 65 -11 16 17 9 30 -8 11 -15 15 -14 41 10 22 21 26 29 16 39 -7 7
-12 20 -12 31 0 10 -13 32 -29 48 -26 25 -33 28 -56 19 -15 -6 -32 -7 -38 -3
-15 9 -146 4 -165 -6 -9 -5 -27 -2 -45 7 -26 13 -39 13 -93 3 -44 -9 -68 -10
-82 -2 -15 8 -23 6 -37 -9z"/>
<path d="M2029 8060 c-22 -20 -22 -45 1 -72 18 -23 88 -25 96 -3 4 8 15 15 26
15 30 0 19 40 -18 60 -39 22 -78 22 -105 0z"/>
<path d="M3051 7961 c-7 -5 -31 -6 -51 -4 -30 4 -42 1 -56 -16 -12 -13 -20
-17 -25 -10 -10 17 -96 24 -114 9 -22 -19 -18 -38 17 -82 27 -34 35 -39 60
-34 15 3 28 1 28 -4 0 -13 37 -13 45 1 4 6 13 8 21 5 8 -3 17 1 20 9 5 12 11
12 39 -2 35 -17 76 -12 95 10 42 49 47 59 43 81 -3 16 -10 23 -19 19 -8 -3
-17 2 -20 11 -7 17 -59 22 -83 7z"/>
<path d="M11300 7885 c0 -23 2 -25 21 -15 23 13 21 33 -4 38 -12 3 -17 -4 -17
-23z"/>
<path d="M3107 7804 c-8 -8 1 -24 14 -24 5 0 9 7 9 15 0 15 -12 20 -23 9z"/>
<path d="M10595 7753 c-42 -10 -76 -63 -41 -63 8 0 22 -10 30 -22 15 -20 16
-21 34 -5 10 9 23 17 29 17 6 0 13 14 17 32 9 43 -11 55 -69 41z"/>
<path d="M3220 7604 c-8 -3 -22 -8 -30 -11 -22 -9 -28 -10 -48 -12 -26 -2 -72
-49 -72 -74 0 -27 19 -57 26 -41 3 8 15 8 42 -2 20 -7 53 -13 72 -14 20 0 46
-7 58 -16 13 -9 29 -13 37 -10 9 3 15 -1 15 -10 0 -12 6 -15 23 -9 12 3 41 11
63 16 42 10 42 10 28 38 -14 28 -43 47 -79 53 -19 3 -19 4 1 24 28 28 15 51
-34 59 -75 13 -87 14 -102 9z"/>
<path d="M11190 7442 c-8 -3 -19 -11 -23 -18 -9 -16 -83 -38 -97 -29 -6 4 -24
-7 -41 -24 -17 -17 -36 -31 -42 -31 -7 0 -21 -13 -32 -30 -11 -16 -29 -34 -41
-41 -13 -6 -25 -23 -29 -38 -4 -14 -12 -29 -18 -33 -8 -5 -6 -8 6 -8 9 0 17
-8 17 -18 0 -9 9 -23 20 -30 11 -7 20 -21 20 -32 0 -18 6 -20 53 -18 l52 3 -3
-33 c-1 -22 3 -35 13 -38 8 -4 15 -13 15 -21 0 -8 17 -21 38 -29 20 -8 50 -21
66 -29 20 -11 32 -12 41 -5 8 7 19 4 35 -10 13 -12 30 -18 38 -15 7 3 18 5 23
5 5 0 9 7 9 15 0 19 56 20 63 1 5 -13 77 -28 77 -16 0 3 22 5 49 4 42 -1 51 2
62 22 6 13 28 29 48 35 20 6 43 17 51 24 8 8 33 16 55 20 66 11 75 15 75 36 0
11 3 18 8 16 4 -3 17 -1 28 3 17 7 21 16 19 47 -1 22 -7 37 -14 35 -15 -3 -14
21 1 36 10 10 9 19 -4 45 -9 17 -19 40 -22 50 -3 9 -13 17 -22 17 -9 0 -22 7
-28 16 -8 11 -33 17 -77 20 -35 3 -77 6 -94 7 -19 1 -33 9 -38 21 -6 14 -13
17 -35 11 -15 -4 -38 -7 -52 -8 -14 -1 -31 -6 -38 -11 -14 -9 -41 18 -42 42 0
31 -28 42 -102 40 -40 0 -80 -3 -88 -6z"/>
<path d="M9882 7274 c4 -23 106 -55 218 -68 39 -5 66 6 56 22 -6 10 -13 11
-153 33 -46 7 -83 16 -83 21 0 4 -9 8 -21 8 -13 0 -19 -5 -17 -16z"/>
<path d="M10900 6999 c0 -15 5 -20 22 -17 34 5 37 38 4 38 -20 0 -26 -5 -26
-21z"/>
<path d="M2487 6897 c-7 -20 1 -27 30 -27 18 0 24 5 21 18 -4 21 -43 28 -51 9z"/>
<path d="M9303 6843 c-36 -24 -26 -62 23 -89 19 -11 107 -5 120 9 3 3 7 20 7
37 2 31 -1 33 -48 46 -64 17 -75 16 -102 -3z"/>
<path d="M11200 6773 c-14 -3 -30 -9 -37 -15 -7 -5 -17 -7 -23 -3 -5 3 -10 2
-10 -4 0 -5 4 -12 9 -16 5 -3 12 -19 16 -35 10 -44 30 -50 91 -29 30 11 60 19
69 19 18 0 18 -1 4 39 -7 19 -16 30 -24 27 -7 -2 -21 2 -32 9 -19 15 -22 15
-63 8z"/>
<path d="M781 6713 c-30 -8 -60 -21 -68 -29 -17 -16 -29 -18 -38 -4 -3 6 -10
10 -14 10 -15 0 -89 -75 -96 -97 -5 -20 -1 -24 40 -34 25 -6 48 -16 51 -21 3
-5 13 -3 22 5 25 22 153 52 161 38 9 -14 70 4 89 27 14 19 16 62 2 62 -5 0
-22 14 -37 30 -29 33 -34 34 -112 13z"/>
<path d="M2705 6544 c-16 -17 -16 -18 1 -31 29 -21 46 -16 42 14 -4 33 -20 39
-43 17z"/>
<path d="M3603 6498 c-26 -13 -31 -38 -7 -38 18 0 44 23 44 39 0 13 -8 13 -37
-1z"/>
<path d="M9780 6500 c0 -5 5 -10 10 -10 6 0 10 5 10 10 0 6 -4 10 -10 10 -5 0
-10 -4 -10 -10z"/>
<path d="M3840 6471 c0 -4 -17 -11 -37 -15 -21 -3 -51 -13 -68 -22 -16 -9 -41
-23 -55 -30 -43 -23 -78 -59 -86 -88 -8 -33 22 -103 49 -110 9 -2 17 -11 17
-20 0 -30 79 -11 138 34 22 16 43 24 63 22 23 -3 36 4 64 34 29 31 35 44 35
81 0 51 -22 99 -47 106 -51 14 -73 17 -73 8z"/>
<path d="M11090 6426 c0 -10 9 -16 21 -16 24 0 21 23 -4 28 -10 2 -17 -3 -17
-12z"/>
<path d="M3023 6245 c-7 -19 -4 -22 22 -27 14 -2 21 3 23 20 3 17 -2 22 -18
22 -11 0 -23 -7 -27 -15z"/>
<path d="M9746 6185 c-13 -10 -25 -11 -43 -4 -36 14 -43 11 -43 -14 0 -29 18
-47 47 -47 13 0 29 -10 39 -25 10 -15 26 -25 39 -25 13 0 25 -4 27 -10 2 -5
17 -12 34 -16 25 -5 37 -1 55 17 21 21 21 24 7 27 -9 2 -20 12 -23 23 -4 10
-13 19 -22 19 -20 0 -64 35 -55 45 4 5 -1 5 -10 2 -12 -4 -18 -1 -18 8 0 19
-10 19 -34 0z"/>
<path d="M10720 6185 c0 -8 8 -18 18 -24 20 -10 62 -10 62 2 0 4 0 14 0 22 0
11 -11 15 -40 15 -28 0 -40 -4 -40 -15z"/>
<path d="M3255 6151 c-3 -5 -1 -12 5 -16 12 -7 30 2 30 16 0 12 -27 12 -35 0z"/>
<path d="M3446 5958 c-41 -36 -45 -54 -15 -63 16 -5 30 1 55 26 65 63 28 97
-40 37z"/>
<path d="M2570 5866 c0 -8 5 -18 10 -21 6 -3 10 3 10 14 0 12 -4 21 -10 21 -5
0 -10 -6 -10 -14z"/>
<path d="M9747 5813 c-13 -12 -7 -33 8 -33 15 0 74 -36 86 -54 11 -15 49 4 49
25 0 13 -12 25 -34 34 -19 8 -37 19 -41 25 -7 11 -58 14 -68 3z"/>
<path d="M2832 5729 c-13 -5 -28 -7 -33 -3 -5 3 -9 -2 -9 -10 0 -12 -11 -16
-46 -16 -36 0 -45 -3 -41 -14 4 -9 -3 -16 -19 -20 -14 -4 -33 -20 -42 -36 -9
-17 -20 -30 -24 -30 -5 0 -17 -9 -29 -21 -20 -20 -19 -59 2 -59 5 0 9 -7 9
-16 0 -12 -6 -15 -26 -10 -24 6 -77 -5 -116 -25 -10 -5 -24 -9 -32 -9 -8 0
-16 -7 -20 -15 -3 -8 -14 -15 -25 -15 -15 0 -23 -11 -32 -40 -12 -41 -63 -90
-94 -90 -22 0 -30 -27 -14 -46 11 -14 11 -18 -4 -29 -9 -7 -17 -23 -17 -35 0
-13 3 -21 6 -17 3 3 15 -2 26 -13 17 -15 18 -21 6 -39 -11 -18 -10 -22 7 -35
11 -8 24 -12 29 -9 4 3 12 -1 17 -8 6 -9 12 -10 17 -4 4 6 23 10 42 11 70 2
104 12 130 37 18 18 30 23 37 16 9 -9 44 -4 122 17 7 2 11 10 8 18 -3 8 2 17
11 20 9 3 24 9 32 14 8 5 24 13 35 19 12 6 20 20 20 35 0 16 12 35 35 53 19
16 36 29 36 29 1 1 5 23 8 49 7 47 7 49 -16 46 -13 -2 -30 1 -38 6 -8 5 -30
12 -50 16 -31 6 -33 8 -12 14 12 4 22 15 22 25 0 25 31 49 55 40 28 -10 75 11
81 37 4 13 13 23 21 23 8 0 11 5 8 10 -4 6 -3 16 2 23 5 7 10 24 12 40 2 20
-2 27 -15 27 -10 0 -28 11 -39 24 -16 18 -25 22 -43 15z"/>
<path d="M3550 5660 c0 -5 7 -10 15 -10 8 0 15 5 15 10 0 6 -7 10 -15 10 -8 0
-15 -4 -15 -10z"/>
<path d="M9565 5590 c-3 -5 -1 -10 4 -10 6 0 11 5 11 10 0 6 -2 10 -4 10 -3 0
-8 -4 -11 -10z"/>
<path d="M9622 5515 c-17 -14 -42 -25 -60 -25 -16 0 -41 -9 -56 -21 -21 -17
-26 -29 -26 -65 0 -24 -4 -44 -10 -44 -5 0 -10 -13 -10 -30 0 -17 -7 -33 -16
-38 -12 -6 -17 -24 -19 -55 0 -25 -7 -53 -15 -62 -18 -22 0 -75 46 -132 19
-23 34 -48 34 -56 0 -16 56 -77 70 -77 5 0 15 -6 22 -13 7 -7 25 -20 41 -30
15 -10 27 -25 28 -35 0 -10 3 -12 6 -4 7 17 23 15 37 -4 6 -8 19 -16 28 -17
27 -5 48 -28 48 -56 1 -41 24 -63 73 -68 46 -5 61 -21 69 -68 3 -17 10 -20 50
-17 38 2 46 0 51 -17 5 -20 69 -45 75 -30 2 4 20 5 41 2 49 -7 77 9 84 47 6
25 11 30 36 30 59 0 89 11 95 36 4 15 14 24 26 24 44 0 48 84 5 116 -20 15
-21 21 -13 46 6 16 8 31 5 34 -3 3 4 15 15 26 l21 21 -24 18 c-13 9 -35 27
-48 38 -13 12 -32 21 -43 21 -10 0 -18 5 -18 10 0 6 4 10 10 10 5 0 21 12 35
27 26 29 34 63 14 63 -7 0 -9 10 -5 24 4 18 1 28 -11 34 -9 5 -17 20 -18 33
-1 14 -11 28 -23 34 -14 6 -21 17 -20 30 3 17 -2 20 -32 17 -28 -3 -33 -1 -22
9 6 7 12 25 12 41 0 21 -4 26 -15 21 -9 -3 -21 2 -28 11 -7 9 -26 19 -42 22
-16 3 -34 12 -38 20 -6 11 -17 14 -33 10 -17 -5 -24 -2 -24 9 0 11 -5 13 -25
5 -16 -6 -26 -6 -31 1 -4 7 -23 8 -51 4 -39 -6 -47 -4 -68 19 -13 14 -30 26
-37 26 -8 0 -23 7 -35 15 -11 8 -37 13 -57 11 -21 -1 -41 3 -47 11 -16 18 -23
17 -57 -12z"/>
<path d="M3595 5520 c3 -5 8 -10 11 -10 2 0 4 5 4 10 0 6 -5 10 -11 10 -5 0
-7 -4 -4 -10z"/>
<path d="M11675 5130 c-25 -40 45 -102 92 -81 14 7 23 18 21 28 -7 34 -98 77
-113 53z"/>
<path d="M1240 5083 c-11 -8 -20 -21 -20 -29 0 -8 -7 -14 -15 -14 -10 0 -15
-11 -15 -35 0 -30 3 -35 25 -35 13 0 28 6 32 13 4 6 25 25 46 40 20 15 37 31
37 35 0 4 -16 15 -35 24 -30 13 -37 13 -55 1z"/>
<path d="M6837 5083 c-6 -12 32 -93 43 -93 15 0 12 37 -5 70 -15 29 -30 38
-38 23z"/>
<path d="M2030 5060 c0 -5 7 -10 15 -10 8 0 15 5 15 10 0 6 -7 10 -15 10 -8 0
-15 -4 -15 -10z"/>
<path d="M8900 5036 c0 -36 27 -76 100 -148 81 -80 110 -95 110 -57 0 28 -27
64 -111 148 -68 69 -99 86 -99 57z"/>
<path d="M11531 5034 c0 -11 3 -14 6 -6 3 7 2 16 -1 19 -3 4 -6 -2 -5 -13z"/>
<path d="M5087 4931 c-15 -27 -27 -54 -27 -60 0 -20 30 -11 39 12 5 12 16 39
25 60 25 57 -5 48 -37 -12z"/>
<path d="M4700 4820 c0 -6 -11 -28 -25 -50 -14 -22 -25 -46 -25 -54 0 -7 -6
-19 -14 -25 -8 -7 -17 -27 -20 -46 -5 -24 -11 -32 -21 -28 -11 4 -15 -3 -15
-30 0 -19 -6 -40 -14 -47 -8 -6 -12 -18 -9 -26 5 -15 43 -20 43 -5 0 4 12 21
27 37 14 16 27 40 29 54 5 40 32 98 51 109 14 8 15 13 6 19 -10 6 -10 17 -3
42 13 44 13 60 0 60 -5 0 -10 -5 -10 -10z"/>
<path d="M11130 4796 c0 -20 5 -26 21 -26 15 0 20 5 17 22 -5 34 -38 37 -38 4z"/>
<path d="M6585 4780 c-3 -5 -23 -10 -43 -10 -34 0 -40 -4 -62 -46 -25 -45 -25
-46 -6 -60 11 -8 26 -14 33 -14 7 0 13 -4 13 -9 0 -5 -13 -8 -30 -6 -21 3 -37
-3 -59 -24 -26 -24 -29 -33 -24 -65 3 -22 1 -42 -7 -51 -9 -10 -9 -15 -1 -15
6 0 11 -7 11 -15 0 -8 5 -15 11 -15 5 0 14 -13 20 -28 16 -47 127 -103 150
-76 8 10 22 13 41 9 18 -4 28 -3 28 5 0 6 4 9 10 5 5 -3 17 -1 27 4 26 14 57
24 66 23 4 -1 7 6 7 17 0 10 9 30 21 45 31 39 32 137 2 194 -13 23 -23 48 -23
56 0 22 -44 53 -85 59 -22 4 -41 11 -43 17 -5 13 -49 13 -57 0z"/>
<path d="M4416 4765 c-9 -9 -16 -25 -16 -36 0 -16 5 -18 28 -13 33 8 39 13 44
39 4 26 -33 33 -56 10z"/>
<path d="M7502 4685 c3 -14 4 -25 3 -25 -1 0 -15 6 -31 14 -55 26 -80 27 -105
5 -13 -11 -30 -24 -38 -29 -12 -7 -12 -10 2 -25 19 -18 22 -35 7 -35 -5 0 -10
-18 -10 -40 0 -26 -6 -42 -16 -48 -13 -7 -15 -18 -10 -55 7 -43 9 -46 51 -58
25 -7 45 -19 45 -25 0 -21 67 -22 84 -2 9 10 23 18 31 18 9 0 15 9 15 25 0 14
7 28 15 31 21 8 19 30 -5 47 l-21 14 21 6 c16 4 20 11 16 24 -3 11 1 28 9 39
24 31 18 69 -17 108 -37 42 -52 46 -46 11z"/>
<path d="M8200 4632 c0 -20 27 -62 40 -62 15 0 22 38 10 60 -13 25 -50 27 -50
2z"/>
<path d="M1735 4610 c-18 -20 -14 -50 7 -50 23 0 78 39 78 55 0 23 -63 20 -85
-5z"/>
<path d="M6890 4618 c0 -19 18 -43 25 -36 9 9 -4 48 -16 48 -5 0 -9 -6 -9 -12z"/>
<path d="M9605 4600 c-3 -5 -1 -10 4 -10 6 0 11 5 11 10 0 6 -2 10 -4 10 -3 0
-8 -4 -11 -10z"/>
<path d="M11938 4514 c-3 -3 -3 -14 -1 -25 8 -28 47 -21 51 9 3 17 -1 22 -21
22 -13 0 -26 -3 -29 -6z"/>
<path d="M3650 4490 c0 -6 -4 -9 -9 -6 -11 7 -22 -31 -14 -51 7 -19 53 -37 65
-25 5 5 11 25 15 45 4 29 2 37 -10 37 -8 0 -22 3 -31 6 -9 3 -16 1 -16 -6z"/>
<path d="M9435 4490 c3 -5 10 -10 16 -10 5 0 9 5 9 10 0 6 -7 10 -16 10 -8 0
-12 -4 -9 -10z"/>
<path d="M13866 4435 c-6 -17 10 -39 23 -31 16 10 13 43 -4 43 -8 0 -16 -6
-19 -12z"/>
<path d="M1821 4366 c-7 -8 -24 -13 -38 -11 -36 4 -62 -13 -55 -37 2 -10 9
-18 15 -18 5 0 3 -8 -6 -18 -29 -31 -21 -49 24 -56 29 -5 44 -2 55 9 9 8 24
15 33 15 10 0 24 7 31 15 7 8 19 15 26 15 18 0 19 60 2 60 -7 0 -24 9 -38 20
-30 24 -34 24 -49 6z"/>
<path d="M15130 4348 c1 -28 62 -77 99 -80 14 0 35 -1 45 -2 14 -1 20 6 20 27
2 40 -4 46 -65 62 -79 21 -99 20 -99 -7z"/>
<path d="M1041 4271 c-14 -9 -9 -41 7 -41 17 0 45 27 38 38 -9 14 -26 15 -45
3z"/>
<path d="M4280 4270 c0 -5 5 -10 10 -10 6 0 10 5 10 10 0 6 -4 10 -10 10 -5 0
-10 -4 -10 -10z"/>
<path d="M2735 4226 c-23 -19 -27 -27 -18 -36 9 -10 17 -7 37 13 46 46 31 63
-19 23z"/>
<path d="M12694 4050 c-22 -9 -38 -48 -29 -72 3 -7 22 -24 42 -36 30 -21 39
-22 58 -12 19 10 23 19 20 48 -2 20 -9 38 -15 40 -7 3 -21 13 -31 23 -11 11
-20 19 -21 18 -2 0 -13 -4 -24 -9z"/>
<path d="M9723 3974 c5 -51 17 -64 60 -64 39 0 36 35 -9 76 -48 46 -58 44 -51
-12z"/>
<path d="M960 3990 c0 -5 5 -10 10 -10 6 0 10 5 10 10 0 6 -4 10 -10 10 -5 0
-10 -4 -10 -10z"/>
<path d="M1725 3987 c-49 -57 -68 -108 -46 -121 24 -15 119 86 103 110 -11 18
-46 24 -57 11z"/>
<path d="M15655 3979 c-16 -5 -40 -17 -52 -27 -19 -16 -20 -21 -10 -64 8 -33
17 -48 31 -52 25 -6 46 10 46 35 0 11 9 28 20 39 13 13 19 30 17 47 -4 31 -11
34 -52 22z"/>
<path d="M8085 3891 c-3 -5 -2 -35 1 -67 9 -71 51 -127 81 -108 23 15 19 79
-8 107 -10 12 -19 26 -19 32 0 10 -35 45 -45 45 -2 0 -6 -4 -10 -9z"/>
<path d="M860 3780 c-44 -8 -60 -17 -60 -35 0 -7 -12 -15 -27 -17 -20 -2 -30
-11 -38 -32 -8 -24 -6 -31 14 -47 40 -32 91 -20 91 23 0 10 13 24 30 33 34 17
44 19 35 5 -3 -5 -2 -10 3 -10 17 0 19 47 3 67 -13 15 -23 18 -51 13z"/>
<path d="M4125 3694 c-12 -9 -33 -13 -50 -11 -35 5 -79 -9 -118 -37 -23 -17
-27 -25 -21 -51 12 -53 10 -99 -5 -130 -8 -16 -18 -38 -23 -47 -13 -28 -9 -58
7 -58 10 0 15 -10 15 -34 0 -29 5 -36 35 -50 19 -10 41 -14 48 -9 6 4 20 6 30
5 10 -2 24 1 30 6 7 5 28 12 47 16 57 11 86 28 99 58 7 15 18 28 25 28 22 0
104 88 93 99 -7 7 -7 18 1 33 18 37 24 68 13 68 -5 0 -11 10 -13 22 -4 30
-113 102 -158 105 -19 1 -44 -5 -55 -13z"/>
<path d="M4895 3629 c-4 -6 -13 -8 -21 -5 -7 3 -16 1 -20 -5 -3 -5 -14 -7 -23
-4 -25 8 -43 -36 -35 -86 5 -30 4 -39 -7 -37 -7 2 -14 -5 -17 -14 -5 -24 27
-68 49 -68 11 0 19 -5 19 -11 0 -6 10 -9 23 -7 13 2 29 -1 35 -9 21 -21 40
-15 56 19 20 38 20 42 1 35 -20 -8 -28 8 -10 23 8 7 15 17 15 23 0 5 16 30 36
54 20 24 33 47 29 51 -4 4 -10 1 -12 -5 -3 -8 -18 0 -41 22 -37 35 -65 44 -77
24z"/>
<path d="M7557 3486 c-18 -26 -5 -98 29 -161 17 -33 23 -56 19 -75 -7 -32 13
-53 46 -48 28 4 42 48 32 98 -3 19 -7 61 -8 92 -1 49 -5 61 -30 85 -35 33 -70
37 -88 9z"/>
<path d="M7535 3490 c-3 -5 -1 -10 4 -10 6 0 11 5 11 10 0 6 -2 10 -4 10 -3 0
-8 -4 -11 -10z"/>
<path d="M15285 3460 c-10 -11 -30 -20 -44 -20 -26 0 -68 -20 -44 -20 8 0 12
-14 11 -36 -1 -24 4 -39 15 -45 9 -5 36 -25 60 -43 39 -30 53 -34 131 -40 73
-6 87 -4 92 9 9 23 -5 65 -21 65 -13 0 -19 12 -16 32 0 4 -11 16 -24 26 -14
11 -25 23 -25 27 0 13 -29 35 -45 35 -9 0 -23 7 -31 15 -21 20 -37 19 -59 -5z"/>
<path d="M10854 3335 c-7 -18 46 -75 71 -75 8 0 19 -8 24 -17 9 -15 12 -16 20
-4 7 11 0 27 -26 58 -19 24 -39 43 -43 43 -5 0 -15 3 -24 6 -10 4 -18 0 -22
-11z"/>
<path d="M905 3237 c-33 -6 -62 -14 -65 -17 -3 -4 -15 -10 -27 -14 -13 -4 -23
-12 -23 -18 0 -15 -31 -37 -52 -38 -12 0 -17 -7 -15 -22 1 -14 -4 -23 -13 -23
-22 0 -83 -27 -99 -43 -19 -18 -22 -53 -8 -73 16 -20 65 -18 81 4 7 9 23 17
35 17 11 0 21 6 21 13 0 17 31 41 55 44 70 9 91 15 121 38 19 14 34 30 34 36
0 5 7 9 15 9 22 0 35 40 22 65 -6 11 -9 22 -8 25 4 8 -12 7 -74 -3z"/>
<path d="M11085 3194 c-31 -75 -5 -104 34 -38 27 45 27 74 1 74 -13 0 -25 -12
-35 -36z"/>
<path d="M1963 3093 c-24 -5 -38 -18 -47 -49 -9 -29 25 -38 71 -19 27 12 33
19 33 44 0 32 -5 34 -57 24z"/>
<path d="M1190 3070 c0 -5 5 -10 10 -10 6 0 10 5 10 10 0 6 -4 10 -10 10 -5 0
-10 -4 -10 -10z"/>
<path d="M7030 2807 c0 -17 -4 -47 -9 -65 -6 -18 -7 -64 -4 -103 7 -77 27
-104 71 -92 21 5 22 8 15 87 -4 44 -7 102 -7 129 1 26 -3 47 -7 47 -5 0 -9 7
-9 15 0 9 -9 15 -25 15 -22 0 -25 -4 -25 -33z"/>
<path d="M3040 2813 c-14 -3 -29 -9 -34 -14 -6 -5 -17 -9 -26 -9 -8 0 -21 -9
-28 -20 -7 -11 -19 -20 -28 -20 -11 0 -14 -5 -9 -17 4 -10 10 -26 12 -36 7
-24 74 -52 84 -36 5 9 14 9 37 0 33 -14 52 -8 52 15 0 8 9 14 20 14 11 0 20 5
20 10 0 6 6 10 13 10 7 0 13 17 15 45 l2 45 -34 0 c-19 0 -38 5 -41 10 -6 10
-12 11 -55 3z"/>
<path d="M2415 2800 c-3 -5 -1 -10 4 -10 6 0 11 5 11 10 0 6 -2 10 -4 10 -3 0
-8 -4 -11 -10z"/>
<path d="M13225 2550 c-27 -30 -7 -70 36 -70 31 0 31 1 26 37 -6 32 -20 52
-38 53 -3 0 -14 -9 -24 -20z"/>
<path d="M6627 2523 c-7 -10 1 -152 9 -164 3 -5 14 -9 25 -9 19 0 19 4 13 63
-4 34 -10 73 -14 86 -6 26 -24 38 -33 24z"/>
<path d="M8916 2442 c-3 -6 -1 -14 5 -17 15 -10 25 3 12 16 -7 7 -13 7 -17 1z"/>
<path d="M6488 2232 c-3 -22 -3 -69 1 -105 5 -46 3 -73 -6 -89 -18 -33 -16
-44 12 -74 48 -52 65 -16 44 91 -6 28 -14 84 -20 125 -11 86 -24 108 -31 52z"/>
<path d="M1350 1960 c0 -5 5 -10 10 -10 6 0 10 5 10 10 0 6 -4 10 -10 10 -5 0
-10 -4 -10 -10z"/>
<path d="M6877 1844 c-4 -4 -7 -42 -7 -85 0 -67 3 -80 19 -89 33 -17 39 -12
46 34 12 76 -27 170 -58 140z"/>
<path d="M8550 1681 c-19 -4 -49 -15 -67 -24 -18 -9 -38 -17 -44 -17 -7 0 -23
-10 -35 -21 -13 -12 -34 -27 -46 -33 -29 -14 -35 -44 -12 -53 10 -4 28 -18 40
-32 25 -29 23 -60 -6 -98 -16 -21 -16 -24 4 -68 12 -26 26 -43 33 -41 7 3 15
1 18 -4 4 -6 14 -10 25 -10 14 0 18 -7 16 -32 -1 -32 0 -33 40 -34 22 -1 58
-11 79 -23 42 -22 70 -27 79 -12 3 5 14 7 24 4 10 -2 30 0 45 6 21 8 27 17 27
41 0 16 4 30 9 30 27 0 17 93 -12 112 -9 6 -7 12 5 21 16 13 16 15 -2 44 -10
17 -23 34 -29 37 -17 11 -13 26 4 20 26 -10 18 48 -10 78 -14 15 -25 30 -25
33 0 8 -27 35 -35 35 -3 0 -21 11 -39 25 -18 14 -37 24 -42 24 -5 -1 -25 -4
-44 -8z"/>
<path d="M12858 1652 c-28 -6 -21 -25 30 -78 51 -55 99 -81 115 -65 14 14 0
61 -19 61 -8 0 -17 6 -20 14 -8 22 -87 73 -106 68z"/>
<path d="M11117 1593 c-11 -10 6 -33 24 -33 12 0 16 5 13 14 -6 16 -29 28 -37
19z"/>
<path d="M1166 1504 c-9 -8 -16 -20 -16 -25 0 -5 -7 -9 -15 -9 -29 0 -15 -17
25 -30 34 -11 44 -11 66 0 22 12 24 16 10 26 -9 6 -16 18 -16 27 0 8 -7 18
-16 21 -21 8 -20 8 -38 -10z"/>
<path d="M13010 1208 c0 -19 64 -88 83 -88 4 0 7 -5 7 -11 0 -19 31 -36 56
-31 17 3 24 11 24 28 0 14 -7 27 -15 30 -8 4 -15 13 -15 20 0 19 -87 74 -117
74 -17 0 -23 -6 -23 -22z"/>
<path d="M1159 778 c-71 -80 -72 -81 -62 -97 21 -34 41 -23 77 42 20 35 36 69
36 75 0 21 -21 13 -51 -20z"/>
<path d="M10127 173 c-8 -10 -18 -30 -22 -45 -9 -34 26 -58 50 -35 21 22 29
65 15 82 -16 19 -23 19 -43 -2z"/>
<path d="M9326 35 c-22 -22 -20 -35 4 -35 23 0 38 26 23 41 -7 7 -16 5 -27 -6z"/>
</g>
</svg>
